<svg version="1.1" id="el_Vgi-yB05Q" xmlns="http://www.w3.org/2000/svg" xmlns:xlink="http://www.w3.org/1999/xlink" x="0px" y="0px" viewBox="0 0 576 576" style="enable-background:new 0 0 576 576;" xml:space="preserve"><style>@-webkit-keyframes kf_el_I2akX6MTQNL_an_GtApak4oz{0%{-webkit-transform: translate(193.3000030517578px, 108.4000015258789px) translate(-193.3000030517578px, -108.4000015258789px) translate(0px, 0px);transform: translate(193.3000030517578px, 108.4000015258789px) translate(-193.3000030517578px, -108.4000015258789px) translate(0px, 0px);}36.67%{-webkit-transform: translate(193.3000030517578px, 108.4000015258789px) translate(-193.3000030517578px, -108.4000015258789px) translate(0px, 250px);transform: translate(193.3000030517578px, 108.4000015258789px) translate(-193.3000030517578px, -108.4000015258789px) translate(0px, 250px);}40%{-webkit-transform: translate(193.3000030517578px, 108.4000015258789px) translate(-193.3000030517578px, -108.4000015258789px) translate(60px, 0px);transform: translate(193.3000030517578px, 108.4000015258789px) translate(-193.3000030517578px, -108.4000015258789px) translate(60px, 0px);}67.78%{-webkit-transform: translate(193.3000030517578px, 108.4000015258789px) translate(-193.3000030517578px, -108.4000015258789px) translate(60px, 250px);transform: translate(193.3000030517578px, 108.4000015258789px) translate(-193.3000030517578px, -108.4000015258789px) translate(60px, 250px);}100%{-webkit-transform: translate(193.3000030517578px, 108.4000015258789px) translate(-193.3000030517578px, -108.4000015258789px) translate(60px, 250px);transform: translate(193.3000030517578px, 108.4000015258789px) translate(-193.3000030517578px, -108.4000015258789px) translate(60px, 250px);}}@keyframes kf_el_I2akX6MTQNL_an_GtApak4oz{0%{-webkit-transform: translate(193.3000030517578px, 108.4000015258789px) translate(-193.3000030517578px, -108.4000015258789px) translate(0px, 0px);transform: translate(193.3000030517578px, 108.4000015258789px) translate(-193.3000030517578px, -108.4000015258789px) translate(0px, 0px);}36.67%{-webkit-transform: translate(193.3000030517578px, 108.4000015258789px) translate(-193.3000030517578px, -108.4000015258789px) translate(0px, 250px);transform: translate(193.3000030517578px, 108.4000015258789px) translate(-193.3000030517578px, -108.4000015258789px) translate(0px, 250px);}40%{-webkit-transform: translate(193.3000030517578px, 108.4000015258789px) translate(-193.3000030517578px, -108.4000015258789px) translate(60px, 0px);transform: translate(193.3000030517578px, 108.4000015258789px) translate(-193.3000030517578px, -108.4000015258789px) translate(60px, 0px);}67.78%{-webkit-transform: translate(193.3000030517578px, 108.4000015258789px) translate(-193.3000030517578px, -108.4000015258789px) translate(60px, 250px);transform: translate(193.3000030517578px, 108.4000015258789px) translate(-193.3000030517578px, -108.4000015258789px) translate(60px, 250px);}100%{-webkit-transform: translate(193.3000030517578px, 108.4000015258789px) translate(-193.3000030517578px, -108.4000015258789px) translate(60px, 250px);transform: translate(193.3000030517578px, 108.4000015258789px) translate(-193.3000030517578px, -108.4000015258789px) translate(60px, 250px);}}@-webkit-keyframes kf_el_nEdCc3bWbI_an_KZPYE9S8k{0%{opacity: 1;}67.78%{opacity: 0.5;}100%{opacity: 0;}}@keyframes kf_el_nEdCc3bWbI_an_KZPYE9S8k{0%{opacity: 1;}67.78%{opacity: 0.5;}100%{opacity: 0;}}@-webkit-keyframes kf_el_JNb-PWqaRU_an_OJWk9Dgu4{0%{opacity: 1;}36.67%{opacity: 0;}100%{opacity: 0;}}@keyframes kf_el_JNb-PWqaRU_an_OJWk9Dgu4{0%{opacity: 1;}36.67%{opacity: 0;}100%{opacity: 0;}}@-webkit-keyframes kf_el_M3wnQjjIxS_an_I38YDm39b{0%{opacity: 0;}67.78%{opacity: 0;}100%{opacity: 1;}}@keyframes kf_el_M3wnQjjIxS_an_I38YDm39b{0%{opacity: 0;}67.78%{opacity: 0;}100%{opacity: 1;}}@-webkit-keyframes kf_el_zTOdO900O3_an_4i-ylBJlI{0%{opacity: 0;}36.67%{opacity: 1;}100%{opacity: 1;}}@keyframes kf_el_zTOdO900O3_an_4i-ylBJlI{0%{opacity: 0;}36.67%{opacity: 1;}100%{opacity: 1;}}#el_Vgi-yB05Q *{-webkit-animation-duration: 3s;animation-duration: 3s;-webkit-animation-iteration-count: infinite;animation-iteration-count: infinite;-webkit-animation-timing-function: cubic-bezier(0, 0, 1, 1);animation-timing-function: cubic-bezier(0, 0, 1, 1);}#el_swmIgkXHMq{fill: #FFD715;}#el_JpZDDAEHyX{fill: #FFCA02;}#el_3BNs5dTnVx{fill: #EAAF0A;-webkit-transform: matrix(0.6432, -0.7657, 0.7657, 0.6432, -170.7641, 220.7417);transform: matrix(0.6432, -0.7657, 0.7657, 0.6432, -170.7641, 220.7417);}#el_nOWDEYQ6VN{fill: #FFD715;}#el__7Xr2qe9NQ{fill: #FFCA02;}#el_ixEqXoCy2m{fill: #EAAF0A;-webkit-transform: matrix(0.7828, -0.6223, 0.6223, 0.7828, -93.3142, 328.7321);transform: matrix(0.7828, -0.6223, 0.6223, 0.7828, -93.3142, 328.7321);}#el_RSPNJb-dl-{fill: #FFD715;}#el_X_bvbhllsk{fill: #FFCA02;}#el_nEdCc3bWbI{fill: #FFD715;-webkit-animation-fill-mode: backwards;animation-fill-mode: backwards;opacity: 1;-webkit-animation-name: kf_el_nEdCc3bWbI_an_KZPYE9S8k;animation-name: kf_el_nEdCc3bWbI_an_KZPYE9S8k;-webkit-animation-timing-function: cubic-bezier(0, 0, 1, 1);animation-timing-function: cubic-bezier(0, 0, 1, 1);}#el_K4hjNmFoDV3{fill: #834E40;}#el_FxiusiGKgP_{fill: #FFD715;}#el_E-zps3w2APL{fill: #E8F1F0;}#el_vTmB-i3QO12{fill: #6D726F;}#el_q18qexWci48{fill: #374757;}#el_zTOdO900O3{-webkit-animation-fill-mode: backwards;animation-fill-mode: backwards;opacity: 0;-webkit-animation-name: kf_el_zTOdO900O3_an_4i-ylBJlI;animation-name: kf_el_zTOdO900O3_an_4i-ylBJlI;-webkit-animation-timing-function: cubic-bezier(0, 0, 1, 1);animation-timing-function: cubic-bezier(0, 0, 1, 1);}#el_M3wnQjjIxS{-webkit-animation-fill-mode: backwards;animation-fill-mode: backwards;opacity: 0;-webkit-animation-name: kf_el_M3wnQjjIxS_an_I38YDm39b;animation-name: kf_el_M3wnQjjIxS_an_I38YDm39b;-webkit-animation-timing-function: cubic-bezier(0, 0, 1, 1);animation-timing-function: cubic-bezier(0, 0, 1, 1);}#el_JNb-PWqaRU{-webkit-animation-fill-mode: backwards;animation-fill-mode: backwards;opacity: 1;-webkit-animation-name: kf_el_JNb-PWqaRU_an_OJWk9Dgu4;animation-name: kf_el_JNb-PWqaRU_an_OJWk9Dgu4;-webkit-animation-timing-function: cubic-bezier(0, 0, 1, 1);animation-timing-function: cubic-bezier(0, 0, 1, 1);}#el_I2akX6MTQNL_an_GtApak4oz{-webkit-animation-fill-mode: backwards;animation-fill-mode: backwards;-webkit-transform: translate(193.3000030517578px, 108.4000015258789px) translate(-193.3000030517578px, -108.4000015258789px) translate(0px, 0px);transform: translate(193.3000030517578px, 108.4000015258789px) translate(-193.3000030517578px, -108.4000015258789px) translate(0px, 0px);-webkit-animation-name: kf_el_I2akX6MTQNL_an_GtApak4oz;animation-name: kf_el_I2akX6MTQNL_an_GtApak4oz;-webkit-animation-timing-function: cubic-bezier(0, 0, 1, 1);animation-timing-function: cubic-bezier(0, 0, 1, 1);}</style>

<g id="el_zTOdO900O3">
	<g id="el_qgKvtvs0A9">
		<path d="M34.5,192l232,190.6c0,0-18.8,42.9-88.4,30.4c0,0-53.3,0.5-128.4-79.9C49.7,333.1-28,278.3,34.5,192z" id="el_swmIgkXHMq"/>
		<path d="M10.7,270.5c0,0,142.7,136.9,172,131.8c0,0,66.4,6,81.9-21.4c0,0,22,17.6-26.7,39c0,0-57.4,16.3-137.7-37.2&#10;&#9;&#9;&#9;C100.2,382.8,16.5,318.8,10.7,270.5z" id="el_JpZDDAEHyX"/>
	</g>
	
		<ellipse id="el_3BNs5dTnVx" cx="151.5" cy="293.6" rx="35" ry="154.8"/>
</g>
<g id="el_M3wnQjjIxS">
	<g id="el_9KlGpYNLSo">
		<path d="M301.4,392.4l233-189.4c0,0,38.3,27,12.1,92.6c0,0-10.1,52.3-103.8,109.9&#10;&#9;&#9;&#9;C442.7,405.6,373.6,470.9,301.4,392.4z" id="el_nOWDEYQ6VN"/>
		<path d="M373.6,431.4c0,0,162.6-112.6,163.4-142.3c0,0,19.1-63.9-4.7-84.5c0,0,21.6-18.1,33,33.9&#10;&#9;&#9;&#9;c0,0,4.6,59.5-63.9,127.5C501.4,366,422.1,435.3,373.6,431.4z" id="el__7Xr2qe9NQ"/>
	</g>
	
		<ellipse id="el_ixEqXoCy2m" cx="424.3" cy="298" rx="154.8" ry="35"/>
</g>
<g id="el_JNb-PWqaRU">
	<path d="M284.5,107.2l-14.3,292.1c0,0-40.7,10.6-68.4-50.9c0,0-28.5-41.1-10.5-146.7&#10;&#9;&#9;C191.4,201.8,189.6,109.2,284.5,107.2z" id="el_RSPNJb-dl-"/>
	<path d="M215.7,134.8c0,0-22.9,191.2-3.8,211c0,0,30.7,55.2,58.5,51.1c0,0-1,27.4-42.1,2.2c0,0-42-35-46-128.8&#10;&#9;&#9;C182.4,270.2,184.1,167.6,215.7,134.8z" id="el_X_bvbhllsk"/>
</g>
<path d="M330.2,105.7l-5.8,302.8c0,0,39.9,12.7,71.7-48.6c0,0,31.2-40.3,20.5-150.1&#10;&#9;C416.6,209.8,427.8,121.9,330.2,105.7z" id="el_nEdCc3bWbI"/>
<g id="el_MbisR6qscZ">
	<path d="M301.3,106.4c-1.1-1.3,2.6-16.9-4.4-23.8l9.4-16.6h12.3c0,0-3,31.7-3,40.4S301.3,106.4,301.3,106.4z" id="el_K4hjNmFoDV3"/>
	<path d="M280.5,106.1c0,0,42.8-5.9,51.9,0l3.8,303.7c0,0-35.9,7.8-66.3,0L280.5,106.1z" id="el_FxiusiGKgP_"/>
</g>
<g id="el_I2akX6MTQNL_an_GtApak4oz" data-animator-group="true" data-animator-type="0"><g id="el_I2akX6MTQNL">
	<g id="el_6xdmc-AQOlL">
		<polygon points="276.4,108.4 214,361 226.8,368 &#9;&#9;" id="el_E-zps3w2APL"/>
		<polygon points="276.4,111.3 247.9,321.7 232,371.1 224.5,366.9 &#9;&#9;" id="el_vTmB-i3QO12"/>
	</g>
	<path d="M206,486.5l-3.4-1.7c-4.9-2.5-7.2-8.3-9.3-12.9l24.6-135.3c6-4.7,11.5-6.5,16.3-4l3.4,1.7&#10;&#9;&#9;c4.9,2.5,7.2,8.3,5.3,12.9l-24.6,135.3C216.4,487.2,210.9,489,206,486.5z" id="el_q18qexWci48"/>
</g></g>
</svg>