<?xml version="1.0" encoding="utf-8"?>
<!-- Generator: Adobe Illustrator 23.0.3, SVG Export Plug-In . SVG Version: 6.00 Build 0)  -->
<svg version="1.1" id="Layer_1" xmlns="http://www.w3.org/2000/svg" xmlns:xlink="http://www.w3.org/1999/xlink" x="0px" y="0px"
	 viewBox="0 0 35.7 35.7" style="enable-background:new 0 0 35.7 35.7;" xml:space="preserve">
<style type="text/css">
	.st0{fill:none;}
	.st1{fill:#3D3D3D;}
	.st2{fill:#58402E;}
	.st3{fill:#92B33D;}
	.st4{fill:#B8D133;}
	.st5{fill:#79451D;}
	.st6{fill:#9E772C;}
	.st7{fill:#2B4723;}
	.st8{fill:#325127;}
	.st9{fill:#4C7A3B;}
</style>
<rect x="0.5" y="0.5" class="st0" width="34.7" height="34.7"/>
<g>
	<g>
		<path class="st1" d="M9.9,32.3h-2l-0.4,0.9H7.1l1.6-3.5h0.4l1.6,3.5h-0.4L9.9,32.3z M9.7,32l-0.8-1.9L8,32H9.7z"/>
		<path class="st1" d="M13.2,30.6l-1.2,2.6h-0.4l-1.2-2.6h0.4l1,2.2l1-2.2H13.2z"/>
		<path class="st1" d="M14.1,33c-0.2-0.1-0.4-0.3-0.5-0.5c-0.1-0.2-0.2-0.4-0.2-0.7c0-0.3,0.1-0.5,0.2-0.7c0.1-0.2,0.3-0.4,0.5-0.5
			c0.2-0.1,0.4-0.2,0.7-0.2c0.3,0,0.5,0.1,0.7,0.2c0.2,0.1,0.4,0.3,0.5,0.5c0.1,0.2,0.2,0.4,0.2,0.7c0,0.3-0.1,0.5-0.2,0.7
			c-0.1,0.2-0.3,0.4-0.5,0.5s-0.4,0.2-0.7,0.2C14.5,33.2,14.3,33.2,14.1,33z M15.3,32.8c0.1-0.1,0.3-0.2,0.3-0.4
			c0.1-0.2,0.1-0.3,0.1-0.5c0-0.2,0-0.4-0.1-0.5c-0.1-0.2-0.2-0.3-0.3-0.4s-0.3-0.1-0.5-0.1c-0.2,0-0.4,0-0.5,0.1s-0.3,0.2-0.4,0.4
			c-0.1,0.2-0.1,0.3-0.1,0.5c0,0.2,0,0.4,0.1,0.5c0.1,0.2,0.2,0.3,0.4,0.4c0.1,0.1,0.3,0.1,0.5,0.1C14.9,32.9,15.1,32.9,15.3,32.8z"
			/>
		<path class="st1" d="M17.2,33c-0.2-0.1-0.4-0.3-0.5-0.5c-0.1-0.2-0.2-0.4-0.2-0.7c0-0.3,0.1-0.5,0.2-0.7c0.1-0.2,0.3-0.4,0.5-0.5
			c0.2-0.1,0.4-0.2,0.7-0.2c0.2,0,0.4,0,0.6,0.1c0.2,0.1,0.3,0.2,0.4,0.4l-0.3,0.2c-0.1-0.1-0.2-0.2-0.3-0.3
			c-0.1-0.1-0.3-0.1-0.4-0.1c-0.2,0-0.4,0-0.5,0.1c-0.2,0.1-0.3,0.2-0.4,0.4c-0.1,0.2-0.1,0.3-0.1,0.5c0,0.2,0,0.4,0.1,0.5
			s0.2,0.3,0.4,0.4c0.2,0.1,0.3,0.1,0.5,0.1c0.2,0,0.3,0,0.4-0.1c0.1-0.1,0.2-0.2,0.3-0.3l0.3,0.2c-0.1,0.2-0.2,0.3-0.4,0.4
			c-0.2,0.1-0.4,0.1-0.6,0.1C17.6,33.2,17.4,33.2,17.2,33z"/>
		<path class="st1" d="M21.3,30.8c0.2,0.2,0.3,0.4,0.3,0.8v1.6h-0.3v-0.4c-0.1,0.1-0.2,0.2-0.4,0.3c-0.2,0.1-0.3,0.1-0.6,0.1
			c-0.3,0-0.5-0.1-0.7-0.2c-0.2-0.1-0.3-0.3-0.3-0.6c0-0.2,0.1-0.4,0.2-0.5c0.2-0.1,0.4-0.2,0.8-0.2h0.8v-0.2c0-0.2-0.1-0.4-0.2-0.5
			c-0.1-0.1-0.3-0.2-0.6-0.2c-0.2,0-0.3,0-0.5,0.1c-0.2,0.1-0.3,0.1-0.4,0.2l-0.2-0.3c0.1-0.1,0.3-0.2,0.5-0.3s0.4-0.1,0.6-0.1
			C20.9,30.5,21.1,30.6,21.3,30.8z M20.9,32.8c0.1-0.1,0.3-0.2,0.3-0.4V32h-0.8c-0.5,0-0.7,0.2-0.7,0.5c0,0.2,0.1,0.3,0.2,0.4
			c0.1,0.1,0.3,0.1,0.5,0.1C20.6,32.9,20.8,32.9,20.9,32.8z"/>
		<path class="st1" d="M25,29.5v3.7h-0.3v-0.5c-0.1,0.2-0.2,0.3-0.4,0.4c-0.2,0.1-0.4,0.1-0.6,0.1c-0.2,0-0.5-0.1-0.7-0.2
			s-0.4-0.3-0.5-0.5s-0.2-0.4-0.2-0.7c0-0.3,0.1-0.5,0.2-0.7s0.3-0.4,0.5-0.5s0.4-0.2,0.7-0.2c0.2,0,0.4,0,0.6,0.1
			c0.2,0.1,0.3,0.2,0.4,0.4v-1.6H25z M24.2,32.8c0.1-0.1,0.3-0.2,0.4-0.4c0.1-0.2,0.1-0.3,0.1-0.5c0-0.2,0-0.4-0.1-0.5
			c-0.1-0.2-0.2-0.3-0.4-0.4s-0.3-0.1-0.5-0.1c-0.2,0-0.4,0-0.5,0.1s-0.3,0.2-0.3,0.4c-0.1,0.2-0.1,0.3-0.1,0.5c0,0.2,0,0.4,0.1,0.5
			c0.1,0.2,0.2,0.3,0.3,0.4c0.1,0.1,0.3,0.1,0.5,0.1C23.8,32.9,24,32.9,24.2,32.8z"/>
		<path class="st1" d="M26.4,33c-0.2-0.1-0.4-0.3-0.5-0.5c-0.1-0.2-0.2-0.4-0.2-0.7c0-0.3,0.1-0.5,0.2-0.7c0.1-0.2,0.3-0.4,0.5-0.5
			c0.2-0.1,0.4-0.2,0.7-0.2c0.3,0,0.5,0.1,0.7,0.2c0.2,0.1,0.4,0.3,0.5,0.5s0.2,0.4,0.2,0.7c0,0.3-0.1,0.5-0.2,0.7s-0.3,0.4-0.5,0.5
			s-0.4,0.2-0.7,0.2C26.8,33.2,26.6,33.2,26.4,33z M27.6,32.8c0.1-0.1,0.3-0.2,0.3-0.4c0.1-0.2,0.1-0.3,0.1-0.5c0-0.2,0-0.4-0.1-0.5
			c-0.1-0.2-0.2-0.3-0.3-0.4s-0.3-0.1-0.5-0.1c-0.2,0-0.4,0-0.5,0.1s-0.3,0.2-0.3,0.4c-0.1,0.2-0.1,0.3-0.1,0.5c0,0.2,0,0.4,0.1,0.5
			c0.1,0.2,0.2,0.3,0.3,0.4c0.1,0.1,0.3,0.1,0.5,0.1C27.2,32.9,27.4,32.9,27.6,32.8z"/>
	</g>
</g>
<g>
	<path class="st2" d="M21.7,2.5C21.7,2.5,21.7,2.5,21.7,2.5l0.1-0.1c0.1-0.2-0.1-0.5-0.3-0.6l-1-0.2c-0.2-0.1-0.5,0.1-0.6,0.3l0,0.1
		C20.4,2,21,2.1,21.7,2.5z"/>
	<path class="st3" d="M20,5.5c0,0.1-0.1,0.1-0.1,0.3c0,0,0.1,0,0.1,0.1c0.1,0.2,0.5,0.9,0.5,1.8v0.1l0,0.1c0.1,1.6,0.5,4.6,1.7,6.5
		c0.2,0.4,0.5,1.4,0.5,2.6c0.1,2.1-0.4,3.9-1.7,5.4c-0.2,0.2-0.9,0.8-1.9,1.2c0.1,0.4,0.2,0.6,0.3,0.8c0.2,0.4,0.5,1.1,0.7,1.8
		c1.8-0.6,2.9-1.8,3-1.9c1.8-2.1,2.6-4.6,2.4-7.5c-0.1-1.9-0.7-3.3-0.8-3.7c-1.1-1.5-1.4-4.8-1.4-5.5l0,0v0c0-2.2-1.1-3.5-1.2-3.7
		c-0.1-0.1-0.2-0.2-0.3-0.3C21.1,4.3,20.3,5.1,20,5.5z"/>
	<path class="st3" d="M13.7,21.9c-0.2-0.4-0.7-1.3-0.8-2.8c-0.2-3.2,1.2-7.1,4.1-11.3c0.4-0.5,1-1,1.5-1.4l0,0
		c0.4-1.5,1.1-2.6,2-3.3C20.4,3,20.2,3,19.9,3c-2.1,0-4.3,2.2-5,3.1c-3.3,4.7-5,9.3-4.7,13.2c0.2,2.6,1.2,4.2,1.4,4.4
		c2.1,2,4.2,2.9,6.3,2.9c0.2,0,0.5,0,0.7,0c-0.4-0.7-0.8-1.7-1.1-2.8C16.3,23.8,15.1,23.1,13.7,21.9z"/>
	<path class="st4" d="M17.1,7.8c-2.9,4.2-4.4,8.1-4.1,11.3c0.1,1.5,0.6,2.4,0.8,2.8c1.3,1.2,2.6,1.8,3.8,2c-0.2-0.6-0.3-1.2-0.4-1.8
		c-1.7-0.4-3-1.9-3-3.8c0-1.9,1.6-3.7,3.4-4.1c0.3-3,0.7-6.4,1.1-7.8C18.1,6.8,17.5,7.3,17.1,7.8z"/>
	<path class="st4" d="M21.8,18.3c0,1.9-1.3,3.4-3.1,3.8c0.1,0.6,0.2,1.2,0.4,1.6c1-0.3,1.8-1,1.9-1.2c1.3-1.5,1.8-3.3,1.7-5.4
		c-0.1-1.2-0.4-2.2-0.5-2.6C21,12.6,20.6,9.6,20.5,8l0-0.1V7.7c0-1-0.3-1.6-0.5-1.8c-0.1,0-0.1-0.1-0.1-0.1
		c-0.4,1.2-0.8,5.3-1.1,8.4C20.6,14.5,21.8,16.3,21.8,18.3z"/>
	<path class="st5" d="M21,18.3c0,1.4-1,2.7-2.4,3c0,0.3,0.1,0.6,0.1,0.8c1.8-0.4,3.1-1.9,3.1-3.8c0-1.9-1.2-3.8-3.1-4.1
		c0,0.3-0.1,0.6-0.1,0.9C20.1,15.3,21,16.7,21,18.3z"/>
	<path class="st5" d="M14.9,18.3c0-1.4,1.2-2.7,2.5-3.2c0-0.3,0.1-0.6,0.1-0.9c-1.9,0.4-3.4,2.2-3.4,4.1c0,1.8,1.3,3.4,3,3.8
		c-0.1-0.3-0.1-0.6-0.1-0.9C15.8,20.7,14.9,19.6,14.9,18.3z"/>
	<path class="st6" d="M21,18.3c0-1.5-0.9-3-2.3-3.3c-0.1,0.7-0.2,1.4-0.2,1.8c-0.2,1.2,0,2.9,0.2,4.4C20,20.9,21,19.7,21,18.3z"/>
	<path class="st6" d="M17,19.2c0.1-0.9,0.3-2.4,0.5-4.1c-1.4,0.4-2.5,1.8-2.5,3.2c0,1.3,0.9,2.5,2,2.9C16.9,20.4,16.9,19.8,17,19.2z
		"/>
	<path class="st7" d="M21.7,2.5L21.7,2.5C21.7,2.5,21.7,2.5,21.7,2.5C21.7,2.5,21.7,2.5,21.7,2.5z"/>
	<path class="st8" d="M25.5,12.7c-1-1.3-1.3-5.1-1.3-5.1c0-2.8-1.5-4.4-1.5-4.4c-0.1-0.1-0.2-0.2-0.3-0.3c-0.3-0.2-0.5-0.4-0.8-0.6
		c0,0,0,0,0,0c-0.3,0.1-0.5,0.3-0.7,0.4C20.8,3,20.7,3,20.7,3.1c-0.9,0.7-1.6,1.7-2,3.3c-0.4,1.4-0.8,4.8-1.1,7.8
		c0,0.3-0.1,0.6-0.1,0.9c-0.2,1.7-0.3,3.2-0.5,4.1c-0.1,0.5-0.1,1.2,0,1.9c0,0.3,0,0.6,0,0.9c0.1,0.6,0.3,1.2,0.5,1.8
		c0.3,1,0.7,2,1.1,2.8c0.2,0.4,0.4,0.7,0.6,0.9c0.4-0.1,0.8-0.2,1.2-0.3c2.1-0.7,3.4-2.2,3.4-2.2C28.6,19.4,25.5,12.7,25.5,12.7z
		 M23.1,24.4c-0.1,0.1-1,1.1-2.5,1.7c-0.3,0.1-0.6,0-0.7-0.3c-0.2-0.5-0.4-1.1-0.6-1.3c-0.1-0.1-0.2-0.4-0.3-0.8
		c-0.1-0.4-0.2-1-0.4-1.6c0-0.3-0.1-0.5-0.1-0.8c-0.2-1.5-0.4-3.2-0.2-4.4c0.1-0.4,0.1-1.1,0.2-1.8c0-0.3,0.1-0.6,0.1-0.9
		c0.3-3,0.7-7.2,1.1-8.4c0-0.1,0.1-0.2,0.1-0.3c0.3-0.3,0.9-1,1.5-1.5c0.1-0.1,0.4-0.1,0.5,0c0,0,0,0,0,0c0.1,0.1,1.2,1.5,1.2,3.7v0
		l0,0c0.1,0.7,0.4,4,1.4,5.5c0.1,0.4,0.7,1.8,0.8,3.7C25.7,19.8,24.9,22.3,23.1,24.4z"/>
	<path class="st9" d="M21.7,2.5C21,2.1,20.4,2,19.8,2c-3,0.1-5.7,3.5-5.7,3.5c-8.7,12.2-3.3,18.9-3.3,18.9c3.2,3,6.1,3.5,8.3,3.1
		c-0.2-0.2-0.3-0.4-0.5-0.7c0,0,0,0,0,0c0,0-0.8-1.1-1.7-5.1c0,0-0.2-1.1,0.2-4.2c0,0,1.1-11.3,2-12.5c0,0,0.5-1.2,1.5-1.9
		c0,0,0,0,0,0c0.1-0.1,0.1-0.1,0.2-0.2C21.2,2.7,21.4,2.6,21.7,2.5z"/>
</g>
</svg>
