<?xml version="1.0" encoding="utf-8"?>
<!-- Generator: Adobe Illustrator 22.1.0, SVG Export Plug-In . SVG Version: 6.00 Build 0)  -->
<svg version="1.1" id="Layer_1" xmlns="http://www.w3.org/2000/svg" xmlns:xlink="http://www.w3.org/1999/xlink" x="0px" y="0px"
	 viewBox="0 0 247.1 141.4" style="enable-background:new 0 0 247.1 141.4;" xml:space="preserve">
<style type="text/css">
	.st0{fill:#FFFFFF;}
</style>
<path class="st0" d="M123.6,98.4c1.5-1.4,2.9-2.6,4.1-3.9c29.2-29.2,58.5-58.4,87.6-87.7c5.1-5.1,10.7-7.8,17.9-6.2
	c12.4,2.7,18,17.3,10.4,27.5c-1.2,1.6-2.6,3-4,4.4c-33.8,33.8-67.6,67.6-101.4,101.5c-10,10-19.4,10-29.4,0
	C74.8,99.9,40.8,65.8,6.7,31.8c-4.4-4.3-7.2-9.2-6.6-15.5C0.8,9,4.6,3.8,11.5,1.3C18.5-1.4,25,0.2,30.3,5.5
	c11.5,11.4,22.9,22.8,34.3,34.3c18.4,18.4,36.8,36.8,55.1,55.1C120.9,96,122.2,97.1,123.6,98.4z"/>
</svg>
