<?xml version="1.0" encoding="utf-8"?>
<!-- Generator: Adobe Illustrator 23.0.3, SVG Export Plug-In . SVG Version: 6.00 Build 0)  -->
<svg version="1.1" id="Layer_1" xmlns="http://www.w3.org/2000/svg" xmlns:xlink="http://www.w3.org/1999/xlink" x="0px" y="0px"
	 viewBox="0 0 30.4 15.6" style="enable-background:new 0 0 30.4 15.6;" xml:space="preserve">
<style type="text/css">
	.st0{fill:url(#SVGID_1_);}
	.st1{fill:url(#SVGID_2_);}
	.st2{fill:url(#SVGID_3_);}
</style>
<g>
	<linearGradient id="SVGID_1_" gradientUnits="userSpaceOnUse" x1="0" y1="1.8996" x2="30.4488" y2="1.8996">
		<stop  offset="0" style="stop-color:#CC215A"/>
		<stop  offset="1" style="stop-color:#EF5B2E"/>
	</linearGradient>
	<path class="st0" d="M0.8,1.7h8.9c0.7,0,1.3,1.5,1.5,2.1h1h12c5.2,0,6.3-3.8,6.3-3.8H12.2H0.8C0.4,0,0,0.4,0,0.8S0.4,1.7,0.8,1.7z"
		/>
	<linearGradient id="SVGID_2_" gradientUnits="userSpaceOnUse" x1="0" y1="7.7981" x2="30.4488" y2="7.7981">
		<stop  offset="0" style="stop-color:#CC215A"/>
		<stop  offset="1" style="stop-color:#EF5B2E"/>
	</linearGradient>
	<path class="st1" d="M0.8,5.9C0.4,5.9,0,6.3,0,6.7s0.4,0.8,0.8,0.8h8.9c0.7,0,1.3,1.5,1.5,2.1h1h12c5.2,0,6.3-3.8,6.3-3.8H12.2H0.8
		z"/>
	<linearGradient id="SVGID_3_" gradientUnits="userSpaceOnUse" x1="0" y1="13.6965" x2="30.4488" y2="13.6965">
		<stop  offset="0" style="stop-color:#CC215A"/>
		<stop  offset="1" style="stop-color:#EF5B2E"/>
	</linearGradient>
	<path class="st2" d="M0.8,11.8c-0.5,0-0.8,0.4-0.8,0.8c0,0.5,0.4,0.8,0.8,0.8h8.9c0.7,0,1.3,1.5,1.5,2.1h1h12
		c5.2,0,6.3-3.8,6.3-3.8H12.2H0.8z"/>
</g>
</svg>
