<?xml version="1.0" encoding="utf-8"?>
<!-- Generator: Adobe Illustrator 22.1.0, SVG Export Plug-In . SVG Version: 6.00 Build 0)  -->
<svg version="1.1" id="Layer_1" xmlns="http://www.w3.org/2000/svg" xmlns:xlink="http://www.w3.org/1999/xlink" x="0px" y="0px"
	 viewBox="0 0 70.7 36.2" style="enable-background:new 0 0 70.7 36.2;" xml:space="preserve">
<style type="text/css">
	.st0{fill:url(#SVGID_1_);}
	.st1{fill:url(#SVGID_2_);}
	.st2{fill:url(#SVGID_3_);}
</style>
<g>
	<linearGradient id="SVGID_1_" gradientUnits="userSpaceOnUse" x1="0" y1="4.4117" x2="70.7153" y2="4.4117">
		<stop  offset="0" style="stop-color:#CC215A"/>
		<stop  offset="1" style="stop-color:#EF5B2E"/>
	</linearGradient>
	<path class="st0" d="M1.9,3.9h20.7c1.7,0,3.1,3.4,3.5,4.9h2.3h27.8c12,0,14.5-8.8,14.5-8.8H28.4H1.9C0.9,0,0,0.9,0,1.9
		S0.9,3.9,1.9,3.9z"/>
	<linearGradient id="SVGID_2_" gradientUnits="userSpaceOnUse" x1="0" y1="18.1105" x2="70.7153" y2="18.1105">
		<stop  offset="0" style="stop-color:#CC215A"/>
		<stop  offset="1" style="stop-color:#EF5B2E"/>
	</linearGradient>
	<path class="st1" d="M1.9,13.7c-1.1,0-1.9,0.9-1.9,1.9s0.9,1.9,1.9,1.9h20.7c1.7,0,3.1,3.4,3.5,4.9h2.3h27.8
		c12,0,14.5-8.8,14.5-8.8H28.4H1.9z"/>
	<linearGradient id="SVGID_3_" gradientUnits="userSpaceOnUse" x1="0" y1="31.8092" x2="70.7153" y2="31.8092">
		<stop  offset="0" style="stop-color:#CC215A"/>
		<stop  offset="1" style="stop-color:#EF5B2E"/>
	</linearGradient>
	<path class="st2" d="M1.9,27.4c-1.1,0-1.9,0.9-1.9,1.9c0,1.1,0.9,1.9,1.9,1.9h20.7c1.7,0,3.1,3.4,3.5,4.9h2.3h27.8
		c12,0,14.5-8.8,14.5-8.8H28.4H1.9z"/>
</g>
</svg>
