<?xml version="1.0" encoding="utf-8"?>
<!-- Generator: Adobe Illustrator 23.0.3, SVG Export Plug-In . SVG Version: 6.00 Build 0)  -->
<svg version="1.1" id="Layer_1" xmlns="http://www.w3.org/2000/svg" xmlns:xlink="http://www.w3.org/1999/xlink" x="0px" y="0px"
	 viewBox="0 0 52.3 52.3" style="enable-background:new 0 0 52.3 52.3;" xml:space="preserve">
<style type="text/css">
	.st0{fill:url(#SVGID_1_);}
	.st1{fill:#FFFFFF;}
</style>
<linearGradient id="SVGID_1_" gradientUnits="userSpaceOnUse" x1="3528.854" y1="1236.9156" x2="3581.1968" y2="1236.9156" gradientTransform="matrix(0 1 -1 0 1263.0872 -3528.854)">
	<stop  offset="0" style="stop-color:#CC215A"/>
	<stop  offset="1" style="stop-color:#EF5B2E"/>
</linearGradient>
<circle class="st0" cx="26.2" cy="26.2" r="26.2"/>
<g>
	<path class="st1" d="M26.7,32.8h-0.8c-1.7,0-2.4-1-2.4-2.2l-1.9-13.4c0-1.2,1.4-2.2,3.2-2.2h2.7c1.7,0,3.2,1,3.2,2.2l-1.6,13.4
		C29.1,31.8,28.5,32.8,26.7,32.8z"/>
	<path class="st1" d="M26.2,39.6L26.2,39.6c-1.4,0-2.5-1.1-2.5-2.5v0c0-1.4,1.1-2.5,2.5-2.5h0c1.4,0,2.5,1.1,2.5,2.5v0
		C28.7,38.5,27.6,39.6,26.2,39.6z"/>
</g>
</svg>
