<?xml version="1.0" encoding="utf-8"?>
<!-- Generator: Adobe Illustrator 23.0.3, SVG Export Plug-In . SVG Version: 6.00 Build 0)  -->
<svg version="1.1" id="Layer_1" xmlns="http://www.w3.org/2000/svg" xmlns:xlink="http://www.w3.org/1999/xlink" x="0px" y="0px"
	 viewBox="0 0 35.7 35.7" style="enable-background:new 0 0 35.7 35.7;" xml:space="preserve">
<style type="text/css">
	.st0{fill:none;}
	.st1{fill:#3D3D3D;}
	.st2{fill:#58402E;}
	.st3{fill:#AD7632;}
	.st4{fill:#CFA563;}
	.st5{fill:#EFE1CB;}
	.st6{fill:#895A28;}
	.st7{fill:#80983C;}
	.st8{fill:#92B33D;}
	.st9{fill:#E8D1AA;}
	.st10{fill:#ECC679;}
	.st11{fill:#121112;}
</style>
<rect x="0.5" y="0.5" class="st0" width="34.7" height="34.7"/>
<g>
	<g>
		<path class="st1" d="M14.2,31.5l-0.7,0.7v0.9h-0.4v-3.5h0.4v2.1l2.1-2.1H16l-1.5,1.6l1.6,1.9h-0.4L14.2,31.5z"/>
		<path class="st1" d="M16.6,29.9c0,0-0.1-0.1-0.1-0.2c0-0.1,0-0.1,0.1-0.2s0.1-0.1,0.2-0.1s0.1,0,0.2,0.1c0,0,0.1,0.1,0.1,0.2
			c0,0.1,0,0.1-0.1,0.2S16.8,30,16.7,30S16.6,30,16.6,29.9z M16.6,30.6h0.4v2.6h-0.4V30.6z"/>
		<path class="st1" d="M21.8,30.6l-1,2.6h-0.3L19.6,31l-0.8,2.2h-0.3l-1-2.6h0.3l0.8,2.2l0.8-2.2h0.3l0.8,2.2l0.8-2.2H21.8z"/>
		<path class="st1" d="M22.3,29.9c0,0-0.1-0.1-0.1-0.2c0-0.1,0-0.1,0.1-0.2s0.1-0.1,0.2-0.1s0.1,0,0.2,0.1c0,0,0.1,0.1,0.1,0.2
			c0,0.1,0,0.1-0.1,0.2S22.5,30,22.5,30S22.3,30,22.3,29.9z M22.3,30.6h0.4v2.6h-0.4V30.6z"/>
	</g>
</g>
<g>
	<g>
		<g>
			<path class="st2" d="M15.8,2.5c0,0,0-0.7-0.5-1.1c0,0,1.8,0.3,1.9,0.4S17.4,2,17.4,2L15.8,2.5z"/>
			<path class="st2" d="M19,2c0,0-0.2-0.7,0.2-1.2c0,0-1.7,0.8-1.7,0.9C17.4,1.9,17.3,2,17.3,2L19,2z"/>
		</g>
	</g>
	<path class="st2" d="M17.5,26.8C17.5,26.8,17.5,26.8,17.5,26.8l0,0.1c0,0.3,0.2,0.5,0.4,0.5l1.1,0.1c0.3,0,0.5-0.2,0.5-0.4l0-0.1
		C18.8,27.1,18.2,27,17.5,26.8z"/>
	<path class="st3" d="M16.1,2.2c-1,0.1-5.8,0.9-7.2,7.7c-0.1,0.3-0.1,0.6-0.1,0.9c0,1.7,0.2,7.7,1.2,9.9c0,0.1,0.1,0.1,0.1,0.2
		c0.2,0.7,1.7,4.8,6.8,6.1c0,0,5.3,1.4,8.5-4.7c0,0,0-0.1,0.1-0.1c0.6-0.7,4.8-18.3-5.8-20c0,0-0.1,0-0.1,0c-0.4,0-2.6-0.2-3.2,0
		C16.3,2.1,16.2,2.1,16.1,2.2z"/>
	<g>
		<path class="st4" d="M12,6.4c-0.2,0.4-0.3,0.7-0.3,1.1C11.6,7.1,11.7,6.6,12,6.4z"/>
	</g>
	<g>
		<path class="st4" d="M16.2,22.4c-0.2,0.4-0.3,0.7-0.3,1.1C15.8,23.1,15.9,22.7,16.2,22.4z"/>
	</g>
	<g>
		<path class="st4" d="M12.4,6.6c-0.2,0.4-0.3,0.7-0.3,1.1C12,7.3,12.1,6.9,12.4,6.6z"/>
	</g>
	<g>
		<path class="st4" d="M12.8,6.8c0.2,0.3,0.2,0.8,0,1.1C12.9,7.5,12.9,7.1,12.8,6.8z"/>
	</g>
	<g>
		<path class="st4" d="M16.3,8.3c0.2,0.3,0.2,0.8,0,1.1C16.4,9,16.3,8.7,16.3,8.3z"/>
	</g>
	<g>
		<path class="st4" d="M12.2,19.5c0.2,0.3,0.2,0.8,0,1.1C12.3,20.2,12.3,19.8,12.2,19.5z"/>
	</g>
	<g>
		<path class="st4" d="M13.4,6.6c0.2,0.3,0.2,0.7,0,1C13.5,7.3,13.5,6.9,13.4,6.6z"/>
	</g>
	<g>
		<g>
			<g>
				<rect x="13.7" y="6.9" class="st0" width="0.2" height="0.8"/>
				<g>
					<path class="st5" d="M13.9,6.9c0,0.1-0.1,0.3-0.1,0.4c0,0.1,0,0.1,0,0.2c0,0.1,0,0.1,0,0.2c0-0.1,0-0.1-0.1-0.2
						c0,0,0-0.1,0-0.1c0,0,0-0.1,0-0.1c0-0.1,0-0.1,0.1-0.2C13.8,7,13.9,6.9,13.9,6.9z"/>
				</g>
			</g>
			<g>
				<rect x="12" y="9.6" class="st0" width="0.2" height="0.7"/>
				<g>
					<path class="st5" d="M12.1,9.6c0,0.1-0.1,0.2-0.1,0.3c0,0.1,0,0.1,0,0.2c0,0.1,0,0.1,0,0.2c0-0.1,0-0.1,0-0.2c0,0,0-0.1,0-0.1
						c0,0,0-0.1,0-0.1c0-0.1,0-0.1,0.1-0.2C12.1,9.7,12.1,9.6,12.1,9.6z"/>
				</g>
			</g>
		</g>
	</g>
	<g>
		<g>
			<g>
				<rect x="21" y="5.7" class="st0" width="0.2" height="0.9"/>
				<g>
					<path class="st5" d="M21.2,5.7c0,0.2-0.1,0.3-0.1,0.4c0,0.1,0,0.2,0,0.2c0,0.1,0,0.2,0,0.2C21,6.6,21,6.5,21,6.4
						c0,0,0-0.1,0-0.1c0,0,0-0.1,0-0.1c0-0.1,0-0.2,0.1-0.2C21.1,5.9,21.2,5.8,21.2,5.7z"/>
				</g>
			</g>
			<g>
				<rect x="20" y="2.6" class="st0" width="0.2" height="0.7"/>
				<g>
					<path class="st5" d="M20.2,2.6c0,0.1-0.1,0.2-0.1,0.3c0,0.1,0,0.1,0,0.2c0,0.1,0,0.1,0,0.2c0-0.1,0-0.1,0-0.2c0,0,0-0.1,0-0.1
						C20,3,20,3,20,3c0-0.1,0-0.1,0.1-0.2C20.1,2.7,20.2,2.7,20.2,2.6z"/>
				</g>
			</g>
			<g>
				<rect x="18.6" y="4.5" class="st0" width="0.2" height="0.7"/>
				<g>
					<path class="st5" d="M18.8,4.5c0,0.1-0.1,0.2-0.1,0.4c0,0.1,0,0.1,0,0.2c0,0.1,0,0.1,0,0.2c0-0.1,0-0.1,0-0.2c0,0,0-0.1,0-0.1
						c0,0,0-0.1,0-0.1c0-0.1,0-0.1,0.1-0.2C18.7,4.6,18.7,4.5,18.8,4.5z"/>
				</g>
			</g>
			<g>
				<rect x="17.2" y="6" class="st0" width="0.2" height="0.9"/>
				<g>
					<path class="st5" d="M17.4,6c0,0.2-0.1,0.3-0.1,0.5c0,0.1,0,0.2,0,0.2c0,0.1,0,0.2,0,0.2c0-0.1-0.1-0.2-0.1-0.2
						c0,0,0-0.1,0-0.1c0,0,0-0.1,0-0.1c0-0.1,0-0.2,0.1-0.2C17.3,6.1,17.3,6.1,17.4,6z"/>
				</g>
			</g>
			<g>
				<rect x="16.2" y="3.3" class="st0" width="0.2" height="0.9"/>
				<g>
					<path class="st5" d="M16.4,3.3c0,0.2-0.1,0.3-0.1,0.5c0,0.1,0,0.2,0,0.2c0,0.1,0,0.2,0,0.2c0-0.1-0.1-0.2-0.1-0.2
						c0,0,0-0.1,0-0.1c0,0,0-0.1,0-0.1c0-0.1,0-0.2,0.1-0.2C16.3,3.4,16.4,3.4,16.4,3.3z"/>
				</g>
			</g>
			<g>
				<rect x="15" y="2.8" class="st0" width="0.2" height="0.9"/>
				<g>
					<path class="st5" d="M15.2,2.8c0,0.1-0.1,0.3-0.1,0.4c0,0.1,0,0.1,0,0.2c0,0.1,0,0.1,0,0.2c0-0.1,0-0.1-0.1-0.2
						c0,0,0-0.1,0-0.1c0,0,0-0.1,0-0.1c0-0.1,0-0.2,0.1-0.2C15.1,2.9,15.1,2.8,15.2,2.8z"/>
				</g>
			</g>
			<g>
				<rect x="13.8" y="2.1" class="st0" width="0.2" height="1"/>
				<g>
					<path class="st5" d="M14,2.1c-0.1,0.2-0.1,0.3-0.1,0.5c0,0.1,0,0.2,0,0.2c0,0.1,0,0.2,0,0.2c0-0.1-0.1-0.2-0.1-0.2
						c0,0,0-0.1,0-0.1c0,0,0-0.1,0-0.1c0-0.1,0-0.2,0.1-0.2C13.9,2.2,14,2.1,14,2.1z"/>
				</g>
			</g>
		</g>
	</g>
	<g>
		<g>
			<g>
				<rect x="22.6" y="10.2" class="st0" width="0.2" height="0.8"/>
				<g>
					<path class="st5" d="M22.8,10.2c0,0.1-0.1,0.3-0.1,0.4c0,0.1,0,0.1,0,0.2c0,0.1,0,0.1,0,0.2c0-0.1,0-0.1,0-0.2c0,0,0-0.1,0-0.1
						c0,0,0-0.1,0-0.1c0-0.1,0-0.1,0.1-0.2C22.7,10.3,22.7,10.2,22.8,10.2z"/>
				</g>
			</g>
			<g>
				<rect x="21.3" y="12.2" class="st0" width="0.2" height="0.8"/>
				<g>
					<path class="st5" d="M21.4,12.2c0,0.1-0.1,0.3-0.1,0.4c0,0.1,0,0.1,0,0.2c0,0.1,0,0.1,0,0.2c0-0.1,0-0.1,0-0.2c0,0,0-0.1,0-0.1
						c0,0,0-0.1,0-0.1c0-0.1,0-0.1,0.1-0.2C21.4,12.3,21.4,12.2,21.4,12.2z"/>
				</g>
			</g>
			<g>
				<rect x="20" y="10.8" class="st0" width="0.2" height="0.9"/>
				<g>
					<path class="st5" d="M20.2,10.8c0,0.1-0.1,0.3-0.1,0.4c0,0.1,0,0.1,0,0.2c0,0.1,0,0.1,0,0.2c0-0.1,0-0.1-0.1-0.2
						c0,0,0-0.1,0-0.1c0,0,0-0.1,0-0.1c0-0.1,0-0.1,0.1-0.2C20.1,10.9,20.1,10.9,20.2,10.8z"/>
				</g>
			</g>
			<g>
				<rect x="18.6" y="11.2" class="st0" width="0.2" height="1"/>
				<g>
					<path class="st5" d="M18.9,11.2c-0.1,0.2-0.1,0.3-0.1,0.5c0,0.1,0,0.2,0,0.2c0,0.1,0,0.2,0,0.3c0-0.1-0.1-0.2-0.1-0.3
						c0,0,0-0.1,0-0.1c0,0,0-0.1,0-0.1c0-0.1,0-0.2,0.1-0.3C18.8,11.3,18.8,11.3,18.9,11.2z"/>
				</g>
			</g>
			<g>
				<rect x="17.4" y="10" class="st0" width="0.2" height="0.7"/>
				<g>
					<path class="st5" d="M17.5,10c0,0.1-0.1,0.2-0.1,0.4c0,0.1,0,0.1,0,0.2c0,0.1,0,0.1,0,0.2c0-0.1,0-0.1,0-0.2c0,0,0-0.1,0-0.1
						c0,0,0-0.1,0-0.1c0-0.1,0-0.1,0.1-0.2C17.5,10.1,17.5,10,17.5,10z"/>
				</g>
			</g>
			<g>
				<rect x="16.2" y="11.9" class="st0" width="0.2" height="1"/>
				<g>
					<path class="st5" d="M16.5,11.9c-0.1,0.2-0.1,0.3-0.1,0.5c0,0.1,0,0.2,0,0.2c0,0.1,0,0.2,0,0.3c0-0.1-0.1-0.2-0.1-0.3
						c0,0,0-0.1,0-0.1c0,0,0-0.1,0-0.1c0-0.1,0-0.2,0.1-0.3C16.4,12.1,16.4,12,16.5,11.9z"/>
				</g>
			</g>
			<g>
				<rect x="15.2" y="10.2" class="st0" width="0.2" height="1"/>
				<g>
					<path class="st5" d="M15.4,10.2c-0.1,0.2-0.1,0.3-0.1,0.5c0,0.1,0,0.2,0,0.2c0,0.1,0,0.2,0,0.3c0-0.1-0.1-0.2-0.1-0.3
						c0,0,0-0.1,0-0.1c0,0,0-0.1,0-0.1c0-0.1,0-0.2,0.1-0.2C15.3,10.3,15.4,10.3,15.4,10.2z"/>
				</g>
			</g>
			<g>
				<rect x="14.1" y="9.7" class="st0" width="0.2" height="0.8"/>
				<g>
					<path class="st5" d="M14.3,9.7c0,0.1-0.1,0.3-0.1,0.4c0,0.1,0,0.1,0,0.2c0,0.1,0,0.1,0,0.2c0-0.1,0-0.1,0-0.2c0,0,0-0.1,0-0.1
						c0,0,0-0.1,0-0.1c0-0.1,0-0.1,0.1-0.2C14.2,9.8,14.2,9.8,14.3,9.7z"/>
				</g>
			</g>
			<g>
				<rect x="12.8" y="11.9" class="st0" width="0.2" height="0.7"/>
				<g>
					<path class="st5" d="M12.9,11.9c0,0.1-0.1,0.2-0.1,0.3c0,0.1,0,0.1,0,0.2c0,0.1,0,0.1,0,0.2c0-0.1,0-0.1,0-0.2c0,0,0-0.1,0-0.1
						c0,0,0-0.1,0-0.1c0-0.1,0-0.1,0.1-0.2C12.9,12,12.9,11.9,12.9,11.9z"/>
				</g>
			</g>
		</g>
	</g>
	<g>
		<g>
			<g>
				<rect x="24.8" y="8.4" class="st0" width="0.2" height="0.8"/>
				<g>
					<path class="st5" d="M25,8.4c0,0.1-0.1,0.2-0.1,0.4c0,0.1,0,0.1,0,0.2c0,0.1,0,0.1,0,0.2c0-0.1,0-0.1,0-0.2c0,0,0-0.1,0-0.1
						c0,0,0-0.1,0-0.1c0-0.1,0-0.1,0.1-0.2C24.9,8.5,25,8.4,25,8.4z"/>
				</g>
			</g>
			<g>
				<rect x="23.5" y="9.3" class="st0" width="0.2" height="0.8"/>
				<g>
					<path class="st5" d="M23.7,9.3c0,0.1-0.1,0.3-0.1,0.4c0,0.1,0,0.1,0,0.2c0,0.1,0,0.1,0,0.2c0-0.1,0-0.1,0-0.2c0,0,0-0.1,0-0.1
						c0,0,0-0.1,0-0.1c0-0.1,0-0.1,0.1-0.2C23.6,9.4,23.7,9.3,23.7,9.3z"/>
				</g>
			</g>
			<g>
				<rect x="22.3" y="6.5" class="st0" width="0.2" height="0.7"/>
				<g>
					<path class="st5" d="M22.5,6.5c0,0.1-0.1,0.2-0.1,0.3c0,0.1,0,0.1,0,0.2c0,0.1,0,0.1,0,0.2c0-0.1,0-0.1,0-0.2c0,0,0-0.1,0-0.1
						c0,0,0-0.1,0-0.1c0-0.1,0-0.1,0.1-0.2C22.4,6.6,22.5,6.5,22.5,6.5z"/>
				</g>
			</g>
			<g>
				<rect x="21" y="7.1" class="st0" width="0.2" height="0.8"/>
				<g>
					<path class="st5" d="M21.2,7.1c0,0.1-0.1,0.3-0.1,0.4c0,0.1,0,0.1,0,0.2c0,0.1,0,0.1,0,0.2c0-0.1,0-0.1,0-0.2c0,0,0-0.1,0-0.1
						c0,0,0-0.1,0-0.1c0-0.1,0-0.1,0.1-0.2C21.1,7.3,21.1,7.2,21.2,7.1z"/>
				</g>
			</g>
			<g>
				<rect x="19.8" y="7.4" class="st0" width="0.2" height="0.9"/>
				<g>
					<path class="st5" d="M20,7.4c0,0.2-0.1,0.3-0.1,0.5c0,0.1,0,0.2,0,0.2c0,0.1,0,0.2,0,0.2c0-0.1-0.1-0.2-0.1-0.2
						c0,0,0-0.1,0-0.1c0,0,0-0.1,0-0.1c0-0.1,0-0.2,0.1-0.2C19.9,7.5,20,7.4,20,7.4z"/>
				</g>
			</g>
			<g>
				<rect x="18.7" y="7.9" class="st0" width="0.2" height="0.7"/>
				<g>
					<path class="st5" d="M18.8,7.9c0,0.1-0.1,0.2-0.1,0.4c0,0.1,0,0.1,0,0.2c0,0.1,0,0.1,0,0.2c0-0.1,0-0.1,0-0.2c0,0,0-0.1,0-0.1
						c0,0,0-0.1,0-0.1c0-0.1,0-0.1,0.1-0.2C18.8,8,18.8,8,18.8,7.9z"/>
				</g>
			</g>
			<g>
				<rect x="17.4" y="6.8" class="st0" width="0.2" height="0.9"/>
				<g>
					<path class="st5" d="M17.6,6.8c0,0.1-0.1,0.3-0.1,0.4c0,0.1,0,0.1,0,0.2c0,0.1,0,0.1,0,0.2c0-0.1,0-0.1-0.1-0.2
						c0,0,0-0.1,0-0.1c0,0,0-0.1,0-0.1c0-0.1,0-0.2,0.1-0.2C17.5,6.9,17.5,6.8,17.6,6.8z"/>
				</g>
			</g>
		</g>
	</g>
	<g>
		<g>
			<g>
				<rect x="20.2" y="25.8" class="st0" width="0.2" height="0.7"/>
				<g>
					<path class="st5" d="M20.4,25.8c0,0.1-0.1,0.2-0.1,0.4c0,0.1,0,0.1,0,0.2c0,0.1,0,0.1,0,0.2c0-0.1,0-0.1,0-0.2c0,0,0-0.1,0-0.1
						c0,0,0-0.1,0-0.1c0-0.1,0-0.1,0.1-0.2C20.3,25.9,20.4,25.9,20.4,25.8z"/>
				</g>
			</g>
			<g>
				<rect x="19" y="23.2" class="st0" width="0.2" height="0.8"/>
				<g>
					<path class="st5" d="M19.2,23.2c0,0.1-0.1,0.3-0.1,0.4c0,0.1,0,0.1,0,0.2c0,0.1,0,0.1,0,0.2c0-0.1,0-0.1,0-0.2c0,0,0-0.1,0-0.1
						c0,0,0-0.1,0-0.1c0-0.1,0-0.1,0.1-0.2C19.1,23.3,19.2,23.3,19.2,23.2z"/>
				</g>
			</g>
			<g>
				<rect x="17.7" y="24.5" class="st0" width="0.2" height="0.9"/>
				<g>
					<path class="st5" d="M17.9,24.5c0,0.2-0.1,0.3-0.1,0.5c0,0.1,0,0.2,0,0.2c0,0.1,0,0.2,0,0.2c0-0.1-0.1-0.2-0.1-0.2
						c0,0,0-0.1,0-0.1c0,0,0-0.1,0-0.1c0-0.1,0-0.2,0.1-0.2C17.8,24.7,17.9,24.6,17.9,24.5z"/>
				</g>
			</g>
			<g>
				<rect x="16.5" y="21.1" class="st0" width="0.2" height="0.9"/>
				<g>
					<path class="st5" d="M16.7,21.1c0,0.1-0.1,0.3-0.1,0.4c0,0.1,0,0.1,0,0.2c0,0.1,0,0.1,0,0.2c0-0.1,0-0.1-0.1-0.2
						c0,0,0-0.1,0-0.1c0,0,0-0.1,0-0.1c0-0.1,0-0.1,0.1-0.2C16.6,21.2,16.7,21.1,16.7,21.1z"/>
				</g>
			</g>
		</g>
	</g>
	<g>
		<g>
			<g>
				<rect x="15.1" y="10.4" class="st0" width="0.2" height="0.9"/>
				<g>
					<path class="st5" d="M15.3,10.4c0,0.1-0.1,0.3-0.1,0.4c0,0.1,0,0.1,0,0.2c0,0.1,0,0.2,0,0.2c0-0.1,0-0.2-0.1-0.2
						c0,0,0-0.1,0-0.1c0,0,0-0.1,0-0.1c0-0.1,0-0.2,0.1-0.2C15.2,10.5,15.2,10.5,15.3,10.4z"/>
				</g>
			</g>
			<g>
				<rect x="13.6" y="8.4" class="st0" width="0.2" height="0.7"/>
				<g>
					<path class="st5" d="M13.7,8.4c0,0.1-0.1,0.2-0.1,0.4c0,0.1,0,0.1,0,0.2c0,0.1,0,0.1,0,0.2c0-0.1,0-0.1,0-0.2c0,0,0-0.1,0-0.1
						c0,0,0-0.1,0-0.1c0-0.1,0-0.1,0.1-0.2C13.7,8.5,13.7,8.5,13.7,8.4z"/>
				</g>
			</g>
			<g>
				<rect x="12.3" y="9" class="st0" width="0.2" height="0.7"/>
				<g>
					<path class="st5" d="M12.5,9c0,0.1-0.1,0.2-0.1,0.3c0,0.1,0,0.1,0,0.2c0,0.1,0,0.1,0,0.2c0-0.1,0-0.1,0-0.2c0,0,0-0.1,0-0.1
						c0,0,0-0.1,0-0.1c0-0.1,0-0.1,0.1-0.2C12.4,9.1,12.5,9,12.5,9z"/>
				</g>
			</g>
			<g>
				<rect x="11.5" y="11.3" class="st0" width="0.2" height="0.7"/>
				<g>
					<path class="st5" d="M11.6,11.3c0,0.1-0.1,0.2-0.1,0.3c0,0.1,0,0.1,0,0.2c0,0.1,0,0.1,0,0.2c0-0.1,0-0.1,0-0.2c0,0,0-0.1,0-0.1
						c0,0,0-0.1,0-0.1c0-0.1,0-0.1,0.1-0.2C11.6,11.4,11.6,11.4,11.6,11.3z"/>
				</g>
			</g>
			<g>
				<rect x="10.2" y="11.7" class="st0" width="0.2" height="1"/>
				<g>
					<path class="st5" d="M10.4,11.7c-0.1,0.2-0.1,0.3-0.1,0.5c0,0.1,0,0.2,0,0.2c0,0.1,0,0.2,0,0.3c0-0.1-0.1-0.2-0.1-0.3
						c0,0,0-0.1,0-0.1c0,0,0-0.1,0-0.1c0-0.1,0-0.2,0.1-0.3C10.3,11.8,10.4,11.8,10.4,11.7z"/>
				</g>
			</g>
		</g>
	</g>
	<g>
		<g>
			<g>
				<rect x="18.4" y="21.2" class="st0" width="0.2" height="0.7"/>
				<g>
					<path class="st5" d="M18.6,21.2c0,0.1-0.1,0.2-0.1,0.4c0,0.1,0,0.1,0,0.2c0,0.1,0,0.1,0,0.2c0-0.1,0-0.1,0-0.2c0,0,0-0.1,0-0.1
						c0,0,0-0.1,0-0.1c0-0.1,0-0.1,0.1-0.2C18.5,21.3,18.6,21.2,18.6,21.2z"/>
				</g>
			</g>
			<g>
				<rect x="17.1" y="20.9" class="st0" width="0.2" height="0.9"/>
				<g>
					<path class="st5" d="M17.3,20.9c0,0.2-0.1,0.3-0.1,0.5c0,0.1,0,0.2,0,0.2c0,0.1,0,0.2,0,0.2c0-0.1-0.1-0.2-0.1-0.2
						c0,0,0-0.1,0-0.1c0,0,0-0.1,0-0.1c0-0.1,0-0.2,0.1-0.2C17.2,21,17.3,20.9,17.3,20.9z"/>
				</g>
			</g>
			<g>
				<rect x="15.8" y="23.1" class="st0" width="0.2" height="0.8"/>
				<g>
					<path class="st5" d="M15.9,23.1c0,0.1-0.1,0.3-0.1,0.4c0,0.1,0,0.1,0,0.2c0,0.1,0,0.1,0,0.2c0-0.1,0-0.1,0-0.2c0,0,0-0.1,0-0.1
						c0,0,0-0.1,0-0.1c0-0.1,0-0.1,0.1-0.2C15.9,23.2,15.9,23.1,15.9,23.1z"/>
				</g>
			</g>
			<g>
				<rect x="14.6" y="21.9" class="st0" width="0.2" height="0.9"/>
				<g>
					<path class="st5" d="M14.8,21.9c0,0.1-0.1,0.3-0.1,0.4c0,0.1,0,0.1,0,0.2c0,0.1,0,0.2,0,0.2c0-0.1,0-0.2-0.1-0.2
						c0,0,0-0.1,0-0.1c0,0,0-0.1,0-0.1c0-0.1,0-0.2,0.1-0.2C14.7,22,14.8,21.9,14.8,21.9z"/>
				</g>
			</g>
			<g>
				<rect x="13.4" y="22.3" class="st0" width="0.2" height="0.7"/>
				<g>
					<path class="st5" d="M13.6,22.3c0,0.1-0.1,0.2-0.1,0.3c0,0.1,0,0.1,0,0.2c0,0.1,0,0.1,0,0.2c0-0.1,0-0.1,0-0.2c0,0,0-0.1,0-0.1
						c0,0,0-0.1,0-0.1c0-0.1,0-0.1,0.1-0.2C13.5,22.4,13.5,22.4,13.6,22.3z"/>
				</g>
			</g>
		</g>
	</g>
	<g>
		<g>
			<g>
				<rect x="21.8" y="14.9" class="st0" width="0.2" height="0.7"/>
				<g>
					<path class="st5" d="M21.9,14.9c0,0.1-0.1,0.2-0.1,0.3c0,0.1,0,0.1,0,0.2c0,0.1,0,0.1,0,0.2c0-0.1,0-0.1,0-0.2c0,0,0-0.1,0-0.1
						c0,0,0-0.1,0-0.1c0-0.1,0-0.1,0.1-0.2C21.9,15,21.9,15,21.9,14.9z"/>
				</g>
			</g>
			<g>
				<rect x="23.5" y="13.8" class="st0" width="0.2" height="0.9"/>
				<g>
					<path class="st5" d="M23.7,13.8c0,0.2-0.1,0.3-0.1,0.5c0,0.1,0,0.2,0,0.2c0,0.1,0,0.2,0,0.2c0-0.1-0.1-0.2-0.1-0.2
						c0,0,0-0.1,0-0.1c0,0,0-0.1,0-0.1c0-0.1,0-0.2,0.1-0.2C23.6,14,23.6,13.9,23.7,13.8z"/>
				</g>
			</g>
			<g>
				<rect x="23.5" y="14.7" class="st0" width="0.2" height="0.8"/>
				<g>
					<path class="st5" d="M23.6,14.7c0,0.1-0.1,0.3-0.1,0.4c0,0.1,0,0.1,0,0.2c0,0.1,0,0.1,0,0.2c0-0.1,0-0.1,0-0.2c0,0,0-0.1,0-0.1
						c0,0,0-0.1,0-0.1c0-0.1,0-0.1,0.1-0.2C23.6,14.8,23.6,14.8,23.6,14.7z"/>
				</g>
			</g>
			<g>
				<rect x="23.7" y="16" class="st0" width="0.2" height="0.8"/>
				<g>
					<path class="st5" d="M23.8,16c0,0.1-0.1,0.3-0.1,0.4c0,0.1,0,0.1,0,0.2c0,0.1,0,0.1,0,0.2c0-0.1,0-0.1,0-0.2c0,0,0-0.1,0-0.1
						c0,0,0-0.1,0-0.1c0-0.1,0-0.1,0.1-0.2C23.8,16.1,23.8,16.1,23.8,16z"/>
				</g>
			</g>
			<g>
				<rect x="24.4" y="17.1" class="st0" width="0.2" height="0.8"/>
				<g>
					<path class="st5" d="M24.6,17.1c0,0.1-0.1,0.3-0.1,0.4c0,0.1,0,0.1,0,0.2c0,0.1,0,0.1,0,0.2c0-0.1,0-0.1,0-0.2c0,0,0-0.1,0-0.1
						c0,0,0-0.1,0-0.1c0-0.1,0-0.1,0.1-0.2C24.5,17.2,24.6,17.2,24.6,17.1z"/>
				</g>
			</g>
			<g>
				<rect x="26.2" y="18.3" class="st0" width="0.2" height="0.7"/>
				<g>
					<path class="st5" d="M26.3,18.3c0,0.1-0.1,0.2-0.1,0.3c0,0.1,0,0.1,0,0.2c0,0.1,0,0.1,0,0.2c0-0.1,0-0.1,0-0.2c0,0,0-0.1,0-0.1
						c0,0,0-0.1,0-0.1c0-0.1,0-0.1,0.1-0.2C26.2,18.4,26.3,18.4,26.3,18.3z"/>
				</g>
			</g>
			<g>
				<rect x="26.4" y="19.4" class="st0" width="0.2" height="0.8"/>
				<g>
					<path class="st5" d="M26.6,19.4c0,0.1-0.1,0.3-0.1,0.4c0,0.1,0,0.1,0,0.2c0,0.1,0,0.1,0,0.2c0-0.1,0-0.1,0-0.2c0,0,0-0.1,0-0.1
						c0,0,0-0.1,0-0.1c0-0.1,0-0.1,0.1-0.2C26.5,19.5,26.6,19.5,26.6,19.4z"/>
				</g>
			</g>
			<g>
				<rect x="24.6" y="20.6" class="st0" width="0.2" height="0.8"/>
				<g>
					<path class="st5" d="M24.8,20.6c0,0.1-0.1,0.3-0.1,0.4c0,0.1,0,0.1,0,0.2c0,0.1,0,0.1,0,0.2c0-0.1,0-0.1,0-0.2c0,0,0-0.1,0-0.1
						c0,0,0-0.1,0-0.1c0-0.1,0-0.1,0.1-0.2C24.7,20.7,24.8,20.7,24.8,20.6z"/>
				</g>
			</g>
			<g>
				<rect x="23.2" y="20.8" class="st0" width="0.2" height="0.8"/>
				<g>
					<path class="st5" d="M23.4,20.8c0,0.1-0.1,0.3-0.1,0.4c0,0.1,0,0.1,0,0.2c0,0.1,0,0.1,0,0.2c0-0.1,0-0.1,0-0.2c0,0,0-0.1,0-0.1
						c0,0,0-0.1,0-0.1c0-0.1,0-0.1,0.1-0.2C23.3,20.9,23.4,20.8,23.4,20.8z"/>
				</g>
			</g>
			<g>
				<rect x="22.8" y="23" class="st0" width="0.2" height="0.7"/>
				<g>
					<path class="st5" d="M23,23c0,0.1-0.1,0.2-0.1,0.3c0,0.1,0,0.1,0,0.2c0,0.1,0,0.1,0,0.2c0-0.1,0-0.1,0-0.2c0,0,0-0.1,0-0.1
						c0,0,0-0.1,0-0.1c0-0.1,0-0.1,0.1-0.2C22.9,23.1,22.9,23,23,23z"/>
				</g>
			</g>
			<g>
				<rect x="22" y="24.2" class="st0" width="0.2" height="0.7"/>
				<g>
					<path class="st5" d="M22.1,24.2c0,0.1-0.1,0.2-0.1,0.4c0,0.1,0,0.1,0,0.2c0,0.1,0,0.1,0,0.2c0-0.1,0-0.1,0-0.2c0,0,0-0.1,0-0.1
						c0,0,0-0.1,0-0.1c0-0.1,0-0.1,0.1-0.2C22.1,24.3,22.1,24.3,22.1,24.2z"/>
				</g>
			</g>
			<g>
				<rect x="19.9" y="22.8" class="st0" width="0.2" height="0.8"/>
				<g>
					<path class="st5" d="M20,22.8c0,0.1-0.1,0.3-0.1,0.4c0,0.1,0,0.1,0,0.2c0,0.1,0,0.1,0,0.2c0-0.1,0-0.1,0-0.2c0,0,0-0.1,0-0.1
						c0,0,0-0.1,0-0.1c0-0.1,0-0.1,0.1-0.2C20,22.9,20,22.9,20,22.8z"/>
				</g>
			</g>
			<g>
				<rect x="19.8" y="19.9" class="st0" width="0.2" height="0.9"/>
				<g>
					<path class="st5" d="M20,19.9c0,0.2-0.1,0.3-0.1,0.5c0,0.1,0,0.2,0,0.2c0,0.1,0,0.2,0,0.2c0-0.1-0.1-0.2-0.1-0.2
						c0,0,0-0.1,0-0.1c0,0,0-0.1,0-0.1c0-0.1,0-0.2,0.1-0.2C19.9,20,20,19.9,20,19.9z"/>
				</g>
			</g>
			<g>
				<rect x="17.5" y="22.2" class="st0" width="0.2" height="0.8"/>
				<g>
					<path class="st5" d="M17.7,22.2c0,0.1-0.1,0.3-0.1,0.4c0,0.1,0,0.1,0,0.2c0,0.1,0,0.1,0,0.2c0-0.1,0-0.1,0-0.2c0,0,0-0.1,0-0.1
						c0,0,0-0.1,0-0.1c0-0.1,0-0.1,0.1-0.2C17.6,22.3,17.6,22.2,17.7,22.2z"/>
				</g>
			</g>
			<g>
				<rect x="15.4" y="21.8" class="st0" width="0.2" height="0.7"/>
				<g>
					<path class="st5" d="M15.6,21.8c0,0.1-0.1,0.2-0.1,0.4c0,0.1,0,0.1,0,0.2c0,0.1,0,0.1,0,0.2c0-0.1,0-0.1,0-0.2c0,0,0-0.1,0-0.1
						c0,0,0-0.1,0-0.1c0-0.1,0-0.1,0.1-0.2C15.5,21.9,15.6,21.9,15.6,21.8z"/>
				</g>
			</g>
			<g>
				<rect x="14.9" y="20.4" class="st0" width="0.2" height="0.9"/>
				<g>
					<path class="st5" d="M15.1,20.4c0,0.1-0.1,0.3-0.1,0.4c0,0.1,0,0.1,0,0.2c0,0.1,0,0.1,0,0.2c0-0.1,0-0.1-0.1-0.2
						c0,0,0-0.1,0-0.1c0,0,0-0.1,0-0.1c0-0.1,0-0.1,0.1-0.2C15,20.6,15,20.5,15.1,20.4z"/>
				</g>
			</g>
			<g>
				<rect x="13.7" y="20.1" class="st0" width="0.2" height="0.7"/>
				<g>
					<path class="st5" d="M13.8,20.1c0,0.1-0.1,0.2-0.1,0.3c0,0.1,0,0.1,0,0.2c0,0.1,0,0.1,0,0.2c0-0.1,0-0.1,0-0.2c0,0,0-0.1,0-0.1
						c0,0,0-0.1,0-0.1c0-0.1,0-0.1,0.1-0.2C13.8,20.2,13.8,20.1,13.8,20.1z"/>
				</g>
			</g>
			<g>
				<rect x="13.9" y="18.1" class="st0" width="0.2" height="0.9"/>
				<g>
					<path class="st5" d="M14.1,18.1c0,0.1-0.1,0.3-0.1,0.4c0,0.1,0,0.1,0,0.2c0,0.1,0,0.1,0,0.2c0-0.1,0-0.1-0.1-0.2
						c0,0,0-0.1,0-0.1c0,0,0-0.1,0-0.1c0-0.1,0-0.1,0.1-0.2C14,18.2,14,18.2,14.1,18.1z"/>
				</g>
			</g>
			<g>
				<rect x="15.4" y="15.3" class="st0" width="0.2" height="0.7"/>
				<g>
					<path class="st5" d="M15.5,15.3c0,0.1-0.1,0.2-0.1,0.4c0,0.1,0,0.1,0,0.2c0,0.1,0,0.1,0,0.2c0-0.1,0-0.1,0-0.2c0,0,0-0.1,0-0.1
						c0,0,0-0.1,0-0.1c0-0.1,0-0.1,0.1-0.2C15.5,15.4,15.5,15.4,15.5,15.3z"/>
				</g>
			</g>
			<g>
				<rect x="12.9" y="15.7" class="st0" width="0.2" height="0.9"/>
				<g>
					<path class="st5" d="M13.1,15.7c0,0.2-0.1,0.3-0.1,0.4c0,0.1,0,0.1,0,0.2c0,0.1,0,0.2,0,0.2c0-0.1-0.1-0.2-0.1-0.2
						c0,0,0-0.1,0-0.1c0,0,0-0.1,0-0.1c0-0.1,0-0.2,0.1-0.2C13,15.8,13,15.8,13.1,15.7z"/>
				</g>
			</g>
			<g>
				<rect x="10.5" y="15.9" class="st0" width="0.2" height="0.8"/>
				<g>
					<path class="st5" d="M10.7,15.9c0,0.1-0.1,0.3-0.1,0.4c0,0.1,0,0.1,0,0.2c0,0.1,0,0.1,0,0.2c0-0.1,0-0.1,0-0.2c0,0,0-0.1,0-0.1
						c0,0,0-0.1,0-0.1c0-0.1,0-0.1,0.1-0.2C10.6,16,10.7,16,10.7,15.9z"/>
				</g>
			</g>
			<g>
				<rect x="11.6" y="13.3" class="st0" width="0.2" height="0.9"/>
				<g>
					<path class="st5" d="M11.8,13.3c0,0.2-0.1,0.3-0.1,0.5c0,0.1,0,0.2,0,0.2c0,0.1,0,0.2,0,0.2c0-0.1-0.1-0.2-0.1-0.2
						c0,0,0-0.1,0-0.1c0,0,0-0.1,0-0.1c0-0.1,0-0.2,0.1-0.2C11.7,13.4,11.8,13.4,11.8,13.3z"/>
				</g>
			</g>
		</g>
	</g>
	<g>
		<g>
			<g>
				<rect x="23.6" y="13.3" class="st0" width="0.2" height="0.9"/>
				<g>
					<path class="st5" d="M23.8,13.3c0,0.1-0.1,0.3-0.1,0.4c0,0.1,0,0.1,0,0.2c0,0.1,0,0.1,0,0.2c0-0.1,0-0.2-0.1-0.2
						c0,0,0-0.1,0-0.1c0,0,0-0.1,0-0.1c0-0.1,0-0.2,0.1-0.2C23.7,13.4,23.8,13.3,23.8,13.3z"/>
				</g>
			</g>
			<g>
				<rect x="23" y="13.4" class="st0" width="0.2" height="0.8"/>
				<g>
					<path class="st5" d="M23.2,13.4c0,0.1-0.1,0.3-0.1,0.4c0,0.1,0,0.1,0,0.2c0,0.1,0,0.1,0,0.2c0-0.1,0-0.1-0.1-0.2
						c0,0,0-0.1,0-0.1c0,0,0-0.1,0-0.1c0-0.1,0-0.1,0.1-0.2C23.2,13.5,23.2,13.5,23.2,13.4z"/>
				</g>
			</g>
			<g>
				<rect x="24.9" y="14.1" class="st0" width="0.2" height="0.7"/>
				<g>
					<path class="st5" d="M25.1,14.1c0,0.1-0.1,0.2-0.1,0.4c0,0.1,0,0.1,0,0.2c0,0.1,0,0.1,0,0.2c0-0.1,0-0.1,0-0.2c0,0,0-0.1,0-0.1
						c0,0,0-0.1,0-0.1c0-0.1,0-0.1,0.1-0.2C25,14.2,25,14.1,25.1,14.1z"/>
				</g>
			</g>
			<g>
				<rect x="23.4" y="15.3" class="st0" width="0.2" height="0.9"/>
				<g>
					<path class="st5" d="M23.6,15.3c0,0.1-0.1,0.3-0.1,0.4c0,0.1,0,0.1,0,0.2c0,0.1,0,0.1,0,0.2c0-0.1,0-0.1-0.1-0.2
						c0,0,0-0.1,0-0.1c0,0,0-0.1,0-0.1c0-0.1,0-0.2,0.1-0.2C23.5,15.4,23.5,15.3,23.6,15.3z"/>
				</g>
			</g>
			<g>
				<rect x="22.5" y="16.3" class="st0" width="0.2" height="0.9"/>
				<g>
					<path class="st5" d="M22.7,16.3c0,0.2-0.1,0.3-0.1,0.5c0,0.1,0,0.2,0,0.2c0,0.1,0,0.2,0,0.2c0-0.1-0.1-0.2-0.1-0.2
						c0,0,0-0.1,0-0.1c0,0,0-0.1,0-0.1c0-0.1,0-0.2,0.1-0.2C22.6,16.5,22.7,16.4,22.7,16.3z"/>
				</g>
			</g>
			<g>
				<rect x="27" y="17.6" class="st0" width="0.2" height="0.7"/>
				<g>
					<path class="st5" d="M27.2,17.6c0,0.1-0.1,0.2-0.1,0.4c0,0.1,0,0.1,0,0.2c0,0.1,0,0.1,0,0.2c0-0.1,0-0.1,0-0.2c0,0,0-0.1,0-0.1
						c0,0,0-0.1,0-0.1c0-0.1,0-0.1,0.1-0.2C27.1,17.7,27.1,17.7,27.2,17.6z"/>
				</g>
			</g>
			<g>
				<rect x="25.3" y="18.7" class="st0" width="0.2" height="1"/>
				<g>
					<path class="st5" d="M25.5,18.7c-0.1,0.2-0.1,0.3-0.1,0.5c0,0.1,0,0.2,0,0.2c0,0.1,0,0.2,0,0.2c0-0.1-0.1-0.2-0.1-0.2
						c0,0,0-0.1,0-0.1c0,0,0-0.1,0-0.1c0-0.1,0-0.2,0.1-0.2C25.4,18.8,25.5,18.7,25.5,18.7z"/>
				</g>
			</g>
			<g>
				<rect x="23.6" y="17.4" class="st0" width="0.2" height="0.7"/>
				<g>
					<path class="st5" d="M23.8,17.4c0,0.1-0.1,0.2-0.1,0.3c0,0.1,0,0.1,0,0.2c0,0.1,0,0.1,0,0.2c0-0.1,0-0.1,0-0.2c0,0,0-0.1,0-0.1
						c0,0,0-0.1,0-0.1c0-0.1,0-0.1,0.1-0.2C23.7,17.5,23.7,17.5,23.8,17.4z"/>
				</g>
			</g>
			<g>
				<rect x="22.4" y="18.1" class="st0" width="0.2" height="0.9"/>
				<g>
					<path class="st5" d="M22.6,18.1c0,0.2-0.1,0.3-0.1,0.5c0,0.1,0,0.2,0,0.2c0,0.1,0,0.2,0,0.2c0-0.1-0.1-0.2-0.1-0.2
						c0,0,0-0.1,0-0.1c0,0,0-0.1,0-0.1c0-0.1,0-0.2,0.1-0.2C22.5,18.3,22.6,18.2,22.6,18.1z"/>
				</g>
			</g>
			<g>
				<rect x="22.5" y="21.5" class="st0" width="0.2" height="0.7"/>
				<g>
					<path class="st5" d="M22.7,21.5c0,0.1-0.1,0.2-0.1,0.4c0,0.1,0,0.1,0,0.2c0,0.1,0,0.1,0,0.2c0-0.1,0-0.1,0-0.2c0,0,0-0.1,0-0.1
						c0,0,0-0.1,0-0.1c0-0.1,0-0.1,0.1-0.2C22.6,21.6,22.6,21.6,22.7,21.5z"/>
				</g>
			</g>
			<g>
				<rect x="21.2" y="20.6" class="st0" width="0.2" height="0.7"/>
				<g>
					<path class="st5" d="M21.4,20.6c0,0.1-0.1,0.2-0.1,0.4c0,0.1,0,0.1,0,0.2c0,0.1,0,0.1,0,0.2c0-0.1,0-0.1,0-0.2c0,0,0-0.1,0-0.1
						c0,0,0-0.1,0-0.1c0-0.1,0-0.1,0.1-0.2C21.3,20.7,21.3,20.7,21.4,20.6z"/>
				</g>
			</g>
			<g>
				<rect x="19.7" y="20.7" class="st0" width="0.2" height="0.9"/>
				<g>
					<path class="st5" d="M19.9,20.7c0,0.2-0.1,0.3-0.1,0.5c0,0.1,0,0.2,0,0.2c0,0.1,0,0.2,0,0.2c0-0.1-0.1-0.2-0.1-0.2
						c0,0,0-0.1,0-0.1c0,0,0-0.1,0-0.1c0-0.1,0-0.2,0.1-0.2C19.8,20.8,19.8,20.8,19.9,20.7z"/>
				</g>
			</g>
			<g>
				<rect x="19.8" y="17.7" class="st0" width="0.2" height="0.8"/>
				<g>
					<path class="st5" d="M20,17.7c0,0.1-0.1,0.3-0.1,0.4c0,0.1,0,0.1,0,0.2c0,0.1,0,0.1,0,0.2c0-0.1,0-0.1,0-0.2c0,0,0-0.1,0-0.1
						c0,0,0-0.1,0-0.1c0-0.1,0-0.1,0.1-0.2C19.9,17.9,20,17.8,20,17.7z"/>
				</g>
			</g>
			<g>
				<rect x="17.2" y="20.4" class="st0" width="0.2" height="0.9"/>
				<g>
					<path class="st5" d="M17.4,20.4c0,0.1-0.1,0.3-0.1,0.4c0,0.1,0,0.1,0,0.2c0,0.1,0,0.1,0,0.2c0-0.1,0-0.1-0.1-0.2
						c0,0,0-0.1,0-0.1c0,0,0-0.1,0-0.1c0-0.1,0-0.2,0.1-0.2C17.3,20.5,17.3,20.5,17.4,20.4z"/>
				</g>
			</g>
			<g>
				<rect x="15.6" y="19.5" class="st0" width="0.2" height="0.9"/>
				<g>
					<path class="st5" d="M15.8,19.5c0,0.2-0.1,0.3-0.1,0.4c0,0.1,0,0.1,0,0.2c0,0.1,0,0.2,0,0.2c0-0.1-0.1-0.2-0.1-0.2
						c0,0,0-0.1,0-0.1c0,0,0-0.1,0-0.1c0-0.1,0-0.2,0.1-0.2C15.7,19.6,15.7,19.6,15.8,19.5z"/>
				</g>
			</g>
			<g>
				<rect x="15.4" y="17.9" class="st0" width="0.2" height="1"/>
				<g>
					<path class="st5" d="M15.6,17.9c-0.1,0.2-0.1,0.3-0.1,0.5c0,0.1,0,0.2,0,0.2c0,0.1,0,0.2,0,0.2c0-0.1-0.1-0.2-0.1-0.2
						c0,0,0-0.1,0-0.1c0,0,0-0.1,0-0.1c0-0.1,0-0.2,0.1-0.2C15.5,18.1,15.6,18,15.6,17.9z"/>
				</g>
			</g>
			<g>
				<rect x="17.3" y="14.9" class="st0" width="0.2" height="0.9"/>
				<g>
					<path class="st5" d="M17.5,14.9c0,0.2-0.1,0.3-0.1,0.5c0,0.1,0,0.2,0,0.2c0,0.1,0,0.2,0,0.2c0-0.1-0.1-0.2-0.1-0.2
						c0,0,0-0.1,0-0.1c0,0,0-0.1,0-0.1c0-0.1,0-0.2,0.1-0.2C17.4,15,17.5,14.9,17.5,14.9z"/>
				</g>
			</g>
			<g>
				<rect x="15.7" y="14.9" class="st0" width="0.2" height="0.8"/>
				<g>
					<path class="st5" d="M15.8,14.9c0,0.1-0.1,0.3-0.1,0.4c0,0.1,0,0.1,0,0.2c0,0.1,0,0.1,0,0.2c0-0.1,0-0.1,0-0.2c0,0,0-0.1,0-0.1
						c0,0,0-0.1,0-0.1c0-0.1,0-0.1,0.1-0.2C15.8,15,15.8,15,15.8,14.9z"/>
				</g>
			</g>
			<g>
				<rect x="13.1" y="15.4" class="st0" width="0.2" height="0.9"/>
				<g>
					<path class="st5" d="M13.3,15.4c0,0.1-0.1,0.3-0.1,0.4c0,0.1,0,0.1,0,0.2c0,0.1,0,0.2,0,0.2c0-0.1,0-0.2-0.1-0.2
						c0,0,0-0.1,0-0.1c0,0,0-0.1,0-0.1c0-0.1,0-0.2,0.1-0.2C13.2,15.6,13.2,15.5,13.3,15.4z"/>
				</g>
			</g>
			<g>
				<rect x="14.6" y="12.6" class="st0" width="0.2" height="0.8"/>
				<g>
					<path class="st5" d="M14.8,12.6c0,0.1-0.1,0.3-0.1,0.4c0,0.1,0,0.1,0,0.2c0,0.1,0,0.1,0,0.2c0-0.1,0-0.1,0-0.2c0,0,0-0.1,0-0.1
						c0,0,0-0.1,0-0.1c0-0.1,0-0.1,0.1-0.2C14.7,12.8,14.7,12.7,14.8,12.6z"/>
				</g>
			</g>
			<g>
				<rect x="12.6" y="12.9" class="st0" width="0.2" height="0.7"/>
				<g>
					<path class="st5" d="M12.8,12.9c0,0.1-0.1,0.2-0.1,0.3c0,0.1,0,0.1,0,0.2c0,0.1,0,0.1,0,0.2c0-0.1,0-0.1,0-0.2c0,0,0-0.1,0-0.1
						c0,0,0-0.1,0-0.1c0-0.1,0-0.1,0.1-0.2C12.7,13,12.7,12.9,12.8,12.9z"/>
				</g>
			</g>
			<g>
				<rect x="10.2" y="13.4" class="st0" width="0.2" height="0.7"/>
				<g>
					<path class="st5" d="M10.4,13.4c0,0.1-0.1,0.2-0.1,0.4c0,0.1,0,0.1,0,0.2c0,0.1,0,0.1,0,0.2c0-0.1,0-0.1,0-0.2c0,0,0-0.1,0-0.1
						c0,0,0-0.1,0-0.1c0-0.1,0-0.1,0.1-0.2C10.3,13.5,10.3,13.4,10.4,13.4z"/>
				</g>
			</g>
		</g>
	</g>
	<g>
		<g>
			<g>
				<rect x="14.3" y="20.9" class="st0" width="0.2" height="0.7"/>
				<g>
					<path class="st5" d="M14.5,20.9c0,0.1-0.1,0.2-0.1,0.3c0,0.1,0,0.1,0,0.2c0,0.1,0,0.1,0,0.2c0-0.1,0-0.1,0-0.2c0,0,0-0.1,0-0.1
						c0,0,0-0.1,0-0.1c0-0.1,0-0.1,0.1-0.2C14.4,21,14.4,20.9,14.5,20.9z"/>
				</g>
			</g>
			<g>
				<rect x="13.9" y="19.1" class="st0" width="0.2" height="0.9"/>
				<g>
					<path class="st5" d="M14.1,19.1c0,0.1-0.1,0.3-0.1,0.4c0,0.1,0,0.1,0,0.2c0,0.1,0,0.1,0,0.2c0-0.1,0-0.1-0.1-0.2
						c0,0,0-0.1,0-0.1c0,0,0-0.1,0-0.1c0-0.1,0-0.2,0.1-0.2C14.1,19.2,14.1,19.1,14.1,19.1z"/>
				</g>
			</g>
			<g>
				<rect x="16" y="19" class="st0" width="0.2" height="0.9"/>
				<g>
					<path class="st5" d="M16.2,19c0,0.2-0.1,0.3-0.1,0.5c0,0.1,0,0.2,0,0.2c0,0.1,0,0.2,0,0.2c0-0.1-0.1-0.2-0.1-0.2
						c0,0,0-0.1,0-0.1c0,0,0-0.1,0-0.1c0-0.1,0-0.2,0.1-0.2C16.1,19.1,16.2,19,16.2,19z"/>
				</g>
			</g>
			<g>
				<rect x="16.4" y="17.8" class="st0" width="0.2" height="0.9"/>
				<g>
					<path class="st5" d="M16.6,17.8c0,0.1-0.1,0.3-0.1,0.4c0,0.1,0,0.1,0,0.2c0,0.1,0,0.1,0,0.2c0-0.1,0-0.1-0.1-0.2
						c0,0,0-0.1,0-0.1c0,0,0-0.1,0-0.1c0-0.1,0-0.2,0.1-0.2C16.6,17.9,16.6,17.8,16.6,17.8z"/>
				</g>
			</g>
			<g>
				<rect x="17.8" y="17.1" class="st0" width="0.2" height="0.7"/>
				<g>
					<path class="st5" d="M17.9,17.1c0,0.1-0.1,0.2-0.1,0.3c0,0.1,0,0.1,0,0.2c0,0.1,0,0.1,0,0.2c0-0.1,0-0.1,0-0.2c0,0,0-0.1,0-0.1
						c0,0,0-0.1,0-0.1c0-0.1,0-0.1,0.1-0.2C17.9,17.2,17.9,17.2,17.9,17.1z"/>
				</g>
			</g>
			<g>
				<rect x="18.3" y="15.7" class="st0" width="0.2" height="1"/>
				<g>
					<path class="st5" d="M18.6,15.7c-0.1,0.2-0.1,0.3-0.1,0.5c0,0.1,0,0.2,0,0.2c0,0.1,0,0.2,0,0.3c0-0.1-0.1-0.2-0.1-0.3
						c0,0,0-0.1,0-0.1c0,0,0-0.1,0-0.1c0-0.1,0-0.2,0.1-0.2C18.5,15.9,18.5,15.8,18.6,15.7z"/>
				</g>
			</g>
			<g>
				<rect x="17.7" y="14.2" class="st0" width="0.2" height="0.8"/>
				<g>
					<path class="st5" d="M17.9,14.2c0,0.1-0.1,0.3-0.1,0.4c0,0.1,0,0.1,0,0.2c0,0.1,0,0.1,0,0.2c0-0.1,0-0.1,0-0.2c0,0,0-0.1,0-0.1
						c0,0,0-0.1,0-0.1c0-0.1,0-0.1,0.1-0.2C17.8,14.3,17.8,14.2,17.9,14.2z"/>
				</g>
			</g>
			<g>
				<rect x="16.2" y="11.7" class="st0" width="0.2" height="0.9"/>
				<g>
					<path class="st5" d="M16.4,11.7c0,0.1-0.1,0.3-0.1,0.4c0,0.1,0,0.1,0,0.2c0,0.1,0,0.1,0,0.2c0-0.1,0-0.1-0.1-0.2
						c0,0,0-0.1,0-0.1c0,0,0-0.1,0-0.1c0-0.1,0-0.1,0.1-0.2C16.3,11.8,16.3,11.8,16.4,11.7z"/>
				</g>
			</g>
			<g>
				<rect x="18.1" y="11.6" class="st0" width="0.2" height="0.8"/>
				<g>
					<path class="st5" d="M18.3,11.6c0,0.1-0.1,0.3-0.1,0.4c0,0.1,0,0.1,0,0.2c0,0.1,0,0.1,0,0.2c0-0.1,0-0.1,0-0.2c0,0,0-0.1,0-0.1
						c0,0,0-0.1,0-0.1c0-0.1,0-0.1,0.1-0.2C18.2,11.7,18.3,11.6,18.3,11.6z"/>
				</g>
			</g>
			<g>
				<rect x="17.1" y="9.7" class="st0" width="0.2" height="0.7"/>
				<g>
					<path class="st5" d="M17.3,9.7c0,0.1-0.1,0.2-0.1,0.3c0,0.1,0,0.1,0,0.2c0,0.1,0,0.1,0,0.2c0-0.1,0-0.1,0-0.2c0,0,0-0.1,0-0.1
						c0,0,0-0.1,0-0.1c0-0.1,0-0.1,0.1-0.2C17.2,9.8,17.3,9.7,17.3,9.7z"/>
				</g>
			</g>
			<g>
				<rect x="20.3" y="10" class="st0" width="0.2" height="0.9"/>
				<g>
					<path class="st5" d="M20.5,10c0,0.1-0.1,0.3-0.1,0.4c0,0.1,0,0.1,0,0.2c0,0.1,0,0.1,0,0.2c0-0.1,0-0.1-0.1-0.2c0,0,0-0.1,0-0.1
						c0,0,0-0.1,0-0.1c0-0.1,0-0.1,0.1-0.2C20.4,10.1,20.5,10,20.5,10z"/>
				</g>
			</g>
			<g>
				<rect x="18.2" y="7.5" class="st0" width="0.2" height="0.8"/>
				<g>
					<path class="st5" d="M18.4,7.5c0,0.1-0.1,0.3-0.1,0.4c0,0.1,0,0.1,0,0.2c0,0.1,0,0.1,0,0.2c0-0.1,0-0.1,0-0.2c0,0,0-0.1,0-0.1
						c0,0,0-0.1,0-0.1c0-0.1,0-0.1,0.1-0.2C18.3,7.7,18.3,7.6,18.4,7.5z"/>
				</g>
			</g>
			<g>
				<rect x="19.2" y="6.7" class="st0" width="0.2" height="0.8"/>
				<g>
					<path class="st5" d="M19.4,6.7c0,0.1-0.1,0.3-0.1,0.4c0,0.1,0,0.1,0,0.2c0,0.1,0,0.1,0,0.2c0-0.1,0-0.1-0.1-0.2
						c0,0,0-0.1,0-0.1c0,0,0-0.1,0-0.1c0-0.1,0-0.1,0.1-0.2C19.3,6.9,19.3,6.8,19.4,6.7z"/>
				</g>
			</g>
		</g>
	</g>
	<g>
		<g>
			<g>
				<rect x="21.3" y="9.1" class="st0" width="0.2" height="1"/>
				<g>
					<path class="st5" d="M21.5,9.1c-0.1,0.2-0.1,0.3-0.1,0.5c0,0.1,0,0.2,0,0.2c0,0.1,0,0.2,0,0.3c0-0.1-0.1-0.2-0.1-0.3
						c0,0,0-0.1,0-0.1c0,0,0-0.1,0-0.1c0-0.1,0-0.2,0.1-0.2C21.4,9.2,21.5,9.2,21.5,9.1z"/>
				</g>
			</g>
			<g>
				<rect x="19.7" y="7.2" class="st0" width="0.2" height="0.8"/>
				<g>
					<path class="st5" d="M19.9,7.2c0,0.1-0.1,0.3-0.1,0.4c0,0.1,0,0.1,0,0.2c0,0.1,0,0.1,0,0.2c0-0.1,0-0.1,0-0.2c0,0,0-0.1,0-0.1
						c0,0,0-0.1,0-0.1c0-0.1,0-0.1,0.1-0.2C19.8,7.3,19.8,7.3,19.9,7.2z"/>
				</g>
			</g>
			<g>
				<rect x="25" y="8.1" class="st0" width="0.2" height="0.9"/>
				<g>
					<path class="st5" d="M25.3,8.1c0,0.2-0.1,0.3-0.1,0.4c0,0.1,0,0.1,0,0.2c0,0.1,0,0.2,0,0.2c0-0.1-0.1-0.2-0.1-0.2
						c0,0,0-0.1,0-0.1c0,0,0-0.1,0-0.1c0-0.1,0-0.2,0.1-0.2C25.2,8.2,25.2,8.1,25.3,8.1z"/>
				</g>
			</g>
			<g>
				<rect x="20.7" y="5.1" class="st0" width="0.2" height="0.7"/>
				<g>
					<path class="st5" d="M20.8,5.1c0,0.1-0.1,0.2-0.1,0.3c0,0.1,0,0.1,0,0.2c0,0.1,0,0.1,0,0.2c0-0.1,0-0.1,0-0.2c0,0,0-0.1,0-0.1
						c0,0,0-0.1,0-0.1c0-0.1,0-0.1,0.1-0.2C20.8,5.2,20.8,5.2,20.8,5.1z"/>
				</g>
			</g>
			<g>
				<rect x="22.8" y="4.6" class="st0" width="0.2" height="0.9"/>
				<g>
					<path class="st5" d="M23,4.6c0,0.1-0.1,0.3-0.1,0.4c0,0.1,0,0.1,0,0.2c0,0.1,0,0.2,0,0.2c0-0.1,0-0.2-0.1-0.2c0,0,0-0.1,0-0.1
						c0,0,0-0.1,0-0.1c0-0.1,0-0.2,0.1-0.2C22.9,4.7,22.9,4.6,23,4.6z"/>
				</g>
			</g>
		</g>
	</g>
	<g>
		<g>
			<g>
				<rect x="20.8" y="18.7" class="st0" width="0.2" height="1"/>
				<g>
					<path class="st5" d="M21,18.7c-0.1,0.2-0.1,0.3-0.1,0.5c0,0.1,0,0.2,0,0.2c0,0.1,0,0.2,0,0.2c0-0.1-0.1-0.2-0.1-0.2
						c0,0,0-0.1,0-0.1c0,0,0-0.1,0-0.1c0-0.1,0-0.2,0.1-0.2C20.9,18.8,20.9,18.7,21,18.7z"/>
				</g>
			</g>
			<g>
				<rect x="21.2" y="17.8" class="st0" width="0.2" height="0.7"/>
				<g>
					<path class="st5" d="M21.4,17.8c0,0.1-0.1,0.2-0.1,0.4c0,0.1,0,0.1,0,0.2c0,0.1,0,0.1,0,0.2c0-0.1,0-0.1,0-0.2c0,0,0-0.1,0-0.1
						c0,0,0-0.1,0-0.1c0-0.1,0-0.1,0.1-0.2C21.3,17.9,21.3,17.8,21.4,17.8z"/>
				</g>
			</g>
			<g>
				<rect x="19.8" y="15.9" class="st0" width="0.2" height="0.8"/>
				<g>
					<path class="st5" d="M20,15.9c0,0.1-0.1,0.3-0.1,0.4c0,0.1,0,0.1,0,0.2c0,0.1,0,0.1,0,0.2c0-0.1,0-0.1,0-0.2c0,0,0-0.1,0-0.1
						c0,0,0-0.1,0-0.1c0-0.1,0-0.1,0.1-0.2C19.9,16,20,15.9,20,15.9z"/>
				</g>
			</g>
			<g>
				<rect x="21" y="14.9" class="st0" width="0.2" height="0.9"/>
				<g>
					<path class="st5" d="M21.2,14.9c0,0.2-0.1,0.3-0.1,0.5c0,0.1,0,0.2,0,0.2c0,0.1,0,0.2,0,0.2c0-0.1-0.1-0.2-0.1-0.2
						c0,0,0-0.1,0-0.1c0,0,0-0.1,0-0.1c0-0.1,0-0.2,0.1-0.2C21.1,15,21.2,15,21.2,14.9z"/>
				</g>
			</g>
			<g>
				<rect x="19.6" y="13.1" class="st0" width="0.2" height="0.9"/>
				<g>
					<path class="st5" d="M19.8,13.1c0,0.2-0.1,0.3-0.1,0.5c0,0.1,0,0.2,0,0.2c0,0.1,0,0.2,0,0.2c0-0.1-0.1-0.2-0.1-0.2
						c0,0,0-0.1,0-0.1c0,0,0-0.1,0-0.1c0-0.1,0-0.2,0.1-0.2C19.8,13.2,19.8,13.2,19.8,13.1z"/>
				</g>
			</g>
		</g>
	</g>
	<g>
		<g>
			<g>
				<rect x="17.2" y="16.6" class="st0" width="0.2" height="0.7"/>
				<g>
					<path class="st5" d="M17.4,16.6c0,0.1-0.1,0.2-0.1,0.4c0,0.1,0,0.1,0,0.2c0,0.1,0,0.1,0,0.2c0-0.1,0-0.1,0-0.2c0,0,0-0.1,0-0.1
						c0,0,0-0.1,0-0.1c0-0.1,0-0.1,0.1-0.2C17.3,16.7,17.3,16.6,17.4,16.6z"/>
				</g>
			</g>
			<g>
				<rect x="15.8" y="17.5" class="st0" width="0.2" height="0.7"/>
				<g>
					<path class="st5" d="M15.9,17.5c0,0.1-0.1,0.2-0.1,0.4c0,0.1,0,0.1,0,0.2c0,0.1,0,0.1,0,0.2c0-0.1,0-0.1,0-0.2c0,0,0-0.1,0-0.1
						c0,0,0-0.1,0-0.1c0-0.1,0-0.1,0.1-0.2C15.8,17.6,15.9,17.6,15.9,17.5z"/>
				</g>
			</g>
			<g>
				<rect x="14.7" y="16.5" class="st0" width="0.2" height="1"/>
				<g>
					<path class="st5" d="M14.9,16.5c-0.1,0.2-0.1,0.3-0.1,0.5c0,0.1,0,0.2,0,0.2c0,0.1,0,0.2,0,0.3c0-0.1-0.1-0.2-0.1-0.3
						c0,0,0-0.1,0-0.1c0,0,0-0.1,0-0.1c0-0.1,0-0.2,0.1-0.3C14.8,16.6,14.9,16.6,14.9,16.5z"/>
				</g>
			</g>
			<g>
				<rect x="15.5" y="12.4" class="st0" width="0.2" height="0.9"/>
				<g>
					<path class="st5" d="M15.7,12.4c0,0.2-0.1,0.3-0.1,0.5c0,0.1,0,0.2,0,0.2c0,0.1,0,0.2,0,0.2c0-0.1-0.1-0.2-0.1-0.2
						c0,0,0-0.1,0-0.1c0,0,0-0.1,0-0.1c0-0.1,0-0.2,0.1-0.2C15.6,12.5,15.6,12.5,15.7,12.4z"/>
				</g>
			</g>
		</g>
	</g>
	<g>
		<g>
			<g>
				<rect x="10.3" y="12" class="st0" width="0.2" height="0.8"/>
				<g>
					<path class="st5" d="M10.5,12c0,0.1-0.1,0.3-0.1,0.4c0,0.1,0,0.1,0,0.2c0,0.1,0,0.1,0,0.2c0-0.1,0-0.1,0-0.2c0,0,0-0.1,0-0.1
						c0,0,0-0.1,0-0.1c0-0.1,0-0.1,0.1-0.2C10.4,12.1,10.4,12,10.5,12z"/>
				</g>
			</g>
		</g>
	</g>
	<g>
		<g>
			<g>
				<rect x="11.8" y="11.6" class="st0" width="0.2" height="1"/>
				<g>
					<path class="st5" d="M12,11.6c-0.1,0.2-0.1,0.3-0.1,0.5c0,0.1,0,0.2,0,0.2c0,0.1,0,0.2,0,0.3c0-0.1-0.1-0.2-0.1-0.3
						c0,0,0-0.1,0-0.1c0,0,0-0.1,0-0.1c0-0.1,0-0.2,0.1-0.2C11.9,11.8,12,11.7,12,11.6z"/>
				</g>
			</g>
			<g>
				<rect x="10.7" y="9.7" class="st0" width="0.2" height="0.8"/>
				<g>
					<path class="st5" d="M10.9,9.7c0,0.1-0.1,0.2-0.1,0.4c0,0.1,0,0.1,0,0.2c0,0.1,0,0.1,0,0.2c0-0.1,0-0.1,0-0.2c0,0,0-0.1,0-0.1
						c0,0,0-0.1,0-0.1c0-0.1,0-0.1,0.1-0.2C10.8,9.8,10.8,9.8,10.9,9.7z"/>
				</g>
			</g>
		</g>
	</g>
	<g>
		<g>
			<g>
				<rect x="17.7" y="9.4" class="st0" width="0.2" height="0.9"/>
				<g>
					<path class="st5" d="M18,9.4c0,0.1-0.1,0.3-0.1,0.4c0,0.1,0,0.1,0,0.2c0,0.1,0,0.1,0,0.2c0-0.1,0-0.1-0.1-0.2c0,0,0-0.1,0-0.1
						c0,0,0-0.1,0-0.1c0-0.1,0-0.2,0.1-0.2C17.9,9.5,17.9,9.5,18,9.4z"/>
				</g>
			</g>
		</g>
	</g>
	<g>
		<g>
			<g>
				<rect x="15.8" y="7.9" class="st0" width="0.2" height="0.9"/>
				<g>
					<path class="st5" d="M16,7.9C16,8,16,8.2,15.9,8.3c0,0.1,0,0.1,0,0.2c0,0.1,0,0.1,0,0.2c0-0.1,0-0.1-0.1-0.2c0,0,0-0.1,0-0.1
						c0,0,0-0.1,0-0.1c0-0.1,0-0.1,0.1-0.2C16,8,16,7.9,16,7.9z"/>
				</g>
			</g>
			<g>
				<rect x="14.6" y="7.5" class="st0" width="0.2" height="0.7"/>
				<g>
					<path class="st5" d="M14.8,7.5c0,0.1-0.1,0.2-0.1,0.4c0,0.1,0,0.1,0,0.2c0,0.1,0,0.1,0,0.2c0-0.1,0-0.1,0-0.2c0,0,0-0.1,0-0.1
						c0,0,0-0.1,0-0.1c0-0.1,0-0.1,0.1-0.2C14.7,7.6,14.7,7.5,14.8,7.5z"/>
				</g>
			</g>
			<g>
				<rect x="13" y="8.5" class="st0" width="0.2" height="0.8"/>
				<g>
					<path class="st5" d="M13.2,8.5c0,0.1-0.1,0.3-0.1,0.4c0,0.1,0,0.1,0,0.2c0,0.1,0,0.1,0,0.2c0-0.1,0-0.1,0-0.2c0,0,0-0.1,0-0.1
						c0,0,0-0.1,0-0.1c0-0.1,0-0.1,0.1-0.2C13.1,8.7,13.2,8.6,13.2,8.5z"/>
				</g>
			</g>
			<g>
				<rect x="11.2" y="11.8" class="st0" width="0.2" height="0.7"/>
				<g>
					<path class="st5" d="M11.4,11.8c0,0.1-0.1,0.2-0.1,0.3c0,0.1,0,0.1,0,0.2c0,0.1,0,0.1,0,0.2c0-0.1,0-0.1,0-0.2c0,0,0-0.1,0-0.1
						c0,0,0-0.1,0-0.1c0-0.1,0-0.1,0.1-0.2C11.3,11.9,11.4,11.9,11.4,11.8z"/>
				</g>
			</g>
			<g>
				<rect x="10.2" y="11.6" class="st0" width="0.2" height="0.7"/>
				<g>
					<path class="st5" d="M10.3,11.6c0,0.1-0.1,0.2-0.1,0.4c0,0.1,0,0.1,0,0.2c0,0.1,0,0.1,0,0.2c0-0.1,0-0.1,0-0.2c0,0,0-0.1,0-0.1
						c0,0,0-0.1,0-0.1c0-0.1,0-0.1,0.1-0.2C10.3,11.7,10.3,11.7,10.3,11.6z"/>
				</g>
			</g>
		</g>
	</g>
	<g>
		<g>
			<g>
				<rect x="14.4" y="6.7" class="st0" width="0.2" height="0.8"/>
				<g>
					<path class="st5" d="M14.6,6.7c0,0.1-0.1,0.2-0.1,0.4c0,0.1,0,0.1,0,0.2c0,0.1,0,0.1,0,0.2c0-0.1,0-0.1,0-0.2c0,0,0-0.1,0-0.1
						c0,0,0-0.1,0-0.1c0-0.1,0-0.1,0.1-0.2C14.5,6.8,14.6,6.7,14.6,6.7z"/>
				</g>
			</g>
		</g>
	</g>
	<g>
		<g>
			<g>
				<rect x="17.5" y="5" class="st0" width="0.2" height="0.8"/>
				<g>
					<path class="st5" d="M17.7,5c0,0.1-0.1,0.3-0.1,0.4c0,0.1,0,0.1,0,0.2c0,0.1,0,0.1,0,0.2c0-0.1,0-0.1,0-0.2c0,0,0-0.1,0-0.1
						c0,0,0-0.1,0-0.1c0-0.1,0-0.1,0.1-0.2C17.6,5.1,17.6,5.1,17.7,5z"/>
				</g>
			</g>
		</g>
	</g>
	<g>
		<g>
			<g>
				<rect x="12.7" y="18.9" class="st0" width="0.2" height="1"/>
				<g>
					<path class="st5" d="M12.9,18.9c-0.1,0.2-0.1,0.3-0.1,0.5c0,0.1,0,0.2,0,0.2c0,0.1,0,0.2,0,0.2c0-0.1-0.1-0.2-0.1-0.2
						c0,0,0-0.1,0-0.1c0,0,0-0.1,0-0.1c0-0.1,0-0.2,0.1-0.2C12.8,19,12.9,18.9,12.9,18.9z"/>
				</g>
			</g>
		</g>
	</g>
	<g>
		<g>
			<g>
				<rect x="10.7" y="19.7" class="st0" width="0.2" height="0.8"/>
				<g>
					<path class="st5" d="M10.9,19.7c0,0.1-0.1,0.3-0.1,0.4c0,0.1,0,0.1,0,0.2c0,0.1,0,0.1,0,0.2c0-0.1,0-0.1,0-0.2c0,0,0-0.1,0-0.1
						c0,0,0-0.1,0-0.1c0-0.1,0-0.1,0.1-0.2C10.8,19.8,10.8,19.7,10.9,19.7z"/>
				</g>
			</g>
		</g>
	</g>
	<g>
		<g>
			<g>
				<rect x="18.9" y="22.4" class="st0" width="0.2" height="0.7"/>
				<g>
					<path class="st5" d="M19,22.4c0,0.1-0.1,0.2-0.1,0.4c0,0.1,0,0.1,0,0.2c0,0.1,0,0.1,0,0.2c0-0.1,0-0.1,0-0.2c0,0,0-0.1,0-0.1
						c0,0,0-0.1,0-0.1c0-0.1,0-0.1,0.1-0.2C19,22.5,19,22.4,19,22.4z"/>
				</g>
			</g>
			<g>
				<rect x="17.5" y="21.8" class="st0" width="0.2" height="0.9"/>
				<g>
					<path class="st5" d="M17.7,21.8c0,0.2-0.1,0.3-0.1,0.4c0,0.1,0,0.2,0,0.2c0,0.1,0,0.2,0,0.2c0-0.1-0.1-0.2-0.1-0.2
						c0,0,0-0.1,0-0.1c0,0,0-0.1,0-0.1c0-0.1,0-0.2,0.1-0.2C17.6,22,17.6,21.9,17.7,21.8z"/>
				</g>
			</g>
			<g>
				<rect x="16.2" y="18" class="st0" width="0.2" height="0.8"/>
				<g>
					<path class="st5" d="M16.4,18c0,0.1-0.1,0.3-0.1,0.4c0,0.1,0,0.1,0,0.2c0,0.1,0,0.1,0,0.2c0-0.1,0-0.1,0-0.2c0,0,0-0.1,0-0.1
						c0,0,0-0.1,0-0.1c0-0.1,0-0.1,0.1-0.2C16.3,18.1,16.4,18,16.4,18z"/>
				</g>
			</g>
			<g>
				<rect x="15" y="20.8" class="st0" width="0.2" height="0.9"/>
				<g>
					<path class="st5" d="M15.2,20.8c0,0.1-0.1,0.3-0.1,0.4c0,0.1,0,0.1,0,0.2c0,0.1,0,0.1,0,0.2c0-0.1,0-0.1-0.1-0.2
						c0,0,0-0.1,0-0.1c0,0,0-0.1,0-0.1c0-0.1,0-0.1,0.1-0.2C15.1,20.9,15.2,20.8,15.2,20.8z"/>
				</g>
			</g>
			<g>
				<rect x="13.7" y="20.4" class="st0" width="0.2" height="0.8"/>
				<g>
					<path class="st5" d="M13.9,20.4c0,0.1-0.1,0.3-0.1,0.4c0,0.1,0,0.1,0,0.2c0,0.1,0,0.1,0,0.2c0-0.1,0-0.1,0-0.2c0,0,0-0.1,0-0.1
						c0,0,0-0.1,0-0.1c0-0.1,0-0.1,0.1-0.2C13.8,20.5,13.9,20.5,13.9,20.4z"/>
				</g>
			</g>
			<g>
				<rect x="12.4" y="20.5" class="st0" width="0.2" height="0.7"/>
				<g>
					<path class="st5" d="M12.6,20.5c0,0.1-0.1,0.2-0.1,0.3c0,0.1,0,0.1,0,0.2c0,0.1,0,0.1,0,0.2c0-0.1,0-0.1,0-0.2c0,0,0-0.1,0-0.1
						c0,0,0-0.1,0-0.1c0-0.1,0-0.1,0.1-0.2C12.5,20.6,12.5,20.6,12.6,20.5z"/>
				</g>
			</g>
		</g>
	</g>
	<g>
		<g>
			<g>
				<rect x="14.7" y="24.3" class="st0" width="0.2" height="0.9"/>
				<g>
					<path class="st5" d="M14.9,24.3c0,0.1-0.1,0.3-0.1,0.4c0,0.1,0,0.1,0,0.2c0,0.1,0,0.1,0,0.2c0-0.1,0-0.1-0.1-0.2
						c0,0,0-0.1,0-0.1c0,0,0-0.1,0-0.1c0-0.1,0-0.1,0.1-0.2C14.9,24.5,14.9,24.4,14.9,24.3z"/>
				</g>
			</g>
			<g>
				<rect x="17.2" y="23.2" class="st0" width="0.2" height="0.7"/>
				<g>
					<path class="st5" d="M17.3,23.2c0,0.1-0.1,0.2-0.1,0.3c0,0.1,0,0.1,0,0.2c0,0.1,0,0.1,0,0.2c0-0.1,0-0.1,0-0.2c0,0,0-0.1,0-0.1
						c0,0,0-0.1,0-0.1c0-0.1,0-0.1,0.1-0.2C17.3,23.3,17.3,23.3,17.3,23.2z"/>
				</g>
			</g>
			<g>
				<rect x="17.1" y="21.8" class="st0" width="0.2" height="1"/>
				<g>
					<path class="st5" d="M17.4,21.8c-0.1,0.2-0.1,0.3-0.1,0.5c0,0.1,0,0.2,0,0.2c0,0.1,0,0.2,0,0.2c0-0.1-0.1-0.2-0.1-0.2
						c0,0,0-0.1,0-0.1c0,0,0-0.1,0-0.1c0-0.1,0-0.2,0.1-0.2C17.3,22,17.3,21.9,17.4,21.8z"/>
				</g>
			</g>
			<g>
				<rect x="16.1" y="20.8" class="st0" width="0.2" height="0.8"/>
				<g>
					<path class="st5" d="M16.3,20.8c0,0.1-0.1,0.3-0.1,0.4c0,0.1,0,0.1,0,0.2c0,0.1,0,0.1,0,0.2c0-0.1,0-0.1,0-0.2c0,0,0-0.1,0-0.1
						c0,0,0-0.1,0-0.1c0-0.1,0-0.1,0.1-0.2C16.2,20.9,16.2,20.8,16.3,20.8z"/>
				</g>
			</g>
			<g>
				<rect x="17.8" y="19.7" class="st0" width="0.2" height="0.9"/>
				<g>
					<path class="st5" d="M18,19.7c0,0.1-0.1,0.3-0.1,0.4c0,0.1,0,0.1,0,0.2c0,0.1,0,0.1,0,0.2c0-0.1,0-0.1-0.1-0.2c0,0,0-0.1,0-0.1
						c0,0,0-0.1,0-0.1c0-0.1,0-0.2,0.1-0.2C17.9,19.8,18,19.7,18,19.7z"/>
				</g>
			</g>
			<g>
				<rect x="14.5" y="17.8" class="st0" width="0.2" height="1"/>
				<g>
					<path class="st5" d="M14.7,17.8c-0.1,0.2-0.1,0.3-0.1,0.5c0,0.1,0,0.2,0,0.2c0,0.1,0,0.2,0,0.3c0-0.1-0.1-0.2-0.1-0.3
						c0,0,0-0.1,0-0.1c0,0,0-0.1,0-0.1c0-0.1,0-0.2,0.1-0.2C14.6,17.9,14.7,17.9,14.7,17.8z"/>
				</g>
			</g>
			<g>
				<rect x="14.8" y="16.6" class="st0" width="0.2" height="0.9"/>
				<g>
					<path class="st5" d="M15.1,16.6c0,0.2-0.1,0.3-0.1,0.5c0,0.1,0,0.2,0,0.2c0,0.1,0,0.2,0,0.2c0-0.1-0.1-0.2-0.1-0.2
						c0,0,0-0.1,0-0.1c0,0,0-0.1,0-0.1c0-0.1,0-0.2,0.1-0.2C15,16.7,15,16.6,15.1,16.6z"/>
				</g>
			</g>
			<g>
				<rect x="14.9" y="15.3" class="st0" width="0.2" height="1"/>
				<g>
					<path class="st5" d="M15.1,15.3C15,15.4,15,15.6,15,15.8c0,0.1,0,0.2,0,0.2c0,0.1,0,0.2,0,0.3c0-0.1-0.1-0.2-0.1-0.3
						c0,0,0-0.1,0-0.1c0,0,0-0.1,0-0.1c0-0.1,0-0.2,0.1-0.2C15,15.4,15,15.3,15.1,15.3z"/>
				</g>
			</g>
			<g>
				<rect x="18.6" y="15.2" class="st0" width="0.2" height="0.9"/>
				<g>
					<path class="st5" d="M18.8,15.2c0,0.2-0.1,0.3-0.1,0.4c0,0.1,0,0.1,0,0.2c0,0.1,0,0.2,0,0.2c0-0.1-0.1-0.2-0.1-0.2
						c0,0,0-0.1,0-0.1c0,0,0-0.1,0-0.1c0-0.1,0-0.2,0.1-0.2C18.7,15.3,18.8,15.3,18.8,15.2z"/>
				</g>
			</g>
			<g>
				<rect x="15.6" y="12.8" class="st0" width="0.2" height="0.8"/>
				<g>
					<path class="st5" d="M15.8,12.8c0,0.1-0.1,0.2-0.1,0.4c0,0.1,0,0.1,0,0.2c0,0.1,0,0.1,0,0.2c0-0.1,0-0.1,0-0.2c0,0,0-0.1,0-0.1
						c0,0,0-0.1,0-0.1c0-0.1,0-0.1,0.1-0.2C15.7,13,15.7,12.9,15.8,12.8z"/>
				</g>
			</g>
			<g>
				<rect x="19.4" y="12.7" class="st0" width="0.2" height="1"/>
				<g>
					<path class="st5" d="M19.6,12.7c-0.1,0.2-0.1,0.3-0.1,0.5c0,0.1,0,0.2,0,0.2c0,0.1,0,0.2,0,0.2c0-0.1-0.1-0.2-0.1-0.2
						c0,0,0-0.1,0-0.1c0,0,0-0.1,0-0.1c0-0.1,0-0.2,0.1-0.2C19.5,12.8,19.5,12.7,19.6,12.7z"/>
				</g>
			</g>
			<g>
				<rect x="16.8" y="10.6" class="st0" width="0.2" height="0.8"/>
				<g>
					<path class="st5" d="M17,10.6c0,0.1-0.1,0.3-0.1,0.4c0,0.1,0,0.1,0,0.2c0,0.1,0,0.1,0,0.2c0-0.1,0-0.1,0-0.2c0,0,0-0.1,0-0.1
						c0,0,0-0.1,0-0.1c0-0.1,0-0.1,0.1-0.2C17,10.7,17,10.7,17,10.6z"/>
				</g>
			</g>
			<g>
				<rect x="19.5" y="10.2" class="st0" width="0.2" height="0.9"/>
				<g>
					<path class="st5" d="M19.7,10.2c0,0.1-0.1,0.3-0.1,0.4c0,0.1,0,0.1,0,0.2c0,0.1,0,0.1,0,0.2c0-0.1,0-0.1-0.1-0.2
						c0,0,0-0.1,0-0.1c0,0,0-0.1,0-0.1c0-0.1,0-0.2,0.1-0.2C19.6,10.3,19.6,10.3,19.7,10.2z"/>
				</g>
			</g>
			<g>
				<rect x="20.9" y="9.5" class="st0" width="0.2" height="1"/>
				<g>
					<path class="st5" d="M21.1,9.5C21,9.7,21,9.8,21,10c0,0.1,0,0.2,0,0.2c0,0.1,0,0.2,0,0.3c0-0.1-0.1-0.2-0.1-0.3
						c0,0,0-0.1,0-0.1c0,0,0-0.1,0-0.1c0-0.1,0-0.2,0.1-0.2C21,9.6,21,9.6,21.1,9.5z"/>
				</g>
			</g>
			<g>
				<rect x="18.7" y="7.6" class="st0" width="0.2" height="0.7"/>
				<g>
					<path class="st5" d="M18.9,7.6c0,0.1-0.1,0.2-0.1,0.3c0,0.1,0,0.1,0,0.2c0,0.1,0,0.1,0,0.2c0-0.1,0-0.1,0-0.2c0,0,0-0.1,0-0.1
						c0,0,0-0.1,0-0.1c0-0.1,0-0.1,0.1-0.2C18.8,7.7,18.8,7.6,18.9,7.6z"/>
				</g>
			</g>
			<g>
				<rect x="20.9" y="6.9" class="st0" width="0.2" height="0.8"/>
				<g>
					<path class="st5" d="M21.1,6.9c0,0.1-0.1,0.3-0.1,0.4c0,0.1,0,0.1,0,0.2c0,0.1,0,0.1,0,0.2c0-0.1,0-0.1,0-0.2c0,0,0-0.1,0-0.1
						c0,0,0-0.1,0-0.1c0-0.1,0-0.1,0.1-0.2C21,7,21.1,7,21.1,6.9z"/>
				</g>
			</g>
			<g>
				<rect x="19.1" y="4.9" class="st0" width="0.2" height="1"/>
				<g>
					<path class="st5" d="M19.3,4.9c-0.1,0.2-0.1,0.3-0.1,0.5c0,0.1,0,0.2,0,0.2c0,0.1,0,0.2,0,0.2c0-0.1-0.1-0.2-0.1-0.2
						c0,0,0-0.1,0-0.1c0,0,0-0.1,0-0.1c0-0.1,0-0.2,0.1-0.2C19.2,5.1,19.2,5,19.3,4.9z"/>
				</g>
			</g>
		</g>
	</g>
	<path class="st6" d="M21,26.6c0,0,5.4-1.1,5.8-10.8c0,0,1.5-13-7-13.7c0,0-0.7-0.3-1,1c-0.3,1.2-1.2,20.1-0.3,21.4
		C19.3,25.8,19,26.9,21,26.6z"/>
	<path class="st7" d="M20.3,25.9c-0.4,0-0.4,0-0.7-0.7c-0.1-0.3-0.3-0.7-0.6-1.1c-0.2-0.5-0.4-3.6-0.2-10.6
		c0.2-5.3,0.4-9.8,0.6-10.3c0.1-0.3,0.2-0.4,0.2-0.4l0,0l0.1,0c1.7,0.1,3.1,0.8,4.1,2.1c3,3.7,2.3,10.7,2.2,10.8l0,0l0,0
		c-0.1,3.7-1.1,6.7-2.7,8.5c-1.2,1.3-2.4,1.6-2.5,1.6C20.7,25.9,20.5,25.9,20.3,25.9L20.3,25.9z"/>
	<path class="st8" d="M20.4,25.2c-0.1-0.1-0.1-0.2-0.1-0.3c-0.1-0.3-0.3-0.7-0.6-1.1c-0.1-0.5-0.3-3.2-0.1-10.2
		c0.1-5.1,0.4-9.2,0.5-10.1c1.3,0.2,2.4,0.8,3.2,1.8c2.8,3.4,2.1,10.2,2.1,10.3l0,0.1l0,0.1c-0.1,3.6-1,6.4-2.6,8.1
		c-1,1.1-2,1.4-2.1,1.4C20.6,25.2,20.5,25.2,20.4,25.2z"/>
	<g>
		<path class="st9" d="M19.9,8.4C20,8,20.3,7.6,20.5,7.2c0.3-0.4,0.5-0.8,0.9-1.1c-0.1,0.5-0.4,0.9-0.6,1.3
			C20.5,7.7,20.2,8.1,19.9,8.4z"/>
	</g>
	<g>
		<path class="st9" d="M20.8,9.6c0.3-0.4,0.7-0.7,1-1C22.2,8.3,22.6,8,23,7.8c-0.3,0.4-0.7,0.7-1,1C21.6,9.1,21.3,9.3,20.8,9.6z"/>
	</g>
	<g>
		<path class="st9" d="M20,9.1c0.3-0.4,0.6-0.7,1-1c0.4-0.3,0.7-0.6,1.2-0.8c-0.3,0.4-0.6,0.7-1,1C20.8,8.6,20.4,8.9,20,9.1z"/>
	</g>
	<g>
		<path class="st9" d="M20.8,10.2c0.5-0.3,1-0.5,1.5-0.7c0.5-0.2,1-0.4,1.6-0.4c-0.5,0.3-1,0.5-1.5,0.7
			C21.9,9.9,21.4,10.1,20.8,10.2z"/>
	</g>
	<g>
		<path class="st9" d="M20.8,11c0.5-0.2,1-0.4,1.4-0.6c0.5-0.1,1-0.3,1.5-0.3c-0.5,0.2-1,0.4-1.4,0.6C21.8,10.8,21.3,10.9,20.8,11z"
			/>
	</g>
	<g>
		<path class="st9" d="M21.2,11.4c0.5-0.2,1-0.2,1.5-0.2c0.5,0,1,0,1.6,0.1c-0.5,0.2-1,0.2-1.5,0.2C22.2,11.5,21.7,11.5,21.2,11.4z"
			/>
	</g>
	<g>
		<path class="st9" d="M21,12.1c0.6,0,1.2,0.1,1.8,0.2c0.6,0.1,1.2,0.2,1.7,0.3c-0.6,0-1.2-0.1-1.8-0.2C22.1,12.4,21.6,12.3,21,12.1
			z"/>
	</g>
	<g>
		<path class="st9" d="M20.1,17.1c0.3,0.4,0.4,0.8,0.6,1.3c0.1,0.4,0.3,0.9,0.4,1.4c-0.3-0.4-0.4-0.8-0.6-1.3
			C20.3,18.1,20.1,17.6,20.1,17.1z"/>
	</g>
	<g>
		<path class="st9" d="M20.4,16.6c0.4,0.3,0.8,0.8,1.1,1.2c0.3,0.4,0.6,0.9,0.9,1.4c-0.4-0.3-0.8-0.8-1.1-1.2
			C20.9,17.5,20.6,17.1,20.4,16.6z"/>
	</g>
	<g>
		<path class="st9" d="M20.7,15.9c0.4,0.3,0.8,0.7,1.1,1.1c0.3,0.4,0.7,0.8,0.9,1.2c-0.4-0.3-0.8-0.7-1.1-1.1
			C21.4,16.7,21,16.3,20.7,15.9z"/>
	</g>
	<g>
		<path class="st9" d="M21.3,15.7c0.5,0.2,0.9,0.5,1.4,0.7c0.4,0.3,0.8,0.6,1.2,1c-0.5-0.2-0.9-0.5-1.4-0.7
			C22.1,16.4,21.7,16.1,21.3,15.7z"/>
	</g>
	<g>
		<path class="st9" d="M21.5,15.2c0.6,0.1,1.1,0.3,1.7,0.4c0.6,0.2,1.1,0.3,1.7,0.6c-0.6-0.1-1.1-0.3-1.7-0.4
			C22.6,15.6,22,15.4,21.5,15.2z"/>
	</g>
	<g>
		<path class="st9" d="M21,13.3c0.5-0.1,0.9-0.1,1.4-0.2c0.5,0,0.9,0,1.4,0.2c-0.5,0.1-0.9,0.1-1.4,0.2C22,13.5,21.5,13.5,21,13.3z"
			/>
	</g>
	<g>
		<path class="st9" d="M20.8,13.9c0.6,0.1,1.2,0.3,1.8,0.4c0.6,0.2,1.2,0.4,1.7,0.7c-0.6-0.1-1.2-0.3-1.8-0.4
			C22,14.5,21.4,14.3,20.8,13.9z"/>
	</g>
	<g>
		<path class="st9" d="M19.9,18c0.2,0.5,0.2,1,0.3,1.5c0,0.5,0.1,1,0,1.5c-0.2-0.5-0.2-1-0.3-1.5C19.9,19,19.9,18.5,19.9,18z"/>
	</g>
	<path class="st10" d="M19.7,7.9c1.2,0,2.1,3.7,2.1,5.6S20.6,19,19.4,19L19.7,7.9z"/>
	<path class="st11" d="M20.4,7.6c0,0,0-0.1,0.1-0.2c0,0,0.1-0.1,0.1,0.1C20.6,7.5,20.5,7.6,20.4,7.6C20.4,7.6,20.4,7.6,20.4,7.6z"/>
	<path class="st11" d="M21.3,8c0,0,0-0.1,0.1-0.2c0,0,0.1-0.1,0.1,0.1C21.6,7.9,21.5,8,21.3,8C21.4,8,21.4,8.1,21.3,8z"/>
	<path class="st11" d="M21.5,9.1c0,0,0-0.1,0.1-0.2c0,0,0.1-0.1,0.1,0.1C21.7,9,21.6,9.1,21.5,9.1C21.5,9.1,21.5,9.1,21.5,9.1z"/>
	<path class="st11" d="M22.1,9.7c0,0,0-0.1,0.2-0.2c0,0,0.1,0,0.1,0.1C22.4,9.6,22.3,9.7,22.1,9.7C22.2,9.7,22.1,9.7,22.1,9.7z"/>
	<path class="st11" d="M22.2,10.5c0,0,0-0.1,0.2-0.1c0,0,0.1,0,0,0.1C22.5,10.5,22.4,10.6,22.2,10.5C22.3,10.6,22.2,10.6,22.2,10.5z
		"/>
	<path class="st11" d="M22.9,11.3c0,0,0-0.1,0.2-0.1c0,0,0.1,0,0,0.1C23.2,11.3,23.1,11.4,22.9,11.3C23,11.4,22.9,11.4,22.9,11.3z"
		/>
	<path class="st11" d="M22.6,12.4c0,0,0-0.1,0.2,0c0,0,0.1,0,0,0.1C22.7,12.4,22.7,12.5,22.6,12.4C22.6,12.4,22.6,12.4,22.6,12.4z"
		/>
	<path class="st11" d="M20.1,19.6c0,0,0,0.1,0.1,0.2c0,0,0.1,0.1,0.1-0.1C20.3,19.8,20.3,19.7,20.1,19.6
		C20.1,19.6,20.1,19.6,20.1,19.6z"/>
	<path class="st11" d="M20.6,18.7c0,0,0,0.1,0.1,0.2c0,0,0.1,0.1,0.1-0.1C20.8,18.8,20.8,18.7,20.6,18.7
		C20.7,18.6,20.6,18.6,20.6,18.7z"/>
	<path class="st11" d="M21.1,17.7c0,0,0,0.1,0.1,0.2c0,0,0.1,0.1,0.1-0.1C21.3,17.8,21.2,17.8,21.1,17.7
		C21.1,17.7,21.1,17.7,21.1,17.7z"/>
	<path class="st11" d="M21.9,16.9c0,0,0,0.1,0.2,0.2c0,0,0.1,0,0.1-0.1C22.1,16.9,22.1,16.9,21.9,16.9
		C21.9,16.9,21.9,16.9,21.9,16.9z"/>
	<path class="st11" d="M21.8,16.3c0,0,0,0.1,0.2,0.1c0,0,0.1,0,0-0.1C22.1,16.3,22,16.2,21.8,16.3C21.9,16.2,21.8,16.2,21.8,16.3z"
		/>
	<path class="st11" d="M22.6,15.5c0,0,0,0.1,0.2,0.1c0,0,0.1,0,0-0.1C22.8,15.5,22.7,15.4,22.6,15.5C22.6,15.4,22.5,15.4,22.6,15.5z
		"/>
	<path class="st11" d="M22.2,14.4c0,0,0,0.1,0.2,0c0,0,0.1,0,0-0.1C22.3,14.4,22.3,14.3,22.2,14.4C22.2,14.4,22.2,14.4,22.2,14.4z"
		/>
	<path class="st11" d="M22.9,13.3c0,0,0.1-0.1,0.2-0.1c0,0,0.1,0,0,0.1C23.2,13.4,23.1,13.4,22.9,13.3C23,13.4,22.9,13.4,22.9,13.3z
		"/>
	<path class="st11" d="M21,7.9c0,0,0-0.1,0.1-0.2c0,0,0.1-0.1,0.1,0.1C21.2,7.7,21.1,7.8,21,7.9C21,7.9,21,7.9,21,7.9z"/>
	<path class="st11" d="M22,8.3c0,0,0-0.1,0.1-0.2c0,0,0.1-0.1,0.1,0.1C22.2,8.1,22.1,8.2,22,8.3C22,8.3,22,8.3,22,8.3z"/>
	<path class="st11" d="M22.1,9.3c0,0,0-0.1,0.1-0.2c0,0,0.1-0.1,0.1,0.1C22.3,9.2,22.2,9.3,22.1,9.3C22.1,9.3,22.1,9.4,22.1,9.3z"/>
	<path class="st11" d="M22.7,9.9c0,0,0-0.1,0.2-0.2c0,0,0.1,0,0.1,0.1C23,9.9,22.9,10,22.7,9.9C22.8,10,22.7,10,22.7,9.9z"/>
	<path class="st11" d="M22.8,10.8c0,0,0-0.1,0.2-0.1c0,0,0.1,0,0,0.1C23.1,10.8,23,10.8,22.8,10.8C22.9,10.8,22.8,10.8,22.8,10.8z"
		/>
	<path class="st11" d="M23.5,11.6c0,0,0-0.1,0.2-0.1c0,0,0.1,0,0,0.1C23.8,11.6,23.7,11.6,23.5,11.6C23.6,11.6,23.5,11.6,23.5,11.6z
		"/>
	<path class="st11" d="M23.2,12.6c0,0,0-0.1,0.2,0c0,0,0.1,0,0,0.1C23.3,12.7,23.3,12.7,23.2,12.6C23.2,12.7,23.2,12.6,23.2,12.6z"
		/>
	<path class="st11" d="M20.6,19.4c0,0,0,0.1,0.1,0.2c0,0,0.1,0.1,0.1-0.1C20.8,19.6,20.8,19.5,20.6,19.4
		C20.6,19.4,20.6,19.4,20.6,19.4z"/>
	<path class="st11" d="M21.2,18.9c0,0,0,0.1,0.1,0.2c0,0,0.1,0.1,0.1-0.1C21.4,19,21.4,18.9,21.2,18.9
		C21.3,18.9,21.2,18.9,21.2,18.9z"/>
	<path class="st11" d="M21.7,18c0,0,0,0.1,0.1,0.2c0,0,0.1,0.1,0.1-0.1C21.9,18.1,21.9,18,21.7,18C21.7,18,21.7,17.9,21.7,18z"/>
	<path class="st11" d="M22.3,17.3c0,0,0,0.1,0.2,0.2c0,0,0.1,0,0.1-0.1C22.6,17.4,22.5,17.3,22.3,17.3
		C22.4,17.3,22.4,17.3,22.3,17.3z"/>
	<path class="st11" d="M22.4,16.5c0,0,0,0.1,0.2,0.1c0,0,0.1,0,0-0.1C22.7,16.5,22.6,16.5,22.4,16.5C22.5,16.5,22.4,16.5,22.4,16.5z
		"/>
	<path class="st11" d="M23.2,15.7c0,0,0,0.1,0.2,0.1c0,0,0.1,0,0-0.1C23.4,15.7,23.3,15.7,23.2,15.7C23.2,15.7,23.2,15.7,23.2,15.7z
		"/>
	<path class="st11" d="M23.1,15.1c0,0,0,0.1,0.2,0c0,0,0.1,0,0-0.1C23.2,15,23.1,15,23.1,15.1C23.1,15,23.1,15.1,23.1,15.1z"/>
	<path class="st11" d="M23.4,13.8c0,0,0.1-0.1,0.2-0.1c0,0,0.1,0,0,0.1C23.6,13.8,23.6,13.9,23.4,13.8
		C23.4,13.9,23.4,13.8,23.4,13.8z"/>
	<path class="st11" d="M20.8,8.9c0,0,0-0.1,0.1-0.2c0,0,0.1,0,0.1,0.1C21,8.8,21,8.8,20.8,8.9C20.9,8.9,20.8,8.9,20.8,8.9z"/>
	<path class="st11" d="M21.7,9.3c0,0,0-0.1,0.1-0.2c0,0,0.1,0,0.1,0.1C21.9,9.2,21.8,9.3,21.7,9.3C21.7,9.3,21.7,9.3,21.7,9.3z"/>
	<path class="st11" d="M21.7,10.3c0,0,0-0.1,0.1-0.2c0,0,0.1,0,0.1,0.1C21.9,10.2,21.8,10.3,21.7,10.3
		C21.7,10.3,21.7,10.3,21.7,10.3z"/>
	<path class="st11" d="M22.2,10.9c0,0,0-0.1,0.2-0.1c0,0,0.1,0,0,0.1C22.5,10.9,22.4,11,22.2,10.9C22.3,11,22.2,10.9,22.2,10.9z"/>
	<path class="st11" d="M22.3,11.7c0,0,0-0.1,0.2-0.1c0,0,0.1,0,0,0.1C22.5,11.7,22.4,11.7,22.3,11.7C22.3,11.7,22.3,11.7,22.3,11.7z
		"/>
	<path class="st11" d="M22.9,12.5c0,0,0-0.1,0.2-0.1c0,0,0.1,0,0,0.1C23.1,12.5,23,12.5,22.9,12.5C22.9,12.5,22.9,12.5,22.9,12.5z"
		/>
	<path class="st11" d="M22.4,13.4c0,0,0-0.1,0.1,0c0,0,0.1,0,0,0.1C22.6,13.5,22.5,13.5,22.4,13.4C22.5,13.4,22.4,13.4,22.4,13.4z"
		/>
	<path class="st11" d="M19.5,19.4c0,0,0,0.1,0.1,0.2c0,0,0.1,0.1,0.1-0.1C19.7,19.6,19.7,19.5,19.5,19.4
		C19.6,19.4,19.5,19.4,19.5,19.4z"/>
	<path class="st11" d="M20.1,19c0,0,0,0.1,0.1,0.2c0,0,0.1,0.1,0.1-0.1C20.3,19.1,20.3,19,20.1,19C20.2,19,20.2,19,20.1,19z"/>
	<path class="st11" d="M20.6,18.2c0,0,0,0.1,0.1,0.2c0,0,0.1,0.1,0.1-0.1C20.8,18.3,20.8,18.2,20.6,18.2
		C20.7,18.2,20.6,18.1,20.6,18.2z"/>
	<path class="st11" d="M21.1,18.2c0,0,0,0.1,0.1,0.2c0,0,0.1,0,0.1-0.1C21.3,18.3,21.3,18.2,21.1,18.2
		C21.2,18.2,21.1,18.2,21.1,18.2z"/>
	<path class="st11" d="M21.4,16.9c0,0,0,0.1,0.2,0.1c0,0,0.1,0,0-0.1C21.7,16.9,21.6,16.9,21.4,16.9C21.5,16.9,21.4,16.9,21.4,16.9z
		"/>
	<path class="st11" d="M22.3,14.9c0,0,0,0.1,0.2,0.1c0,0,0.1,0,0-0.1C22.5,15,22.4,14.9,22.3,14.9C22.3,14.9,22.3,14.9,22.3,14.9z"
		/>
	<path class="st11" d="M21.9,15.2c0,0,0,0.1,0.1,0c0,0,0.1,0,0-0.1C22.1,15.2,22,15.2,21.9,15.2C21.9,15.2,21.9,15.2,21.9,15.2z"/>
	<path class="st11" d="M22.6,14.1c0,0,0.1-0.1,0.2-0.1c0,0,0.1,0,0,0.1C22.8,14.1,22.8,14.2,22.6,14.1
		C22.7,14.1,22.6,14.1,22.6,14.1z"/>
</g>
</svg>
