<?xml version="1.0" encoding="utf-8"?>
<!-- Generator: Adobe Illustrator 23.0.2, SVG Export Plug-In . SVG Version: 6.00 Build 0)  -->
<svg version="1.1" id="Layer_1" xmlns="http://www.w3.org/2000/svg" xmlns:xlink="http://www.w3.org/1999/xlink" x="0px" y="0px"
	 viewBox="0 0 89.46 101.55" style="enable-background:new 0 0 89.46 101.55;" xml:space="preserve">
<style type="text/css">
	.st0{fill:#FFFFFF;}
</style>
<path class="st0" d="M85.33,16.29c-2.76-5.06-6.59-9.03-11.51-11.95C68.9,1.46,63.28,0,56.98,0H2.45C1.1,0,0,1.1,0,2.45v24.8
	c0,1.43,1.24,2.57,2.67,2.44l66.81-5.88l-0.68,3.25c-0.01,0.1-0.05,0.22-0.09,0.33c-2.02,5.72-5.35,9.65-8.55,12.28c0,0,0,0,0,0.01
	c-6.89,5.94-37.9,12.65-39.5,12.32l-2.31-11.73c-0.26-1.28-1.46-2.15-2.75-1.96l-13.49,1.9C0.91,40.39,0,41.44,0,42.65V99.1
	c0,1.35,1.1,2.45,2.45,2.45h27.72c1.35,0,2.45-1.1,2.45-2.45V71.24c0-1.35,1.1-2.45,2.45-2.45h21.9c6.3,0,11.92-1.46,16.84-4.34
	c4.92-2.91,8.75-6.91,11.51-12.04c2.75-5.12,4.13-10.82,4.13-17.12v-1.93C89.46,27.06,88.08,21.38,85.33,16.29z M47.55,56.63
	L47.55,56.63c-1.18,1.13-2.6,1.95-4.2,2.37c-1.6,0.41-3.23,0.38-4.82-0.03c-0.3-0.08-0.6-0.17-0.89-0.28l3.46-8.38l6.56,6.21
	C47.63,56.55,47.59,56.59,47.55,56.63z M59.84,48.95c-0.3,1.61-0.97,3.1-2.02,4.37c-1.06,1.27-2.4,2.2-3.93,2.79
	c-0.29,0.11-0.59,0.21-0.89,0.29l-2.09-8.82l8.95,1.21C59.86,48.84,59.85,48.89,59.84,48.95L59.84,48.95z M73.01,47.25L73.01,47.25
	c-1.39,0.87-2.94,1.38-4.59,1.46c-1.65,0.08-3.24-0.28-4.71-1.01c-0.28-0.14-0.55-0.29-0.81-0.46l5.09-7.5l5.16,7.42
	C73.1,47.19,73.06,47.22,73.01,47.25z"/>
</svg>
