<?xml version="1.0" encoding="utf-8"?>
<!-- Generator: Adobe Illustrator 23.0.3, SVG Export Plug-In . SVG Version: 6.00 Build 0)  -->
<svg version="1.1" id="Layer_1" xmlns="http://www.w3.org/2000/svg" xmlns:xlink="http://www.w3.org/1999/xlink" x="0px" y="0px"
	 viewBox="0 0 60.9 94.1" style="enable-background:new 0 0 60.9 94.1;" xml:space="preserve">
<style type="text/css">
	.st0{fill:none;stroke:#B8D133;stroke-width:1.1316;stroke-miterlimit:10;}
	.st1{fill:#FFFFFF;}
</style>
<rect x="-119.5" y="-30.2" class="st0" width="59.6" height="82.1"/>
<path class="st1" d="M58.1,11.1c-1.9-3.4-4.5-6.2-7.8-8.1c-3.3-2-7.2-3-11.5-3H1.7C0.7,0,0,0.7,0,1.7v16.9c0,1,0.8,1.7,1.8,1.7
	l45.5-4l-0.5,2.2c0,0.1,0,0.1-0.1,0.2c-1.4,3.9-3.6,6.6-5.8,8.4c0,0,0,0,0,0c-4.7,4-25.8,8.6-26.9,8.4l-1.6-8
	c-0.2-0.9-1-1.5-1.9-1.3l-9.2,1.3C0.6,27.5,0,28.2,0,29v38.4c0,0.9,0.7,1.7,1.7,1.7h18.9c0.9,0,1.7-0.7,1.7-1.7v-19
	c0-0.9,0.7-1.7,1.7-1.7h14.9c4.3,0,8.1-1,11.5-3c3.3-2,6-4.7,7.8-8.2c1.9-3.5,2.8-7.4,2.8-11.7v-1.3C60.9,18.4,60,14.6,58.1,11.1z
	 M32.4,38.6L32.4,38.6c-0.8,0.8-1.8,1.3-2.9,1.6c-1.1,0.3-2.2,0.3-3.3,0C26,40.1,25.8,40,25.6,40l2.4-5.7L32.4,38.6
	C32.4,38.5,32.4,38.5,32.4,38.6z M40.7,33.3c-0.2,1.1-0.7,2.1-1.4,3c-0.7,0.9-1.6,1.5-2.7,1.9c-0.2,0.1-0.4,0.1-0.6,0.2l-1.4-6
	l6.1,0.8C40.8,33.3,40.8,33.3,40.7,33.3L40.7,33.3z M49.7,32.2L49.7,32.2c-0.9,0.6-2,0.9-3.1,1c-1.1,0.1-2.2-0.2-3.2-0.7
	c-0.2-0.1-0.4-0.2-0.6-0.3l3.5-5.1L49.7,32.2C49.8,32.1,49.7,32.2,49.7,32.2z"/>
<g>
	<path class="st1" d="M8.3,80.1c0.7,0.3,1.2,0.8,1.6,1.3s0.6,1.2,0.6,2c0,0.8-0.2,1.4-0.6,2s-0.9,1-1.6,1.3
		c-0.7,0.3-1.5,0.5-2.4,0.5H3.7v2.9H1.3V79.6h4.5C6.8,79.6,7.6,79.8,8.3,80.1z M7.4,84.8C7.8,84.5,8,84,8,83.4c0-0.6-0.2-1-0.6-1.4
		c-0.4-0.3-0.9-0.5-1.7-0.5h-2v3.6h2C6.5,85.3,7,85.1,7.4,84.8z"/>
	<path class="st1" d="M15.4,82.2c0.5-0.2,1-0.3,1.6-0.3v2.2c-0.3,0-0.4,0-0.5,0c-0.7,0-1.2,0.2-1.6,0.6c-0.4,0.4-0.6,0.9-0.6,1.7
		v3.8H12v-8.1h2.2v1.1C14.5,82.7,14.9,82.4,15.4,82.2z"/>
	<path class="st1" d="M26.2,86.8h-6.1c0.1,0.5,0.4,0.9,0.8,1.2c0.4,0.3,0.9,0.4,1.5,0.4c0.4,0,0.8-0.1,1.1-0.2
		c0.3-0.1,0.6-0.3,0.9-0.6l1.2,1.4c-0.8,0.9-1.9,1.3-3.3,1.3c-0.9,0-1.7-0.2-2.4-0.5c-0.7-0.4-1.2-0.8-1.6-1.5s-0.6-1.3-0.6-2.1
		c0-0.8,0.2-1.5,0.6-2.1c0.4-0.6,0.9-1.1,1.5-1.5c0.7-0.4,1.4-0.5,2.2-0.5c0.8,0,1.5,0.2,2.1,0.5s1.1,0.8,1.5,1.5
		c0.4,0.6,0.5,1.4,0.5,2.2C26.2,86.2,26.2,86.4,26.2,86.8z M20.7,84.2c-0.4,0.3-0.6,0.7-0.7,1.2h4c-0.1-0.5-0.3-0.9-0.7-1.2
		c-0.4-0.3-0.8-0.5-1.3-0.5C21.5,83.7,21.1,83.9,20.7,84.2z"/>
	<path class="st1" d="M34.6,82.5c0.6,0.3,1.1,0.8,1.4,1.5c0.3,0.6,0.5,1.4,0.5,2.2c0,0.8-0.2,1.6-0.5,2.2c-0.4,0.6-0.8,1.1-1.4,1.5
		s-1.3,0.5-2,0.5c-1,0-1.8-0.3-2.4-1V93h-2.3v-11H30V83c0.6-0.7,1.4-1,2.5-1C33.3,81.9,34,82.1,34.6,82.5z M33.6,87.7
		c0.4-0.4,0.6-0.9,0.6-1.6c0-0.7-0.2-1.2-0.6-1.6s-0.9-0.6-1.5-0.6c-0.6,0-1.1,0.2-1.5,0.6c-0.4,0.4-0.6,0.9-0.6,1.6
		c0,0.7,0.2,1.2,0.6,1.6c0.4,0.4,0.9,0.6,1.5,0.6C32.7,88.3,33.2,88.1,33.6,87.7z"/>
	<path class="st1" d="M47.8,90.1l0-6.3L44.7,89h-1.1L40.6,84v6.2h-2.3V79.6h2l3.9,6.5l3.9-6.5h2l0,10.5H47.8z"/>
	<path class="st1" d="M60.3,86.8h-6.1c0.1,0.5,0.4,0.9,0.8,1.2s0.9,0.4,1.5,0.4c0.4,0,0.8-0.1,1.1-0.2c0.3-0.1,0.6-0.3,0.9-0.6
		l1.2,1.4c-0.8,0.9-1.9,1.3-3.3,1.3c-0.9,0-1.7-0.2-2.4-0.5c-0.7-0.4-1.2-0.8-1.6-1.5s-0.6-1.3-0.6-2.1c0-0.8,0.2-1.5,0.6-2.1
		c0.4-0.6,0.9-1.1,1.5-1.5c0.7-0.4,1.4-0.5,2.2-0.5c0.8,0,1.5,0.2,2.1,0.5c0.6,0.3,1.1,0.8,1.5,1.5c0.4,0.6,0.5,1.4,0.5,2.2
		C60.4,86.2,60.3,86.4,60.3,86.8z M54.8,84.2c-0.4,0.3-0.6,0.7-0.7,1.2h4c-0.1-0.5-0.3-0.9-0.7-1.2c-0.4-0.3-0.8-0.5-1.3-0.5
		C55.6,83.7,55.2,83.9,54.8,84.2z"/>
</g>
</svg>
