<?xml version="1.0" encoding="utf-8"?>
<!-- Generator: Adobe Illustrator 23.0.3, SVG Export Plug-In . SVG Version: 6.00 Build 0)  -->
<svg version="1.1" id="Layer_1" xmlns="http://www.w3.org/2000/svg" xmlns:xlink="http://www.w3.org/1999/xlink" x="0px" y="0px"
	 viewBox="0 0 35.7 35.7" style="enable-background:new 0 0 35.7 35.7;" xml:space="preserve">
<style type="text/css">
	.st0{fill:none;}
	.st1{fill:#3D3D3D;}
	.st2{fill:#E8B343;}
	.st3{fill:#F4C141;}
	.st4{fill:#F6DD67;}
	.st5{fill:#834E40;}
</style>
<rect x="0.5" y="0.5" class="st0" width="34.7" height="34.7"/>
<g>
	<g>
		<path class="st1" d="M13.2,29.7v3.5h-0.4v-2.8l-1.4,2.4h-0.2l-1.4-2.3v2.8H9.6v-3.5h0.3l1.5,2.6l1.5-2.6H13.2z"/>
		<path class="st1" d="M16,30.8c0.2,0.2,0.3,0.4,0.3,0.8v1.6h-0.3v-0.4c-0.1,0.1-0.2,0.2-0.4,0.3c-0.2,0.1-0.3,0.1-0.6,0.1
			c-0.3,0-0.5-0.1-0.7-0.2c-0.2-0.1-0.3-0.3-0.3-0.6c0-0.2,0.1-0.4,0.2-0.5c0.2-0.1,0.4-0.2,0.8-0.2h0.8v-0.2c0-0.2-0.1-0.4-0.2-0.5
			c-0.1-0.1-0.3-0.2-0.6-0.2c-0.2,0-0.3,0-0.5,0.1c-0.2,0.1-0.3,0.1-0.4,0.2l-0.2-0.3c0.1-0.1,0.3-0.2,0.5-0.3
			c0.2-0.1,0.4-0.1,0.6-0.1C15.5,30.5,15.8,30.6,16,30.8z M15.6,32.8c0.1-0.1,0.3-0.2,0.3-0.4V32h-0.8c-0.5,0-0.7,0.2-0.7,0.5
			c0,0.2,0.1,0.3,0.2,0.4c0.1,0.1,0.3,0.1,0.5,0.1C15.3,32.9,15.4,32.9,15.6,32.8z"/>
		<path class="st1" d="M19.4,30.8c0.2,0.2,0.3,0.5,0.3,0.8v1.5h-0.4v-1.5c0-0.3-0.1-0.5-0.2-0.6c-0.1-0.1-0.3-0.2-0.6-0.2
			c-0.3,0-0.5,0.1-0.7,0.3c-0.2,0.2-0.2,0.4-0.2,0.7v1.4h-0.4v-2.6h0.3V31c0.1-0.2,0.2-0.3,0.4-0.4c0.2-0.1,0.4-0.1,0.6-0.1
			C18.9,30.5,19.2,30.6,19.4,30.8z"/>
		<path class="st1" d="M23.1,30.6v2.3c0,0.4-0.1,0.8-0.3,1c-0.2,0.2-0.5,0.3-1,0.3c-0.2,0-0.5,0-0.7-0.1c-0.2-0.1-0.4-0.2-0.5-0.3
			l0.2-0.3c0.1,0.1,0.3,0.2,0.5,0.3s0.4,0.1,0.6,0.1c0.3,0,0.6-0.1,0.7-0.2c0.2-0.2,0.2-0.4,0.2-0.7v-0.3c-0.1,0.2-0.3,0.3-0.4,0.4
			c-0.2,0.1-0.4,0.1-0.6,0.1c-0.2,0-0.5-0.1-0.7-0.2c-0.2-0.1-0.4-0.3-0.5-0.5c-0.1-0.2-0.2-0.4-0.2-0.7s0.1-0.5,0.2-0.7
			s0.3-0.3,0.5-0.5c0.2-0.1,0.4-0.2,0.7-0.2c0.2,0,0.4,0,0.6,0.1c0.2,0.1,0.3,0.2,0.4,0.4v-0.5H23.1z M22.2,32.6
			c0.2-0.1,0.3-0.2,0.4-0.3c0.1-0.1,0.1-0.3,0.1-0.5s0-0.4-0.1-0.5c-0.1-0.1-0.2-0.3-0.4-0.3c-0.2-0.1-0.3-0.1-0.5-0.1
			c-0.2,0-0.4,0-0.5,0.1c-0.2,0.1-0.3,0.2-0.4,0.3s-0.1,0.3-0.1,0.5s0,0.4,0.1,0.5s0.2,0.3,0.4,0.3c0.2,0.1,0.3,0.1,0.5,0.1
			S22.1,32.7,22.2,32.6z"/>
		<path class="st1" d="M24.4,33c-0.2-0.1-0.4-0.3-0.5-0.5c-0.1-0.2-0.2-0.4-0.2-0.7c0-0.3,0.1-0.5,0.2-0.7c0.1-0.2,0.3-0.4,0.5-0.5
			c0.2-0.1,0.4-0.2,0.7-0.2c0.3,0,0.5,0.1,0.7,0.2c0.2,0.1,0.4,0.3,0.5,0.5s0.2,0.4,0.2,0.7c0,0.3-0.1,0.5-0.2,0.7S26,32.9,25.8,33
			s-0.4,0.2-0.7,0.2C24.9,33.2,24.6,33.2,24.4,33z M25.6,32.8c0.1-0.1,0.3-0.2,0.3-0.4c0.1-0.2,0.1-0.3,0.1-0.5c0-0.2,0-0.4-0.1-0.5
			c-0.1-0.2-0.2-0.3-0.3-0.4s-0.3-0.1-0.5-0.1c-0.2,0-0.4,0-0.5,0.1s-0.3,0.2-0.3,0.4c-0.1,0.2-0.1,0.3-0.1,0.5c0,0.2,0,0.4,0.1,0.5
			c0.1,0.2,0.2,0.3,0.3,0.4c0.1,0.1,0.3,0.1,0.5,0.1C25.3,32.9,25.5,32.9,25.6,32.8z"/>
	</g>
</g>
<g>
	<path class="st2" d="M17.6,3.3c-1.1-0.3-4.5-1.1-6.8,0.5c-0.1,0.1-0.2,0.1-0.3,0.2C9.7,4.4,5.1,7.5,7.4,14.3c0,0,0.2,0.8,1.2,2.7
		c0.1,0.1,0.1,0.2,0.2,0.3c0.5,0.8,2.9,4.5,3.6,5.8c0.2,0.3,0.4,0.6,0.7,0.9c1.1,1.2,3.9,3.9,5.6,3.6c0.1,0,0.2,0,0.3,0
		c1.2-0.1,6.6-0.7,8.9-6.3c0,0,4-10.2-2.8-15.3c-0.1-0.1-0.2-0.1-0.2-0.2c-0.4-0.4-2.5-2-6.4-2.4C18.1,3.4,17.8,3.4,17.6,3.3z"/>
	<path class="st3" d="M7.1,13.4c0.1,0.5,2,4.7,2.4,5.1c0.6,0.5,4.5,4.2,8.4,3.9c3.8-0.4,9.1-3.9,9.8-5c0.7-1.1,0.9-5.9,0.9-5.9
		S27.8,8.3,26.1,7c-1.7-1.4-4.2-3.1-7-3.6s0,0,0,0s-0.4,0.4-0.6,0.2c0,0-1.9-0.6-2.8-0.7c-0.9-0.1-3.2-0.4-5.2,1S5.6,8.4,7.1,13.4"
		/>
	<path class="st3" d="M10.6,3.9c0,0-5.2,2.9-3.5,9.5"/>
	<path class="st4" d="M18.6,9.9c0,0-1.8-7.8,4.6-4.1c0,0,3,2.8,0.9,5.5C24.2,11.3,19.8,12.8,18.6,9.9z"/>
	<path class="st4" d="M17,11.7c0,0,1.5-1,1.9,0c0,0,0.1,1.7-0.9,1.3C16.9,12.6,16.4,12.8,17,11.7z"/>
	<path class="st5" d="M17.9,3.4c-0.1-0.1,0.2-1-0.4-1.4l0.8-1h1c0,0-0.2,1.8-0.2,2.3S17.9,3.4,17.9,3.4z"/>
</g>
</svg>
