<?xml version="1.0" encoding="utf-8"?>
<!-- Generator: Adobe Illustrator 22.1.0, SVG Export Plug-In . SVG Version: 6.00 Build 0)  -->
<svg version="1.1" id="Layer_1" xmlns="http://www.w3.org/2000/svg" xmlns:xlink="http://www.w3.org/1999/xlink" x="0px" y="0px"
	 viewBox="0 0 41.1 48.9" style="enable-background:new 0 0 41.1 48.9;" xml:space="preserve">
<style type="text/css">
	.st0{fill:#E8B343;}
	.st1{fill:#F4C141;}
	.st2{fill:#F6DD67;}
</style>
<path class="st0" d="M20.1,7.3c-1.8-0.6-7-1.8-10.7,0.7C9.2,8,9.1,8.1,9,8.2c-1.2,0.7-8.5,5.6-4.9,16.3c0,0,0.3,1.3,1.9,4.2
	c0.1,0.2,0.2,0.3,0.3,0.5c0.9,1.3,4.6,7.1,5.6,9.1c0.3,0.5,0.7,1,1.1,1.5c1.8,1.9,6.2,6.2,8.8,5.7c0.2,0,0.3,0,0.5-0.1
	c1.8-0.1,10.3-1.1,13.9-10c0,0,6.2-16.1-4.4-24c-0.1-0.1-0.3-0.2-0.3-0.3c-0.7-0.6-4-3.2-10.1-3.8C20.9,7.4,20.5,7.4,20.1,7.3z"/>
<path class="st1" d="M3.7,23.2c0.1,0.9,3.1,7.4,3.8,8c0.9,0.9,7.2,6.7,13.2,6.1S35,31.1,36,29.3s1.5-9.3,1.5-9.3s-1.3-4.9-3.9-7
	c-2.7-2.2-6.6-5-11-5.6s0,0,0,0S22,8,21.7,7.8c0,0-3-1-4.4-1.2c-1.5-0.1-5-0.6-8.1,1.5S1.2,15.3,3.7,23.2"/>
<path class="st1" d="M9.1,8.1c0,0-8.1,4.6-5.5,15"/>
<path class="st2" d="M21.8,17.5c0,0-2.9-12.2,7.3-6.4c0,0,4.6,4.4,1.5,8.7C30.5,19.9,23.7,22.2,21.8,17.5z"/>
<path class="st2" d="M19.1,20.5c0,0,2.4-1.6,2.9,0c0,0,0.1,2.7-1.5,2.1C19.1,21.8,18.3,22.1,19.1,20.5z"/>
</svg>
