<?xml version="1.0" encoding="utf-8"?>
<!-- Generator: Adobe Illustrator 22.1.0, SVG Export Plug-In . SVG Version: 6.00 Build 0)  -->
<svg version="1.1" id="Layer_1" xmlns="http://www.w3.org/2000/svg" xmlns:xlink="http://www.w3.org/1999/xlink" x="0px" y="0px"
	 viewBox="0 0 41.1 48.9" style="enable-background:new 0 0 41.1 48.9;" xml:space="preserve">
<style type="text/css">
	.st0{fill:#009247;}
	.st1{fill:#3BB44A;}
	.st2{fill:#289E40;}
	.st3{fill:#38C545;}
	.st4{fill:#0DA33F;}
	.st5{fill:#04833E;}
	.st6{fill:#FCC008;}
	.st7{fill:#D47F00;}
</style>
<g>
	<g>
		<path class="st0" d="M21.5,15.8c0,0,3-10.2-1.9-15C19.7,0.8,14.6,16.6,21.5,15.8z"/>
		<path class="st1" d="M18.5,16.7c0,0,3.3-10.1,10-11.3C28.5,5.4,23.8,21.3,18.5,16.7z"/>
		<path class="st2" d="M21.9,16.7c0,0-3.3-10.1-10-11.3C11.9,5.4,16.6,21.3,21.9,16.7z"/>
		<path class="st3" d="M23,18.9c0,0-5.5-9.2-13.1-8.4C9.9,10.5,18.3,25.1,23,18.9z"/>
		<path class="st0" d="M18.5,19.5c0,0,4.7-9.6,11.5-9.9C30,9.5,22.8,24.7,18.5,19.5z"/>
		<path class="st4" d="M21.6,20.9c0,0-4.7-7.5-11.3-6.4C10.3,14.5,17.5,26.3,21.6,20.9z"/>
		<path class="st5" d="M19.4,21.7c0,0,5.1-8.2,11.8-7.3C31.2,14.5,23.4,27.3,19.4,21.7z"/>
		<path class="st0" d="M21.2,23.2c0,0-4-6.4-10.8-4.6C10.3,18.6,16.3,28.8,21.2,23.2z"/>
		<path class="st0" d="M19.9,23c0,0,3.7-5.9,9.6-4.4C29.5,18.6,24.1,27.9,19.9,23z"/>
	</g>
	<g>
		<path class="st6" d="M16.4,28.7l-3-2.6c-0.6,1.2-1,2.4-1.3,3.5l2.1,1.8L16.4,28.7z"/>
		<path class="st6" d="M19.7,24.8l-2.4-2.1c-2.3,0.9-3.6,2.6-3.6,2.6l0,0l3.2,2.8L19.7,24.8z"/>
		<path class="st6" d="M13.6,31.9l-1.8-1.5c-0.3,1.4-0.6,2.6-0.7,3.8l0.3,0.2L13.6,31.9z"/>
		<rect x="18" y="26.4" transform="matrix(0.6512 -0.7589 0.7589 0.6512 -14.2862 25.0637)" class="st6" width="4.3" height="3.3"/>
		<rect x="12.7" y="33.1" transform="matrix(0.6512 -0.7589 0.7589 0.6512 -21.34 23.0235)" class="st6" width="3.3" height="3.3"/>
		
			<rect x="15.3" y="29.9" transform="matrix(0.6512 -0.7589 0.7589 0.6512 -18.0075 23.9683)" class="st6" width="3.5" height="3.3"/>
		<path class="st6" d="M21.9,22.3c-1.4-0.3-2.7-0.2-3.8,0.2l2.1,1.8L21.9,22.3z"/>
		<path class="st6" d="M30.1,32.8c-0.4-1.7-0.9-3.3-1.3-4.5l-1.6,2L30.1,32.8z"/>
		<rect x="22" y="35.2" transform="matrix(0.6512 -0.7589 0.7589 0.6512 -20.0663 31.0875)" class="st6" width="3.5" height="4.3"/>
		<path class="st6" d="M23.2,26.9l2.4-2.9c-1.1-0.7-2.1-1.2-3-1.5l-1.9,2.2L23.2,26.9z"/>
		
			<rect x="19.4" y="38.4" transform="matrix(0.6512 -0.7589 0.7589 0.6512 -23.3989 30.1427)" class="st6" width="3.3" height="4.3"/>
		<path class="st6" d="M30.3,34.2l-2.7,3.2l2.9,2.4C30.7,38,30.7,36,30.3,34.2z"/>
		<path class="st6" d="M22.2,43.7l3.8,3.2c1.1-0.5,1.8-0.9,1.8-0.9c0.3-0.3,0.7-0.7,0.9-1.1l-4.3-3.7L22.2,43.7z"/>
		<path class="st6" d="M17.9,40.9l-3.8,4.3c1.1,1.2,2.4,2,3.7,2.4l3.3-3.9L17.9,40.9z"/>
		<path class="st6" d="M18.6,47.9c2.4,0.5,4.8-0.1,6.6-0.7l-3.4-2.9L18.6,47.9z"/>
		<path class="st6" d="M11.5,35.5L11,36.1c0,1.8,0.2,3.3,0.6,4.4l2.4-2.9L11.5,35.5z"/>
		
			<rect x="24.6" y="31.7" transform="matrix(0.6512 -0.7589 0.7589 0.6512 -16.3264 32.1175)" class="st6" width="4.3" height="4.3"/>
		<path class="st6" d="M24.9,40.6l4.2,3.6c0.7-1.1,1.1-2.3,1.3-3.5l-3.2-2.8L24.9,40.6z"/>
		<path class="st6" d="M26.5,29.7l2-2.3c-0.2-0.6-0.4-1.1-0.6-1.3c-0.1-0.2-0.2-0.4-0.4-0.7c-0.4-0.3-0.7-0.7-1.1-1l-2.4,2.9
			L26.5,29.7z"/>
		<rect x="21.1" y="29" transform="matrix(0.6512 -0.7589 0.7589 0.6512 -15.231 28.3963)" class="st6" width="4.3" height="3.5"/>
		
			<rect x="15.9" y="35.7" transform="matrix(0.6512 -0.7589 0.7589 0.6512 -22.2848 26.3561)" class="st6" width="3.3" height="3.5"/>
		
			<rect x="18.5" y="32.6" transform="matrix(0.6512 -0.7589 0.7589 0.6512 -18.9709 27.3664)" class="st6" width="3.5" height="3.5"/>
		<path class="st6" d="M14.6,38.1l-2.8,3.2c0.4,1.1,0.7,1.8,0.7,1.8c0.3,0.6,0.7,1.1,1.1,1.5l3.7-4.2L14.6,38.1z"/>
	</g>
	<path class="st7" d="M30.3,40.7c0.1-0.2,0.1-0.6,0.2-0.9l-2.9-2.4l2.7-3.2c0-0.1,0-0.2-0.1-0.2c0-0.2-0.1-0.5-0.2-0.7
		c0-0.2-0.1-0.3-0.1-0.5l-2.9-2.6l1.6-2c-0.1-0.2-0.2-0.6-0.3-0.8l-2,2.3l-2.7-2.3l2.4-2.9c-0.2-0.2-0.4-0.3-0.6-0.5l-2.4,2.9
		l-2.5-2.2l1.9-2.2c-0.2-0.1-0.6-0.2-0.8-0.2l-1.6,2l-2-1.8c-0.2,0.1-0.6,0.2-0.8,0.2l2.4,2.1L16.8,28l-3.2-2.8
		c-0.1,0.2-0.2,0.5-0.3,0.7l3.1,2.7l-2.3,2.7L12,29.6c-0.1,0.2-0.2,0.6-0.2,0.8l1.8,1.5l-2.2,2.5L11,34.2c0,0.2,0,0.5-0.1,0.7
		c0,0.1,0,0.2,0,0.2c0,0.3,0,0.7,0,0.9l0.6-0.6l2.5,2.2l-2.4,2.9c0.1,0.3,0.2,0.6,0.2,0.9l2.8-3.2l2.7,2.3l-3.7,4.2
		c0.2,0.2,0.3,0.4,0.5,0.6l3.8-4.3l3.3,2.9l-3.3,3.9c0.2,0.1,0.6,0.2,0.8,0.2l3.1-3.7l3.4,2.9c0.2-0.1,0.6-0.2,0.8-0.3l-3.8-3.2
		l2.2-2.5l4.2,3.6c0.2-0.2,0.2-0.4,0.4-0.7l-4.2-3.6l2.3-2.7L30.3,40.7z M23.3,27.9l2.7,2.3l-2.9,3.3l-2.7-2.3L23.3,27.9z
		 M22.7,34.1l-2.3,2.7l-2.7-2.3l2.3-2.7L22.7,34.1z M20.2,25.3l2.5,2.2l-2.9,3.3l-2.5-2.2L20.2,25.3z M17,29.2l2.5,2.2L17.2,34
		l-2.5-2.2L17,29.2z M14.5,37.1L12,34.9l2.2-2.5l2.5,2.2L14.5,37.1z M17.8,39.8l-2.7-2.3l2.2-2.5l2.7,2.3L17.8,39.8z M21.6,43.2
		l-3.3-2.9l2.2-2.5l3.3,2.9L21.6,43.2z M24.3,40.1L21,37.2l2.3-2.7l3.3,2.9L24.3,40.1z M23.7,34l2.9-3.3l3.3,2.9L27,36.8L23.7,34z"
		/>
</g>
</svg>
