<?xml version="1.0" encoding="utf-8"?>
<!-- Generator: Adobe Illustrator 23.0.3, SVG Export Plug-In . SVG Version: 6.00 Build 0)  -->
<svg version="1.1" id="Layer_1" xmlns="http://www.w3.org/2000/svg" xmlns:xlink="http://www.w3.org/1999/xlink" x="0px" y="0px"
	 viewBox="0 0 35.7 35.7" style="enable-background:new 0 0 35.7 35.7;" xml:space="preserve">
<style type="text/css">
	.st0{fill:none;}
	.st1{fill:#3D3D3D;}
	.st2{fill:#009247;}
	.st3{fill:#3BB44A;}
	.st4{fill:#289E40;}
	.st5{fill:#38C545;}
	.st6{fill:#0DA33F;}
	.st7{fill:#04833E;}
	.st8{fill:#FCC008;}
	.st9{fill:#D47F00;}
</style>
<rect x="0.5" y="0.5" class="st0" width="34.7" height="34.7"/>
<g>
	<g>
		<path class="st1" d="M8.2,30c0.3,0.2,0.4,0.5,0.4,0.9s-0.1,0.7-0.4,0.9c-0.3,0.2-0.6,0.3-1.1,0.3H6.2v1.1H5.8v-3.5h1.3
			C7.5,29.7,7.9,29.8,8.2,30z M7.9,31.5c0.2-0.2,0.3-0.4,0.3-0.6c0-0.3-0.1-0.5-0.3-0.7C7.7,30.1,7.4,30,7.1,30H6.2v1.8h0.9
			C7.4,31.8,7.7,31.7,7.9,31.5z"/>
		<path class="st1" d="M9.2,29.9c-0.1,0-0.1-0.1-0.1-0.2c0-0.1,0-0.1,0.1-0.2c0,0,0.1-0.1,0.2-0.1s0.1,0,0.2,0.1
			c0.1,0,0.1,0.1,0.1,0.2c0,0.1,0,0.1-0.1,0.2c0,0-0.1,0.1-0.2,0.1S9.2,30,9.2,29.9z M9.2,30.6h0.4v2.6H9.2V30.6z"/>
		<path class="st1" d="M12.7,30.8c0.2,0.2,0.3,0.5,0.3,0.8v1.5h-0.4v-1.5c0-0.3-0.1-0.5-0.2-0.6c-0.1-0.1-0.3-0.2-0.6-0.2
			c-0.3,0-0.5,0.1-0.7,0.3c-0.2,0.2-0.2,0.4-0.2,0.7v1.4h-0.4v-2.6h0.3V31c0.1-0.2,0.2-0.3,0.4-0.4c0.2-0.1,0.4-0.1,0.6-0.1
			C12.2,30.5,12.5,30.6,12.7,30.8z"/>
		<path class="st1" d="M16.2,32H14c0,0.3,0.1,0.5,0.3,0.7c0.2,0.2,0.4,0.3,0.7,0.3c0.2,0,0.3,0,0.5-0.1c0.1-0.1,0.3-0.1,0.4-0.3
			l0.2,0.2c-0.1,0.1-0.3,0.2-0.4,0.3s-0.4,0.1-0.6,0.1c-0.3,0-0.5-0.1-0.7-0.2s-0.4-0.3-0.5-0.5c-0.1-0.2-0.2-0.4-0.2-0.7
			c0-0.3,0.1-0.5,0.2-0.7c0.1-0.2,0.3-0.4,0.5-0.5c0.2-0.1,0.4-0.2,0.7-0.2c0.2,0,0.5,0.1,0.7,0.2c0.2,0.1,0.3,0.3,0.5,0.5
			c0.1,0.2,0.2,0.4,0.2,0.7L16.2,32z M14.3,31.1c-0.2,0.2-0.3,0.4-0.3,0.6h1.9c0-0.3-0.1-0.5-0.3-0.6c-0.2-0.2-0.4-0.2-0.6-0.2
			C14.7,30.8,14.5,30.9,14.3,31.1z"/>
		<path class="st1" d="M18.6,30.8c0.2,0.2,0.3,0.4,0.3,0.8v1.6h-0.3v-0.4c-0.1,0.1-0.2,0.2-0.4,0.3c-0.2,0.1-0.3,0.1-0.6,0.1
			c-0.3,0-0.5-0.1-0.7-0.2c-0.2-0.1-0.3-0.3-0.3-0.6c0-0.2,0.1-0.4,0.2-0.5c0.2-0.1,0.4-0.2,0.8-0.2h0.8v-0.2c0-0.2-0.1-0.4-0.2-0.5
			c-0.1-0.1-0.3-0.2-0.6-0.2c-0.2,0-0.3,0-0.5,0.1c-0.2,0.1-0.3,0.1-0.4,0.2l-0.2-0.3c0.1-0.1,0.3-0.2,0.5-0.3s0.4-0.1,0.6-0.1
			C18.1,30.5,18.4,30.6,18.6,30.8z M18.2,32.8c0.1-0.1,0.3-0.2,0.3-0.4V32h-0.8c-0.5,0-0.7,0.2-0.7,0.5c0,0.2,0.1,0.3,0.2,0.4
			c0.1,0.1,0.3,0.1,0.5,0.1C17.9,32.9,18,32.9,18.2,32.8z"/>
		<path class="st1" d="M21.9,30.7c0.2,0.1,0.4,0.3,0.5,0.5s0.2,0.4,0.2,0.7c0,0.3-0.1,0.5-0.2,0.7s-0.3,0.4-0.5,0.5
			s-0.4,0.2-0.7,0.2c-0.2,0-0.4,0-0.6-0.1s-0.3-0.2-0.4-0.4v1.5h-0.4v-3.6h0.3v0.5c0.1-0.2,0.2-0.3,0.4-0.4c0.2-0.1,0.4-0.1,0.6-0.1
			C21.4,30.5,21.7,30.6,21.9,30.7z M21.7,32.8c0.1-0.1,0.3-0.2,0.4-0.4c0.1-0.2,0.1-0.3,0.1-0.5c0-0.2,0-0.4-0.1-0.5
			s-0.2-0.3-0.4-0.4c-0.2-0.1-0.3-0.1-0.5-0.1c-0.2,0-0.4,0-0.5,0.1s-0.3,0.2-0.3,0.4s-0.1,0.3-0.1,0.5c0,0.2,0,0.4,0.1,0.5
			c0.1,0.2,0.2,0.3,0.3,0.4c0.1,0.1,0.3,0.1,0.5,0.1C21.3,32.9,21.5,32.9,21.7,32.8z"/>
		<path class="st1" d="M25.2,30.7c0.2,0.1,0.4,0.3,0.5,0.5s0.2,0.4,0.2,0.7c0,0.3-0.1,0.5-0.2,0.7s-0.3,0.4-0.5,0.5
			s-0.4,0.2-0.7,0.2c-0.2,0-0.4,0-0.6-0.1s-0.3-0.2-0.4-0.4v1.5h-0.4v-3.6h0.3v0.5c0.1-0.2,0.2-0.3,0.4-0.4c0.2-0.1,0.4-0.1,0.6-0.1
			C24.8,30.5,25,30.6,25.2,30.7z M25,32.8c0.1-0.1,0.3-0.2,0.4-0.4c0.1-0.2,0.1-0.3,0.1-0.5c0-0.2,0-0.4-0.1-0.5S25.2,31.1,25,31
			c-0.2-0.1-0.3-0.1-0.5-0.1c-0.2,0-0.4,0-0.5,0.1s-0.3,0.2-0.3,0.4s-0.1,0.3-0.1,0.5c0,0.2,0,0.4,0.1,0.5c0.1,0.2,0.2,0.3,0.3,0.4
			c0.1,0.1,0.3,0.1,0.5,0.1C24.7,32.9,24.9,32.9,25,32.8z"/>
		<path class="st1" d="M26.6,29.5H27v3.7h-0.4V29.5z"/>
		<path class="st1" d="M30.2,32H28c0,0.3,0.1,0.5,0.3,0.7c0.2,0.2,0.4,0.3,0.7,0.3c0.2,0,0.3,0,0.5-0.1c0.1-0.1,0.3-0.1,0.4-0.3
			l0.2,0.2c-0.1,0.1-0.3,0.2-0.4,0.3s-0.4,0.1-0.6,0.1c-0.3,0-0.5-0.1-0.7-0.2s-0.4-0.3-0.5-0.5c-0.1-0.2-0.2-0.4-0.2-0.7
			c0-0.3,0.1-0.5,0.2-0.7s0.3-0.4,0.5-0.5c0.2-0.1,0.4-0.2,0.7-0.2s0.5,0.1,0.7,0.2c0.2,0.1,0.3,0.3,0.5,0.5
			c0.1,0.2,0.2,0.4,0.2,0.7L30.2,32z M28.3,31.1c-0.2,0.2-0.3,0.4-0.3,0.6h1.9c0-0.3-0.1-0.5-0.3-0.6c-0.2-0.2-0.4-0.2-0.6-0.2
			C28.7,30.8,28.5,30.9,28.3,31.1z"/>
	</g>
</g>
<g>
	<text transform="matrix(1 0 0 1 -27.8674 50.659)" class="st1" style="font-family:'Montserrat-Regular'; font-size:6.3806px;">Pineapple</text>
</g>
<g>
	<g>
		<path class="st2" d="M18.4,9.5c0,0,1.8-5.7-1.1-8.4C17.3,1,14.3,9.9,18.4,9.5z"/>
		<path class="st3" d="M16.6,10c0,0,1.9-5.7,6-6.4C22.6,3.6,19.8,12.5,16.6,10z"/>
		<path class="st4" d="M18.7,10c0,0-1.9-5.7-6-6.4C12.7,3.6,15.5,12.5,18.7,10z"/>
		<path class="st5" d="M19.3,11.2c0,0-3.3-5.2-7.8-4.7C11.5,6.5,16.5,14.7,19.3,11.2z"/>
		<path class="st2" d="M16.6,11.5c0,0,2.8-5.4,6.8-5.6C23.5,5.9,19.2,14.5,16.6,11.5z"/>
		<path class="st6" d="M18.5,12.3c0,0-2.8-4.2-6.7-3.6C11.8,8.7,16,15.4,18.5,12.3z"/>
		<path class="st7" d="M17.2,12.8c0,0,3.1-4.6,7-4.1C24.2,8.7,19.6,15.9,17.2,12.8z"/>
		<path class="st2" d="M18.2,13.7c0,0-2.4-3.6-6.5-2.6C11.8,11,15.3,16.8,18.2,13.7z"/>
		<path class="st2" d="M17.5,13.5c0,0,2.2-3.3,5.7-2.5C23.2,11,19.9,16.2,17.5,13.5z"/>
	</g>
	<g>
		<path class="st8" d="M15.4,16.7l-1.8-1.5c-0.3,0.7-0.6,1.3-0.8,2l1.2,1L15.4,16.7z"/>
		<path class="st8" d="M17.4,14.6l-1.5-1.2c-1.3,0.5-2.1,1.5-2.1,1.5c0,0,0,0,0,0l1.9,1.5L17.4,14.6z"/>
		<path class="st8" d="M13.7,18.6l-1.1-0.9c-0.2,0.8-0.3,1.5-0.4,2.1l0.2,0.2L13.7,18.6z"/>
		<polygon class="st8" points="16,16.7 17.5,17.9 19.2,16 17.7,14.8 		"/>
		<polygon class="st8" points="12.8,20.2 14.3,21.5 15.6,20 14.1,18.8 		"/>
		<polygon class="st8" points="14.4,18.5 15.9,19.7 17.2,18.2 15.7,17 		"/>
		<path class="st8" d="M18.6,13.1C17.8,13,17,13,16.4,13.2l1.3,1L18.6,13.1z"/>
		<path class="st8" d="M23.5,19c-0.2-1-0.5-1.9-0.8-2.5l-1,1.1L23.5,19z"/>
		<polygon class="st8" points="21.4,21.6 19.5,20.1 18.1,21.6 20.1,23.1 		"/>
		<path class="st8" d="M19.5,15.7l1.4-1.6c-0.6-0.4-1.2-0.7-1.8-0.9L18,14.5L19.5,15.7z"/>
		<polygon class="st8" points="19.8,23.5 17.8,21.9 16.5,23.3 18.5,24.9 		"/>
		<path class="st8" d="M23.7,19.8l-1.6,1.8l1.7,1.4C23.9,21.9,23.8,20.8,23.7,19.8z"/>
		<path class="st8" d="M18.8,25.2l2.2,1.8c0.7-0.3,1.1-0.5,1.1-0.5c0.2-0.2,0.4-0.4,0.5-0.6l-2.6-2.1L18.8,25.2z"/>
		<path class="st8" d="M16.3,23.6L14,26.1c0.7,0.7,1.4,1.1,2.2,1.3l2-2.2L16.3,23.6z"/>
		<path class="st8" d="M16.7,27.5c1.4,0.3,2.9,0,3.9-0.4l-2-1.7L16.7,27.5z"/>
		<path class="st8" d="M12.5,20.6l-0.3,0.3c0,1,0.2,1.9,0.3,2.5l1.4-1.6L12.5,20.6z"/>
		<polygon class="st8" points="23.4,19.5 21.4,17.9 19.8,19.7 21.7,21.3 		"/>
		<path class="st8" d="M20.4,23.4l2.5,2c0.4-0.6,0.6-1.3,0.8-2l-1.9-1.6L20.4,23.4z"/>
		<path class="st8" d="M21.4,17.3l1.1-1.3c-0.1-0.3-0.3-0.6-0.3-0.7c-0.1-0.1-0.2-0.2-0.3-0.3c-0.2-0.2-0.5-0.4-0.7-0.6L19.8,16
			L21.4,17.3z"/>
		<polygon class="st8" points="21.1,17.6 19.5,16.3 17.9,18.2 19.4,19.5 		"/>
		<polygon class="st8" points="17.5,21.6 15.9,20.3 14.6,21.7 16.2,23 		"/>
		<polygon class="st8" points="16.2,20 17.8,21.3 19.1,19.8 17.6,18.5 		"/>
		<path class="st8" d="M14.3,22.1l-1.6,1.8c0.2,0.7,0.4,1,0.4,1c0.2,0.3,0.4,0.6,0.6,0.9l2.2-2.4L14.3,22.1z"/>
	</g>
	<path class="st9" d="M23.7,23.5c0-0.2,0.1-0.3,0.1-0.5L22,21.6l1.6-1.8c0-0.1,0-0.1,0-0.2c0-0.1,0-0.3-0.1-0.4c0-0.1,0-0.2-0.1-0.3
		l-1.8-1.4l1-1.1c-0.1-0.2-0.1-0.3-0.2-0.4l-1.1,1.3L19.8,16l1.5-1.6c-0.1-0.1-0.2-0.2-0.4-0.3l-1.4,1.6L18,14.5l1.1-1.2
		c-0.2,0-0.3-0.1-0.5-0.1l-1,1.1l-1.3-1c-0.2,0-0.3,0.1-0.5,0.2l1.5,1.2l-1.7,1.9l-1.9-1.5c-0.1,0.1-0.1,0.3-0.2,0.4l1.8,1.5
		L14,18.2l-1.2-1c0,0.2-0.1,0.3-0.1,0.5l1.1,0.9L12.4,20l-0.2-0.2c0,0.1,0,0.3,0,0.4c0,0,0,0.1,0,0.1c0,0.2,0,0.4,0,0.5l0.3-0.3
		l1.5,1.2l-1.4,1.6c0,0.2,0.1,0.3,0.1,0.5l1.6-1.8l1.6,1.3l-2.2,2.4c0.1,0.1,0.2,0.2,0.3,0.3l2.2-2.5l2,1.6l-2,2.2
		c0.2,0,0.3,0.1,0.5,0.1l1.9-2.1l2,1.7c0.2-0.1,0.3-0.1,0.5-0.2l-2.2-1.8l1.3-1.4l2.6,2.1c0.1-0.1,0.2-0.2,0.2-0.4l-2.5-2l1.4-1.5
		L23.7,23.5z M19.5,16.3l1.6,1.3l-1.7,1.9l-1.6-1.3L19.5,16.3z M19.1,19.8l-1.4,1.5L16.2,20l1.4-1.5L19.1,19.8z M17.7,14.8l1.5,1.2
		l-1.7,1.9L16,16.7L17.7,14.8z M15.7,17l1.5,1.2l-1.4,1.5l-1.5-1.2L15.7,17z M14.3,21.4l-1.5-1.2l1.3-1.4l1.5,1.2L14.3,21.4z
		 M16.2,23l-1.6-1.3l1.3-1.4l1.6,1.3L16.2,23z M18.5,24.9l-2-1.6l1.3-1.4l2,1.6L18.5,24.9z M20.1,23.1l-2-1.6l1.4-1.5l2,1.6
		L20.1,23.1z M19.8,19.7l1.7-1.9l2,1.6l-1.7,1.9L19.8,19.7z"/>
</g>
</svg>
