<?xml version="1.0" encoding="utf-8"?>
<!-- Generator: Adobe Illustrator 23.0.3, SVG Export Plug-In . SVG Version: 6.00 Build 0)  -->
<svg version="1.1" id="Layer_1" xmlns="http://www.w3.org/2000/svg" xmlns:xlink="http://www.w3.org/1999/xlink" x="0px" y="0px"
	 viewBox="0 0 35.7 35.7" style="enable-background:new 0 0 35.7 35.7;" xml:space="preserve">
<style type="text/css">
	.st0{fill:none;}
	.st1{fill:#3D3D3D;}
	.st2{fill:#CC3D56;}
	.st3{fill:#EE4258;}
	.st4{fill:#B73B56;}
	.st5{fill:#B11E4F;}
	.st6{fill:#F6D3B4;}
	.st7{fill:#F1C76C;}
	.st8{fill:#DE1A58;}
	.st9{fill:#F2DFD2;}
</style>
<rect x="0.5" y="0.5" class="st0" width="34.7" height="34.7"/>
<g>
	<g>
		<path class="st1" d="M3.5,30c0.3,0.2,0.4,0.5,0.4,0.9s-0.1,0.7-0.4,0.9c-0.3,0.2-0.6,0.3-1.1,0.3H1.5v1.1H1.1v-3.5h1.3
			C2.9,29.7,3.2,29.8,3.5,30z M3.2,31.5c0.2-0.2,0.3-0.4,0.3-0.6c0-0.3-0.1-0.5-0.3-0.7C3,30.1,2.8,30,2.4,30H1.5v1.8h0.9
			C2.8,31.8,3,31.7,3.2,31.5z"/>
		<path class="st1" d="M4.9,33c-0.2-0.1-0.4-0.3-0.5-0.5s-0.2-0.4-0.2-0.7c0-0.3,0.1-0.5,0.2-0.7s0.3-0.4,0.5-0.5
			c0.2-0.1,0.4-0.2,0.7-0.2s0.5,0.1,0.7,0.2c0.2,0.1,0.4,0.3,0.5,0.5C6.9,31.4,7,31.6,7,31.9c0,0.3-0.1,0.5-0.2,0.7
			c-0.1,0.2-0.3,0.4-0.5,0.5c-0.2,0.1-0.4,0.2-0.7,0.2S5.2,33.2,4.9,33z M6.1,32.8c0.1-0.1,0.3-0.2,0.3-0.4c0.1-0.2,0.1-0.3,0.1-0.5
			c0-0.2,0-0.4-0.1-0.5c-0.1-0.2-0.2-0.3-0.3-0.4c-0.1-0.1-0.3-0.1-0.5-0.1c-0.2,0-0.4,0-0.5,0.1s-0.3,0.2-0.4,0.4
			c-0.1,0.2-0.1,0.3-0.1,0.5c0,0.2,0,0.4,0.1,0.5c0.1,0.2,0.2,0.3,0.4,0.4c0.1,0.1,0.3,0.1,0.5,0.1C5.8,32.9,6,32.9,6.1,32.8z"/>
		<path class="st1" d="M11.8,30.8c0.2,0.2,0.3,0.5,0.3,0.8v1.5h-0.4v-1.5c0-0.3-0.1-0.5-0.2-0.6c-0.1-0.1-0.3-0.2-0.6-0.2
			c-0.3,0-0.5,0.1-0.6,0.3c-0.2,0.2-0.2,0.4-0.2,0.7v1.4H9.7v-1.5c0-0.3-0.1-0.5-0.2-0.6c-0.1-0.1-0.3-0.2-0.6-0.2
			c-0.3,0-0.5,0.1-0.6,0.3C8.1,31.3,8,31.5,8,31.8v1.4H7.7v-2.6H8V31c0.1-0.2,0.2-0.3,0.4-0.4c0.2-0.1,0.4-0.1,0.6-0.1
			c0.2,0,0.4,0,0.6,0.1c0.2,0.1,0.3,0.2,0.4,0.4c0.1-0.2,0.2-0.3,0.4-0.4c0.2-0.1,0.4-0.1,0.6-0.1C11.3,30.5,11.6,30.6,11.8,30.8z"
			/>
		<path class="st1" d="M15.3,32h-2.2c0,0.3,0.1,0.5,0.3,0.7c0.2,0.2,0.4,0.3,0.7,0.3c0.2,0,0.3,0,0.5-0.1c0.1-0.1,0.3-0.1,0.4-0.3
			l0.2,0.2c-0.1,0.1-0.3,0.2-0.4,0.3s-0.4,0.1-0.6,0.1c-0.3,0-0.5-0.1-0.7-0.2s-0.4-0.3-0.5-0.5c-0.1-0.2-0.2-0.4-0.2-0.7
			c0-0.3,0.1-0.5,0.2-0.7s0.3-0.4,0.5-0.5c0.2-0.1,0.4-0.2,0.7-0.2s0.5,0.1,0.7,0.2c0.2,0.1,0.3,0.3,0.5,0.5
			c0.1,0.2,0.2,0.4,0.2,0.7L15.3,32z M13.4,31.1c-0.2,0.2-0.3,0.4-0.3,0.6H15c0-0.3-0.1-0.5-0.3-0.6c-0.2-0.2-0.4-0.2-0.6-0.2
			C13.8,30.8,13.6,30.9,13.4,31.1z"/>
		<path class="st1" d="M18.5,30.6v2.3c0,0.4-0.1,0.8-0.3,1c-0.2,0.2-0.5,0.3-1,0.3c-0.2,0-0.5,0-0.7-0.1c-0.2-0.1-0.4-0.2-0.5-0.3
			l0.2-0.3c0.1,0.1,0.3,0.2,0.5,0.3s0.4,0.1,0.6,0.1c0.3,0,0.6-0.1,0.7-0.2c0.2-0.2,0.2-0.4,0.2-0.7v-0.3c-0.1,0.2-0.3,0.3-0.4,0.4
			c-0.2,0.1-0.4,0.1-0.6,0.1c-0.2,0-0.5-0.1-0.7-0.2c-0.2-0.1-0.4-0.3-0.5-0.5c-0.1-0.2-0.2-0.4-0.2-0.7s0.1-0.5,0.2-0.7
			c0.1-0.2,0.3-0.3,0.5-0.5c0.2-0.1,0.4-0.2,0.7-0.2c0.2,0,0.4,0,0.6,0.1c0.2,0.1,0.3,0.2,0.4,0.4v-0.5H18.5z M17.6,32.6
			c0.2-0.1,0.3-0.2,0.4-0.3c0.1-0.1,0.1-0.3,0.1-0.5s0-0.4-0.1-0.5c-0.1-0.1-0.2-0.3-0.4-0.3c-0.2-0.1-0.3-0.1-0.5-0.1
			c-0.2,0-0.4,0-0.5,0.1c-0.2,0.1-0.3,0.2-0.4,0.3s-0.1,0.3-0.1,0.5s0,0.4,0.1,0.5s0.2,0.3,0.4,0.3c0.2,0.1,0.3,0.1,0.5,0.1
			S17.5,32.7,17.6,32.6z"/>
		<path class="st1" d="M20.2,30.7c0.2-0.1,0.4-0.1,0.6-0.1v0.3l-0.1,0c-0.3,0-0.5,0.1-0.7,0.3s-0.2,0.4-0.2,0.7v1.3h-0.4v-2.6h0.3
			v0.5C19.9,30.9,20,30.8,20.2,30.7z"/>
		<path class="st1" d="M23.1,30.8c0.2,0.2,0.3,0.4,0.3,0.8v1.6h-0.3v-0.4c-0.1,0.1-0.2,0.2-0.4,0.3c-0.2,0.1-0.3,0.1-0.6,0.1
			c-0.3,0-0.5-0.1-0.7-0.2c-0.2-0.1-0.3-0.3-0.3-0.6c0-0.2,0.1-0.4,0.2-0.5c0.2-0.1,0.4-0.2,0.8-0.2H23v-0.2c0-0.2-0.1-0.4-0.2-0.5
			c-0.1-0.1-0.3-0.2-0.6-0.2c-0.2,0-0.3,0-0.5,0.1c-0.2,0.1-0.3,0.1-0.4,0.2l-0.2-0.3c0.1-0.1,0.3-0.2,0.5-0.3s0.4-0.1,0.6-0.1
			C22.7,30.5,22.9,30.6,23.1,30.8z M22.7,32.8c0.1-0.1,0.3-0.2,0.3-0.4V32h-0.8c-0.5,0-0.7,0.2-0.7,0.5c0,0.2,0.1,0.3,0.2,0.4
			c0.1,0.1,0.3,0.1,0.5,0.1C22.4,32.9,22.6,32.9,22.7,32.8z"/>
		<path class="st1" d="M26.5,30.8c0.2,0.2,0.3,0.5,0.3,0.8v1.5h-0.4v-1.5c0-0.3-0.1-0.5-0.2-0.6c-0.1-0.1-0.3-0.2-0.6-0.2
			c-0.3,0-0.5,0.1-0.7,0.3c-0.2,0.2-0.2,0.4-0.2,0.7v1.4h-0.4v-2.6h0.3V31c0.1-0.2,0.2-0.3,0.4-0.4c0.2-0.1,0.4-0.1,0.6-0.1
			C26,30.5,26.3,30.6,26.5,30.8z"/>
		<path class="st1" d="M29.5,30.8c0.2,0.2,0.3,0.4,0.3,0.8v1.6h-0.3v-0.4c-0.1,0.1-0.2,0.2-0.4,0.3c-0.2,0.1-0.3,0.1-0.6,0.1
			c-0.3,0-0.5-0.1-0.7-0.2c-0.2-0.1-0.3-0.3-0.3-0.6c0-0.2,0.1-0.4,0.2-0.5c0.2-0.1,0.4-0.2,0.8-0.2h0.8v-0.2c0-0.2-0.1-0.4-0.2-0.5
			c-0.1-0.1-0.3-0.2-0.6-0.2c-0.2,0-0.3,0-0.5,0.1c-0.2,0.1-0.3,0.1-0.4,0.2l-0.2-0.3c0.1-0.1,0.3-0.2,0.5-0.3s0.4-0.1,0.6-0.1
			C29,30.5,29.3,30.6,29.5,30.8z M29.1,32.8c0.1-0.1,0.3-0.2,0.3-0.4V32h-0.8c-0.5,0-0.7,0.2-0.7,0.5c0,0.2,0.1,0.3,0.2,0.4
			c0.1,0.1,0.3,0.1,0.5,0.1C28.7,32.9,28.9,32.9,29.1,32.8z"/>
		<path class="st1" d="M32.1,33c-0.1,0.1-0.1,0.1-0.2,0.1c-0.1,0-0.2,0-0.3,0c-0.2,0-0.4-0.1-0.6-0.2c-0.1-0.1-0.2-0.3-0.2-0.6v-1.6
			h-0.5v-0.3h0.5V30h0.4v0.6h0.8v0.3h-0.8v1.6c0,0.2,0,0.3,0.1,0.4s0.2,0.1,0.3,0.1c0.1,0,0.1,0,0.2,0c0.1,0,0.1-0.1,0.2-0.1
			L32.1,33z"/>
		<path class="st1" d="M34.9,32h-2.2c0,0.3,0.1,0.5,0.3,0.7c0.2,0.2,0.4,0.3,0.7,0.3c0.2,0,0.3,0,0.5-0.1c0.1-0.1,0.3-0.1,0.4-0.3
			l0.2,0.2c-0.1,0.1-0.3,0.2-0.4,0.3s-0.4,0.1-0.6,0.1c-0.3,0-0.5-0.1-0.7-0.2s-0.4-0.3-0.5-0.5c-0.1-0.2-0.2-0.4-0.2-0.7
			c0-0.3,0.1-0.5,0.2-0.7s0.3-0.4,0.5-0.5c0.2-0.1,0.4-0.2,0.7-0.2s0.5,0.1,0.7,0.2c0.2,0.1,0.3,0.3,0.5,0.5
			c0.1,0.2,0.2,0.4,0.2,0.7L34.9,32z M33,31.1c-0.2,0.2-0.3,0.4-0.3,0.6h1.9c0-0.3-0.1-0.5-0.3-0.6c-0.2-0.2-0.4-0.2-0.6-0.2
			C33.4,30.8,33.2,30.9,33,31.1z"/>
	</g>
</g>
<g>
	<path class="st2" d="M15.7,4.9c0,0-0.5-2.3-1.8-2.9c0,0,1.8-0.7,2.9,1.5c0,0,0-2,0.6-2.7c0,0,1.1,2.6,1.1,2.8l1-2.8
		c0,0,0.8,1.7,0.6,2.8c0,0,0.1-1.8,2.8-1.6c0,0-1.6,2.3-1.4,2.9C21.5,4.9,16.5,4,15.7,4.9z"/>
	<path class="st3" d="M15,5c-0.1,0.1-8.3,1.6-8.2,10.6c0,0,0,6,5.4,8.5c0,0,1.6,0.7,2.6,1c1,0.2,1.6,1.1,1.8,1.1
		c0.2,0,2.1,0.4,3,0.1c0.9-0.3,1.4-1,1.9-1.2c0,0,5.1-1.6,6.6-6.2c1.4-4.7,0.4-7.8,0-9.2c0,0-1.6-4.4-8.2-5.2
		C19.8,4.5,15.8,4.3,15,5z"/>
	<path class="st2" d="M16.5,26c0,0,0.5,0.7-0.8,1.4c0,0,1.5,0.9,2.6-0.9c0,0-0.3,1.2,2.3,1.1c0,0-1-0.5-0.9-1.5c0,0-1.4,0.1-1.5-0.2
		C18.2,25.9,16.8,26.3,16.5,26z"/>
	<path class="st4" d="M22,4.9c0,0-2.9-1.4-3,5.3c0,0-0.6,15.1,0,15.6c0.6,0.4-0.2,0.3,0.6,0.4c0.8,0.1,0,0,0,0l1.6-1
		c0,0,7.9-2.3,7.7-10.7c0,0,0.1-5.7-2.5-7.4C26.4,7.2,23.6,5,22,4.9z"/>
	<path class="st5" d="M26.2,15.8c0.3,0,0.5,0,0.6,0c0-0.4,0.1-0.8,0.1-1.3l0,0l0,0c0-1.9-0.5-4.9-1.6-5.6l-0.1-0.1l-0.1-0.1
		c-1.3-1-2.8-1.8-3.2-1.9l-0.3,0c-0.2,0.4-0.5,1.3-0.5,3.3l0,0c-0.1,1.4-0.1,2.8-0.1,4.2l0.7,0.3C22.6,15.1,24.6,15.7,26.2,15.8z"/>
	<path class="st5" d="M26.2,17.2c-0.8,0.1-2.7-0.5-3.9-1c-0.1,0-0.2-0.1-0.3-0.1c0,0,0,0,0,0c-0.8-0.1-1.2,0.2-1.3,0.5
		c-0.1,2.7-0.1,5.1-0.1,6.6c0.5-0.2,1.7-0.7,3-1.7c1.3-1.1,2.2-2.4,2.7-4C26.5,17.4,26.4,17.3,26.2,17.2z"/>
	<path class="st6" d="M26.9,15.8C26.9,15.8,26.9,15.9,26.9,15.8C28,15.9,26.9,15.8,26.9,15.8z"/>
	<path class="st6" d="M20.8,16.9l0-0.1C20.8,16.9,20.8,16.9,20.8,16.9z"/>
	<path class="st6" d="M20.9,14.4l-0.1,2.4c0-0.1,0-0.1,0.1-0.2C20.9,15.9,20.9,15.2,20.9,14.4L20.9,14.4z"/>
	<path class="st7" d="M27.9,14.6L27.9,14.6c0-1.4-0.3-5.4-2.1-6.5l0,0l0,0c-1-0.8-2.9-2.1-3.8-2.1l-0.1,0c-0.1,0-0.1,0-0.2,0l-0.1,0
		c0,0-0.1,0-0.1,0c0,0,0,0-0.1,0c-0.1,0-0.3,0-0.6,0.5c-0.3,0.5-0.7,1.6-0.8,4l0,0c-0.2,5.4-0.3,11.3-0.2,13.9
		c0,0.3,0.4,0.5,0.7,0.4l0.3-0.2c0,0,0.1,0,0.1,0l0.1,0c0,0,1.8-0.5,3.6-2C26.8,20.3,27.9,17.7,27.9,14.6z M20.8,16.8l0,0.1
		C20.8,16.9,20.8,16.9,20.8,16.8z M26.5,17.5c-0.5,1.5-1.4,2.9-2.7,4c-0.9,0.7-1.8,1.2-2.4,1.5c-0.3,0.1-0.6-0.1-0.6-0.4
		c0-1.5,0-3.6,0.1-5.9c0-0.1,0-0.2,0.1-0.3c0.2-0.2,0.5-0.4,1.1-0.3c0,0,0.1,0,0.1,0c0.1,0,0.1,0.1,0.2,0.1c1.2,0.4,2.9,1,3.7,1
		c0.1,0,0.2,0,0.3,0.1C26.5,17.4,26.5,17.4,26.5,17.5z M26.9,14.6c0,0.3,0,0.6,0,0.8c0,0.2-0.2,0.4-0.5,0.4c-0.1,0-0.1,0-0.2,0
		c-1.5-0.1-3.5-0.8-4.6-1.1l-0.4-0.1c-0.2-0.1-0.3-0.2-0.3-0.4c0-0.6,0-1.2,0.1-1.7c0-0.7,0-1.4,0.1-2.1l0,0c0-1.6,0.2-2.5,0.4-3
		c0.1-0.2,0.2-0.3,0.4-0.3l0,0c0.4,0,1.9,0.9,3.2,1.9l0.1,0.1c0,0,0,0,0,0l0.1,0C26.3,9.6,26.9,12.7,26.9,14.6L26.9,14.6L26.9,14.6z
		"/>
	<g>
		<path class="st8" d="M22,9c0,0-0.6-0.4-0.1-1.1c0,0,0.4-0.5,0.8,0.1c0,0,0.2,0.4-0.3,0.9C22.4,8.9,22.1,9.1,22,9z"/>
		<circle class="st9" cx="22" cy="8" r="0.2"/>
	</g>
	<g>
		<path class="st8" d="M22.7,9.3c0,0,0.6,0.4,1.1-0.3c0,0,0.3-0.6-0.4-0.7c0,0-0.4,0-0.7,0.6C22.7,8.9,22.6,9.2,22.7,9.3z"/>
		<circle class="st9" cx="23.6" cy="8.9" r="0.2"/>
	</g>
	<g>
		<path class="st8" d="M23.9,10c0,0,0.6,0.4,1.1-0.3c0,0,0.3-0.6-0.4-0.7c0,0-0.4,0-0.7,0.6C23.8,9.5,23.7,9.8,23.9,10z"/>
		<circle class="st9" cx="24.8" cy="9.5" r="0.2"/>
	</g>
	<g>
		<path class="st8" d="M24.7,11.1c0,0,0.6,0.4,1.1-0.3c0,0,0.3-0.6-0.4-0.7c0,0-0.4,0-0.7,0.6C24.6,10.7,24.5,11,24.7,11.1z"/>
		<circle class="st9" cx="25.5" cy="10.6" r="0.2"/>
	</g>
	<g>
		<path class="st8" d="M25,12.1c0,0,0.4,0.6,1.1,0.2c0,0,0.5-0.4-0.1-0.8c0,0-0.4-0.2-0.9,0.2C25.2,11.7,25,11.9,25,12.1z"/>
		<circle class="st9" cx="26" cy="12.1" r="0.2"/>
	</g>
	<g>
		<path class="st8" d="M25.2,13.5c0,0,0.4,0.6,1.1,0.2c0,0,0.5-0.4-0.1-0.8c0,0-0.4-0.2-0.9,0.2C25.4,13.1,25.2,13.3,25.2,13.5z"/>
		<circle class="st9" cx="26.2" cy="13.5" r="0.2"/>
	</g>
	<g>
		<path class="st8" d="M25.2,15c0,0,0.4,0.6,1.1,0.2c0,0,0.5-0.4-0.1-0.8c0,0-0.4-0.2-0.9,0.2C25.4,14.6,25.2,14.8,25.2,15z"/>
		<circle class="st9" cx="26.2" cy="14.9" r="0.2"/>
	</g>
	<g>
		<path class="st8" d="M22,10.9c0,0,0.7-0.2,0.5-1c0,0-0.2-0.6-0.8-0.1c0,0-0.3,0.3,0,0.9C21.6,10.7,21.8,11,22,10.9z"/>
		<circle class="st9" cx="22.2" cy="10" r="0.2"/>
	</g>
	<g>
		<path class="st8" d="M22.9,11.4c0,0,0.7,0.1,0.9-0.7c0,0,0.1-0.6-0.7-0.5c0,0-0.4,0.2-0.4,0.8C22.7,11,22.7,11.3,22.9,11.4z"/>
		<circle class="st9" cx="23.6" cy="10.6" r="0.2"/>
	</g>
	<g>
		<path class="st8" d="M21.5,12.5c0,0,0.7,0.1,0.9-0.7c0,0,0.1-0.6-0.7-0.5c0,0-0.4,0.2-0.4,0.8C21.3,12.1,21.3,12.4,21.5,12.5z"/>
		<circle class="st9" cx="22.1" cy="11.7" r="0.2"/>
	</g>
	<g>
		<path class="st8" d="M23.4,12.4c0,0,0.6,0.3,1.1-0.4c0,0,0.2-0.6-0.5-0.6c0,0-0.4,0.1-0.6,0.6C23.3,12,23.2,12.3,23.4,12.4z"/>
		<circle class="st9" cx="24.2" cy="11.9" r="0.2"/>
	</g>
	<g>
		<path class="st8" d="M23.7,13.3c0,0,0.4,0.6,1.1,0.1c0,0,0.5-0.4-0.2-0.8c0,0-0.4-0.1-0.9,0.3C23.8,12.9,23.6,13.2,23.7,13.3z"/>
		<circle class="st9" cx="24.7" cy="13.2" r="0.2"/>
	</g>
	<g>
		<path class="st8" d="M21.7,13.4c0,0,0.4,0.6,1.1,0.1c0,0,0.5-0.4-0.2-0.8c0,0-0.4-0.1-0.9,0.3C21.8,13,21.6,13.2,21.7,13.4z"/>
		<circle class="st9" cx="22.7" cy="13.2" r="0.2"/>
	</g>
	<g>
		<path class="st8" d="M23.7,14.7c0,0,0.4,0.6,1.1,0.1c0,0,0.5-0.4-0.2-0.8c0,0-0.4-0.1-0.9,0.3C23.8,14.3,23.6,14.5,23.7,14.7z"/>
		<circle class="st9" cx="24.7" cy="14.5" r="0.2"/>
	</g>
	<g>
		<path class="st8" d="M22,14.5c0,0,0.4,0.6,1.1,0.2c0,0,0.5-0.4-0.1-0.8c0,0-0.4-0.2-0.9,0.2C22.1,14.1,21.9,14.3,22,14.5z"/>
		<circle class="st9" cx="23" cy="14.4" r="0.2"/>
	</g>
	<g>
		<path class="st8" d="M22.4,20.5c0,0,0.7,0.1,0.6,1c0,0-0.1,0.6-0.8,0.2c0,0-0.3-0.3-0.2-0.9C22.1,20.8,22.2,20.5,22.4,20.5z"/>
		<circle class="st9" cx="22.8" cy="21.5" r="0.2"/>
	</g>
	<g>
		<path class="st8" d="M23.2,19.8c0,0,0.7-0.3,1,0.5c0,0,0.2,0.6-0.5,0.6c0,0-0.4-0.1-0.6-0.7C23.1,20.2,23,19.9,23.2,19.8z"/>
		<circle class="st9" cx="23.9" cy="20.4" r="0.2"/>
	</g>
	<g>
		<path class="st8" d="M24,19c0,0,0.5-0.5,1.1,0.1c0,0,0.4,0.5-0.3,0.7c0,0-0.4,0.1-0.8-0.5C24,19.4,23.9,19.1,24,19z"/>
		<circle class="st9" cx="24.9" cy="19.3" r="0.2"/>
	</g>
	<g>
		<path class="st8" d="M24.7,17.7c0,0,0.5-0.5,1.1,0.2c0,0,0.4,0.5-0.3,0.7c0,0-0.4,0.1-0.8-0.5C24.7,18.1,24.5,17.9,24.7,17.7z"/>
		<circle class="st9" cx="25.6" cy="18" r="0.2"/>
	</g>
	<g>
		<path class="st8" d="M21.3,20.7c0,0,0.6,0.1,0.6,0.9c0,0-0.1,0.6-0.7,0.2c0,0-0.3-0.3-0.2-0.8C21,21,21.1,20.7,21.3,20.7z"/>
		<circle class="st9" cx="21.6" cy="21.5" r="0.2"/>
	</g>
	<g>
		<path class="st8" d="M21.5,19.1c0,0,0.7-0.1,0.9,0.7c0,0,0,0.6-0.7,0.4c0,0-0.4-0.2-0.4-0.8C21.3,19.4,21.3,19.1,21.5,19.1z"/>
		<circle class="st9" cx="22.1" cy="19.8" r="0.2"/>
	</g>
	<g>
		<path class="st8" d="M22.5,18.5c0,0,0.6-0.4,1.1,0.3c0,0,0.3,0.6-0.4,0.7c0,0-0.4,0-0.7-0.6C22.5,18.9,22.4,18.6,22.5,18.5z"/>
		<circle class="st9" cx="23.4" cy="18.9" r="0.2"/>
	</g>
	<g>
		<path class="st8" d="M21,17.8c0,0,0.6-0.4,1.1,0.3c0,0,0.3,0.6-0.4,0.7c0,0-0.4,0-0.7-0.6C21,18.2,20.9,17.9,21,17.8z"/>
		<circle class="st9" cx="21.9" cy="18.2" r="0.2"/>
	</g>
	<g>
		<path class="st8" d="M23,17.2c0,0,0.6-0.4,1.1,0.3c0,0,0.3,0.6-0.4,0.7c0,0-0.4,0-0.7-0.6C22.9,17.6,22.8,17.3,23,17.2z"/>
		<circle class="st9" cx="23.8" cy="17.6" r="0.2"/>
	</g>
	<g>
		<path class="st8" d="M21.5,16.6c0,0,0.6-0.4,1.1,0.2c0,0,0.4,0.5-0.4,0.7c0,0-0.4,0-0.8-0.5C21.5,17,21.3,16.7,21.5,16.6z"/>
		<circle class="st9" cx="22.4" cy="16.9" r="0.2"/>
	</g>
</g>
</svg>
