<?xml version="1.0" encoding="utf-8"?>
<!-- Generator: Adobe Illustrator 23.0.3, SVG Export Plug-In . SVG Version: 6.00 Build 0)  -->
<svg version="1.1" id="Layer_1" xmlns="http://www.w3.org/2000/svg" xmlns:xlink="http://www.w3.org/1999/xlink" x="0px" y="0px"
	 viewBox="0 0 60.9 94.1" style="enable-background:new 0 0 60.9 94.1;" xml:space="preserve">
<style type="text/css">
	.st0{fill:#FFFFFF;}
	.st1{font-family:'Montserrat-Bold';}
	.st2{font-size:15px;}
</style>
<path class="st0" d="M58.1,11.1c-1.9-3.4-4.5-6.2-7.8-8.1c-3.3-2-7.2-3-11.5-3H1.7C0.7,0,0,0.7,0,1.7v16.9c0,1,0.8,1.7,1.8,1.7
	l45.5-4l-0.5,2.2c0,0.1,0,0.1-0.1,0.2c-1.4,3.9-3.6,6.6-5.8,8.4c0,0,0,0,0,0c-4.7,4-25.8,8.6-26.9,8.4l-1.6-8
	c-0.2-0.9-1-1.5-1.9-1.3l-9.2,1.3C0.6,27.5,0,28.2,0,29v38.4c0,0.9,0.7,1.7,1.7,1.7h18.9c0.9,0,1.7-0.7,1.7-1.7v-19
	c0-0.9,0.7-1.7,1.7-1.7h14.9c4.3,0,8.1-1,11.5-3c3.3-2,6-4.7,7.8-8.2c1.9-3.5,2.8-7.4,2.8-11.7v-1.3C60.9,18.4,60,14.6,58.1,11.1z
	 M32.4,38.6L32.4,38.6c-0.8,0.8-1.8,1.3-2.9,1.6c-1.1,0.3-2.2,0.3-3.3,0C26,40.1,25.8,40,25.6,40l2.4-5.7L32.4,38.6
	C32.4,38.5,32.4,38.5,32.4,38.6z M40.7,33.3c-0.2,1.1-0.7,2.1-1.4,3c-0.7,0.9-1.6,1.5-2.7,1.9c-0.2,0.1-0.4,0.1-0.6,0.2l-1.4-6
	l6.1,0.8C40.8,33.3,40.8,33.3,40.7,33.3L40.7,33.3z M49.7,32.2L49.7,32.2c-0.9,0.6-2,0.9-3.1,1c-1.1,0.1-2.2-0.2-3.2-0.7
	c-0.2-0.1-0.4-0.2-0.6-0.3l3.5-5.1L49.7,32.2C49.8,32.1,49.7,32.2,49.7,32.2z"/>
<text transform="matrix(1 0 0 1 -6.762145e-02 90.1277)" class="st0 st1 st2">PrepMe</text>
</svg>
