<?xml version="1.0" encoding="utf-8"?>
<!-- Generator: Adobe Illustrator 23.0.3, SVG Export Plug-In . SVG Version: 6.00 Build 0)  -->
<svg version="1.1" id="Layer_1" xmlns="http://www.w3.org/2000/svg" xmlns:xlink="http://www.w3.org/1999/xlink" x="0px" y="0px"
	 viewBox="0 0 35.7 35.7" style="enable-background:new 0 0 35.7 35.7;" xml:space="preserve">
<style type="text/css">
	.st0{fill:#3D3D3D;}
	.st1{fill:#64A13A;}
	.st2{fill:#499442;}
	.st3{fill:#215A2D;}
</style>
<g>
	<g>
		<path class="st0" d="M7.6,29.7l-1.2,3.5H6l-1-3l-1,3H3.5l-1.2-3.5h0.4l1,3l1-3h0.3l1,3l1-3H7.6z"/>
		<path class="st0" d="M9.7,30.8c0.2,0.2,0.3,0.4,0.3,0.8v1.6H9.6v-0.4c-0.1,0.1-0.2,0.2-0.4,0.3c-0.2,0.1-0.3,0.1-0.6,0.1
			c-0.3,0-0.5-0.1-0.7-0.2c-0.2-0.1-0.3-0.3-0.3-0.6c0-0.2,0.1-0.4,0.2-0.5s0.4-0.2,0.8-0.2h0.8v-0.2c0-0.2-0.1-0.4-0.2-0.5
			c-0.1-0.1-0.3-0.2-0.6-0.2c-0.2,0-0.3,0-0.5,0.1C8.2,31,8.1,31.1,8,31.2l-0.2-0.3c0.1-0.1,0.3-0.2,0.5-0.3
			c0.2-0.1,0.4-0.1,0.6-0.1C9.2,30.5,9.5,30.6,9.7,30.8z M9.3,32.8c0.1-0.1,0.3-0.2,0.3-0.4V32H8.8c-0.4,0-0.7,0.2-0.7,0.5
			c0,0.2,0.1,0.3,0.2,0.4c0.1,0.1,0.3,0.1,0.5,0.1C8.9,32.9,9.1,32.9,9.3,32.8z"/>
		<path class="st0" d="M12.3,33c-0.1,0.1-0.1,0.1-0.2,0.1s-0.2,0-0.3,0c-0.2,0-0.4-0.1-0.6-0.2C11,32.9,11,32.7,11,32.4v-1.6h-0.5
			v-0.3H11V30h0.4v0.6h0.8v0.3h-0.8v1.6c0,0.2,0,0.3,0.1,0.4c0.1,0.1,0.2,0.1,0.3,0.1c0.1,0,0.1,0,0.2,0c0.1,0,0.1-0.1,0.2-0.1
			L12.3,33z"/>
		<path class="st0" d="M15.1,32h-2.2c0,0.3,0.1,0.5,0.3,0.7c0.2,0.2,0.4,0.3,0.7,0.3c0.2,0,0.3,0,0.5-0.1c0.1-0.1,0.3-0.1,0.4-0.3
			l0.2,0.2c-0.1,0.1-0.3,0.2-0.4,0.3s-0.4,0.1-0.6,0.1c-0.3,0-0.5-0.1-0.7-0.2s-0.4-0.3-0.5-0.5c-0.1-0.2-0.2-0.4-0.2-0.7
			c0-0.3,0.1-0.5,0.2-0.7c0.1-0.2,0.3-0.4,0.5-0.5c0.2-0.1,0.4-0.2,0.7-0.2s0.5,0.1,0.7,0.2c0.2,0.1,0.3,0.3,0.5,0.5
			c0.1,0.2,0.2,0.4,0.2,0.7L15.1,32z M13.2,31.1c-0.2,0.2-0.3,0.4-0.3,0.6h1.9c0-0.3-0.1-0.5-0.3-0.6c-0.2-0.2-0.4-0.2-0.6-0.2
			C13.6,30.8,13.4,30.9,13.2,31.1z"/>
		<path class="st0" d="M16.6,30.7c0.2-0.1,0.4-0.1,0.6-0.1v0.3l-0.1,0c-0.3,0-0.5,0.1-0.7,0.3s-0.2,0.4-0.2,0.7v1.3h-0.4v-2.6h0.3
			v0.5C16.3,30.9,16.4,30.8,16.6,30.7z"/>
		<path class="st0" d="M21.9,30.8c0.2,0.2,0.3,0.5,0.3,0.8v1.5h-0.4v-1.5c0-0.3-0.1-0.5-0.2-0.6c-0.1-0.1-0.3-0.2-0.6-0.2
			c-0.3,0-0.5,0.1-0.6,0.3c-0.2,0.2-0.2,0.4-0.2,0.7v1.4h-0.4v-1.5c0-0.3-0.1-0.5-0.2-0.6c-0.1-0.1-0.3-0.2-0.6-0.2
			c-0.3,0-0.5,0.1-0.6,0.3c-0.2,0.2-0.2,0.4-0.2,0.7v1.4h-0.4v-2.6h0.3V31c0.1-0.2,0.2-0.3,0.4-0.4c0.2-0.1,0.4-0.1,0.6-0.1
			c0.2,0,0.4,0,0.6,0.1c0.2,0.1,0.3,0.2,0.4,0.4c0.1-0.2,0.2-0.3,0.4-0.4c0.2-0.1,0.4-0.1,0.6-0.1C21.4,30.5,21.7,30.6,21.9,30.8z"
			/>
		<path class="st0" d="M25.4,32h-2.2c0,0.3,0.1,0.5,0.3,0.7c0.2,0.2,0.4,0.3,0.7,0.3c0.2,0,0.3,0,0.5-0.1c0.1-0.1,0.3-0.1,0.4-0.3
			l0.2,0.2c-0.1,0.1-0.3,0.2-0.4,0.3s-0.4,0.1-0.6,0.1c-0.3,0-0.5-0.1-0.7-0.2s-0.4-0.3-0.5-0.5c-0.1-0.2-0.2-0.4-0.2-0.7
			c0-0.3,0.1-0.5,0.2-0.7s0.3-0.4,0.5-0.5c0.2-0.1,0.4-0.2,0.7-0.2s0.5,0.1,0.7,0.2c0.2,0.1,0.3,0.3,0.5,0.5
			c0.1,0.2,0.2,0.4,0.2,0.7L25.4,32z M23.5,31.1c-0.2,0.2-0.3,0.4-0.3,0.6h1.9c0-0.3-0.1-0.5-0.3-0.6c-0.2-0.2-0.4-0.2-0.6-0.2
			C23.9,30.8,23.7,30.9,23.5,31.1z"/>
		<path class="st0" d="M26.2,29.5h0.4v3.7h-0.4V29.5z"/>
		<path class="st0" d="M27.9,33c-0.2-0.1-0.4-0.3-0.5-0.5c-0.1-0.2-0.2-0.4-0.2-0.7c0-0.3,0.1-0.5,0.2-0.7c0.1-0.2,0.3-0.4,0.5-0.5
			c0.2-0.1,0.4-0.2,0.7-0.2c0.3,0,0.5,0.1,0.7,0.2c0.2,0.1,0.4,0.3,0.5,0.5s0.2,0.4,0.2,0.7c0,0.3-0.1,0.5-0.2,0.7s-0.3,0.4-0.5,0.5
			s-0.4,0.2-0.7,0.2C28.3,33.2,28.1,33.2,27.9,33z M29.1,32.8c0.1-0.1,0.3-0.2,0.3-0.4c0.1-0.2,0.1-0.3,0.1-0.5c0-0.2,0-0.4-0.1-0.5
			c-0.1-0.2-0.2-0.3-0.3-0.4s-0.3-0.1-0.5-0.1c-0.2,0-0.4,0-0.5,0.1s-0.3,0.2-0.3,0.4c-0.1,0.2-0.1,0.3-0.1,0.5c0,0.2,0,0.4,0.1,0.5
			c0.1,0.2,0.2,0.3,0.3,0.4c0.1,0.1,0.3,0.1,0.5,0.1C28.8,32.9,28.9,32.9,29.1,32.8z"/>
		<path class="st0" d="M32.8,30.8c0.2,0.2,0.3,0.5,0.3,0.8v1.5h-0.4v-1.5c0-0.3-0.1-0.5-0.2-0.6c-0.1-0.1-0.3-0.2-0.6-0.2
			c-0.3,0-0.5,0.1-0.7,0.3c-0.2,0.2-0.2,0.4-0.2,0.7v1.4h-0.4v-2.6H31V31c0.1-0.2,0.2-0.3,0.4-0.4c0.2-0.1,0.4-0.1,0.6-0.1
			C32.3,30.5,32.6,30.6,32.8,30.8z"/>
	</g>
</g>
<g>
	<path class="st1" d="M17.1,3.5c0.3,0.4,1.4,0.2,1.4,0.6s0,0.9,0,0.9s0.6,0.7,0,0.8C18,5.9,17.2,5,17.2,5c-0.5-0.4-1.6-1.4-0.4-4.1
		c0,0,1.1-0.3,0.8,0.9c0,0-0.3,1.1-0.3,1.4"/>
	<circle class="st2" cx="17.9" cy="16" r="11.2"/>
	<ellipse class="st3" cx="17.9" cy="16" rx="8" ry="11.2"/>
	<ellipse class="st2" cx="17.9" cy="16" rx="4.7" ry="11.2"/>
	<ellipse class="st3" cx="17.9" cy="16" rx="1.7" ry="11.2"/>
</g>
</svg>
