<?xml version="1.0" encoding="utf-8"?>
<!-- Generator: Adobe Illustrator 22.1.0, SVG Export Plug-In . SVG Version: 6.00 Build 0)  -->
<svg version="1.1" id="Layer_1" xmlns="http://www.w3.org/2000/svg" xmlns:xlink="http://www.w3.org/1999/xlink" x="0px" y="0px"
	 viewBox="0 0 742.5 502.4" style="enable-background:new 0 0 742.5 502.4;" xml:space="preserve">
<style type="text/css">
	.st0{fill:#EFEFEF;}
	.st1{fill:#F4F4F4;}
	.st2{fill:#EAEAEA;}
	.st3{fill:#9C0110;}
	.st4{fill:#830813;}
	.st5{fill:#C51628;}
	.st6{fill:#55070A;}
	.st7{fill:#F19998;}
	.st8{fill:#72141D;}
	.st9{fill:#5C0D1A;}
	.st10{fill:#CA0007;}
	.st11{fill:#DF454C;}
	.st12{fill:#EBA59E;}
	.st13{fill:#820100;}
	.st14{fill:#370401;}
	.st15{fill:#AC0C06;}
	.st16{fill:#CD6F6D;}
	.st17{fill:#AA0510;}
	.st18{fill:none;stroke:#72141D;stroke-width:0.7112;stroke-miterlimit:10;}
	.st19{fill:#F0948F;}
	.st20{fill:#F3C0AB;}
	.st21{fill:#2C0A0A;}
	.st22{fill:none;stroke:#72141D;stroke-width:0.7984;stroke-miterlimit:10;}
	.st23{fill:none;stroke:#72141D;stroke-width:0.5079;stroke-miterlimit:10;}
	.st24{fill:#D61D45;}
	.st25{fill:#D01128;}
	.st26{fill:#8D171D;}
</style>
<g id="Layer_1_1_">
	<g id="Plate">
		<ellipse class="st0" cx="368.2" cy="346.5" rx="337" ry="111"/>
		<ellipse class="st1" cx="368.2" cy="339.5" rx="337" ry="111"/>
		<ellipse class="st2" cx="368.2" cy="328.5" rx="236.8" ry="78"/>
	</g>
</g>
<path class="st3" d="M-499-6.2c0,0-6.4,14.8,0,14.8c6.4,0,9-9.7,12.3-16.1C-483.5-13.9-495.1-11.4-499-6.2z"/>
<g>
	<path class="st4" d="M392.3,320.7c1.4,12.2,7.1,5.7,15.6,2.8c8.5-2.9,5.7-10.7,5.7-12.1c0,0-3.5-6.3-13.5-12.7
		c-2-1.2-3.4-2-4.4-2.2c-0.5,1.2-0.9,2.4-1.3,3.7c-0.5,1.5-1.2,2.5-2.1,3.4l0,0C390.3,306.7,390.9,308.7,392.3,320.7z"/>
	<path class="st4" d="M535.2,336.8c1.4,12.2,7.1,5.7,15.6,2.8s5.7-10.7,5.7-12.1c0,0-3.5-6.3-13.5-12.7c-2-1.2-3.4-2-4.4-2.2
		c-0.5,1.2-0.9,2.4-1.3,3.7c-0.5,1.5-1.2,2.5-2.1,3.4l0,0C533.1,322.8,533.8,324.7,535.2,336.8z"/>
	<path class="st5" d="M410.6,355.8c2.3,3.9,5.9,6.2,10.5,2c6.5-5.7,10.6-2.2,7.1-9.3c-3.6-7.2-0.7-12.9-9.2-14.2
		c-8.4-1.4-8.4-1.4-8.4-1.4s-4,11.6-2,17.9l0,0C410.2,352.3,410.7,354,410.6,355.8z"/>
	<path class="st5" d="M436.2,363.4c2.3,3.9,5.9,6.2,10.5,2c6.5-5.7,10.6-2.2,7.1-9.3c-3.6-7.2-0.7-12.9-9.2-14.2
		c-8.4-1.4-8.4-1.4-8.4-1.4s-4,11.6-2,17.9l0,0C435.8,359.8,436.4,361.5,436.2,363.4z"/>
	<g>
		<path class="st6" d="M411.8,264.9c0,0,2.7,2.2,3.4,3.5c0.7,1.3-0.7,3.4-3.6,6.7c-2.9,3.4-9.5,0-9.5,0c-0.3,0.6-0.7,1-1,1.6
			c1.4,0.9,2.3,2.3,2.8,3.7c8.4-0.8,23.5-4.1,17-13.4C418.2,263.2,415,263.1,411.8,264.9z"/>
		<path class="st7" d="M411.7,274.8c2.8-3.6,4.2-5.6,3.6-7.2c-0.7-1.5-3.4-3.7-3.4-3.7c-3.7,2.2-7.3,7-9.7,10.8
			C402.2,274.8,408.8,278.3,411.7,274.8z"/>
	</g>
	<g>
		<path class="st6" d="M397.2,349.6c0,0,2.7,2.2,3.4,3.5c0.7,1.3-0.7,3.4-3.6,6.7c-2.9,3.4-9.5,0-9.5,0c-0.3,0.6-0.7,1-1,1.6
			c1.4,0.9,2.3,2.3,2.8,3.7c8.4-0.8,23.5-4.1,17-13.4C403.6,347.8,400.4,347.8,397.2,349.6z"/>
		<path class="st7" d="M397.1,359.5c2.8-3.6,4.2-5.6,3.6-7.2c-0.7-1.5-3.4-3.7-3.4-3.7c-3.7,2.2-7.3,7-9.7,10.8
			C387.6,359.5,394.1,363.1,397.1,359.5z"/>
	</g>
	<g>
		<path class="st8" d="M388.6,335c0,0,15.6,12.8,22.1,9.9c4.1-1.9,7-10.1,5.1-15.7c-0.5-1.6-1.4-3-2.7-4c-1.4-1.1-3.4-1.6-5.8-1.7
			C393.6,323.6,388.6,335,388.6,335z"/>
	</g>
	<path class="st3" d="M489.7,322c0,0-7.1,16.3,0,16.4c7,0,9.9-10.7,13.6-17.8C506.8,313.5,493.9,316.2,489.7,322z"/>
	<path class="st3" d="M446.1,334.6c0,0-7.1,16.3,0,16.4c7,0,9.9-10.7,13.6-17.8C463.2,326,450.4,328.9,446.1,334.6z"/>
	<path class="st3" d="M483.1,338.3c0,0-7.1,16.3,0,16.4c7,0,9.9-10.7,13.6-17.8C500.2,329.7,487.4,332.6,483.1,338.3z"/>
	<path class="st9" d="M494.1,346.7c0,0,2.1,16.3,10.6,11.4c8.6-5,13.4-5,10.6-11.4s-2.9-11.3-9.9-8.5
		C498.4,341,494.1,346.7,494.1,346.7z"/>
	<path class="st9" d="M489.4,341.8c0,0,2.1,16.3,10.6,11.4c8.6-5,13.4-5,10.6-11.4s-2.9-11.3-9.9-8.5
		C493.7,336.1,489.4,341.8,489.4,341.8z"/>
	<path class="st9" d="M529.6,350.8c2.1-7.7,3.6-11.4-3.6-12c-7.1-0.7-9.8,0-9.8,0l-1,11C515.1,349.9,527.5,358.7,529.6,350.8z"/>
	<g>
		<path class="st10" d="M445.8,321.2c-0.7-7.1-8.5-14.9-17-10c-8.6,5-16.3,12.1-17,17.8c-0.2,1,12,17,20.6,12.2
			C440.8,336.2,446.5,328.5,445.8,321.2z"/>
	</g>
	<g>
		<path class="st11" d="M456.8,352.3c-1.2,1.6-4.5,3-7.2,2.7c-4.9-0.7-7.8-5-7.8-6.4c0,0,6-2,12.2-0.2c-2.7-3.7-12.4-12.4-22.2-17.7
			c-10.7-5.7-7.1,2.1-11.3,7.1s-3.6,10-2.1,14.9c1.4,5,9.3,5.7,28.5,7.1C459.9,360.9,458.9,355.8,456.8,352.3z"/>
		<path class="st12" d="M441.9,348.5c0,1.4,2.8,5.6,7.8,6.4c2.7,0.4,5.9-0.9,7.2-2.7c-1-1.6-2.1-2.9-2.3-3c-0.2-0.2-0.2-0.5-0.5-0.9
			C447.9,346.5,441.9,348.5,441.9,348.5z"/>
	</g>
	<g>
		<path class="st4" d="M427.2,299c0.5-1.4,0.9-2.7,0.9-4.1c-0.9-1.5-1.6-3.3-2.1-4.9c-0.7-0.5-1.7-1.1-3-1.6
			c-7.9-2.9-9.9-4.3-14.9-0.7c-4.9,3.5-7.1,8.5-7.1,13.5c0,3.9,1.4,6.4,10,6.4c6.4,0,10.3,0.5,12.8-1.7
			C425.4,303.3,423,297.7,427.2,299z M418.7,304c-4.2,5-6.4-2.8-7.9-7.1c0,0,4.2-2.8,11.4-2.2C429.4,295.5,423,299.1,418.7,304z"/>
		<path class="st12" d="M422.2,294.9c-7.1-0.7-11.4,2.2-11.4,2.2c1.4,4.2,3.6,12,7.9,7.1C423,299.1,429.4,295.5,422.2,294.9z"/>
	</g>
	<g>
		<path class="st4" d="M400.2,348.7c0.5-1.4,0.9-2.7,0.9-4.1c-0.9-1.5-1.6-3.3-2.1-4.9c-0.7-0.5-1.7-1.1-3-1.6
			c-7.9-2.9-9.9-4.3-14.9-0.7c-4.9,3.5-7.1,8.5-7.1,13.5c0,3.9,1.4,6.4,10,6.4c6.4,0,10.3,0.5,12.8-1.7
			C398.4,353,396,347.3,400.2,348.7z M391.8,353.7c-4.2,5-6.4-2.8-7.9-7.1c0,0,4.2-2.8,11.4-2.2
			C402.5,345.2,396.1,348.8,391.8,353.7z"/>
		<path class="st12" d="M395.3,344.5c-7.1-0.7-11.4,2.2-11.4,2.2c1.4,4.2,3.6,12,7.9,7.1C396.1,348.8,402.5,345.2,395.3,344.5z"/>
	</g>
	<g>
		<path class="st4" d="M431.1,331.8c18.5-18.5-17.8-39.8-27.7-12.1C403.1,320.6,412.6,350.3,431.1,331.8z M415.1,320.7
			c0,0,5-4.2,11.3-4.3c6.4,0,2.1,7.7-3.6,12C417.2,332.8,415.1,320.7,415.1,320.7z"/>
		<path class="st12" d="M426.5,316.4c-6.4,0-11.3,4.3-11.3,4.3s2.2,12,7.8,7.8C428.6,324.2,432.9,316.4,426.5,316.4z"/>
	</g>
	<g>
		<path class="st4" d="M521.3,340.9c18.5-18.5-17.8-39.8-27.7-12.1C493.2,329.8,502.8,359.4,521.3,340.9z M505.3,329.9
			c0,0,5-4.2,11.3-4.3c6.4,0,2.1,7.7-3.6,12C507.5,342,505.3,329.9,505.3,329.9z"/>
		<path class="st12" d="M516.8,325.6c-6.4,0-11.3,4.3-11.3,4.3s2.2,12,7.8,7.8C518.9,333.4,523,325.6,516.8,325.6z"/>
	</g>
	<g>
		<path class="st4" d="M491.9,323.9c18.5-18.5-17.8-39.8-27.7-12.1C463.9,312.7,473.5,342.3,491.9,323.9z M475.9,312.9
			c0,0,5-4.2,11.3-4.3c6.4,0,2.1,7.7-3.6,12C478.1,324.9,475.9,312.9,475.9,312.9z"/>
		<path class="st12" d="M487.3,308.6c-6.4,0-11.3,4.3-11.3,4.3s2.2,12,7.8,7.8C489.4,316.4,493.7,308.6,487.3,308.6z"/>
	</g>
	<g>
		<path class="st4" d="M487.4,329c-7.1-5.7-10.7-9.9-14.2-1.4c-3.6,8.6-3.6,13.4-3.6,13.4s13.5,14.9,16.3,12.1
			S494.4,334.6,487.4,329z M483.1,338.1c2.2,1.4,1.4,7-2.9,8.5c-4.2,1.4-5.7-7.1-5.7-7.1s0,0,1.4-5
			C477.3,329.7,481,336.8,483.1,338.1z"/>
		<path class="st12" d="M475.9,334.7c-1.4,5-1.4,5-1.4,5s1.4,8.4,5.7,7.1c4.2-1.4,5-7.2,2.9-8.5C481,336.8,477.4,329.6,475.9,334.7z
			"/>
	</g>
	<g>
		<path class="st13" d="M462.6,304.6c-1.4-7.8-11.4-11.4-14.2-10c-2.8,1.4-5,10-5,10s-2.1,19.9,5.6,20.6
			C456.7,325.9,464,312.4,462.6,304.6z M449.1,318.1c-2.9-2.1-1.5-10.7-1.5-10.7s4.2-1.4,5,0c0.8,1.4,1.4,5.6,2.1,7.7
			C455.3,317.3,451.9,320.2,449.1,318.1z"/>
		<path class="st12" d="M454.7,315.3c-0.7-2.1-1.4-6.4-2.1-7.7c-0.7-1.5-5,0-5,0s-1.4,8.4,1.5,10.7
			C451.9,320.2,455.4,317.4,454.7,315.3z"/>
	</g>
	<g>
		<path class="st14" d="M461.9,271.1c-7,1.4-9.2,7.8-9.2,7.8s2.1,17.7,17,11.4c14.9-6.5,19.2-7,11.5-12.7
			C473.4,271.9,469.1,269.7,461.9,271.1z M471.9,278.9c2.1,2.9,0.7,4.3-3.5,6.3c-4.2,2-7.8-6.4-7.8-6.4s2.1-3.5,6.3-3.5
			C471.2,275.4,469.8,276,471.9,278.9z"/>
		<path class="st12" d="M460.6,279c0,0,3.6,8.6,7.8,6.4c4.2-2.2,5.7-3.5,3.5-6.3c-2.1-2.9-0.7-3.5-4.9-3.5
			C462.7,275.5,460.6,279,460.6,279z"/>
	</g>
	<g>
		<path class="st14" d="M398.1,277.1c-7,1.4-9.2,7.8-9.2,7.8s2.1,17.7,17,11.4c14.9-6.5,19.2-7,11.5-12.7
			C409.5,277.9,405.3,275.8,398.1,277.1z M408.1,285c2.1,2.9,0.7,4.3-3.5,6.3c-4.2,2-7.8-6.4-7.8-6.4s2.1-3.5,6.3-3.5
			C407.4,281.5,406,282.1,408.1,285z"/>
		<path class="st12" d="M396.7,285c0,0,3.6,8.6,7.8,6.4c4.2-2.2,5.7-3.5,3.5-6.3c-2.2-2.8-0.7-3.5-4.9-3.5
			C398.8,281.5,396.7,285,396.7,285z"/>
	</g>
	<g>
		<path class="st14" d="M428,274.2c-7,1.4-9.2,7.8-9.2,7.8s2.1,17.7,17,11.4s19.2-7,11.5-12.7C439.6,275,435.1,272.9,428,274.2z
			 M438,282c2.1,2.9,0.7,4.3-3.5,6.3c-4.2,2-7.8-6.4-7.8-6.4s2.1-3.5,6.3-3.5C437.3,278.5,435.9,279.3,438,282z"/>
		<path class="st12" d="M426.6,282.2c0,0,3.6,8.6,7.8,6.4c4.2-2.2,5.7-3.5,3.5-6.3c-2.1-2.9-0.7-3.5-4.9-3.5
			C428.8,278.6,426.6,282.2,426.6,282.2z"/>
	</g>
	<g>
		<path class="st15" d="M434.3,327.1c0.4,0.9-0.5,7.5,0,13.1c0.5-2.3,2.1-5.2,2-5.9c0,0,3.5-2.1,6.4-1.4c2.9,0.7,1.4,1.4,0,5
			c-1.4,3.6-1.4,5.6-6.4,5.8c-0.8,0-1.2-0.2-1.7-0.5c0.5,2.3,1.4,4.1,3,4.7c5.7,2.1,9.3-2.9,11.3-12.1c2.2-9.2,5.6-19.2-3.5-16.3
			C436.4,322,434.3,327.1,434.3,327.1z"/>
		<path class="st16" d="M442.9,337.7c1.4-3.6,2.8-4.2,0-5s-6.4,1.4-6.4,1.4c0,0.8-1.5,3.7-2,5.9c0.1,1,0.2,2,0.4,2.9
			c0.4,0.4,0.8,0.5,1.7,0.5C441.5,343.3,441.5,341.3,442.9,337.7z"/>
	</g>
	<g>
		<path class="st17" d="M459.7,322.9c2.3-4.5,2.3-4.5,2.3-4.5l-0.4-0.1c0,0,5.4-0.5,5.2,1.6c0,2.2-3.6,10-6.5,10.2
			c-2.1,0.2-2.8-1.6-2-4.4c-1.9,4.7-3.3,8.9-3,10.4c0.6,3.6,17.9-14.8,19.5-20.4c1.5-5.7-3.4-10.8-9.1-6.5c0,0-3.3,7-6.1,13.9
			C459.6,323.2,459.7,323.1,459.7,322.9z"/>
		<path class="st18" d="M458.5,326c0.3-0.9,0.7-1.8,0.9-2.7C459.1,324.3,458.8,325.2,458.5,326z"/>
		<path class="st19" d="M460.5,330.3c2.8-0.3,6.5-8.2,6.4-10.3c0-2.2-5.3-1.6-5.3-1.6l0.4,0.1c0,0,0,0-2.2,4.4
			c-0.1,0.1-0.1,0.2-0.2,0.3c-0.3,0.9-0.7,1.8-0.9,2.7C457.7,328.8,458.4,330.6,460.5,330.3z"/>
	</g>
	<g>
		<path class="st11" d="M467.7,282.7c-5.6-1.4-16.3,8.5-7.2,27c9.2,18.4,18.5-4.9,18.5-4.9c0.3-0.6,0.5-1.6,0.3-2.8l-2.5-0.2
			c0,0-4.2-1.4-8.6-3.6c-4.4-2.2-4.9-4.9-2.9-9.9c2-5,7.3-1.3,7.3-1.3l6.5,14.8C478.6,295.7,472.4,283.8,467.7,282.7z"/>
		<path class="st18" d="M479.5,302.1l-0.1-0.2C479.4,301.8,479.4,302,479.5,302.1L479.5,302.1z"/>
		<path class="st7" d="M465.5,288.3c-2.1,4.9-1.4,7.8,2.9,9.9s8.6,3.6,8.6,3.6l2.5,0.2c0-0.2,0-0.2,0-0.3l-6.5-14.8
			C472.9,287.1,467.7,283.3,465.5,288.3z"/>
	</g>
	<g>
		<path class="st11" d="M353.9,352.6c-5.6-1.4-16.3,8.5-7.2,27c9.2,18.4,18.5-4.9,18.5-4.9c0.3-0.6,0.5-1.6,0.3-2.8l-2.5-0.2
			c0,0-4.2-1.4-8.6-3.6c-4.3-2.1-4.9-4.9-2.9-9.9c2-5,7.3-1.3,7.3-1.3l6.5,14.8C364.7,365.7,358.5,353.8,353.9,352.6z"/>
		<path class="st18" d="M365.6,372l-0.1-0.2C365.5,371.8,365.5,371.9,365.6,372L365.6,372z"/>
		<path class="st7" d="M351.6,358.3c-2.1,4.9-1.4,7.8,2.9,9.9s8.6,3.6,8.6,3.6l2.5,0.2c0-0.2,0-0.2,0-0.3l-6.5-14.8
			C359,357.1,353.8,353.3,351.6,358.3z"/>
	</g>
	<g>
		<path class="st11" d="M455.3,297.5c1.4-5.6-8.5-16.3-27-7.2c-18.4,9.2,4.9,18.5,4.9,18.5c0.6,0.3,1.6,0.5,2.8,0.3l0.2-2.5
			c0,0,1.4-4.2,3.6-8.6c2.1-4.3,4.9-4.9,9.9-2.9c5,2,1.3,7.3,1.3,7.3l-14.8,6.6C442.1,308.3,454,302.2,455.3,297.5z"/>
		<path class="st18" d="M435.9,309.2l0.2-0.1C436,309.1,435.9,309.2,435.9,309.2L435.9,309.2z"/>
		<path class="st7" d="M449.5,295.3c-4.9-2.1-7.8-1.4-9.9,2.9s-3.6,8.6-3.6,8.6l-0.2,2.5c0.2,0,0.2,0,0.3,0l14.8-6.5
			C450.8,302.6,454.5,297.5,449.5,295.3z"/>
	</g>
	<path class="st8" d="M451,347.7c-0.7,1.5-2.2,11.4,3.6,12.8c5.6,1.4,9.2,0,9.9-4.3s3.6-2.8,0-7c-3.5-4.3-5-8.6-7.8-6.4
		C453.8,344.9,451,347.7,451,347.7z"/>
	<path class="st8" d="M463.5,329.2c-0.7,1.5-2.2,11.4,3.6,12.8c5.6,1.4,9.2,0,9.9-4.3c0.7-4.3,3.6-2.8,0-7c-3.5-4.3-5-8.6-7.8-6.4
		C466.3,326.4,463.5,329.2,463.5,329.2z"/>
	<path class="st8" d="M462.7,343.6c-0.7,1.5-2.2,11.4,3.6,12.8c5.6,1.4,9.2,0,9.9-4.3c0.7-4.3,3.6-2.8,0-7c-3.5-4.3-5-8.6-7.8-6.4
		C465.6,340.7,462.7,343.6,462.7,343.6z"/>
</g>
<g id="left_side">
	<g>
		<path class="st20" d="M185.5,163.1L389.1,377c-1.9-0.4-3.6-0.8-5.5-1.2c-1.3-0.4-2.6-0.6-3.9-0.9
			C239.2,341,197.2,214.2,185.9,164.6C185.7,164,185.6,163.6,185.5,163.1z"/>
		<path class="st21" d="M178.5,164.5c30.7,45.4,73,98.9,130.1,151.8c24.2,22.4,47.7,41.8,70.1,58.6c-1.4-0.3-3.3-0.7-5.4-1.2
			c-1.3-0.3-2.6-0.6-3.9-0.9c-137.4-34.2-179.4-158.3-190.8-206.8C178.7,165.4,178.6,164.9,178.5,164.5z"/>
	</g>
	<g>
		<g>
			<path class="st4" d="M271.4,297.9c22.2,22.2,43.6-16.9,11.6-30.2C281.9,267.2,249.2,275.7,271.4,297.9z M282.6,280.8
				c0,0,5.1,5.9,5.7,13.1c0.5,7.2-8.6,1.8-13.9-5C269.2,282.2,282.6,280.8,282.6,280.8z"/>
			<path class="st4" d="M257.1,308c0.1-0.1,0.1-0.1,0.2-0.2c0.5-0.6,0.9-1.2,1.3-1.8c1.3-1.6,2.5-3.1,3.3-4.3
				c0.7-1.1,1.3-2.2,1.5-3.2c0.2-0.8,0.1-1.5-0.2-2.3c-0.5-1.2-1.7-2.4-3.9-3.6l0,0c-0.5-0.2-1-0.5-1.6-0.8
				c-0.6-0.2-1.2-0.5-1.8-0.8l0,0c-2.2-0.9-4-1.7-5.7-2.2c-0.8-0.3-1.6-0.6-2.2-0.7c-1.2-0.3-2.1-0.5-3-0.7
				c-1.8-0.5-2.8-0.5-2.8-0.5s-0.1,0.1-0.4,0.4c-0.5,0.5-1.6,1.5-2.9,2.8l3,3c1.3-0.3,2.3-0.4,2.3-0.4s0,0,0.3,0.1
				c0.5,0.2,1.9,0.7,5.3,1.9c4,1.4,1.4,3.5-1,5.4l4.4,4.5c-0.1,0.2-0.1,0.4-0.2,0.6l0,0"/>
			<path class="st4" d="M248.9,249.7c1.6,0.6,3.2,1.2,4.6,1.4c1.6-0.9,3.5-1.5,5.4-2c0.6-0.8,1.1-1.8,1.6-3.3
				c2.7-8.6,4.1-10.9-0.3-16.8c-4.3-5.8-10.1-8.7-15.7-9.1c-4.3-0.4-7.1,1.1-6.5,10.7c0.5,7.2,0.3,11.6,2.9,14.5
				C243.9,247.3,250,245,248.9,249.7z M242.6,239.8c-5.9-5.2,2.7-6.9,7.4-8.3c0,0,3.5,5,3.2,13C252.9,252.4,248.5,244.9,242.6,239.8
				z"/>
			<path class="st11" d="M205.3,245.2c-1.9-1.5-3.7-5.2-3.4-8.3c0.4-5.5,5.1-8.4,6.7-8.3c0,0,2.7,6.9,1,13.8
				c3.9-2.8,13.1-13,18.2-23.6c5.6-11.6-2.9-8.1-8.9-13.3c-5.9-5.2-11.5-4.8-16.9-3.6c-5.5,1.2-5.8,10-5.9,31.5
				C195.7,248.1,201.4,247.3,205.3,245.2z"/>
			<path class="st4" d="M221.3,243.9c-13.6,0.7-5.9,7.6-2.1,17.3c3.9,9.8,12.4,7.2,14,7.4c0,0,6.9-3.5,13.4-14.2
				c1.2-2.1,1.9-3.6,2.2-4.7c-1.4-0.6-2.8-1.2-4.2-1.9c-1.7-0.7-2.9-1.6-3.8-2.7l0,0C237,242.6,234.7,243.2,221.3,243.9z"/>
			<path class="st22" d="M244.6,247.9c1.4,0.6,2.9,1.3,4.2,1.9c1.1-4.7-5-2.4-8-4.4C241.7,246.3,243,247.1,244.6,247.9z"/>
			<path class="st5" d="M253.5,251.1c-4.2,2.4-6.5,6.1-1.5,11.6c6.9,7.7,3.2,12.2,10.9,8.7c7.7-3.4,14.4,0.2,15.3-9.3
				c1-9.5,1-9.5,1-9.5s-13.4-5.4-20.3-3.6l0,0C257.5,250.9,255.6,251.4,253.5,251.1z"/>
			<path class="st22" d="M258.9,249.1c-1.9,0.5-3.7,1.2-5.4,2C255.6,251.4,257.5,250.9,258.9,249.1z"/>
			<path class="st14" d="M302,323L302,323c-0.5-0.2-0.8-0.4-0.8-0.4s-0.6,0-1.6,0.2c-1.8,0.3-4.9,0.9-7.4,2.6l0,0
				c-0.1,0.1-0.3,0.1-0.4,0.2c-1,0.7-1.9,1.5-2.6,2.6c-0.1,0.1-0.2,0.4-0.4,0.5l0,0c-0.9,1.7-1.4,3.7-1,6.3c0.2,1.3,0.6,2.8,1.2,4.4
				c0.1,0.2,0.2,0.5,0.3,0.8c0.1,0.1,0.1,0.2,0.2,0.3l0.1,0l10.9,11c-0.5,0.2-0.8,0.4-1,0.6c-0.1,0.1-0.2,0.3-0.2,0.5
				c0-0.1,0-0.3,0.2-0.5c0.2-0.2,0.6-0.4,1-0.6l2.7,2.7c0,0.3-0.2,0.6-0.2,0.9l0,0c-0.1,0.1,0,0.1-0.1,0.2c-0.1,0.5-0.1,1.1-0.1,1.8
				c0.5-0.5,0.9-1.1,1.5-1.7c0.1-0.1,0.2-0.4,0.4-0.6l0.1-0.1l0,0l0,0c1-1.4,2-2.8,2.8-4.2c0,0,0,0,0.1-0.1c0.4-0.5,0.6-1,0.9-1.5
				c0.1-0.1,0.1-0.1,0.1-0.2c1.8-3.2,2.8-6,2.8-9c0-0.7,0-1.4-0.1-2.3c-0.1-1.3-0.4-2.5-0.7-3.9c-0.1-0.3-0.2-0.7-0.3-1
				c-0.3-0.9-0.6-1.8-1-2.5l0,0C307.1,326,303.5,323.8,302,323z M306.3,339c0.3,4.8-0.6,3.1-3.6,5.3c-3,2.2-4.7,0.5-7.5-4.5
				c-0.1-0.3-0.3-0.5-0.3-0.8c-0.1-0.2-0.1-0.3-0.1-0.6l0,0c0-0.1,0-0.3,0-0.3c0-0.5,0.1-1.1,0.4-1.6c0.1-0.1,0.1-0.2,0.2-0.3
				l0.1-0.1l0,0c0.1-0.1,0.1-0.3,0.2-0.3c0.1-0.1,0.2-0.2,0.2-0.4c0.2-0.2,0.4-0.4,0.6-0.6l0,0l0,0c0.4-0.4,0.8-0.6,1.1-1
				c0.1-0.1,0.2-0.2,0.3-0.2l0.1-0.1c0.1-0.1,0.3-0.1,0.4-0.2l0.1-0.1c0.1-0.1,0.3-0.1,0.4-0.2c0.4-0.3,1-0.5,1.3-0.8
				c0.1-0.1,0.3-0.1,0.4-0.2c0.5-0.2,0.7-0.3,1-0.4c0.1-0.1,0.2-0.1,0.2-0.1c0.1-0.1,0.1-0.1,0.1,0l0,0l0.1-0.1l0,0
				C301.7,331.5,305.9,334.2,306.3,339z M301.8,355.8L301.8,355.8c-0.2-0.2-0.8-0.6-1.3-1.3C301.1,355.3,301.8,355.9,301.8,355.8
				L301.8,355.8z"/>
			<path class="st9" d="M277.2,321c9,3.1,13.1,4.9,13.4-3c0.3-8-0.7-11.2-0.7-11.2l-12.5-2C277.4,304.7,268.3,318,277.2,321z"/>
			<path class="st10" d="M192.6,230.8c3.1,5,2.6,9.5,0.3,12.8L167,217.7c-1-0.5-2-1.1-3.1-1.9c0.2-0.2,0.4-0.4,0.6-0.6
				c3.1-3.1,6.3-5.1,6.7-5c2.3,0.5,5,2.1,7.7,4.3C183.8,218.4,188.6,224.4,192.6,230.8z"/>
			<path class="st12" d="M208.3,228.6c-1.6-0.1-6.2,2.7-6.7,8.3c-0.3,3.1,1.5,6.8,3.4,8.3c1.8-0.9,3-2.2,3.3-2.3
				c0.3-0.1,0.6-0.3,1-0.5C211.1,235.6,208.3,228.6,208.3,228.6z"/>
			<path class="st12" d="M253.2,244.5c0.3-7.9-3.2-13-3.2-13c-4.7,1.3-13.4,3-7.4,8.3C248.5,244.9,252.9,252.4,253.2,244.5z"/>
			<path class="st12" d="M288.3,293.9c-0.5-7.2-5.7-13.1-5.7-13.1s-13.5,1.5-8.2,8.2C279.5,295.7,288.7,301.1,288.3,293.9z"/>
			<path class="st12" d="M249,299.9l-7-7c1.3-0.3,2.3-0.4,2.3-0.4s0,0,0.3,0.1c0.5,0.2,1.9,0.7,5.3,1.9
				C254,295.9,251.4,297.9,249,299.9z"/>
			<path class="st12" d="M301.8,331.5c0,0-9.3,3.4-6.7,8.3c2.7,4.9,4.4,6.6,7.5,4.5c3.1-2.1,3.9-0.5,3.6-5.3
				C305.9,334.2,301.8,331.5,301.8,331.5z"/>
		</g>
		<path class="st11" d="M326.2,381.4c9.7,11.1,13.6,15.6,11.9,18.8c-0.9,1.7-1.9,3.3-3.3,4.4l-17.9-18c-0.1-1.6-0.1-2.8,0-3.6
			c2.5,4.2,6.6,6.5,6.6,6.5c0.7-0.7,1.2-4.3-1.2-7.3c-1.3-1.7-3.7-2.8-5.1-2.7C317.7,376.7,319.5,373.7,326.2,381.4z"/>
		<path class="st4" d="M313.2,382.9l-2-2C312.3,381.4,313,382,313.2,382.9z"/>
		<path class="st6" d="M309.4,350.3c0,0-0.4-2.4-0.2-3.5c0.3-1.1,2-1.3,5.1-1.2c3.2,0,5.2,5.2,5.2,5.2c0.5,0,0.8-0.1,1.3-0.2
			c-0.3-1.1-0.1-2.3,0.3-3.3c-4.9-4.2-14.6-10.8-15.5-2.9C305.2,347.7,306.9,349.4,309.4,350.3z"/>
		<path class="st7" d="M314.2,345.7c-3.2,0.1-5,0.3-5.3,1.4c-0.3,1,0.1,3.6,0.1,3.6c3,0.9,7.2,0.6,10.3,0.2
			C319.4,350.9,317.4,345.6,314.2,345.7z"/>
		<path class="st8" d="M338.4,359.3c0,0-2.3-14.5-7.2-16.6c-3.1-1.3-8.6,0.9-10.2,4.7c-0.5,1-0.6,2.2-0.4,3.3c0.3,1.3,1,2.6,2.3,3.9
			C330.3,361.9,338.4,359.3,338.4,359.3z"/>
		<path class="st3" d="M295.4,326.9c0,0,7.1-3.3,6-8.2c0,0-8.2,2-10.4,0.3c-1.8-1.3-1.1-7-0.6-9c-1,0.3-1.7,0.9-2.2,2
			c-1.9,3.4-6.6,3.4-1.9,9.5C290.9,327.6,295.4,326.9,295.4,326.9z"/>
		<path class="st7" d="M291,319.1c2.2,1.6,10.4-0.3,10.4-0.3c-0.2-0.9-0.8-1.9-1.7-3c-4.1-4.6-7.2-6.2-9.5-5.7
			C290,312.1,289.2,317.7,291,319.1z"/>
		<path class="st3" d="M304.7,336.2c0,0,11.6-3.9,7.7-7.7c-3.8-3.8-10.4-0.4-15.7,1.1S299.7,336.5,304.7,336.2z"/>
		<path class="st10" d="M324.2,367.3c-3,3.7-2.5,11.6,4.5,13.9c6.9,2.3,14.5,3.2,17.6,0.8c0.6-0.4,1.6-14.5-5.4-16.8
			C334,362.9,327.3,363.5,324.2,367.3z"/>
		<path class="st12" d="M323.5,389.4c0.7-0.7,1.1-4.2-1.2-7.3c-1.3-1.7-3.7-2.8-5.1-2.7c-0.2,1.2-0.2,2.5-0.2,2.6
			c-0.1,0.2-0.1,0.4-0.2,0.7C319.3,387.1,323.5,389.4,323.5,389.4z"/>
		<path class="st23" d="M265.5,320.3l-0.1,0.2C265.5,320.4,265.6,320.4,265.5,320.3L265.5,320.3z"/>
	</g>
	<path class="st8" d="M184.1,150.2c0.7,2,0.7,3.2,0.7,3.2s-0.4,0.3-1.1,0.8c0.5,2.2,0.9,4.7,1.5,7.5c0.1,0.5,0.2,0.9,0.4,1.5
		c11.2,49.5,53.3,176.4,193.8,210.3c1.3,0.4,2.6,0.6,3.9,0.9c1.8,0.5,3.6,0.8,5.5,1.2c2.6,0.5,5.2,1,8,1.5c-1.1,0.7-2.4,1.6-4,2.6
		c-0.1,0.1-0.3,0.2-0.4,0.3l0,0c-0.3,0-0.5-0.1-0.7-0.1c-3.8-0.7-7.6-1.4-11.3-2.3C227,343,188.6,198.7,180.7,157.4
		c-2.6,2-9.1,6.4-11.7,3.9c-0.6-0.6-1.2-1.6-1.8-2.6c1.6-1.4,3.2-2.8,4.9-4.2c0,0,0-0.1-0.1-0.3c0.9-0.2,1.9-0.5,3.1-0.8
		c0,0-0.1-0.1,0-0.1c0,0,0,0,0.1,0.1c1.6-0.4,3.4-1,5.2-1.7C181.6,151.2,182.8,150.6,184.1,150.2z"/>
	<path class="st24" d="M136.7,243.9c-9.8,4.7-7.8,21.2,1.9,43.6c9.6,22.4,45.4,37.7,55.7,37.5c10.3-0.2,31.4-5.8,34.2-13.5
		c2.8-7.7-29.7-50.9-29.7-50.9s-12.3-12.3-27.9-18.3C155.4,236.2,146.5,239.2,136.7,243.9z"/>
	<path class="st25" d="M180.7,157.3c-2.6,2-9.1,6.4-11.7,3.9c-0.6-0.6-1.2-1.6-1.8-2.6c-1.4-2.8-2.5-6.6-3.5-9.4
		c-1.2,0.3-2.3,0.6-3.2,0.8c0,0.3,0.1,0.3,0.1,0.3c-79.8,64.9-21.6,169.9-21.6,169.9c50.7,90.6,117.5,105,170.6,97.4l0,0l0,0
		c0.5-0.2,12.9-4.9,30.9-14.7l0,0c11.6-6.3,25.5-14.7,39.9-25.3C227.1,343,188.6,198.6,180.7,157.3z M228.4,311.5
		c-2.8,7.7-23.9,13.3-34.2,13.5c-0.1,0-0.3,0-0.4,0c-0.3,0-0.5,0-0.8-0.1c-0.1,0-0.3,0-0.4,0c-0.2-0.1-0.4,0-0.6-0.1
		c0,0-0.1-0.1-0.1,0c-0.3,0-0.5,0-0.7-0.1c-0.3-0.1-0.7-0.1-1.1-0.2c-0.3-0.1-0.7-0.1-1.1-0.3c-0.6-0.1-1.2-0.3-1.8-0.5
		c-0.4-0.2-0.9-0.3-1.3-0.4c-0.2-0.1-0.4-0.2-0.7-0.2c-0.7-0.2-1.4-0.5-2.1-0.7c-0.5-0.2-0.9-0.3-1.5-0.5c-0.5-0.2-1-0.4-1.5-0.6
		c-0.3-0.2-0.5-0.2-0.8-0.3c-0.5-0.2-1-0.4-1.5-0.6c-1.6-0.7-3.1-1.4-4.8-2.2c-0.5-0.3-1.1-0.6-1.6-0.8c-0.5-0.3-1.1-0.6-1.6-0.9
		c-1.1-0.6-2.2-1.2-3.4-1.9c-0.5-0.3-1.1-0.6-1.7-1c-0.5-0.3-1.1-0.7-1.7-1c-0.7-0.4-1.3-0.8-2-1.3c-0.3-0.2-0.6-0.4-0.8-0.6
		c-0.3-0.2-0.8-0.5-1.1-0.7c-0.2-0.2-0.4-0.3-0.7-0.4c-0.1-0.1-0.1-0.1-0.1-0.1c-0.7-0.4-1.4-1-2-1.5c-0.3-0.2-0.6-0.5-1-0.7
		c-0.6-0.5-1.3-1-1.8-1.4c-0.6-0.4-1.1-0.9-1.6-1.4c-0.4-0.4-0.8-0.7-1.2-1.1l-0.1-0.1c-0.2-0.2-0.4-0.4-0.6-0.6s-0.4-0.4-0.6-0.6
		c-2.8-2.7-5.4-5.6-7.4-8.7l0,0c-1.3-1.9-2.5-4-3.4-6.1c-0.5-1.3-1.1-2.6-1.6-3.9c-0.2-0.6-0.5-1.3-0.8-1.9c-0.7-1.7-1.3-3.4-1.8-5
		c-0.2-0.5-0.3-1.1-0.6-1.6c-0.2-0.5-0.3-1.1-0.5-1.6c-0.1-0.5-0.3-0.9-0.4-1.4c-0.2-0.5-0.3-1.1-0.5-1.6c-0.1-0.3-0.2-0.7-0.3-1
		l0,0c-0.2-0.8-0.4-1.5-0.5-2.3c-0.1-0.5-0.2-0.9-0.3-1.4c-0.4-2-0.7-3.8-0.8-5.5c-0.1-0.9-0.1-1.7-0.2-2.5c-0.1-0.8,0-1.6,0-2.3
		c0-0.3,0-0.6,0.1-0.9c0-0.3,0.1-0.5,0.1-0.8c0.1-0.2,0.1-0.5,0.2-0.7c0-0.3,0.1-0.5,0.1-0.8c0-0.3,0.1-0.7,0.3-1
		c0.1-0.3,0.2-0.6,0.2-0.8c0.1-0.2,0.1-0.4,0.2-0.6c0.2-0.6,0.5-1.2,0.8-1.6c0.1-0.1,0.1-0.3,0.2-0.4c0.1-0.1,0.1-0.1,0.1-0.3
		c0.1-0.1,0.1-0.1,0.1-0.1c0.1-0.1,0.1-0.1,0.1-0.1c0.1-0.1,0.2-0.2,0.2-0.4c0.1-0.1,0.1-0.1,0.1-0.1c0.1-0.1,0.1-0.1,0.1-0.1
		c0.1-0.1,0.2-0.2,0.3-0.3c0.4-0.4,0.7-0.7,1.1-1.1c0.1-0.1,0.1-0.1,0.1-0.1l0.1-0.1l0,0c0.1-0.1,0.1-0.1,0.1-0.1
		c0.4-0.2,0.7-0.5,1.1-0.7l0.1-0.1c0,0,0,0,0.1-0.1l0,0c0.2-0.1,0.4-0.2,0.6-0.3l0,0c0.5-0.2,0.9-0.5,1.3-0.6
		c0.3-0.2,0.7-0.3,1.1-0.5c0.5-0.2,0.8-0.3,1.2-0.5c0.3-0.1,0.6-0.3,0.9-0.3c0.3-0.2,0.6-0.2,1-0.4c0.3-0.1,0.6-0.2,0.9-0.3
		c0.3-0.1,0.6-0.2,0.9-0.3c0.3-0.1,0.6-0.2,0.9-0.3c0.3-0.1,0.6-0.2,1-0.3s0.6-0.2,1-0.3c0.6-0.2,1.3-0.3,1.9-0.5
		c0.3,0,0.7-0.1,1-0.1c0.3,0,0.7-0.1,1-0.1c0.3,0,0.7-0.1,1-0.1c0.7-0.1,1.4-0.1,2.1-0.1c0.3,0,0.6,0,0.9,0c0.1,0,0.3,0,0.5,0
		c0.3,0,0.4,0,0.7,0c0.4,0,0.8,0.1,1.3,0c0.4,0,0.8,0.1,1.1,0.1c1.9,0.2,3.9,0.5,6,1.1c1,0.3,2.1,0.5,3.3,1c0.5,0.2,1.1,0.4,1.7,0.6
		c0.3,0.2,0.6,0.2,0.9,0.3c0.3,0.2,0.6,0.2,0.9,0.3c0.7,0.2,1.4,0.6,2.2,0.9c0.4,0.2,0.7,0.3,1.1,0.5c0.7,0.3,1.4,0.7,2.1,1
		c0.3,0.2,0.7,0.3,1,0.5c0.7,0.3,1.3,0.7,2,1.1c0.9,0.5,1.7,1,2.6,1.5c0.5,0.3,1,0.7,1.6,1c0.4,0.3,0.9,0.5,1.3,0.8
		c1.1,0.7,2.2,1.5,3.2,2.2c0.6,0.5,1.2,0.9,1.8,1.3c0.4,0.3,0.8,0.6,1.2,0.9c0.2,0.2,0.5,0.4,0.7,0.6c0.2,0.2,0.5,0.4,0.6,0.5
		c0.2,0.2,0.4,0.3,0.6,0.5c0.1,0.1,0.2,0.2,0.4,0.3c0.2,0.2,0.6,0.4,0.8,0.6c0.2,0.2,0.5,0.4,0.7,0.6s0.5,0.4,0.7,0.6
		c0.2,0.2,0.4,0.4,0.6,0.5c0.2,0.2,0.4,0.4,0.5,0.5c0.1,0.1,0.1,0.1,0.2,0.2c0.1,0.1,0.2,0.2,0.4,0.4c0.1,0.1,0.1,0.1,0.1,0.1
		c0.1,0.1,0.1,0.1,0.1,0.1c0.8,0.8,1.2,1.2,1.2,1.2S231.3,303.7,228.4,311.5z M163.8,149.1L163.8,149.1c0-0.1,0-0.3-0.1-0.3
		C163.7,148.8,163.7,148.9,163.8,149.1z"/>
	<path class="st26" d="M400.6,381.4c-0.4,0.4-0.7,0.7-1.1,1.1c0,0-38.7,27.9-89.9,35.1c0.5-0.2,12.9-4.9,30.9-14.7l0,0
		c11.6-6.3,25.5-14.7,39.9-25.3c3.9,0.9,7.9,1.7,12,2.5l0,0C395,380.5,397.8,381,400.6,381.4z"/>
	<path class="st25" d="M383.4,374.5c1.8,0.5,3.6,0.8,5.5,1.2l3.9,4l0.5,0.5c-0.5,0-1.1-0.2-1.6-0.4c-3.2-0.9-7.3-3-12.1-6.3
		C380.8,373.9,382.1,374.2,383.4,374.5z"/>
</g>
</svg>
