<?xml version="1.0" encoding="utf-8"?>
<!-- Generator: Adobe Illustrator 22.1.0, SVG Export Plug-In . SVG Version: 6.00 Build 0)  -->
<svg version="1.1" id="Layer_1" xmlns="http://www.w3.org/2000/svg" xmlns:xlink="http://www.w3.org/1999/xlink" x="0px" y="0px"
	 viewBox="0 0 443 270.6" style="enable-background:new 0 0 443 270.6;" xml:space="preserve">
<style type="text/css">
	.st0{fill:#830813;}
	.st1{fill:#C51628;}
	.st2{fill:#55070A;}
	.st3{fill:#F19998;}
	.st4{fill:#72141D;}
	.st5{fill:#9C0110;}
	.st6{fill:#5C0D1A;}
	.st7{fill:#CA0007;}
	.st8{fill:#DF454C;}
	.st9{fill:#EBA59E;}
	.st10{fill:#820100;}
	.st11{fill:#370401;}
	.st12{fill:#AC0C06;}
	.st13{fill:#CD6F6D;}
	.st14{fill:#AA0510;}
	.st15{fill:none;stroke:#72141D;stroke-width:0.7112;stroke-miterlimit:10;}
	.st16{fill:#F0948F;}
	.st17{fill:#F3C0AB;}
	.st18{fill:#2C0A0A;}
	.st19{fill:none;stroke:#72141D;stroke-width:0.7984;stroke-miterlimit:10;}
	.st20{fill:none;stroke:#72141D;stroke-width:0.5079;stroke-miterlimit:10;}
	.st21{fill:#D61D45;}
	.st22{fill:#D01128;}
	.st23{fill:#8D171D;}
</style>
<g>
	<path class="st0" d="M282.3,134.2c-0.7,12.3,6,6.8,14.9,5.4c8.9-1.4,7.4-9.6,7.6-11c0,0-2.4-6.8-11.2-14.8c-1.8-1.5-3-2.5-4-2.9
		c-0.7,1.1-1.3,2.2-1.9,3.4c-0.7,1.4-1.6,2.3-2.6,3l0,0C282.7,120.1,282.9,122.2,282.3,134.2z"/>
	<path class="st0" d="M420.5,174c-0.7,12.3,6,6.8,14.9,5.4c8.9-1.4,7.4-9.6,7.6-11c0,0-2.4-6.8-11.2-14.8c-1.8-1.5-3-2.5-4-2.9
		c-0.7,1.1-1.3,2.2-1.9,3.4c-0.7,1.4-1.6,2.3-2.6,3l0,0C420.8,159.9,421.1,161.9,420.5,174z"/>
	<path class="st1" d="M294.5,171.9c1.6,4.2,4.8,7.1,10,3.7c7.4-4.5,10.8-0.4,8.6-8c-2.3-7.7,1.5-12.8-6.7-15.5c-8-2.8-8-2.8-8-2.8
		s-5.9,10.8-5,17.3l0,0C294.7,168.4,294.9,170.1,294.5,171.9z"/>
	<path class="st1" d="M318.4,183.7c1.6,4.2,4.8,7.1,10,3.7c7.4-4.5,10.8-0.4,8.6-8c-2.3-7.7,1.5-12.8-6.7-15.5c-8-2.8-8-2.8-8-2.8
		s-5.9,10.8-5,17.3l0,0C318.6,180.1,318.9,181.8,318.4,183.7z"/>
	<g>
		<path class="st2" d="M284.2,83.6c0,0,2.2-2.7,3.5-3.4c1.3-0.7,3.4,0.7,6.7,3.6c3.4,2.9,0.1,9.5,0.1,9.5c0.6,0.3,1,0.7,1.6,1
			c0.9-1.4,2.3-2.3,3.7-2.8c-0.8-8.4-4.2-23.5-13.5-16.9C282.5,77.2,282.4,80.4,284.2,83.6z"/>
		<path class="st3" d="M294.1,83.7c-3.6-2.8-5.6-4.2-7.2-3.6c-1.5,0.7-3.7,3.4-3.7,3.4c2.2,3.7,7,7.3,10.9,9.6
			C294.2,93.2,297.7,86.6,294.1,83.7z"/>
	</g>
	<g>
		<path class="st2" d="M282.3,163.5c0,0,2.3,2.6,2.8,4c0.5,1.4-1.3,3.2-4.7,6c-3.4,2.9-9.4-1.6-9.4-1.6c-0.4,0.5-0.9,0.9-1.3,1.4
			c1.2,1.1,1.9,2.7,2.1,4.1c8.4,0.6,23.9-0.1,19-10.4C288.9,162.8,285.7,162.3,282.3,163.5z"/>
		<path class="st3" d="M280.5,173.3c3.4-3.1,5.1-4.8,4.8-6.5c-0.4-1.6-2.7-4.2-2.7-4.2c-4,1.5-8.4,5.7-11.4,9
			C271.2,171.7,277,176.3,280.5,173.3z"/>
	</g>
	<g>
		<path class="st4" d="M276.3,147.7c0,0,13.2,15.2,20.1,13.5c4.4-1.2,8.6-8.8,7.7-14.6c-0.2-1.7-0.9-3.2-2-4.4
			c-1.2-1.3-3.1-2.1-5.4-2.6C283.1,137.3,276.3,147.7,276.3,147.7z"/>
	</g>
	<path class="st5" d="M378.1,151.8c0,0-9.7,14.9-2.7,16.2c6.9,1.2,11.6-8.9,16.4-15.3C396.4,146.3,383.2,146.8,378.1,151.8z"/>
	<path class="st5" d="M333,156.9c0,0-9.7,14.9-2.7,16.2c6.9,1.2,11.6-8.9,16.4-15.3C351.3,151.3,338.2,152,333,156.9z"/>
	<path class="st5" d="M368.9,166.8c0,0-9.7,14.9-2.7,16.2c6.9,1.2,11.6-8.9,16.4-15.3C387.2,161.2,374.1,161.9,368.9,166.8z"/>
	<path class="st6" d="M378.3,176.9c0,0-0.7,16.4,8.5,13c9.3-3.5,14-2.7,12.4-9.5s-1-11.6-8.3-10C383.5,172,378.3,176.9,378.3,176.9z
		"/>
	<path class="st6" d="M374.5,171.3c0,0-0.7,16.4,8.5,13c9.3-3.5,14-2.7,12.4-9.5c-1.7-6.8-1-11.6-8.3-10
		C379.7,166.4,374.5,171.3,374.5,171.3z"/>
	<path class="st6" d="M412.6,186.9c3.4-7.2,5.5-10.6-1.5-12.4c-6.9-1.9-9.7-1.6-9.7-1.6l-2.8,10.7
		C398.5,183.6,409.2,194.3,412.6,186.9z"/>
	<g>
		<path class="st7" d="M335,143.7c0.5-7.1-5.9-16.1-15.1-12.7c-9.3,3.5-18.1,9.2-19.7,14.7c-0.4,1,9,18.8,18.3,15.5
			C327.5,157.6,334.4,151,335,143.7z"/>
	</g>
	<g>
		<path class="st8" d="M340.6,176.2c-1.5,1.4-4.9,2.2-7.6,1.5c-4.7-1.5-6.9-6.2-6.6-7.6c0,0,6.3-1,12.1,1.8
			c-2-4.1-10.1-14.3-18.9-21.2c-9.6-7.4-7.4,0.9-12.3,5.1c-5,4.2-5.2,9.3-4.6,14.3c0.5,5.2,8.2,7.2,26.9,11.8
			C342.2,185.2,342.1,180,340.6,176.2z"/>
		<path class="st9" d="M326.5,169.9c-0.2,1.4,1.8,6,6.6,7.6c2.6,0.8,6,0.1,7.6-1.5c-0.7-1.7-1.6-3.2-1.8-3.3c-0.2-0.2-0.1-0.5-0.3-1
			C332.8,169,326.5,169.9,326.5,169.9z"/>
	</g>
	<g>
		<path class="st0" d="M232.3,136.3c0.7-1.3,1.3-2.5,1.6-3.9c-0.6-1.6-1-3.5-1.2-5.2c-0.6-0.6-1.5-1.4-2.7-2.1
			c-7.3-4.2-9-5.9-14.6-3.2c-5.4,2.6-8.4,7.2-9.3,12.1c-0.7,3.8,0.3,6.5,8.8,8c6.3,1.1,10.1,2.2,12.9,0.5
			C229.8,140.2,228.4,134.3,232.3,136.3z M223.1,139.8c-5,4.2-5.8-3.8-6.6-8.3c0,0,4.6-2.1,11.6-0.3
			C235,133.2,228.1,135.7,223.1,139.8z"/>
		<path class="st9" d="M228,131.4c-6.9-1.9-11.6,0.3-11.6,0.3c0.7,4.4,1.5,12.4,6.6,8.3C228.1,135.7,235,133.2,228,131.4z"/>
	</g>
	<g>
		<path class="st0" d="M285.4,163.2c0.7-1.3,1.3-2.5,1.6-3.9c-0.6-1.6-1-3.5-1.2-5.2c-0.6-0.6-1.5-1.4-2.7-2.1
			c-7.3-4.2-9-5.9-14.6-3.2c-5.4,2.6-8.4,7.2-9.3,12.1c-0.7,3.8,0.3,6.5,8.8,8c6.3,1.1,10.1,2.2,12.9,0.5
			C282.9,167.1,281.5,161.1,285.4,163.2z M276.3,166.7c-5,4.2-5.8-3.8-6.6-8.3c0,0,4.6-2.1,11.6-0.3
			C288.3,160.1,281.3,162.6,276.3,166.7z"/>
		<path class="st9" d="M281.3,158.2c-6.9-1.9-11.6,0.3-11.6,0.3c0.7,4.4,1.5,12.4,6.6,8.3C281.3,162.6,288.3,160.1,281.3,158.2z"/>
	</g>
	<g>
		<path class="st0" d="M336.5,226.5c21.3-15.1-10.9-42.2-25.3-16.6C310.8,210.8,315.2,241.7,336.5,226.5z M322.6,212.9
			c0,0,5.6-3.3,11.9-2.3c6.3,1.1,0.8,7.9-5.6,11.2C322.7,225.2,322.6,212.9,322.6,212.9z"/>
		<path class="st9" d="M334.6,210.6c-6.3-1.1-11.9,2.3-11.9,2.3s0.2,12.2,6.4,9C335.3,218.6,340.9,211.7,334.6,210.6z"/>
	</g>
	<g>
		<path class="st0" d="M406.1,175.8c21.3-15.1-10.9-42.2-25.3-16.6C380.3,160.1,384.8,190.9,406.1,175.8z M392.2,162.2
			c0,0,5.6-3.3,11.9-2.3c6.3,1.1,0.8,7.9-5.6,11.2C392.3,174.5,392.2,162.2,392.2,162.2z"/>
		<path class="st9" d="M404.2,159.9c-6.3-1.1-11.9,2.3-11.9,2.3s0.2,12.2,6.4,9C405,168,410.3,161,404.2,159.9z"/>
	</g>
	<g>
		<path class="st0" d="M380,154.1c21.3-15.1-10.9-42.2-25.3-16.6C354.2,138.3,358.7,169.1,380,154.1z M366,140.5
			c0,0,5.6-3.3,11.9-2.3c6.3,1.1,0.8,7.9-5.6,11.2C366.2,152.7,366,140.5,366,140.5z"/>
		<path class="st9" d="M378,138.2c-6.3-1.1-11.9,2.3-11.9,2.3s0.2,12.2,6.4,9C378.7,146.3,384.3,139.3,378,138.2z"/>
	</g>
	<g>
		<path class="st0" d="M374.7,158.3c-6-6.8-8.9-11.6-13.8-3.8c-5,7.9-5.8,12.6-5.8,12.6s10.8,17,14,14.7
			C372.4,179.6,380.6,165,374.7,158.3z M368.9,166.6c1.9,1.7,0.2,7.1-4.3,7.9c-4.4,0.7-4.4-8-4.4-8s0,0,2.2-4.7
			C364.6,157.3,367.1,165,368.9,166.6z"/>
		<path class="st9" d="M362.4,162c-2.2,4.7-2.2,4.7-2.2,4.7s0,8.5,4.4,8c4.4-0.7,6.1-6.3,4.3-7.9C367.1,165,364.7,157.3,362.4,162z"
			/>
	</g>
	<g>
		<path class="st10" d="M354.3,130.1c-0.1-7.9-9.3-13.1-12.3-12.2c-3,0.9-6.6,9-6.6,9s-5.4,19.3,2.1,21.2
			C344.9,150.1,354.4,138.1,354.3,130.1z M338.7,141.2c-2.5-2.6,0.3-10.8,0.3-10.8s4.4-0.7,4.9,0.8c0.6,1.5,0.4,5.8,0.8,7.9
			C345,141.4,341.1,143.7,338.7,141.2z"/>
		<path class="st9" d="M344.7,139.4c-0.3-2.2-0.3-6.5-0.8-7.9c-0.4-1.6-4.9-0.8-4.9-0.8s-2.8,8-0.3,10.8
			C341.1,143.7,345.1,141.5,344.7,139.4z"/>
	</g>
	<g>
		<path class="st11" d="M359.2,97c-7.1,0.2-10.4,6.1-10.4,6.1s-0.9,17.8,14.9,14.1c15.8-3.9,20.1-3.7,13.5-10.6
			C370.4,99.7,366.6,96.8,359.2,97z M367.8,106.4c1.6,3.2,0,4.4-4.5,5.6s-6.6-7.6-6.6-7.6s2.7-3.1,6.8-2.4
			C367.7,102.8,366.2,103.1,367.8,106.4z"/>
		<path class="st9" d="M356.6,104.6c0,0,2.1,9.1,6.6,7.6c4.5-1.5,6.2-2.5,4.5-5.6c-1.6-3.2-0.1-3.6-4.2-4.3
			C359.3,101.5,356.6,104.6,356.6,104.6z"/>
	</g>
	<g>
		<path class="st11" d="M226.5,83c-7.1,0.2-10.4,6.1-10.4,6.1s-0.9,17.8,14.9,14.1c15.8-3.9,20.1-3.7,13.5-10.6
			C237.6,85.7,233.8,82.9,226.5,83z M235,92.5c1.6,3.2,0,4.4-4.5,5.6c-4.5,1.3-6.6-7.6-6.6-7.6s2.7-3.1,6.8-2.4
			C234.9,88.9,233.4,89.3,235,92.5z"/>
		<path class="st9" d="M223.8,90.6c0,0,2.1,9.1,6.6,7.6c4.5-1.5,6.2-2.5,4.5-5.6c-1.7-3.1-0.1-3.6-4.2-4.3
			C226.4,87.5,223.8,90.6,223.8,90.6z"/>
	</g>
	<g>
		<path class="st11" d="M325.3,94.4c-7.1,0.2-10.4,6.1-10.4,6.1s-0.9,17.8,14.9,14.1s20.1-3.7,13.5-10.6
			C336.6,97.1,332.5,94.3,325.3,94.4z M333.8,103.7c1.6,3.2,0,4.4-4.5,5.6c-4.5,1.3-6.6-7.6-6.6-7.6s2.7-3.1,6.8-2.4
			C333.7,100.2,332.2,100.7,333.8,103.7z"/>
		<path class="st9" d="M322.6,102c0,0,2.1,9.1,6.6,7.6c4.5-1.5,6.2-2.5,4.5-5.6c-1.6-3.2-0.1-3.6-4.2-4.3
			C325.3,98.8,322.6,102,322.6,102z"/>
	</g>
	<g>
		<path class="st12" d="M322.6,147.6c0.2,1-1.7,7.3-2.2,12.9c0.9-2.2,2.9-4.8,3-5.5c0,0,3.8-1.5,6.5-0.3c2.7,1.2,1.1,1.6-0.8,4.9
			c-2,3.3-2.3,5.3-7.3,4.6c-0.8-0.1-1.1-0.4-1.6-0.8c0.1,2.4,0.7,4.3,2.2,5.1c5.3,3,9.7-1.3,13.2-10c3.7-8.7,8.7-18-0.7-16.7
			C325.6,142.9,322.6,147.6,322.6,147.6z"/>
		<path class="st13" d="M329.3,159.5c2-3.3,3.5-3.7,0.8-4.9c-2.6-1.3-6.5,0.3-6.5,0.3c-0.1,0.8-2.1,3.4-3,5.5c-0.1,1-0.1,2-0.1,2.9
			c0.3,0.5,0.7,0.6,1.6,0.8C327,164.8,327.4,162.8,329.3,159.5z"/>
	</g>
	<g>
		<path class="st14" d="M348.4,147.7c3-4.1,3-4.1,3-4.1l-0.4-0.2c0,0,5.4,0.4,4.9,2.4c-0.4,2.2-5.2,9.3-8.1,9
			c-2.1-0.2-2.5-2-1.2-4.7c-2.7,4.3-4.7,8.2-4.7,9.8c0,3.6,20.1-11.6,22.6-16.8c2.4-5.4-1.5-11.2-7.9-7.9c0,0-4.4,6.3-8.3,12.7
			C348.2,148,348.3,147.9,348.4,147.7z"/>
		<path class="st15" d="M346.7,150.5c0.4-0.8,1-1.7,1.3-2.5C347.6,149,347.1,149.8,346.7,150.5z"/>
		<path class="st16" d="M347.9,155.1c2.8,0.2,7.8-7,8-9.1c0.4-2.2-5-2.5-5-2.5l0.4,0.2c0,0,0,0-2.9,4c-0.1,0.1-0.1,0.2-0.2,0.3
			c-0.4,0.8-1,1.7-1.3,2.5C345.4,153.2,345.8,155.1,347.9,155.1z"/>
	</g>
	<g>
		<path class="st8" d="M363,109.4c-5.3-2.3-17.5,5.7-11.6,25.4c6,19.7,19.1-1.7,19.1-1.7c0.4-0.5,0.8-1.5,0.8-2.7l-2.4-0.6
			c0,0-3.9-2.1-7.9-5s-4-5.7-1.2-10.2c2.8-4.6,7.4-0.1,7.4-0.1l3.9,15.7C371.6,124,367.4,111.3,363,109.4z"/>
		<path class="st15" d="M371.4,130.5l-0.1-0.2C371.3,130.2,371.3,130.4,371.4,130.5L371.4,130.5z"/>
		<path class="st3" d="M359.9,114.5c-2.9,4.5-2.7,7.5,1.2,10.2c3.9,2.8,7.9,5,7.9,5l2.4,0.6c0-0.2,0-0.2,0.1-0.3l-3.9-15.7
			C367.4,114.6,362.9,110,359.9,114.5z"/>
	</g>
	<g>
		<path class="st8" d="M239.1,159.3c-5.3-2.3-17.5,5.7-11.6,25.4c6,19.7,19.1-1.7,19.1-1.7c0.4-0.5,0.8-1.5,0.8-2.7l-2.4-0.6
			c0,0-3.9-2.1-7.9-5c-3.9-2.8-4-5.7-1.2-10.2c2.8-4.6,7.4-0.1,7.4-0.1l3.9,15.7C247.6,174,243.4,161.2,239.1,159.3z"/>
		<path class="st15" d="M247.4,180.3l-0.1-0.2C247.3,180.1,247.3,180.2,247.4,180.3L247.4,180.3z"/>
		<path class="st3" d="M235.9,164.5c-2.9,4.5-2.7,7.5,1.2,10.2s7.9,5,7.9,5l2.4,0.6c0-0.2,0-0.2,0.1-0.3l-3.9-15.7
			C243.4,164.5,238.9,159.9,235.9,164.5z"/>
	</g>
	<g>
		<path class="st8" d="M348.3,121.9c2.3-5.3-5.7-17.5-25.4-11.6c-19.7,6,1.7,19.1,1.7,19.1c0.5,0.4,1.5,0.8,2.7,0.8l0.6-2.4
			c0,0,2.1-3.9,5-7.9c2.8-3.9,5.7-4,10.2-1.2s0.1,7.4,0.1,7.4l-15.7,4C333.5,130.3,346.2,126.3,348.3,121.9z"/>
		<path class="st15" d="M327.2,130.2l0.2-0.1C327.3,130.1,327.2,130.2,327.2,130.2L327.2,130.2z"/>
		<path class="st3" d="M342.9,118.8c-4.5-2.9-7.5-2.7-10.2,1.2c-2.8,3.9-5,7.9-5,7.9l-0.6,2.4c0.2,0,0.2,0,0.3,0.1l15.7-3.9
			C343,126.2,347.5,121.8,342.9,118.8z"/>
	</g>
	<path class="st4" d="M335.6,170.7c-0.9,1.4-4.1,10.9,1.4,13.2c5.3,2.3,9.1,1.5,10.5-2.6c1.4-4.1,4-2.2,1.2-6.9
		c-2.7-4.8-3.5-9.3-6.6-7.6C338.9,168.4,335.6,170.7,335.6,170.7z"/>
	<path class="st4" d="M351.1,154.5c-0.9,1.4-4.1,10.9,1.4,13.2c5.3,2.3,9.1,1.5,10.5-2.6c1.4-4.1,4-2.2,1.2-6.9
		c-2.7-4.8-3.5-9.3-6.6-7.6C354.3,152.2,351.1,154.5,351.1,154.5z"/>
	<path class="st4" d="M347.9,168.6c-0.9,1.4-4.1,10.9,1.4,13.2c5.3,2.3,9.1,1.5,10.5-2.6c1.4-4.1,4-2.2,1.2-6.9
		c-2.7-4.8-3.5-9.3-6.6-7.6C351.2,166.2,347.9,168.6,347.9,168.6z"/>
</g>
<g id="left_side">
	<g>
		<path class="st17" d="M67,14.3l203.6,213.9c-1.9-0.4-3.6-0.8-5.5-1.2c-1.3-0.4-2.6-0.6-3.9-0.9C120.7,192.2,78.7,65.4,67.4,15.8
			C67.2,15.2,67.1,14.8,67,14.3z"/>
		<path class="st18" d="M60,15.7c30.7,45.4,73,98.9,130.1,151.8c24.2,22.4,47.7,41.8,70.1,58.6c-1.4-0.3-3.3-0.7-5.4-1.2
			c-1.3-0.3-2.6-0.6-3.9-0.9C113.5,189.8,71.5,65.7,60.1,17.2C60.2,16.6,60.1,16.1,60,15.7z"/>
	</g>
	<g>
		<g>
			<path class="st0" d="M152.9,149.1c22.2,22.2,43.6-16.9,11.6-30.2C163.4,118.4,130.7,126.9,152.9,149.1z M164.1,132
				c0,0,5.1,5.9,5.7,13.1c0.5,7.2-8.6,1.8-13.9-5C150.7,133.4,164.1,132,164.1,132z"/>
			<path class="st0" d="M138.6,159.2c0.1-0.1,0.1-0.1,0.2-0.2c0.5-0.6,0.9-1.2,1.3-1.8c1.3-1.6,2.5-3.1,3.3-4.3
				c0.7-1.1,1.3-2.2,1.5-3.2c0.2-0.8,0.1-1.5-0.2-2.3c-0.5-1.2-1.7-2.4-3.9-3.6l0,0c-0.5-0.2-1-0.5-1.6-0.8
				c-0.6-0.2-1.2-0.5-1.8-0.8l0,0c-2.2-0.9-4-1.7-5.7-2.2c-0.8-0.3-1.6-0.6-2.2-0.7c-1.2-0.3-2.1-0.5-3-0.7
				c-1.8-0.5-2.8-0.5-2.8-0.5s-0.1,0.1-0.4,0.4c-0.5,0.5-1.6,1.5-2.9,2.8l3,3c1.3-0.3,2.3-0.4,2.3-0.4s0,0,0.3,0.1
				c0.5,0.2,1.9,0.7,5.3,1.9c4,1.4,1.4,3.5-1,5.4l4.4,4.5c-0.1,0.2-0.1,0.4-0.2,0.6l0,0"/>
			<path class="st0" d="M130.4,100.9c1.6,0.6,3.2,1.2,4.6,1.4c1.6-0.9,3.5-1.5,5.4-2c0.6-0.8,1.1-1.8,1.6-3.3
				c2.7-8.6,4.1-10.9-0.3-16.8c-4.3-5.8-10.1-8.7-15.7-9.1c-4.3-0.4-7.1,1.1-6.5,10.7c0.5,7.2,0.3,11.6,2.9,14.5
				C125.4,98.5,131.5,96.2,130.4,100.9z M124.1,91c-5.9-5.2,2.7-6.9,7.4-8.3c0,0,3.5,5,3.2,13C134.4,103.6,130,96.1,124.1,91z"/>
			<path class="st8" d="M86.8,96.4c-1.9-1.5-3.7-5.2-3.4-8.3c0.4-5.5,5.1-8.4,6.7-8.3c0,0,2.7,6.9,1,13.8c3.9-2.8,13.1-13,18.2-23.6
				c5.6-11.6-2.9-8.1-8.9-13.3c-5.9-5.2-11.5-4.8-16.9-3.6c-5.5,1.2-5.8,10-5.9,31.5C77.2,99.3,82.9,98.5,86.8,96.4z"/>
			<path class="st0" d="M102.8,95.1c-13.6,0.7-5.9,7.6-2.1,17.3c3.9,9.8,12.4,7.2,14,7.4c0,0,6.9-3.5,13.4-14.2
				c1.2-2.1,1.9-3.6,2.2-4.7c-1.4-0.6-2.8-1.2-4.2-1.9c-1.7-0.7-2.9-1.6-3.8-2.7l0,0C118.5,93.8,116.2,94.4,102.8,95.1z"/>
			<path class="st19" d="M126.1,99.1c1.4,0.6,2.9,1.3,4.2,1.9c1.1-4.7-5-2.4-8-4.4C123.2,97.5,124.5,98.3,126.1,99.1z"/>
			<path class="st1" d="M135,102.3c-4.2,2.4-6.5,6.1-1.5,11.6c6.9,7.7,3.2,12.2,10.9,8.7c7.7-3.4,14.4,0.2,15.3-9.3
				c1-9.5,1-9.5,1-9.5s-13.4-5.4-20.3-3.6l0,0C139,102.1,137.1,102.6,135,102.3z"/>
			<path class="st19" d="M140.4,100.3c-1.9,0.5-3.7,1.2-5.4,2C137.1,102.6,139,102.1,140.4,100.3z"/>
			<path class="st11" d="M183.5,174.2L183.5,174.2c-0.5-0.2-0.8-0.4-0.8-0.4s-0.6,0-1.6,0.2c-1.8,0.3-4.9,0.9-7.4,2.6l0,0
				c-0.1,0.1-0.3,0.1-0.4,0.2c-1,0.7-1.9,1.5-2.6,2.6c-0.1,0.1-0.2,0.4-0.4,0.5l0,0c-0.9,1.7-1.4,3.7-1,6.3c0.2,1.3,0.6,2.8,1.2,4.4
				c0.1,0.2,0.2,0.5,0.3,0.8c0.1,0.1,0.1,0.2,0.2,0.3h0.1l10.9,11c-0.5,0.2-0.8,0.4-1,0.6c-0.1,0.1-0.2,0.3-0.2,0.5
				c0-0.1,0-0.3,0.2-0.5s0.6-0.4,1-0.6l2.7,2.7c0,0.3-0.2,0.6-0.2,0.9l0,0c-0.1,0.1,0,0.1-0.1,0.2c-0.1,0.5-0.1,1.1-0.1,1.8
				c0.5-0.5,0.9-1.1,1.5-1.7c0.1-0.1,0.2-0.4,0.4-0.6l0.1-0.1l0,0l0,0c1-1.4,2-2.8,2.8-4.2c0,0,0,0,0.1-0.1c0.4-0.5,0.6-1,0.9-1.5
				c0.1-0.1,0.1-0.1,0.1-0.2c1.8-3.2,2.8-6,2.8-9c0-0.7,0-1.4-0.1-2.3c-0.1-1.3-0.4-2.5-0.7-3.9c-0.1-0.3-0.2-0.7-0.3-1
				c-0.3-0.9-0.6-1.8-1-2.5l0,0C188.6,177.2,185,175,183.5,174.2z M187.8,190.2c0.3,4.8-0.6,3.1-3.6,5.3c-3,2.2-4.7,0.5-7.5-4.5
				c-0.1-0.3-0.3-0.5-0.3-0.8c-0.1-0.2-0.1-0.3-0.1-0.6l0,0c0-0.1,0-0.3,0-0.3c0-0.5,0.1-1.1,0.4-1.6c0.1-0.1,0.1-0.2,0.2-0.3
				l0.1-0.1l0,0c0.1-0.1,0.1-0.3,0.2-0.3c0.1-0.1,0.2-0.2,0.2-0.4c0.2-0.2,0.4-0.4,0.6-0.6l0,0l0,0c0.4-0.4,0.8-0.6,1.1-1
				c0.1-0.1,0.2-0.2,0.3-0.2l0.1-0.1c0.1-0.1,0.3-0.1,0.4-0.2l0.1-0.1c0.1-0.1,0.3-0.1,0.4-0.2c0.4-0.3,1-0.5,1.3-0.8
				c0.1-0.1,0.3-0.1,0.4-0.2c0.5-0.2,0.7-0.3,1-0.4c0.1-0.1,0.2-0.1,0.2-0.1c0.1-0.1,0.1-0.1,0.1,0l0,0l0.1-0.1l0,0
				C183.2,182.7,187.4,185.4,187.8,190.2z M183.3,207L183.3,207c-0.2-0.2-0.8-0.6-1.3-1.3C182.6,206.5,183.3,207.1,183.3,207
				L183.3,207z"/>
			<path class="st6" d="M158.7,172.2c9,3.1,13.1,4.9,13.4-3c0.3-8-0.7-11.2-0.7-11.2l-12.5-2C158.9,155.9,149.8,169.2,158.7,172.2z"
				/>
			<path class="st7" d="M74.1,82c3.1,5,2.6,9.5,0.3,12.8L48.5,68.9c-1-0.5-2-1.1-3.1-1.9c0.2-0.2,0.4-0.4,0.6-0.6
				c3.1-3.1,6.3-5.1,6.7-5c2.3,0.5,5,2.1,7.7,4.3C65.3,69.6,70.1,75.6,74.1,82z"/>
			<path class="st9" d="M89.8,79.8c-1.6-0.1-6.2,2.7-6.7,8.3c-0.3,3.1,1.5,6.8,3.4,8.3c1.8-0.9,3-2.2,3.3-2.3s0.6-0.3,1-0.5
				C92.6,86.8,89.8,79.8,89.8,79.8z"/>
			<path class="st9" d="M134.7,95.7c0.3-7.9-3.2-13-3.2-13c-4.7,1.3-13.4,3-7.4,8.3C130,96.1,134.4,103.6,134.7,95.7z"/>
			<path class="st9" d="M169.8,145.1c-0.5-7.2-5.7-13.1-5.7-13.1s-13.5,1.5-8.2,8.2C161,146.9,170.2,152.3,169.8,145.1z"/>
			<path class="st9" d="M130.5,151.1l-7-7c1.3-0.3,2.3-0.4,2.3-0.4s0,0,0.3,0.1c0.5,0.2,1.9,0.7,5.3,1.9
				C135.5,147.1,132.9,149.1,130.5,151.1z"/>
			<path class="st9" d="M183.3,182.7c0,0-9.3,3.4-6.7,8.3c2.7,4.9,4.4,6.6,7.5,4.5s3.9-0.5,3.6-5.3S183.3,182.7,183.3,182.7z"/>
		</g>
		<path class="st8" d="M207.7,232.6c9.7,11.1,13.6,15.6,11.9,18.8c-0.9,1.7-1.9,3.3-3.3,4.4l-17.9-18c-0.1-1.6-0.1-2.8,0-3.6
			c2.5,4.2,6.6,6.5,6.6,6.5c0.7-0.7,1.2-4.3-1.2-7.3c-1.3-1.7-3.7-2.8-5.1-2.7C199.2,227.9,201,224.9,207.7,232.6z"/>
		<path class="st0" d="M194.7,234.1l-2-2C193.8,232.6,194.5,233.2,194.7,234.1z"/>
		<path class="st2" d="M190.9,201.5c0,0-0.4-2.4-0.2-3.5c0.3-1.1,2-1.3,5.1-1.2c3.2,0,5.2,5.2,5.2,5.2c0.5,0,0.8-0.1,1.3-0.2
			c-0.3-1.1-0.1-2.3,0.3-3.3c-4.9-4.2-14.6-10.8-15.5-2.9C186.7,198.9,188.4,200.6,190.9,201.5z"/>
		<path class="st3" d="M195.7,196.9c-3.2,0.1-5,0.3-5.3,1.4c-0.3,1,0.1,3.6,0.1,3.6c3,0.9,7.2,0.6,10.3,0.2
			C200.9,202.1,198.9,196.8,195.7,196.9z"/>
		<path class="st4" d="M219.9,210.5c0,0-2.3-14.5-7.2-16.6c-3.1-1.3-8.6,0.9-10.2,4.7c-0.5,1-0.6,2.2-0.4,3.3c0.3,1.3,1,2.6,2.3,3.9
			C211.8,213.1,219.9,210.5,219.9,210.5z"/>
		<path class="st5" d="M176.9,178.1c0,0,7.1-3.3,6-8.2c0,0-8.2,2-10.4,0.3c-1.8-1.3-1.1-7-0.6-9c-1,0.3-1.7,0.9-2.2,2
			c-1.9,3.4-6.6,3.4-1.9,9.5C172.4,178.8,176.9,178.1,176.9,178.1z"/>
		<path class="st3" d="M172.5,170.3c2.2,1.6,10.4-0.3,10.4-0.3c-0.2-0.9-0.8-1.9-1.7-3c-4.1-4.6-7.2-6.2-9.5-5.7
			C171.5,163.3,170.7,168.9,172.5,170.3z"/>
		<path class="st5" d="M186.2,187.4c0,0,11.6-3.9,7.7-7.7c-3.8-3.8-10.4-0.4-15.7,1.1S181.2,187.7,186.2,187.4z"/>
		<path class="st7" d="M205.7,218.5c-3,3.7-2.5,11.6,4.5,13.9c6.9,2.3,14.5,3.2,17.6,0.8c0.6-0.4,1.6-14.5-5.4-16.8
			C215.5,214.1,208.8,214.7,205.7,218.5z"/>
		<path class="st9" d="M205,240.6c0.7-0.7,1.1-4.2-1.2-7.3c-1.3-1.7-3.7-2.8-5.1-2.7c-0.2,1.2-0.2,2.5-0.2,2.6
			c-0.1,0.2-0.1,0.4-0.2,0.7C200.8,238.3,205,240.6,205,240.6z"/>
		<path class="st20" d="M147,171.5l-0.1,0.2C147,171.6,147.1,171.6,147,171.5L147,171.5z"/>
	</g>
	<path class="st4" d="M65.6,1.4c0.7,2,0.7,3.2,0.7,3.2s-0.4,0.3-1.1,0.8c0.5,2.2,0.9,4.7,1.5,7.5c0.1,0.5,0.2,0.9,0.4,1.5
		c11.2,49.5,53.3,176.4,193.8,210.3c1.3,0.4,2.6,0.6,3.9,0.9c1.8,0.5,3.6,0.8,5.5,1.2c2.6,0.5,5.2,1,8,1.5c-1.1,0.7-2.4,1.6-4,2.6
		c-0.1,0.1-0.3,0.2-0.4,0.3l0,0c-0.3,0-0.5-0.1-0.7-0.1c-3.8-0.7-7.6-1.4-11.3-2.3C108.5,194.2,70.1,49.9,62.2,8.6
		c-2.6,2-9.1,6.4-11.7,3.9c-0.6-0.6-1.2-1.6-1.8-2.6c1.6-1.4,3.2-2.8,4.9-4.2c0,0,0-0.1-0.1-0.3c0.9-0.2,1.9-0.5,3.1-0.8
		c0,0-0.1-0.1,0-0.1c0,0,0,0,0.1,0.1c1.6-0.4,3.4-1,5.2-1.7C63.1,2.4,64.3,1.8,65.6,1.4z"/>
	<path class="st21" d="M18.2,95.1c-9.8,4.7-7.8,21.2,1.9,43.6c9.6,22.4,45.4,37.7,55.7,37.5c10.3-0.2,31.4-5.8,34.2-13.5
		s-29.7-50.9-29.7-50.9S68,99.5,52.4,93.5C36.9,87.4,28,90.4,18.2,95.1z"/>
	<path class="st22" d="M62.2,8.5c-2.6,2-9.1,6.4-11.7,3.9c-0.6-0.6-1.2-1.6-1.8-2.6c-1.4-2.8-2.5-6.6-3.5-9.4C44,0.7,42.9,1,42,1.2
		c0,0.3,0.1,0.3,0.1,0.3c-79.8,64.9-21.6,169.9-21.6,169.9c50.7,90.6,117.5,105,170.6,97.4l0,0l0,0c0.5-0.2,12.9-4.9,30.9-14.7l0,0
		c11.6-6.3,25.5-14.7,39.9-25.3C108.6,194.2,70.1,49.8,62.2,8.5z M109.9,162.7c-2.8,7.7-23.9,13.3-34.2,13.5c-0.1,0-0.3,0-0.4,0
		c-0.3,0-0.5,0-0.8-0.1c-0.1,0-0.3,0-0.4,0c-0.2-0.1-0.4,0-0.6-0.1c0,0-0.1-0.1-0.1,0c-0.3,0-0.5,0-0.7-0.1
		c-0.3-0.1-0.7-0.1-1.1-0.2c-0.3-0.1-0.7-0.1-1.1-0.3c-0.6-0.1-1.2-0.3-1.8-0.5c-0.4-0.2-0.9-0.3-1.3-0.4c-0.2-0.1-0.4-0.2-0.7-0.2
		c-0.7-0.2-1.4-0.5-2.1-0.7c-0.5-0.2-0.9-0.3-1.5-0.5c-0.5-0.2-1-0.4-1.5-0.6c-0.3-0.2-0.5-0.2-0.8-0.3c-0.5-0.2-1-0.4-1.5-0.6
		c-1.6-0.7-3.1-1.4-4.8-2.2c-0.5-0.3-1.1-0.6-1.6-0.8c-0.5-0.3-1.1-0.6-1.6-0.9c-1.1-0.6-2.2-1.2-3.4-1.9c-0.5-0.3-1.1-0.6-1.7-1
		c-0.5-0.3-1.1-0.7-1.7-1c-0.7-0.4-1.3-0.8-2-1.3c-0.3-0.2-0.6-0.4-0.8-0.6c-0.3-0.2-0.8-0.5-1.1-0.7c-0.2-0.2-0.4-0.3-0.7-0.4
		c-0.1-0.1-0.1-0.1-0.1-0.1c-0.7-0.4-1.4-1-2-1.5c-0.3-0.2-0.6-0.5-1-0.7c-0.6-0.5-1.3-1-1.8-1.4c-0.6-0.4-1.1-0.9-1.6-1.4
		c-0.4-0.4-0.8-0.7-1.2-1.1l-0.1-0.1c-0.2-0.2-0.4-0.4-0.6-0.6s-0.4-0.4-0.6-0.6c-2.8-2.7-5.4-5.6-7.4-8.7l0,0
		c-1.3-1.9-2.5-4-3.4-6.1c-0.5-1.3-1.1-2.6-1.6-3.9c-0.2-0.6-0.5-1.3-0.8-1.9c-0.7-1.7-1.3-3.4-1.8-5c-0.2-0.5-0.3-1.1-0.6-1.6
		c-0.2-0.5-0.3-1.1-0.5-1.6c-0.1-0.5-0.3-0.9-0.4-1.4c-0.2-0.5-0.3-1.1-0.5-1.6c-0.1-0.3-0.2-0.7-0.3-1l0,0
		c-0.2-0.8-0.4-1.5-0.5-2.3c-0.1-0.5-0.2-0.9-0.3-1.4c-0.4-2-0.7-3.8-0.8-5.5c-0.1-0.9-0.1-1.7-0.2-2.5c-0.1-0.8,0-1.6,0-2.3
		c0-0.3,0-0.6,0.1-0.9c0-0.3,0.1-0.5,0.1-0.8c0.1-0.2,0.1-0.5,0.2-0.7c0-0.3,0.1-0.5,0.1-0.8s0.1-0.7,0.3-1c0.1-0.3,0.2-0.6,0.2-0.8
		c0.1-0.2,0.1-0.4,0.2-0.6c0.2-0.6,0.5-1.2,0.8-1.6c0.1-0.1,0.1-0.3,0.2-0.4c0.1-0.1,0.1-0.1,0.1-0.3c0.1-0.1,0.1-0.1,0.1-0.1
		c0.1-0.1,0.1-0.1,0.1-0.1c0.1-0.1,0.2-0.2,0.2-0.4c0.1-0.1,0.1-0.1,0.1-0.1c0.1-0.1,0.1-0.1,0.1-0.1c0.1-0.1,0.2-0.2,0.3-0.3
		c0.4-0.4,0.7-0.7,1.1-1.1c0.1-0.1,0.1-0.1,0.1-0.1l0.1-0.1l0,0c0.1-0.1,0.1-0.1,0.1-0.1c0.4-0.2,0.7-0.5,1.1-0.7l0.1-0.1
		c0,0,0,0,0.1-0.1l0,0c0.2-0.1,0.4-0.2,0.6-0.3l0,0c0.5-0.2,0.9-0.5,1.3-0.6c0.3-0.2,0.7-0.3,1.1-0.5c0.5-0.2,0.8-0.3,1.2-0.5
		c0.3-0.1,0.6-0.3,0.9-0.3c0.3-0.2,0.6-0.2,1-0.4c0.3-0.1,0.6-0.2,0.9-0.3c0.3-0.1,0.6-0.2,0.9-0.3c0.3-0.1,0.6-0.2,0.9-0.3
		c0.3-0.1,0.6-0.2,1-0.3s0.6-0.2,1-0.3c0.6-0.2,1.3-0.3,1.9-0.5c0.3,0,0.7-0.1,1-0.1s0.7-0.1,1-0.1s0.7-0.1,1-0.1
		c0.7-0.1,1.4-0.1,2.1-0.1c0.3,0,0.6,0,0.9,0c0.1,0,0.3,0,0.5,0c0.3,0,0.4,0,0.7,0c0.4,0,0.8,0.1,1.3,0c0.4,0,0.8,0.1,1.1,0.1
		c1.9,0.2,3.9,0.5,6,1.1c1,0.3,2.1,0.5,3.3,1c0.5,0.2,1.1,0.4,1.7,0.6c0.3,0.2,0.6,0.2,0.9,0.3c0.3,0.2,0.6,0.2,0.9,0.3
		c0.7,0.2,1.4,0.6,2.2,0.9c0.4,0.2,0.7,0.3,1.1,0.5c0.7,0.3,1.4,0.7,2.1,1c0.3,0.2,0.7,0.3,1,0.5c0.7,0.3,1.3,0.7,2,1.1
		c0.9,0.5,1.7,1,2.6,1.5c0.5,0.3,1,0.7,1.6,1c0.4,0.3,0.9,0.5,1.3,0.8c1.1,0.7,2.2,1.5,3.2,2.2c0.6,0.5,1.2,0.9,1.8,1.3
		c0.4,0.3,0.8,0.6,1.2,0.9c0.2,0.2,0.5,0.4,0.7,0.6c0.2,0.2,0.5,0.4,0.6,0.5c0.2,0.2,0.4,0.3,0.6,0.5c0.1,0.1,0.2,0.2,0.4,0.3
		c0.2,0.2,0.6,0.4,0.8,0.6c0.2,0.2,0.5,0.4,0.7,0.6s0.5,0.4,0.7,0.6s0.4,0.4,0.6,0.5c0.2,0.2,0.4,0.4,0.5,0.5s0.1,0.1,0.2,0.2
		c0.1,0.1,0.2,0.2,0.4,0.4c0.1,0.1,0.1,0.1,0.1,0.1c0.1,0.1,0.1,0.1,0.1,0.1c0.8,0.8,1.2,1.2,1.2,1.2S112.8,154.9,109.9,162.7z
		 M45.3,0.3L45.3,0.3c0-0.1,0-0.3-0.1-0.3C45.2,0,45.2,0.1,45.3,0.3z"/>
	<path class="st23" d="M282.1,232.6c-0.4,0.4-0.7,0.7-1.1,1.1c0,0-38.7,27.9-89.9,35.1c0.5-0.2,12.9-4.9,30.9-14.7l0,0
		c11.6-6.3,25.5-14.7,39.9-25.3c3.9,0.9,7.9,1.7,12,2.5l0,0C276.5,231.7,279.3,232.2,282.1,232.6z"/>
	<path class="st22" d="M264.9,225.7c1.8,0.5,3.6,0.8,5.5,1.2l3.9,4l0.5,0.5c-0.5,0-1.1-0.2-1.6-0.4c-3.2-0.9-7.3-3-12.1-6.3
		C262.3,225.1,263.6,225.4,264.9,225.7z"/>
</g>
</svg>
