<?xml version="1.0" encoding="utf-8"?>
<!-- Generator: Adobe Illustrator 22.1.0, SVG Export Plug-In . SVG Version: 6.00 Build 0)  -->
<svg version="1.1" id="Promegranade" xmlns="http://www.w3.org/2000/svg" xmlns:xlink="http://www.w3.org/1999/xlink" x="0px"
	 y="0px" viewBox="0 0 674 338.6" style="enable-background:new 0 0 674 338.6;" xml:space="preserve">
<style type="text/css">
	.st0{fill:#EFEFEF;}
	.st1{fill:#F4F4F4;}
	.st2{fill:#EAEAEA;}
	.st3{fill:#F3C0AB;}
	.st4{fill:#2C0A0A;}
	.st5{fill:#830813;}
	.st6{fill:#DF454C;}
	.st7{fill:#AA0510;}
	.st8{fill:#820100;}
	.st9{fill:none;stroke:#72141D;stroke-width:0.8535;stroke-miterlimit:10;}
	.st10{fill:#C51628;}
	.st11{fill:#370401;}
	.st12{fill:#55070A;}
	.st13{fill:#F19998;}
	.st14{fill:#72141D;}
	.st15{fill:#AC0C06;}
	.st16{fill:#9C0110;}
	.st17{fill:#5C0D1A;}
	.st18{fill:#CA0007;}
	.st19{fill:#EBA59E;}
	.st20{fill:#CD6F6D;}
	.st21{fill:#F0948F;}
	.st22{fill:none;stroke:#72141D;stroke-width:0.5429;stroke-miterlimit:10;}
	.st23{fill:#D61D45;}
	.st24{fill:#D01128;}
	.st25{fill:#8D171D;}
</style>
<g id="Plate">
	<ellipse class="st0" cx="337" cy="227.6" rx="337" ry="111"/>
	<ellipse class="st1" cx="337" cy="220.6" rx="337" ry="111"/>
	<ellipse class="st2" cx="337" cy="209.6" rx="236.8" ry="78"/>
</g>
<g id="Right_side">
	<g>
		<path class="st3" d="M304.1,174L567.3,17.4c-0.9,1.8-1.7,3.5-2.6,5.2c-0.7,1.3-1.3,2.5-2,3.7C491.3,158.7,356.4,182.4,304.1,174
			C303.6,174,308.3,205.4,304.1,174z"/>
		<path class="st4" d="M290.7,171.8c53.4-13.6,126.7-57.3,194.7-95.3c28.7-16,54.4-32.8,77.1-49.3c-0.7,1.4-1.6,3.1-2.6,5.1
			c-0.7,1.2-1.3,2.4-2,3.6c-70.8,129.1-200.7,154-252,146.2C305.4,182,291.2,171.9,290.7,171.8z"/>
	</g>
	<g>
		<path class="st5" d="M454.4,111.4c28.1-14-5.2-52.1-27-24.3C426.7,88.1,426.4,125.4,454.4,111.4z M440.4,92.8c0,0,7.3-3,14.6-0.5
			c7.3,2.4-0.5,9.7-8.6,12.4S440.4,92.8,440.4,92.8z"/>
		<path class="st6" d="M492.2,180.2c-5.9-3.8-21.9,3.5-18.3,28.1c3.5,24.6,22.9,1.3,22.9,1.3c0.6-0.5,1.1-1.6,1.4-3l-2.7-1.1
			c0,0-4.3-3.2-8.4-7.3c-4.1-4-3.8-7.6,0.5-12.4c4.3-4.9,8.8,1.3,8.8,1.3l1.8,19.2C499.7,199.1,497.2,183.3,492.2,180.2z"/>
		<path class="st7" d="M448.1,171.9c4.3-4.1,4.3-4.1,4.3-4.1l-0.4-0.3c0,0,6.3,1.4,5.4,3.9c-0.8,2.4-8,10-11.3,9.2
			c-2.5-0.6-2.6-2.9-0.6-5.8c-3.9,4.7-7.2,9-7.4,10.6c-0.6,4.3,26-10,29.9-15.9c3.8-5.9,0.1-13.5-8-10.9c0,0-6.4,6.7-12.2,13.5
			C447.9,172.1,448,172,448.1,171.9z"/>
		<path class="st8" d="M495.5,138.1c1.3-9.4-8.6-17.3-12.4-16.7s-9.4,9.5-9.4,9.5s-10,21.9-1.3,25.6
			C480.9,160.2,494.1,147.5,495.5,138.1z M475,148.4c-2.4-3.5,2.4-12.7,2.4-12.7s5.4,0,5.7,1.9c0.3,1.9-0.5,7-0.5,9.7
			C482.5,150,477.4,151.9,475,148.4z"/>
		<path class="st5" d="M460.4,130c-5.9-9.2-8.4-15.4-15.7-7s-9.2,14-9.2,14s9.7,22.1,14,20C453.9,154.8,466.3,139.2,460.4,130z
			 M452,138.9c1.9,2.4-1.1,8.6-6.5,8.6c-5.4,0-3.8-10.3-3.8-10.3s0,0,3.5-5.1S450.1,136.5,452,138.9z"/>
		<path class="st5" d="M400.4,115.3c1.1-1.4,2-2.8,2.6-4.3c-0.4-2-0.6-4.3-0.6-6.4c-0.6-1-1.5-1.9-2.8-2.9
			c-7.8-6.2-9.7-8.6-16.7-6.5c-7,2.2-11.3,7-13.2,12.7c-1.5,4.4-0.8,7.8,8.9,11.1c7.2,2.4,11.6,4.3,15.2,2.9
			C396.8,119.5,396.1,112.2,400.4,115.3z M388.8,117.9c-6.7,4.1-6.2-5.7-6.2-11.1c0,0,5.9-1.6,13.8,1.9S395.6,113.8,388.8,117.9z"/>
		<path class="st6" d="M384.3,158.9c-2,1.4-6.2,1.8-9.2,0.3c-5.4-2.7-7-8.6-6.5-10.3c0,0,7.6,0,14,4.5c-1.7-5.2-9.5-18.8-18.6-28.5
			c-10-10.5-8.9-0.3-15.7,3.8c-6.7,4.1-7.8,10-8.1,16.2s8.4,10,29.7,18.9C384.6,169.9,385.3,163.7,384.3,158.9z"/>
		<path class="st5" d="M387.2,141.6c-3,14.3,5.9,9.2,16.7,9.2c10.8,0,10.5-10,11.1-11.6c0,0-1.6-8.6-10.5-19.7
			c-1.7-2.1-3-3.5-4.1-4.2c-0.9,1.2-2,2.4-3,3.7c-1.2,1.5-2.4,2.4-3.7,2.9c0,0,0,0,0,0C390.2,124.8,390.2,127.3,387.2,141.6z"/>
		<path class="st9" d="M397.5,119c1-1.2,2-2.4,3-3.7c-4.3-3.1-3.7,4.2-6.6,6.6C395.1,121.3,396.3,120.4,397.5,119z"/>
		<path class="st10" d="M403,111c1.2,5.4,4.3,9.2,11.2,6.3c9.4-4.1,13,1.6,11.6-7.8s4-14.8-5.1-19.7c-9.2-4.9-9.2-4.9-9.2-4.9
			s-9,11.8-9.1,19.7l0,0C403.9,106.8,403.9,109,403,111z"/>
		<path class="st9" d="M402.4,104.6c0,2.2,0.1,4.4,0.6,6.4C403.9,109,403.9,106.8,402.4,104.6z"/>
		<path class="st11" d="M500.6,84.9c-8.6-1.1-13.5,5.4-13.5,5.4s-4.3,21.1,15.1,19.4c19.4-1.6,24.6-0.8,17.8-10.3
			S509.2,86,500.6,84.9z M508.9,97.6c1.4,4-0.8,5.1-6.5,5.9c-5.7,0.8-6.5-10.3-6.5-10.3s3.8-3.2,8.6-1.6
			C509.5,93.3,507.6,93.5,508.9,97.6z"/>
		<path class="st12" d="M414.7,197.6c0,0,2.2,3.5,2.5,5.3s-2.1,3.6-6.6,6.3c-4.5,2.8-10.8-3.6-10.8-3.6c-0.6,0.5-1.2,1-1.8,1.4
			c1.2,1.6,1.7,3.4,1.8,5.3c9.9,2.3,28.3,4.2,24.4-8.8C422.6,198.1,418.9,196.8,414.7,197.6z"/>
		<path class="st13" d="M410.7,208.8c4.6-3,7-4.9,6.7-6.8s-2.4-5.5-2.4-5.5c-5,1.1-10.9,5.2-15.1,8.6
			C399.9,205.2,406.2,211.8,410.7,208.8z"/>
		<path class="st14" d="M366.8,208.6c0,0,13,20.5,21.3,19.7c5.3-0.5,11.8-8.8,11.7-16c0-2-0.5-3.9-1.7-5.6c-1.2-1.7-3.1-3.2-6-4.1
			C376.7,197.5,366.8,208.6,366.8,208.6z"/>
		<path class="st15" d="M505.5,143.2c0.2,1.2-3.4,8.4-4.9,14.9c1.5-2.5,4.3-5.1,4.6-6c0,0,4.9-1.1,7.8,0.8c3,1.9,1.1,2.2-1.9,5.7
			s-3.8,5.9-9.5,4.2c-0.9-0.3-1.4-0.7-1.7-1.1c-0.3,2.8,0.1,5.1,1.7,6.4c5.7,4.6,11.6,0.3,17.5-9.5c5.9-9.7,13.8-19.7,2.2-20
			C509.8,138.3,505.5,143.2,505.5,143.2z"/>
		<path class="st16" d="M431,215.6c0,0-14.3,15.9-6.2,18.6c8.1,2.7,15.4-8.4,22.1-15.1S438,210.7,431,215.6z"/>
		<path class="st17" d="M508.7,117.3c0,0-3.8,19.4,7.8,17c11.6-2.4,17.3-0.5,16.5-8.9c-0.8-8.4,1.1-14-8.1-13.5
			C515.7,112.4,508.7,117.3,508.7,117.3z"/>
		<path class="st17" d="M479,114.6c5.4-8.1,8.4-11.6,0.5-15.1s-11.3-3.8-11.3-3.8l-5.3,12.1C462.8,107.9,473.6,122.7,479,114.6z"/>
		<path class="st18" d="M382.1,184c1.9-8.4-4.1-20.2-15.7-17.8c-11.6,2.4-23.2,7.6-26.2,13.8c-0.5,1.1,7.3,24,18.9,21.6
			C370.8,199.1,380.2,192.4,382.1,184z"/>
		<path class="st19" d="M368.6,148.9c-0.5,1.6,1.1,7.6,6.5,10.3c3,1.5,7.2,1.2,9.2-0.3c-0.5-2.2-1.3-4.1-1.3-4.3
			c0-0.3-0.2-0.7-0.3-1.2C376.2,148.9,368.6,148.9,368.6,148.9z"/>
		<path class="st19" d="M396.4,108.7c-7.8-3.5-13.8-1.9-13.8-1.9c0,5.4-0.5,15.1,6.2,11.1C395.6,113.8,404.2,112.2,396.4,108.7z"/>
		<path class="st19" d="M455,92.2c-7.3-2.4-14.6,0.5-14.6,0.5s-2.2,14.6,5.9,11.9S462.2,94.6,455,92.2z"/>
		<path class="st19" d="M445.3,132.2c-3.5,5.1-3.5,5.1-3.5,5.1s-1.6,10.3,3.8,10.3c5.4,0,8.4-6.2,6.5-8.6
			C450.1,136.5,448.8,127,445.3,132.2z"/>
		<path class="st19" d="M482.5,147.3c0-2.7,0.8-7.8,0.5-9.7c-0.3-1.9-5.7-1.9-5.7-1.9s-4.9,9.2-2.4,12.7
			C477.4,151.9,482.5,150,482.5,147.3z"/>
		<path class="st19" d="M496,93.3c0,0,0.8,11.1,6.5,10.3c5.7-0.8,7.8-1.9,6.5-5.9c-1.4-4,0.5-4.3-4.3-5.9
			C499.8,90,496,93.3,496,93.3z"/>
		<path class="st9" d="M500,161.6c0.1-1.1,0.3-2.3,0.6-3.5C499.8,159.4,499.4,160.7,500,161.6z"/>
		<path class="st20" d="M511.1,158.6c3-3.5,4.9-3.8,1.9-5.7c-3-1.9-7.8-0.8-7.8-0.8c-0.3,0.9-3.2,3.6-4.6,6
			c-0.3,1.2-0.5,2.4-0.6,3.5c0.3,0.5,0.8,0.9,1.7,1.1C507.4,164.5,508.2,162.1,511.1,158.6z"/>
		<path class="st9" d="M445.6,174.9c0.7-0.9,1.5-1.8,2.2-2.6C446.9,173.2,446.1,174.1,445.6,174.9z"/>
		<path class="st21" d="M446.2,180.7c3.4,0.7,10.4-6.9,11.2-9.4c0.8-2.4-5.5-3.8-5.5-3.8l0.4,0.3c0,0,0,0-4.2,4.2
			c-0.1,0.1-0.2,0.2-0.3,0.3c-0.7,0.9-1.5,1.8-2.2,2.6C443.6,177.8,443.7,180.1,446.2,180.7z"/>
		<path class="st9" d="M498.3,206.6l0-0.3C498.2,206.5,498.2,206.5,498.3,206.6L498.3,206.6z"/>
		<path class="st13" d="M487.7,185.9c-4.3,4.9-4.6,8.4-0.5,12.4c4.1,4,8.4,7.3,8.4,7.3l2.7,1.1c0-0.1,0-0.2,0-0.2l-1.8-19.2
			C496.4,187.2,492,181,487.7,185.9z"/>
		<path class="st14" d="M512.8,172.6c-1.3,1.4-6.7,12.1-0.8,15.9s10.5,3.5,13-1.1c2.4-4.6,5.1-1.9,2.7-8.1
			c-2.4-6.2-2.4-11.6-6.5-10.3S512.8,172.6,512.8,172.6z"/>
	</g>
	<g>
		<path class="st5" d="M472,115.8c-8.9-17.9-33.1,3.3-15.4,17.2C457.1,133.5,480.9,133.7,472,115.8z M460.1,124.8
			c0,0-1.9-4.6-0.3-9.3s6.2,0.3,7.9,5.5C469.4,126.1,460.1,124.8,460.1,124.8z"/>
		<path class="st6" d="M515.7,91.8c-2.4,3.8,2.2,13.9,17.9,11.7c15.6-2.2,0.9-14.6,0.9-14.6c-0.3-0.4-1-0.7-1.9-0.9l-0.7,1.7
			c0,0-2.1,2.7-4.6,5.3c-2.6,2.6-4.8,2.4-7.9-0.3c-3.1-2.7,0.8-5.6,0.8-5.6l12.2-1.2C527.8,87.1,517.7,88.7,515.7,91.8z"/>
		<path class="st7" d="M510.4,119.9c-2.6-2.7-2.6-2.7-2.6-2.7l-0.2,0.2c0,0,0.9-4,2.5-3.5c1.5,0.5,6.3,5.1,5.9,7.2
			c-0.4,1.6-1.8,1.6-3.7,0.4c3,2.5,5.7,4.6,6.8,4.7c2.7,0.4-6.4-16.5-10.1-19c-3.8-2.4-8.6-0.1-6.9,5.1c0,0,4.3,4.1,8.6,7.8
			C510.6,120,510.5,120,510.4,119.9z"/>
		<path class="st8" d="M488.9,89.7c-6-0.9-11,5.5-10.6,7.9c0.3,2.4,6,6,6,6s13.9,6.3,16.3,0.9C503,99,495,90.6,488.9,89.7z
			 M495.5,102.8c-2.2,1.5-8.1-1.5-8.1-1.5s0-3.4,1.2-3.6c1.2-0.2,4.5,0.3,6.2,0.3S497.7,101.2,495.5,102.8z"/>
		<path class="st5" d="M483.8,112.1c-5.8,3.8-9.8,5.3-4.5,10s8.9,5.8,8.9,5.8s14.1-6.2,12.7-8.9
			C499.6,116.2,489.6,108.3,483.8,112.1z M489.5,117.4c1.5-1.2,5.5,0.7,5.5,4.1c0,3.4-6.5,2.4-6.5,2.4s0,0-3.3-2.2
			C481.9,119.4,487.9,118.6,489.5,117.4z"/>
		<path class="st5" d="M474.5,150.2c-0.9-0.7-1.8-1.3-2.7-1.6c-1.3,0.3-2.7,0.4-4.1,0.4c-0.6,0.4-1.2,1-1.9,1.8
			c-3.9,5-5.5,6.2-4.1,10.6c1.4,4.5,4.5,7.2,8.1,8.4c2.8,0.9,5,0.5,7-5.7c1.5-4.6,2.8-7.4,1.8-9.7
			C477.1,152.5,472.5,152.9,474.5,150.2z M476.1,157.6c2.6,4.3-3.6,4-7,4c0,0-1-3.8,1.2-8.8C472.5,147.8,473.5,153.3,476.1,157.6z"
			/>
		<path class="st6" d="M502.2,160.5c0.9,1.3,1.1,3.9,0.2,5.8c-1.7,3.4-5.5,4.5-6.5,4.1c0,0,0-4.9,2.8-8.9c-3.3,1.1-12,6-18.1,11.8
			c-6.7,6.4-0.2,5.7,2.4,10c2.6,4.3,6.4,5,10.3,5.1s6.3-5.3,12-18.9C509.2,160.3,505.2,159.8,502.2,160.5z"/>
		<path class="st5" d="M491.2,158.6c9.1,1.9,5.8-3.8,5.8-10.6s-6.4-6.7-7.4-7c0,0-5.5,1-12.5,6.7c-1.4,1.1-2.2,1.9-2.7,2.6
			c0.8,0.6,1.5,1.2,2.3,1.9c0.9,0.8,1.5,1.5,1.8,2.3c0,0,0,0,0,0C480.5,156.7,482.1,156.7,491.2,158.6z"/>
		<path class="st22" d="M476.8,152.1c-0.8-0.6-1.6-1.3-2.3-1.9c-2,2.7,2.7,2.3,4.2,4.2C478.3,153.6,477.7,152.8,476.8,152.1z"/>
		<path class="st10" d="M471.7,148.5c3.4-0.8,5.9-2.8,4-7.1c-2.6-6,1-8.2-5-7.4c-6,0.9-9.4-2.6-12.5,3.3c-3.1,5.8-3.1,5.8-3.1,5.8
			s7.5,5.7,12.5,5.8l0,0C469.1,148,470.4,148,471.7,148.5z"/>
		<path class="st22" d="M467.7,148.9c1.4,0,2.8-0.1,4.1-0.4C470.4,148,469.1,148,467.7,148.9z"/>
		<path class="st11" d="M455.1,86.5c-0.7,5.5,3.4,8.6,3.4,8.6s13.4,2.7,12.4-9.6c-1-12.4-0.5-15.6-6.5-11.3
			C458.4,78.4,455.8,81,455.1,86.5z M463.2,81.2c2.6-0.9,3.3,0.5,3.8,4.1s-6.5,4.1-6.5,4.1s-2.1-2.4-1-5.5
			C460.4,80.8,460.6,82,463.2,81.2z"/>
		<path class="st12" d="M526.8,141.1c0,0,2.2-1.4,3.3-1.6c1.1-0.2,2.3,1.3,4,4.2s-2.3,6.9-2.3,6.9c0.3,0.4,0.6,0.8,0.9,1.1
			c1-0.8,2.2-1.1,3.4-1.1c1.5-6.3,2.7-18-5.6-15.5C527.1,136.1,526.3,138.4,526.8,141.1z"/>
		<path class="st13" d="M534,143.6c-1.9-2.9-3.1-4.5-4.3-4.3c-1.2,0.2-3.5,1.6-3.5,1.6c0.7,3.2,3.3,6.9,5.5,9.6
			C531.7,150.5,535.8,146.5,534,143.6z"/>
		<path class="st14" d="M533.8,171.6c0,0,13-8.2,12.5-13.6c-0.3-3.4-5.6-7.5-10.2-7.5c-1.3,0-2.5,0.3-3.5,1.1c-1.1,0.8-2,2-2.6,3.8
			C526.7,165.3,533.8,171.6,533.8,171.6z"/>
		<path class="st15" d="M492.2,83.4c0.7-0.1,5.4,2.1,9.5,3.1c-1.6-0.9-3.3-2.7-3.8-2.9c0,0-0.7-3.1,0.5-5c1.2-1.9,1.4-0.7,3.6,1.2
			s3.8,2.4,2.6,6c-0.2,0.5-0.4,0.9-0.7,1.1c1.8,0.2,3.3-0.1,4.1-1.1c2.9-3.6,0.2-7.4-6-11.2c-6.2-3.8-12.5-8.8-12.7-1.4
			C489.1,80.6,492.2,83.4,492.2,83.4z"/>
		<path class="st16" d="M542.4,118.4c0,0,7.2,5.2,11.4,2.1c0,0-6.4-6.7-6.1-9.5c0.3-2.2,6.3-3.9,8.5-4.4c-0.8-0.7-1.8-1.2-3.1-1.3
			c-4.5-0.3-7-4.6-10.5,2.2S542.4,118.4,542.4,118.4z"/>
		<path class="st13" d="M547.7,111c-0.3,2.7,6,9.4,6.1,9.5c0.8-0.6,1.5-1.5,2-2.8c2.3-5.7,2.2-9.3,0.4-11.1
			C554,107.1,548,108.8,547.7,111z"/>
		<path class="st16" d="M538.2,130.8c0,0,10.1,9.1,11.8,3.9c1.7-5.2-5.3-9.8-9.6-14.1C536.2,116.3,535.1,126.3,538.2,130.8z"/>
		<path class="st17" d="M475.7,81.3c0,0,12.4,2.4,10.8-5c-1.5-7.4-0.3-11-5.7-10.5s-8.9-0.7-8.6,5.2
			C472.6,76.9,475.7,81.3,475.7,81.3z"/>
		<path class="st17" d="M474,100.2c-5.2-3.4-7.4-5.3-9.6-0.3c-2.2,5-2.4,7.2-2.4,7.2l7.7,3.4C469.7,110.5,479.2,103.7,474,100.2z"/>
		<path class="st18" d="M518.2,161.8c-5.3-1.2-12.9,2.6-11.3,10c1.5,7.4,4.8,14.8,8.8,16.6c0.7,0.3,15.3-4.6,13.7-12
			C527.8,169,523.5,163,518.2,161.8z"/>
		<path class="st19" d="M495.8,170.4c1,0.3,4.8-0.7,6.5-4.1c1-1.9,0.7-4.6-0.2-5.8c-1.4,0.3-2.6,0.8-2.7,0.9c-0.2,0-0.5,0.1-0.8,0.2
			C495.9,165.6,495.8,170.4,495.8,170.4z"/>
		<path class="st19" d="M470.3,152.8c-2.2,5-1.2,8.8-1.2,8.8c3.4,0,9.6,0.3,7-4C473.5,153.3,472.5,147.8,470.3,152.8z"/>
		<path class="st19" d="M459.8,115.5c-1.5,4.6,0.3,9.3,0.3,9.3s9.3,1.4,7.6-3.8C466,115.8,461.3,110.9,459.8,115.5z"/>
		<path class="st19" d="M485.2,121.7c3.3,2.2,3.3,2.2,3.3,2.2s6.5,1,6.5-2.4c0-3.4-4-5.3-5.5-4.1
			C487.9,118.6,481.9,119.4,485.2,121.7z"/>
		<path class="st19" d="M494.8,98c-1.7,0-5-0.5-6.2-0.3c-1.2,0.2-1.2,3.6-1.2,3.6s5.8,3.1,8.1,1.5C497.7,101.2,496.5,98,494.8,98z"
			/>
		<path class="st19" d="M460.4,89.4c0,0,7-0.5,6.5-4.1s-1.2-5-3.8-4.1c-2.6,0.9-2.7-0.3-3.8,2.7C458.4,87,460.4,89.4,460.4,89.4z"/>
		<path class="st22" d="M503.9,86.9c-0.7-0.1-1.4-0.2-2.2-0.4C502.5,87,503.3,87.2,503.9,86.9z"/>
		<path class="st20" d="M502,79.8c-2.2-1.9-2.4-3.1-3.6-1.2c-1.2,1.9-0.5,5-0.5,5c0.6,0.2,2.3,2,3.8,2.9c0.8,0.2,1.5,0.3,2.2,0.4
			c0.3-0.2,0.6-0.5,0.7-1.1C505.8,82.2,504.2,81.7,502,79.8z"/>
		<path class="st22" d="M512.4,121.5c-0.6-0.5-1.1-0.9-1.7-1.4C511.3,120.7,511.8,121.1,512.4,121.5z"/>
		<path class="st21" d="M516,121.1c0.5-2.1-4.4-6.6-6-7.1c-1.5-0.5-2.4,3.5-2.4,3.5l0.2-0.2c0,0,0,0,2.6,2.7
			c0.1,0.1,0.1,0.1,0.2,0.2c0.6,0.5,1.1,0.9,1.7,1.4C514.2,122.7,515.7,122.7,516,121.1z"/>
		<path class="st22" d="M532.6,87.9l-0.2,0C532.4,88,532.5,88,532.6,87.9L532.6,87.9z"/>
		<path class="st13" d="M519.3,94.7c3.1,2.7,5.3,2.9,7.9,0.3c2.6-2.6,4.6-5.3,4.6-5.3l0.7-1.7c0,0-0.1,0-0.2,0l-12.2,1.2
			C520.2,89.1,516.2,92,519.3,94.7z"/>
		<path class="st14" d="M510.9,78.7c0.9,0.9,7.7,4.3,10.1,0.5c2.4-3.8,2.2-6.7-0.7-8.2c-2.9-1.5-1.2-3.3-5.2-1.7
			c-3.9,1.5-7.4,1.5-6.5,4.1C509.5,76,510.9,78.7,510.9,78.7z"/>
	</g>
	<g>
		<path class="st5" d="M544.4,129.4c-6.3,18.9,25.7,21.1,23.1-1.2C567.4,127.5,550.7,110.5,544.4,129.4z M559.1,131.5
			c0,0-1.9,4.6-6.3,6.8s-4.1-4.6-1.7-9.5C553.5,124,559.1,131.5,559.1,131.5z"/>
		<path class="st6" d="M496.4,115.5c4.4-1,8.3-11.4-4.4-20.9s-10.9,9.7-10.9,9.7c0,0.5,0.2,1.2,0.7,2l1.7-0.7c0,0,3.4-0.5,7-0.5
			c3.6,0,5.1,1.7,5.3,5.8c0.2,4.1-4.5,3.4-4.5,3.4l-9.5-7.8C484.6,110.3,492.8,116.3,496.4,115.5z"/>
		<path class="st7" d="M520,99.4c-0.1,3.8-0.1,3.8-0.1,3.8l0.3,0c0,0-3.5,2.2-4.2,0.7c-0.7-1.5-0.9-8.1,0.9-9.2
			c1.4-0.9,2.5,0.1,2.9,2.3c-0.3-3.9-0.8-7.3-1.5-8.1c-1.7-2.2-7.2,16.2-6.3,20.6c0.9,4.4,6,6.1,8.5,1.3c0,0-0.2-5.9-0.6-11.6
			C520,99.2,520,99.3,520,99.4z"/>
		<path class="st8" d="M513.9,135.9c3.6,4.9,11.7,3.9,13.1,1.9s0-8.5,0-8.5s-5.3-14.3-10.9-12.1C510.5,119.4,510.3,131,513.9,135.9z
			 M518.5,122c2.7,0.5,4.6,6.8,4.6,6.8s-2.4,2.4-3.4,1.7c-1-0.7-2.9-3.4-4.1-4.6C514.4,124.7,515.8,121.6,518.5,122z"/>
		<path class="st5" d="M533.3,123.7c6.8,1.5,10.7,3.2,10.2-3.9c-0.5-7-2.2-10.4-2.2-10.4s-14.3-5.6-15.3-2.7
			C525.1,109.7,526.5,122.3,533.3,123.7z M533.1,116c-1.9-0.2-3.4-4.4-1-6.8c2.4-2.4,6.3,2.9,6.3,2.9s0,0,0.7,3.9
			C539.9,119.8,535,116.2,533.1,116z"/>
		<path class="st5" d="M566.9,103.4c0.2,1.1,0.4,2.2,0.8,3.1c1.1,0.7,2.2,1.6,3.2,2.6c0.7,0.1,1.6,0.2,2.6,0.1
			c6.3-0.7,8.3-0.5,10.4-4.6s1.9-8.3,0.2-11.7c-1.3-2.6-3.2-3.9-9-1c-4.3,2.2-7.2,3.3-8.2,5.6C566.7,99.9,570.2,102.8,566.9,103.4z
			 M570.9,97c1.2-4.9,5.3-0.2,7.8,2.2c0,0-1.9,3.4-7,5.3C566.6,106.5,569.7,101.9,570.9,97z"/>
		<path class="st6" d="M554.6,76.5c0.3-1.5,2-3.6,4-4.3c3.6-1.2,7,0.7,7.5,1.7c0,0-3.4,3.4-8.3,4.3c3.1,1.6,12.7,4.2,21.2,4.4
			c9.2,0.2,4.1-3.9,5.3-8.7c1.2-4.9-1-8-3.6-10.9s-8.3-0.7-21.8,4.9C549.5,71.7,551.9,74.8,554.6,76.5z"/>
		<path class="st5" d="M561,85.6c-5.1-7.8-6.8-1.5-11.7,3.4c-4.9,4.9-0.2,9.2,0.2,10.2c0,0,4.6,3.2,13.6,4.1
			c1.7,0.2,2.9,0.2,3.7,0.1c-0.1-1-0.2-2-0.3-3c-0.1-1.2,0-2.1,0.3-2.9c0,0,0,0,0,0C567.3,94.5,566.1,93.4,561,85.6z"/>
		<path class="st22" d="M566.6,100.4c0.1,1,0.2,2,0.3,3c3.3-0.6-0.2-3.5,0-5.9C566.6,98.3,566.5,99.2,566.6,100.4z"/>
		<path class="st10" d="M567.6,106.5c-2.9-1.9-6.1-2.2-7.9,2.2c-2.4,6.1-6.6,5.1-1.7,8.7c4.9,3.6,4.9,8.5,11.2,6.6
			c6.3-1.9,6.3-1.9,6.3-1.9s-1.3-9.3-4.8-12.9l0,0C569.2,108.8,568.2,107.8,567.6,106.5z"/>
		<path class="st22" d="M570.8,109.1c-1-1-2-1.9-3.2-2.6C568.2,107.8,569.2,108.8,570.8,109.1z"/>
		<path class="st11" d="M535.5,162.1c4.4-3.4,3.6-8.5,3.6-8.5s-7.5-11.4-15.5-1.9c-8,9.5-10.7,11.4-3.4,12.6
			C527.5,165.5,531.2,165.5,535.5,162.1z M526.1,160.2c-2.4-1.2-1.9-2.7,0.2-5.6c2.2-2.9,7.5,1.7,7.5,1.7s-0.2,3.2-3.2,4.6
			S528.5,161.4,526.1,160.2z"/>
		<path class="st12" d="M523.5,72.8c0,0-2.6-0.6-3.5-1.2c-0.9-0.7-0.7-2.5,0.1-5.8c0.8-3.3,6.5-3.3,6.5-3.3c0.1-0.5,0.1-1,0.2-1.4
			c-1.3-0.2-2.3-0.8-3.2-1.6c-5.5,3.4-14.6,10.9-7,14.9C519.7,76.1,521.9,75,523.5,72.8z"/>
		<path class="st13" d="M520.2,66c-0.7,3.4-1,5.3,0,6.1s3.6,1.4,3.6,1.4c1.8-2.7,2.6-7.2,2.9-10.7C526.7,62.7,520.9,62.6,520.2,66z"
			/>
		<path class="st14" d="M540.1,46.3c0,0-15.1-3.4-18.5,0.7c-2.2,2.6-1.4,9.2,1.9,12.5c0.9,0.9,2,1.5,3.3,1.7c1.3,0.2,2.8,0,4.5-0.8
			C540.6,55.8,540.1,46.3,540.1,46.3z"/>
		<path class="st15" d="M507.1,138.1c-0.6-0.4-2.3-5.3-4.5-8.9c0.5,1.8,0.4,4.2,0.6,4.8c0,0-1.7,2.7-3.9,3.2
			c-2.2,0.5-1.5-0.5-1.7-3.4c-0.2-2.9-1-4.4,2.4-6.1c0.5-0.3,0.9-0.3,1.3-0.2c-1.1-1.4-2.4-2.3-3.7-2.1c-4.6,0.5-5.3,5.1-3.6,12.1
			c1.7,7,2.7,15.1,8,10C507.4,142.2,507.1,138.1,507.1,138.1z"/>
		<path class="st16" d="M496.4,77.9c0,0-1.4-8.8-6.6-9.5c0,0-0.2,9.3-2.4,11c-1.8,1.4-7.2-1.7-9.1-2.9c0,1.1,0.5,2.1,1.3,3.1
			c2.9,3.4,1.7,8.3,9,5.8S496.4,77.9,496.4,77.9z"/>
		<path class="st13" d="M487.4,79.3c2.2-1.7,2.4-10.9,2.4-11c-1-0.1-2.1,0-3.4,0.5c-5.6,2.4-8.1,5-8.1,7.6
			C480.2,77.6,485.6,80.7,487.4,79.3z"/>
		<path class="st16" d="M508.1,72c0,0-0.7-13.6-5.6-11.2c-4.9,2.4-3.2,10.7-3.1,16.8C499.3,83.7,507.1,77.4,508.1,72z"/>
		<path class="st17" d="M517.3,151.2c0,0-7-10.4-11.2-4.1c-4.1,6.3-7.5,8-3.4,11.4c4.1,3.4,5.8,6.8,9.7,2.4
			C516.3,156.5,517.3,151.2,517.3,151.2z"/>
		<path class="st17" d="M531.9,139c1.2,6.1,1.5,9,6.6,7s6.8-3.4,6.8-3.4l-3.1-7.9C542.2,134.8,530.7,133,531.9,139z"/>
		<path class="st18" d="M544.2,64.2c2.9,4.6,10.9,7.3,15.1,1s7-13.8,5.6-18c-0.3-0.7-14.1-7.5-18.2-1.2S541.3,59.6,544.2,64.2z"/>
		<path class="st19" d="M566.1,73.9c-0.5-1-3.9-2.9-7.5-1.7c-2,0.7-3.8,2.7-4,4.3c1.2,0.8,2.4,1.2,2.5,1.3c0.2,0.1,0.4,0.3,0.7,0.4
			C562.6,77.4,566.1,73.9,566.1,73.9z"/>
		<path class="st19" d="M571.7,104.5c5.1-1.9,7-5.3,7-5.3c-2.4-2.4-6.6-7-7.8-2.2C569.7,101.9,566.6,106.5,571.7,104.5z"/>
		<path class="st19" d="M552.8,138.3c4.4-2.2,6.3-6.8,6.3-6.8s-5.6-7.5-8-2.7C548.6,133.7,548.4,140.5,552.8,138.3z"/>
		<path class="st19" d="M539.2,116c-0.7-3.9-0.7-3.9-0.7-3.9s-3.9-5.3-6.3-2.9c-2.4,2.4-1,6.6,1,6.8
			C535,116.2,539.9,119.8,539.2,116z"/>
		<path class="st19" d="M515.6,125.9c1.2,1.2,3.2,3.9,4.1,4.6c1,0.7,3.4-1.7,3.4-1.7s-1.9-6.3-4.6-6.8
			C515.8,121.6,514.4,124.7,515.6,125.9z"/>
		<path class="st19" d="M533.8,156.3c0,0-5.3-4.6-7.5-1.7c-2.2,2.9-2.7,4.4-0.2,5.6s1.7,2.2,4.6,0.7S533.8,156.3,533.8,156.3z"/>
		<path class="st22" d="M501.3,127.3c0.4,0.5,0.9,1.2,1.3,1.8C502.3,128.2,502,127.5,501.3,127.3z"/>
		<path class="st20" d="M497.6,133.7c0.2,2.9-0.5,3.9,1.7,3.4c2.2-0.5,3.9-3.2,3.9-3.2c-0.3-0.5-0.2-3-0.6-4.8
			c-0.4-0.7-0.8-1.3-1.3-1.8c-0.3-0.1-0.8,0-1.3,0.2C496.7,129.3,497.4,130.8,497.6,133.7z"/>
		<path class="st22" d="M519.8,96.9c0.1,0.7,0.1,1.4,0.2,2.2C520,98.2,519.9,97.5,519.8,96.9z"/>
		<path class="st21" d="M516.9,94.6c-1.8,1.2-1.6,7.8-0.8,9.2s4.2-0.8,4.2-0.8l-0.3,0c0,0,0,0,0-3.8c0-0.1,0-0.2,0-0.3
			c-0.1-0.7-0.1-1.5-0.2-2.2C519.4,94.7,518.3,93.7,516.9,94.6z"/>
		<path class="st22" d="M481.8,106.3l0.1,0.1C481.9,106.4,481.9,106.3,481.8,106.3L481.8,106.3z"/>
		<path class="st13" d="M495.9,110.9c-0.2-4.1-1.7-5.8-5.3-5.8c-3.6,0-7,0.5-7,0.5l-1.7,0.7c0,0,0.1,0.1,0.1,0.1l9.5,7.8
			C491.4,114.2,496.2,115,495.9,110.9z"/>
		<path class="st14" d="M490.6,128.1c0-1.2-2.4-8.5-6.8-7.5c-4.4,1-6.3,3.2-5.3,6.3c1,3.2-1.5,3.2,2.4,4.9c3.9,1.7,6.3,4.1,7.5,1.7
			C489.6,131,490.6,128.1,490.6,128.1z"/>
	</g>
	<g>
		<path class="st5" d="M461.7,126.7c17.9-8.9-3.3-33.1-17.2-15.4C444.1,111.9,443.9,135.6,461.7,126.7z M452.8,114.9
			c0,0,4.6-1.9,9.3-0.3c4.6,1.5-0.3,6.2-5.5,7.9C451.4,124.1,452.8,114.9,452.8,114.9z"/>
		<path class="st6" d="M485.8,170.5c-3.8-2.4-13.9,2.2-11.7,17.9c2.2,15.6,14.6,0.9,14.6,0.9c0.4-0.3,0.7-1,0.9-1.9l-1.7-0.7
			c0,0-2.7-2.1-5.3-4.6c-2.6-2.6-2.4-4.8,0.3-7.9c2.7-3.1,5.6,0.8,5.6,0.8l1.2,12.2C490.5,182.5,488.9,172.5,485.8,170.5z"/>
		<path class="st7" d="M457.7,165.2c2.7-2.6,2.7-2.6,2.7-2.6l-0.2-0.2c0,0,4,0.9,3.5,2.5c-0.5,1.5-5.1,6.3-7.2,5.9
			c-1.6-0.4-1.6-1.8-0.4-3.7c-2.5,3-4.6,5.7-4.7,6.8c-0.4,2.7,16.5-6.4,19-10.1c2.4-3.8,0.1-8.6-5.1-6.9c0,0-4.1,4.3-7.8,8.6
			C457.5,165.3,457.6,165.2,457.7,165.2z"/>
		<path class="st8" d="M487.8,143.7c0.9-6-5.5-11-7.9-10.6c-2.4,0.3-6,6-6,6s-6.3,13.9-0.9,16.3C478.6,157.8,487,149.7,487.8,143.7z
			 M474.8,150.2c-1.5-2.2,1.5-8.1,1.5-8.1s3.4,0,3.6,1.2c0.2,1.2-0.3,4.5-0.3,6.2C479.6,151.2,476.3,152.4,474.8,150.2z"/>
		<path class="st5" d="M465.5,138.5c-3.8-5.8-5.3-9.8-10-4.5c-4.6,5.3-5.8,8.9-5.8,8.9s6.2,14.1,8.9,12.7
			C461.4,154.3,469.3,144.4,465.5,138.5z M460.2,144.2c1.2,1.5-0.7,5.5-4.1,5.5s-2.4-6.5-2.4-6.5s0,0,2.2-3.3S459,142.7,460.2,144.2
			z"/>
		<path class="st5" d="M427.4,129.2c0.7-0.9,1.3-1.8,1.6-2.7c-0.3-1.3-0.4-2.7-0.4-4.1c-0.4-0.6-1-1.2-1.8-1.9
			c-5-3.9-6.2-5.5-10.6-4.1c-4.5,1.4-7.2,4.5-8.4,8.1c-0.9,2.8-0.5,5,5.7,7c4.6,1.5,7.4,2.8,9.7,1.8
			C425,131.9,424.6,127.2,427.4,129.2z M420,130.8c-4.3,2.6-4-3.6-4-7c0,0,3.8-1,8.8,1.2C429.8,127.2,424.3,128.3,420,130.8z"/>
		<path class="st6" d="M417.1,156.9c-1.3,0.9-3.9,1.1-5.8,0.2c-3.4-1.7-4.5-5.5-4.1-6.5c0,0,4.9,0,8.9,2.8c-1.1-3.3-6-12-11.8-18.1
			c-6.4-6.7-5.7-0.2-10,2.4c-4.3,2.6-5,6.4-5.1,10.3c-0.2,3.9,5.3,6.3,18.9,12C417.3,163.9,417.8,160,417.1,156.9z"/>
		<path class="st5" d="M419,145.9c-1.9,9.1,3.8,5.8,10.6,5.8c6.9,0,6.7-6.4,7-7.4c0,0-1-5.5-6.7-12.5c-1.1-1.4-1.9-2.2-2.6-2.7
			c-0.6,0.8-1.2,1.5-1.9,2.3c-0.8,0.9-1.5,1.5-2.3,1.8c0,0,0,0,0,0C420.8,135.2,420.9,136.8,419,145.9z"/>
		<path class="st22" d="M425.5,131.5c0.6-0.8,1.3-1.6,1.9-2.3c-2.7-2-2.3,2.7-4.2,4.2C424,133,424.7,132.5,425.5,131.5z"/>
		<path class="st10" d="M429,126.5c0.8,3.4,2.8,5.9,7.1,4c6-2.6,8.2,1,7.4-5s2.6-9.4-3.3-12.5c-5.8-3.1-5.8-3.1-5.8-3.1
			s-5.7,7.5-5.8,12.5l0,0C429.6,123.8,429.6,125.2,429,126.5z"/>
		<path class="st22" d="M428.7,122.4c0,1.4,0.1,2.8,0.4,4.1C429.6,125.2,429.6,123.8,428.7,122.4z"/>
		<path class="st11" d="M491.1,109.9c-5.5-0.7-8.6,3.4-8.6,3.4s-2.7,13.4,9.6,12.4c12.4-1,15.6-0.5,11.3-6.5
			C499.1,113.1,496.6,110.5,491.1,109.9z M496.4,117.9c0.9,2.6-0.5,3.3-4.1,3.8s-4.1-6.5-4.1-6.5s2.4-2.1,5.5-1
			C496.7,115.2,495.5,115.4,496.4,117.9z"/>
		<path class="st12" d="M436.5,181.5c0,0,1.4,2.2,1.6,3.3c0.2,1.1-1.3,2.3-4.2,4c-2.9,1.8-6.9-2.3-6.9-2.3c-0.4,0.3-0.8,0.6-1.1,0.9
			c0.8,1,1.1,2.2,1.1,3.4c6.3,1.5,18,2.7,15.5-5.6C441.5,181.8,439.1,181,436.5,181.5z"/>
		<path class="st13" d="M433.9,188.7c2.9-1.9,4.5-3.1,4.3-4.3c-0.2-1.2-1.6-3.5-1.6-3.5c-3.2,0.7-6.9,3.3-9.6,5.5
			C427,186.4,431,190.6,433.9,188.7z"/>
		<path class="st14" d="M406,188.5c0,0,8.2,13,13.6,12.5c3.4-0.3,7.5-5.6,7.5-10.2c0-1.3-0.3-2.5-1.1-3.5c-0.8-1.1-2-2-3.8-2.6
			C412.3,181.5,406,188.5,406,188.5z"/>
		<path class="st15" d="M494.2,146.9c0.1,0.7-2.1,5.4-3.1,9.5c0.9-1.6,2.7-3.3,2.9-3.8c0,0,3.1-0.7,5,0.5c1.9,1.2,0.7,1.4-1.2,3.6
			c-1.9,2.2-2.4,3.8-6,2.6c-0.5-0.2-0.9-0.4-1.1-0.7c-0.2,1.8,0.1,3.3,1.1,4.1c3.6,2.9,7.4,0.2,11.2-6c3.8-6.2,8.8-12.5,1.4-12.7
			S494.2,146.9,494.2,146.9z"/>
		<path class="st16" d="M459.2,197.1c0,0-5.2,7.2-2.1,11.4c0,0,6.7-6.4,9.5-6.1c2.2,0.3,3.9,6.3,4.4,8.5c0.7-0.8,1.2-1.8,1.3-3.1
			c0.3-4.5,4.6-7-2.2-10.5C463.1,193.8,459.2,197.1,459.2,197.1z"/>
		<path class="st13" d="M466.6,202.4c-2.7-0.3-9.4,6-9.5,6.1c0.6,0.8,1.5,1.5,2.8,2c5.7,2.3,9.3,2.2,11.1,0.4
			C470.4,208.7,468.8,202.7,466.6,202.4z"/>
		<path class="st16" d="M446.8,193c0,0-9.1,10.1-3.9,11.8c5.2,1.7,9.8-5.3,14.1-9.6C461.2,190.9,451.3,189.9,446.8,193z"/>
		<path class="st17" d="M496.2,130.5c0,0-2.4,12.4,5,10.8c7.4-1.5,11-0.3,10.5-5.7c-0.5-5.3,0.7-8.9-5.2-8.6
			C500.7,127.4,496.2,130.5,496.2,130.5z"/>
		<path class="st17" d="M477.3,128.8c3.4-5.2,5.3-7.4,0.3-9.6c-5-2.2-7.2-2.4-7.2-2.4l-3.4,7.7C467.1,124.5,473.9,133.9,477.3,128.8
			z"/>
		<path class="st18" d="M415.7,172.9c1.2-5.3-2.6-12.9-10-11.3s-14.8,4.8-16.6,8.8c-0.3,0.7,4.6,15.3,12,13.7
			S414.5,178.2,415.7,172.9z"/>
		<path class="st19" d="M407.1,150.6c-0.3,1,0.7,4.8,4.1,6.5c1.9,1,4.6,0.7,5.8-0.2c-0.3-1.4-0.8-2.6-0.9-2.7c0-0.2-0.1-0.5-0.2-0.8
			C412,150.6,407.1,150.6,407.1,150.6z"/>
		<path class="st19" d="M424.8,125c-5-2.2-8.8-1.2-8.8-1.2c0,3.4-0.3,9.6,4,7C424.3,128.3,429.8,127.2,424.8,125z"/>
		<path class="st19" d="M462.1,114.5c-4.6-1.5-9.3,0.3-9.3,0.3s-1.4,9.3,3.8,7.6C461.7,120.7,466.7,116.1,462.1,114.5z"/>
		<path class="st19" d="M455.9,139.9c-2.2,3.3-2.2,3.3-2.2,3.3s-1,6.5,2.4,6.5s5.3-4,4.1-5.5C459,142.7,458.1,136.7,455.9,139.9z"/>
		<path class="st19" d="M479.6,149.5c0-1.7,0.5-5,0.3-6.2c-0.2-1.2-3.6-1.2-3.6-1.2s-3.1,5.8-1.5,8.1S479.6,151.2,479.6,149.5z"/>
		<path class="st19" d="M488.2,115.2c0,0,0.5,7,4.1,6.5s5-1.2,4.1-3.8c-0.9-2.6,0.3-2.7-2.7-3.8
			C490.6,113.1,488.2,115.2,488.2,115.2z"/>
		<path class="st22" d="M490.7,158.6c0.1-0.7,0.2-1.4,0.4-2.2C490.6,157.3,490.3,158.1,490.7,158.6z"/>
		<path class="st20" d="M497.8,156.7c1.9-2.2,3.1-2.4,1.2-3.6c-1.9-1.2-5-0.5-5-0.5c-0.2,0.6-2,2.3-2.9,3.8
			c-0.2,0.8-0.3,1.5-0.4,2.2c0.2,0.3,0.5,0.6,1.1,0.7C495.4,160.5,495.9,159,497.8,156.7z"/>
		<path class="st22" d="M456.1,167.1c0.5-0.6,0.9-1.1,1.4-1.7C456.9,166,456.4,166.6,456.1,167.1z"/>
		<path class="st21" d="M456.5,170.8c2.1,0.5,6.6-4.4,7.1-6c0.5-1.5-3.5-2.4-3.5-2.4l0.2,0.2c0,0,0,0-2.7,2.6
			c-0.1,0.1-0.1,0.1-0.2,0.2c-0.5,0.6-0.9,1.1-1.4,1.7C454.8,168.9,454.9,170.4,456.5,170.8z"/>
		<path class="st22" d="M489.6,187.3l0-0.2C489.6,187.2,489.6,187.2,489.6,187.3L489.6,187.3z"/>
		<path class="st13" d="M482.9,174.1c-2.7,3.1-2.9,5.3-0.3,7.9c2.6,2.6,5.3,4.6,5.3,4.6l1.7,0.7c0,0,0-0.1,0-0.2l-1.2-12.2
			C488.4,174.9,485.6,171,482.9,174.1z"/>
		<path class="st14" d="M498.8,165.7c-0.9,0.9-4.3,7.7-0.5,10.1c3.8,2.4,6.7,2.2,8.2-0.7c1.5-2.9,3.3-1.2,1.7-5.2
			c-1.5-3.9-1.5-7.4-4.1-6.5C501.6,164.3,498.8,165.7,498.8,165.7z"/>
	</g>
	<g>
		<path class="st5" d="M395.1,136.6c17.9-8.9-3.3-33.1-17.2-15.4C377.4,121.7,377.2,145.5,395.1,136.6z M386.2,124.7
			c0,0,4.6-1.9,9.3-0.3s-0.3,6.2-5.5,7.9C384.8,134,386.2,124.7,386.2,124.7z"/>
		<path class="st6" d="M419.1,180.3c-3.8-2.4-13.9,2.2-11.7,17.9s14.6,0.9,14.6,0.9c0.4-0.3,0.7-1,0.9-1.9l-1.7-0.7
			c0,0-2.7-2.1-5.3-4.6c-2.6-2.6-2.4-4.8,0.3-7.9c2.7-3.1,5.6,0.8,5.6,0.8L423,197C423.9,192.4,422.3,182.3,419.1,180.3z"/>
		<path class="st7" d="M391,175c2.7-2.6,2.7-2.6,2.7-2.6l-0.2-0.2c0,0,4,0.9,3.5,2.5c-0.5,1.5-5.1,6.3-7.2,5.9
			c-1.6-0.4-1.6-1.8-0.4-3.7c-2.5,3-4.6,5.7-4.7,6.8c-0.4,2.7,16.5-6.4,19-10.1c2.4-3.8,0.1-8.6-5.1-6.9c0,0-4.1,4.3-7.8,8.6
			C390.9,175.2,391,175.1,391,175z"/>
		<path class="st8" d="M421.2,153.6c0.9-6-5.5-11-7.9-10.6c-2.4,0.3-6,6-6,6s-6.3,13.9-0.9,16.3
			C411.9,167.6,420.3,159.6,421.2,153.6z M408.1,160.1c-1.5-2.2,1.5-8.1,1.5-8.1s3.4,0,3.6,1.2c0.2,1.2-0.3,4.5-0.3,6.2
			C413,161.1,409.7,162.3,408.1,160.1z"/>
		<path class="st5" d="M398.9,148.4c-3.8-5.8-5.3-9.8-10-4.5s-5.8,8.9-5.8,8.9s6.2,14.1,8.9,12.7
			C394.8,164.2,402.7,154.2,398.9,148.4z M393.6,154.1c1.2,1.5-0.7,5.5-4.1,5.5c-3.4,0-2.4-6.5-2.4-6.5s0,0,2.2-3.3
			C391.5,146.5,392.4,152.5,393.6,154.1z"/>
		<path class="st5" d="M360.7,139.1c0.7-0.9,1.3-1.8,1.6-2.7c-0.3-1.3-0.4-2.7-0.4-4.1c-0.4-0.6-1-1.2-1.8-1.9
			c-5-3.9-6.2-5.5-10.6-4.1c-4.5,1.4-7.2,4.5-8.4,8.1c-0.9,2.8-0.5,5,5.7,7c4.6,1.5,7.4,2.8,9.7,1.8
			C358.4,141.7,358,137.1,360.7,139.1z M353.4,140.7c-4.3,2.6-4-3.6-4-7c0,0,3.8-1,8.8,1.2C363.2,137.1,357.7,138.1,353.4,140.7z"/>
		<path class="st6" d="M350.5,166.8c-1.3,0.9-3.9,1.1-5.8,0.2c-3.4-1.7-4.5-5.5-4.1-6.5c0,0,4.9,0,8.9,2.8c-1.1-3.3-6-12-11.8-18.1
			c-6.4-6.7-5.7-0.2-10,2.4c-4.3,2.6-5,6.4-5.1,10.3c-0.2,3.9,5.3,6.3,18.9,12C350.7,173.8,351.1,169.8,350.5,166.8z"/>
		<path class="st5" d="M352.4,155.8c-1.9,9.1,3.8,5.8,10.6,5.8c6.9,0,6.7-6.4,7-7.4c0,0-1-5.5-6.7-12.5c-1.1-1.4-1.9-2.2-2.6-2.7
			c-0.6,0.8-1.2,1.5-1.9,2.3c-0.8,0.9-1.5,1.5-2.3,1.8c0,0,0,0,0,0C354.2,145.1,354.2,146.7,352.4,155.8z"/>
		<path class="st22" d="M358.9,141.4c0.6-0.8,1.3-1.6,1.9-2.3c-2.7-2-2.3,2.7-4.2,4.2C357.4,142.9,358.1,142.3,358.9,141.4z"/>
		<path class="st10" d="M362.4,136.4c0.8,3.4,2.8,5.9,7.1,4c6-2.6,8.2,1,7.4-5c-0.9-6,2.6-9.4-3.3-12.5s-5.8-3.1-5.8-3.1
			s-5.7,7.5-5.8,12.5l0,0C362.9,133.7,362.9,135,362.4,136.4z"/>
		<path class="st22" d="M362,132.3c0,1.4,0.1,2.8,0.4,4.1C362.9,135,362.9,133.7,362,132.3z"/>
		<path class="st11" d="M424.4,119.7c-5.5-0.7-8.6,3.4-8.6,3.4s-2.7,13.4,9.6,12.4c12.4-1,15.6-0.5,11.3-6.5
			C432.5,123,429.9,120.4,424.4,119.7z M429.8,127.8c0.9,2.6-0.5,3.3-4.1,3.8c-3.6,0.5-4.1-6.5-4.1-6.5s2.4-2.1,5.5-1
			C430.1,125,428.9,125.2,429.8,127.8z"/>
		<path class="st12" d="M369.8,191.4c0,0,1.4,2.2,1.6,3.3s-1.3,2.3-4.2,4c-2.9,1.8-6.9-2.3-6.9-2.3c-0.4,0.3-0.8,0.6-1.1,0.9
			c0.8,1,1.1,2.2,1.1,3.4c6.3,1.5,18,2.7,15.5-5.6C374.8,191.7,372.5,190.9,369.8,191.4z"/>
		<path class="st13" d="M367.3,198.6c2.9-1.9,4.5-3.1,4.3-4.3c-0.2-1.2-1.6-3.5-1.6-3.5c-3.2,0.7-6.9,3.3-9.6,5.5
			C360.4,196.3,364.4,200.4,367.3,198.6z"/>
		<path class="st14" d="M339.3,198.4c0,0,8.2,13,13.6,12.5c3.4-0.3,7.5-5.6,7.5-10.2c0-1.3-0.3-2.5-1.1-3.5c-0.8-1.1-2-2-3.8-2.6
			C345.7,191.4,339.3,198.4,339.3,198.4z"/>
		<path class="st15" d="M427.5,156.8c0.1,0.7-2.1,5.4-3.1,9.5c0.9-1.6,2.7-3.3,2.9-3.8c0,0,3.1-0.7,5,0.5c1.9,1.2,0.7,1.4-1.2,3.6
			c-1.9,2.2-2.4,3.8-6,2.6c-0.5-0.2-0.9-0.4-1.1-0.7c-0.2,1.8,0.1,3.3,1.1,4.1c3.6,2.9,7.4,0.2,11.2-6s8.8-12.5,1.4-12.7
			S427.5,156.8,427.5,156.8z"/>
		<path class="st16" d="M392.5,207c0,0-5.2,7.2-2.1,11.4c0,0,6.7-6.4,9.5-6.1c2.2,0.3,3.9,6.3,4.4,8.5c0.7-0.8,1.2-1.8,1.3-3.1
			c0.3-4.5,4.6-7-2.2-10.5S392.5,207,392.5,207z"/>
		<path class="st13" d="M399.9,212.3c-2.7-0.3-9.4,6-9.5,6.1c0.6,0.8,1.5,1.5,2.8,2c5.7,2.3,9.3,2.2,11.1,0.4
			C403.8,218.6,402.2,212.6,399.9,212.3z"/>
		<path class="st16" d="M380.2,202.8c0,0-9.1,10.1-3.9,11.8c5.2,1.7,9.8-5.3,14.1-9.6C394.6,200.8,384.6,199.8,380.2,202.8z"/>
		<path class="st17" d="M429.6,140.3c0,0-2.4,12.4,5,10.8c7.4-1.5,11-0.3,10.5-5.7c-0.5-5.3,0.7-8.9-5.2-8.6
			C434.1,137.2,429.6,140.3,429.6,140.3z"/>
		<path class="st17" d="M410.7,138.6c3.4-5.2,5.3-7.4,0.3-9.6c-5-2.2-7.2-2.4-7.2-2.4l-3.4,7.7C400.4,134.3,407.3,143.8,410.7,138.6
			z"/>
		<path class="st18" d="M349.1,182.8c1.2-5.3-2.6-12.9-10-11.3s-14.8,4.8-16.6,8.8c-0.3,0.7,4.6,15.3,12,13.7
			S347.9,188.1,349.1,182.8z"/>
		<path class="st19" d="M340.5,160.5c-0.3,1,0.7,4.8,4.1,6.5c1.9,1,4.6,0.7,5.8-0.2c-0.3-1.4-0.8-2.6-0.9-2.7c0-0.2-0.1-0.5-0.2-0.8
			C345.4,160.5,340.5,160.5,340.5,160.5z"/>
		<path class="st19" d="M358.2,134.9c-5-2.2-8.8-1.2-8.8-1.2c0,3.4-0.3,9.6,4,7C357.7,138.1,363.2,137.1,358.2,134.9z"/>
		<path class="st19" d="M395.4,124.4c-4.6-1.5-9.3,0.3-9.3,0.3s-1.4,9.3,3.8,7.6C395.1,130.6,400.1,125.9,395.4,124.4z"/>
		<path class="st19" d="M389.3,149.8c-2.2,3.3-2.2,3.3-2.2,3.3s-1,6.5,2.4,6.5c3.4,0,5.3-4,4.1-5.5S391.5,146.5,389.3,149.8z"/>
		<path class="st19" d="M413,159.4c0-1.7,0.5-5,0.3-6.2c-0.2-1.2-3.6-1.2-3.6-1.2s-3.1,5.8-1.5,8.1C409.7,162.3,413,161.1,413,159.4
			z"/>
		<path class="st19" d="M421.5,125.1c0,0,0.5,7,4.1,6.5c3.6-0.5,5-1.2,4.1-3.8s0.3-2.7-2.7-3.8C423.9,123,421.5,125.1,421.5,125.1z"
			/>
		<path class="st22" d="M424.1,168.5c0.1-0.7,0.2-1.4,0.4-2.2C424,167.1,423.7,167.9,424.1,168.5z"/>
		<path class="st20" d="M431.2,166.6c1.9-2.2,3.1-2.4,1.2-3.6c-1.9-1.2-5-0.5-5-0.5c-0.2,0.6-2,2.3-2.9,3.8
			c-0.2,0.8-0.3,1.5-0.4,2.2c0.2,0.3,0.5,0.6,1.1,0.7C428.8,170.4,429.3,168.8,431.2,166.6z"/>
		<path class="st22" d="M389.4,177c0.5-0.6,0.9-1.1,1.4-1.7C390.3,175.9,389.8,176.4,389.4,177z"/>
		<path class="st21" d="M389.9,180.6c2.1,0.5,6.6-4.4,7.1-6c0.5-1.5-3.5-2.4-3.5-2.4l0.2,0.2c0,0,0,0-2.7,2.6
			c-0.1,0.1-0.1,0.1-0.2,0.2c-0.5,0.6-0.9,1.1-1.4,1.7C388.2,178.8,388.3,180.3,389.9,180.6z"/>
		<path class="st22" d="M423,197.2l0-0.2C423,197,423,197.1,423,197.2L423,197.2z"/>
		<path class="st13" d="M416.2,183.9c-2.7,3.1-2.9,5.3-0.3,7.9c2.6,2.6,5.3,4.6,5.3,4.6l1.7,0.7c0,0,0-0.1,0-0.2l-1.2-12.2
			C421.8,184.8,419,180.8,416.2,183.9z"/>
		<path class="st14" d="M432.2,175.5c-0.9,0.9-4.3,7.7-0.5,10.1s6.7,2.2,8.2-0.7s3.3-1.2,1.7-5.2c-1.5-3.9-1.5-7.4-4.1-6.5
			C434.9,174.1,432.2,175.5,432.2,175.5z"/>
	</g>
	<path class="st14" d="M305,173.8c-0.8-1.2-1.6-2.4-2.3-3.6c40.6,3.6,85-14.5,125.4-39.6c28.5-17.6,55-38.7,77-58.1
		c23.8-21,42.2-39.9,51.8-50.2c0.6,1.1,1.3,2.3,2,3.4c-0.1,0.1-0.1,0.1-0.2,0.2c-9.6,10.3-28,29.2-51.8,50.2
		c-22,19.4-48.5,40.4-77,58.1C389.6,159.2,345.5,177.3,305,173.8z"/>
	<g>
		<path class="st23" d="M480.8,176.6c-0.2,0.1-0.3,0.2-0.5,0.2c-0.2,0.1-0.3,0.1-0.5,0.2c-0.2,0.1-0.4,0.2-0.5,0.2
			c-0.2,0.1-0.3,0.1-0.5,0.2c-0.5,0.2-1.1,0.4-1.7,0.6c-0.4,0.1-0.8,0.2-1.2,0.3l0,0c-0.4,0.1-0.8,0.2-1.3,0.3
			c-0.2,0-0.5,0.1-0.7,0.2c-0.9,0.2-1.9,0.4-3,0.6c-0.4,0.1-0.7,0.1-1.1,0.2c-0.4,0.1-0.7,0.1-1,0.2c-2.1,0.3-4,0.7-5.7,1
			c-0.3,0.1-0.7,0.1-1,0.2l0,0c-0.6,0.1-1.1,0.2-1.6,0.3c-0.3,0.1-0.5,0.1-0.8,0.2l-0.8,0.1c-0.7,0.1-1.3,0.3-2,0.4
			c-2.5,0.4-4.7,0.7-6.6,0.6c-0.3,0-0.6,0-0.9,0c-0.3,0-0.6-0.1-0.8-0.1c-0.2,0-0.5-0.1-0.7-0.1c-0.1,0-0.1,0-0.2,0
			c-0.2-0.1-0.5-0.1-0.7-0.2c-0.2-0.1-0.5-0.2-0.7-0.3c-0.1,0-0.2-0.1-0.3-0.1c-0.2-0.1-0.4-0.2-0.6-0.3c-0.1-0.1-0.3-0.1-0.4-0.2
			c-0.2-0.1-0.3-0.2-0.5-0.3c-0.2-0.1-0.3-0.2-0.4-0.3c-0.3-0.2-0.6-0.5-0.9-0.8c-5.1-5.4-5.1-5.4-5.1-5.4s-6.1-23.4-8.4-40.2
			c28.5-17.6,55-38.7,77-58.1c0.5,0.7,0.9,1.4,1.4,2.2c12.7,23,7.6,19.2,5.2,39.8c-0.3,2.2-0.5,4.3-0.7,6.2c0,0.4-0.1,0.8-0.1,1.1
			c-0.1,0.7-0.2,1.5-0.3,2.2c-0.1,0.7-0.2,1.4-0.3,2.1c0,0.3-0.1,0.7-0.1,1c0,0.3-0.1,0.6-0.1,1c-0.1,0.6-0.2,1.1-0.2,1.7
			c0,0.2-0.1,0.5-0.1,0.7c-0.1,0.4-0.1,0.9-0.2,1.3c0,0.3-0.1,0.6-0.2,0.9c-0.1,0.5-0.2,1.1-0.3,1.6c-0.1,0.4-0.2,0.8-0.3,1.2
			c0,0.2-0.1,0.4-0.1,0.6c0,0.1,0,0.1-0.1,0.2c0,0.2-0.1,0.3-0.1,0.5c-0.1,0.5-0.3,1-0.5,1.5c-0.1,0.2-0.1,0.4-0.2,0.6
			c-0.1,0.2-0.1,0.4-0.2,0.5c-0.1,0.2-0.1,0.4-0.2,0.6c-0.4,1.1-0.9,2.1-1.4,3.2c-0.1,0.2-0.2,0.4-0.3,0.5c-0.1,0.2-0.2,0.4-0.3,0.5
			c-0.2,0.4-0.4,0.7-0.6,1c-0.2,0.4-0.4,0.7-0.6,1.1c-0.2,0.4-0.5,0.7-0.7,1.1c-0.1,0.2-0.2,0.3-0.4,0.5c-0.2,0.4-0.5,0.7-0.8,1.1
			c-0.1,0.2-0.3,0.4-0.4,0.5c-0.1,0.2-0.3,0.4-0.4,0.6c-0.3,0.4-0.6,0.7-0.9,1.1l0,0c-0.3,0.4-0.6,0.8-1,1.1c-0.3,0.4-0.7,0.8-1,1.2
			c-0.4,0.4-0.7,0.8-1.1,1.2c-0.2,0.2-0.4,0.4-0.6,0.6c-0.6,0.6-1.1,1.1-1.6,1.7c0,0,0,0,0,0c-0.5,0.5-1,1.1-1.5,1.6
			c-2.1,2.3-3.8,4.4-5.4,6.2c-0.3,0.4-0.7,0.8-1,1.1c-0.9,1-1.7,1.9-2.5,2.7c-0.2,0.2-0.5,0.5-0.7,0.7c-0.2,0.2-0.3,0.3-0.5,0.5
			c-0.2,0.2-0.3,0.3-0.5,0.5c-0.3,0.3-0.6,0.5-1,0.8c-0.3,0.2-0.5,0.4-0.8,0.5c-0.2,0.2-0.5,0.3-0.7,0.5c0,0,0,0-0.1,0
			c-0.2,0.1-0.4,0.3-0.6,0.4c-0.1,0.1-0.2,0.1-0.4,0.2C481.2,176.4,481,176.5,480.8,176.6z"/>
		<path class="st23" d="M558.4,79.5c-0.1,0-0.1,0.1-0.2,0.1s-0.1,0-0.2,0.1c-0.1,0-0.2,0-0.3,0c-0.1,0-0.2,0-0.3,0
			c-0.1,0-0.1,0-0.2,0c-0.1,0-0.2-0.1-0.3-0.1c-0.1,0-0.2-0.1-0.4-0.2c-0.4-0.2-0.8-0.5-1.2-1c-0.1-0.1-0.2-0.2-0.2-0.3
			c-0.1-0.1-0.2-0.2-0.3-0.3c0,0,0,0,0,0c0,0,0,0,0,0c-0.2-0.3-0.5-0.6-0.7-0.9c-0.1-0.2-0.2-0.4-0.4-0.5c-0.2-0.3-0.3-0.5-0.5-0.8
			c-0.1-0.2-0.3-0.4-0.4-0.6c-0.1-0.2-0.3-0.4-0.4-0.7c-0.4-0.8-0.8-1.6-1.2-2.5c-0.1-0.2-0.2-0.4-0.3-0.6c-0.1-0.3-0.3-0.6-0.4-0.9
			c-0.2-0.4-0.4-0.8-0.6-1.2c0,0,0,0,0,0c-0.2-0.4-0.3-0.8-0.5-1.3c-0.2-0.4-0.4-0.9-0.5-1.3c-0.3-0.9-0.7-1.8-1-2.6
			c-0.7-1.8-1.3-3.6-1.8-5.3c-0.1-0.4-0.3-0.8-0.4-1.3c-0.5-1.7-0.9-3.2-1.3-4.6c-0.1-0.2-0.1-0.4-0.2-0.6c-0.1-0.4-0.2-0.8-0.2-1.2
			c-0.1-0.9-0.1-1.6,0-2.2c0-0.1,0.1-0.2,0.1-0.3c0-0.1,0.1-0.3,0.1-0.4c0.1-0.1,0.1-0.2,0.2-0.3c0-0.1,0.1-0.1,0.2-0.2
			c0.1-0.1,0.2-0.2,0.3-0.3c0.1,0,0.1-0.1,0.2-0.1c0,0,0,0,0,0c0.1-0.1,0.2-0.1,0.3-0.2c2.3-1.2,7.2-0.3,13.2-3.2
			c9.5-4.8,5.6,11.9,6.5,13l0,0l0,0c0,0,0,0,0,0c0,0,0,0.1,0,0.1c0,0,0,0,0,0.1c0,0,0,0.1,0,0.1c0,0,0,0,0,0c0,0.1-0.1,0.3-0.1,0.6
			c0,0.1,0,0.2-0.1,0.3c0,0,0,0.1,0,0.2c0,0.3-0.1,0.5-0.1,0.9c-0.2,1-0.3,2.2-0.6,3.6c0,0.3-0.1,0.6-0.2,0.9c0,0.2-0.1,0.3-0.1,0.5
			c-0.1,0.3-0.1,0.6-0.2,1c-0.4,1.8-0.8,3.7-1.2,5.6c-0.1,0.2-0.1,0.4-0.2,0.6c-0.1,0.3-0.1,0.6-0.2,0.9c-0.1,0.3-0.2,0.7-0.3,1
			c-0.2,0.5-0.3,0.9-0.4,1.4c-0.1,0.3-0.2,0.6-0.3,0.9c0,0,0,0,0,0c-0.1,0.2-0.2,0.4-0.2,0.6c-0.1,0.2-0.2,0.4-0.2,0.6c0,0,0,0,0,0
			c-0.1,0.2-0.2,0.5-0.3,0.7c-0.1,0.2-0.2,0.4-0.3,0.6c0,0,0,0,0,0c-0.2,0.3-0.3,0.6-0.5,0.8c0,0,0,0,0,0c-0.1,0.1-0.2,0.2-0.3,0.3
			c-0.1,0.1-0.2,0.2-0.3,0.3c-0.1,0.1-0.2,0.2-0.3,0.2C558.6,79.4,558.5,79.4,558.4,79.5z"/>
		<path class="st24" d="M584.9,43.9C584.9,43.9,584.9,43.9,584.9,43.9C584.9,43.9,585,43.9,584.9,43.9c0-0.1,0.1-0.2,0.1-0.3
			c-8.5-7.6-14.6-16.5-18.9-25.8c0,0-2.5,2.9-7.3,7.9c-0.1,0.1-0.1,0.1-0.2,0.2c-9.6,10.3-28,29.2-51.8,50.2
			c0.5,0.7,0.9,1.4,1.4,2.2c12.7,23,7.6,19.2,5.2,39.8c-0.3,2.2-0.5,4.3-0.7,6.2c0,0.4-0.1,0.8-0.1,1.1c-0.1,0.7-0.2,1.5-0.3,2.2
			c-0.1,0.7-0.2,1.4-0.3,2.1c0,0.3-0.1,0.7-0.1,1c0,0.3-0.1,0.6-0.1,1c-0.1,0.6-0.2,1.1-0.2,1.7c0,0.2-0.1,0.5-0.1,0.7
			c-0.1,0.4-0.1,0.9-0.2,1.3c0,0.3-0.1,0.6-0.2,0.9c-0.1,0.5-0.2,1.1-0.3,1.6c-0.1,0.4-0.2,0.8-0.3,1.2c0,0.2-0.1,0.4-0.1,0.6
			c0,0.1,0,0.1-0.1,0.2c0,0.2-0.1,0.3-0.1,0.5c-0.1,0.5-0.3,1-0.5,1.5c-0.1,0.2-0.1,0.4-0.2,0.6c-0.1,0.2-0.1,0.4-0.2,0.5
			c-0.1,0.2-0.1,0.4-0.2,0.6c-0.4,1.1-0.9,2.1-1.4,3.2c-0.1,0.2-0.2,0.4-0.3,0.5c-0.1,0.2-0.2,0.4-0.3,0.5c-0.2,0.4-0.4,0.7-0.6,1
			c-0.2,0.4-0.4,0.7-0.6,1.1c-0.2,0.4-0.5,0.7-0.7,1.1c-0.1,0.2-0.2,0.4-0.4,0.5c-0.2,0.4-0.5,0.7-0.8,1.1c-0.1,0.2-0.3,0.4-0.4,0.5
			c-0.1,0.2-0.3,0.4-0.4,0.6c-0.3,0.4-0.6,0.7-0.9,1.1l0,0c-0.3,0.4-0.6,0.8-1,1.1c-0.3,0.4-0.7,0.8-1,1.2c-0.3,0.4-0.7,0.8-1.1,1.2
			c-0.2,0.2-0.4,0.4-0.6,0.6c-0.6,0.6-1.1,1.1-1.6,1.7c0,0,0,0,0,0c-0.5,0.5-1,1.1-1.5,1.6c-2.1,2.3-3.8,4.4-5.4,6.2
			c-0.3,0.4-0.7,0.8-1,1.1c-0.9,1-1.7,1.9-2.5,2.7c-0.2,0.2-0.5,0.5-0.7,0.7c-0.2,0.2-0.3,0.3-0.5,0.5c-0.2,0.2-0.3,0.3-0.5,0.5
			c-0.3,0.3-0.6,0.5-1,0.8c-0.3,0.2-0.5,0.4-0.8,0.5c-0.2,0.2-0.5,0.3-0.7,0.5c0,0,0,0-0.1,0c-0.2,0.1-0.4,0.3-0.6,0.4
			c-0.1,0.1-0.2,0.1-0.4,0.2c-0.2,0.1-0.4,0.2-0.7,0.4c-0.2,0.1-0.3,0.2-0.5,0.2c-0.2,0.1-0.3,0.1-0.5,0.2c-0.2,0.1-0.4,0.2-0.5,0.2
			c-0.2,0.1-0.3,0.1-0.5,0.2c-0.5,0.2-1.1,0.4-1.7,0.6c-0.4,0.1-0.8,0.2-1.2,0.3l0,0c-0.4,0.1-0.8,0.2-1.3,0.3
			c-0.2,0-0.5,0.1-0.7,0.2c-0.9,0.2-1.9,0.4-3,0.6c-0.4,0.1-0.7,0.1-1.1,0.2c-0.4,0.1-0.7,0.1-1,0.2c-2.1,0.3-4,0.7-5.7,1
			c-0.3,0.1-0.7,0.1-1,0.2l0,0c-0.6,0.1-1.1,0.2-1.6,0.3c-0.3,0.1-0.5,0.1-0.8,0.2l-0.8,0.1c-0.7,0.1-1.3,0.3-2,0.4
			c-2.5,0.4-4.7,0.7-6.6,0.6c-0.3,0-0.6,0-0.9,0c-0.3,0-0.6-0.1-0.8-0.1c-0.2,0-0.5-0.1-0.7-0.1c-0.1,0-0.1,0-0.2,0
			c-0.2-0.1-0.5-0.1-0.7-0.2c-0.2-0.1-0.5-0.2-0.7-0.3c-0.1,0-0.2-0.1-0.3-0.1c-0.2-0.1-0.4-0.2-0.6-0.3c-0.1-0.1-0.3-0.1-0.4-0.2
			c-0.2-0.1-0.3-0.2-0.5-0.3c-0.2-0.1-0.3-0.2-0.4-0.3c-0.3-0.2-0.6-0.5-0.9-0.8c-5.1-5.4-5.1-5.4-5.1-5.4s-6.1-23.4-8.4-40.2
			c-40.3,25-84.4,43-124.9,39.6c-0.2,0-0.4,0-0.5,0c1.4,2.3,2.9,4.5,4.4,6.8c0.8,1.1,1.5,2.2,2.3,3.4c0.8,1.1,1.5,2.2,2.3,3.3
			c0,0,0,0,0,0c0.8,1.1,1.5,2.1,2.3,3.2c0.1,0.1,0.1,0.2,0.2,0.3c0.8,1.1,1.6,2.1,2.4,3.2c0.5,0.6,1,1.3,1.5,1.9
			c0.7,0.9,1.4,1.8,2.1,2.7c0.4,0.5,0.9,1.1,1.3,1.6c0.1,0.1,0.2,0.2,0.2,0.3c0,0,0,0,0,0c0.1,0.2,0.3,0.4,0.4,0.5
			c0.7,0.9,1.5,1.8,2.2,2.7c0.9,1.1,1.8,2.1,2.7,3.2c0,0,0,0,0,0c0.9,1,1.8,2,2.7,3c0.1,0.1,0.2,0.2,0.2,0.3
			c0.8,0.9,1.5,1.7,2.3,2.6c0.2,0.2,0.4,0.4,0.6,0.6c0.7,0.8,1.4,1.5,2.2,2.3c1,1,2,2.1,3,3.1c0.4,0.4,0.9,0.9,1.3,1.3
			c0.8,0.8,1.7,1.6,2.5,2.5c0.9,0.9,1.8,1.8,2.8,2.7c50,31.4,106.8,26.6,168.1-2.9C614.5,174.2,584.9,43.9,584.9,43.9z M558.2,79.5
			c-0.1,0-0.1,0-0.2,0.1c-0.1,0-0.2,0-0.3,0c-0.1,0-0.2,0-0.3,0c-0.1,0-0.1,0-0.2,0c-0.1,0-0.2-0.1-0.3-0.1c-0.1,0-0.2-0.1-0.4-0.2
			c-0.4-0.2-0.8-0.5-1.2-1c-0.1-0.1-0.2-0.2-0.2-0.3c-0.1-0.1-0.2-0.2-0.3-0.3c0,0,0,0,0,0c0,0,0,0,0,0c-0.2-0.3-0.5-0.6-0.7-0.9
			c-0.1-0.2-0.2-0.4-0.4-0.5c-0.2-0.3-0.3-0.5-0.5-0.8c-0.1-0.2-0.3-0.4-0.4-0.6c-0.1-0.2-0.3-0.4-0.4-0.7c-0.4-0.8-0.8-1.6-1.2-2.5
			c-0.1-0.2-0.2-0.4-0.3-0.6c-0.1-0.3-0.3-0.6-0.4-0.9c-0.2-0.4-0.4-0.8-0.6-1.2c0,0,0,0,0,0c-0.2-0.4-0.4-0.8-0.5-1.3
			c-0.2-0.4-0.4-0.9-0.5-1.3c-0.3-0.9-0.7-1.8-1-2.6c-0.3-0.9-0.7-1.8-0.9-2.7c-0.3-0.9-0.6-1.8-0.9-2.6c-0.1-0.4-0.3-0.8-0.4-1.3
			c-0.5-1.7-0.9-3.2-1.3-4.6c-0.1-0.2-0.1-0.4-0.2-0.6c-0.1-0.4-0.2-0.8-0.2-1.2c-0.1-0.9-0.1-1.6,0-2.2c0-0.1,0.1-0.2,0.1-0.3
			c0-0.1,0.1-0.3,0.1-0.4c0.1-0.1,0.1-0.2,0.2-0.3c0-0.1,0.1-0.1,0.2-0.2c0.1-0.1,0.2-0.2,0.3-0.3c0.1,0,0.1-0.1,0.2-0.1
			c0,0,0,0,0,0c0.1-0.1,0.2-0.1,0.3-0.2c2.3-1.2,7.2-0.3,13.2-3.2c9.5-4.8,5.6,11.9,6.5,13l0,0l0,0c0,0,0,0,0,0c0,0,0,0.1,0,0.1
			c0,0,0,0,0,0.1c0,0,0,0.1,0,0.1c0,0,0,0,0,0c0,0.1-0.1,0.3-0.1,0.6c0,0.1,0,0.2-0.1,0.3c0,0,0,0.1,0,0.2c0,0.3-0.1,0.6-0.1,0.9
			c-0.2,1-0.3,2.2-0.6,3.6c0,0.3-0.1,0.6-0.2,0.9c0,0.2-0.1,0.3-0.1,0.5c-0.1,0.3-0.1,0.6-0.2,1c-0.4,1.8-0.8,3.7-1.2,5.6
			c-0.1,0.2-0.1,0.4-0.2,0.6c-0.1,0.3-0.1,0.6-0.2,0.9c-0.1,0.3-0.2,0.7-0.3,1c-0.2,0.5-0.3,0.9-0.4,1.4c-0.1,0.3-0.2,0.6-0.3,0.9
			c0,0,0,0,0,0c-0.1,0.2-0.2,0.4-0.2,0.6c-0.1,0.2-0.2,0.4-0.2,0.6c0,0,0,0,0,0c-0.1,0.2-0.2,0.5-0.3,0.7c-0.1,0.2-0.2,0.4-0.3,0.6
			c0,0,0,0,0,0c-0.2,0.3-0.3,0.6-0.5,0.8c0,0,0,0,0,0c-0.1,0.1-0.2,0.2-0.3,0.3c-0.1,0.1-0.2,0.2-0.3,0.3c-0.1,0.1-0.2,0.2-0.3,0.2
			c-0.1,0.1-0.2,0.1-0.3,0.2C558.3,79.5,558.2,79.5,558.2,79.5z"/>
		<path class="st25" d="M346.4,225.1c-19.5-12.2-38.1-30-55.5-54c2.3,0.5,5.5,1.7,7.8,2c1.7,0.2,3.4,0.4,5.2,0.6
			c0.2,0,0.4,0,0.5,0.1c1.4,2.3,2.9,4.5,4.4,6.8c0.7,1.1,1.5,2.3,2.3,3.4c0.8,1.1,1.5,2.2,2.3,3.3c0,0,0,0,0,0
			c0.8,1.1,1.5,2.1,2.3,3.2c0.1,0.1,0.1,0.2,0.2,0.3c0.8,1.1,1.6,2.1,2.4,3.2c0.5,0.6,1,1.3,1.5,1.9c0.7,0.9,1.4,1.8,2.1,2.7
			c0.4,0.5,0.9,1.1,1.3,1.6c0.1,0.1,0.2,0.2,0.2,0.3c0,0,0,0,0,0c0.1,0.2,0.3,0.4,0.4,0.5c0.7,0.9,1.5,1.8,2.2,2.7
			c0.9,1.1,1.8,2.1,2.7,3.2c0,0,0,0,0,0c0.9,1,1.8,2,2.7,3c0.1,0.1,0.2,0.2,0.2,0.3c0.8,0.9,1.5,1.7,2.3,2.6
			c0.2,0.2,0.4,0.4,0.6,0.6c0.7,0.8,1.4,1.5,2.2,2.3c1,1,2,2.1,3,3.1c0.4,0.4,0.9,0.9,1.3,1.3c0.8,0.8,1.7,1.6,2.5,2.5
			C344.5,223.3,345.4,224.2,346.4,225.1z"/>
	</g>
</g>
<g id="left_side">
	<g>
		<g>
			<path class="st3" d="M137,13.5l232.7,181.8c-2,0-3.9,0-5.8,0c-1.4,0-2.8,0-4.2-0.1C209.3,191.4,153.7,65.5,137.5,15
				C137.3,14.5,137.2,14,137,13.5z"/>
			<path class="st4" d="M129.8,16.6C166.1,58,215.3,105.5,279.9,149c27.3,18.4,53.9,33.7,78.9,46.4c-1.6,0-3.5,0-5.7,0
				c-1.4,0-2.8-0.1-4.1-0.1C201.8,190.5,146.5,67.3,130.2,18.1C130.1,17.6,129.9,17.1,129.8,16.6z"/>
		</g>
		<g>
			<path class="st5" d="M234.8,137.1c25.2,18.7,44.1-28.1,9.4-35.1C243.1,101.8,209.6,118.5,234.8,137.1z M245.1,116.2
				c0,0,5.9,5.2,7.1,12.8s-8.9,3.9-15-2.1S245.1,116.2,245.1,116.2z"/>
			<path class="st6" d="M190.6,202c0.7-7-13-17.9-33.3-3.7c-20.3,14.2,9.2,21.1,9.2,21.1c0.8,0.3,1.9,0.2,3.3-0.1l-0.3-2.9
				c0,0,0.9-5.3,2.7-10.8c1.8-5.4,5-6.8,11.3-5.1s2.8,8.4,2.8,8.4l-16.3,10.3C177,217.2,190,207.8,190.6,202z"/>
			<path class="st7" d="M178,158.8c5.6,2,5.6,2,5.6,2l0.1-0.4c0,0,1.6,6.2-1,6.6c-2.5,0.4-12.5-2.6-13.3-5.9
				c-0.6-2.5,1.4-3.6,4.9-3.1c-6-1.4-11.3-2.3-12.8-1.8c-4.1,1.4,20.7,18.7,27.7,19.4c7,0.8,12.1-6,6.1-12c0,0-8.9-2.6-17.6-4.8
				C177.7,158.7,177.8,158.8,178,158.8z"/>
			<path class="st8" d="M229.6,185.8c9-3.1,11.5-15.5,9.3-18.6c-2.2-3.1-12.7-4.1-12.7-4.1s-24,1-23.5,10.4
				C203.2,182.8,220.5,188.9,229.6,185.8z M211.1,172.2c2-3.8,12.4-3.6,12.4-3.6s2.4,4.8,0.9,5.9c-1.6,1.1-6.5,2.7-8.9,3.9
				S209.1,175.9,211.1,172.2z"/>
			<path class="st5" d="M220.9,150.9c5.5-9.4,9.9-14.4-0.8-17.1c-10.8-2.7-16.7-1.8-16.7-1.8s-15.3,18.7-11.5,21.6
				S215.4,160.3,220.9,150.9z M209.2,147.4c-1.3,2.8-8.2,2.9-10.6-1.9s7.4-8,7.4-8s0,0,6.2,0.8C218.3,139.2,210.5,144.6,209.2,147.4
				z"/>
			<path class="st5" d="M206.9,90.8c1.8,0.3,3.4,0.5,5,0.4c1.6-1.3,3.5-2.5,5.5-3.4c0.6-1,1-2.3,1.3-3.8c2-9.8,3.3-12.6-1.8-17.9
				c-5.1-5.3-11.4-6.9-17.3-6.1c-4.5,0.7-7.3,2.8-5.8,13c1.1,7.5,1.4,12.3,4.3,14.9C201.5,89.4,207.7,85.5,206.9,90.8z M199.4,81.6
				c-6.7-4.2,2.2-8.1,7.1-10.5c0,0,4.1,4.6,4.5,13.1C211.4,92.7,206,85.8,199.4,81.6z"/>
			<path class="st6" d="M160.7,96.1c-2.2-1.1-4.4-4.7-4.4-8.1c0-6,4.5-10.2,6.2-10.4c0,0,3.4,6.8,2.4,14.5c3.8-3.8,12.5-17,17-29.5
				c4.9-13.7-3.8-8.1-10.5-12.2s-12.4-2.5-18.1,0.1c-5.7,2.6-5.1,12-3.4,35C151.1,101.3,156.9,99.1,160.7,96.1z"/>
			<path class="st5" d="M177.5,90.9c-14.1,3.8-5.5,9.4-0.6,19.1s13.7,4.9,15.4,4.6c0,0,7-5.4,12.8-18.3c1.1-2.5,1.7-4.3,1.9-5.5
				c-1.5-0.3-3.1-0.6-4.6-1c-1.8-0.4-3.2-1-4.2-2c0,0,0,0,0,0C193.8,85.9,191.6,87.1,177.5,90.9z"/>
			<path class="st9" d="M202.3,89.8c1.5,0.3,3.1,0.7,4.6,1c0.8-5.2-5.4-1.4-8.8-2.9C199.1,88.7,200.5,89.4,202.3,89.8z"/>
			<path class="st10" d="M211.9,91.1c-4.2,3.5-6.3,8-0.5,12.8c7.9,6.6,4.4,12.3,12.2,6.8s15.1-3.1,15.2-13.5s0.2-10.4,0.2-10.4
				s-14.6-2.7-21.6,0.8l0,0C216,90,214.1,90.9,211.9,91.1z"/>
			<path class="st9" d="M217.3,87.7c-1.9,1-3.9,2.1-5.5,3.4C214.1,90.9,216,90,217.3,87.7z"/>
			<path class="st11" d="M279.3,166.3c-2.9-8.2-10.9-9.6-10.9-9.6s-20.7,5.7-10.5,22.3c10.2,16.6,11.8,21.5,17.2,11.2
				C280.5,180,282.2,174.5,279.3,166.3z M271.8,179.5c-3,3-4.9,1.6-8.2-3.1c-3.3-4.7,6.2-10.4,6.2-10.4s4.6,1.9,5.4,7
				C275.9,178,274.8,176.5,271.8,179.5z"/>
			<path class="st12" d="M140,140.7c0,0-2.1,3.5-3.5,4.6c-1.5,1.1-4.1-0.2-8.6-3s-1.7-11.3-1.7-11.3c-0.7-0.3-1.4-0.7-2.1-0.9
				c-0.9,1.8-2.3,3.1-3.9,4c2.4,9.9,9.1,27.2,18.9,17.8C143.1,147.9,142.6,144.1,140,140.7z"/>
			<path class="st13" d="M128.1,142.2c4.7,2.7,7.5,4.1,9.1,3s3.8-4.7,3.8-4.7c-3.2-4-9.5-7.4-14.5-9.6
				C126.5,130.9,123.4,139.5,128.1,142.2z"/>
			<path class="st14" d="M108.5,102.9c0,0-12.4,20.8-7.9,27.9c2.9,4.5,13.1,6.6,19.6,3.2c1.8-0.9,3.3-2.2,4.2-4
				c1-1.9,1.4-4.2,0.9-7.2C122.9,106.8,108.5,102.9,108.5,102.9z"/>
			<path class="st15" d="M229.5,197c-1,0.7-9,0.8-15.5,2.4c2.9,0.2,6.5,1.5,7.5,1.4c0,0,3.2,3.8,2.8,7.3s-1.4,1.9-5.9,0.9
				c-4.5-1.1-7-0.7-8-6.6c-0.1-0.9,0-1.5,0.3-2c-2.6,1-4.5,2.4-5,4.4c-1.5,7.1,5,10.5,16.4,11.4c11.4,0.9,23.8,3.4,18.8-7.1
				S229.5,197,229.5,197z"/>
			<path class="st16" d="M134.3,183.6c0,0-13.8-2.2-17.4,5.2c0,0,13.8,4.9,15.2,8.9c1.2,3.4-6.1,9.9-8.7,12.2
				c1.6,0.5,3.4,0.3,5.3-0.5c6.5-2.7,13.2,1.5,13.1-10.6C141.7,186.8,134.3,183.6,134.3,183.6z"/>
			<path class="st13" d="M132.1,197.7c-1.5-4.1-15.2-8.9-15.2-8.9c-0.7,1.4-1,3.1-0.8,5.3c0.8,9.6,3.5,14.6,7.3,15.8
				C126,207.7,133.3,201.1,132.1,197.7z"/>
			<path class="st16" d="M131.3,163.3c0,0-20.7-5.5-19.4,2.9s14.4,9.9,23.5,12.9S138.8,167.4,131.3,163.3z"/>
			<path class="st17" d="M254.1,188.2c0,0-19,5.4-11.6,14.7s8.3,15.2,15.4,10.7c7.1-4.5,13-5.4,8.4-13.3
				C261.6,192.3,254.1,188.2,254.1,188.2z"/>
			<path class="st17" d="M243.1,160.5c9.7,1.1,14.1,2.2,13.7-6.4c-0.4-8.6-1.8-11.8-1.8-11.8l-13.2,0.7
				C241.8,143.1,233.4,159.4,243.1,160.5z"/>
			<path class="st18" d="M137.3,105.5c8.3-2.1,16.2-12.8,8.8-22c-7.4-9.2-17.2-17.3-24.1-17.1c-1.2,0-18.1,17.4-10.7,26.6
				S129,107.6,137.3,105.5z"/>
			<path class="st19" d="M162.5,77.6c-1.7,0.3-6.3,4.4-6.2,10.4c0,3.4,2.2,6.9,4.4,8.1c1.7-1.4,3-3,3.2-3.2c0.3-0.2,0.6-0.5,0.9-0.8
				C166,84.4,162.5,77.6,162.5,77.6z"/>
			<path class="st19" d="M211,84.2c-0.4-8.6-4.5-13.1-4.5-13.1c-4.8,2.4-13.7,6.4-7.1,10.5C206,85.8,211.4,92.7,211,84.2z"/>
			<path class="st19" d="M252.2,128.9c-1.1-7.6-7.1-12.8-7.1-12.8s-14,4.7-7.9,10.7S253.3,136.5,252.2,128.9z"/>
			<path class="st19" d="M212.1,138.4c-6.2-0.8-6.2-0.8-6.2-0.8s-9.9,3.2-7.4,8s9.3,4.7,10.6,1.9S218.3,139.2,212.1,138.4z"/>
			<path class="st19" d="M215.5,178.4c2.4-1.2,7.3-2.8,8.9-3.9c1.6-1.1-0.9-5.9-0.9-5.9s-10.4-0.2-12.4,3.6
				C209.1,175.9,213.1,179.6,215.5,178.4z"/>
			<path class="st19" d="M269.8,166c0,0-9.5,5.7-6.2,10.4c3.3,4.7,5.2,6.1,8.2,3.1s4.1-1.5,3.3-6.5C274.4,167.9,269.8,166,269.8,166
				z"/>
			<path class="st9" d="M210.6,200.5c1-0.4,2.2-0.7,3.4-1C212.5,199.4,211.2,199.6,210.6,200.5z"/>
			<path class="st20" d="M218.4,209.1c4.5,1.1,5.6,2.6,5.9-0.9s-2.8-7.3-2.8-7.3c-0.9,0.1-4.6-1.2-7.5-1.4c-1.2,0.3-2.3,0.6-3.4,1
				c-0.3,0.5-0.4,1.1-0.3,2C211.4,208.4,213.9,208,218.4,209.1z"/>
			<path class="st9" d="M174.2,157.9c1.1,0.2,2.2,0.5,3.3,0.8C176.3,158.3,175.2,158.1,174.2,157.9z"/>
			<path class="st21" d="M169.3,161.1c0.9,3.3,10.9,6.1,13.4,5.8c2.5-0.4,0.9-6.6,0.9-6.6l-0.1,0.4c0,0,0,0-5.6-1.9
				c-0.1,0-0.3-0.1-0.4-0.1c-1.1-0.3-2.2-0.5-3.3-0.8C170.7,157.5,168.7,158.6,169.3,161.1z"/>
			<path class="st9" d="M169.7,219.3l0.2-0.1C169.8,219.2,169.8,219.2,169.7,219.3L169.7,219.3z"/>
			<path class="st13" d="M183.4,200.5c-6.3-1.7-9.5-0.3-11.3,5.1c-1.8,5.4-2.7,10.8-2.7,10.8l0.3,2.9c0.1,0,0.2,0,0.2-0.1l16.3-10.3
				C186.2,208.9,189.7,202.1,183.4,200.5z"/>
			<path class="st14" d="M206.6,216.9c-1.8-0.6-13.9-0.5-14.6,6.5c-0.7,7,1.6,11,6.8,11.1s4,3.7,8.4-1.3c4.4-5,9.2-7.4,6.2-10.4
				C210.5,219.7,206.6,216.9,206.6,216.9z"/>
		</g>
		<g>
			<path class="st5" d="M238.8,154.8c11.9-16-17.9-28.1-22.3-6C216.3,149.5,226.9,170.8,238.8,154.8z M225.5,148.3
				c0,0,3.3-3.8,8.1-4.5c4.8-0.7,2.5,5.7-1.3,9.5C228.4,157.2,225.5,148.3,225.5,148.3z"/>
			<path class="st6" d="M280,183c-4.5-0.4-11.4,8.3-2.3,21.2c9.1,12.9,13.4-5.8,13.4-5.8c0.2-0.5,0.1-1.2-0.1-2.1l-1.8,0.2
				c0,0-3.4-0.6-6.8-1.7c-3.5-1.1-4.3-3.2-3.3-7.2c1.1-4,5.3-1.8,5.3-1.8l6.6,10.4C289.7,191.6,283.7,183.3,280,183z"/>
			<path class="st7" d="M252.6,190.9c1.2-3.6,1.2-3.6,1.2-3.6l-0.3-0.1c0,0,4-1,4.2,0.6c0.2,1.6-1.6,8-3.8,8.5
				c-1.6,0.4-2.3-0.9-2-3.1c-0.9,3.8-1.5,7.2-1.1,8.2c0.9,2.6,11.9-13.2,12.4-17.6c0.5-4.5-3.8-7.7-7.7-3.9c0,0-1.7,5.6-3.1,11.2
				C252.5,191.1,252.5,191,252.6,190.9z"/>
			<path class="st8" d="M269.7,158.1c-2-5.7-9.9-7.3-11.9-5.9c-2,1.4-2.6,8.1-2.6,8.1s0.6,15.3,6.6,14.9
				C267.8,174.9,271.7,163.9,269.7,158.1z M261.1,169.9c-2.4-1.3-2.3-7.9-2.3-7.9s3.1-1.6,3.8-0.6c0.7,1,1.7,4.1,2.5,5.7
				C265.8,168.6,263.4,171.1,261.1,169.9z"/>
			<path class="st5" d="M247.5,163.6c-6-3.5-9.2-6.3-10.9,0.5s-1.2,10.6-1.2,10.6s11.9,9.8,13.7,7.3S253.5,167.1,247.5,163.6z
				 M245.3,171.1c1.8,0.8,1.9,5.2-1.2,6.8s-5.1-4.7-5.1-4.7s0,0,0.5-3.9C240.1,165.3,243.5,170.3,245.3,171.1z"/>
			<path class="st5" d="M209.3,172.5c0.2-1.1,0.3-2.2,0.2-3.2c-0.8-1-1.6-2.2-2.2-3.5c-0.6-0.4-1.4-0.7-2.4-0.9
				c-6.2-1.3-8-2.1-11.4,1.1c-3.4,3.2-4.4,7.2-3.8,11c0.4,2.9,1.8,4.7,8.2,3.7c4.8-0.7,7.8-0.9,9.5-2.7
				C208.4,176,205.9,172,209.3,172.5z M203.4,177.3c-2.7,4.2-5.2-1.4-6.7-4.5c0,0,2.9-2.6,8.4-2.9
				C210.5,169.7,206.1,173.1,203.4,177.3z"/>
			<path class="st6" d="M212.6,201.9c-0.7,1.4-3,2.8-5.1,2.8c-3.8,0-6.5-2.9-6.6-4c0,0,4.3-2.2,9.2-1.5c-2.4-2.4-10.8-8-18.7-10.8
				c-8.7-3.1-5.1,2.4-7.8,6.7s-1.6,7.9,0.1,11.5c1.6,3.6,7.6,3.3,22.3,2.2C216,208.1,214.6,204.3,212.6,201.9z"/>
			<path class="st5" d="M209.4,191.3c2.4,9,6,3.5,12.1,0.4c6.1-3.1,3.1-8.7,2.9-9.8c0,0-3.4-4.4-11.6-8.1c-1.6-0.7-2.7-1.1-3.5-1.2
				c-0.2,1-0.4,1.9-0.6,2.9c-0.3,1.2-0.7,2-1.2,2.7c0,0,0,0,0,0C206.2,180.9,206.9,182.3,209.4,191.3z"/>
			<path class="st22" d="M208.6,175.5c0.2-1,0.4-2,0.6-2.9c-3.3-0.5-0.9,3.4-1.9,5.6C208,177.5,208.4,176.6,208.6,175.5z"/>
			<path class="st10" d="M209.5,169.4c2.2,2.7,5.1,4,8.2,0.3c4.2-5,7.8-2.8,4.3-7.8c-3.5-5-2-9.6-8.6-9.7c-6.6-0.1-6.6-0.1-6.6-0.1
				s-1.7,9.3,0.5,13.8l0,0C208.8,166.7,209.4,168,209.5,169.4z"/>
			<path class="st22" d="M207.3,165.9c0.6,1.2,1.3,2.5,2.2,3.5C209.4,168,208.8,166.7,207.3,165.9z"/>
			<path class="st11" d="M257.3,126.5c-5.2,1.9-6.1,6.9-6.1,6.9s3.6,13.2,14.2,6.7c10.6-6.5,13.7-7.5,7.2-10.9
				C266,125.8,262.5,124.6,257.3,126.5z M265.7,131.3c1.9,1.9,1,3.1-2,5.2c-3,2.1-6.6-4-6.6-4s1.2-2.9,4.4-3.4
				S263.8,129.4,265.7,131.3z"/>
			<path class="st12" d="M241,215.1c0,0,2.3,1.3,2.9,2.3c0.7,0.9-0.2,2.6-1.9,5.5c-1.8,2.9-7.2,1.1-7.2,1.1
				c-0.2,0.5-0.4,0.9-0.6,1.3c1.1,0.6,2,1.4,2.5,2.5c6.3-1.5,17.3-5.8,11.3-12C245.6,213.1,243.2,213.5,241,215.1z"/>
			<path class="st13" d="M242,222.6c1.7-3,2.6-4.8,1.9-5.8c-0.7-1-3-2.4-3-2.4c-2.5,2.1-4.7,6.1-6.1,9.2
				C234.8,223.7,240.3,225.6,242,222.6z"/>
			<path class="st14" d="M217,235.2c0,0,13.3,7.9,17.8,5c2.9-1.8,4.2-8.4,2.1-12.4c-0.6-1.1-1.4-2.1-2.6-2.7
				c-1.2-0.6-2.7-0.9-4.6-0.6C219.5,226,217,235.2,217,235.2z"/>
			<path class="st15" d="M276.9,158.2c0.4,0.6,0.5,5.7,1.5,9.9c0.1-1.8,1-4.2,0.9-4.8c0,0,2.4-2,4.7-1.8c2.2,0.2,1.2,0.9,0.6,3.8
				c-0.7,2.8-0.4,4.5-4.2,5.1c-0.6,0.1-1,0-1.3-0.2c0.6,1.7,1.5,2.9,2.8,3.2c4.5,1,6.7-3.2,7.2-10.4c0.6-7.2,2.1-15.1-4.5-12
				C277.9,154.2,276.9,158.2,276.9,158.2z"/>
			<path class="st16" d="M268.3,218.7c0,0-1.4,8.8,3.3,11.1c0,0,3.1-8.8,5.7-9.7c2.1-0.8,6.3,3.9,7.8,5.6c0.3-1,0.2-2.2-0.3-3.4
				c-1.7-4.1,0.9-8.4-6.7-8.3S268.3,218.7,268.3,218.7z"/>
			<path class="st13" d="M277.3,220.1c-2.6,0.9-5.7,9.7-5.7,9.7c0.9,0.4,2,0.7,3.4,0.5c6.1-0.5,9.3-2.2,10.1-4.7
				C283.6,224,279.5,219.4,277.3,220.1z"/>
			<path class="st16" d="M255.4,220.6c0,0-3.5,13.2,1.8,12.4c5.4-0.8,6.3-9.2,8.2-14.9C267.4,212.3,258,215.9,255.4,220.6z"/>
			<path class="st17" d="M271.3,142.5c0,0,3.5,12.1,9.3,7.4c5.9-4.7,9.6-5.3,6.8-9.8c-2.9-4.5-3.4-8.3-8.5-5.3
				C273.8,137.8,271.3,142.5,271.3,142.5z"/>
			<path class="st17" d="M253.6,149.6c0.7-6.1,1.4-9-4-8.7c-5.4,0.3-7.5,1.1-7.5,1.1l0.5,8.4C242.5,150.4,252.9,155.7,253.6,149.6z"
				/>
			<path class="st18" d="M218.6,216.8c-1.3-5.3-8.1-10.3-14-5.6c-5.9,4.7-11,11-10.9,15.3c0,0.8,11,11.5,16.9,6.8
				C216.6,228.6,220,222.1,218.6,216.8z"/>
			<path class="st19" d="M200.9,200.8c0.2,1.1,2.8,4,6.6,4c2.1,0,4.4-1.4,5.1-2.8c-0.9-1.1-1.9-1.9-2-2.1c-0.1-0.2-0.3-0.4-0.5-0.6
				C205.2,198.6,200.9,200.8,200.9,200.8z"/>
			<path class="st19" d="M205.1,170c-5.4,0.3-8.4,2.9-8.4,2.9c1.6,3.1,4,8.7,6.7,4.5C206.1,173.1,210.5,169.7,205.1,170z"/>
			<path class="st19" d="M233.6,143.8c-4.8,0.7-8.1,4.5-8.1,4.5s3,8.9,6.8,5C236.1,149.4,238.4,143,233.6,143.8z"/>
			<path class="st19" d="M239.6,169.2c-0.5,3.9-0.5,3.9-0.5,3.9s2,6.3,5.1,4.7s3-5.9,1.2-6.8C243.5,170.3,240.1,165.3,239.6,169.2z"
				/>
			<path class="st19" d="M265,167.1c-0.8-1.5-1.8-4.7-2.5-5.7c-0.7-1-3.8,0.6-3.8,0.6s-0.1,6.6,2.3,7.9S265.8,168.6,265,167.1z"/>
			<path class="st19" d="M257.1,132.6c0,0,3.6,6,6.6,4c3-2.1,3.9-3.3,2-5.2c-1.9-1.9-0.9-2.6-4.2-2.1S257.1,132.6,257.1,132.6z"/>
			<path class="st22" d="M279.1,170.2c-0.3-0.7-0.5-1.4-0.7-2.1C278.3,169,278.5,169.8,279.1,170.2z"/>
			<path class="st20" d="M284.5,165.3c0.7-2.8,1.7-3.5-0.6-3.8c-2.2-0.2-4.7,1.8-4.7,1.8c0.1,0.6-0.8,2.9-0.9,4.8
				c0.2,0.8,0.4,1.5,0.7,2.1c0.3,0.2,0.7,0.3,1.3,0.2C284.1,169.7,283.8,168.1,284.5,165.3z"/>
			<path class="st22" d="M252,193.4c0.2-0.7,0.3-1.4,0.5-2.1C252.3,192,252.1,192.7,252,193.4z"/>
			<path class="st21" d="M254,196.5c2.1-0.6,3.9-6.9,3.7-8.5c-0.2-1.6-4.2-0.6-4.2-0.6l0.3,0.1c0,0,0,0-1.2,3.6
				c0,0.1-0.1,0.2-0.1,0.3c-0.2,0.7-0.3,1.4-0.5,2.1C251.7,195.6,252.4,196.9,254,196.5z"/>
			<path class="st22" d="M291.1,196.2l-0.1-0.1C291,196.1,291,196.2,291.1,196.2L291.1,196.2z"/>
			<path class="st13" d="M279,187.5c-1.1,4-0.2,6.1,3.3,7.2c3.5,1.1,6.8,1.7,6.8,1.7l1.8-0.2c0,0,0-0.1,0-0.2l-6.6-10.4
				C284.4,185.7,280.1,183.5,279,187.5z"/>
			<path class="st14" d="M289.5,172.8c-0.4,1.2-0.3,8.8,4.1,9.3s7-1,7-4.3c0.1-3.3,2.4-2.5-0.8-5.4c-3.2-2.8-4.7-5.9-6.6-4
				S289.5,172.8,289.5,172.8z"/>
		</g>
		<g>
			<path class="st5" d="M259.4,225.5c-19.7,2.9-7.2,32.5,11.5,20C271.6,245.1,279.1,222.6,259.4,225.5z M264.2,239.6
				c0,0-5,0.4-8.9-2.6c-3.9-2.9,2.2-5.8,7.7-5.8C268.4,231.2,264.2,239.6,264.2,239.6z"/>
			<path class="st6" d="M250.1,176.4c2.8,3.5,13.9,2.2,16.6-13.3c2.7-15.5-13.6-5.3-13.6-5.3c-0.5,0.2-1,0.8-1.4,1.5l1.4,1.2
				c0,0,2,2.8,3.6,6.1s0.8,5.3-2.8,7.4c-3.6,2.1-5-2.5-5-2.5l2.7-12C249.4,163.5,247.8,173.6,250.1,176.4z"/>
			<path class="st7" d="M275.2,190.2c-3.4,1.6-3.4,1.6-3.4,1.6l0.2,0.2c0,0-3.5-2.1-2.5-3.4c1-1.3,6.8-4.5,8.7-3.3
				c1.4,0.8,1,2.3-0.8,3.6c3.3-2.1,6.1-4,6.6-5c1.2-2.5-17.7,0.9-21.2,3.7s-2.8,8.1,2.7,8.2c0,0,5.2-2.8,10.1-5.8
				C275.4,190.1,275.3,190.2,275.2,190.2z"/>
			<path class="st8" d="M239.9,201.3c-2.7,5.4,1.8,12.2,4.2,12.6c2.4,0.4,7.6-3.8,7.6-3.8s10.4-11.2,5.9-15.2
				S242.5,195.8,239.9,201.3z M254.3,199.1c0.8,2.6-4,7.2-4,7.2s-3.3-1.1-3.1-2.3s1.7-4.1,2.2-5.8S253.5,196.5,254.3,199.1z"/>
			<path class="st5" d="M259.5,213.1c1.8,6.7,2,11,8.1,7.3s8.3-6.7,8.3-6.7s-1.5-15.3-4.5-14.8S257.7,206.4,259.5,213.1z
				 M266.3,209.4c-0.7-1.8,2.4-5,5.6-3.9s0.3,6.9,0.3,6.9s0,0-3.1,2.4C265.9,217.2,267,211.2,266.3,209.4z"/>
			<path class="st5" d="M292.8,233.8c-0.9,0.6-1.8,1.3-2.4,2.1c-0.1,1.3-0.5,2.7-0.9,4c0.2,0.7,0.6,1.5,1.1,2.3
				c3.5,5.3,4.2,7.1,8.8,7.2c4.7,0.1,8.2-2,10.5-5.1c1.7-2.3,2-4.6-3.2-8.5c-3.9-2.9-6.1-4.9-8.6-4.8
				C295.9,232,294.8,236.5,292.8,233.8z M300.3,234.6c4.9-1.1,2.6,4.7,1.6,7.9c0,0-3.9-0.2-7.9-3.9
				C289.9,235,295.5,235.7,300.3,234.6z"/>
			<path class="st6" d="M311.2,210.7c1.5-0.5,4.1,0.1,5.6,1.6c2.7,2.7,2.5,6.6,1.9,7.5c0,0-4.6-1.5-7.6-5.5c0,3.4,2,13.3,5.6,20.9
				c4,8.3,5.3,1.9,10.2,0.8c4.9-1.1,6.7-4.5,8.1-8.2c1.4-3.7-3.1-7.7-14.2-17.3C313.2,204,311.5,207.6,311.2,210.7z"/>
			<path class="st5" d="M306,220.5c4.6-8.1-1.8-6.7-8.3-8.9c-6.5-2.1-8.3,4-9,4.8c0,0-0.7,5.5,2.5,14c0.6,1.6,1.1,2.7,1.6,3.3
				c0.8-0.6,1.7-1.1,2.5-1.6c1-0.7,1.9-1,2.8-1c0,0,0,0,0,0C300.9,230.1,301.4,228.6,306,220.5z"/>
			<path class="st22" d="M295.3,232.2c-0.8,0.5-1.7,1.1-2.5,1.6c2,2.7,3-1.8,5.3-2.7C297.2,231.2,296.3,231.6,295.3,232.2z"/>
			<path class="st10" d="M290.4,235.9c0.3-3.5-0.8-6.4-5.5-6c-6.5,0.6-7.5-3.5-8.6,2.4c-1,6-5.4,8.2-0.8,12.9
				c4.6,4.8,4.6,4.8,4.6,4.8s7.8-5.4,9.4-10.1l0,0C289,238.3,289.5,237,290.4,235.9z"/>
			<path class="st22" d="M289.5,239.9c0.4-1.3,0.8-2.7,0.9-4C289.5,237,289,238.3,289.5,239.9z"/>
			<path class="st11" d="M226.3,232.4c5,2.4,9.2-0.6,9.2-0.6s6.8-11.9-5.3-14.7c-12.1-2.9-15-4.4-12.8,2.7
				C219.6,226.8,221.3,230,226.3,232.4z M223.7,223.1c0-2.7,1.5-2.9,5.1-2.3c3.6,0.6,1.9,7.5,1.9,7.5s-2.9,1.2-5.5-0.7
				C222.5,225.6,223.7,225.8,223.7,223.1z"/>
			<path class="st12" d="M300.5,181.3c0,0-0.7-2.5-0.5-3.7c0.2-1.1,2-1.7,5.2-2.5c3.3-0.8,5.8,4.3,5.8,4.3c0.5-0.2,0.9-0.3,1.3-0.5
				c-0.4-1.2-0.4-2.4,0-3.6c-5.5-3.4-16.3-8.1-16.5,0.5C295.8,179.4,297.8,180.9,300.5,181.3z"/>
			<path class="st13" d="M305.1,175.3c-3.4,0.9-5.2,1.6-5.4,2.7c-0.2,1.2,0.4,3.8,0.4,3.8c3.2,0.3,7.6-1,10.9-2.2
				C310.9,179.6,308.4,174.4,305.1,175.3z"/>
			<path class="st14" d="M331.6,184.1c0,0-3.8-15-9-16.1c-3.3-0.7-8.9,3-10.2,7.3c-0.4,1.2-0.5,2.5-0.1,3.7c0.4,1.3,1.3,2.5,2.8,3.7
				C323.4,188.8,331.6,184.1,331.6,184.1z"/>
			<path class="st15" d="M234.8,196.2c0.1-0.7,3.7-4.4,5.9-8.1c-1.4,1.2-3.6,2.3-4,2.7c0,0-3.2-0.3-4.6-2c-1.4-1.7-0.2-1.5,2.3-3.1
				c2.5-1.5,3.5-2.8,6.6-0.6c0.5,0.3,0.7,0.7,0.8,1c0.7-1.6,0.9-3.1,0.2-4.2c-2.5-3.9-7-2.5-12.5,2.2s-12.2,9.2-5.3,11.7
				S234.8,196.2,234.8,196.2z"/>
			<path class="st16" d="M283.7,159.4c0,0,7.2-5.2,5.5-10.2c0,0-8.4,4-10.9,2.8c-2.1-1-1.7-7.2-1.5-9.4c-0.9,0.5-1.7,1.4-2.2,2.6
				c-1.7,4.1-6.6,5.3-1.1,10.6C278.9,161.3,283.7,159.4,283.7,159.4z"/>
			<path class="st13" d="M278.3,152.1c2.5,1.2,10.8-2.8,10.9-2.8c-0.3-0.9-0.9-1.9-2-2.8c-4.7-3.9-8.2-5-10.4-3.8
				C276.6,144.9,276.3,151.1,278.3,152.1z"/>
			<path class="st16" d="M294.2,167.2c0,0,11.8-6.8,7.4-10s-11,2-16.4,4.8C279.8,164.7,289,168.7,294.2,167.2z"/>
			<path class="st17" d="M227.8,211.2c0,0,6.1-11-1.4-11.8c-7.5-0.8-10.6-3.1-11.7,2.1s-3.4,8.3,2.2,9.8
				C222.6,212.8,227.8,211.2,227.8,211.2z"/>
			<path class="st17" d="M245.2,218.7c-4.9,3.8-7.4,5.4-3.3,9c4,3.7,6.1,4.5,6.1,4.5l5.6-6.3C253.6,226,250,214.9,245.2,218.7z"/>
			<path class="st18" d="M317.5,195.9c-2.8,4.7-1.6,13,5.9,13.9c7.5,0.8,15.5,0,18.5-3.2c0.5-0.6,0.3-16-7.2-16.8
				C327.3,189,320.3,191.2,317.5,195.9z"/>
			<path class="st19" d="M318.7,219.8c0.6-0.9,0.8-4.8-1.9-7.5c-1.5-1.5-4.1-2.1-5.6-1.6c-0.1,1.4,0,2.7,0,2.9
				c0,0.2-0.1,0.5-0.1,0.8C314.1,218.3,318.7,219.8,318.7,219.8z"/>
			<path class="st19" d="M293.9,238.6c4,3.7,7.9,3.9,7.9,3.9c1.1-3.3,3.3-9-1.6-7.9C295.5,235.7,289.9,235,293.9,238.6z"/>
			<path class="st19" d="M255.3,237c3.9,2.9,8.9,2.6,8.9,2.6s4.2-8.4-1.2-8.4C257.5,231.2,251.4,234.1,255.3,237z"/>
			<path class="st19" d="M269,214.8c3.1-2.4,3.1-2.4,3.1-2.4s3-5.9-0.3-6.9s-6.3,2.1-5.6,3.9C267,211.2,265.9,217.2,269,214.8z"/>
			<path class="st19" d="M249.5,198.3c-0.5,1.6-2,4.6-2.2,5.8s3.1,2.3,3.1,2.3s4.8-4.6,4-7.2C253.5,196.5,250,196.6,249.5,198.3z"/>
			<path class="st19" d="M230.7,228.3c0,0,1.7-6.9-1.9-7.5c-3.6-0.6-5.1-0.4-5.1,2.3s-1.2,2.5,1.4,4.4
				C227.8,229.5,230.7,228.3,230.7,228.3z"/>
			<path class="st22" d="M241.8,186.1c-0.3,0.6-0.6,1.3-1,2C241.5,187.5,241.9,186.8,241.8,186.1z"/>
			<path class="st20" d="M234.5,185.8c-2.5,1.5-3.7,1.3-2.3,3.1c1.4,1.7,4.6,2,4.6,2c0.4-0.5,2.6-1.5,4-2.7c0.4-0.7,0.8-1.3,1-2
				c-0.1-0.3-0.3-0.7-0.8-1C237.9,182.9,236.9,184.2,234.5,185.8z"/>
			<path class="st22" d="M277.3,188.9c-0.6,0.4-1.2,0.8-1.9,1.2C276.2,189.7,276.8,189.3,277.3,188.9z"/>
			<path class="st21" d="M278.1,185.3c-1.9-1.1-7.7,2.1-8.6,3.4c-1,1.3,2.6,3.4,2.6,3.4l-0.2-0.2c0,0,0,0,3.4-1.7
				c0.1,0,0.2-0.1,0.2-0.1c0.6-0.4,1.2-0.8,1.9-1.2C279.1,187.5,279.5,186.1,278.1,185.3z"/>
			<path class="st22" d="M251.7,159.3l0,0.2C251.7,159.4,251.7,159.3,251.7,159.3L251.7,159.3z"/>
			<path class="st13" d="M254,173.9c3.6-2.1,4.4-4.2,2.8-7.4s-3.6-6.1-3.6-6.1l-1.4-1.2c0,0-0.1,0.1-0.1,0.1l-2.7,12
				C249,171.4,250.5,176,254,173.9z"/>
			<path class="st14" d="M236.2,177c1.1-0.5,6.5-6,3.6-9.5c-2.8-3.5-5.7-4.2-8-1.9c-2.4,2.3-3.5,0.1-3.2,4.4
				c0.2,4.2-0.8,7.5,1.9,7.5C233.2,177.4,236.2,177,236.2,177z"/>
		</g>
		<g>
			<path class="st5" d="M224.5,150.6c16,11.9,28.1-17.9,6-22.3C229.7,128.1,208.4,138.7,224.5,150.6z M231,137.2
				c0,0,3.8,3.3,4.5,8.1c0.7,4.8-5.7,2.5-9.5-1.3C222.1,140.2,231,137.2,231,137.2z"/>
			<path class="st6" d="M196.3,191.8c0.4-4.5-8.3-11.4-21.2-2.3c-12.9,9.1,5.8,13.4,5.8,13.4c0.5,0.2,1.2,0.1,2.1-0.1l-0.2-1.8
				c0,0,0.6-3.4,1.7-6.8c1.1-3.5,3.2-4.3,7.2-3.3s1.8,5.3,1.8,5.3l-10.4,6.6C187.7,201.5,195.9,195.5,196.3,191.8z"/>
			<path class="st7" d="M188.3,164.4c3.6,1.2,3.6,1.2,3.6,1.2l0.1-0.3c0,0,1,4-0.6,4.2c-1.6,0.2-8-1.6-8.5-3.8
				c-0.4-1.6,0.9-2.3,3.1-2c-3.8-0.9-7.2-1.5-8.2-1.1c-2.6,0.9,13.2,11.9,17.6,12.4c4.5,0.5,7.7-3.8,3.9-7.7c0,0-5.6-1.7-11.2-3.1
				C188.1,164.3,188.2,164.3,188.3,164.4z"/>
			<path class="st8" d="M221.1,181.5c5.7-2,7.3-9.9,5.9-11.9c-1.4-2-8.1-2.6-8.1-2.6s-15.3,0.6-14.9,6.6
				C204.4,179.6,215.4,183.5,221.1,181.5z M209.4,172.8c1.3-2.4,7.9-2.3,7.9-2.3s1.6,3.1,0.6,3.8c-1,0.7-4.1,1.7-5.7,2.5
				C210.7,177.6,208.1,175.2,209.4,172.8z"/>
			<path class="st5" d="M215.6,159.3c3.5-6,6.3-9.2-0.5-10.9c-6.8-1.7-10.6-1.2-10.6-1.2s-9.8,11.9-7.3,13.7
				C199.7,162.8,212.1,165.3,215.6,159.3z M208.1,157.1c-0.8,1.8-5.2,1.9-6.8-1.2s4.7-5.1,4.7-5.1s0,0,3.9,0.5
				C214,151.9,209,155.3,208.1,157.1z"/>
			<path class="st5" d="M206.7,121.1c1.1,0.2,2.2,0.3,3.2,0.2c1-0.8,2.2-1.6,3.5-2.2c0.4-0.6,0.7-1.4,0.9-2.4
				c1.3-6.2,2.1-8-1.1-11.4c-3.2-3.4-7.2-4.4-11-3.8c-2.9,0.4-4.7,1.8-3.7,8.2c0.7,4.8,0.9,7.8,2.7,9.5
				C203.3,120.2,207.2,117.7,206.7,121.1z M201.9,115.2c-4.2-2.7,1.4-5.2,4.5-6.7c0,0,2.6,2.9,2.9,8.4S206.1,117.9,201.9,115.2z"/>
			<path class="st6" d="M177.3,124.4c-1.4-0.7-2.8-3-2.8-5.1c0-3.8,2.9-6.5,4-6.6c0,0,2.2,4.3,1.5,9.2c2.4-2.4,8-10.8,10.8-18.7
				c3.1-8.7-2.4-5.1-6.7-7.8c-4.2-2.7-7.9-1.6-11.5,0.1c-3.6,1.6-3.3,7.6-2.2,22.3C171.2,127.8,174.9,126.4,177.3,124.4z"/>
			<path class="st5" d="M188,121.1c-9,2.4-3.5,6-0.4,12.1c3.1,6.1,8.7,3.1,9.8,2.9c0,0,4.4-3.4,8.1-11.6c0.7-1.6,1.1-2.7,1.2-3.5
				c-1-0.2-1.9-0.4-2.9-0.6c-1.2-0.3-2-0.7-2.7-1.2c0,0,0,0,0,0C198.4,118,196.9,118.7,188,121.1z"/>
			<path class="st22" d="M203.8,120.4c1,0.2,2,0.4,2.9,0.6c0.5-3.3-3.4-0.9-5.6-1.9C201.7,119.8,202.6,120.2,203.8,120.4z"/>
			<path class="st10" d="M209.9,121.3c-2.7,2.2-4,5.1-0.3,8.2c5,4.2,2.8,7.8,7.8,4.3c5-3.5,9.6-2,9.7-8.6c0.1-6.6,0.1-6.6,0.1-6.6
				s-9.3-1.7-13.8,0.5l0,0C212.5,120.6,211.3,121.2,209.9,121.3z"/>
			<path class="st22" d="M213.3,119.1c-1.2,0.6-2.5,1.3-3.5,2.2C211.3,121.2,212.5,120.6,213.3,119.1z"/>
			<path class="st11" d="M252.8,169.1c-1.9-5.2-6.9-6.1-6.9-6.1s-13.2,3.6-6.7,14.2c6.5,10.6,7.5,13.7,10.9,7.2
				C253.5,177.8,254.6,174.3,252.8,169.1z M248,177.5c-1.9,1.9-3.1,1-5.2-2c-2.1-3,4-6.6,4-6.6s2.9,1.2,3.4,4.4
				C250.6,176.6,249.9,175.6,248,177.5z"/>
			<path class="st12" d="M164.1,152.8c0,0-1.3,2.3-2.3,2.9c-0.9,0.7-2.6-0.2-5.5-1.9c-2.9-1.8-1.1-7.2-1.1-7.2
				c-0.5-0.2-0.9-0.4-1.3-0.6c-0.6,1.1-1.4,2-2.5,2.5c1.5,6.3,5.8,17.3,12,11.3C166.1,157.4,165.8,155,164.1,152.8z"/>
			<path class="st13" d="M156.6,153.8c3,1.7,4.8,2.6,5.8,1.9c1-0.7,2.4-3,2.4-3c-2.1-2.5-6.1-4.7-9.2-6.1
				C155.5,146.6,153.6,152.1,156.6,153.8z"/>
			<path class="st14" d="M144.1,128.8c0,0-7.9,13.3-5,17.8c1.8,2.9,8.4,4.2,12.4,2.1c1.1-0.6,2.1-1.4,2.7-2.6
				c0.6-1.2,0.9-2.7,0.6-4.6C153.2,131.3,144.1,128.8,144.1,128.8z"/>
			<path class="st15" d="M221.1,188.7c-0.6,0.4-5.7,0.5-9.9,1.5c1.8,0.1,4.2,1,4.8,0.9c0,0,2,2.4,1.8,4.7c-0.2,2.2-0.9,1.2-3.8,0.6
				s-4.5-0.4-5.1-4.2c-0.1-0.6,0-1,0.2-1.3c-1.7,0.6-2.9,1.5-3.2,2.8c-1,4.5,3.2,6.7,10.4,7.2c7.2,0.6,15.1,2.1,12-4.5
				C225.1,189.7,221.1,188.7,221.1,188.7z"/>
			<path class="st16" d="M160.5,180.1c0,0-8.8-1.4-11.1,3.3c0,0,8.8,3.1,9.7,5.7c0.8,2.1-3.9,6.3-5.6,7.8c1,0.3,2.2,0.2,3.4-0.3
				c4.1-1.7,8.4,0.9,8.3-6.7C165.2,182.2,160.5,180.1,160.5,180.1z"/>
			<path class="st13" d="M159.1,189.1c-0.9-2.6-9.7-5.7-9.7-5.7c-0.4,0.9-0.7,2-0.5,3.4c0.5,6.1,2.2,9.3,4.7,10.1
				C155.3,195.4,159.9,191.3,159.1,189.1z"/>
			<path class="st16" d="M158.6,167.2c0,0-13.2-3.5-12.4,1.8c0.8,5.4,9.2,6.3,14.9,8.2S163.4,169.8,158.6,167.2z"/>
			<path class="st17" d="M236.7,183c0,0-12.1,3.5-7.4,9.3c4.7,5.9,5.3,9.6,9.8,6.8c4.5-2.9,8.3-3.4,5.3-8.5
				C241.5,185.6,236.7,183,236.7,183z"/>
			<path class="st17" d="M229.7,165.4c6.1,0.7,9,1.4,8.7-4c-0.3-5.4-1.1-7.5-1.1-7.5l-8.4,0.5C228.9,154.3,223.5,164.7,229.7,165.4z
				"/>
			<path class="st18" d="M162.5,130.4c5.3-1.3,10.3-8.1,5.6-14s-11-11-15.3-10.9c-0.8,0-11.5,11-6.8,16.9
				C150.6,128.4,157.2,131.8,162.5,130.4z"/>
			<path class="st19" d="M178.5,112.7c-1.1,0.2-4,2.8-4,6.6c0,2.1,1.4,4.4,2.8,5.1c1.1-0.9,1.9-1.9,2.1-2c0.2-0.1,0.4-0.3,0.6-0.5
				C180.7,117,178.5,112.7,178.5,112.7z"/>
			<path class="st19" d="M209.3,116.9c-0.3-5.4-2.9-8.4-2.9-8.4c-3.1,1.6-8.7,4-4.5,6.7C206.1,117.9,209.6,122.3,209.3,116.9z"/>
			<path class="st19" d="M235.5,145.4c-0.7-4.8-4.5-8.1-4.5-8.1s-8.9,3-5,6.8C229.8,147.8,236.2,150.2,235.5,145.4z"/>
			<path class="st19" d="M210,151.3c-3.9-0.5-3.9-0.5-3.9-0.5s-6.3,2-4.7,5.1s5.9,3,6.8,1.2C209,155.3,214,151.9,210,151.3z"/>
			<path class="st19" d="M212.2,176.8c1.5-0.8,4.7-1.8,5.7-2.5c1-0.7-0.6-3.8-0.6-3.8s-6.6-0.1-7.9,2.3S210.7,177.6,212.2,176.8z"/>
			<path class="st19" d="M246.7,168.9c0,0-6,3.6-4,6.6c2.1,3,3.3,3.9,5.2,2c1.9-1.9,2.6-0.9,2.1-4.2
				C249.6,170.1,246.7,168.9,246.7,168.9z"/>
			<path class="st22" d="M209.1,190.9c0.7-0.3,1.4-0.5,2.1-0.7C210.2,190.1,209.4,190.3,209.1,190.9z"/>
			<path class="st20" d="M214,196.3c2.8,0.7,3.5,1.7,3.8-0.6c0.2-2.2-1.8-4.7-1.8-4.7c-0.6,0.1-2.9-0.8-4.8-0.9
				c-0.8,0.2-1.5,0.4-2.1,0.7c-0.2,0.3-0.3,0.7-0.2,1.3C209.5,195.9,211.1,195.6,214,196.3z"/>
			<path class="st22" d="M185.9,163.8c0.7,0.2,1.4,0.3,2.1,0.5C187.2,164,186.5,163.9,185.9,163.8z"/>
			<path class="st21" d="M182.8,165.8c0.6,2.1,6.9,3.9,8.5,3.7c1.6-0.2,0.6-4.2,0.6-4.2l-0.1,0.3c0,0,0,0-3.6-1.2
				c-0.1,0-0.2-0.1-0.3-0.1c-0.7-0.2-1.4-0.3-2.1-0.5C183.7,163.5,182.4,164.2,182.8,165.8z"/>
			<path class="st22" d="M183,202.9l0.1-0.1C183.1,202.8,183.1,202.8,183,202.9L183,202.9z"/>
			<path class="st13" d="M191.8,190.8c-4-1.1-6.1-0.2-7.2,3.3c-1.1,3.5-1.7,6.8-1.7,6.8l0.2,1.8c0,0,0.1,0,0.2,0l10.4-6.6
				C193.6,196.2,195.8,191.9,191.8,190.8z"/>
			<path class="st14" d="M206.5,201.3c-1.2-0.4-8.8-0.3-9.3,4.1c-0.4,4.5,1,7,4.3,7s2.5,2.4,5.4-0.8c2.8-3.2,5.9-4.7,4-6.6
				C209,203.1,206.5,201.3,206.5,201.3z"/>
		</g>
		<g>
			<path class="st5" d="M185.5,95.6c16,11.9,28.1-17.9,6-22.3C190.8,73.1,169.5,83.7,185.5,95.6z M192.1,82.3c0,0,3.8,3.3,4.5,8.1
				c0.7,4.8-5.7,2.5-9.5-1.3S192.1,82.3,192.1,82.3z"/>
			<path class="st6" d="M157.4,136.8c0.4-4.5-8.3-11.4-21.2-2.3s5.8,13.4,5.8,13.4c0.5,0.2,1.2,0.1,2.1-0.1l-0.2-1.8
				c0,0,0.6-3.4,1.7-6.8c1.1-3.5,3.2-4.3,7.2-3.3c4,1.1,1.8,5.3,1.8,5.3l-10.4,6.6C148.8,146.5,157,140.5,157.4,136.8z"/>
			<path class="st7" d="M149.4,109.4c3.6,1.2,3.6,1.2,3.6,1.2l0.1-0.3c0,0,1,4-0.6,4.2c-1.6,0.2-8-1.6-8.5-3.8
				c-0.4-1.6,0.9-2.3,3.1-2c-3.8-0.9-7.2-1.5-8.2-1.1c-2.6,0.9,13.2,11.9,17.6,12.4c4.5,0.5,7.7-3.8,3.9-7.7c0,0-5.6-1.7-11.2-3.1
				C149.2,109.3,149.3,109.4,149.4,109.4z"/>
			<path class="st8" d="M182.2,126.6c5.7-2,7.3-9.9,5.9-11.9c-1.4-2-8.1-2.6-8.1-2.6s-15.3,0.6-14.9,6.6
				C165.4,124.7,176.4,128.5,182.2,126.6z M170.5,117.9c1.3-2.4,7.9-2.3,7.9-2.3s1.6,3.1,0.6,3.8c-1,0.7-4.1,1.7-5.7,2.5
				C171.7,122.6,169.2,120.3,170.5,117.9z"/>
			<path class="st5" d="M176.7,104.3c3.5-6,6.3-9.2-0.5-10.9c-6.8-1.7-10.6-1.2-10.6-1.2s-9.8,11.9-7.3,13.7
				S173.2,110.3,176.7,104.3z M169.2,102.1c-0.8,1.8-5.2,1.9-6.8-1.2c-1.6-3.1,4.7-5.1,4.7-5.1s0,0,3.9,0.5
				C175,96.9,170,100.4,169.2,102.1z"/>
			<path class="st5" d="M167.8,66.1c1.1,0.2,2.2,0.3,3.2,0.2c1-0.8,2.2-1.6,3.5-2.2c0.4-0.6,0.7-1.4,0.9-2.4c1.3-6.2,2.1-8-1.1-11.4
				c-3.2-3.4-7.2-4.4-11-3.8c-2.9,0.4-4.7,1.8-3.7,8.2c0.7,4.8,0.9,7.8,2.7,9.5C164.3,65.2,168.3,62.8,167.8,66.1z M163,60.3
				c-4.2-2.7,1.4-5.2,4.5-6.7c0,0,2.6,2.9,2.9,8.4C170.6,67.4,167.2,62.9,163,60.3z"/>
			<path class="st6" d="M138.4,69.5c-1.4-0.7-2.8-3-2.8-5.1c0-3.8,2.9-6.5,4-6.6c0,0,2.2,4.3,1.5,9.2c2.4-2.4,8-10.8,10.8-18.7
				c3.1-8.7-2.4-5.1-6.7-7.8s-7.9-1.6-11.5,0.1c-3.6,1.6-3.3,7.6-2.2,22.3C132.3,72.8,136,71.4,138.4,69.5z"/>
			<path class="st5" d="M149,66.2c-9,2.4-3.5,6-0.4,12.1c3.1,6.1,8.7,3.1,9.8,2.9c0,0,4.4-3.4,8.1-11.6c0.7-1.6,1.1-2.7,1.2-3.5
				c-1-0.2-1.9-0.4-2.9-0.6c-1.2-0.3-2-0.7-2.7-1.2c0,0,0,0,0,0C159.4,63,158,63.7,149,66.2z"/>
			<path class="st22" d="M164.8,65.5c1,0.2,2,0.4,2.9,0.6c0.5-3.3-3.4-0.9-5.6-1.9C162.8,64.8,163.7,65.2,164.8,65.5z"/>
			<path class="st10" d="M170.9,66.3c-2.7,2.2-4,5.1-0.3,8.2c5,4.2,2.8,7.8,7.8,4.3c5-3.5,9.6-2,9.7-8.6c0.1-6.6,0.1-6.6,0.1-6.6
				s-9.3-1.7-13.8,0.5l0,0C173.6,65.6,172.4,66.2,170.9,66.3z"/>
			<path class="st22" d="M174.4,64.2c-1.2,0.6-2.5,1.3-3.5,2.2C172.4,66.2,173.6,65.6,174.4,64.2z"/>
			<path class="st11" d="M213.8,114.2c-1.9-5.2-6.9-6.1-6.9-6.1s-13.2,3.6-6.7,14.2c6.5,10.6,7.5,13.7,10.9,7.2
				C214.6,122.8,215.7,119.4,213.8,114.2z M209,122.6c-1.9,1.9-3.1,1-5.2-2c-2.1-3,4-6.6,4-6.6s2.9,1.2,3.4,4.4
				C211.6,121.6,210.9,120.6,209,122.6z"/>
			<path class="st12" d="M125.2,97.9c0,0-1.3,2.3-2.3,2.9c-0.9,0.7-2.6-0.2-5.5-1.9c-2.9-1.8-1.1-7.2-1.1-7.2
				c-0.5-0.2-0.9-0.4-1.3-0.6c-0.6,1.1-1.4,2-2.5,2.5c1.5,6.3,5.8,17.3,12,11.3C127.2,102.5,126.9,100,125.2,97.9z"/>
			<path class="st13" d="M117.7,98.8c3,1.7,4.8,2.6,5.8,1.9c1-0.7,2.4-3,2.4-3c-2.1-2.5-6.1-4.7-9.2-6.1
				C116.6,91.7,114.7,97.1,117.7,98.8z"/>
			<path class="st14" d="M105.2,73.8c0,0-7.9,13.3-5,17.8c1.8,2.9,8.4,4.2,12.4,2.1c1.1-0.6,2.1-1.4,2.7-2.6
				c0.6-1.2,0.9-2.7,0.6-4.6C114.3,76.3,105.2,73.8,105.2,73.8z"/>
			<path class="st15" d="M182.2,133.7c-0.6,0.4-5.7,0.5-9.9,1.5c1.8,0.1,4.2,1,4.8,0.9c0,0,2,2.4,1.8,4.7c-0.2,2.2-0.9,1.2-3.8,0.6
				s-4.5-0.4-5.1-4.2c-0.1-0.6,0-1,0.2-1.3c-1.7,0.6-2.9,1.5-3.2,2.8c-1,4.5,3.2,6.7,10.4,7.2c7.2,0.6,15.1,2.1,12-4.5
				S182.2,133.7,182.2,133.7z"/>
			<path class="st16" d="M121.6,125.2c0,0-8.8-1.4-11.1,3.3c0,0,8.8,3.1,9.7,5.7c0.8,2.1-3.9,6.3-5.6,7.8c1,0.3,2.2,0.2,3.4-0.3
				c4.1-1.7,8.4,0.9,8.3-6.7S121.6,125.2,121.6,125.2z"/>
			<path class="st13" d="M120.2,134.2c-0.9-2.6-9.7-5.7-9.7-5.7c-0.4,0.9-0.7,2-0.5,3.4c0.5,6.1,2.2,9.3,4.7,10.1
				C116.3,140.5,121,136.3,120.2,134.2z"/>
			<path class="st16" d="M119.7,112.3c0,0-13.2-3.5-12.4,1.8c0.8,5.4,9.2,6.3,14.9,8.2C128,124.2,124.5,114.9,119.7,112.3z"/>
			<path class="st17" d="M197.8,128.1c0,0-12.1,3.5-7.4,9.3c4.7,5.9,5.3,9.6,9.8,6.8c4.5-2.9,8.3-3.4,5.3-8.5
				C202.6,130.7,197.8,128.1,197.8,128.1z"/>
			<path class="st17" d="M190.8,110.5c6.1,0.7,9,1.4,8.7-4c-0.3-5.4-1.1-7.5-1.1-7.5l-8.4,0.5C189.9,99.4,184.6,109.7,190.8,110.5z"
				/>
			<path class="st18" d="M123.5,75.5c5.3-1.3,10.3-8.1,5.6-14c-4.7-5.9-11-11-15.3-10.9c-0.8,0-11.5,11-6.8,16.9
				C111.7,73.4,118.2,76.8,123.5,75.5z"/>
			<path class="st19" d="M139.5,57.7c-1.1,0.2-4,2.8-4,6.6c0,2.1,1.4,4.4,2.8,5.1c1.1-0.9,1.9-1.9,2.1-2c0.2-0.1,0.4-0.3,0.6-0.5
				C141.7,62,139.5,57.7,139.5,57.7z"/>
			<path class="st19" d="M170.4,61.9c-0.3-5.4-2.9-8.4-2.9-8.4c-3.1,1.6-8.7,4-4.5,6.7C167.2,62.9,170.6,67.4,170.4,61.9z"/>
			<path class="st19" d="M196.6,90.4c-0.7-4.8-4.5-8.1-4.5-8.1s-8.9,3-5,6.8S197.3,95.2,196.6,90.4z"/>
			<path class="st19" d="M171.1,96.4c-3.9-0.5-3.9-0.5-3.9-0.5s-6.3,2-4.7,5.1c1.6,3.1,5.9,3,6.8,1.2S175,96.9,171.1,96.4z"/>
			<path class="st19" d="M173.2,121.9c1.5-0.8,4.7-1.8,5.7-2.5c1-0.7-0.6-3.8-0.6-3.8s-6.6-0.1-7.9,2.3
				C169.2,120.3,171.7,122.6,173.2,121.9z"/>
			<path class="st19" d="M207.8,114c0,0-6,3.6-4,6.6c2.1,3,3.3,3.9,5.2,2c1.9-1.9,2.6-0.9,2.1-4.2C210.7,115.2,207.8,114,207.8,114z
				"/>
			<path class="st22" d="M170.1,135.9c0.7-0.3,1.4-0.5,2.1-0.7C171.3,135.2,170.5,135.3,170.1,135.9z"/>
			<path class="st20" d="M175.1,141.3c2.8,0.7,3.5,1.7,3.8-0.6c0.2-2.2-1.8-4.7-1.8-4.7c-0.6,0.1-2.9-0.8-4.8-0.9
				c-0.8,0.2-1.5,0.4-2.1,0.7c-0.2,0.3-0.3,0.7-0.2,1.3C170.6,140.9,172.2,140.7,175.1,141.3z"/>
			<path class="st22" d="M146.9,108.8c0.7,0.2,1.4,0.3,2.1,0.5C148.3,109.1,147.6,108.9,146.9,108.8z"/>
			<path class="st21" d="M143.9,110.9c0.6,2.1,6.9,3.9,8.5,3.7c1.6-0.2,0.6-4.2,0.6-4.2l-0.1,0.3c0,0,0,0-3.6-1.2
				c-0.1,0-0.2-0.1-0.3-0.1c-0.7-0.2-1.4-0.3-2.1-0.5C144.7,108.6,143.4,109.3,143.9,110.9z"/>
			<path class="st22" d="M144.1,147.9l0.1-0.1C144.2,147.8,144.1,147.8,144.1,147.9L144.1,147.9z"/>
			<path class="st13" d="M152.8,135.9c-4-1.1-6.1-0.2-7.2,3.3c-1.1,3.5-1.7,6.8-1.7,6.8l0.2,1.8c0,0,0.1,0,0.2,0l10.4-6.6
				C154.6,141.2,156.8,136.9,152.8,135.9z"/>
			<path class="st14" d="M167.6,146.3c-1.2-0.4-8.8-0.3-9.3,4.1s1,7,4.3,7c3.3,0.1,2.5,2.4,5.4-0.8c2.8-3.2,5.9-4.7,4-6.6
				C170,148.1,167.6,146.3,167.6,146.3z"/>
		</g>
	</g>
	<path class="st14" d="M134.5,0c0.8,2,1.1,3.3,1.1,3.3s-0.4,0.5-1.1,1.2c0.6,2.3,1.4,4.8,2.3,7.7c0.2,0.5,0.3,1,0.5,1.5
		c16.2,50.4,71.8,176.4,222.1,180.2c1.4,0,2.8,0.1,4.2,0.1c1.9,0,3.9,0,5.8,0c2.8,0,5.6-0.1,8.4-0.2c-1.1,1-2.4,2.2-4,3.7
		c-0.1,0.1-0.3,0.3-0.4,0.4l0,0c-0.3,0-0.5,0-0.8,0c-4.1,0.1-8.1,0.2-12,0.1C196.8,196.3,143.5,50.7,131.5,8.5
		c-2.5,2.7-9,9-11.9,6.8c-0.7-0.5-1.4-1.4-2.1-2.5c1.5-1.9,3.1-3.7,4.7-5.6c0,0,0-0.1-0.1-0.4c1-0.5,2-1,3.2-1.6c0,0,0-0.1,0-0.1
		c0,0,0,0.1,0,0.1c1.6-0.9,3.4-1.8,5.3-3C131.9,1.6,133.1,0.8,134.5,0z"/>
	<path class="st23" d="M93.1,111.2c-9.8,7.3-6.2,24.5,5.9,46.2s51.1,29.9,61.8,27.3c10.8-2.6,32.4-13.4,34.7-22.4
		c2.2-8.9-35.7-47.6-35.7-47.6s-14-10.3-30.8-13.1S102.9,103.9,93.1,111.2z"/>
	<path class="st24" d="M131.5,8.5c-2.5,2.7-9,9-11.9,6.8c-0.7-0.5-1.4-1.4-2.1-2.5c-1.7-2.7-3.3-6.5-4.5-9.3
		c-1.2,0.6-2.3,1.2-3.3,1.7c0.1,0.2,0.1,0.4,0.1,0.4c-77.8,87.8-7.4,186.8-7.4,186.8c61.4,85.2,132.6,85.2,187.7,64.7c0,0,0,0,0,0
		c0,0,0,0,0,0c0.5-0.3,13.1-8.2,31-22.8c0,0,0,0,0,0c11.6-9.4,25.4-21.6,39.5-36.4C196.8,196.3,143.5,50.7,131.5,8.5z M195.5,162.3
		c-2.2,8.9-23.9,19.8-34.6,22.4c-0.1,0-0.3,0.1-0.4,0.1c-0.3,0.1-0.6,0.1-0.9,0.2c-0.2,0-0.3,0-0.5,0.1c-0.2,0-0.4,0-0.6,0.1
		c0,0-0.1,0-0.1,0c-0.3,0-0.5,0-0.8,0.1c-0.4,0-0.7,0-1.1,0c-0.4,0-0.8,0-1.2,0c-0.6,0-1.3,0-2-0.1c-0.5,0-0.9-0.1-1.4-0.1
		c-0.2,0-0.5,0-0.7-0.1c-0.7-0.1-1.5-0.2-2.2-0.3c-0.5-0.1-1-0.1-1.6-0.2c-0.5-0.1-1.1-0.2-1.6-0.3c-0.3-0.1-0.6-0.1-0.8-0.1
		c-0.6-0.1-1.1-0.2-1.7-0.3c-1.7-0.3-3.5-0.8-5.2-1.2c-0.6-0.2-1.2-0.3-1.8-0.5c-0.6-0.2-1.2-0.3-1.8-0.5c-1.2-0.4-2.4-0.8-3.7-1.2
		c-0.6-0.2-1.2-0.4-1.8-0.7s-1.2-0.5-1.8-0.7c-0.7-0.3-1.4-0.6-2.2-0.9c-0.3-0.1-0.6-0.3-0.9-0.4c-0.4-0.2-0.8-0.4-1.2-0.6
		c-0.2-0.1-0.5-0.2-0.7-0.3c-0.1,0-0.1-0.1-0.2-0.1c-0.8-0.4-1.5-0.7-2.3-1.1c-0.3-0.2-0.7-0.4-1-0.5c-0.7-0.4-1.4-0.8-2.1-1.1
		c-0.6-0.4-1.2-0.7-1.8-1.1c-0.5-0.3-0.9-0.6-1.4-0.9l-0.1,0c-0.2-0.2-0.5-0.3-0.7-0.5c-0.3-0.2-0.5-0.3-0.7-0.5
		c-3.2-2.3-6.1-4.8-8.6-7.6l0,0c-1.6-1.8-2.9-3.7-4.1-5.8c-0.7-1.3-1.4-2.6-2.1-3.8c-0.3-0.6-0.7-1.3-1-1.9
		c-0.9-1.7-1.6-3.3-2.4-4.9c-0.2-0.5-0.5-1-0.7-1.6c-0.2-0.6-0.5-1.1-0.7-1.6c-0.2-0.5-0.4-0.9-0.6-1.4c-0.2-0.5-0.4-1.1-0.6-1.6
		c-0.1-0.3-0.3-0.7-0.4-1c0,0,0,0,0,0c-0.3-0.8-0.5-1.5-0.8-2.3c-0.2-0.5-0.3-1-0.4-1.4c-0.6-2-1.1-3.9-1.4-5.7
		c-0.2-0.9-0.3-1.8-0.4-2.6c-0.1-0.9-0.2-1.7-0.2-2.5c0-0.3,0-0.6,0-1c0-0.3,0-0.6,0-0.8c0-0.3,0-0.5,0-0.8c0-0.3,0-0.6,0.1-0.9
		c0-0.4,0.1-0.7,0.2-1.1c0.1-0.3,0.1-0.6,0.2-0.9c0.1-0.2,0.1-0.5,0.2-0.7c0.2-0.7,0.4-1.3,0.6-1.9c0.1-0.2,0.1-0.3,0.2-0.5
		c0-0.1,0.1-0.2,0.1-0.3c0-0.1,0.1-0.1,0.1-0.2c0-0.1,0.1-0.1,0.1-0.2c0.1-0.1,0.1-0.3,0.2-0.4c0-0.1,0.1-0.1,0.1-0.2
		c0,0,0.1-0.1,0.1-0.1c0.1-0.1,0.2-0.3,0.3-0.4c0.3-0.5,0.7-1,1.1-1.4c0,0,0.1-0.1,0.1-0.1c0,0,0,0,0.1-0.1l0,0c0,0,0.1-0.1,0.1-0.1
		c0.3-0.4,0.7-0.7,1.1-1.1c0,0,0.1-0.1,0.1-0.1c0,0,0,0,0.1-0.1c0,0,0,0,0,0c0.2-0.2,0.4-0.3,0.6-0.5l0,0c0.5-0.3,0.9-0.7,1.4-1
		c0.4-0.3,0.7-0.5,1.1-0.8c0.4-0.3,0.8-0.6,1.2-0.8c0.3-0.2,0.6-0.4,0.9-0.6c0.3-0.2,0.6-0.4,1-0.6c0.3-0.2,0.6-0.4,0.9-0.5
		c0.3-0.2,0.6-0.4,0.9-0.6c0.3-0.2,0.6-0.4,0.9-0.5c0.3-0.2,0.6-0.4,0.9-0.5c0.3-0.2,0.6-0.3,1-0.5c0.6-0.3,1.3-0.6,2-0.9
		c0.3-0.1,0.7-0.3,1-0.4c0.3-0.1,0.7-0.3,1-0.4c0.3-0.1,0.7-0.3,1-0.4c0.7-0.2,1.4-0.4,2.2-0.6c0.3-0.1,0.6-0.1,0.9-0.2
		c0.2,0,0.4-0.1,0.6-0.1c0.2,0,0.4-0.1,0.7-0.1c0.4-0.1,0.9-0.2,1.3-0.2c0.4-0.1,0.8-0.1,1.2-0.2c2-0.2,4.1-0.3,6.4-0.3
		c1.1,0,2.3,0.1,3.6,0.2c0.6,0.1,1.2,0.1,1.9,0.2c0.3,0.1,0.6,0.1,1,0.1c0.3,0.1,0.7,0.1,1,0.2c0.8,0.1,1.6,0.3,2.4,0.4
		c0.4,0.1,0.8,0.2,1.2,0.3c0.8,0.2,1.5,0.4,2.3,0.6c0.4,0.1,0.8,0.2,1.1,0.3c0.7,0.2,1.5,0.4,2.2,0.7c1,0.3,1.9,0.7,2.8,1
		c0.6,0.2,1.2,0.5,1.8,0.7c0.5,0.2,1,0.4,1.4,0.6c1.2,0.5,2.4,1.1,3.5,1.6c0.7,0.3,1.4,0.7,2,1c0.5,0.2,0.9,0.5,1.3,0.7
		c0.3,0.1,0.5,0.3,0.8,0.4c0.2,0.1,0.5,0.3,0.7,0.4c0.2,0.1,0.5,0.3,0.7,0.4c0.1,0.1,0.3,0.2,0.4,0.3c0.3,0.2,0.6,0.3,0.9,0.5
		c0.3,0.2,0.5,0.3,0.8,0.5c0.3,0.2,0.5,0.3,0.7,0.5c0.2,0.1,0.5,0.3,0.7,0.4c0.2,0.1,0.4,0.3,0.6,0.4c0.1,0.1,0.2,0.1,0.3,0.2
		c0.1,0.1,0.3,0.2,0.4,0.3c0.1,0,0.1,0.1,0.2,0.1c0.1,0,0.1,0.1,0.2,0.1c0.9,0.6,1.4,1,1.4,1S197.7,153.4,195.5,162.3z M113,3.6
		C113,3.6,113,3.6,113,3.6c0-0.1-0.1-0.3-0.2-0.4C112.9,3.3,113,3.4,113,3.6z"/>
	<path class="st25" d="M382.2,197.4c-0.3,0.5-0.7,0.9-1,1.4c0,0-38.1,38.7-91.1,58.4c0.5-0.3,13.1-8.2,31-22.8c0,0,0,0,0,0
		c11.6-9.4,25.4-21.6,39.5-36.4c4.2,0,8.5,0,12.8-0.2l0,0C376.4,197.7,379.3,197.5,382.2,197.4z"/>
	<path class="st24" d="M363.6,193.9c1.9,0,3.9,0,5.8,0l4.4,3.5l0.5,0.4c-0.6,0-1.1,0-1.8,0c-3.5-0.2-8-1.6-13.3-4
		C360.8,193.9,362.2,193.9,363.6,193.9z"/>
	<path class="st24" d="M130.1,6.9l6.7,5.3c0.2,0.5,0.3,1,0.5,1.5C132.7,9.3,130.1,6.9,130.1,6.9z"/>
</g>
<g id="seeds">
	<path class="st5" d="M342.2,278.8c11.5,9.1,10.9-1.2,15.7-10.9c4.8-9.7-4.2-13.9-5.4-15.1c0,0-8.4-2.4-22.3,0.6
		c-2.7,0.6-4.5,1.2-5.6,1.8c0.7,1.4,1.3,2.8,2,4.3c0.8,1.7,1.1,3.2,1,4.6c0,0,0,0,0,0C328.5,268.6,330.8,269.7,342.2,278.8z"/>
	<path class="st10" d="M301.9,282c5.3,1.3,10.2,0.2,10.6-7.2c0.6-10.3,7.2-10.9-1.8-13.9c-9.1-3-11.5-10.3-19.9-4.2
		c-8.4,6-8.4,6-8.4,6s6.5,13.3,13.5,16.9l0,0C298.6,279.3,300.5,280.3,301.9,282z"/>
	<path class="st14" d="M378.9,274.1c0,0,24.1-2.4,27.2-10.3c1.9-5-2.6-14.5-9-17.6c-1.8-0.9-3.7-1.3-5.7-1c-2.1,0.3-4.2,1.4-6.3,3.5
		C373.5,260.2,378.9,274.1,378.9,274.1z"/>
	<path class="st16" d="M407.9,264.7c0,0,7.8,19.9,13.9,13.9c6-6-0.6-17.5-3.6-26.6S406.7,256.3,407.9,264.7z"/>
	<path class="st17" d="M387.8,248.3c0,0,15.7,12.1,18.7,0.6c3-11.5,7.2-15.7-0.6-18.7c-7.8-3-12.1-7.2-15.7,1.2
		C386.6,239.8,387.8,248.3,387.8,248.3z"/>
	<path class="st17" d="M355.1,230.6c-4.8-8.4-6.6-12.7-13.3-7.2c-6.6,5.4-8.4,8.4-8.4,8.4l8.5,10.2C341.9,242,360,239.1,355.1,230.6
		z"/>
	<path class="st18" d="M375.8,237.3c-6.6-5.4-19.9-5.4-22.9,6c-3,11.5-3.6,24.1,0.6,29.6c0.7,1,24.7,4.2,27.8-7.2
		C384.3,254.2,382.5,242.7,375.8,237.3z"/>
	<g>
		<path class="st6" d="M361.4,235.2c0.4,2.4-1.2,6.3-3.9,8.3c-4.8,3.6-10.9,2.4-12.1,1.2c0,0,3.4-6.8,10.2-10.5
			c-5.4-0.8-21.1,0-33.8,3.9c-13.9,4.2-4.2,7.8-3.6,15.7c0.6,7.8,5.4,11.5,10.9,14.5c5.4,3,12.7-3,30.2-18.1
			C371.3,239.8,366.1,236.4,361.4,235.2z"/>
		<path class="st19" d="M345.4,244.7c1.2,1.2,7.2,2.4,12.1-1.2c2.7-2,4.3-5.9,3.9-8.3c-2.2-0.5-4.2-0.6-4.5-0.7
			c-0.3-0.1-0.7-0.2-1.2-0.3C348.9,237.9,345.4,244.7,345.4,244.7z"/>
	</g>
	<g>
		<path class="st5" d="M398.6,231.2c-0.8-1.6-1.6-3.1-2.6-4.2c-2-0.5-4.1-1.4-6-2.4c-1.1,0.1-2.4,0.5-3.9,1.2
			c-9.1,4.2-12.1,4.8-13.3,12.1c-1.2,7.2,1.2,13.3,5.4,17.5c3.3,3.3,6.6,4.2,13.9-3c5.4-5.4,9.1-8.4,9.4-12.3
			C400.7,236.3,393.9,233.7,398.6,231.2z M395.7,242.7c0.6,7.8-7.8,3-12.7,0.6c0,0,1.2-6,7.8-11.5
			C397.5,226.4,395.1,234.9,395.7,242.7z"/>
		<path class="st19" d="M390.9,231.8c-6.6,5.4-7.8,11.5-7.8,11.5c4.8,2.4,13.3,7.2,12.7-0.6C395.1,234.9,397.5,226.4,390.9,231.8z"
			/>
	</g>
	<g>
		<path class="st5" d="M385.3,233.1c0-31.4-48.9-18.7-33.8,13.3C352,247.5,385.3,264.5,385.3,233.1z M362.3,237.4
			c0,0,0.6-7.8,6-13.3c5.4-5.4,8.4,4.8,7.2,13.3C374.4,245.8,362.3,237.4,362.3,237.4z"/>
		<path class="st19" d="M368.4,224.1c-5.4,5.4-6,13.3-6,13.3s12.1,8.4,13.3,0C376.8,228.9,373.8,218.7,368.4,224.1z"/>
	</g>
	<g>
		<path class="st5" d="M362.6,260.2c-10.9,1.2-17.5,0.6-13.3,10.9c4.2,10.3,8.4,14.5,8.4,14.5s24.1,1.2,24.1-3.6
			S373.4,259,362.6,260.2z M366.8,271.6c3-0.6,7.2,4.8,4.8,9.7s-10.9-1.2-10.9-1.2s0,0-3-5.4C354.7,269.2,363.8,272.2,366.8,271.6z"
			/>
		<path class="st19" d="M357.7,274.6c3,5.4,3,5.4,3,5.4s8.4,6,10.9,1.2s-1.8-10.3-4.8-9.7S354.7,269.2,357.7,274.6z"/>
	</g>
	<g>
		<path class="st8" d="M388.5,205.4c-7.8-5.4-19.3,0-20.5,3.6c-1.2,3.6,4.2,12.7,4.2,12.7s15.1,18.7,22.3,12.7
			S396.4,210.8,388.5,205.4z M388.5,228.3c-4.2,0.6-10.3-7.8-10.3-7.8s2.4-4.8,4.2-4.2c1.8,0.6,6,3.6,8.4,4.8
			S392.7,227.7,388.5,228.3z"/>
		<path class="st19" d="M390.9,221.1c-2.4-1.2-6.6-4.2-8.4-4.8c-1.8-0.6-4.2,4.2-4.2,4.2s6,8.4,10.3,7.8
			C392.7,227.7,393.3,222.3,390.9,221.1z"/>
	</g>
	<g>
		<path class="st11" d="M307.2,265c-4.8,7.2-1.2,14.5-1.2,14.5s16.9,13.3,24.1-4.8c7.2-18.1,10.3-22.3-1.2-20.5
			C317.5,256,312.1,257.8,307.2,265z M322.3,263.2c4.2,0.6,4.2,3,2.4,8.4c-1.8,5.4-12.1,1.2-12.1,1.2s-1.2-4.8,2.4-8.4
			C318.7,260.8,318.1,262.6,322.3,263.2z"/>
		<path class="st19" d="M312.7,272.9c0,0,10.3,4.2,12.1-1.2c1.8-5.4,1.8-7.8-2.4-8.4c-4.2-0.6-3.6-2.4-7.2,1.2
			C311.5,268.1,312.7,272.9,312.7,272.9z"/>
	</g>
	<g>
		<path class="st15" d="M473.3,285c1.1-0.5,9,0.8,15.7,0.4c-2.8-0.7-6.2-2.7-7.1-2.7c0,0-2.4-4.3-1.5-7.7s1.8-1.7,6,0.2
			c4.2,1.8,6.8,1.9,6.7,7.9c0,0.9-0.2,1.5-0.6,1.9c2.7-0.5,4.9-1.6,5.7-3.5c2.8-6.7-3-11.2-14.1-14.1c-11-2.9-22.8-7.6-19.8,3.6
			C467.4,282.2,473.3,285,473.3,285z"/>
		<path class="st20" d="M486.5,275.2c-4.2-1.8-5-3.6-6-0.2s1.5,7.7,1.5,7.7c1,0,4.3,2,7.1,2.7c1.2-0.1,2.4-0.2,3.5-0.4
			c0.4-0.4,0.6-1,0.6-1.9C493.2,277.1,490.7,277,486.5,275.2z"/>
	</g>
	<g>
		<path class="st7" d="M466.5,274.9c-1.8-5.7-1.8-5.7-1.8-5.7l-0.4,0.2c0,0,4.1-5,5.9-3.1c1.8,1.8,5.4,11.6,3.2,14.2
			c-1.6,2-3.7,1-5.4-2c2.4,5.6,4.8,10.4,6.2,11.4c3.6,2.5,2.7-27.7-0.8-33.8c-3.6-6.1-12-6.2-13.3,2.3c0,0,3.2,8.7,6.6,17
			C466.6,275.2,466.6,275,466.5,274.9z"/>
		<path class="st9" d="M468.1,278.5c-0.5-1-0.9-2.1-1.4-3.1C467.1,276.6,467.6,277.6,468.1,278.5z"/>
		<path class="st21" d="M473.5,280.5c2.1-2.7-1.5-12.4-3.3-14.2c-1.8-1.8-5.8,3.2-5.8,3.2l0.4-0.2c0,0,0,0,1.8,5.6
			c0,0.1,0.1,0.3,0.1,0.4c0.5,1.1,0.9,2.1,1.4,3.1C469.8,281.5,471.9,282.5,473.5,280.5z"/>
	</g>
	<g>
		<path class="st6" d="M433.7,254.1c-6,3.6-6.6,21.1,16.9,29c23.5,7.8,11.5-19.9,11.5-19.9c-0.2-0.8-0.9-1.7-2.1-2.6l-2.2,2
			c0,0-4.8,2.4-10.3,4.2s-8.4,0-10.9-6c-2.4-6,5.1-7.3,5.1-7.3l18,7C454,256,438.7,251.1,433.7,254.1z"/>
		<path class="st9" d="M460.1,260.6l-0.3-0.1C459.9,260.5,460,260.6,460.1,260.6L460.1,260.6z"/>
		<path class="st13" d="M436.7,260.8c2.4,6,5.4,7.8,10.9,6s10.3-4.2,10.3-4.2l2.2-2c-0.1-0.1-0.1-0.1-0.2-0.2l-18-7
			C441.8,253.5,434.3,254.7,436.7,260.8z"/>
	</g>
	<path class="st14" d="M279.1,275.4c0.6,1.8,7.8,11.5,13.9,7.8c6-3.6,7.8-7.8,4.8-12.1c-3-4.2,0.6-5.4-6-6c-6.6-0.6-11.5-3-12.1,1.2
		C279.1,270.6,279.1,275.4,279.1,275.4z"/>
</g>
<g>
	<path class="st5" d="M501.3,242.1c0-31.4-48.9-18.7-33.8,13.3C468,256.5,501.3,273.5,501.3,242.1z M478.3,246.4c0,0,0.6-7.8,6-13.3
		c5.4-5.4,8.4,4.8,7.2,13.3C490.4,254.8,478.3,246.4,478.3,246.4z"/>
	<path class="st19" d="M484.4,233.1c-5.4,5.4-6,13.3-6,13.3s12.1,8.4,13.3,0C492.8,237.9,489.8,227.7,484.4,233.1z"/>
</g>
<g>
	<path class="st6" d="M263.2,270.1c2.1-6.7-9.1-20.2-31.9-10.3c-22.8,9.8,4.7,22.5,4.7,22.5c0.7,0.5,1.8,0.6,3.2,0.5l0.3-2.9
		c0,0,2-5,4.8-10c2.8-5,6.3-5.6,12.1-2.7c5.8,2.9,1.1,8.8,1.1,8.8l-18.1,6.8C246.9,282.2,261.5,275.6,263.2,270.1z"/>
	<path class="st9" d="M239.3,282.9l0.3-0.1C239.5,282.8,239.4,282.8,239.3,282.9L239.3,282.9z"/>
	<path class="st13" d="M256.5,267.1c-5.8-2.9-9.3-2.2-12.1,2.7c-2.8,5-4.8,10-4.8,10l-0.3,2.9c0.1,0,0.2,0,0.2,0l18.1-6.8
		C257.6,275.9,262.4,270,256.5,267.1z"/>
</g>
</svg>
