<svg version="1.1" id="el_pvfm0VeRL" xmlns="http://www.w3.org/2000/svg" xmlns:xlink="http://www.w3.org/1999/xlink" x="0px" y="0px" viewBox="0 0 399 283" style="enable-background:new 0 0 399.45 283.86;" xml:space="preserve"><style>@-webkit-keyframes kf_el_eaItZudLvX_an_i19on_uAj{0%{-webkit-transform: translate(-0.000091552734375px, 0.004924774169921875px) translate(0.000091552734375px, -0.004924774169921875px) translate(0px, 0px);transform: translate(-0.000091552734375px, 0.004924774169921875px) translate(0.000091552734375px, -0.004924774169921875px) translate(0px, 0px);}11.11%{-webkit-transform: translate(-0.000091552734375px, 0.004924774169921875px) translate(0.000091552734375px, -0.004924774169921875px) translate(-4px, 0px);transform: translate(-0.000091552734375px, 0.004924774169921875px) translate(0.000091552734375px, -0.004924774169921875px) translate(-4px, 0px);}22.22%{-webkit-transform: translate(-0.000091552734375px, 0.004924774169921875px) translate(0.000091552734375px, -0.004924774169921875px) translate(-100px, -5px);transform: translate(-0.000091552734375px, 0.004924774169921875px) translate(0.000091552734375px, -0.004924774169921875px) translate(-100px, -5px);}33.33%{-webkit-transform: translate(-0.000091552734375px, 0.004924774169921875px) translate(0.000091552734375px, -0.004924774169921875px) translate(60px, 28px);transform: translate(-0.000091552734375px, 0.004924774169921875px) translate(0.000091552734375px, -0.004924774169921875px) translate(60px, 28px);}50%{-webkit-transform: translate(-0.000091552734375px, 0.004924774169921875px) translate(0.000091552734375px, -0.004924774169921875px) translate(10px, 25px);transform: translate(-0.000091552734375px, 0.004924774169921875px) translate(0.000091552734375px, -0.004924774169921875px) translate(10px, 25px);}65.56%{-webkit-transform: translate(-0.000091552734375px, 0.004924774169921875px) translate(0.000091552734375px, -0.004924774169921875px) translate(-20px, 24px);transform: translate(-0.000091552734375px, 0.004924774169921875px) translate(0.000091552734375px, -0.004924774169921875px) translate(-20px, 24px);}80%{-webkit-transform: translate(-0.000091552734375px, 0.004924774169921875px) translate(0.000091552734375px, -0.004924774169921875px) translate(-100px, 18px);transform: translate(-0.000091552734375px, 0.004924774169921875px) translate(0.000091552734375px, -0.004924774169921875px) translate(-100px, 18px);}100%{-webkit-transform: translate(-0.000091552734375px, 0.004924774169921875px) translate(0.000091552734375px, -0.004924774169921875px) translate(-100px, 18px);transform: translate(-0.000091552734375px, 0.004924774169921875px) translate(0.000091552734375px, -0.004924774169921875px) translate(-100px, 18px);}}@keyframes kf_el_eaItZudLvX_an_i19on_uAj{0%{-webkit-transform: translate(-0.000091552734375px, 0.004924774169921875px) translate(0.000091552734375px, -0.004924774169921875px) translate(0px, 0px);transform: translate(-0.000091552734375px, 0.004924774169921875px) translate(0.000091552734375px, -0.004924774169921875px) translate(0px, 0px);}11.11%{-webkit-transform: translate(-0.000091552734375px, 0.004924774169921875px) translate(0.000091552734375px, -0.004924774169921875px) translate(-4px, 0px);transform: translate(-0.000091552734375px, 0.004924774169921875px) translate(0.000091552734375px, -0.004924774169921875px) translate(-4px, 0px);}22.22%{-webkit-transform: translate(-0.000091552734375px, 0.004924774169921875px) translate(0.000091552734375px, -0.004924774169921875px) translate(-100px, -5px);transform: translate(-0.000091552734375px, 0.004924774169921875px) translate(0.000091552734375px, -0.004924774169921875px) translate(-100px, -5px);}33.33%{-webkit-transform: translate(-0.000091552734375px, 0.004924774169921875px) translate(0.000091552734375px, -0.004924774169921875px) translate(60px, 28px);transform: translate(-0.000091552734375px, 0.004924774169921875px) translate(0.000091552734375px, -0.004924774169921875px) translate(60px, 28px);}50%{-webkit-transform: translate(-0.000091552734375px, 0.004924774169921875px) translate(0.000091552734375px, -0.004924774169921875px) translate(10px, 25px);transform: translate(-0.000091552734375px, 0.004924774169921875px) translate(0.000091552734375px, -0.004924774169921875px) translate(10px, 25px);}65.56%{-webkit-transform: translate(-0.000091552734375px, 0.004924774169921875px) translate(0.000091552734375px, -0.004924774169921875px) translate(-20px, 24px);transform: translate(-0.000091552734375px, 0.004924774169921875px) translate(0.000091552734375px, -0.004924774169921875px) translate(-20px, 24px);}80%{-webkit-transform: translate(-0.000091552734375px, 0.004924774169921875px) translate(0.000091552734375px, -0.004924774169921875px) translate(-100px, 18px);transform: translate(-0.000091552734375px, 0.004924774169921875px) translate(0.000091552734375px, -0.004924774169921875px) translate(-100px, 18px);}100%{-webkit-transform: translate(-0.000091552734375px, 0.004924774169921875px) translate(0.000091552734375px, -0.004924774169921875px) translate(-100px, 18px);transform: translate(-0.000091552734375px, 0.004924774169921875px) translate(0.000091552734375px, -0.004924774169921875px) translate(-100px, 18px);}}@-webkit-keyframes kf_el_MKchkPHjjj_an_q7FtDQA1-{0%{opacity: 0;}11.11%{opacity: 0.1;}22.22%{opacity: 1;}100%{opacity: 1;}}@keyframes kf_el_MKchkPHjjj_an_q7FtDQA1-{0%{opacity: 0;}11.11%{opacity: 0.1;}22.22%{opacity: 1;}100%{opacity: 1;}}@-webkit-keyframes kf_el_HukbdEnAku_an_MnCALzMkq{0%{opacity: 0;}55.56%{opacity: 0.1;}65.56%{opacity: 0.3;}80%{opacity: 0.4;}87.78%{opacity: 1;}100%{opacity: 1;}}@keyframes kf_el_HukbdEnAku_an_MnCALzMkq{0%{opacity: 0;}55.56%{opacity: 0.1;}65.56%{opacity: 0.3;}80%{opacity: 0.4;}87.78%{opacity: 1;}100%{opacity: 1;}}#el_pvfm0VeRL *{-webkit-animation-duration: 3s;animation-duration: 3s;-webkit-animation-iteration-count: infinite;animation-iteration-count: infinite;-webkit-animation-timing-function: cubic-bezier(0, 0, 1, 1);animation-timing-function: cubic-bezier(0, 0, 1, 1);}#el_ERbm2n4IeV{fill: #FED711;}#el_7b8X0SRLvA{fill: #FFCB05;}#el_Num2AfITzt{fill: #E9B021;-webkit-transform: matrix(0.0208, -0.9998, 0.9998, 0.0208, 49.5557, 390.9745);transform: matrix(0.0208, -0.9998, 0.9998, 0.0208, 49.5557, 390.9745);}#el_CeaeUK-cgj{fill: #E88A24;}#el_0gbNmgc5JO{fill: #E88A24;}#el_3XeU-m2Svh{fill: #E88A24;}#el_pvEHFRyJea{fill: #C1B4BE;}#el_Tg0J-Wgwxc{fill: #E2D2DD;}#el_WhclnLgV-4X{fill: #384858;}#el_HukbdEnAku{-webkit-animation-fill-mode: backwards;animation-fill-mode: backwards;opacity: 0;-webkit-animation-name: kf_el_HukbdEnAku_an_MnCALzMkq;animation-name: kf_el_HukbdEnAku_an_MnCALzMkq;-webkit-animation-timing-function: cubic-bezier(0, 0, 1, 1);animation-timing-function: cubic-bezier(0, 0, 1, 1);}#el_MKchkPHjjj{-webkit-animation-fill-mode: backwards;animation-fill-mode: backwards;opacity: 0;-webkit-animation-name: kf_el_MKchkPHjjj_an_q7FtDQA1-;animation-name: kf_el_MKchkPHjjj_an_q7FtDQA1-;-webkit-animation-timing-function: cubic-bezier(0, 0, 1, 1);animation-timing-function: cubic-bezier(0, 0, 1, 1);}#el_eaItZudLvX_an_i19on_uAj{-webkit-animation-fill-mode: backwards;animation-fill-mode: backwards;-webkit-transform: translate(-0.000091552734375px, 0.004924774169921875px) translate(0.000091552734375px, -0.004924774169921875px) translate(0px, 0px);transform: translate(-0.000091552734375px, 0.004924774169921875px) translate(0.000091552734375px, -0.004924774169921875px) translate(0px, 0px);-webkit-animation-name: kf_el_eaItZudLvX_an_i19on_uAj;animation-name: kf_el_eaItZudLvX_an_i19on_uAj;-webkit-animation-timing-function: cubic-bezier(0, 0, 1, 1);animation-timing-function: cubic-bezier(0, 0, 1, 1);}</style>

<g id="el_szaWutT0TG">
	<g id="el_d0_7up51W5">
		<path d="M51.27,163.74l335.73,3.29c0,0,13.72,50.59-55.69,88.42c0,0-46,37.83-167.87,20.47&#10;&#9;&#9;&#9;C163.45,275.92,57.33,282.78,51.27,163.74z" id="el_ERbm2n4IeV"/>
		<path d="M85.57,248.8c0,0,220.31,19.19,242.26-5.79c0,0,62.11-41.35,56.31-76.08c0,0,31.49-0.15,4.15,52.72&#10;&#9;&#9;&#9;c0,0-38.56,54.48-146,64.16C242.3,283.8,124.5,286.83,85.57,248.8z" id="el_7b8X0SRLvA"/>
	</g>
	
		<ellipse id="el_Num2AfITzt" cx="224.37" cy="170.19" rx="39.13" ry="173.06"/>
</g>
<g id="el_HukbdEnAku">
	<path d="M66.17,174.22c11.83,0.37,23.66,0.93,35.48,1.39l35.47,1.7c23.64,1.14,47.27,2.5,70.9,3.87&#10;&#9;&#9;c23.63,1.44,47.25,2.88,70.86,4.55l35.42,2.51c11.8,0.94,23.61,1.79,35.4,2.82c-11.83-0.37-23.66-0.93-35.48-1.39l-35.47-1.7&#10;&#9;&#9;c-23.64-1.14-47.27-2.5-70.9-3.87c-23.63-1.44-47.25-2.88-70.86-4.55l-35.42-2.51C89.77,176.09,77.96,175.25,66.17,174.22z" id="el_CeaeUK-cgj"/>
</g>
<g id="el_MKchkPHjjj">
	<path d="M79.11,151.93c11.83,0.37,23.66,0.93,35.48,1.39l35.47,1.7c23.64,1.14,47.27,2.5,70.9,3.87&#10;&#9;&#9;c23.63,1.44,47.25,2.88,70.86,4.55l35.42,2.51c11.8,0.94,23.61,1.79,35.4,2.82c-11.83-0.37-23.66-0.93-35.48-1.39l-35.47-1.7&#10;&#9;&#9;c-23.64-1.14-47.27-2.5-70.9-3.87c-23.63-1.44-47.25-2.88-70.86-4.55l-35.42-2.51C102.72,153.8,90.91,152.96,79.11,151.93z" id="el_0gbNmgc5JO"/>
</g>
<g id="el_PEnC-OxwBX">
	<path d="M130.12,138.03c8.83,0.37,17.64,0.9,26.47,1.35l26.45,1.6c17.63,1.07,35.25,2.33,52.87,3.59&#10;&#9;&#9;c17.61,1.32,35.23,2.64,52.83,4.15l26.4,2.27c8.79,0.85,17.59,1.61,26.38,2.53c-8.83-0.37-17.64-0.9-26.47-1.35l-26.45-1.6&#10;&#9;&#9;c-17.63-1.07-35.25-2.33-52.87-3.6c-17.61-1.32-35.23-2.64-52.83-4.16l-26.4-2.27C147.7,139.71,138.91,138.95,130.12,138.03z" id="el_3XeU-m2Svh"/>
</g>
<g id="el_eaItZudLvX_an_i19on_uAj" data-animator-group="true" data-animator-type="0"><g id="el_eaItZudLvX">
	<g id="el_oxiyU-j_ne">
		<path d="M113.24,51.72c0.86-1.91,145.38,82.62,152.37,109.1l-37.11-4.76L96.46,100.05L113.24,51.72z" id="el_pvEHFRyJea"/>
		<path d="M112.45,53.97c0,0,144.42,82.49,152.28,107.03l-47.82-2.73L90.55,102.3L112.45,53.97z" id="el_Tg0J-Wgwxc"/>
	</g>
	<path d="M113.73,51.92c0,0-91.19-54.75-95.76-51.8S-4.98-6.62,1.29,28.19c4.89,14.37,9.07,12.58,9.07,12.58&#10;&#9;&#9;s6.66-9.93,15.2-4.48s31.9,23.92,31.9,23.92s18.88,10.05,25.7,12.06c6.82,2.02,13.93,8.53,15.61,11.83&#10;&#9;&#9;C100.46,87.41,113.73,51.92,113.73,51.92z" id="el_WhclnLgV-4X"/>
</g></g>
</svg>