<?xml version="1.0" encoding="utf-8"?>
<!-- Generator: Adobe Illustrator 23.0.3, SVG Export Plug-In . SVG Version: 6.00 Build 0)  -->
<svg version="1.1" id="Promegranade" xmlns="http://www.w3.org/2000/svg" xmlns:xlink="http://www.w3.org/1999/xlink" x="0px"
	 y="0px" viewBox="0 0 674 338.6" style="enable-background:new 0 0 674 338.6;" xml:space="preserve">
<style type="text/css">
	.st0{fill:#EFEFEF;}
	.st1{fill:#F4F4F4;}
	.st2{fill:#EAEAEA;}
	.st3{fill:#ED8683;}
	.st4{fill:#E56C5C;}
	.st5{fill:#E05B41;}
</style>
<g>
	<g id="Plate_1_">
		<ellipse class="st0" cx="337" cy="222.9" rx="321" ry="105.7"/>
		<ellipse class="st1" cx="337" cy="216.2" rx="321" ry="105.7"/>
		<ellipse class="st2" cx="337" cy="205.7" rx="225.5" ry="74.2"/>
	</g>
	<g>
		<polygon class="st3" points="197.7,71.4 276,55.2 319.5,92.5 237.4,106.2 		"/>
		<polygon class="st4" points="233.3,176.3 237.4,106.2 197.7,71.4 197.7,148.7 		"/>
		<polygon class="st5" points="315.7,160.3 319.5,92.5 237.4,106.2 233.3,176.3 		"/>
	</g>
	<g>
		<polygon class="st3" points="293,145.9 344.2,84.4 401.4,86.4 345.8,148.2 		"/>
		<polygon class="st4" points="386.4,205.6 345.8,148.2 293,145.9 341.3,206.3 		"/>
		<polygon class="st5" points="440.8,141.7 401.4,86.4 345.8,148.2 386.4,205.6 		"/>
	</g>
	<g>
		<polygon class="st3" points="441.5,103 520.9,112.2 550.5,161.3 468.3,148.5 		"/>
		<polygon class="st4" points="442.4,213.8 468.3,148.5 441.5,103 417.2,176.4 		"/>
		<polygon class="st5" points="525.6,224.5 550.5,161.3 468.3,148.5 442.4,213.8 		"/>
	</g>
	<g>
		<polygon class="st3" points="340.1,29.5 417.6,9.9 462.7,45.3 381.4,62.6 		"/>
		<polygon class="st4" points="380.4,132.8 381.4,62.6 340.1,29.5 343.5,106.8 		"/>
		<polygon class="st5" points="462,113.2 462.7,45.3 381.4,62.6 380.4,132.8 		"/>
	</g>
	<g>
		<polygon class="st3" points="184.4,166.4 247.4,117 302.9,131.1 235.5,179.8 		"/>
		<polygon class="st4" points="263.1,244.5 235.5,179.8 184.4,166.4 218.8,235.6 		"/>
		<polygon class="st5" points="329.7,193.5 302.9,131.1 235.5,179.8 263.1,244.5 		"/>
	</g>
	<g>
		<polygon class="st3" points="337,150.8 416.9,154.6 449.8,201.5 366.9,194.4 		"/>
		<polygon class="st4" points="345.5,261.3 366.9,194.4 337,150.8 317.8,225.7 		"/>
		<polygon class="st5" points="429.3,266.2 449.8,201.5 366.9,194.4 345.5,261.3 		"/>
	</g>
	<g>
		<polygon class="st3" points="269.9,60.7 349.9,60.9 384.8,106.3 301.7,102.9 		"/>
		<polygon class="st4" points="283.4,170.7 301.7,102.9 269.9,60.7 254.1,136.4 		"/>
		<polygon class="st5" points="367.3,171.9 384.8,106.3 301.7,102.9 283.4,170.7 		"/>
	</g>
</g>
</svg>
