<?xml version="1.0" encoding="utf-8"?>
<!-- Generator: Adobe Illustrator 23.0.3, SVG Export Plug-In . SVG Version: 6.00 Build 0)  -->
<svg version="1.1" id="Promegranade" xmlns="http://www.w3.org/2000/svg" xmlns:xlink="http://www.w3.org/1999/xlink" x="0px"
	 y="0px" viewBox="0 0 674 338.6" style="enable-background:new 0 0 674 338.6;" xml:space="preserve">
<style type="text/css">
	.st0{fill:#EFEFEF;}
	.st1{fill:#F4F4F4;}
	.st2{fill:#EAEAEA;}
	.st3{fill:#DBF4D7;}
	.st4{fill:#215A2D;}
	.st5{fill:#E02214;}
	.st6{fill:#DB1C03;}
	.st7{fill:#E56C5C;}
	.st8{fill:#E05B41;}
	.st9{fill:none;}
</style>
<g>
	<g id="Plate">
		<ellipse class="st0" cx="337" cy="216.3" rx="312.5" ry="102.9"/>
		<ellipse class="st1" cx="337" cy="209.8" rx="312.5" ry="102.9"/>
		<ellipse class="st2" cx="337" cy="199.6" rx="219.5" ry="72.3"/>
	</g>
	<g>
		<path class="st3" d="M276.9,238.6c-98-30-156.3-124.3-130-210.2l0.4-1.2l384.9,91.1l-0.2,2.2c-4.1,35.9-25.1,67.1-60.8,90.4
			C417.8,245.9,337.9,257.3,276.9,238.6z"/>
		<path class="st4" d="M276.2,241.1c-98-30-156.1-125.3-129.4-212.3l0.4-1.2l385,90.8l-0.2,2.2c-4.3,36.3-25.4,68-61.2,91.8
			C417.1,248,337.1,259.8,276.2,241.1z"/>
		<path class="st3" d="M530.8,119.4c0,0.4-0.1,0.7-0.1,1.1C519,221.1,374.4,267.1,277.3,237.4C179.8,207.5,122,114.1,148.1,28.8
			l1.7,0.4L153,30l376.3,89.1L530.8,119.4z"/>
		<path class="st3" d="M147.8,27.6c43.7-13.5,183.6,23.9,229.5,36.2c6.7,1.8,11.1,3,12.8,3.3c13.7,3,27.8,6.7,42,11.1
			c56.4,17.3,97.5,39.5,97.9,39.7l-0.9,2.4l-381.4-90L147.8,27.6z"/>
		<path class="st3" d="M389.8,68.4C376.6,65.5,198,13.5,148.1,28.8l381.2,90.3C529.4,119.1,467.6,85.5,389.8,68.4z"/>
		<path class="st3" d="M147.8,27.6c43.7-13.5,183.6,23.9,229.5,36.2c6.7,1.8,11.1,3,12.8,3.3c13.7,3,27.8,6.7,42,11.1
			c56.4,17.3,97.5,39.5,97.9,39.7l-0.9,2.4L147.6,28L147.8,27.6z"/>
		<path class="st3" d="M389.8,68.4C376.6,65.5,198,13.5,148.1,28.8l381.2,90.3C529.4,119.1,467.6,85.5,389.8,68.4z"/>
		<g>
			<path class="st5" d="M277.8,225.4c-41.6-12.7-77.2-40.8-100.4-78.9c-22.1-36.4-30.4-78.8-22.7-116.3l0.3-1.3l366.2,95l0,0
				c-7.8,34.1-35.5,60.8-57.4,75.1C412.7,232.4,336.2,243.3,277.8,225.4z"/>
			<path class="st6" d="M154.9,29.6c43.9-13.5,185.2,26.9,231.2,39.7c7.7,2.1,12.7,3.5,14.5,3.9c14.5,3.2,27.2,8.3,40.8,12.5
				c50.9,15.6,79.5,37.9,79.8,38.1l-0.3,1.3L158.4,29.8L154.9,29.6z"/>
		</g>
		<path class="st7" d="M163.1,27.9l-0.2,0.7c0.5-0.1,0.9-0.2,1.4-0.4L163.1,27.9z"/>
		<polygon class="st8" points="162.9,28.6 162.9,28.6 162.9,28.6 		"/>
		<path class="st8" d="M215.2,42l0.3-0.1l-51.1-13.7c-0.5,0.1-1,0.2-1.4,0.4l0,0l3.5,0.3L215.2,42z"/>
		<polygon class="st8" points="249.5,51 249.2,51.2 279.6,59.4 279.9,59.2 		"/>
		<polygon class="st8" points="215.5,41.9 215.2,42 249.2,51.2 249.5,51 		"/>
		<path d="M191.4,69.8c-0.1,0-0.1,0-0.2,0c-0.5,0.8-2.3,3.6-4.6,5.5C189.3,73.1,191.4,69.8,191.4,69.8z"/>
		<path d="M184,69.9c-3.2,0.4-6,1.5-5.6,3.5C178.2,71.5,180.9,70.4,184,69.9z"/>
		<path d="M191.3,69.5c-1.2-0.2-4.4-0.1-7.3,0.4c2.8-0.4,5.8-0.3,7.2-0.2C191.3,69.6,191.3,69.5,191.3,69.5z"/>
		<path d="M179.4,75.3c-0.6-0.7-0.9-1.3-1-1.8c0.1,0.6,0.4,1.3,1.1,2c2.3,2.5,4.9,1.6,7.1-0.2C184.3,77,181.6,77.9,179.4,75.3z"/>
		<path class="st7" d="M221.2,34.4l-48.7-13.1l-3.5-0.3l-0.1,0.6c-8.7,36.7-1.8,78.6,19,115.1c0,0,0,0.1,0,0.1L221.2,34.4
			L221.2,34.4z M185.5,67.8c-0.7-0.8-1-1.4-1.1-2c-0.4-2.1,2.5-3.1,5.6-3.5c2.9-0.5,6.1-0.5,7.3-0.4c0,0,0,0.1-0.1,0.2
			c0.1,0,0.2,0,0.2,0c0,0-2.1,3.4-4.8,5.5C190.5,69.4,187.8,70.4,185.5,67.8z M186.6,93.7c-5.2-5.6,9.1-6.3,11.8-5.9
			C198.4,87.8,191.7,99.3,186.6,93.7z"/>
		<path class="st8" d="M241.6,25c-30-5.2-56.7-7.6-72.4-3.8l51.1,13.7L241.6,25z"/>
		<path d="M185.4,67.7c2.3,2.6,4.9,1.7,7.2,0c2.3-1.9,4.1-4.7,4.6-5.5c-1.3-0.2-4.4-0.2-7.2,0.2c-3.1,0.5-5.9,1.6-5.6,3.5
			C184.5,66.4,184.8,67,185.4,67.7z"/>
		<path d="M186.6,93.7c5.2,5.6,11.8-5.9,11.8-5.9C195.6,87.4,181.4,88.1,186.6,93.7z"/>
		<g>
			<path class="st7" d="M236.8,62.2l-34.2-8.4l0,0l-31.1,103c7.8,13.1,17.1,25,27.7,35.5l36.6-129.4L236.8,62.2z M206.6,120.9
				c0,0-6.4,11.7-11.7,6.2C189.6,121.6,203.8,120.6,206.6,120.9z M191.9,150.2c-5.3-5.5,8.9-6.5,11.7-6.2
				C203.6,144,197.1,155.7,191.9,150.2z"/>
			<path class="st8" d="M237.1,61.9L258,49.3c-11.6-2.3-23.1-4.3-34.1-6l-21,10.3L237.1,61.9z"/>
			<path d="M206.6,120.9c-2.8-0.3-17,0.7-11.7,6.2C200.2,132.6,206.6,120.9,206.6,120.9z"/>
			<path d="M191.9,150.2c5.3,5.5,11.7-6.2,11.7-6.2C200.8,143.7,186.6,144.6,191.9,150.2z"/>
		</g>
		<path d="M242.5,160.5c6.1,4.6,10.5-8.1,10.5-8.1C250.2,152.6,236.4,155.9,242.5,160.5z"/>
		<polygon class="st8" points="527.2,125.5 527.4,124.8 527.2,125.5 		"/>
		<polygon class="st8" points="285.9,59.9 527.2,125.5 527.4,124.8 286.3,59.6 		"/>
		<path d="M484.8,142.3c0,0-0.2,4,0.8,7.3c-0.8-2.9-0.7-6.3-0.6-7.2C485,142.4,484.9,142.3,484.8,142.3z"/>
		<path d="M490.8,146.6c2.2,2.2,3.9,4.7,2.6,6.1C494.9,151.3,493.2,148.8,490.8,146.6z"/>
		<path d="M491.6,153.7c-3.4,0.9-5-1.4-5.9-4.1c0.8,2.7,2.4,5,5.7,4.2c1-0.2,1.7-0.6,2-1C493,153.1,492.4,153.5,491.6,153.7z"/>
		<path d="M485,142.1c0,0,0,0.1,0,0.2c1.2,0.6,3.7,2.3,5.8,4.2C488.7,144.5,486.1,142.7,485,142.1z"/>
		<path d="M356.9,206.9c6.6,3.9,4.3-10.2,3.3-12.8C360.3,194.1,350.3,203,356.9,206.9z"/>
		<polygon class="st5" points="197.4,192 218.1,162.2 250.8,55.5 236.9,63.3 		"/>
		<g>
			<path class="st7" d="M293,39.7l-30.1-9.2l-1.1,0.6l-43.7,127.2c7.8,8.7,16.4,16.5,25.7,23.5L292.5,40L293,39.7z M233.6,136.4
				c-6-4.8,7.9-7.7,10.8-7.7C244.3,128.7,239.6,141.2,233.6,136.4z M242.6,157.4c-6-4.8,7.9-7.7,10.8-7.7
				C253.4,149.7,248.6,162.1,242.6,157.4z"/>
			<path class="st8" d="M291.8,40.2l20.8-12.7c-9.7-2.7-19.5-5.4-29.3-7.9L261.7,31L291.8,40.2z"/>
			<path d="M232.5,136.1c6,4.8,10.8-7.7,10.8-7.7C240.4,128.4,226.5,131.3,232.5,136.1z"/>
			<polygon class="st5" points="312.6,27.4 305.8,47.1 285.6,59.9 291.8,40.2 			"/>
		</g>
		<polygon class="st5" points="241.6,25 235.5,45 227,42.8 218.9,46.7 220.4,34.9 		"/>
		<path class="st9" d="M341.3,210.8c6.6,3.9,4.3-10.2,3.3-12.8C344.7,197.9,334.7,206.9,341.3,210.8z"/>
		<path class="st9" d="M367.9,185.1c0,0-9.9,8.9-3.3,12.8C371.1,201.8,368.9,187.8,367.9,185.1z"/>
		<path class="st9" d="M384.4,195.3c0,0-3.6,12.9,4,12.6C396,207.7,386.6,197.1,384.4,195.3z"/>
		<path class="st9" d="M269.1,172.1c-2.3,1.6-12.2,11.8-4.6,12.4C272.1,185.1,269.1,172.1,269.1,172.1z"/>
		<polygon class="st9" points="361.2,79.9 360.9,80.3 406.7,92.7 406.8,92.2 		"/>
		<polygon class="st9" points="448.3,104.1 480.4,112.8 480.9,112.2 448.5,103.5 		"/>
		<polygon class="st9" points="406.8,92.2 406.7,92.7 448.3,104.1 448.5,103.5 		"/>
		<polygon class="st9" points="361.2,79.9 316.7,67.8 316.6,68.2 360.9,80.3 		"/>
		<path class="st9" d="M469.4,162.8c0,0-1.1,13.3,6.3,11.6C483.2,172.7,471.9,164.1,469.4,162.8z"/>
		<path class="st9" d="M440.7,159.7c0,0-1.1,13.3,6.3,11.6S443.2,161,440.7,159.7z"/>
		<path class="st9" d="M430.4,180.7c0,0-1.1,13.3,6.3,11.6C444.2,190.6,432.9,181.9,430.4,180.7z"/>
		<path class="st9" d="M490.8,146.6c-2.1-2.1-4.7-3.9-5.8-4.5c0,0,0,0.1,0,0.2c-0.1,0-0.1-0.1-0.2-0.1c0,0-0.2,4,0.8,7.3
			c0.8,2.7,2.4,5,5.7,4.2c1-0.2,1.7-0.6,2-1C494.9,151.3,493.2,148.8,490.8,146.6z"/>
		<path class="st9" d="M404.1,183.9c0,0-3.6,12.9,4,12.6C415.7,196.3,406.3,185.7,404.1,183.9z"/>
		<path class="st7" d="M353.2,89.2l-0.4,0.4l-49.4,151.6c16.7,3,34.2,4.1,51.9,3.2L399,101.7L353.2,89.2z M333.7,219.7
			c-6.6-3.9,3.3-12.8,3.3-12.8C338,209.5,340.3,223.6,333.7,219.7z M356.9,206.9c-6.6-3.9,3.3-12.8,3.3-12.8
			C361.2,196.7,363.5,210.8,356.9,206.9z"/>
		<g>
			<path d="M497.3,125.4c-2.1-1.9-4.6-3.6-5.8-4.2c-0.1,0.9-0.2,4.3,0.6,7.2c0.9,2.7,2.5,5,5.9,4.1c0.9-0.2,1.5-0.6,1.9-0.9
				C501.2,130.1,499.5,127.6,497.3,125.4z"/>
			<path d="M475.9,141.6c0,0-1.1,13.3,6.3,11.6C489.7,151.6,478.4,142.9,475.9,141.6z"/>
			<path class="st8" d="M533.6,104.8c-0.2-0.1-12.9-10-38-21.7l-8.5,9.2L533.6,104.8z"/>
			<path class="st7" d="M533.6,104.9l0.1-0.5l-46.8-12.7l-0.3,0.4l-31.3,102.2c6.8-3.1,13.3-6.5,19.5-10.3
				C496.8,170.4,524.9,138.2,533.6,104.9z M482.3,153.2c-7.4,1.7-6.3-11.6-6.3-11.6C478.4,142.9,489.7,151.6,482.3,153.2z
				 M499.9,131.6c-0.4,0.4-1,0.8-2,1c-3.3,0.8-5-1.5-5.7-4.2c-1-3.3-0.8-7.3-0.8-7.3c0.1,0,0.1,0.1,0.2,0.1c0-0.2,0-0.2,0-0.2
				c1.1,0.5,3.7,2.4,5.8,4.5C499.7,127.6,501.4,130.1,499.9,131.6z"/>
		</g>
		<g>
			<g>
				<path d="M438.2,167.6c0,0-1.1,13.3,6.3,11.6C452,177.6,440.7,168.9,438.2,167.6z"/>
				<path d="M428,188.5c0,0-1.1,13.3,6.3,11.6C441.8,198.5,430.5,189.8,428,188.5z"/>
				<path class="st7" d="M478,120.7l-32.1-8.7l-38.2,124.5c13.5-3.3,26.5-7.7,38.6-13.3L477.7,121L478,120.7z M434.4,200.2
					c-7.4,1.7-6.3-11.6-6.3-11.6C430.5,189.8,441.8,198.5,434.4,200.2z M444.6,179.2c-7.4,1.7-6.3-11.6-6.3-11.6
					C440.7,168.9,452,177.6,444.6,179.2z"/>
			</g>
			<path class="st8" d="M445.7,112.5l32.5,8.8l3-11.5c-7.8-3.6-11.2-5.2-21.4-8.9L445.7,112.5L445.7,112.5z"/>
		</g>
		<g>
			<path d="M284.9,191.8c7.6,0.6,4.6-12.4,4.6-12.4C287.2,181,277.3,191.2,284.9,191.8z"/>
			<path d="M316.2,191.3c7.6,0.6,4.6-12.4,4.6-12.4C318.5,180.5,308.6,190.7,316.2,191.3z"/>
			<g>
				<path class="st7" d="M365,66.7l-44.3-12.1l-46.5,151.5c4.6,2.1,9.3,3.9,14.2,5.6c8.6,2.9,17.5,5.2,26.8,6.9l49.4-151.6L365,66.7
					z M284.9,191.8c-7.6-0.6,2.3-10.8,4.6-12.4C289.5,179.4,292.5,192.4,284.9,191.8z M316.2,191.3c-7.6-0.6,2.3-10.8,4.6-12.4
					C320.8,178.9,323.8,191.9,316.2,191.3z"/>
				<path class="st8" d="M380.1,53c-12.1-3.6-26.7-7.8-42.5-12.1l-17.1,14.5l0,0l44.6,12L380.1,53z"/>
			</g>
		</g>
		<g>
			<path d="M244.5,195.1c7.6,0.6,4.6-12.4,4.6-12.4C246.8,184.3,236.9,194.5,244.5,195.1z"/>
			<path class="st7" d="M265.9,70.5l-0.5,0.3L221.2,214c9.1,6.4,18.8,11.8,28.9,16.3l46.5-151.5L265.9,70.5z M244.5,195.1
				c-7.6-0.6,2.3-10.8,4.6-12.4C249.1,182.7,252.1,195.7,244.5,195.1z"/>
			<path class="st8" d="M313.8,63.9c-8.7-2.4-17.9-4.8-27.2-7.1l-20.4,13.4l30.4,8.2l0,0L313.8,63.9z"/>
		</g>
		<path class="st8" d="M399,101.7l0.4-1.2l13-13.2c-3-0.8-5.9-1.6-8.9-2.3c-1.8-0.5-6.7-2-14.2-4.3c-5.6-1.7-9.1-2.1-17.2-4.6
			l-15,14.2L399,101.7z"/>
		<g>
			<path d="M408.5,169.8c0,0-3.6,12.9,4,12.6C420.1,182.1,410.7,171.5,408.5,169.8z"/>
			<path d="M388.7,181.2c0,0-3.6,12.9,4,12.6C400.4,193.5,390.9,182.9,388.7,181.2z"/>
			<path class="st7" d="M411,78.5l-43.8,142.7c15.9-0.8,31.8-3.1,47.2-6.8l38.2-124.5L411,78.5z M392.7,193.8
				c-7.6,0.2-4-12.6-4-12.6C390.9,182.9,400.4,193.5,392.7,193.8z M412.5,182.4c-7.6,0.2-4-12.6-4-12.6
				C410.7,171.5,420.1,182.1,412.5,182.4z"/>
			<path class="st8" d="M410.8,79.2l41.6,11.3l0,0l14-11.7c-3.2-1.2-6.5-2.4-10-3.6c-10.5-3.6-21.4-6.9-32.5-9.9l-13,13.2
				L410.8,79.2z"/>
		</g>
		<polygon class="st5" points="313,66.5 270.7,204.7 250.1,230.4 296.7,78.4 		"/>
		<polygon class="st5" points="380.1,53 378.8,77.9 372.1,75.9 357.1,90.3 364.7,66.7 		"/>
		<polygon class="st5" points="355.3,244.4 367.3,221.2 406.7,92.7 399.2,101.2 		"/>
		<polygon class="st5" points="466.5,78.8 460.1,99.7 447.5,111.7 452.8,89.3 		"/>
		<polygon class="st5" points="446.4,223.2 458.4,192.7 455.3,194.2 		"/>
	</g>
</g>
</svg>
