<svg version="1.1" id="el_3aEzRndlZ" xmlns="http://www.w3.org/2000/svg" xmlns:xlink="http://www.w3.org/1999/xlink" x="0px" y="0px" viewBox="0 0 576 576" style="enable-background:new 0 0 576 576;" xml:space="preserve"><style>@-webkit-keyframes kf_el_yP0RkJM_Xk_an_ncYOLWilo{0%{-webkit-transform: translate(182.10000610351562px, 15.953889846801758px) translate(-182.10000610351562px, -15.953889846801758px) translate(0px, 0px);transform: translate(182.10000610351562px, 15.953889846801758px) translate(-182.10000610351562px, -15.953889846801758px) translate(0px, 0px);}50%{-webkit-transform: translate(182.10000610351562px, 15.953889846801758px) translate(-182.10000610351562px, -15.953889846801758px) translate(100px, 30px);transform: translate(182.10000610351562px, 15.953889846801758px) translate(-182.10000610351562px, -15.953889846801758px) translate(100px, 30px);}72.22%{-webkit-transform: translate(182.10000610351562px, 15.953889846801758px) translate(-182.10000610351562px, -15.953889846801758px) translate(200px, 30px);transform: translate(182.10000610351562px, 15.953889846801758px) translate(-182.10000610351562px, -15.953889846801758px) translate(200px, 30px);}100%{-webkit-transform: translate(182.10000610351562px, 15.953889846801758px) translate(-182.10000610351562px, -15.953889846801758px) translate(200px, 30px);transform: translate(182.10000610351562px, 15.953889846801758px) translate(-182.10000610351562px, -15.953889846801758px) translate(200px, 30px);}}@keyframes kf_el_yP0RkJM_Xk_an_ncYOLWilo{0%{-webkit-transform: translate(182.10000610351562px, 15.953889846801758px) translate(-182.10000610351562px, -15.953889846801758px) translate(0px, 0px);transform: translate(182.10000610351562px, 15.953889846801758px) translate(-182.10000610351562px, -15.953889846801758px) translate(0px, 0px);}50%{-webkit-transform: translate(182.10000610351562px, 15.953889846801758px) translate(-182.10000610351562px, -15.953889846801758px) translate(100px, 30px);transform: translate(182.10000610351562px, 15.953889846801758px) translate(-182.10000610351562px, -15.953889846801758px) translate(100px, 30px);}72.22%{-webkit-transform: translate(182.10000610351562px, 15.953889846801758px) translate(-182.10000610351562px, -15.953889846801758px) translate(200px, 30px);transform: translate(182.10000610351562px, 15.953889846801758px) translate(-182.10000610351562px, -15.953889846801758px) translate(200px, 30px);}100%{-webkit-transform: translate(182.10000610351562px, 15.953889846801758px) translate(-182.10000610351562px, -15.953889846801758px) translate(200px, 30px);transform: translate(182.10000610351562px, 15.953889846801758px) translate(-182.10000610351562px, -15.953889846801758px) translate(200px, 30px);}}@-webkit-keyframes kf_el_5YIE88gjU3Z_an_dtBUXQ14M{0%{-webkit-transform: translate(161.60000610351562px, 495.1000061035156px) rotate(0deg) translate(-161.60000610351562px, -495.1000061035156px);transform: translate(161.60000610351562px, 495.1000061035156px) rotate(0deg) translate(-161.60000610351562px, -495.1000061035156px);}27.78%{-webkit-transform: translate(161.60000610351562px, 495.1000061035156px) rotate(-15deg) translate(-161.60000610351562px, -495.1000061035156px);transform: translate(161.60000610351562px, 495.1000061035156px) rotate(-15deg) translate(-161.60000610351562px, -495.1000061035156px);}100%{-webkit-transform: translate(161.60000610351562px, 495.1000061035156px) rotate(-15deg) translate(-161.60000610351562px, -495.1000061035156px);transform: translate(161.60000610351562px, 495.1000061035156px) rotate(-15deg) translate(-161.60000610351562px, -495.1000061035156px);}}@keyframes kf_el_5YIE88gjU3Z_an_dtBUXQ14M{0%{-webkit-transform: translate(161.60000610351562px, 495.1000061035156px) rotate(0deg) translate(-161.60000610351562px, -495.1000061035156px);transform: translate(161.60000610351562px, 495.1000061035156px) rotate(0deg) translate(-161.60000610351562px, -495.1000061035156px);}27.78%{-webkit-transform: translate(161.60000610351562px, 495.1000061035156px) rotate(-15deg) translate(-161.60000610351562px, -495.1000061035156px);transform: translate(161.60000610351562px, 495.1000061035156px) rotate(-15deg) translate(-161.60000610351562px, -495.1000061035156px);}100%{-webkit-transform: translate(161.60000610351562px, 495.1000061035156px) rotate(-15deg) translate(-161.60000610351562px, -495.1000061035156px);transform: translate(161.60000610351562px, 495.1000061035156px) rotate(-15deg) translate(-161.60000610351562px, -495.1000061035156px);}}@-webkit-keyframes kf_el_5YIE88gjU3Z_an__BjQrzvZZ{0%{-webkit-transform: translate(161.60000610351562px, 495.1000061035156px) translate(-161.60000610351562px, -495.1000061035156px) translate(0px, 0px);transform: translate(161.60000610351562px, 495.1000061035156px) translate(-161.60000610351562px, -495.1000061035156px) translate(0px, 0px);}27.78%{-webkit-transform: translate(161.60000610351562px, 495.1000061035156px) translate(-161.60000610351562px, -495.1000061035156px) translate(50px, 10px);transform: translate(161.60000610351562px, 495.1000061035156px) translate(-161.60000610351562px, -495.1000061035156px) translate(50px, 10px);}100%{-webkit-transform: translate(161.60000610351562px, 495.1000061035156px) translate(-161.60000610351562px, -495.1000061035156px) translate(50px, 10px);transform: translate(161.60000610351562px, 495.1000061035156px) translate(-161.60000610351562px, -495.1000061035156px) translate(50px, 10px);}}@keyframes kf_el_5YIE88gjU3Z_an__BjQrzvZZ{0%{-webkit-transform: translate(161.60000610351562px, 495.1000061035156px) translate(-161.60000610351562px, -495.1000061035156px) translate(0px, 0px);transform: translate(161.60000610351562px, 495.1000061035156px) translate(-161.60000610351562px, -495.1000061035156px) translate(0px, 0px);}27.78%{-webkit-transform: translate(161.60000610351562px, 495.1000061035156px) translate(-161.60000610351562px, -495.1000061035156px) translate(50px, 10px);transform: translate(161.60000610351562px, 495.1000061035156px) translate(-161.60000610351562px, -495.1000061035156px) translate(50px, 10px);}100%{-webkit-transform: translate(161.60000610351562px, 495.1000061035156px) translate(-161.60000610351562px, -495.1000061035156px) translate(50px, 10px);transform: translate(161.60000610351562px, 495.1000061035156px) translate(-161.60000610351562px, -495.1000061035156px) translate(50px, 10px);}}#el_3aEzRndlZ *{-webkit-animation-duration: 3s;animation-duration: 3s;-webkit-animation-iteration-count: infinite;animation-iteration-count: infinite;-webkit-animation-timing-function: cubic-bezier(0, 0, 1, 1);animation-timing-function: cubic-bezier(0, 0, 1, 1);}#el_hqUfQbhXab{fill: #DBF4D7;}#el_6CWY2T61RQ{fill: #215A2D;}#el_pggBvdkN3e{fill: #DBF4D7;}#el_37GXEJ98cw{fill: #DBF4D7;}#el_KyVH1HjSgM{fill: #DBF4D7;}#el_tg85sxozeu{fill: #DBF4D7;}#el_dz3nrlQ-qi{fill: #DBF4D7;}#el_Tsx_GGYGMN{fill: #374757;}#el_gMIetnWWRO{fill: #E2D2DD;}#el_25aDiP7800{fill: #C1B4BE;}#el_8hP18zcSgA{fill: #E02214;}#el_p1M59vf_kw{fill: #DB1C03;}#el_PN6aIZ3-P1Q{fill: #E56C5C;}#el_Zyk1_8sE6rw{fill: #E05B41;}#el_5YIE88gjU3Z_an__BjQrzvZZ{-webkit-animation-fill-mode: backwards;animation-fill-mode: backwards;-webkit-transform: translate(161.60000610351562px, 495.1000061035156px) translate(-161.60000610351562px, -495.1000061035156px) translate(0px, 0px);transform: translate(161.60000610351562px, 495.1000061035156px) translate(-161.60000610351562px, -495.1000061035156px) translate(0px, 0px);-webkit-animation-name: kf_el_5YIE88gjU3Z_an__BjQrzvZZ;animation-name: kf_el_5YIE88gjU3Z_an__BjQrzvZZ;-webkit-animation-timing-function: cubic-bezier(0, 0, 1, 1);animation-timing-function: cubic-bezier(0, 0, 1, 1);}#el_5YIE88gjU3Z_an_dtBUXQ14M{-webkit-animation-fill-mode: backwards;animation-fill-mode: backwards;-webkit-transform: translate(161.60000610351562px, 495.1000061035156px) rotate(0deg) translate(-161.60000610351562px, -495.1000061035156px);transform: translate(161.60000610351562px, 495.1000061035156px) rotate(0deg) translate(-161.60000610351562px, -495.1000061035156px);-webkit-animation-name: kf_el_5YIE88gjU3Z_an_dtBUXQ14M;animation-name: kf_el_5YIE88gjU3Z_an_dtBUXQ14M;-webkit-animation-timing-function: cubic-bezier(0, 0, 1, 1);animation-timing-function: cubic-bezier(0, 0, 1, 1);}#el_yP0RkJM_Xk_an_ncYOLWilo{-webkit-animation-fill-mode: backwards;animation-fill-mode: backwards;-webkit-transform: translate(182.10000610351562px, 15.953889846801758px) translate(-182.10000610351562px, -15.953889846801758px) translate(0px, 0px);transform: translate(182.10000610351562px, 15.953889846801758px) translate(-182.10000610351562px, -15.953889846801758px) translate(0px, 0px);-webkit-animation-name: kf_el_yP0RkJM_Xk_an_ncYOLWilo;animation-name: kf_el_yP0RkJM_Xk_an_ncYOLWilo;-webkit-animation-timing-function: cubic-bezier(0, 0, 1, 1);animation-timing-function: cubic-bezier(0, 0, 1, 1);}</style>

<path d="M273.9,466.6c-114.9,0-208.3-81.8-208.3-182.4v-1.4l442.3-28.8l0.5,2.4c7.3,39.8-4.9,80.1-35.4,116.8&#10;&#9;C427.2,428.2,345.3,466.6,273.9,466.6z" id="el_hqUfQbhXab"/>
<path d="M273.9,469.5c-114.9,0-208.3-83-208.3-184.9v-1.4l442.3-29.2l0.5,2.5c7.3,40.3-4.9,81.2-35.4,118.4&#10;&#9;C427.2,430.5,345.3,469.5,273.9,469.5z" id="el_6CWY2T61RQ"/>
<path d="M506.7,255.5c0.1,0.4,0.2,0.8,0.2,1.2c20.6,111.6-119.2,208.4-233,208.4c-114.2,0-206.9-81-206.9-181l2-0.1&#10;&#9;l3.6-0.2l432.5-28.2L506.7,255.5z" id="el_pggBvdkN3e"/>
<path d="M66.2,282.9c42.4-28.8,204.5-34.7,257.8-36.6c7.7-0.3,12.9-0.5,14.8-0.6c15.7-1.3,32-1.9,48.7-1.9&#10;&#9;c66.2,0,117.4,10.3,118,10.4l-0.2,2.9L67,285.9L66.2,282.9z" id="el_37GXEJ98cw"/>
<path d="M338.9,247.2c-15.1,1.2-223.5,4.2-271.9,37l438.1-28.5C505.1,255.6,427.9,239.9,338.9,247.2z" id="el_KyVH1HjSgM"/>
<path d="M66.2,282.9c42.4-28.8,204.5-34.7,257.8-36.6c7.7-0.3,12.9-0.5,14.8-0.6c15.7-1.3,32-1.9,48.7-1.9&#10;&#9;c66.2,0,117.4,10.3,118,10.4l-0.2,2.9l-439,26.3L66.2,282.9z" id="el_tg85sxozeu"/>
<path d="M338.9,247.2c-15.1,1.2-223.5,4.2-271.9,37l438.1-28.5C505.1,255.6,427.9,239.9,338.9,247.2z" id="el_dz3nrlQ-qi"/>
<g id="el_yP0RkJM_Xk_an_ncYOLWilo" data-animator-group="true" data-animator-type="0"><g id="el_yP0RkJM_Xk">
	<path d="M199.9,249.8l38.9-219.4c0,0,26.2-32.1,44.7-0.6c18.4,31.6-6.3,35.7-6.3,35.7S264.3,82.2,264,99.9&#10;&#9;&#9;s-2.4,45.5-5.6,55.6s-20.2,54.1-20.9,61.9C236.8,225.2,199.9,249.8,199.9,249.8z" id="el_Tsx_GGYGMN"/>
	<path d="M238.1,329.7L269,187.1c0,0-18.7-15.2-33.7-25.2c-9.3-6.2-17.2-10.4-18.4-7.6c-2.9,7.2-36.2,171.5-32.1,180.7&#10;&#9;&#9;L238.1,329.7z" id="el_gMIetnWWRO"/>
	<path d="M217,154.3l4.8-0.1l-32,180.4l-7.7,0C182.1,334.5,207,169.1,217,154.3z" id="el_25aDiP7800"/>
</g></g>
<g id="el_Ky5gB06HpY">
	<path d="M270.5,452.1c-48.7,0-96.1-18.3-133.5-51.6c-35.7-31.8-58.4-74.4-62.5-117.1l-0.1-1.5l423.5-18.6l0,0&#10;&#9;&#9;c2.9,39.1-18,76.8-36.8,99.3C417.3,415.3,338.9,452.1,270.5,452.1z" id="el_8hP18zcSgA"/>
	<path d="M74.5,282.7c42.6-28.9,207.3-32,260.8-33.4c8.9-0.2,14.8-0.4,16.9-0.6c16.6-1.4,31.9,0,47.9,0&#10;&#9;&#9;c59.7,0,97.6,14.5,98,14.6l0.1,1.5l-419.6,17L74.5,282.7z" id="el_p1M59vf_kw"/>
</g>
<g id="el_jr_pZjXxws">
	<g id="el_0QKpaZGCrir">
		<path d="M270.9,451.4c-48-1.4-94.1-20.8-129.9-54.6c-34.2-32.3-55.4-75-58.1-117.1l-0.1-1.5l415.2-14.8l0.1,1.5&#10;&#9;&#9;&#9;c1.7,38.5-17.7,82.4-36.9,104.1C416.5,419.4,338.2,453.4,270.9,451.4z" id="el_PN6aIZ3-P1Q"/>
		<path d="M82.8,279c42.7-27.2,205.2-29.5,257.9-29.3c8.8,0,14.6,0,16.6-0.1c16.4-0.9,32.7-1.1,48.3-0.6&#10;&#9;&#9;&#9;c58.7,1.7,91.9,14.2,92.3,14.4l0.1,0.9l-411.4,14L82.8,279z" id="el_Zyk1_8sE6rw"/>
	</g>
	<g id="el__bS8X4zTHQH">
		<path d="M126.9,313.8c-3.1,0.4-18.3,5.3-11.1,9.9C123,328.2,126.9,313.8,126.9,313.8z" id="el_jdNks0F1PRp"/>
		<path d="M126.7,313.5c-3.1,0.5-18.1,5.9-10.7,10.2C123.3,328.1,126.7,313.5,126.7,313.5z" id="el_rR1y5wsrPIL"/>
		<path d="M136.3,340.9c-3.1,0.5-18.1,5.9-10.7,10.2S136.3,340.9,136.3,340.9z" id="el_bX0ESuFbaMy"/>
		<path d="M168,347.5c-3.1,0.5-18.1,5.9-10.7,10.2C164.7,362.1,168,347.5,168,347.5z" id="el_xL1NzxlSkRO"/>
		<path d="M171.8,373.3c-3.1,0.5-18.1,5.9-10.7,10.2C168.4,387.9,171.8,373.3,171.8,373.3z" id="el_2Hs1Kjxy6Ii"/>
		<path d="M198.8,385.8c-3,1.1-16.7,9.2-8.6,12.1C198.2,400.8,198.8,385.8,198.8,385.8z" id="el_O7XrWMatpcm"/>
		<path d="M215.9,404.7c-3,1.1-16.7,9.2-8.6,12.1C215.4,419.7,215.9,404.7,215.9,404.7z" id="el_seI5g39WmCG"/>
		<path d="M237,399.4c-1.9,2.5-9.2,16.7-0.8,14.8C244.5,412.4,237,399.4,237,399.4z" id="el_qyjyM7dQwjE"/>
		<path d="M261.3,416.4c-1.9,2.5-9.2,16.7-0.8,14.8C268.8,429.4,261.3,416.4,261.3,416.4z" id="el_VSnJS1TbGEC"/>
		<path d="M458.1,296.2c3.1,0.4,18.2,5.5,11,10C461.9,310.7,458.1,296.2,458.1,296.2z" id="el_Pe5Er0v5gsY"/>
		<path d="M458.3,295.9c3.1,0.5,18,6.1,10.6,10.4C461.5,310.6,458.3,295.9,458.3,295.9z" id="el_4Ff7iwIcaXk"/>
		<path d="M448.4,323.2c3.1,0.5,18,6.1,10.6,10.4C451.7,337.8,448.4,323.2,448.4,323.2z" id="el_JY7toBHw_MU"/>
		<path d="M416.6,329.4c3.1,0.5,18,6.1,10.6,10.4S416.6,329.4,416.6,329.4z" id="el_93p09BkYw5d"/>
		<path d="M412.6,355.2c3.1,0.5,18,6.1,10.6,10.4C415.8,369.8,412.6,355.2,412.6,355.2z" id="el_zr1euOjUkOk"/>
		<path d="M385.5,367.5c2.9,1.1,16.6,9.4,8.5,12.2C385.9,382.4,385.5,367.5,385.5,367.5z" id="el_FMVHv9Knxho"/>
		<path d="M368.2,386.2c2.9,1.1,16.6,9.4,8.5,12.2C368.5,401.2,368.2,386.2,368.2,386.2z" id="el_ydiR9Ir9w5T"/>
		<path d="M347.1,380.7c1.9,2.5,9,16.8,0.7,14.8C339.5,393.6,347.1,380.7,347.1,380.7z" id="el_sWJMl_rSpMO"/>
		<path d="M326.5,402.1c1.9,2.5,9,16.8,0.7,14.8C318.8,415,326.5,402.1,326.5,402.1z" id="el_uU--3JHoIK4"/>
		<path d="M294.7,405.5c-1.9,2.5-9.2,16.7-0.8,14.8C302.2,418.5,294.7,405.5,294.7,405.5z" id="el_jFxC0pkiP4f"/>
	</g>
</g>
<g id="el_5YIE88gjU3Z_an__BjQrzvZZ" data-animator-group="true" data-animator-type="0"><g id="el_5YIE88gjU3Z_an_dtBUXQ14M" data-animator-group="true" data-animator-type="1"><path d="M375.7,495.1l-85.6,1.3l20.5,29.3c-7.6,5.4-27.7,13.2-76.5,3.8c0,0-55.2-23-63.4-31.3l-9.1,15.8c0,0,48.2,33.2,86.8,37.7&#10;&#9;c0,0,38.4,10.2,71.3-12.8l19,27.1L375.7,495.1z" id="el_5YIE88gjU3Z"/></g></g>
</svg>