<?xml version="1.0" encoding="utf-8"?>
<!-- Generator: Adobe Illustrator 23.0.3, SVG Export Plug-In . SVG Version: 6.00 Build 0)  -->
<svg version="1.1" id="Layer_1" xmlns="http://www.w3.org/2000/svg" xmlns:xlink="http://www.w3.org/1999/xlink" x="0px" y="0px"
	 viewBox="0 0 139.6 80.8" style="enable-background:new 0 0 139.6 80.8;" xml:space="preserve">
<style type="text/css">
	.st0{fill:#EFEFEF;}
	.st1{fill:#F4F4F4;}
	.st2{fill:#EAEAEA;}
	.st3{fill:#DBF4D7;}
	.st4{fill:#215A2D;}
	.st5{fill:#E02214;}
	.st6{fill:#DB1C03;}
	.st7{fill:#E56C5C;}
	.st8{fill:#E05B41;}
	.st9{fill:none;}
</style>
<g id="Plate">
	<ellipse class="st0" cx="-355.3" cy="187.3" rx="274" ry="90.2"/>
	<ellipse class="st1" cx="-355.3" cy="181.7" rx="274" ry="90.2"/>
	<ellipse class="st2" cx="-355.3" cy="172.7" rx="192.5" ry="63.3"/>
</g>
<path class="st3" d="M-421.1,195.2c-85.9-26.3-137.1-109-114-184.2l0.3-1l337.5,79.9l-0.2,1.9c-3.6,31.4-22,58.8-53.3,79.3
	C-297.7,201.6-367.7,211.5-421.1,195.2z"/>
<path class="st4" d="M-421.8,197.3C-507.7,171-558.6,87.5-535.2,11.2l0.3-1l337.6,79.6l-0.2,1.9c-3.7,31.8-22.3,59.6-53.7,80.4
	C-298.2,203.4-368.4,213.7-421.8,197.3z"/>
<path class="st3" d="M-198.6,90.7c0,0.3-0.1,0.6-0.1,1c-10.2,88.2-137,128.5-222.1,102.4C-506.3,167.9-557,86-534,11.2l1.5,0.4
	l2.8,0.7l329.9,78.1L-198.6,90.7z"/>
<path class="st3" d="M-534.4,10.2c38.3-11.8,160.9,21,201.2,31.8c5.9,1.6,9.7,2.6,11.2,2.9c12,2.6,24.4,5.9,36.9,9.7
	c49.5,15.2,85.5,34.6,85.9,34.8l-0.8,2.1l-334.4-78.9L-534.4,10.2z"/>
<path class="st3" d="M-322.2,45.9C-333.8,43.4-490.4-2.2-534,11.2l334.2,79.1C-199.8,90.4-253.9,60.9-322.2,45.9z"/>
<path class="st3" d="M-534.4,10.2c38.3-11.8,160.9,21,201.2,31.8c5.9,1.6,9.7,2.6,11.2,2.9c12,2.6,24.4,5.9,36.9,9.7
	c49.5,15.2,85.5,34.6,85.9,34.8l-0.8,2.1l-334.4-81L-534.4,10.2z"/>
<path class="st3" d="M-322.2,45.9C-333.8,43.4-490.4-2.2-534,11.2l334.2,79.1C-199.8,90.4-253.9,60.9-322.2,45.9z"/>
<g>
	<path class="st5" d="M-420.4,183.6c-36.4-11.2-67.7-35.7-88-69.2c-19.4-31.9-26.6-69.1-19.9-101.9l0.2-1.2l321.1,83.2l0,0
		c-6.8,29.9-31.1,53.3-50.3,65.9C-302.1,189.7-369.2,199.3-420.4,183.6z"/>
	<path class="st6" d="M-528.2,11.9c38.5-11.8,162.4,23.6,202.7,34.8c6.7,1.9,11.1,3.1,12.8,3.5c12.7,2.8,23.9,7.3,35.8,11
		c44.6,13.7,69.7,33.2,69.9,33.4l-0.3,1.1L-525,12.1L-528.2,11.9z"/>
</g>
<path class="st7" d="M-520.9,10.4l-0.1,0.6c0.4-0.1,0.8-0.2,1.2-0.3L-520.9,10.4z"/>
<polygon class="st8" points="-521.1,11 -521.1,11 -521.1,11 "/>
<path class="st8" d="M-475.3,22.8l0.3-0.1l-44.8-12c-0.4,0.1-0.8,0.2-1.2,0.3l0,0l3.1,0.3L-475.3,22.8z"/>
<polygon class="st8" points="-445.1,30.7 -445.4,30.9 -418.8,38.1 -418.5,37.9 "/>
<polygon class="st8" points="-475,22.7 -475.3,22.8 -445.4,30.9 -445.1,30.7 "/>
<path d="M-496.1,47.1c-0.1,0-0.1,0-0.2,0c-0.4,0.7-2,3.2-4,4.8C-497.9,50.1-496.1,47.1-496.1,47.1z"/>
<path d="M-502.6,47.3c-2.8,0.4-5.3,1.3-4.9,3.1C-507.7,48.7-505.3,47.7-502.6,47.3z"/>
<path d="M-496.2,46.9c-1-0.1-3.8-0.1-6.4,0.3c2.5-0.3,5.1-0.3,6.3-0.1C-496.2,47-496.2,46.9-496.2,46.9z"/>
<path d="M-506.6,52c-0.5-0.6-0.8-1.1-0.9-1.6c0.1,0.5,0.4,1.1,1,1.8c2,2.2,4.3,1.4,6.2-0.2C-502.3,53.5-504.7,54.3-506.6,52z"/>
<path class="st7" d="M-470,16.1l-42.7-11.5l-3.1-0.3l-0.1,0.5c-7.6,32.1-1.5,68.9,16.6,100.9c0,0,0,0,0,0.1L-470,16.1L-470,16.1z
	 M-501.3,45.4c-0.6-0.7-0.9-1.2-1-1.8c-0.3-1.8,2.2-2.7,4.9-3.1c2.6-0.4,5.4-0.5,6.4-0.3c0,0,0,0.1-0.1,0.2c0.1,0,0.1,0,0.2,0
	c0,0-1.9,3-4.2,4.8C-496.9,46.8-499.2,47.7-501.3,45.4z M-500.3,68.1c-4.5-4.9,7.9-5.5,10.4-5.2C-490,62.9-495.8,73.1-500.3,68.1z"
	/>
<path class="st8" d="M-452.1,7.9c-26.3-4.6-49.7-6.7-63.5-3.4l44.8,12L-452.1,7.9z"/>
<path d="M-501.3,45.3c2,2.3,4.3,1.5,6.3,0c2-1.7,3.6-4.2,4-4.8c-1.2-0.2-3.8-0.2-6.3,0.1c-2.7,0.5-5.1,1.4-4.9,3.1
	C-502.1,44.1-501.9,44.7-501.3,45.3z"/>
<path d="M-500.3,68.1c4.5,4.9,10.4-5.2,10.4-5.2C-492.4,62.6-504.9,63.2-500.3,68.1z"/>
<g>
	<path class="st7" d="M-456.3,40.5l-30-7.4l0,0l-27.3,90.3c6.9,11.5,15,21.9,24.3,31.1L-457.3,41L-456.3,40.5z M-482.8,92
		c0,0-5.6,10.3-10.3,5.4C-497.7,92.6-485.2,91.7-482.8,92z M-495.7,117.6c-4.6-4.8,7.8-5.7,10.3-5.4
		C-485.5,112.2-491.1,122.5-495.7,117.6z"/>
	<path class="st8" d="M-456,40.3l18.3-11.1c-10.2-2-20.2-3.8-29.9-5.3l-18.5,9L-456,40.3z"/>
	<path d="M-482.8,92c-2.4-0.3-14.9,0.6-10.3,5.4C-488.4,102.2-482.8,92-482.8,92z"/>
	<path d="M-495.7,117.6c4.6,4.8,10.3-5.4,10.3-5.4C-487.9,111.9-500.3,112.8-495.7,117.6z"/>
</g>
<path d="M-451.3,126.7c5.4,4,9.2-7.1,9.2-7.1C-444.6,119.7-456.7,122.7-451.3,126.7z"/>
<polygon class="st8" points="-201.7,96 -201.5,95.4 -201.7,96 "/>
<polygon class="st8" points="-413.3,38.5 -201.7,96 -201.5,95.4 -413,38.2 "/>
<path d="M-238.9,110.7c0,0-0.2,3.5,0.7,6.4c-0.7-2.5-0.6-5.5-0.5-6.3C-238.8,110.8-238.8,110.7-238.9,110.7z"/>
<path d="M-233.6,114.5c2,1.9,3.4,4.1,2.3,5.4C-230,118.6-231.5,116.4-233.6,114.5z"/>
<path d="M-233,120.7c-2.9,0.8-4.4-1.2-5.2-3.6c0.7,2.4,2.1,4.4,5,3.7c0.9-0.2,1.5-0.5,1.8-0.9C-231.7,120.2-232.2,120.5-233,120.7z"
	/>
<path d="M-238.7,110.6c0,0,0,0.1,0,0.2c1,0.5,3.3,2,5.1,3.7C-235.5,112.7-237.8,111.1-238.7,110.6z"/>
<path d="M-351,167.4c5.8,3.4,3.8-8.9,2.9-11.2C-348.1,156.1-356.8,164-351,167.4z"/>
<polygon class="st5" points="-490.8,154.3 -472.7,128.2 -444.1,34.6 -456.2,41.5 "/>
<path class="st7" d="M-196.4,253.7l-26.4-8.1l-1,0.5L-262,357.7c6.8,7.6,14.4,14.5,22.5,20.6l42.7-124.3L-196.4,253.7z
	 M-248.4,338.6c-5.2-4.2,7-6.7,9.4-6.8C-239,331.8-243.2,342.7-248.4,338.6z M-240.5,356.9c-5.2-4.2,7-6.7,9.4-6.8
	C-231.1,350.1-235.3,361.1-240.5,356.9z"/>
<path class="st8" d="M-197.4,254.2l18.2-11.2c-8.5-2.4-17.1-4.7-25.7-6.9l-18.9,10.1L-197.4,254.2z"/>
<polygon class="st5" points="-179.2,243 -185.1,260.2 -202.8,271.4 -197.4,254.2 "/>
<polygon class="st5" points="-452.1,7.9 -457.5,25.4 -464.9,23.5 -472,26.9 -470.7,16.6 "/>
<path class="st9" d="M-364.7,170.7c5.8,3.4,3.8-8.9,2.9-11.2C-361.8,159.5-370.5,167.3-364.7,170.7z"/>
<path class="st9" d="M-341.4,148.3c0,0-8.7,7.8-2.9,11.2C-338.5,162.9-340.5,150.6-341.4,148.3z"/>
<path class="st9" d="M-326.9,157.2c0,0-3.2,11.3,3.5,11.1C-316.7,168.1-325,158.8-326.9,157.2z"/>
<path class="st9" d="M-428,136.8c-2,1.4-10.7,10.4-4,10.9S-428,136.8-428,136.8z"/>
<polygon class="st9" points="-347.2,56 -347.6,56.3 -307.4,67.3 -307.2,66.8 "/>
<polygon class="st9" points="-270.9,77.2 -242.7,84.9 -242.3,84.4 -270.7,76.7 "/>
<polygon class="st9" points="-307.2,66.8 -307.4,67.3 -270.9,77.2 -270.7,76.7 "/>
<polygon class="st9" points="-347.2,56 -386.3,45.4 -386.4,45.8 -347.6,56.3 "/>
<path class="st9" d="M-252.4,128.7c0,0-1,11.7,5.6,10.2C-240.3,137.4-250.2,129.8-252.4,128.7z"/>
<path class="st9" d="M-277.6,126c0,0-1,11.7,5.6,10.2C-265.5,134.7-275.4,127.1-277.6,126z"/>
<path class="st9" d="M-286.6,144.4c0,0-1,11.7,5.6,10.2C-274.5,153.1-284.4,145.5-286.6,144.4z"/>
<path class="st9" d="M-233.6,114.5c-1.9-1.8-4.1-3.5-5.1-3.9c0,0,0,0.1,0,0.2c-0.1,0-0.1-0.1-0.2-0.1c0,0-0.2,3.5,0.7,6.4
	c0.7,2.4,2.1,4.4,5,3.7c0.9-0.2,1.5-0.5,1.8-0.9C-230,118.6-231.5,116.4-233.6,114.5z"/>
<path class="st9" d="M-309.6,147.2c0,0-3.2,11.3,3.5,11.1C-299.4,158.1-307.7,148.8-309.6,147.2z"/>
<path class="st7" d="M-354.3,64.2l-0.3,0.3l-43.3,132.9c14.6,2.7,30,3.6,45.5,2.8l38.4-125.1L-354.3,64.2z M-371.4,178.6
	c-5.8-3.4,2.9-11.2,2.9-11.2C-367.6,169.7-365.6,182-371.4,178.6z M-351,167.4c-5.8-3.4,2.9-11.2,2.9-11.2
	C-347.2,158.4-345.2,170.8-351,167.4z"/>
<g>
	<path d="M-227.9,96c-1.8-1.7-4-3.2-5.1-3.7c0,0.8-0.2,3.8,0.5,6.3c0.7,2.4,2.2,4.4,5.2,3.6c0.8-0.2,1.3-0.5,1.6-0.8
		C-224.5,100-226,97.9-227.9,96z"/>
	<path d="M-246.7,110.1c0,0-1,11.7,5.6,10.2C-234.6,118.8-244.5,111.3-246.7,110.1z"/>
	<path class="st8" d="M-196.2,77.8c-0.2-0.1-11.3-8.7-33.3-19.1l-7.4,8L-196.2,77.8z"/>
	<path class="st7" d="M-196.1,77.9l0.1-0.4l-41-11.2l-0.3,0.3l-27.5,89.6c5.9-2.7,11.7-5.7,17.1-9
		C-228.4,135.4-203.8,107.1-196.1,77.9z M-241.1,120.3c-6.5,1.5-5.6-10.2-5.6-10.2C-244.5,111.3-234.6,118.8-241.1,120.3z
		 M-225.6,101.3c-0.3,0.4-0.9,0.7-1.8,0.9c-2.9,0.7-4.3-1.3-5-3.7c-0.9-2.9-0.7-6.4-0.7-6.4c0.1,0,0.1,0.1,0.2,0.1
		c0-0.1,0-0.2,0-0.2c0.9,0.5,3.2,2.1,5.1,3.9C-225.9,97.9-224.3,100-225.6,101.3z"/>
</g>
<g>
	<g>
		<path d="M-279.7,132.9c0,0-1,11.7,5.6,10.2S-277.5,134-279.7,132.9z"/>
		<path d="M-288.7,151.3c0,0-1,11.7,5.6,10.2C-276.6,160-286.5,152.4-288.7,151.3z"/>
		<path class="st7" d="M-244.9,91.8l-28.2-7.7l-33.5,109.2c11.8-2.9,23.2-6.8,33.9-11.6l27.5-89.6L-244.9,91.8z M-283.1,161.5
			c-6.5,1.5-5.6-10.2-5.6-10.2C-286.5,152.4-276.6,160-283.1,161.5z M-274.2,143.1c-6.5,1.5-5.6-10.2-5.6-10.2
			C-277.5,134-267.6,141.6-274.2,143.1z"/>
	</g>
	<path class="st8" d="M-273.2,84.6l28.5,7.7l2.6-10.1c-6.8-3.2-9.8-4.5-18.8-7.8L-273.2,84.6L-273.2,84.6z"/>
</g>
<g>
	<path d="M-414.2,154.1c6.7,0.5,4-10.9,4-10.9C-412.2,144.7-420.8,153.6-414.2,154.1z"/>
	<path d="M-386.7,153.7c6.7,0.5,4-10.9,4-10.9C-384.7,144.2-393.4,153.2-386.7,153.7z"/>
	<g>
		<path class="st7" d="M-343.9,44.4l-38.8-10.6l-40.7,132.9c4.1,1.8,8.2,3.4,12.4,4.9c7.5,2.6,15.4,4.6,23.5,6l43.3-132.9
			L-343.9,44.4z M-414.2,154.1c-6.7-0.5,2-9.5,4-10.9C-410.1,143.3-407.5,154.7-414.2,154.1z M-386.7,153.7c-6.7-0.5,2-9.5,4-10.9
			C-382.6,142.8-380,154.2-386.7,153.7z"/>
		<path class="st8" d="M-330.7,32.4c-10.6-3.2-23.4-6.8-37.3-10.6l-15,12.7l0,0l39.1,10.6L-330.7,32.4z"/>
	</g>
</g>
<g>
	<path d="M-449.6,157c6.7,0.5,4-10.9,4-10.9C-447.6,147.6-456.3,156.5-449.6,157z"/>
	<path class="st7" d="M-430.8,47.8l-0.4,0.3L-470,173.6c8,5.6,16.5,10.4,25.4,14.3l40.7-132.9L-430.8,47.8z M-449.6,157
		c-6.7-0.5,2-9.5,4-10.9C-445.6,146.1-442.9,157.6-449.6,157z"/>
	<path class="st8" d="M-388.8,42c-7.7-2.1-15.7-4.2-23.8-6.2l-17.9,11.7l26.7,7.2l0,0L-388.8,42z"/>
</g>
<path class="st8" d="M-314.1,75.1l0.3-1l11.4-11.6c-2.6-0.7-5.2-1.4-7.8-2c-1.6-0.4-5.9-1.7-12.4-3.8c-4.9-1.5-8-1.9-15.1-4
	l-13.2,12.4L-314.1,75.1z"/>
<g>
	<path d="M-305.8,134.8c0,0-3.2,11.3,3.5,11.1C-295.6,145.6-303.9,136.3-305.8,134.8z"/>
	<path d="M-323.1,144.8c0,0-3.2,11.3,3.5,11.1C-312.9,155.6-321.2,146.3-323.1,144.8z"/>
	<path class="st7" d="M-303.6,54.8l-38.4,125.1c13.9-0.7,27.9-2.7,41.4-6l33.5-109.2L-303.6,54.8z M-319.6,155.9
		c-6.7,0.2-3.5-11.1-3.5-11.1C-321.2,146.3-312.9,155.6-319.6,155.9z M-302.3,145.9c-6.7,0.2-3.5-11.1-3.5-11.1
		C-303.9,136.3-295.6,145.6-302.3,145.9z"/>
	<path class="st8" d="M-303.7,55.4l36.5,9.9l0,0L-255,55c-2.8-1-5.7-2.1-8.7-3.1c-9.2-3.1-18.7-6-28.5-8.7l-11.4,11.6L-303.7,55.4z"
		/>
</g>
<polygon class="st5" points="-389.5,44.3 -426.6,165.4 -444.7,187.9 -403.8,54.7 "/>
<polygon class="st5" points="-330.7,32.4 -331.9,54.2 -337.7,52.5 -350.9,65.1 -344.2,44.4 "/>
<polygon class="st5" points="-352.4,200.2 -341.9,179.9 -307.4,67.3 -313.9,74.7 "/>
<polygon class="st5" points="-255,55 -260.6,73.4 -271.6,83.9 -266.9,64.2 "/>
<polygon class="st5" points="-272.6,181.7 -262,154.9 -264.8,156.2 "/>
<g>
	<defs>
		<polygon id="SVGID_1_" points="-51,-45.2 -382,-45.2 -382,-263.1 -294,-263.1 -51,-263.1 		"/>
	</defs>
	<clipPath id="SVGID_2_">
		<use xlink:href="#SVGID_1_"  style="overflow:visible;"/>
	</clipPath>
	<g style="clip-path:url(#SVGID_2_);">
		
			<image style="overflow:visible;" width="429" height="470" xlink:href="E0C156DE.jpg"  transform="matrix(1 0 0 1 -382.0247 -263.1159)">
		</image>
	</g>
</g>
<g>
	<path class="st5" d="M54.4,45.7c0,0,9.4,33.2,47.4,33.3L94.3,1.9L54.4,45.7z"/>
	<polygon class="st7" points="116.9,76.6 101.8,79 94.3,1.9 104.5,4 	"/>
	<path class="st5" d="M22.7,52.9c0,0,16,30.6,53.2,22.8L52.7,1.8L22.7,52.9z"/>
	<path d="M34.2,52.1c2.8,2.2,5-3.6,5-3.6C37.8,48.6,31.4,49.9,34.2,52.1z"/>
	<path d="M54.3,54.2c3.5-0.6,0.6-6.1,0.6-6.1C54.1,49.2,50.9,54.9,54.3,54.2z"/>
	<path d="M77.4,38.7c3.5-0.6,0.6-6.1,0.6-6.1C77.2,33.7,74,39.4,77.4,38.7z"/>
	<path d="M39.7,36.9c0.9,3.4,6.1,0.1,6.1,0.1C44.8,36.2,38.8,33.5,39.7,36.9z"/>
	<path d="M88.8,57.2c0.9,3.4,6.1,0.1,6.1,0.1C93.8,56.5,87.8,53.8,88.8,57.2z"/>
	<path d="M87.7,18.7c-2.6,2.4,2.8,5.4,2.8,5.4C90.7,22.9,90.3,16.3,87.7,18.7z"/>
	<polygon class="st7" points="90.2,70.3 75.9,75.7 52.7,1.8 63.2,1.8 	"/>
</g>
</svg>
