<svg version="1.1" id="el_UM8YQ1V7P" xmlns="http://www.w3.org/2000/svg" xmlns:xlink="http://www.w3.org/1999/xlink" x="0px" y="0px" viewBox="0 0 609 469" style="enable-background:new 0 0 609 469.6;" xml:space="preserve"><style>@-webkit-keyframes kf_el_hsSWA01aFpC_an_daq2eK94I{1.11%{opacity: 0;}11.11%{opacity: 1;}22.22%{opacity: 0;}32.22%{opacity: 1;}0%{opacity: 0;}100%{opacity: 1;}}@keyframes kf_el_hsSWA01aFpC_an_daq2eK94I{1.11%{opacity: 0;}11.11%{opacity: 1;}22.22%{opacity: 0;}32.22%{opacity: 1;}0%{opacity: 0;}100%{opacity: 1;}}@-webkit-keyframes kf_el_gU14LLvDWkV_an_gp9-uKZZ0{1.11%{opacity: 0;}11.11%{opacity: 1;}22.22%{opacity: 0;}32.22%{opacity: 1;}0%{opacity: 0;}100%{opacity: 1;}}@keyframes kf_el_gU14LLvDWkV_an_gp9-uKZZ0{1.11%{opacity: 0;}11.11%{opacity: 1;}22.22%{opacity: 0;}32.22%{opacity: 1;}0%{opacity: 0;}100%{opacity: 1;}}@-webkit-keyframes kf_el_gU14LLvDWkV_an_Ag3IPUU2t{1.11%{-webkit-transform: translate(336.3578796386719px, 88.70764923095703px) translate(-336.3578796386719px, -88.70764923095703px) translate(0px, 0px);transform: translate(336.3578796386719px, 88.70764923095703px) translate(-336.3578796386719px, -88.70764923095703px) translate(0px, 0px);}11.11%{-webkit-transform: translate(336.3578796386719px, 88.70764923095703px) translate(-336.3578796386719px, -88.70764923095703px) translate(0px, 20px);transform: translate(336.3578796386719px, 88.70764923095703px) translate(-336.3578796386719px, -88.70764923095703px) translate(0px, 20px);}22.22%{-webkit-transform: translate(336.3578796386719px, 88.70764923095703px) translate(-336.3578796386719px, -88.70764923095703px) translate(0px, 0px);transform: translate(336.3578796386719px, 88.70764923095703px) translate(-336.3578796386719px, -88.70764923095703px) translate(0px, 0px);}32.22%{-webkit-transform: translate(336.3578796386719px, 88.70764923095703px) translate(-336.3578796386719px, -88.70764923095703px) translate(0px, 20px);transform: translate(336.3578796386719px, 88.70764923095703px) translate(-336.3578796386719px, -88.70764923095703px) translate(0px, 20px);}0%{-webkit-transform: translate(336.3578796386719px, 88.70764923095703px) translate(-336.3578796386719px, -88.70764923095703px) translate(0px, 0px);transform: translate(336.3578796386719px, 88.70764923095703px) translate(-336.3578796386719px, -88.70764923095703px) translate(0px, 0px);}100%{-webkit-transform: translate(336.3578796386719px, 88.70764923095703px) translate(-336.3578796386719px, -88.70764923095703px) translate(0px, 20px);transform: translate(336.3578796386719px, 88.70764923095703px) translate(-336.3578796386719px, -88.70764923095703px) translate(0px, 20px);}}@keyframes kf_el_gU14LLvDWkV_an_Ag3IPUU2t{1.11%{-webkit-transform: translate(336.3578796386719px, 88.70764923095703px) translate(-336.3578796386719px, -88.70764923095703px) translate(0px, 0px);transform: translate(336.3578796386719px, 88.70764923095703px) translate(-336.3578796386719px, -88.70764923095703px) translate(0px, 0px);}11.11%{-webkit-transform: translate(336.3578796386719px, 88.70764923095703px) translate(-336.3578796386719px, -88.70764923095703px) translate(0px, 20px);transform: translate(336.3578796386719px, 88.70764923095703px) translate(-336.3578796386719px, -88.70764923095703px) translate(0px, 20px);}22.22%{-webkit-transform: translate(336.3578796386719px, 88.70764923095703px) translate(-336.3578796386719px, -88.70764923095703px) translate(0px, 0px);transform: translate(336.3578796386719px, 88.70764923095703px) translate(-336.3578796386719px, -88.70764923095703px) translate(0px, 0px);}32.22%{-webkit-transform: translate(336.3578796386719px, 88.70764923095703px) translate(-336.3578796386719px, -88.70764923095703px) translate(0px, 20px);transform: translate(336.3578796386719px, 88.70764923095703px) translate(-336.3578796386719px, -88.70764923095703px) translate(0px, 20px);}0%{-webkit-transform: translate(336.3578796386719px, 88.70764923095703px) translate(-336.3578796386719px, -88.70764923095703px) translate(0px, 0px);transform: translate(336.3578796386719px, 88.70764923095703px) translate(-336.3578796386719px, -88.70764923095703px) translate(0px, 0px);}100%{-webkit-transform: translate(336.3578796386719px, 88.70764923095703px) translate(-336.3578796386719px, -88.70764923095703px) translate(0px, 20px);transform: translate(336.3578796386719px, 88.70764923095703px) translate(-336.3578796386719px, -88.70764923095703px) translate(0px, 20px);}}@-webkit-keyframes kf_el_gU14LLvDWkV_an_bqK6_qjCs{1.11%{-webkit-transform: translate(336.3578796386719px, 88.70764923095703px) rotate(0deg) translate(-336.3578796386719px, -88.70764923095703px);transform: translate(336.3578796386719px, 88.70764923095703px) rotate(0deg) translate(-336.3578796386719px, -88.70764923095703px);}11.11%{-webkit-transform: translate(336.3578796386719px, 88.70764923095703px) rotate(-30deg) translate(-336.3578796386719px, -88.70764923095703px);transform: translate(336.3578796386719px, 88.70764923095703px) rotate(-30deg) translate(-336.3578796386719px, -88.70764923095703px);}22.22%{-webkit-transform: translate(336.3578796386719px, 88.70764923095703px) rotate(0deg) translate(-336.3578796386719px, -88.70764923095703px);transform: translate(336.3578796386719px, 88.70764923095703px) rotate(0deg) translate(-336.3578796386719px, -88.70764923095703px);}32.22%{-webkit-transform: translate(336.3578796386719px, 88.70764923095703px) rotate(-30deg) translate(-336.3578796386719px, -88.70764923095703px);transform: translate(336.3578796386719px, 88.70764923095703px) rotate(-30deg) translate(-336.3578796386719px, -88.70764923095703px);}0%{-webkit-transform: translate(336.3578796386719px, 88.70764923095703px) rotate(0deg) translate(-336.3578796386719px, -88.70764923095703px);transform: translate(336.3578796386719px, 88.70764923095703px) rotate(0deg) translate(-336.3578796386719px, -88.70764923095703px);}100%{-webkit-transform: translate(336.3578796386719px, 88.70764923095703px) rotate(-30deg) translate(-336.3578796386719px, -88.70764923095703px);transform: translate(336.3578796386719px, 88.70764923095703px) rotate(-30deg) translate(-336.3578796386719px, -88.70764923095703px);}}@keyframes kf_el_gU14LLvDWkV_an_bqK6_qjCs{1.11%{-webkit-transform: translate(336.3578796386719px, 88.70764923095703px) rotate(0deg) translate(-336.3578796386719px, -88.70764923095703px);transform: translate(336.3578796386719px, 88.70764923095703px) rotate(0deg) translate(-336.3578796386719px, -88.70764923095703px);}11.11%{-webkit-transform: translate(336.3578796386719px, 88.70764923095703px) rotate(-30deg) translate(-336.3578796386719px, -88.70764923095703px);transform: translate(336.3578796386719px, 88.70764923095703px) rotate(-30deg) translate(-336.3578796386719px, -88.70764923095703px);}22.22%{-webkit-transform: translate(336.3578796386719px, 88.70764923095703px) rotate(0deg) translate(-336.3578796386719px, -88.70764923095703px);transform: translate(336.3578796386719px, 88.70764923095703px) rotate(0deg) translate(-336.3578796386719px, -88.70764923095703px);}32.22%{-webkit-transform: translate(336.3578796386719px, 88.70764923095703px) rotate(-30deg) translate(-336.3578796386719px, -88.70764923095703px);transform: translate(336.3578796386719px, 88.70764923095703px) rotate(-30deg) translate(-336.3578796386719px, -88.70764923095703px);}0%{-webkit-transform: translate(336.3578796386719px, 88.70764923095703px) rotate(0deg) translate(-336.3578796386719px, -88.70764923095703px);transform: translate(336.3578796386719px, 88.70764923095703px) rotate(0deg) translate(-336.3578796386719px, -88.70764923095703px);}100%{-webkit-transform: translate(336.3578796386719px, 88.70764923095703px) rotate(-30deg) translate(-336.3578796386719px, -88.70764923095703px);transform: translate(336.3578796386719px, 88.70764923095703px) rotate(-30deg) translate(-336.3578796386719px, -88.70764923095703px);}}@-webkit-keyframes kf_el_hsSWA01aFpC_an_nXL8b-bOC{1.11%{-webkit-transform: translate(274.1152038574219px, 86.00764465332031px) rotate(0deg) translate(-274.1152038574219px, -86.00764465332031px);transform: translate(274.1152038574219px, 86.00764465332031px) rotate(0deg) translate(-274.1152038574219px, -86.00764465332031px);}11.11%{-webkit-transform: translate(274.1152038574219px, 86.00764465332031px) rotate(30deg) translate(-274.1152038574219px, -86.00764465332031px);transform: translate(274.1152038574219px, 86.00764465332031px) rotate(30deg) translate(-274.1152038574219px, -86.00764465332031px);}22.22%{-webkit-transform: translate(274.1152038574219px, 86.00764465332031px) rotate(0deg) translate(-274.1152038574219px, -86.00764465332031px);transform: translate(274.1152038574219px, 86.00764465332031px) rotate(0deg) translate(-274.1152038574219px, -86.00764465332031px);}32.22%{-webkit-transform: translate(274.1152038574219px, 86.00764465332031px) rotate(30deg) translate(-274.1152038574219px, -86.00764465332031px);transform: translate(274.1152038574219px, 86.00764465332031px) rotate(30deg) translate(-274.1152038574219px, -86.00764465332031px);}0%{-webkit-transform: translate(274.1152038574219px, 86.00764465332031px) rotate(0deg) translate(-274.1152038574219px, -86.00764465332031px);transform: translate(274.1152038574219px, 86.00764465332031px) rotate(0deg) translate(-274.1152038574219px, -86.00764465332031px);}100%{-webkit-transform: translate(274.1152038574219px, 86.00764465332031px) rotate(30deg) translate(-274.1152038574219px, -86.00764465332031px);transform: translate(274.1152038574219px, 86.00764465332031px) rotate(30deg) translate(-274.1152038574219px, -86.00764465332031px);}}@keyframes kf_el_hsSWA01aFpC_an_nXL8b-bOC{1.11%{-webkit-transform: translate(274.1152038574219px, 86.00764465332031px) rotate(0deg) translate(-274.1152038574219px, -86.00764465332031px);transform: translate(274.1152038574219px, 86.00764465332031px) rotate(0deg) translate(-274.1152038574219px, -86.00764465332031px);}11.11%{-webkit-transform: translate(274.1152038574219px, 86.00764465332031px) rotate(30deg) translate(-274.1152038574219px, -86.00764465332031px);transform: translate(274.1152038574219px, 86.00764465332031px) rotate(30deg) translate(-274.1152038574219px, -86.00764465332031px);}22.22%{-webkit-transform: translate(274.1152038574219px, 86.00764465332031px) rotate(0deg) translate(-274.1152038574219px, -86.00764465332031px);transform: translate(274.1152038574219px, 86.00764465332031px) rotate(0deg) translate(-274.1152038574219px, -86.00764465332031px);}32.22%{-webkit-transform: translate(274.1152038574219px, 86.00764465332031px) rotate(30deg) translate(-274.1152038574219px, -86.00764465332031px);transform: translate(274.1152038574219px, 86.00764465332031px) rotate(30deg) translate(-274.1152038574219px, -86.00764465332031px);}0%{-webkit-transform: translate(274.1152038574219px, 86.00764465332031px) rotate(0deg) translate(-274.1152038574219px, -86.00764465332031px);transform: translate(274.1152038574219px, 86.00764465332031px) rotate(0deg) translate(-274.1152038574219px, -86.00764465332031px);}100%{-webkit-transform: translate(274.1152038574219px, 86.00764465332031px) rotate(30deg) translate(-274.1152038574219px, -86.00764465332031px);transform: translate(274.1152038574219px, 86.00764465332031px) rotate(30deg) translate(-274.1152038574219px, -86.00764465332031px);}}@-webkit-keyframes kf_el_cqAKkgHXvgE_an_fZQiNHa76{33.33%{-webkit-transform: translate(232.6878662109375px, 152.29998779296875px) translate(-232.6878662109375px, -152.29998779296875px) translate(0px, 0px);transform: translate(232.6878662109375px, 152.29998779296875px) translate(-232.6878662109375px, -152.29998779296875px) translate(0px, 0px);}51.11%{-webkit-transform: translate(232.6878662109375px, 152.29998779296875px) translate(-232.6878662109375px, -152.29998779296875px) translate(0px, 30px);transform: translate(232.6878662109375px, 152.29998779296875px) translate(-232.6878662109375px, -152.29998779296875px) translate(0px, 30px);}0%{-webkit-transform: translate(232.6878662109375px, 152.29998779296875px) translate(-232.6878662109375px, -152.29998779296875px) translate(0px, 0px);transform: translate(232.6878662109375px, 152.29998779296875px) translate(-232.6878662109375px, -152.29998779296875px) translate(0px, 0px);}100%{-webkit-transform: translate(232.6878662109375px, 152.29998779296875px) translate(-232.6878662109375px, -152.29998779296875px) translate(0px, 30px);transform: translate(232.6878662109375px, 152.29998779296875px) translate(-232.6878662109375px, -152.29998779296875px) translate(0px, 30px);}}@keyframes kf_el_cqAKkgHXvgE_an_fZQiNHa76{33.33%{-webkit-transform: translate(232.6878662109375px, 152.29998779296875px) translate(-232.6878662109375px, -152.29998779296875px) translate(0px, 0px);transform: translate(232.6878662109375px, 152.29998779296875px) translate(-232.6878662109375px, -152.29998779296875px) translate(0px, 0px);}51.11%{-webkit-transform: translate(232.6878662109375px, 152.29998779296875px) translate(-232.6878662109375px, -152.29998779296875px) translate(0px, 30px);transform: translate(232.6878662109375px, 152.29998779296875px) translate(-232.6878662109375px, -152.29998779296875px) translate(0px, 30px);}0%{-webkit-transform: translate(232.6878662109375px, 152.29998779296875px) translate(-232.6878662109375px, -152.29998779296875px) translate(0px, 0px);transform: translate(232.6878662109375px, 152.29998779296875px) translate(-232.6878662109375px, -152.29998779296875px) translate(0px, 0px);}100%{-webkit-transform: translate(232.6878662109375px, 152.29998779296875px) translate(-232.6878662109375px, -152.29998779296875px) translate(0px, 30px);transform: translate(232.6878662109375px, 152.29998779296875px) translate(-232.6878662109375px, -152.29998779296875px) translate(0px, 30px);}}@-webkit-keyframes kf_el_cqAKkgHXvgE_an_VZj3nfshI{33.33%{-webkit-transform: translate(232.6878662109375px, 152.29998779296875px) scale(1, 1) translate(-232.6878662109375px, -152.29998779296875px);transform: translate(232.6878662109375px, 152.29998779296875px) scale(1, 1) translate(-232.6878662109375px, -152.29998779296875px);}51.11%{-webkit-transform: translate(232.6878662109375px, 152.29998779296875px) scale(1.2, 1.2) translate(-232.6878662109375px, -152.29998779296875px);transform: translate(232.6878662109375px, 152.29998779296875px) scale(1.2, 1.2) translate(-232.6878662109375px, -152.29998779296875px);}0%{-webkit-transform: translate(232.6878662109375px, 152.29998779296875px) scale(1, 1) translate(-232.6878662109375px, -152.29998779296875px);transform: translate(232.6878662109375px, 152.29998779296875px) scale(1, 1) translate(-232.6878662109375px, -152.29998779296875px);}100%{-webkit-transform: translate(232.6878662109375px, 152.29998779296875px) scale(1.2, 1.2) translate(-232.6878662109375px, -152.29998779296875px);transform: translate(232.6878662109375px, 152.29998779296875px) scale(1.2, 1.2) translate(-232.6878662109375px, -152.29998779296875px);}}@keyframes kf_el_cqAKkgHXvgE_an_VZj3nfshI{33.33%{-webkit-transform: translate(232.6878662109375px, 152.29998779296875px) scale(1, 1) translate(-232.6878662109375px, -152.29998779296875px);transform: translate(232.6878662109375px, 152.29998779296875px) scale(1, 1) translate(-232.6878662109375px, -152.29998779296875px);}51.11%{-webkit-transform: translate(232.6878662109375px, 152.29998779296875px) scale(1.2, 1.2) translate(-232.6878662109375px, -152.29998779296875px);transform: translate(232.6878662109375px, 152.29998779296875px) scale(1.2, 1.2) translate(-232.6878662109375px, -152.29998779296875px);}0%{-webkit-transform: translate(232.6878662109375px, 152.29998779296875px) scale(1, 1) translate(-232.6878662109375px, -152.29998779296875px);transform: translate(232.6878662109375px, 152.29998779296875px) scale(1, 1) translate(-232.6878662109375px, -152.29998779296875px);}100%{-webkit-transform: translate(232.6878662109375px, 152.29998779296875px) scale(1.2, 1.2) translate(-232.6878662109375px, -152.29998779296875px);transform: translate(232.6878662109375px, 152.29998779296875px) scale(1.2, 1.2) translate(-232.6878662109375px, -152.29998779296875px);}}@-webkit-keyframes kf_el_6ezWlOkdeSb_an_gUIjsYa4l6{33.33%{-webkit-transform: translate(110.02495574951172px, 136.93756103515625px) rotate(0deg) translate(-110.02495574951172px, -136.93756103515625px);transform: translate(110.02495574951172px, 136.93756103515625px) rotate(0deg) translate(-110.02495574951172px, -136.93756103515625px);}48.89%{-webkit-transform: translate(110.02495574951172px, 136.93756103515625px) rotate(-30deg) translate(-110.02495574951172px, -136.93756103515625px);transform: translate(110.02495574951172px, 136.93756103515625px) rotate(-30deg) translate(-110.02495574951172px, -136.93756103515625px);}0%{-webkit-transform: translate(110.02495574951172px, 136.93756103515625px) rotate(0deg) translate(-110.02495574951172px, -136.93756103515625px);transform: translate(110.02495574951172px, 136.93756103515625px) rotate(0deg) translate(-110.02495574951172px, -136.93756103515625px);}100%{-webkit-transform: translate(110.02495574951172px, 136.93756103515625px) rotate(-30deg) translate(-110.02495574951172px, -136.93756103515625px);transform: translate(110.02495574951172px, 136.93756103515625px) rotate(-30deg) translate(-110.02495574951172px, -136.93756103515625px);}}@keyframes kf_el_6ezWlOkdeSb_an_gUIjsYa4l6{33.33%{-webkit-transform: translate(110.02495574951172px, 136.93756103515625px) rotate(0deg) translate(-110.02495574951172px, -136.93756103515625px);transform: translate(110.02495574951172px, 136.93756103515625px) rotate(0deg) translate(-110.02495574951172px, -136.93756103515625px);}48.89%{-webkit-transform: translate(110.02495574951172px, 136.93756103515625px) rotate(-30deg) translate(-110.02495574951172px, -136.93756103515625px);transform: translate(110.02495574951172px, 136.93756103515625px) rotate(-30deg) translate(-110.02495574951172px, -136.93756103515625px);}0%{-webkit-transform: translate(110.02495574951172px, 136.93756103515625px) rotate(0deg) translate(-110.02495574951172px, -136.93756103515625px);transform: translate(110.02495574951172px, 136.93756103515625px) rotate(0deg) translate(-110.02495574951172px, -136.93756103515625px);}100%{-webkit-transform: translate(110.02495574951172px, 136.93756103515625px) rotate(-30deg) translate(-110.02495574951172px, -136.93756103515625px);transform: translate(110.02495574951172px, 136.93756103515625px) rotate(-30deg) translate(-110.02495574951172px, -136.93756103515625px);}}@-webkit-keyframes kf_el_6ezWlOkdeSb_an_2iJXFAQHS{33.33%{-webkit-transform: translate(110.02495574951172px, 136.93756103515625px) translate(-110.02495574951172px, -136.93756103515625px) translate(0px, 0px);transform: translate(110.02495574951172px, 136.93756103515625px) translate(-110.02495574951172px, -136.93756103515625px) translate(0px, 0px);}48.89%{-webkit-transform: translate(110.02495574951172px, 136.93756103515625px) translate(-110.02495574951172px, -136.93756103515625px) translate(-140px, 120px);transform: translate(110.02495574951172px, 136.93756103515625px) translate(-110.02495574951172px, -136.93756103515625px) translate(-140px, 120px);}0%{-webkit-transform: translate(110.02495574951172px, 136.93756103515625px) translate(-110.02495574951172px, -136.93756103515625px) translate(0px, 0px);transform: translate(110.02495574951172px, 136.93756103515625px) translate(-110.02495574951172px, -136.93756103515625px) translate(0px, 0px);}100%{-webkit-transform: translate(110.02495574951172px, 136.93756103515625px) translate(-110.02495574951172px, -136.93756103515625px) translate(-140px, 120px);transform: translate(110.02495574951172px, 136.93756103515625px) translate(-110.02495574951172px, -136.93756103515625px) translate(-140px, 120px);}}@keyframes kf_el_6ezWlOkdeSb_an_2iJXFAQHS{33.33%{-webkit-transform: translate(110.02495574951172px, 136.93756103515625px) translate(-110.02495574951172px, -136.93756103515625px) translate(0px, 0px);transform: translate(110.02495574951172px, 136.93756103515625px) translate(-110.02495574951172px, -136.93756103515625px) translate(0px, 0px);}48.89%{-webkit-transform: translate(110.02495574951172px, 136.93756103515625px) translate(-110.02495574951172px, -136.93756103515625px) translate(-140px, 120px);transform: translate(110.02495574951172px, 136.93756103515625px) translate(-110.02495574951172px, -136.93756103515625px) translate(-140px, 120px);}0%{-webkit-transform: translate(110.02495574951172px, 136.93756103515625px) translate(-110.02495574951172px, -136.93756103515625px) translate(0px, 0px);transform: translate(110.02495574951172px, 136.93756103515625px) translate(-110.02495574951172px, -136.93756103515625px) translate(0px, 0px);}100%{-webkit-transform: translate(110.02495574951172px, 136.93756103515625px) translate(-110.02495574951172px, -136.93756103515625px) translate(-140px, 120px);transform: translate(110.02495574951172px, 136.93756103515625px) translate(-110.02495574951172px, -136.93756103515625px) translate(-140px, 120px);}}@-webkit-keyframes kf_el_O8bc2jgU1q_an_K6UUxKUnTD{33.33%{-webkit-transform: translate(325.7651062011719px, 152.10000610351562px) rotate(0deg) translate(-325.7651062011719px, -152.10000610351562px);transform: translate(325.7651062011719px, 152.10000610351562px) rotate(0deg) translate(-325.7651062011719px, -152.10000610351562px);}48.89%{-webkit-transform: translate(325.7651062011719px, 152.10000610351562px) rotate(30deg) translate(-325.7651062011719px, -152.10000610351562px);transform: translate(325.7651062011719px, 152.10000610351562px) rotate(30deg) translate(-325.7651062011719px, -152.10000610351562px);}0%{-webkit-transform: translate(325.7651062011719px, 152.10000610351562px) rotate(0deg) translate(-325.7651062011719px, -152.10000610351562px);transform: translate(325.7651062011719px, 152.10000610351562px) rotate(0deg) translate(-325.7651062011719px, -152.10000610351562px);}100%{-webkit-transform: translate(325.7651062011719px, 152.10000610351562px) rotate(30deg) translate(-325.7651062011719px, -152.10000610351562px);transform: translate(325.7651062011719px, 152.10000610351562px) rotate(30deg) translate(-325.7651062011719px, -152.10000610351562px);}}@keyframes kf_el_O8bc2jgU1q_an_K6UUxKUnTD{33.33%{-webkit-transform: translate(325.7651062011719px, 152.10000610351562px) rotate(0deg) translate(-325.7651062011719px, -152.10000610351562px);transform: translate(325.7651062011719px, 152.10000610351562px) rotate(0deg) translate(-325.7651062011719px, -152.10000610351562px);}48.89%{-webkit-transform: translate(325.7651062011719px, 152.10000610351562px) rotate(30deg) translate(-325.7651062011719px, -152.10000610351562px);transform: translate(325.7651062011719px, 152.10000610351562px) rotate(30deg) translate(-325.7651062011719px, -152.10000610351562px);}0%{-webkit-transform: translate(325.7651062011719px, 152.10000610351562px) rotate(0deg) translate(-325.7651062011719px, -152.10000610351562px);transform: translate(325.7651062011719px, 152.10000610351562px) rotate(0deg) translate(-325.7651062011719px, -152.10000610351562px);}100%{-webkit-transform: translate(325.7651062011719px, 152.10000610351562px) rotate(30deg) translate(-325.7651062011719px, -152.10000610351562px);transform: translate(325.7651062011719px, 152.10000610351562px) rotate(30deg) translate(-325.7651062011719px, -152.10000610351562px);}}@-webkit-keyframes kf_el_O8bc2jgU1q_an_kuivUXJmM{33.33%{-webkit-transform: translate(325.7651062011719px, 152.10000610351562px) translate(-325.7651062011719px, -152.10000610351562px) translate(0px, 0px);transform: translate(325.7651062011719px, 152.10000610351562px) translate(-325.7651062011719px, -152.10000610351562px) translate(0px, 0px);}48.89%{-webkit-transform: translate(325.7651062011719px, 152.10000610351562px) translate(-325.7651062011719px, -152.10000610351562px) translate(150px, 20px);transform: translate(325.7651062011719px, 152.10000610351562px) translate(-325.7651062011719px, -152.10000610351562px) translate(150px, 20px);}0%{-webkit-transform: translate(325.7651062011719px, 152.10000610351562px) translate(-325.7651062011719px, -152.10000610351562px) translate(0px, 0px);transform: translate(325.7651062011719px, 152.10000610351562px) translate(-325.7651062011719px, -152.10000610351562px) translate(0px, 0px);}100%{-webkit-transform: translate(325.7651062011719px, 152.10000610351562px) translate(-325.7651062011719px, -152.10000610351562px) translate(150px, 20px);transform: translate(325.7651062011719px, 152.10000610351562px) translate(-325.7651062011719px, -152.10000610351562px) translate(150px, 20px);}}@keyframes kf_el_O8bc2jgU1q_an_kuivUXJmM{33.33%{-webkit-transform: translate(325.7651062011719px, 152.10000610351562px) translate(-325.7651062011719px, -152.10000610351562px) translate(0px, 0px);transform: translate(325.7651062011719px, 152.10000610351562px) translate(-325.7651062011719px, -152.10000610351562px) translate(0px, 0px);}48.89%{-webkit-transform: translate(325.7651062011719px, 152.10000610351562px) translate(-325.7651062011719px, -152.10000610351562px) translate(150px, 20px);transform: translate(325.7651062011719px, 152.10000610351562px) translate(-325.7651062011719px, -152.10000610351562px) translate(150px, 20px);}0%{-webkit-transform: translate(325.7651062011719px, 152.10000610351562px) translate(-325.7651062011719px, -152.10000610351562px) translate(0px, 0px);transform: translate(325.7651062011719px, 152.10000610351562px) translate(-325.7651062011719px, -152.10000610351562px) translate(0px, 0px);}100%{-webkit-transform: translate(325.7651062011719px, 152.10000610351562px) translate(-325.7651062011719px, -152.10000610351562px) translate(150px, 20px);transform: translate(325.7651062011719px, 152.10000610351562px) translate(-325.7651062011719px, -152.10000610351562px) translate(150px, 20px);}}#el_UM8YQ1V7P *{-webkit-animation-duration: 3s;animation-duration: 3s;-webkit-animation-iteration-count: infinite;animation-iteration-count: infinite;-webkit-animation-timing-function: cubic-bezier(0, 0, 1, 1);animation-timing-function: cubic-bezier(0, 0, 1, 1);}#el_y0RbVajK2x{fill: #F3C0AB;}#el_tYhg75qqsu{fill: #2C0A0A;}#el_20dSWWOtqB{fill: #830813;}#el_kOpF9szA4m{fill: #830813;}#el_RGGKD1d34Z{fill: none;stroke: #72141D;stroke-width: 0.91;stroke-miterlimit: 10;}#el_R84aMGzDEP{fill: #C51628;}#el_2I_GnVnuzu{fill: none;stroke: #72141D;stroke-width: 0.91;stroke-miterlimit: 10;}#el_gpYozD7ZCI{fill: #EBA59E;}#el_21i6jUGlzv{fill: #EBA59E;}#el_OE2JrCoXR_{fill: #820100;}#el_bngexFNJZo1{fill: #370401;}#el_ZbWK9CG9c04{fill: #5C0D1A;}#el_fNkuhojLxI1{fill: #5C0D1A;}#el_lU8pAQhUWbD{fill: #EBA59E;}#el_0jGf2IpnoKT{fill: #EBA59E;}#el_cO__EFxUbbO{fill: #9C0110;}#el_DctLHTFCNP_{fill: #F19998;}#el_hslic2RQO1a{fill: none;stroke: #72141D;stroke-width: 0.5788;stroke-miterlimit: 10;}#el_Bbgh8yYWvEU{fill: #830813;}#el_wX3FM_hzSXF{fill: none;stroke: #72141D;stroke-width: 0.5788;stroke-miterlimit: 10;}#el_aFCo6webMxe{fill: #C51628;}#el_ZaBp0d-4CY-{fill: none;stroke: #72141D;stroke-width: 0.5788;stroke-miterlimit: 10;}#el_Ro7pZ-enaUm{fill: #EBA59E;}#el_ztDR3ACaa6n{fill: #830813;}#el_UmaJnf5PPo6{fill: #830813;}#el_IwBg6aizwff{fill: #DF454C;}#el_2aP1INDlar9{fill: #830813;}#el_V5I6zE_r8qy{fill: none;stroke: #72141D;stroke-width: 0.5788;stroke-miterlimit: 10;}#el_W9A37pR-Vx-{fill: #C51628;}#el_frbCb6qMEnn{fill: none;stroke: #72141D;stroke-width: 0.5788;stroke-miterlimit: 10;}#el_hVeDoMWvdHY{fill: #370401;}#el_64zXcg_e7Kb{fill: #5C0D1A;}#el_mgUGdfA9ZYE{fill: #EBA59E;}#el_88P3B_bGUBB{fill: #EBA59E;}#el_tfYuiNJgzts{fill: #EBA59E;}#el_-bd8O8FTI0H{fill: #EBA59E;}#el_nUqvG4DQH1U{fill: #72141D;}#el_-NI_FWTY-RK{fill: #D61D45;}#el_8ghSo0oF_M-{fill: #D61D45;}#el_FDUlEgzMUgd{fill: #D01128;}#el_x_vFLOewZCN{fill: #8D171D;}#el_h-qRqEVOOs8{fill: #72141D;}#el_p6RB1FZ1DXv{fill: #F3C0AB;}#el_Kxlv9tvq297{fill: #2C0A0A;}#el_evLXkx90tl6{fill: #830813;}#el_TBg6iEpnnPd{fill: #830813;}#el_oTAynFEl_Hn{fill: #830813;}#el_4-BzU-QTsXd{fill: #DF454C;}#el_IdOVY3Avs6q{fill: #830813;}#el_AWeyTwbHz0Y{fill: none;stroke: #72141D;stroke-width: 0.8535;stroke-miterlimit: 10;}#el_TRDV9dPuv4N{fill: #C51628;}#el_E7VPGiAS_Cy{fill: none;stroke: #72141D;stroke-width: 0.8535;stroke-miterlimit: 10;}#el_YA85AIHlXgD{fill: #370401;}#el_zHmIsGGZ9VD{fill: #5C0D1A;}#el__1NDR50Ql5E{fill: #CA0007;}#el_oFAfsNCXsHU{fill: #EBA59E;}#el_qyTZ-Thh2xS{fill: #EBA59E;}#el__YWl891BLhT{fill: #EBA59E;}#el_qsrHfFRo41_{fill: #EBA59E;}#el_ACky0cMAbsf{fill: #EBA59E;}#el_VZ3pb4IOH1_{fill: #DF454C;}#el_9gvEJ-rKUHD{fill: #830813;}#el_sklsVmx6_qF{fill: #55070A;}#el_phKeRY9jJmv{fill: #F19998;}#el_nsjh0HQaTFl{fill: #72141D;}#el_RkHkst2-FAF{fill: #9C0110;}#el_n2lmuRRHcYg{fill: #F19998;}#el_kqo256B0U2_{fill: #9C0110;}#el_I4oEc8kJMr3{fill: #CA0007;}#el_D48bFceTDfh{fill: #EBA59E;}#el_xwUXTG0GIz-{fill: none;stroke: #72141D;stroke-width: 0.5429;stroke-miterlimit: 10;}#el_2lGgmZG1v12{fill: #72141D;}#el_DvaFnT6l93n{fill: #D61D45;}#el_-2lH_9eAygL{fill: #D01128;}#el_PdcAbRzP5y-{fill: #8D171D;}#el_KKqOf6b78Xh{fill: #D01128;}#el_1tgI9yDi02M{fill: #D01128;}#el_54neeO3hGU1{fill: #D61D45;}#el_NRH44BqIrMu{fill: #D01128;}#el_jGw-iOx6zVR{fill: #8D171D;}#el_O8bc2jgU1q_an_kuivUXJmM{-webkit-animation-fill-mode: backwards;animation-fill-mode: backwards;-webkit-transform: translate(325.7651062011719px, 152.10000610351562px) translate(-325.7651062011719px, -152.10000610351562px) translate(0px, 0px);transform: translate(325.7651062011719px, 152.10000610351562px) translate(-325.7651062011719px, -152.10000610351562px) translate(0px, 0px);-webkit-animation-name: kf_el_O8bc2jgU1q_an_kuivUXJmM;animation-name: kf_el_O8bc2jgU1q_an_kuivUXJmM;-webkit-animation-timing-function: cubic-bezier(0, 0, 1, 1);animation-timing-function: cubic-bezier(0, 0, 1, 1);}#el_O8bc2jgU1q_an_K6UUxKUnTD{-webkit-animation-fill-mode: backwards;animation-fill-mode: backwards;-webkit-transform: translate(325.7651062011719px, 152.10000610351562px) rotate(0deg) translate(-325.7651062011719px, -152.10000610351562px);transform: translate(325.7651062011719px, 152.10000610351562px) rotate(0deg) translate(-325.7651062011719px, -152.10000610351562px);-webkit-animation-name: kf_el_O8bc2jgU1q_an_K6UUxKUnTD;animation-name: kf_el_O8bc2jgU1q_an_K6UUxKUnTD;-webkit-animation-timing-function: cubic-bezier(0, 0, 1, 1);animation-timing-function: cubic-bezier(0, 0, 1, 1);}#el_6ezWlOkdeSb_an_2iJXFAQHS{-webkit-animation-fill-mode: backwards;animation-fill-mode: backwards;-webkit-transform: translate(110.02495574951172px, 136.93756103515625px) translate(-110.02495574951172px, -136.93756103515625px) translate(0px, 0px);transform: translate(110.02495574951172px, 136.93756103515625px) translate(-110.02495574951172px, -136.93756103515625px) translate(0px, 0px);-webkit-animation-name: kf_el_6ezWlOkdeSb_an_2iJXFAQHS;animation-name: kf_el_6ezWlOkdeSb_an_2iJXFAQHS;-webkit-animation-timing-function: cubic-bezier(0, 0, 1, 1);animation-timing-function: cubic-bezier(0, 0, 1, 1);}#el_6ezWlOkdeSb_an_gUIjsYa4l6{-webkit-animation-fill-mode: backwards;animation-fill-mode: backwards;-webkit-transform: translate(110.02495574951172px, 136.93756103515625px) rotate(0deg) translate(-110.02495574951172px, -136.93756103515625px);transform: translate(110.02495574951172px, 136.93756103515625px) rotate(0deg) translate(-110.02495574951172px, -136.93756103515625px);-webkit-animation-name: kf_el_6ezWlOkdeSb_an_gUIjsYa4l6;animation-name: kf_el_6ezWlOkdeSb_an_gUIjsYa4l6;-webkit-animation-timing-function: cubic-bezier(0, 0, 1, 1);animation-timing-function: cubic-bezier(0, 0, 1, 1);}#el_cqAKkgHXvgE_an_VZj3nfshI{-webkit-animation-fill-mode: backwards;animation-fill-mode: backwards;-webkit-transform: translate(232.6878662109375px, 152.29998779296875px) scale(1, 1) translate(-232.6878662109375px, -152.29998779296875px);transform: translate(232.6878662109375px, 152.29998779296875px) scale(1, 1) translate(-232.6878662109375px, -152.29998779296875px);-webkit-animation-name: kf_el_cqAKkgHXvgE_an_VZj3nfshI;animation-name: kf_el_cqAKkgHXvgE_an_VZj3nfshI;-webkit-animation-timing-function: cubic-bezier(0, 0, 1, 1);animation-timing-function: cubic-bezier(0, 0, 1, 1);}#el_cqAKkgHXvgE_an_fZQiNHa76{-webkit-animation-fill-mode: backwards;animation-fill-mode: backwards;-webkit-transform: translate(232.6878662109375px, 152.29998779296875px) translate(-232.6878662109375px, -152.29998779296875px) translate(0px, 0px);transform: translate(232.6878662109375px, 152.29998779296875px) translate(-232.6878662109375px, -152.29998779296875px) translate(0px, 0px);-webkit-animation-name: kf_el_cqAKkgHXvgE_an_fZQiNHa76;animation-name: kf_el_cqAKkgHXvgE_an_fZQiNHa76;-webkit-animation-timing-function: cubic-bezier(0, 0, 1, 1);animation-timing-function: cubic-bezier(0, 0, 1, 1);}#el_hsSWA01aFpC_an_nXL8b-bOC{-webkit-animation-fill-mode: backwards;animation-fill-mode: backwards;-webkit-transform: translate(274.1152038574219px, 86.00764465332031px) rotate(0deg) translate(-274.1152038574219px, -86.00764465332031px);transform: translate(274.1152038574219px, 86.00764465332031px) rotate(0deg) translate(-274.1152038574219px, -86.00764465332031px);-webkit-animation-name: kf_el_hsSWA01aFpC_an_nXL8b-bOC;animation-name: kf_el_hsSWA01aFpC_an_nXL8b-bOC;-webkit-animation-timing-function: cubic-bezier(0, 0, 1, 1);animation-timing-function: cubic-bezier(0, 0, 1, 1);}#el_gU14LLvDWkV_an_bqK6_qjCs{-webkit-animation-fill-mode: backwards;animation-fill-mode: backwards;-webkit-transform: translate(336.3578796386719px, 88.70764923095703px) rotate(0deg) translate(-336.3578796386719px, -88.70764923095703px);transform: translate(336.3578796386719px, 88.70764923095703px) rotate(0deg) translate(-336.3578796386719px, -88.70764923095703px);-webkit-animation-name: kf_el_gU14LLvDWkV_an_bqK6_qjCs;animation-name: kf_el_gU14LLvDWkV_an_bqK6_qjCs;-webkit-animation-timing-function: cubic-bezier(0, 0, 1, 1);animation-timing-function: cubic-bezier(0, 0, 1, 1);}#el_gU14LLvDWkV_an_Ag3IPUU2t{-webkit-animation-fill-mode: backwards;animation-fill-mode: backwards;-webkit-transform: translate(336.3578796386719px, 88.70764923095703px) translate(-336.3578796386719px, -88.70764923095703px) translate(0px, 0px);transform: translate(336.3578796386719px, 88.70764923095703px) translate(-336.3578796386719px, -88.70764923095703px) translate(0px, 0px);-webkit-animation-name: kf_el_gU14LLvDWkV_an_Ag3IPUU2t;animation-name: kf_el_gU14LLvDWkV_an_Ag3IPUU2t;-webkit-animation-timing-function: cubic-bezier(0, 0, 1, 1);animation-timing-function: cubic-bezier(0, 0, 1, 1);}#el_gU14LLvDWkV{-webkit-animation-fill-mode: backwards;animation-fill-mode: backwards;opacity: 0;-webkit-animation-name: kf_el_gU14LLvDWkV_an_gp9-uKZZ0;animation-name: kf_el_gU14LLvDWkV_an_gp9-uKZZ0;-webkit-animation-timing-function: cubic-bezier(0, 0, 1, 1);animation-timing-function: cubic-bezier(0, 0, 1, 1);}#el_hsSWA01aFpC{-webkit-animation-fill-mode: backwards;animation-fill-mode: backwards;opacity: 0;-webkit-animation-name: kf_el_hsSWA01aFpC_an_daq2eK94I;animation-name: kf_el_hsSWA01aFpC_an_daq2eK94I;-webkit-animation-timing-function: cubic-bezier(0, 0, 1, 1);animation-timing-function: cubic-bezier(0, 0, 1, 1);}</style>

<g id="el_O8bc2jgU1q_an_kuivUXJmM" data-animator-group="true" data-animator-type="0"><g id="el_O8bc2jgU1q_an_K6UUxKUnTD" data-animator-group="true" data-animator-type="1"><g id="el_O8bc2jgU1q">
	<g id="el_NLISJfFE6V">
		<path d="M362.4,455.9l-21.5-299.7c1.2,1.5,2.3,3.1,3.4,4.6c0.8,1.1,1.6,2.2,2.4,3.4&#10;&#9;&#9;&#9;C431.4,285,392.8,413.6,362.4,455.9C362.1,456.3,391.7,466,362.4,455.9z" id="el_y0RbVajK2x"/>
		<path d="M354.6,466.6c11.5-52.8,5.5-136.3,2.1-212.7c-1.4-32.2-4.8-62.1-9.3-89.3c0.9,1.2,2,2.8,3.3,4.5&#10;&#9;&#9;&#9;c0.8,1.1,1.6,2.2,2.3,3.3c82,118.9,46.7,243.7,17.3,285.3C370,458.3,354.9,466.2,354.6,466.6z" id="el_tYhg75qqsu"/>
	</g>
	<g id="el_YXgMaY6XvE">
		<g id="el_m9wmL3EeIm">
			<path d="M375.7,266.1c0-33.5-52.1-20-36,14.1C340.2,281.4,375.7,299.6,375.7,266.1z M351.2,270.6&#10;&#9;&#9;&#9;&#9;c0,0,0.7-8.4,6.4-14.1c5.8-5.8,9,5.2,7.7,14.2S351.2,270.6,351.2,270.6z" id="el_20dSWWOtqB"/>
			<path d="M353.6,319.4c-0.8-1.7-1.7-3.3-2.8-4.5c-2.1-0.5-4.4-1.5-6.4-2.5c-1.2,0.1-2.6,0.5-4.1,1.3&#10;&#9;&#9;&#9;&#9;c-9.7,4.5-12.9,5.1-14.2,12.9c-1.3,7.7,1.3,14.2,5.8,18.7c3.5,3.5,7.1,4.5,14.8-3.2c5.7-5.7,9.7-9,10-13.1&#10;&#9;&#9;&#9;&#9;C355.9,324.9,348.6,322.1,353.6,319.4z M350.5,331.7c0.6,8.4-8.4,3.2-13.5,0.6c0,0,1.3-6.4,8.4-12.2&#10;&#9;&#9;&#9;&#9;C352.5,314.4,349.9,323.4,350.5,331.7z" id="el_kOpF9szA4m"/>
			<path d="M355.7,324c-0.7-1.5-1.4-3.1-2.1-4.6c-5,2.6,2.3,5.5,3.1,9.4C356.8,327.4,356.5,325.8,355.7,324z" id="el_RGGKD1d34Z"/>
			<path d="M350.8,314.9c5.7,1.4,10.9,0.3,11.3-7.7c0.7-10.9,7.7-11.6-1.9-14.8s-12.2-11-21.2-4.5c-9,6.4-9,6.4-9,6.4&#10;&#9;&#9;&#9;&#9;s7,14.2,14.4,18l0,0C347.2,312.1,349.2,313.1,350.8,314.9z" id="el_R84aMGzDEP"/>
			<path d="M344.4,312.4c2,1.1,4.3,2,6.4,2.5C349.2,313.1,347.2,312.1,344.4,312.4z" id="el_2I_GnVnuzu"/>
			<path d="M345.4,320.1c-7.1,5.8-8.4,12.2-8.4,12.2c5.1,2.6,14.1,7.7,13.5-0.6C349.9,323.4,352.5,314.4,345.4,320.1z" id="el_gpYozD7ZCI"/>
			<path d="M357.7,256.4c-5.8,5.8-6.4,14.1-6.4,14.1s12.9,9,14.2,0S363.5,250.7,357.7,256.4z" id="el_21i6jUGlzv"/>
		</g>
		<g id="el_2XbBsUS91-">
			<path d="M386.1,224c0.4,2.9-5.3,7-5.3,7s-3.3-1.6-2.9-2.9c0.4-1.2,2.5-4.1,3.3-5.7C382,220.7,385.7,221.1,386.1,224z&#10;&#9;&#9;&#9;&#9;" id="el_OE2JrCoXR_"/>
			<path d="M351.3,254.6c4.9,3.3,9.8,0.8,9.8,0.8s9-11.5-3.3-16.4c-12.3-4.9-15.1-7-13.9,0.8S346.3,251.3,351.3,254.6z&#10;&#9;&#9;&#9;&#9; M350,244.4c0.4-2.9,2-2.9,5.7-1.6c3.7,1.2,0.8,8.2,0.8,8.2s-3.3,0.8-5.7-1.6C348.4,246.8,349.6,247.2,350,244.4z" id="el_bngexFNJZo1"/>
			<path d="M356.2,232.5c0,0,8.2-10.6,0.4-12.7c-7.8-2.1-10.6-4.9-12.7,0.4s-4.9,8.2,0.8,10.6&#10;&#9;&#9;&#9;&#9;C350.5,233.3,356.2,232.5,356.2,232.5z" id="el_ZbWK9CG9c04"/>
			<path d="M373.4,243.2c-5.7,3.3-8.6,4.5-4.9,9c3.7,4.5,5.7,5.7,5.7,5.7l6.9-5.7C381.1,252.2,379.1,239.9,373.4,243.2z&#10;&#9;&#9;&#9;&#9;" id="el_fNkuhojLxI1"/>
			<path d="M381.2,222.3c-0.8,1.6-2.9,4.5-3.3,5.7c-0.4,1.2,2.9,2.9,2.9,2.9s5.7-4.1,5.3-7&#10;&#9;&#9;&#9;&#9;C385.7,221.1,382,220.7,381.2,222.3z" id="el_lU8pAQhUWbD"/>
			<path d="M356.6,250.9c0,0,2.9-7-0.8-8.2c-3.7-1.2-5.3-1.2-5.7,1.6c-0.4,2.9-1.6,2.5,0.8,4.9&#10;&#9;&#9;&#9;&#9;C353.3,251.8,356.6,250.9,356.6,250.9z" id="el_0jGf2IpnoKT"/>
		</g>
		<g id="el_Z4lkbo92StC">
			<path d="M363.8,210.1c0,0-9-2.9-12.2,1.7c0,0,8.7,4.6,9.3,7.5c0.5,2.4-5.1,6-7.1,7.3c1,0.5,2.2,0.6,3.6,0.2&#10;&#9;&#9;&#9;&#9;c4.6-1.2,8.7,2.3,9.8-5.8S363.8,210.1,363.8,210.1z" id="el_cO__EFxUbbO"/>
			<path d="M360.9,219.3c-0.6-2.9-9.3-7.5-9.3-7.5c-0.6,0.9-1,2-1.1,3.5c-0.4,6.5,0.9,10.2,3.3,11.4&#10;&#9;&#9;&#9;&#9;C355.9,225.4,361.4,221.7,360.9,219.3z" id="el_DctLHTFCNP_"/>
			<path d="M384,237.6l0.2-0.1C384.1,237.5,384,237.5,384,237.6L384,237.6z" id="el_hslic2RQO1a"/>
		</g>
		<g id="el_LrwN-hjkdzh">
			<path d="M378.7,301.5c-0.5-1.1-1.1-2.1-1.8-2.9c-1.4-0.3-2.8-0.9-4.1-1.6c-0.8,0.1-1.6,0.3-2.6,0.8&#10;&#9;&#9;&#9;&#9;c-6.1,2.9-8.2,3.3-9,8.2c-0.8,4.9,0.8,9,3.7,11.9c2.2,2.2,4.5,2.9,9.4-2c3.6-3.6,6.2-5.7,6.4-8.4&#10;&#9;&#9;&#9;&#9;C380.1,305,375.5,303.2,378.7,301.5z M376.7,309.3c0.4,5.3-5.3,2-8.6,0.4c0,0,0.8-4.1,5.3-7.8C378,298.2,376.3,304,376.7,309.3z" id="el_Bbgh8yYWvEU"/>
			<path d="M380,304.4c-0.4-1-0.9-2-1.3-2.9c-3.2,1.7,1.4,3.5,2,6C380.7,306.5,380.5,305.5,380,304.4z" id="el_wX3FM_hzSXF"/>
			<path d="M376.9,298.6c3.6,0.9,6.9,0.2,7.2-4.9c0.4-7,4.9-7.4-1.2-9.4c-6.1-2.1-7.8-7-13.5-2.9&#10;&#9;&#9;&#9;&#9;c-5.7,4.1-5.7,4.1-5.7,4.1s4.4,9,9.2,11.5l0,0C374.6,296.8,375.9,297.5,376.9,298.6z" id="el_aFCo6webMxe"/>
			<path d="M372.8,297c1.3,0.7,2.7,1.3,4.1,1.6C375.9,297.5,374.6,296.8,372.8,297z" id="el_ZaBp0d-4CY-"/>
			<path d="M373.4,301.9c-4.5,3.7-5.3,7.8-5.3,7.8c3.3,1.6,9,4.9,8.6-0.4S378,298.2,373.4,301.9z" id="el_Ro7pZ-enaUm"/>
		</g>
		<g id="el_xijFSYSeEnV">
			<path d="M371.3,334.7c0-21.3-33.1-12.7-22.9,9C348.7,344.4,371.3,356,371.3,334.7z M355.8,337.5c0,0,0.4-5.3,4.1-9&#10;&#9;&#9;&#9;&#9;c3.7-3.7,5.7,3.3,4.9,9S355.8,337.5,355.8,337.5z" id="el_ztDR3ACaa6n"/>
			<path d="M357.3,368.6c-0.5-1.1-1.1-2.1-1.8-2.9c-1.4-0.3-2.8-0.9-4.1-1.6c-0.8,0.1-1.6,0.3-2.6,0.8&#10;&#9;&#9;&#9;&#9;c-6.1,2.9-8.2,3.3-9,8.2s0.8,9,3.7,11.9c2.2,2.2,4.5,2.9,9.4-2c3.6-3.6,6.2-5.7,6.4-8.4C358.7,372.1,354.1,370.3,357.3,368.6z&#10;&#9;&#9;&#9;&#9; M355.3,376.4c0.4,5.3-5.3,2-8.6,0.4c0,0,0.8-4.1,5.3-7.8C356.6,365.4,354.9,371.1,355.3,376.4z" id="el_UmaJnf5PPo6"/>
			<path d="M378.8,391.7c0.3,1.6-0.8,4.3-2.6,5.6c-3.3,2.5-7.4,1.6-8.2,0.8c0,0,2.3-4.6,7-7.1&#10;&#9;&#9;&#9;&#9;c-3.6-0.6-14.3,0-22.9,2.6c-9.4,2.9-2.9,5.3-2.5,10.6c0.4,5.3,3.7,7.8,7.4,9.8c3.7,2.1,8.6-2,20.5-12.3&#10;&#9;&#9;&#9;&#9;C385.5,394.8,382,392.5,378.8,391.7z" id="el_IwBg6aizwff"/>
			<path d="M369.2,384.6c7.8,6.1,7.4-0.8,10.6-7.4c3.3-6.5-2.9-9.4-3.7-10.2c0,0-5.7-1.6-15.1,0.4&#10;&#9;&#9;&#9;&#9;c-1.8,0.4-3,0.8-3.8,1.2c0.5,0.9,0.9,1.9,1.3,2.9c0.5,1.2,0.7,2.2,0.6,3.1c0,0,0,0,0,0C359.9,377.7,361.5,378.5,369.2,384.6z" id="el_2aP1INDlar9"/>
			<path d="M358.6,371.5c-0.4-1-0.9-2-1.3-2.9c-3.2,1.7,1.4,3.5,2,6C359.3,373.7,359.1,372.7,358.6,371.5z" id="el_V5I6zE_r8qy"/>
			<path d="M355.5,365.8c3.6,0.9,6.9,0.2,7.2-4.9c0.4-7,4.9-7.4-1.2-9.4c-6.1-2.1-7.8-7-13.5-2.9&#10;&#9;&#9;&#9;&#9;c-5.7,4.1-5.7,4.1-5.7,4.1s4.4,9,9.2,11.5l0,0C353.2,363.9,354.5,364.6,355.5,365.8z" id="el_W9A37pR-Vx-"/>
			<path d="M351.4,364.2c1.3,0.7,2.7,1.3,4.1,1.6C354.5,364.6,353.2,363.9,351.4,364.2z" id="el_frbCb6qMEnn"/>
			<path d="M379.5,297.5c2.9,0.4,2.9,2,1.6,5.7c-1.2,3.7-8.2,0.8-8.2,0.8s-0.8-3.3,1.6-5.7&#10;&#9;&#9;&#9;&#9;C377.1,295.8,376.7,297.1,379.5,297.5z" id="el_hVeDoMWvdHY"/>
			<path d="M380.8,320.8c-3.3-5.7-4.5-8.6-9-4.9c-4.5,3.7-5.7,5.7-5.7,5.7l5.7,6.9C371.7,328.5,384,326.5,380.8,320.8z" id="el_64zXcg_e7Kb"/>
			<path d="M368,398.1c0.8,0.8,4.9,1.6,8.2-0.8c1.8-1.4,2.9-4,2.6-5.6c-1.5-0.4-2.9-0.4-3-0.5c-0.2-0.1-0.5-0.1-0.8-0.2&#10;&#9;&#9;&#9;&#9;C370.3,393.5,368,398.1,368,398.1z" id="el_mgUGdfA9ZYE"/>
			<path d="M352,369.1c-4.5,3.7-5.3,7.8-5.3,7.8c3.3,1.6,9,4.9,8.6-0.4C354.9,371.1,356.6,365.4,352,369.1z" id="el_88P3B_bGUBB"/>
			<path d="M359.9,328.5c-3.7,3.7-4.1,9-4.1,9s8.2,5.7,9,0S363.6,324.9,359.9,328.5z" id="el_tfYuiNJgzts"/>
			<path d="M373,304c0,0,7,2.9,8.2-0.8c1.2-3.7,1.2-5.3-1.6-5.7c-2.9-0.4-2.5-1.6-4.9,0.8C372.2,300.7,373,304,373,304z&#10;&#9;&#9;&#9;&#9;" id="el_-bd8O8FTI0H"/>
		</g>
	</g>
	<path d="M362.7,455c-1.4,0.2-2.8,0.3-4.2,0.4c21.1-34,24.7-80.9,20.5-127.4c-2.9-32.7-9.8-65.3-17.1-93.1&#10;&#9;&#9;c-7.9-30.1-16.4-54.6-21.2-67.5c1.3,0,2.6-0.1,3.8-0.2c0,0.1,0.1,0.1,0.1,0.2c4.8,13,13.3,37.4,21.2,67.5&#10;&#9;&#9;c7.3,27.8,14.1,60.3,17.1,93.1C387.1,374.3,383.5,421,362.7,455z" id="el_nUqvG4DQH1U"/>
	<g id="el_6TjR4EgQ0ln">
		<path d="M442.5,302.1c0,0.2,0,0.4,0,0.5c0,0.2,0,0.3,0,0.5c0,0.2,0,0.4,0,0.6c0,0.2,0,0.3,0,0.5&#10;&#9;&#9;&#9;c0,0.5-0.1,1.1-0.2,1.7c-0.1,0.4-0.1,0.8-0.2,1.2l0,0c-0.1,0.4-0.2,0.8-0.3,1.3c-0.1,0.2-0.1,0.4-0.2,0.7&#10;&#9;&#9;&#9;c-0.2,0.9-0.5,1.9-0.8,2.9c-0.1,0.3-0.2,0.7-0.3,1c-0.1,0.3-0.2,0.7-0.3,1c-0.6,2-1.1,3.8-1.6,5.5c-0.1,0.3-0.2,0.6-0.3,1v0&#10;&#9;&#9;&#9;c-0.1,0.5-0.3,1.1-0.4,1.6c-0.1,0.3-0.1,0.5-0.2,0.8l-0.2,0.7c-0.2,0.6-0.4,1.3-0.6,1.9c-0.7,2.4-1.5,4.4-2.3,6.1&#10;&#9;&#9;&#9;c-0.1,0.3-0.3,0.5-0.4,0.7c-0.1,0.2-0.3,0.5-0.5,0.7c-0.1,0.2-0.3,0.4-0.4,0.5c0,0-0.1,0.1-0.1,0.1c-0.2,0.2-0.3,0.4-0.5,0.5&#10;&#9;&#9;&#9;c-0.2,0.2-0.3,0.3-0.5,0.5c-0.1,0.1-0.1,0.1-0.2,0.2c-0.2,0.2-0.4,0.3-0.5,0.4c-0.1,0.1-0.2,0.2-0.4,0.2c-0.2,0.1-0.3,0.2-0.5,0.3&#10;&#9;&#9;&#9;c-0.2,0.1-0.3,0.2-0.5,0.2c-0.3,0.2-0.7,0.3-1.1,0.4c-7,2.1-7,2.1-7,2.1s-23.2-4.9-38.9-10.3c-2.9-32.7-9.8-65.3-17.1-93.1&#10;&#9;&#9;&#9;c0.8-0.1,1.7-0.2,2.6-0.2c25.7-1,20.2,1.8,37.2,12.9c1.8,1.2,3.5,2.3,5.1,3.3c0.3,0.2,0.6,0.4,0.9,0.6c0.6,0.4,1.2,0.8,1.8,1.2&#10;&#9;&#9;&#9;c0.6,0.4,1.2,0.8,1.7,1.1c0.3,0.2,0.5,0.4,0.8,0.6c0.3,0.2,0.5,0.4,0.8,0.6c0.5,0.3,0.9,0.6,1.4,1c0.2,0.1,0.4,0.3,0.5,0.4&#10;&#9;&#9;&#9;c0.4,0.3,0.7,0.5,1,0.8c0.2,0.2,0.5,0.3,0.7,0.5c0.4,0.3,0.8,0.7,1.3,1c0.3,0.2,0.6,0.5,0.9,0.8c0.1,0.1,0.3,0.3,0.4,0.4&#10;&#9;&#9;&#9;c0,0,0.1,0.1,0.1,0.1c0.1,0.1,0.3,0.2,0.4,0.4c0.4,0.4,0.8,0.7,1.1,1.1c0.1,0.1,0.3,0.3,0.4,0.4c0.1,0.1,0.3,0.3,0.4,0.4&#10;&#9;&#9;&#9;c0.1,0.1,0.3,0.3,0.4,0.4c0.8,0.8,1.5,1.7,2.2,2.6c0.1,0.2,0.2,0.3,0.3,0.5c0.1,0.2,0.2,0.3,0.3,0.5c0.2,0.3,0.4,0.6,0.7,1&#10;&#9;&#9;&#9;c0.2,0.3,0.4,0.7,0.6,1c0.2,0.4,0.4,0.7,0.6,1.1c0.1,0.2,0.2,0.4,0.3,0.6c0.2,0.4,0.4,0.8,0.6,1.2c0.1,0.2,0.2,0.4,0.3,0.6&#10;&#9;&#9;&#9;c0.1,0.2,0.2,0.4,0.3,0.6c0.2,0.4,0.4,0.8,0.6,1.3v0c0.2,0.4,0.4,0.9,0.6,1.3c0.2,0.5,0.4,0.9,0.6,1.4c0.2,0.5,0.4,1,0.6,1.5&#10;&#9;&#9;&#9;c0.1,0.3,0.2,0.5,0.3,0.8c0.3,0.7,0.5,1.5,0.8,2.1c0,0,0,0,0,0c0.3,0.7,0.5,1.4,0.8,2c1.1,2.9,2.2,5.3,3.1,7.4&#10;&#9;&#9;&#9;c0.2,0.5,0.4,0.9,0.6,1.4c0.5,1.2,0.9,2.3,1.3,3.4c0.1,0.3,0.2,0.6,0.3,0.9c0.1,0.2,0.1,0.5,0.2,0.7c0.1,0.2,0.1,0.4,0.2,0.7&#10;&#9;&#9;&#9;c0.1,0.4,0.2,0.8,0.3,1.2c0.1,0.3,0.1,0.6,0.1,0.9c0,0.3,0.1,0.6,0.1,0.9c0,0,0,0,0,0.1c0,0.2,0,0.5,0,0.7c0,0.1,0,0.3,0,0.4&#10;&#9;&#9;&#9;C442.5,301.6,442.5,301.8,442.5,302.1z" id="el_-NI_FWTY-RK"/>
		<path d="M391.4,191.3c0,0.1,0,0.1,0,0.2c0,0.1,0,0.1,0,0.2c0,0.1,0,0.2-0.1,0.2c0,0.1-0.1,0.2-0.1,0.2&#10;&#9;&#9;&#9;c0,0.1-0.1,0.1-0.1,0.2c-0.1,0.1-0.1,0.2-0.2,0.2c-0.1,0.1-0.2,0.2-0.3,0.2c-0.4,0.2-0.8,0.4-1.4,0.6c-0.1,0-0.2,0.1-0.3,0.1&#10;&#9;&#9;&#9;c-0.1,0-0.2,0.1-0.4,0.1c0,0,0,0,0,0c0,0,0,0,0,0c-0.3,0.1-0.7,0.1-1.1,0.2c-0.2,0-0.4,0-0.6,0.1c-0.3,0-0.6,0.1-0.9,0.1&#10;&#9;&#9;&#9;c-0.2,0-0.5,0-0.7,0c-0.2,0-0.5,0-0.7,0c-0.9,0-1.8,0-2.7,0c-0.2,0-0.4,0-0.7,0c-0.3,0-0.6,0-0.9,0c-0.4,0-0.9,0-1.3-0.1&#10;&#9;&#9;&#9;c0,0,0,0,0,0c-0.4,0-0.9-0.1-1.3-0.1c-0.5,0-0.9-0.1-1.4-0.1c-0.9-0.1-1.8-0.2-2.8-0.3c-1.8-0.2-3.7-0.5-5.4-0.7&#10;&#9;&#9;&#9;c-0.4-0.1-0.9-0.1-1.3-0.2c-1.7-0.3-3.2-0.6-4.6-0.9c-0.2,0-0.4-0.1-0.6-0.1c-0.4-0.1-0.8-0.2-1.1-0.3c-0.8-0.3-1.5-0.6-1.9-0.9&#10;&#9;&#9;&#9;c-0.1-0.1-0.2-0.1-0.3-0.2c-0.1-0.1-0.2-0.2-0.3-0.3c-0.1-0.1-0.1-0.2-0.2-0.3c0-0.1-0.1-0.1-0.1-0.2c0-0.1-0.1-0.2-0.1-0.4&#10;&#9;&#9;&#9;c0-0.1,0-0.1,0-0.2c0,0,0,0,0,0c0-0.1,0-0.2,0-0.3c0-2.6,3-6.5,3-13c0-10.4,12.9,0.4,14.2,0h0l0,0c0,0,0,0,0,0c0,0,0,0,0.1,0.1&#10;&#9;&#9;&#9;c0,0,0,0,0.1,0c0,0,0.1,0,0.1,0c0,0,0,0,0,0c0.1,0.1,0.3,0.2,0.5,0.3c0.1,0.1,0.2,0.1,0.3,0.2c0,0,0.1,0.1,0.1,0.1&#10;&#9;&#9;&#9;c0.2,0.1,0.4,0.3,0.7,0.5c0.8,0.6,1.8,1.3,2.9,2.1c0.2,0.2,0.5,0.4,0.7,0.5c0.1,0.1,0.2,0.2,0.4,0.3c0.3,0.2,0.5,0.4,0.8,0.6&#10;&#9;&#9;&#9;c1.4,1.1,2.9,2.3,4.4,3.5c0.2,0.1,0.3,0.3,0.5,0.4c0.2,0.2,0.4,0.4,0.7,0.6c0.2,0.2,0.5,0.5,0.7,0.7c0.4,0.3,0.7,0.7,1,1&#10;&#9;&#9;&#9;c0.2,0.2,0.4,0.4,0.6,0.6c0,0,0,0,0,0c0.1,0.2,0.3,0.3,0.4,0.5c0.1,0.2,0.3,0.3,0.4,0.5c0,0,0,0,0,0c0.2,0.2,0.3,0.4,0.5,0.6&#10;&#9;&#9;&#9;c0.1,0.2,0.3,0.4,0.4,0.6c0,0,0,0,0,0c0.2,0.3,0.4,0.5,0.5,0.8c0,0,0,0,0,0c0.1,0.1,0.1,0.3,0.2,0.4c0,0.1,0.1,0.2,0.1,0.4&#10;&#9;&#9;&#9;c0,0.1,0.1,0.2,0.1,0.3C391.4,191.1,391.4,191.2,391.4,191.3z" id="el_8ghSo0oF_M-"/>
		<path d="M371.9,152.3C371.9,152.3,371.9,152.3,371.9,152.3C371.9,152.3,371.9,152.3,371.9,152.3c0,0-0.1-0.1-0.2-0.2&#10;&#9;&#9;&#9;c-10.4,4.1-20.9,5.5-31,5.2c0,0,1.4,3.5,3.8,9.9c0,0.1,0.1,0.1,0.1,0.2c4.8,13,13.3,37.4,21.2,67.5c0.8-0.1,1.7-0.2,2.6-0.2&#10;&#9;&#9;&#9;c25.7-1,20.2,1.8,37.2,12.9c1.8,1.2,3.5,2.3,5.1,3.3c0.3,0.2,0.6,0.4,0.9,0.6c0.6,0.4,1.2,0.8,1.8,1.2c0.6,0.4,1.2,0.8,1.7,1.1&#10;&#9;&#9;&#9;c0.3,0.2,0.5,0.4,0.8,0.6c0.3,0.2,0.5,0.4,0.8,0.6c0.5,0.3,0.9,0.6,1.4,1c0.2,0.1,0.4,0.3,0.5,0.4c0.4,0.3,0.7,0.5,1,0.8&#10;&#9;&#9;&#9;c0.2,0.2,0.5,0.3,0.7,0.5c0.4,0.3,0.9,0.7,1.3,1c0.3,0.2,0.6,0.5,0.9,0.8c0.1,0.1,0.3,0.3,0.4,0.4c0,0,0.1,0.1,0.1,0.1&#10;&#9;&#9;&#9;c0.1,0.1,0.3,0.2,0.4,0.4c0.4,0.4,0.8,0.7,1.1,1.1c0.1,0.1,0.3,0.3,0.4,0.4c0.1,0.1,0.3,0.3,0.4,0.4c0.1,0.1,0.3,0.3,0.4,0.4&#10;&#9;&#9;&#9;c0.8,0.8,1.5,1.7,2.2,2.6c0.1,0.2,0.2,0.3,0.3,0.5c0.1,0.2,0.2,0.3,0.3,0.5c0.2,0.3,0.4,0.6,0.7,1c0.2,0.3,0.4,0.7,0.6,1&#10;&#9;&#9;&#9;c0.2,0.4,0.4,0.7,0.6,1.1c0.1,0.2,0.2,0.4,0.3,0.6c0.2,0.4,0.4,0.8,0.6,1.2c0.1,0.2,0.2,0.4,0.3,0.6c0.1,0.2,0.2,0.4,0.3,0.6&#10;&#9;&#9;&#9;c0.2,0.4,0.4,0.8,0.6,1.3v0c0.2,0.4,0.4,0.9,0.6,1.3c0.2,0.5,0.4,0.9,0.6,1.4c0.2,0.5,0.4,1,0.6,1.5c0.1,0.3,0.2,0.5,0.3,0.8&#10;&#9;&#9;&#9;c0.3,0.7,0.5,1.5,0.8,2.1c0,0,0,0,0,0c0.3,0.7,0.5,1.4,0.8,2c1.1,2.9,2.2,5.3,3.1,7.4c0.2,0.5,0.4,0.9,0.6,1.4&#10;&#9;&#9;&#9;c0.5,1.2,0.9,2.3,1.3,3.4c0.1,0.3,0.2,0.6,0.3,0.9c0.1,0.2,0.1,0.5,0.2,0.7c0.1,0.2,0.1,0.4,0.2,0.7c0.1,0.4,0.2,0.8,0.3,1.2&#10;&#9;&#9;&#9;c0.1,0.3,0.1,0.6,0.1,0.9c0,0.3,0.1,0.6,0.1,0.9c0,0,0,0,0,0.1c0,0.2,0,0.5,0,0.7c0,0.1,0,0.3,0,0.4c0,0.2,0,0.5,0,0.8&#10;&#9;&#9;&#9;c0,0.2,0,0.4,0,0.5c0,0.2,0,0.3,0,0.5c0,0.2,0,0.4,0,0.6c0,0.2,0,0.3,0,0.5c0,0.5-0.1,1.1-0.2,1.7c-0.1,0.4-0.1,0.8-0.2,1.2l0,0&#10;&#9;&#9;&#9;c-0.1,0.4-0.2,0.8-0.3,1.3c-0.1,0.2-0.1,0.4-0.2,0.7c-0.2,0.9-0.5,1.9-0.8,2.9c-0.1,0.3-0.2,0.7-0.3,1c-0.1,0.3-0.2,0.7-0.3,1&#10;&#9;&#9;&#9;c-0.6,2-1.1,3.8-1.6,5.5c-0.1,0.3-0.2,0.6-0.3,1v0c-0.1,0.5-0.3,1.1-0.4,1.6c-0.1,0.3-0.1,0.5-0.2,0.8l-0.2,0.7&#10;&#9;&#9;&#9;c-0.2,0.6-0.4,1.3-0.6,1.9c-0.7,2.4-1.5,4.4-2.3,6.1c-0.1,0.3-0.3,0.5-0.4,0.7c-0.1,0.2-0.3,0.5-0.5,0.7c-0.1,0.2-0.3,0.4-0.4,0.5&#10;&#9;&#9;&#9;c0,0-0.1,0.1-0.1,0.1c-0.2,0.2-0.3,0.4-0.5,0.5c-0.2,0.2-0.3,0.3-0.5,0.5c-0.1,0.1-0.1,0.1-0.2,0.2c-0.2,0.2-0.4,0.3-0.5,0.4&#10;&#9;&#9;&#9;c-0.1,0.1-0.2,0.2-0.4,0.2c-0.2,0.1-0.3,0.2-0.5,0.3c-0.2,0.1-0.3,0.2-0.5,0.2c-0.3,0.2-0.7,0.3-1.1,0.4c-7,2.1-7,2.1-7,2.1&#10;&#9;&#9;&#9;s-23.2-4.9-38.9-10.3c4.2,46.3,0.6,93-20.2,126.9c-0.1,0.2-0.2,0.3-0.3,0.5c2.6-0.3,5.3-0.6,7.9-0.9c1.3-0.2,2.6-0.3,4-0.5&#10;&#9;&#9;&#9;c1.3-0.2,2.6-0.4,3.9-0.6c0,0,0,0,0.1,0c1.3-0.2,2.5-0.4,3.8-0.6c0.1,0,0.2,0,0.3-0.1c1.3-0.2,2.6-0.4,3.8-0.7&#10;&#9;&#9;&#9;c0.8-0.1,1.5-0.3,2.3-0.4c1.1-0.2,2.2-0.4,3.3-0.7c0.7-0.1,1.3-0.3,2-0.4c0.1,0,0.3,0,0.4-0.1c0,0,0,0,0,0c0.2,0,0.4-0.1,0.6-0.1&#10;&#9;&#9;&#9;c1.1-0.2,2.2-0.5,3.3-0.8c1.3-0.3,2.6-0.6,4-1c0,0,0,0,0,0c1.3-0.3,2.6-0.7,3.8-1c0.1,0,0.2-0.1,0.3-0.1c1.1-0.3,2.2-0.6,3.3-0.9&#10;&#9;&#9;&#9;c0.3-0.1,0.5-0.1,0.8-0.2c1-0.3,2-0.6,3-0.9c1.3-0.4,2.7-0.8,4-1.3c0.6-0.2,1.1-0.4,1.7-0.6c1.1-0.4,2.2-0.7,3.3-1.1&#10;&#9;&#9;&#9;c1.2-0.4,2.4-0.8,3.6-1.3c49.6-30.1,70.3-81.9,71.5-148.7C499.1,183.8,371.9,152.3,371.9,152.3z M391.4,191.5c0,0.1,0,0.1,0,0.2&#10;&#9;&#9;&#9;c0,0.1,0,0.2-0.1,0.2c0,0.1-0.1,0.2-0.1,0.2c0,0.1-0.1,0.1-0.1,0.2c-0.1,0.1-0.1,0.2-0.2,0.2c-0.1,0.1-0.2,0.2-0.3,0.2&#10;&#9;&#9;&#9;c-0.4,0.2-0.8,0.4-1.4,0.6c-0.1,0-0.2,0.1-0.3,0.1c-0.1,0-0.2,0.1-0.4,0.1c0,0,0,0,0,0c0,0,0,0,0,0c-0.3,0.1-0.7,0.1-1.1,0.2&#10;&#9;&#9;&#9;c-0.2,0-0.4,0-0.6,0.1c-0.3,0-0.6,0.1-0.9,0.1c-0.2,0-0.5,0-0.7,0c-0.2,0-0.5,0-0.7,0c-0.9,0-1.8,0-2.7,0c-0.2,0-0.4,0-0.7,0&#10;&#9;&#9;&#9;c-0.3,0-0.6,0-0.9,0c-0.4,0-0.9,0-1.3-0.1c0,0,0,0,0,0c-0.4,0-0.9-0.1-1.3-0.1c-0.5,0-0.9-0.1-1.4-0.1c-0.9-0.1-1.8-0.2-2.8-0.3&#10;&#9;&#9;&#9;c-0.9-0.1-1.8-0.2-2.7-0.3c-0.9-0.1-1.8-0.3-2.7-0.4c-0.4-0.1-0.9-0.1-1.3-0.2c-1.7-0.3-3.2-0.6-4.6-0.9c-0.2,0-0.4-0.1-0.6-0.1&#10;&#9;&#9;&#9;c-0.4-0.1-0.8-0.2-1.1-0.3c-0.8-0.3-1.5-0.6-1.9-0.9c-0.1-0.1-0.2-0.1-0.3-0.2c-0.1-0.1-0.2-0.2-0.3-0.3c-0.1-0.1-0.1-0.2-0.2-0.3&#10;&#9;&#9;&#9;c0-0.1-0.1-0.1-0.1-0.2c-0.1-0.1-0.1-0.3-0.1-0.4c0-0.1,0-0.1,0-0.2c0,0,0,0,0,0c0-0.1,0-0.2,0-0.3c0-2.6,3-6.5,3-13&#10;&#9;&#9;&#9;c0-10.4,12.9,0.4,14.2,0h0l0,0c0,0,0,0,0,0c0,0,0,0,0.1,0.1c0,0,0,0,0.1,0c0,0,0.1,0,0.1,0c0,0,0,0,0,0c0.1,0.1,0.3,0.2,0.5,0.3&#10;&#9;&#9;&#9;c0.1,0.1,0.2,0.1,0.3,0.2c0,0,0.1,0.1,0.1,0.1c0.2,0.1,0.5,0.3,0.7,0.5c0.8,0.6,1.8,1.3,2.9,2.1c0.2,0.2,0.5,0.3,0.7,0.5&#10;&#9;&#9;&#9;c0.1,0.1,0.2,0.2,0.4,0.3c0.3,0.2,0.5,0.4,0.8,0.6c1.4,1.1,2.9,2.3,4.4,3.5c0.2,0.1,0.3,0.3,0.5,0.4c0.2,0.2,0.4,0.4,0.7,0.6&#10;&#9;&#9;&#9;c0.2,0.2,0.5,0.5,0.7,0.7c0.4,0.3,0.7,0.7,1,1c0.2,0.2,0.4,0.4,0.6,0.6c0,0,0,0,0,0c0.1,0.2,0.3,0.3,0.4,0.5&#10;&#9;&#9;&#9;c0.1,0.2,0.3,0.3,0.4,0.5c0,0,0,0,0,0c0.2,0.2,0.3,0.4,0.5,0.6c0.2,0.2,0.3,0.4,0.4,0.6c0,0,0,0,0,0c0.2,0.3,0.4,0.5,0.5,0.8&#10;&#9;&#9;&#9;c0,0,0,0,0,0c0.1,0.1,0.1,0.3,0.2,0.4c0,0.1,0.1,0.2,0.1,0.4c0,0.1,0.1,0.2,0.1,0.3c0,0.1,0,0.2,0,0.3&#10;&#9;&#9;&#9;C391.4,191.3,391.4,191.4,391.4,191.5z" id="el_FDUlEgzMUgd"/>
		<path d="M425.8,441.3c-19.3,11.8-43.1,20.2-71.7,24.9c1.4-1.8,3.9-4.1,5.2-6c1-1.4,1.9-2.8,2.8-4.3&#10;&#9;&#9;&#9;c0.1-0.1,0.2-0.3,0.3-0.5c2.6-0.3,5.3-0.6,7.9-0.9c1.3-0.2,2.6-0.3,4-0.5c1.3-0.2,2.6-0.4,3.9-0.6c0,0,0,0,0.1,0&#10;&#9;&#9;&#9;c1.3-0.2,2.5-0.4,3.8-0.6c0.1,0,0.2,0,0.3-0.1c1.3-0.2,2.6-0.4,3.8-0.7c0.8-0.1,1.5-0.3,2.3-0.4c1.1-0.2,2.2-0.4,3.3-0.7&#10;&#9;&#9;&#9;c0.7-0.1,1.3-0.3,2-0.4c0.1,0,0.3,0,0.4-0.1c0,0,0,0,0,0c0.2,0,0.4-0.1,0.6-0.1c1.1-0.2,2.2-0.5,3.3-0.8c1.3-0.3,2.6-0.6,4-1&#10;&#9;&#9;&#9;c0,0,0,0,0,0c1.3-0.3,2.6-0.7,3.8-1c0.1,0,0.2-0.1,0.3-0.1c1.1-0.3,2.2-0.6,3.3-0.9c0.3-0.1,0.5-0.1,0.8-0.2c1-0.3,2-0.6,3-0.9&#10;&#9;&#9;&#9;c1.3-0.4,2.7-0.8,4-1.3c0.6-0.2,1.1-0.4,1.7-0.6c1.1-0.4,2.2-0.7,3.3-1.1C423.4,442.1,424.6,441.7,425.8,441.3z" id="el_x_vFLOewZCN"/>
	</g>
	<path d="M395.6,273.8" id="el_h-qRqEVOOs8"/>
</g></g></g>
<g id="el_6ezWlOkdeSb_an_2iJXFAQHS" data-animator-group="true" data-animator-type="0"><g id="el_6ezWlOkdeSb_an_gUIjsYa4l6" data-animator-group="true" data-animator-type="1"><g id="el_6ezWlOkdeSb">
	<g id="el_3WFXXR5jMG8">
		<path d="M285.6,164.2l-7.9,295.2c-1.2-1.6-2.3-3.1-3.5-4.7c-0.8-1.2-1.6-2.3-2.4-3.4c-86.3-123.2-18-242.7,12.9-285.8&#10;&#9;&#9;&#9;C285,165,285.3,164.6,285.6,164.2z" id="el_p6RB1FZ1DXv"/>
		<path d="M278.8,160.2C267,214,258.1,281.8,261.6,359.6c1.5,32.9,4.9,63.3,9.5,91c-0.9-1.2-2.1-2.8-3.4-4.6&#10;&#9;&#9;&#9;c-0.8-1.1-1.6-2.3-2.4-3.4c-83.6-121.2-17.4-238.8,12.5-281.2C278.2,161,278.5,160.6,278.8,160.2z" id="el_Kxlv9tvq297"/>
	</g>
	<g id="el_I_9rEOvaHsC">
		<g id="el_Ygj9Kop17ap">
			<path d="M246.3,320.3c0,31.4,48.9,18.8,33.8-13.2C279.6,306,246.3,288.9,246.3,320.3z M269.2,316.1&#10;&#9;&#9;&#9;&#9;c0,0-0.6,7.8-6,13.3s-8.4-4.8-7.2-13.3C257.2,307.6,269.2,316.1,269.2,316.1z" id="el_evLXkx90tl6"/>
			<path d="M226.6,317.3c0.1,0,0.2,0,0.3,0c0.9-0.1,1.7-0.2,2.5-0.3c2.4-0.2,4.5-0.4,6.2-0.7c1.5-0.3,2.8-0.6,3.8-1.2&#10;&#9;&#9;&#9;&#9;c0.8-0.4,1.3-1,1.7-1.8c0.5-1.2,0.5-2.9-0.3-5.3v0c-0.2-0.5-0.4-1.1-0.6-1.7c-0.3-0.6-0.5-1.2-0.8-1.8v0c-1-2.2-1.9-4-2.8-5.6&#10;&#9;&#9;&#9;&#9;c-0.4-0.8-0.8-1.5-1.2-2.1c-0.7-1.1-1.3-1.9-1.8-2.6c-1.1-1.6-1.9-2.3-1.9-2.3s-0.2,0-0.6,0c-0.8,0-2.5-0.1-4.6-0.1v4.2&#10;&#9;&#9;&#9;&#9;c1.3,0.7,2.2,1.3,2.2,1.3s0,0,0.2,0.3c0.3,0.5,1,1.8,2.8,5.1c2.1,3.8-1.7,3.5-5.2,3.1v6.3c-0.2,0.1-0.4,0.2-0.6,0.3c0,0,0,0,0,0" id="el_TBg6iEpnnPd"/>
			<path d="M267,270.3c0.8,1.6,1.6,3.1,2.6,4.2c2,0.5,4.1,1.4,6,2.4c1.1-0.1,2.4-0.5,3.9-1.2&#10;&#9;&#9;&#9;&#9;c9.1-4.2,12.1-4.8,13.3-12.1c1.2-7.2-1.2-13.3-5.4-17.5c-3.2-3.3-6.6-4.2-13.9,3c-5.4,5.4-9.1,8.4-9.4,12.3&#10;&#9;&#9;&#9;&#9;C264.9,265.1,271.7,267.8,267,270.3z M269.9,258.8c-0.6-7.8,7.8-3,12.7-0.6c0,0-1.2,6-7.9,11.5&#10;&#9;&#9;&#9;&#9;C268.1,275,270.5,266.6,269.9,258.8z" id="el_oTAynFEl_Hn"/>
			<path d="M235.3,236.3c-0.4-2.4,1.2-6.3,3.9-8.3c4.8-3.6,10.9-2.4,12.1-1.2c0,0-3.4,6.8-10.3,10.5&#10;&#9;&#9;&#9;&#9;c5.4,0.8,21.1,0,33.8-3.9c13.9-4.2,4.2-7.8,3.6-15.7c-0.6-7.8-5.4-11.5-10.8-14.5s-12.7,3-30.2,18.1&#10;&#9;&#9;&#9;&#9;C225.3,231.6,230.5,235.1,235.3,236.3z" id="el_4-BzU-QTsXd"/>
			<path d="M249.4,246.7c-11.5-9.1-10.9,1.2-15.7,10.8c-4.8,9.7,4.2,13.9,5.4,15.1c0,0,8.4,2.4,22.3-0.6&#10;&#9;&#9;&#9;&#9;c2.7-0.6,4.5-1.2,5.6-1.8c-0.7-1.4-1.3-2.8-1.9-4.3c-0.8-1.7-1.1-3.2-0.9-4.6c0,0,0,0,0,0C263.1,256.8,260.8,255.7,249.4,246.7z" id="el_IdOVY3Avs6q"/>
			<path d="M265,266c0.7,1.4,1.3,2.9,1.9,4.3c4.7-2.5-2.1-5.2-2.9-8.8C264,262.8,264.3,264.3,265,266z" id="el_AWeyTwbHz0Y"/>
			<path d="M269.6,274.5c-5.3-1.3-10.2-0.3-10.6,7.2c-0.6,10.3-7.3,10.9,1.8,13.9c9,3,11.5,10.3,19.9,4.2&#10;&#9;&#9;&#9;&#9;c8.5-6,8.5-6,8.5-6s-6.5-13.3-13.5-16.9l0,0C273,277.2,271.1,276.2,269.6,274.5z" id="el_TRDV9dPuv4N"/>
			<path d="M275.6,276.9c-1.9-1-4-1.8-6-2.4C271.1,276.2,273,277.2,275.6,276.9z" id="el_E7VPGiAS_Cy"/>
			<path d="M250.8,359.7C250.8,359.7,250.8,359.7,250.8,359.7c-0.2-0.5-0.3-0.8-0.3-0.8s-0.5-0.4-1.4-1&#10;&#9;&#9;&#9;&#9;c-1.7-1.1-4.7-2.8-8.1-3.4h0c-0.2,0-0.3-0.1-0.5-0.1c-1.4-0.2-2.8-0.3-4.2,0c-0.2,0-0.5,0.1-0.7,0.1h0c-2.1,0.5-4.1,1.6-5.9,3.7&#10;&#9;&#9;&#9;&#9;c-0.9,1.1-1.8,2.4-2.6,4c-0.1,0.2-0.2,0.5-0.4,0.8c0,0.1-0.1,0.2-0.1,0.4c0,0,0.1,0.1,0.1,0.1V379c-0.5-0.2-1-0.3-1.3-0.3&#10;&#9;&#9;&#9;&#9;c-0.2,0-0.4,0.1-0.5,0.2c0.1-0.1,0.3-0.2,0.5-0.2c0.3,0,0.8,0.1,1.3,0.3v3.8c-0.3,0.2-0.6,0.3-0.9,0.5v0c-0.1,0-0.1,0.1-0.2,0.1&#10;&#9;&#9;&#9;&#9;c-0.5,0.3-1,0.7-1.5,1.2c0.8,0,1.6-0.1,2.6-0.2c0.2,0,0.5-0.1,0.8-0.1h0.1c0,0,0,0,0,0h0c2-0.3,3.9-0.6,5.6-1c0,0,0,0,0.1,0&#10;&#9;&#9;&#9;&#9;c0.7-0.1,1.3-0.3,1.9-0.4c0.1,0,0.2,0,0.2-0.1c4-1,7.1-2.3,9.6-4.4c0.6-0.5,1.2-1,1.8-1.7c0.9-1,1.7-2,2.6-3.3&#10;&#9;&#9;&#9;&#9;c0.2-0.3,0.4-0.6,0.6-0.9c0.5-0.9,0.9-1.7,1.2-2.5v0C252.5,365.4,251.4,361.3,250.8,359.7z M241.4,374c-3.6,3.6-3,1.8-7.2,1.2&#10;&#9;&#9;&#9;&#9;c-4.2-0.6-4.2-3-2.4-8.5c0.1-0.3,0.2-0.6,0.4-0.8c0.1-0.2,0.2-0.3,0.4-0.5c0,0,0,0,0,0c0.1-0.1,0.2-0.2,0.2-0.2&#10;&#9;&#9;&#9;&#9;c0.4-0.4,1-0.7,1.6-0.9c0.1,0,0.2-0.1,0.4-0.1c0,0,0.1,0,0.1,0c0,0,0,0,0,0c0.1,0,0.3-0.1,0.4-0.1c0.2,0,0.3,0,0.5-0.1&#10;&#9;&#9;&#9;&#9;c0.3,0,0.6,0,1,0c0,0,0,0,0,0s0,0,0,0c0.6,0,1.1,0.1,1.7,0.1c0.1,0,0.3,0,0.4,0.1c0,0,0.1,0,0.1,0c0.2,0,0.3,0.1,0.5,0.1&#10;&#9;&#9;&#9;&#9;c0,0,0.1,0,0.1,0c0.2,0,0.3,0.1,0.5,0.1c0.6,0.1,1.2,0.3,1.7,0.4c0.2,0,0.3,0.1,0.5,0.1c0.5,0.2,0.8,0.3,1.1,0.4&#10;&#9;&#9;&#9;&#9;c0.1,0,0.2,0.1,0.2,0.1c0.1,0,0.1,0,0.1,0.1c0,0,0,0,0,0c0,0,0.1,0,0.1,0c0,0,0,0,0,0S245,370.4,241.4,374z M224.2,382.8&#10;&#9;&#9;&#9;&#9;L224.2,382.8c0-0.3-0.1-1,0-1.8C224.1,381.9,224.1,382.8,224.2,382.8L224.2,382.8z" id="el_YA85AIHlXgD"/>
			<path d="M232.4,340.8c4.8,8.5,6.6,12.7,13.3,7.3s8.5-8.4,8.5-8.4l-8.5-10.2C245.7,329.4,227.6,332.3,232.4,340.8z" id="el_zHmIsGGZ9VD"/>
			<path d="M236.7,217.1c-1.5,5.7-5.6,8.6-10.1,9.3v-36.6c-0.4-1.1-0.8-2.2-1-3.5c0.3,0,0.6,0,1,0c5,0,9.2,0.8,9.5,1.2&#10;&#9;&#9;&#9;&#9;c1.5,2,2.4,5,2.8,8.5C239.6,202.1,238.7,209.8,236.7,217.1z" id="el__1NDR50Ql5E"/>
			<path d="M251.2,226.7c-1.2-1.2-7.2-2.4-12.1,1.2c-2.7,2-4.3,5.9-3.9,8.3c2.2,0.6,4.2,0.6,4.5,0.7&#10;&#9;&#9;&#9;&#9;c0.3,0.1,0.7,0.2,1.2,0.3C247.8,233.6,251.2,226.7,251.2,226.7z" id="el_oFAfsNCXsHU"/>
			<path d="M274.7,269.6c6.6-5.4,7.9-11.5,7.9-11.5c-4.8-2.4-13.3-7.3-12.7,0.6C270.5,266.6,268.1,275,274.7,269.6z" id="el_qyTZ-Thh2xS"/>
			<path d="M263.2,329.4c5.4-5.4,6-13.3,6-13.3s-12.1-8.5-13.3,0C254.7,324.5,257.7,334.8,263.2,329.4z" id="el__YWl891BLhT"/>
			<path d="M226.6,305.9V296c1.3,0.7,2.2,1.3,2.2,1.3s0,0,0.2,0.3c0.3,0.5,1,1.8,2.8,5.1&#10;&#9;&#9;&#9;&#9;C233.9,306.6,230.1,306.2,226.6,305.9z" id="el_qsrHfFRo41_"/>
			<path d="M243.8,365.6c0,0-10.3-4.2-12.1,1.2c-1.8,5.4-1.8,7.8,2.4,8.5s3.6,2.4,7.2-1.2&#10;&#9;&#9;&#9;&#9;C245,370.4,243.8,365.6,243.8,365.6z" id="el_ACky0cMAbsf"/>
		</g>
		<path d="M223.3,418.1c-1.1,14.7-1.6,20.6-5.5,21.7c-2.1,0.6-4.2,1-6.2,0.8v-25.4c1.2-1.2,2.2-2.1,2.9-2.6&#10;&#9;&#9;&#9;c-1.4,4.7,0.1,9.3,0.1,9.3c1.1,0,4.4-2.2,4.9-6c0.3-2.1-0.7-4.6-2-5.5C220.2,408.8,224.1,408,223.3,418.1z" id="el_VZ3pb4IOH1_"/>
		<path d="M211.6,410v-2.8C212,408.3,212.1,409.2,211.6,410z" id="el_9gvEJ-rKUHD"/>
		<path d="M234.8,384.3c0,0,1.6-2,2.7-2.6s2.6,0.5,5.1,2.7c2.6,2.2,0,7.3,0,7.3c0.4,0.3,0.8,0.5,1.2,0.8&#10;&#9;&#9;&#9;c0.7-1,1.7-1.7,2.9-2.1c-0.6-6.4-3.1-17.9-10.2-13C233.5,379.4,233.5,381.9,234.8,384.3z" id="el_sklsVmx6_qF"/>
		<path d="M242.4,384.4c-2.7-2.2-4.3-3.3-5.4-2.7c-1.1,0.5-2.8,2.6-2.8,2.6c1.7,2.8,5.3,5.5,8.2,7.4&#10;&#9;&#9;&#9;C242.4,391.7,245.1,386.6,242.4,384.4z" id="el_phKeRY9jJmv"/>
		<path d="M251,411.1c0,0,9.8-11.9,7.6-16.8c-1.4-3.1-7.7-5.4-12-3.9c-1.2,0.4-2.3,1.1-3,2.1c-0.8,1.1-1.3,2.5-1.3,4.4&#10;&#9;&#9;&#9;C242.4,407.2,251,411.1,251,411.1z" id="el_nsjh0HQaTFl"/>
		<path d="M242.4,357.8c0,0,8.4,2.7,11.5-1.6c0,0-8.2-4.4-8.7-7.1c-0.4-2.2,4.8-5.7,6.7-6.8c-1-0.5-2.1-0.5-3.4-0.2&#10;&#9;&#9;&#9;c-4.3,1.1-8.1-2.2-9.2,5.4C238.1,355.1,242.4,357.8,242.4,357.8z" id="el_RkHkst2-FAF"/>
		<path d="M245.1,349.2c0.5,2.7,8.7,7.1,8.7,7.1c0.6-0.8,0.9-1.9,1-3.3c0.4-6.1-0.8-9.5-3.1-10.7&#10;&#9;&#9;&#9;C249.9,343.5,244.7,346.9,245.1,349.2z" id="el_n2lmuRRHcYg"/>
		<path d="M242.4,370.9c0,0,12.5,5.4,12.5,0c0-5.4-8.1-7.6-13.6-10.3S238.1,367.6,242.4,370.9z" id="el_kqo256B0U2_"/>
		<path d="M233.1,406.7c-5.4,0.5-11.4,6.5-7.6,13c3.8,6.5,9.2,12.5,13.6,13c0.8,0.1,13-9.2,9.2-15.7&#10;&#9;&#9;&#9;S238.6,406.2,233.1,406.7z" id="el_I4oEc8kJMr3"/>
		<path d="M214.7,421.9c1.1,0,4.3-2.2,4.9-6c0.3-2.1-0.7-4.6-2-5.5c-1.2,0.7-2.2,1.6-2.3,1.7c-0.2,0.1-0.4,0.2-0.7,0.4&#10;&#9;&#9;&#9;C213.1,417.3,214.7,421.9,214.7,421.9z" id="el_D48bFceTDfh"/>
		<path d="M223.5,332l-0.2,0.1C223.4,332.1,223.5,332.1,223.5,332L223.5,332z" id="el_xwUXTG0GIz-"/>
	</g>
	<path d="M294.9,154.1c-1.1,1.9-2,2.8-2,2.8s-0.6-0.1-1.6-0.2c-1.4,1.9-3.1,4-4.8,6.4c-0.3,0.4-0.6,0.8-0.9,1.3&#10;&#9;&#9;c-30.9,43-99.2,162.6-12.9,285.8c0.8,1.2,1.6,2.3,2.4,3.4c1.1,1.6,2.3,3.1,3.5,4.7c1.7,2.2,3.4,4.4,5.2,6.7c-1.4-0.3-3.2-0.6-5.3-1&#10;&#9;&#9;c-0.2,0-0.4-0.1-0.6-0.1l0,0c-0.2-0.2-0.3-0.4-0.5-0.6c-2.5-3.2-5-6.4-7.3-9.6c-96.1-132.8-10.7-262.1,16.2-296.9&#10;&#9;&#9;c-3.7-0.4-12.6-1.9-12.6-5.5c0-0.9,0.3-2,0.7-3.1c2.4,0.1,4.8,0.3,7.3,0.5c0,0,0.1-0.1,0.2-0.3c0.9,0.5,2,1,3.2,1.6&#10;&#9;&#9;c0,0,0-0.1,0.1-0.1c0,0,0,0,0,0.1c1.6,0.8,3.5,1.7,5.6,2.5C292.1,153,293.5,153.5,294.9,154.1z" id="el_2lGgmZG1v12"/>
	<path d="M180.9,186.9c-11.7-3.6-23.4,9.5-33.7,32.2c-10.3,22.7,6.3,58.8,14.8,65.9c8.5,7.1,30.1,18.1,38.6,14.6&#10;&#9;&#9;c8.5-3.5,17.1-57,17.1-57s0-17.4-7.8-32.6C202.2,194.7,192.6,190.5,180.9,186.9z" id="el_DvaFnT6l93n"/>
	<path d="M286.4,156.7c-3.7-0.4-12.6-1.9-12.6-5.5c0-0.9,0.3-2,0.7-3.1c1.1-3,3.3-6.5,4.8-9.1&#10;&#9;&#9;c-1.2-0.6-2.3-1.2-3.3-1.7c-0.2,0.2-0.2,0.3-0.2,0.3c-116.9-10.4-154.6,105.1-154.6,105.1c-32.1,100,10.3,157.3,59.5,189.4&#10;&#9;&#9;c0,0,0,0,0,0c0,0,0,0,0,0c0.5,0.2,14.4,5.7,36.8,11.4c0,0,0,0,0,0c14.5,3.7,32.5,7.6,52.7,10.2&#10;&#9;&#9;C174.1,320.9,259.5,191.5,286.4,156.7z M200.6,299.6c-8.5,3.5-30.1-7.5-38.6-14.6c-0.1-0.1-0.2-0.2-0.3-0.3&#10;&#9;&#9;c-0.2-0.2-0.4-0.4-0.6-0.6c-0.1-0.1-0.2-0.2-0.3-0.3c-0.1-0.2-0.3-0.3-0.4-0.5c0,0,0-0.1-0.1-0.1c-0.2-0.2-0.4-0.4-0.5-0.6&#10;&#9;&#9;c-0.2-0.3-0.5-0.6-0.7-0.9c-0.2-0.3-0.5-0.6-0.7-1c-0.4-0.5-0.7-1.1-1.1-1.6c-0.2-0.4-0.5-0.8-0.7-1.2c-0.1-0.2-0.2-0.4-0.4-0.6&#10;&#9;&#9;c-0.4-0.6-0.7-1.3-1.1-2c-0.2-0.5-0.5-0.9-0.8-1.4c-0.2-0.5-0.5-1-0.7-1.5c-0.1-0.3-0.2-0.5-0.4-0.8c-0.2-0.5-0.5-1-0.7-1.5&#10;&#9;&#9;c-0.7-1.6-1.4-3.2-2.1-4.9c-0.2-0.6-0.4-1.2-0.7-1.7c-0.2-0.6-0.4-1.2-0.6-1.8c-0.4-1.2-0.8-2.4-1.2-3.7c-0.2-0.6-0.4-1.2-0.6-1.9&#10;&#9;&#9;c-0.2-0.6-0.3-1.3-0.5-1.9c-0.2-0.8-0.4-1.5-0.6-2.3c-0.1-0.3-0.1-0.7-0.2-1c-0.1-0.4-0.2-0.9-0.3-1.3c0-0.3-0.1-0.5-0.2-0.8&#10;&#9;&#9;c0-0.1,0-0.2,0-0.2c-0.2-0.8-0.3-1.7-0.4-2.5c-0.1-0.4-0.1-0.8-0.2-1.2c-0.1-0.8-0.2-1.6-0.3-2.3c-0.1-0.7-0.1-1.4-0.2-2.1&#10;&#9;&#9;c0-0.5-0.1-1.1-0.1-1.6l0-0.1c0-0.3,0-0.6,0-0.9c0-0.3,0-0.6,0-0.9c-0.1-3.9,0.2-7.8,1-11.4l0,0c0.5-2.3,1.2-4.6,2.2-6.7&#10;&#9;&#9;c0.6-1.3,1.2-2.6,1.8-3.9c0.3-0.6,0.6-1.3,0.9-1.9c0.8-1.7,1.7-3.3,2.6-4.8c0.3-0.5,0.6-1,0.8-1.5c0.3-0.5,0.6-1,0.9-1.5&#10;&#9;&#9;c0.3-0.4,0.5-0.9,0.8-1.3c0.3-0.5,0.6-1,0.9-1.5c0.2-0.3,0.4-0.6,0.6-0.9c0,0,0,0,0,0c0.5-0.7,0.9-1.3,1.4-2&#10;&#9;&#9;c0.3-0.4,0.6-0.8,0.9-1.2c1.3-1.7,2.5-3.2,3.8-4.5c0.6-0.7,1.3-1.3,1.9-1.9c0.6-0.6,1.3-1.1,1.9-1.6c0.3-0.2,0.5-0.4,0.8-0.6&#10;&#9;&#9;c0.2-0.2,0.5-0.3,0.7-0.5c0.2-0.1,0.5-0.3,0.7-0.4c0.3-0.2,0.5-0.3,0.8-0.5c0.3-0.2,0.6-0.4,1-0.5c0.3-0.1,0.6-0.3,0.8-0.4&#10;&#9;&#9;c0.2-0.1,0.4-0.2,0.6-0.3c0.6-0.3,1.3-0.5,1.9-0.6c0.2,0,0.3-0.1,0.5-0.1c0.1,0,0.2,0,0.3-0.1c0.1,0,0.1,0,0.2,0c0.1,0,0.1,0,0.2,0&#10;&#9;&#9;c0.2,0,0.3,0,0.5-0.1c0.1,0,0.1,0,0.2,0c0.1,0,0.1,0,0.2,0c0.2,0,0.3,0,0.5,0c0.6,0,1.2,0,1.8,0c0.1,0,0.1,0,0.1,0c0,0,0.1,0,0.1,0&#10;&#9;&#9;l0,0c0.1,0,0.1,0,0.2,0c0.5,0.1,1,0.1,1.5,0.3c0,0,0.1,0,0.1,0c0,0,0,0,0.1,0c0,0,0,0,0,0c0.2,0.1,0.5,0.1,0.7,0.2l0,0&#10;&#9;&#9;c0.5,0.2,1.1,0.3,1.6,0.5c0.4,0.1,0.8,0.3,1.3,0.4c0.5,0.2,0.9,0.3,1.4,0.5c0.3,0.1,0.7,0.2,1,0.4c0.4,0.1,0.7,0.3,1.1,0.4&#10;&#9;&#9;c0.3,0.1,0.6,0.3,1,0.4c0.3,0.1,0.7,0.3,1,0.4c0.3,0.1,0.7,0.3,1,0.4c0.3,0.1,0.7,0.3,1,0.5c0.3,0.2,0.6,0.3,1,0.5&#10;&#9;&#9;c0.6,0.3,1.3,0.7,1.9,1c0.3,0.2,0.6,0.4,0.9,0.6c0.3,0.2,0.6,0.4,0.9,0.6c0.3,0.2,0.6,0.4,0.9,0.6c0.6,0.4,1.2,0.9,1.8,1.4&#10;&#9;&#9;c0.2,0.2,0.5,0.4,0.7,0.6c0.1,0.1,0.3,0.2,0.4,0.4c0.2,0.2,0.3,0.3,0.5,0.5c0.3,0.3,0.6,0.6,1,0.9c0.3,0.3,0.6,0.6,0.8,0.9&#10;&#9;&#9;c1.4,1.5,2.7,3.1,4,5c0.6,0.9,1.3,1.9,1.9,3c0.3,0.5,0.6,1.1,0.9,1.6c0.1,0.3,0.3,0.6,0.5,0.9c0.1,0.3,0.3,0.6,0.5,0.9&#10;&#9;&#9;c0.4,0.7,0.7,1.4,1,2.2c0.2,0.4,0.3,0.7,0.5,1.1c0.3,0.7,0.6,1.5,0.9,2.2c0.1,0.4,0.3,0.7,0.4,1.1c0.3,0.7,0.5,1.4,0.8,2.2&#10;&#9;&#9;c0.3,1,0.6,1.9,0.9,2.9c0.2,0.6,0.3,1.2,0.5,1.8c0.1,0.5,0.3,1,0.4,1.5c0.3,1.3,0.6,2.6,0.8,3.8c0.1,0.8,0.3,1.5,0.4,2.2&#10;&#9;&#9;c0.1,0.5,0.2,1,0.2,1.5c0,0.3,0.1,0.6,0.1,0.9c0,0.3,0.1,0.6,0.1,0.8c0,0.3,0.1,0.5,0.1,0.8c0,0.2,0,0.3,0.1,0.5&#10;&#9;&#9;c0,0.3,0.1,0.7,0.1,1c0,0.3,0.1,0.6,0.1,0.9c0,0.3,0.1,0.6,0.1,0.9c0,0.3,0,0.6,0.1,0.8c0,0.3,0,0.5,0,0.7c0,0.1,0,0.2,0,0.3&#10;&#9;&#9;c0,0.2,0,0.3,0,0.5c0,0.1,0,0.1,0,0.2c0,0.1,0,0.1,0,0.2c0,1.1,0,1.7,0,1.7S209.2,296.1,200.6,299.6z M279.3,139&#10;&#9;&#9;C279.3,139,279.3,139,279.3,139c0.1-0.1,0.2-0.2,0.2-0.3C279.5,138.7,279.4,138.8,279.3,139z" id="el_-2lH_9eAygL"/>
	<path d="M283.5,470.6c-0.6,0-1.1,0-1.7,0c0,0-53.8-7.6-101.1-38.6c0.5,0.2,14.4,5.7,36.8,11.4c0,0,0,0,0,0&#10;&#9;&#9;c14.5,3.7,32.5,7.6,52.7,10.2c2.5,3.4,5,6.8,7.7,10.2l0,0C279.7,466.1,281.6,468.4,283.5,470.6z" id="el_PdcAbRzP5y-"/>
	<path d="M275.2,453.6c1.1,1.6,2.3,3.1,3.5,4.7l-0.1,5.6l0,0.7c-0.4-0.4-0.7-0.9-1-1.4c-1.9-2.9-3.5-7.3-4.7-13&#10;&#9;&#9;C273.5,451.4,274.3,452.5,275.2,453.6z" id="el_KKqOf6b78Xh"/>
</g></g></g>
<path d="M51.8,152.6l-0.2,8.5c-0.3,0.4-0.6,0.8-0.9,1.3C51.4,156.2,51.8,152.6,51.8,152.6z" id="el_1tgI9yDi02M"/>
<g id="el_cqAKkgHXvgE_an_fZQiNHa76" data-animator-group="true" data-animator-type="0"><g id="el_cqAKkgHXvgE_an_VZj3nfshI" data-animator-group="true" data-animator-type="2"><g id="el_cqAKkgHXvgE">
	<path d="M377.3,323.4c-4.9-1.7-9.1-3.4-11.7-5.1c-11-7.1-41.1-22.7-40.7-35.8c0.4-12.7,10.7-50.5,35-53.9&#10;&#9;&#9;C367.4,256.9,374.3,290.1,377.3,323.4z" id="el_54neeO3hGU1"/>
	<path d="M356.4,453.3c-3.7,0.4-7.4,0.7-11.1,0.9c-0.4,0-0.8,0.1-1.2,0.1c-1.3,0.1-2.5,0.1-3.7,0.2&#10;&#9;&#9;c-2.7,0.1-5.3,0.2-7.9,0.3c-1.1,0-2.2,0-3.3,0.1c-0.3,0-0.7,0-1,0c-1.2,0-2.4,0-3.5,0c-16.7,0-32.7-1.2-47.5-3.1&#10;&#9;&#9;c-96.1-132.8-10.7-262.1,16.2-296.9c1,0.1,1.6,0.2,1.6,0.2s0.9-1,2-2.8c1.2,0.5,2.5,0.9,3.8,1.4c10.4,3.7,23.6,6.8,37.6,6.3&#10;&#9;&#9;c4.9,13.2,13.5,38.2,21.6,68.8c-24.4,3.5-34.7,41.3-35,53.9c-0.4,13.1,29.7,28.7,40.7,35.8c2.6,1.7,6.8,3.4,11.7,5.1&#10;&#9;&#9;C381.6,370.8,377.9,418.6,356.4,453.3z" id="el_NRH44BqIrMu"/>
	<path d="M356.4,453.3c-0.1,0.2-0.2,0.3-0.3,0.5c-0.9,1.5-1.9,2.9-2.9,4.4c-1.3,1.9-3.9,4.3-5.3,6.1&#10;&#9;&#9;c-17.4,2.9-36.5,4.4-57.5,4.4c-1.6-1.9-3.1-3.8-4.6-5.6c-3-3.8-5.9-7.6-8.7-11.4c14.8,1.9,30.9,3.1,47.5,3.1c1.2,0,2.4,0,3.5,0&#10;&#9;&#9;c0.3,0,0.7,0,1,0c1.1,0,2.2,0,3.3-0.1c2.6-0.1,5.3-0.1,7.9-0.3c1.2,0,2.5-0.1,3.7-0.2c0.4,0,0.8,0,1.2-0.1&#10;&#9;&#9;C349,453.9,352.7,453.6,356.4,453.3z" id="el_jGw-iOx6zVR"/>
</g></g></g>
<g id="el_hsSWA01aFpC_an_nXL8b-bOC" data-animator-group="true" data-animator-type="1"><g id="el_hsSWA01aFpC">
	<path d="M275.3,86.7c3.2-1.1,6.4-0.7,9.6-0.1c18.8,3.6,28.4,25.4,18.3,41.7c-0.2,0.3-0.3,0.5-0.6,1.1c2.1-0.2,3.9-0.4,5.7-0.6&#10;&#9;&#9;c1.1-0.1,2.1-0.2,3.2-0.3c3.2-0.3,4.5,1.1,3.9,4.2c-0.3,0.3-0.6,0.7-0.8,1c-0.9,0.2-1.7,0.5-2.6,0.6c-5.3,0.6-10.6,1.1-15.8,1.6&#10;&#9;&#9;c-2.6,0.3-3.7-0.6-4-3.2c-0.6-5.5-1.1-10.9-1.7-16.4c-0.1-1.3,0.1-2.4,1.2-3.2c1.9-1.3,4.4-0.1,4.6,2.3c0.4,3.1,0.6,6.1,1,9.2&#10;&#9;&#9;c0,0.4,0.1,0.9,0.2,1.4c5.7-8.5,4.7-19.8-2.2-27.1c-4.7-5-10.5-7.2-17.3-6.9c-3.1,0.1-4.4-1.3-3.7-4.3&#10;&#9;&#9;C274.7,87.4,275,87,275.3,86.7z" id="el_WEu0XEj1Qa-"/>
</g></g>
<g id="el_gU14LLvDWkV_an_Ag3IPUU2t" data-animator-group="true" data-animator-type="0"><g id="el_gU14LLvDWkV_an_bqK6_qjCs" data-animator-group="true" data-animator-type="1"><g id="el_gU14LLvDWkV">
	<path d="M376.6,89.4c-3.2-1.1-6.4-0.7-9.6-0.1c-18.8,3.6-28.4,25.4-18.3,41.7c0.2,0.3,0.3,0.5,0.6,1.1c-2.1-0.2-3.9-0.4-5.7-0.6&#10;&#9;&#9;c-1.1-0.1-2.1-0.2-3.2-0.3c-3.2-0.3-4.5,1.1-3.9,4.2c0.3,0.3,0.6,0.7,0.8,1c0.9,0.2,1.7,0.5,2.6,0.6c5.3,0.6,10.6,1.1,15.8,1.6&#10;&#9;&#9;c2.6,0.3,3.7-0.6,4-3.2c0.6-5.5,1.1-10.9,1.7-16.4c0.1-1.3-0.1-2.4-1.2-3.2c-1.9-1.3-4.4-0.1-4.6,2.3c-0.4,3.1-0.6,6.1-1,9.2&#10;&#9;&#9;c0,0.4-0.1,0.9-0.2,1.4c-5.7-8.5-4.7-19.8,2.2-27.1c4.7-5,10.5-7.2,17.3-6.9c3.1,0.1,4.4-1.3,3.7-4.3&#10;&#9;&#9;C377.2,90.1,376.9,89.7,376.6,89.4z" id="el_Fti8It1LvoB"/>
</g></g></g>
</svg>