<svg version="1.1" id="el_QJS4PnUP1" xmlns="http://www.w3.org/2000/svg" xmlns:xlink="http://www.w3.org/1999/xlink" x="0px" y="0px" viewBox="0 0 499 477" style="enable-background:new 0 0 499.3 477.7;" xml:space="preserve"><style>@-webkit-keyframes kf_el__YFLF7BUnKd_an_R-IYA74Z0{35.56%{-webkit-transform: translate(286.7001037597656px, 87.09999084472656px) translate(-286.7001037597656px, -87.09999084472656px) translate(0px, 0px);transform: translate(286.7001037597656px, 87.09999084472656px) translate(-286.7001037597656px, -87.09999084472656px) translate(0px, 0px);}42.22%{-webkit-transform: translate(286.7001037597656px, 87.09999084472656px) translate(-286.7001037597656px, -87.09999084472656px) translate(30px, -20px);transform: translate(286.7001037597656px, 87.09999084472656px) translate(-286.7001037597656px, -87.09999084472656px) translate(30px, -20px);}61.11%{-webkit-transform: translate(286.7001037597656px, 87.09999084472656px) translate(-286.7001037597656px, -87.09999084472656px) translate(115px, -30px);transform: translate(286.7001037597656px, 87.09999084472656px) translate(-286.7001037597656px, -87.09999084472656px) translate(115px, -30px);}70%{-webkit-transform: translate(286.7001037597656px, 87.09999084472656px) translate(-286.7001037597656px, -87.09999084472656px) translate(500px, -20px);transform: translate(286.7001037597656px, 87.09999084472656px) translate(-286.7001037597656px, -87.09999084472656px) translate(500px, -20px);}0%{-webkit-transform: translate(286.7001037597656px, 87.09999084472656px) translate(-286.7001037597656px, -87.09999084472656px) translate(0px, 0px);transform: translate(286.7001037597656px, 87.09999084472656px) translate(-286.7001037597656px, -87.09999084472656px) translate(0px, 0px);}100%{-webkit-transform: translate(286.7001037597656px, 87.09999084472656px) translate(-286.7001037597656px, -87.09999084472656px) translate(500px, -20px);transform: translate(286.7001037597656px, 87.09999084472656px) translate(-286.7001037597656px, -87.09999084472656px) translate(500px, -20px);}}@keyframes kf_el__YFLF7BUnKd_an_R-IYA74Z0{35.56%{-webkit-transform: translate(286.7001037597656px, 87.09999084472656px) translate(-286.7001037597656px, -87.09999084472656px) translate(0px, 0px);transform: translate(286.7001037597656px, 87.09999084472656px) translate(-286.7001037597656px, -87.09999084472656px) translate(0px, 0px);}42.22%{-webkit-transform: translate(286.7001037597656px, 87.09999084472656px) translate(-286.7001037597656px, -87.09999084472656px) translate(30px, -20px);transform: translate(286.7001037597656px, 87.09999084472656px) translate(-286.7001037597656px, -87.09999084472656px) translate(30px, -20px);}61.11%{-webkit-transform: translate(286.7001037597656px, 87.09999084472656px) translate(-286.7001037597656px, -87.09999084472656px) translate(115px, -30px);transform: translate(286.7001037597656px, 87.09999084472656px) translate(-286.7001037597656px, -87.09999084472656px) translate(115px, -30px);}70%{-webkit-transform: translate(286.7001037597656px, 87.09999084472656px) translate(-286.7001037597656px, -87.09999084472656px) translate(500px, -20px);transform: translate(286.7001037597656px, 87.09999084472656px) translate(-286.7001037597656px, -87.09999084472656px) translate(500px, -20px);}0%{-webkit-transform: translate(286.7001037597656px, 87.09999084472656px) translate(-286.7001037597656px, -87.09999084472656px) translate(0px, 0px);transform: translate(286.7001037597656px, 87.09999084472656px) translate(-286.7001037597656px, -87.09999084472656px) translate(0px, 0px);}100%{-webkit-transform: translate(286.7001037597656px, 87.09999084472656px) translate(-286.7001037597656px, -87.09999084472656px) translate(500px, -20px);transform: translate(286.7001037597656px, 87.09999084472656px) translate(-286.7001037597656px, -87.09999084472656px) translate(500px, -20px);}}@-webkit-keyframes kf_el__YFLF7BUnKd_an_HglXyLK-V{35.56%{-webkit-transform: translate(286.7001037597656px, 87.09999084472656px) rotate(0deg) translate(-286.7001037597656px, -87.09999084472656px);transform: translate(286.7001037597656px, 87.09999084472656px) rotate(0deg) translate(-286.7001037597656px, -87.09999084472656px);}42.22%{-webkit-transform: translate(286.7001037597656px, 87.09999084472656px) rotate(20deg) translate(-286.7001037597656px, -87.09999084472656px);transform: translate(286.7001037597656px, 87.09999084472656px) rotate(20deg) translate(-286.7001037597656px, -87.09999084472656px);}61.11%{-webkit-transform: translate(286.7001037597656px, 87.09999084472656px) rotate(40deg) translate(-286.7001037597656px, -87.09999084472656px);transform: translate(286.7001037597656px, 87.09999084472656px) rotate(40deg) translate(-286.7001037597656px, -87.09999084472656px);}0%{-webkit-transform: translate(286.7001037597656px, 87.09999084472656px) rotate(0deg) translate(-286.7001037597656px, -87.09999084472656px);transform: translate(286.7001037597656px, 87.09999084472656px) rotate(0deg) translate(-286.7001037597656px, -87.09999084472656px);}100%{-webkit-transform: translate(286.7001037597656px, 87.09999084472656px) rotate(40deg) translate(-286.7001037597656px, -87.09999084472656px);transform: translate(286.7001037597656px, 87.09999084472656px) rotate(40deg) translate(-286.7001037597656px, -87.09999084472656px);}}@keyframes kf_el__YFLF7BUnKd_an_HglXyLK-V{35.56%{-webkit-transform: translate(286.7001037597656px, 87.09999084472656px) rotate(0deg) translate(-286.7001037597656px, -87.09999084472656px);transform: translate(286.7001037597656px, 87.09999084472656px) rotate(0deg) translate(-286.7001037597656px, -87.09999084472656px);}42.22%{-webkit-transform: translate(286.7001037597656px, 87.09999084472656px) rotate(20deg) translate(-286.7001037597656px, -87.09999084472656px);transform: translate(286.7001037597656px, 87.09999084472656px) rotate(20deg) translate(-286.7001037597656px, -87.09999084472656px);}61.11%{-webkit-transform: translate(286.7001037597656px, 87.09999084472656px) rotate(40deg) translate(-286.7001037597656px, -87.09999084472656px);transform: translate(286.7001037597656px, 87.09999084472656px) rotate(40deg) translate(-286.7001037597656px, -87.09999084472656px);}0%{-webkit-transform: translate(286.7001037597656px, 87.09999084472656px) rotate(0deg) translate(-286.7001037597656px, -87.09999084472656px);transform: translate(286.7001037597656px, 87.09999084472656px) rotate(0deg) translate(-286.7001037597656px, -87.09999084472656px);}100%{-webkit-transform: translate(286.7001037597656px, 87.09999084472656px) rotate(40deg) translate(-286.7001037597656px, -87.09999084472656px);transform: translate(286.7001037597656px, 87.09999084472656px) rotate(40deg) translate(-286.7001037597656px, -87.09999084472656px);}}@-webkit-keyframes kf_el_txxMtwsniK_an_yv9prSCZG{35.56%{-webkit-transform: translate(0px, 79.69999694824219px) translate(0px, -79.69999694824219px) translate(0px, 0px);transform: translate(0px, 79.69999694824219px) translate(0px, -79.69999694824219px) translate(0px, 0px);}76.67%{-webkit-transform: translate(0px, 79.69999694824219px) translate(0px, -79.69999694824219px) translate(0px, 200px);transform: translate(0px, 79.69999694824219px) translate(0px, -79.69999694824219px) translate(0px, 200px);}0%{-webkit-transform: translate(0px, 79.69999694824219px) translate(0px, -79.69999694824219px) translate(0px, 0px);transform: translate(0px, 79.69999694824219px) translate(0px, -79.69999694824219px) translate(0px, 0px);}100%{-webkit-transform: translate(0px, 79.69999694824219px) translate(0px, -79.69999694824219px) translate(0px, 200px);transform: translate(0px, 79.69999694824219px) translate(0px, -79.69999694824219px) translate(0px, 200px);}}@keyframes kf_el_txxMtwsniK_an_yv9prSCZG{35.56%{-webkit-transform: translate(0px, 79.69999694824219px) translate(0px, -79.69999694824219px) translate(0px, 0px);transform: translate(0px, 79.69999694824219px) translate(0px, -79.69999694824219px) translate(0px, 0px);}76.67%{-webkit-transform: translate(0px, 79.69999694824219px) translate(0px, -79.69999694824219px) translate(0px, 200px);transform: translate(0px, 79.69999694824219px) translate(0px, -79.69999694824219px) translate(0px, 200px);}0%{-webkit-transform: translate(0px, 79.69999694824219px) translate(0px, -79.69999694824219px) translate(0px, 0px);transform: translate(0px, 79.69999694824219px) translate(0px, -79.69999694824219px) translate(0px, 0px);}100%{-webkit-transform: translate(0px, 79.69999694824219px) translate(0px, -79.69999694824219px) translate(0px, 200px);transform: translate(0px, 79.69999694824219px) translate(0px, -79.69999694824219px) translate(0px, 200px);}}#el_QJS4PnUP1 *{-webkit-animation-duration: 3s;animation-duration: 3s;-webkit-animation-iteration-count: infinite;animation-iteration-count: infinite;-webkit-animation-timing-function: cubic-bezier(0, 0, 1, 1);animation-timing-function: cubic-bezier(0, 0, 1, 1);}#el_kj_tcJ2K-F{fill: none;stroke: #940F17;stroke-width: 0.3543;stroke-miterlimit: 10;}#el_gqyAg4bIet{fill: #D61D45;}#el_-ESgFK2FWV{fill: #D61D45;}#el_20nscMWpJ-{fill: #C6395B;}#el_kNzXd1yAXR{fill: #D61D45;}#el_g_b37wvoMm{fill: none;stroke: #940F17;stroke-width: 0.3543;stroke-miterlimit: 10;}#el_jOTRDfy1Za{fill: #D01128;}#el_Z7f_KdkPbw{fill: #8D171D;}#el_ecz5ZxOCy5{fill: #D18A4A;}#el_VoTxQVJzwo{fill: #050503;}#el_yHt7ZF0Fqz{fill: none;stroke: #8D171D;stroke-width: 0.6108;stroke-miterlimit: 10;}#el_Bt9ndqHKfS{fill: #F0F0F0;}#el_DKHWWG5ayH{fill: #E4E4E4;}#el_svTCeEKTfWi{fill: none;stroke: #D18A4A;stroke-miterlimit: 10;}#el_09TuUKz62IX{fill: #893C00;}#el_rPF4oveUBzT{fill: #954918;}#el_7g0WKiV1c9B{fill: #B56411;}#el_EGojDgomIFl{fill: #C6395B;}#el_nvhDYeX_ZAC{fill: #D36E3E;}#el_Jj7f5s7iO6N{fill: #D01128;}#el_txxMtwsniK_an_yv9prSCZG{-webkit-animation-fill-mode: backwards;animation-fill-mode: backwards;-webkit-transform: translate(0px, 79.69999694824219px) translate(0px, -79.69999694824219px) translate(0px, 0px);transform: translate(0px, 79.69999694824219px) translate(0px, -79.69999694824219px) translate(0px, 0px);-webkit-animation-name: kf_el_txxMtwsniK_an_yv9prSCZG;animation-name: kf_el_txxMtwsniK_an_yv9prSCZG;-webkit-animation-timing-function: cubic-bezier(0, 0, 1, 1);animation-timing-function: cubic-bezier(0, 0, 1, 1);}#el_WujS1Tw2Sv_an_pW56u8kEg{-webkit-transform: translate(122.38279724121094px, 144.04989624023438px) rotate(0deg) translate(-122.38279724121094px, -144.04989624023438px);transform: translate(122.38279724121094px, 144.04989624023438px) rotate(0deg) translate(-122.38279724121094px, -144.04989624023438px);}#el__YFLF7BUnKd_an_HglXyLK-V{-webkit-animation-fill-mode: backwards;animation-fill-mode: backwards;-webkit-transform: translate(286.7001037597656px, 87.09999084472656px) rotate(0deg) translate(-286.7001037597656px, -87.09999084472656px);transform: translate(286.7001037597656px, 87.09999084472656px) rotate(0deg) translate(-286.7001037597656px, -87.09999084472656px);-webkit-animation-name: kf_el__YFLF7BUnKd_an_HglXyLK-V;animation-name: kf_el__YFLF7BUnKd_an_HglXyLK-V;-webkit-animation-timing-function: cubic-bezier(0, 0, 1, 1);animation-timing-function: cubic-bezier(0, 0, 1, 1);}#el__YFLF7BUnKd_an_R-IYA74Z0{-webkit-animation-fill-mode: backwards;animation-fill-mode: backwards;-webkit-transform: translate(286.7001037597656px, 87.09999084472656px) translate(-286.7001037597656px, -87.09999084472656px) translate(0px, 0px);transform: translate(286.7001037597656px, 87.09999084472656px) translate(-286.7001037597656px, -87.09999084472656px) translate(0px, 0px);-webkit-animation-name: kf_el__YFLF7BUnKd_an_R-IYA74Z0;animation-name: kf_el__YFLF7BUnKd_an_R-IYA74Z0;-webkit-animation-timing-function: cubic-bezier(0, 0, 1, 1);animation-timing-function: cubic-bezier(0, 0, 1, 1);}</style>

<path d="M386.7,0.1C386.7,0.2,386.7,0.2,386.7,0.1c-0.1,0.1-0.1,0.1-0.2,0.1" id="el_kj_tcJ2K-F"/>
<g id="el_WujS1Tw2Sv">
	<path d="M193.2,194.1c-11.7-3.5-23.4,9.6-33.7,32.2c-10.3,22.7,6.4,58.8,14.9,65.9c8.5,7.1,30.1,18.1,38.6,14.5&#10;&#9;&#9;c8.5-3.5,17-57,17-57s0-17.4-7.8-32.6C214.4,201.9,204.8,197.7,193.2,194.1z" id="el_gqyAg4bIet"/>
	<path d="M405.7,250.4c-17.4-11.3-11.7-14.2-37.9-13.1c-26.2,1.1-37.2,41.1-37.6,54.2c-0.4,13.1,29.8,28.7,40.7,35.8&#10;&#9;&#9;c11,7.1,51.4,15.6,51.4,15.6s0,0,7.1-2.1c7.1-2.1,7.4-10.3,12-24.8c4.6-14.5,0-17-6-34S423.1,261.8,405.7,250.4z" id="el_-ESgFK2FWV"/>
	<path d="M305.7,151.9c0,0.1,0,0.2,0,0.2c-0.1,0.5-0.2,1-0.4,1.6c-1.8,6.5-5.1,10.3-5.1,10.3s-14.2-1.1-14.2-5.7&#10;&#9;&#9;c0-3.1,3.4-8.6,5.5-12.3c0.1-0.1,0.1-0.2,0.2-0.4c-0.1,0.1-0.1,0.2-0.2,0.4C295.3,147.9,300.1,150,305.7,151.9z" id="el_20nscMWpJ-"/>
	<path d="M361.1,193.4c9.6,2.1,29.1,4.3,30.1,0c1.1-4.3-17.4-16.7-17.4-16.7c-1.4,0.4-14.5-10.6-14.5,0&#10;&#9;&#9;S351.5,191.3,361.1,193.4z" id="el_kNzXd1yAXR"/>
	<path d="M351.2,152" id="el_g_b37wvoMm"/>
	<path d="M371.4,153.4C371.4,153.4,371.4,153.4,371.4,153.4C371.4,153.4,371.4,153.4,371.4,153.4c0,0-0.1-0.1-0.2-0.2&#10;&#9;&#9;c-23.7,9.4-48.2,4.8-65.5-1.2c0,0.1,0,0.2,0,0.2c-0.1,0.5-0.2,1-0.4,1.6c-1.8,6.5-5.1,10.3-5.1,10.3s-14.2-1.1-14.2-5.7&#10;&#9;&#9;c0-3.1,3.4-8.6,5.5-12.3c-1.2-0.6-2.3-1.2-3.3-1.7c-0.1,0.2-0.2,0.3-0.2,0.3C171,134.4,133.5,249.9,133.5,249.9&#10;&#9;&#9;c-32,100,10.4,157.2,59.7,189.3c0,0,0,0,0,0c0,0,0,0,0,0c1.6,0.6,124.4,48.8,233.5,8.5c50.5-30.7,71.6-83.6,72.7-151.6&#10;&#9;&#9;C501,185.3,371.4,153.4,371.4,153.4z M213,306.8c-8.5,3.5-30.1-7.4-38.6-14.5c-0.4-0.3-0.8-0.8-1.3-1.2c-0.1-0.1-0.3-0.3-0.4-0.5&#10;&#9;&#9;c-0.2-0.2-0.4-0.5-0.6-0.7c-0.2-0.3-0.5-0.6-0.7-0.9c-0.2-0.3-0.5-0.6-0.7-1c-0.4-0.5-0.7-1.1-1.1-1.6c-0.2-0.4-0.5-0.8-0.8-1.2&#10;&#9;&#9;c-0.1-0.2-0.2-0.4-0.4-0.6c-0.4-0.6-0.8-1.3-1.1-2c-0.2-0.5-0.5-0.9-0.8-1.4c-0.2-0.5-0.5-1-0.8-1.5c-0.1-0.2-0.2-0.5-0.4-0.8&#10;&#9;&#9;c-0.2-0.5-0.5-1-0.7-1.5c-0.7-1.6-1.5-3.2-2.1-4.9c-0.2-0.6-0.5-1.2-0.7-1.7c-0.2-0.6-0.4-1.2-0.7-1.8c-0.4-1.2-0.8-2.4-1.2-3.7&#10;&#9;&#9;c-0.2-0.6-0.4-1.2-0.6-1.9s-0.4-1.3-0.5-1.9c-0.2-0.8-0.4-1.5-0.6-2.3c-0.1-0.3-0.1-0.7-0.2-1c-0.1-0.4-0.2-0.9-0.3-1.3&#10;&#9;&#9;c-0.1-0.3-0.1-0.7-0.2-1c-0.2-0.8-0.3-1.7-0.4-2.5c-0.1-0.4-0.1-0.8-0.2-1.2c-0.1-0.8-0.2-1.6-0.3-2.3c-0.1-0.7-0.1-1.4-0.2-2.1&#10;&#9;&#9;c0-0.5-0.1-1.1-0.1-1.6c0-0.3,0-0.6,0-1c0-0.3,0-0.6,0-0.9c-0.2-6.4,0.8-12.7,3.2-18.1c0.6-1.3,1.2-2.7,1.8-3.9&#10;&#9;&#9;c0.3-0.6,0.6-1.3,0.9-1.9c0.8-1.7,1.7-3.3,2.5-4.8c0.3-0.5,0.6-1,0.8-1.5c0.3-0.5,0.6-1,0.9-1.5c0.3-0.4,0.5-0.9,0.8-1.3&#10;&#9;&#9;c2.5-4,5-7.4,7.5-10.1c0.6-0.7,1.3-1.3,1.9-1.9c0.6-0.6,1.3-1.1,1.9-1.6c0.3-0.2,0.5-0.4,0.8-0.6c0.2-0.2,0.4-0.3,0.7-0.5&#10;&#9;&#9;c0.2-0.2,0.5-0.3,0.7-0.5c0.3-0.2,0.5-0.3,0.8-0.5c0.3-0.2,0.6-0.4,1-0.5c2.6-1.3,5.1-1.9,7.7-1.7c0,0,0.1,0,0.1,0c0,0,0.1,0,0.1,0&#10;&#9;&#9;c0.6,0,1.2,0.1,1.7,0.3c0,0,0.1,0,0.1,0c0.3,0.1,0.5,0.1,0.8,0.2h0c2.2,0.7,4.4,1.4,6.4,2.1c0.3,0.1,0.6,0.2,1,0.4&#10;&#9;&#9;c1,0.4,2,0.8,3,1.3c0.3,0.2,0.7,0.3,1,0.5c0.7,0.3,1.3,0.7,1.9,1c0.3,0.2,0.6,0.4,0.9,0.6c0.3,0.2,0.6,0.4,0.9,0.6&#10;&#9;&#9;c0.3,0.2,0.6,0.4,0.9,0.6c0.6,0.4,1.2,0.9,1.8,1.3c0.2,0.2,0.5,0.4,0.7,0.6c0.7,0.5,1.3,1.1,1.9,1.7c0.3,0.3,0.6,0.6,0.8,0.9&#10;&#9;&#9;c1.4,1.5,2.7,3.1,4,5c0.7,0.9,1.3,1.9,1.9,3c0.3,0.5,0.6,1.1,0.9,1.6c0.1,0.3,0.3,0.6,0.5,0.9c0.2,0.3,0.3,0.6,0.5,0.9&#10;&#9;&#9;c0.4,0.7,0.7,1.4,1,2.2c0.2,0.4,0.3,0.7,0.5,1.1c0.3,0.7,0.6,1.5,0.9,2.2c0.2,0.4,0.3,0.7,0.4,1.1c0.3,0.7,0.5,1.4,0.8,2.2&#10;&#9;&#9;c0.3,1,0.6,1.9,0.9,2.9c0.7,2.5,1.3,4.9,1.7,7.1c0.2,0.8,0.3,1.5,0.4,2.2c0.1,0.5,0.2,1,0.2,1.5c0,0.3,0.1,0.6,0.1,0.9&#10;&#9;&#9;c0.1,0.6,0.1,1.1,0.2,1.6c0,0.2,0,0.3,0.1,0.5c0,0.3,0.1,0.7,0.1,1c0,0.3,0.1,0.6,0.1,0.9c0,0.3,0.1,0.6,0.1,0.9&#10;&#9;&#9;c0,0.3,0,0.5,0.1,0.8c0,0.3,0,0.5,0,0.7c0,0.1,0,0.2,0,0.3c0,0.2,0,0.3,0,0.5c0,0.2,0,0.3,0,0.4c0,1.1,0,1.7,0,1.7&#10;&#9;&#9;S221.5,303.2,213,306.8z M359.3,176.8c0-10.6,13.1,0.3,14.5,0c0,0,0,0,0,0c0,0,0,0,0,0c0,0,0,0,0.1,0.1c0,0,0,0,0.1,0&#10;&#9;&#9;c0,0,0.1,0,0.1,0.1c0.1,0.1,0.3,0.2,0.5,0.3c0.1,0.1,0.2,0.1,0.3,0.2c1.1,0.7,2.9,2,4.9,3.5c0.3,0.2,0.5,0.4,0.8,0.6&#10;&#9;&#9;c1.8,1.4,3.8,3,5.6,4.6c0.2,0.2,0.5,0.5,0.7,0.7c0.4,0.4,0.7,0.7,1,1c0.2,0.2,0.4,0.4,0.6,0.7c0,0,0,0,0,0c0.1,0.2,0.3,0.3,0.4,0.5&#10;&#9;&#9;c0.1,0.2,0.3,0.3,0.4,0.5c0,0,0,0,0,0c0.2,0.2,0.3,0.4,0.5,0.6c0.2,0.2,0.3,0.4,0.4,0.6c0,0,0,0,0,0c0.2,0.3,0.4,0.6,0.5,0.8&#10;&#9;&#9;c0,0,0,0,0,0c0.1,0.1,0.1,0.3,0.2,0.4c0,0.1,0.1,0.2,0.1,0.4c0,0.1,0.1,0.2,0.1,0.3c0,0.1,0,0.2,0,0.3c0,0.1,0,0.1,0,0.2&#10;&#9;&#9;c0,0.1,0,0.1,0,0.2c0,0.1,0,0.2-0.1,0.2c0,0.1-0.1,0.2-0.1,0.2c0,0.1-0.1,0.1-0.1,0.2c-0.1,0.1-0.1,0.2-0.2,0.2&#10;&#9;&#9;c-0.1,0.1-0.2,0.2-0.3,0.2c-0.4,0.2-0.8,0.4-1.4,0.6c-0.1,0-0.2,0.1-0.3,0.1c-0.1,0-0.3,0.1-0.4,0.1c0,0,0,0,0,0&#10;&#9;&#9;c-0.3,0.1-0.7,0.2-1.1,0.2c-0.2,0-0.4,0-0.6,0.1c-0.3,0-0.6,0.1-0.9,0.1c-0.5,0-1,0.1-1.5,0.1c-0.9,0-1.8,0-2.8,0&#10;&#9;&#9;c-0.2,0-0.4,0-0.7,0c-0.3,0-0.6,0-1,0c-0.4,0-0.9,0-1.4-0.1c0,0,0,0,0,0c-0.4,0-0.9,0-1.4-0.1c-0.5,0-0.9-0.1-1.4-0.1&#10;&#9;&#9;c-0.9-0.1-1.9-0.2-2.8-0.3c-1.9-0.2-3.8-0.5-5.5-0.7c-0.4-0.1-0.9-0.1-1.3-0.2c-1.7-0.3-3.3-0.6-4.7-0.9c-0.2,0-0.5-0.1-0.7-0.1&#10;&#9;&#9;c-0.4-0.1-0.8-0.2-1.1-0.3c-0.9-0.3-1.5-0.6-2-1c-0.1-0.1-0.2-0.1-0.3-0.2c-0.2-0.2-0.4-0.4-0.5-0.6c0-0.1-0.1-0.1-0.1-0.2&#10;&#9;&#9;c0-0.1-0.1-0.2-0.1-0.4c0-0.1,0-0.1,0-0.2C356,187.7,359.3,183.6,359.3,176.8z M443.1,309.8c-0.1,0.4-0.1,0.8-0.2,1.2v0&#10;&#9;&#9;c-0.1,0.4-0.2,0.9-0.3,1.3c-0.1,0.2-0.1,0.5-0.2,0.7c-0.2,0.9-0.5,1.9-0.8,2.9c-1,3.2-1.8,6-2.5,8.6v0c-0.1,0.5-0.3,1.1-0.5,1.6&#10;&#9;&#9;c-0.1,0.3-0.1,0.5-0.2,0.8l-0.2,0.8c-0.2,0.7-0.4,1.3-0.6,1.9c-0.7,2.4-1.5,4.5-2.4,6.2c-0.1,0.3-0.3,0.5-0.4,0.8&#10;&#9;&#9;c-0.2,0.2-0.3,0.5-0.5,0.7c-0.1,0.2-0.3,0.4-0.4,0.6c0,0-0.1,0.1-0.1,0.1c-0.2,0.2-0.3,0.4-0.5,0.5c-0.4,0.4-0.8,0.8-1.3,1.1&#10;&#9;&#9;c-0.1,0.1-0.2,0.2-0.4,0.2c-0.2,0.1-0.3,0.2-0.5,0.3c-0.2,0.1-0.3,0.2-0.5,0.2c-0.4,0.2-0.7,0.3-1.1,0.4c-7.1,2.1-7.1,2.1-7.1,2.1&#10;&#9;&#9;s-40.4-8.5-51.4-15.6c-11-7.1-41.1-22.7-40.7-35.8c0.3-13.1,11.3-53.2,37.5-54.2c26.2-1.1,20.5,1.8,37.9,13.1&#10;&#9;&#9;c1.9,1.2,3.6,2.3,5.2,3.4c0.3,0.2,0.6,0.4,1,0.6c0.6,0.4,1.2,0.8,1.8,1.2c0.6,0.4,1.2,0.8,1.8,1.2c0.3,0.2,0.6,0.4,0.8,0.6&#10;&#9;&#9;c0.3,0.2,0.5,0.4,0.8,0.6c0.5,0.3,0.9,0.7,1.4,1c0.2,0.1,0.4,0.3,0.6,0.4c0.4,0.3,0.7,0.5,1.1,0.8c0.2,0.2,0.5,0.4,0.7,0.5&#10;&#9;&#9;c0.4,0.3,0.9,0.7,1.3,1c0.5,0.4,0.9,0.8,1.4,1.2c0.2,0.2,0.4,0.3,0.6,0.5c0.4,0.4,0.8,0.7,1.2,1.1c0.1,0.1,0.3,0.3,0.4,0.4&#10;&#9;&#9;c0.1,0.1,0.3,0.3,0.4,0.4c0.1,0.2,0.3,0.3,0.4,0.4c0.8,0.8,1.5,1.7,2.2,2.7c0.1,0.2,0.2,0.3,0.4,0.5c0.1,0.2,0.2,0.3,0.3,0.5&#10;&#9;&#9;c0.2,0.3,0.5,0.7,0.7,1c0.2,0.3,0.4,0.7,0.6,1c0.2,0.4,0.4,0.7,0.6,1.1c0.1,0.2,0.2,0.4,0.3,0.6c0.2,0.4,0.4,0.8,0.6,1.2&#10;&#9;&#9;c0.1,0.2,0.2,0.4,0.3,0.6c0.1,0.2,0.2,0.4,0.3,0.6c0.2,0.4,0.4,0.8,0.6,1.3v0c0.2,0.5,0.4,0.9,0.6,1.4c0.2,0.5,0.4,1,0.6,1.4&#10;&#9;&#9;c0.3,0.7,0.6,1.5,0.9,2.3c0.5,1.5,1.1,2.9,1.6,4.2c1.1,3,2.2,5.4,3.1,7.6c0.2,0.5,0.4,1,0.6,1.4c0.5,1.2,0.9,2.3,1.3,3.4&#10;&#9;&#9;c0.1,0.3,0.2,0.6,0.3,0.9c0.1,0.2,0.1,0.5,0.2,0.7c0.1,0.2,0.1,0.4,0.2,0.7c0.1,0.4,0.2,0.8,0.3,1.2c0.1,0.3,0.1,0.6,0.1,0.9&#10;&#9;&#9;c0,0.3,0.1,0.6,0.1,0.9c0,0.3,0.1,0.5,0.1,0.8c0,0.1,0,0.3,0,0.4C443.4,306.6,443.3,308.1,443.1,309.8z M291.5,146.1&#10;&#9;&#9;C291.5,146.1,291.5,146.1,291.5,146.1c0.1-0.1,0.2-0.2,0.2-0.4C291.6,145.8,291.6,145.9,291.5,146.1z" id="el_jOTRDfy1Za"/>
	<path d="M426.6,447.8c-31.7,19.3-75.1,29.9-132.3,29.9c0,0-53.8-7.6-101.2-38.5C194.7,439.9,317.5,488.1,426.6,447.8z" id="el_Z7f_KdkPbw"/>
</g>
<g id="el_txxMtwsniK_an_yv9prSCZG" data-animator-group="true" data-animator-type="0"><g id="el_txxMtwsniK">
	<path d="M207.7,124.9H15.3c-8.5,0-15.3-6.9-15.3-15.3V95c0-8.5,6.9-15.3,15.3-15.3h192.4V124.9z" id="el_ecz5ZxOCy5"/>
	<rect x="207.7" y="81.6" width="17.7" height="40.9" id="el_VoTxQVJzwo"/>
	<path d="M225.4,116.7c-0.1,0-0.2,0-0.3,0" id="el_yHt7ZF0Fqz"/>
	<path d="M445.4,110.9c-40.5,15.6-205.1,18.3-205.1,18.3c-0.9-4-3-7.4-5.9-9.7c-2.2-1.7-5.1-2.7-8.9-2.8V89.5l108.4,0.3&#10;&#9;&#9;c25.7,2,63.8,5.4,96.5,15.3C436,106.8,441,108.8,445.4,110.9z" id="el_Bt9ndqHKfS"/>
	<path d="M460.3,119.7c-17.3,3.9-35.4,7.4-54.4,10.4c-60.8,9.6-116.7,11.8-166,10.1c1.1-3.9,1.1-7.6,0.4-11&#10;&#9;&#9;c0,0,164.6-2.7,205.1-18.3C451.5,113.8,456.3,116.9,460.3,119.7z" id="el_DKHWWG5ayH"/>
</g></g>
<path d="M291.5,146.1C291.5,146.1,291.5,146.1,291.5,146.1" id="el_svTCeEKTfWi"/>
<g id="el__YFLF7BUnKd_an_R-IYA74Z0" data-animator-group="true" data-animator-type="0"><g id="el__YFLF7BUnKd_an_HglXyLK-V" data-animator-group="true" data-animator-type="1"><g id="el__YFLF7BUnKd">
	<path d="M371.5,111.4c-19.4,16-21.7,28.8-21.4,34.8c-0.1-0.4-0.1-0.7-0.2-1.1c0,0,0,0,0,0c-1.4-8.4-2.4-16.1-2.6-18&#10;&#9;&#9;c2.2,1.7,10.1-20.8,11.8-24.8c1.8-4.3,4.3-14.9,4.3-14.9S375.1,82.6,371.5,111.4z" id="el_09TuUKz62IX"/>
	<path d="M382,114.6C382,114.6,382,114.6,382,114.6C382,114.6,382,114.6,382,114.6c0,0-0.1,0-0.1,0.1&#10;&#9;&#9;c0,0-0.1,0.1-0.2,0.1c-0.2,0.1-0.4,0.2-0.7,0.3c-0.1,0-0.2,0.1-0.3,0.1c-0.8,0.3-1.9,0.8-3.3,1.4c-0.2,0.1-0.4,0.2-0.6,0.3&#10;&#9;&#9;c-3,1.4-7,3.5-10.9,6.2c-0.2,0.2-0.5,0.3-0.7,0.5c-0.2,0.2-0.5,0.3-0.7,0.5c-0.4,0.3-0.9,0.6-1.3,1c-1,0.8-2,1.6-3,2.4&#10;&#9;&#9;c-0.2,0.2-0.5,0.4-0.7,0.6c-0.9,0.8-1.8,1.7-2.6,2.6c-0.2,0.2-0.4,0.4-0.6,0.7c-1.2,1.3-2.2,2.7-3.1,4.2c-0.2,0.3-0.3,0.5-0.4,0.8&#10;&#9;&#9;c-0.1,0.2-0.2,0.5-0.4,0.7c-0.2,0.3-0.3,0.6-0.4,0.9c-0.1,0.2-0.2,0.5-0.3,0.7c-0.1,0.3-0.2,0.6-0.3,0.9c-0.1,0.3-0.2,0.5-0.3,0.8&#10;&#9;&#9;c-0.1,0.2-0.1,0.5-0.2,0.7c-0.1,0.3-0.2,0.6-0.2,0.9c0,0.2-0.1,0.4-0.1,0.5c-0.2,1.3-0.3,2.7-0.2,4.1c0-0.1,0-0.2,0-0.2&#10;&#9;&#9;c0-0.1,0-0.1,0-0.2c-0.3-6,2-18.8,21.4-34.8c0,0,0,0,0,0l0.2-0.2l9.4-9.8C381.1,101.4,386.9,106,382,114.6z" id="el_rPF4oveUBzT"/>
	<path d="M335.5,96.8c-0.4,1.1-3.5,9.8-9.2,14.1c-4.5,3.4-12.3,20.9-16,29.6c-1.3,3-2,4.9-2,4.9s0-1.1,0-3&#10;&#9;&#9;c0,0.2,0,0.3,0,0.5c0,0,1.2-24.9-20.4-47.2c-0.3-0.3-0.6-0.6-0.9-1v0c-0.2-4.4-0.1-7.1-0.1-7.1s9.9-2.5,10.3,7.5&#10;&#9;&#9;c0,0,8.5-2.1,12.4,11.7c3.9,13.9,3.9,17.1,3.9,17.1s15.6-35.5,17-36.6c1.4-1.1,5,9.6,5,9.6L335.5,96.8z" id="el_7g0WKiV1c9B"/>
	<path d="M306.4,147.2c0,0.4,0,0.8-0.1,1.3c0,0.5-0.1,1-0.2,1.5c-0.1,0.6-0.1,1.2-0.2,1.8c-0.1,0.5-0.2,1-0.3,1.4&#10;&#9;&#9;c-5.6-2-10.4-4.1-14.1-5.9c0.1-0.1,0.1-0.2,0.2-0.4c0.9-1.5,1.5-2.7,1.4-3.1c0-0.1,0-0.4,0.1-0.7c0.1-0.2,0.2-0.5,0.3-0.8&#10;&#9;&#9;c0.2-0.5,0.5-1.1,0.8-1.8c0.1-0.3,0.3-0.5,0.4-0.8c0.4-0.8,0.9-1.6,1.5-2.4c1.9-2.6,4.2-4.3,5.9-1.2c1.1,2,2,3.2,2.8,4.2&#10;&#9;&#9;c0.1,0.1,0.2,0.3,0.3,0.4c0,0,0,0,0,0c0.1,0.1,0.2,0.3,0.3,0.4c0.1,0.2,0.2,0.3,0.3,0.5c0.1,0.2,0.2,0.5,0.3,0.7&#10;&#9;&#9;c0.2,0.4,0.3,0.8,0.4,1.3c0,0.2,0,0.3,0.1,0.5C306.5,144.9,306.5,145.9,306.4,147.2z" id="el_EGojDgomIFl"/>
	<path d="M341.8,141.4L341.8,141.4c-0.5-1.8-0.7-4.2-1.1-6.5c-0.1-0.4-0.1-0.9-0.2-1.3c-0.1-0.4-0.2-0.8-0.2-1.2&#10;&#9;&#9;c-0.5-2.2-1.2-4.3-2.4-5.6c-0.3-0.4-0.7-0.7-1.2-0.9c-0.4-0.2-0.9-0.4-1.5-0.5c-6.4-1.1-9.9,8.2-12.8,11c-0.7,0.7-1.6,1.5-2.6,2.4&#10;&#9;&#9;c-2.8,2.5-6.1,5.3-6.9,6c0,0-0.1,0.1-0.1,0.1h0c-0.5,0.5-2.3,0.5-3.5,0.4c-0.2,0-0.4,0-0.6,0c-0.1,0-0.2,0-0.3,0c0,0,0,0,0,0&#10;&#9;&#9;c-0.1,0-0.2,0-0.2,0s0.8-1.9,2-4.9c3.7-8.7,11.5-26.1,16-29.6c5.6-4.3,8.8-12.9,9.2-14.1l4.5-1.7c0,0,5.3,27.7,7.1,31.6&#10;&#9;&#9;c0.1,0.2,0.2,0.3,0.2,0.3c0.3,2,1.3,9.6,2.6,18.1c0,0,0,0,0,0c0,0.4,0.1,0.7,0.2,1.1c0,0.1,0,0.1,0,0.2c0,0.1,0,0.2,0,0.2v0&#10;&#9;&#9;c0.1,0.8,0.3,1.6,0.4,2.5c0,0.3,0.1,0.5,0.1,0.8c0,0,0,0,0,0c0,0,0,0,0,0c0,0.2,0.1,0.5,0.1,0.7c0,0.3,0.1,0.5,0.1,0.8L341.8,141.4&#10;&#9;&#9;z" id="el_nvhDYeX_ZAC"/>
	<path d="M382,114.6c-1.6,2.7-4.2,5.9-8.5,9.4c-16.4,13.5-4.2,28.2-2.3,30.3c-23.7,9.5-48.2,4.8-65.5-1.2&#10;&#9;&#9;c0.1-0.5,0.2-0.9,0.3-1.4c0.1-0.6,0.2-1.2,0.2-1.8c0.1-0.5,0.1-1,0.1-1.5c0-0.5,0.1-0.9,0.1-1.3c0.1-1.3,0.1-2.3-0.1-3.1&#10;&#9;&#9;c0-0.2,0-0.3-0.1-0.5c-0.1-0.5-0.2-0.9-0.4-1.3c-0.1-0.3-0.2-0.5-0.3-0.7c-0.1-0.2-0.2-0.3-0.3-0.5c-0.1-0.1-0.2-0.3-0.3-0.4&#10;&#9;&#9;c0,0,0,0,0,0c-0.1-0.1-0.2-0.3-0.3-0.4c-0.8-1-1.7-2.1-2.8-4.2c-1.6-3.1-4-1.4-5.9,1.2c-0.5,0.7-1,1.6-1.5,2.4&#10;&#9;&#9;c-0.1,0.3-0.3,0.5-0.4,0.8c-0.3,0.6-0.6,1.3-0.8,1.8c-0.1,0.3-0.2,0.6-0.3,0.8c-0.1,0.3-0.1,0.6-0.1,0.7c0.1,0.4-0.5,1.5-1.4,3.1&#10;&#9;&#9;c-0.1,0.1-0.1,0.2-0.2,0.4c-1.2-0.6-2.3-1.2-3.3-1.7c1.3-1.7,7.4-10.7,3-25.6c-2.9-9.7-3.9-19.1-4.2-25.3c0.3,0.3,0.6,0.6,0.9,1&#10;&#9;&#9;c21.6,22.3,20.4,47.2,20.4,47.2c0-0.2,0-0.3,0-0.5c0.1,1.9,0,3,0,3s0.1,0,0.2,0l0,0h0.1c0.1,0,0.2,0,0.3,0c0.2,0,0.4,0,0.6,0&#10;&#9;&#9;c1.2,0.1,3,0,3.5-0.4h0c0,0,0.1-0.1,0.1-0.1c0.8-0.7,4.1-3.5,6.9-6c0.2-0.2,0.5-0.4,0.7-0.7c0.7-0.6,1.3-1.2,1.9-1.8&#10;&#9;&#9;c2.8-2.8,6.4-12.1,12.8-11c0.5,0.1,1,0.3,1.5,0.5c0.2,0.1,0.4,0.3,0.6,0.4c0.1,0.1,0.2,0.2,0.3,0.2c0.1,0.1,0.2,0.2,0.3,0.3&#10;&#9;&#9;c1.3,1.3,2,3.3,2.4,5.6c0.1,0.4,0.2,0.8,0.2,1.2c0.1,0.4,0.1,0.8,0.2,1.3c0.3,2.3,0.6,4.7,1.1,6.5l0,0l9.2,10&#10;&#9;&#9;c0-0.3-0.1-0.5-0.1-0.8c0-0.2-0.1-0.5-0.1-0.7c0,0,0,0,0,0c0,0,0,0,0,0c0-0.3-0.1-0.5-0.1-0.8c-0.2-0.8-0.3-1.7-0.4-2.5v0&#10;&#9;&#9;c-0.1-1.4,0-2.8,0.2-4.1c0-0.2,0.1-0.4,0.1-0.5c0.1-0.3,0.1-0.6,0.2-0.9c0.1-0.2,0.1-0.5,0.2-0.7c0.1-0.3,0.2-0.5,0.3-0.8&#10;&#9;&#9;c0.1-0.3,0.2-0.6,0.3-0.9c0.1-0.3,0.2-0.5,0.3-0.7c0.1-0.3,0.3-0.6,0.4-0.9c0.1-0.2,0.2-0.5,0.4-0.7c0.1-0.3,0.3-0.5,0.4-0.8&#10;&#9;&#9;c0.9-1.5,1.9-2.9,3.1-4.2c0.2-0.2,0.4-0.5,0.6-0.7c0.8-0.9,1.7-1.7,2.6-2.6c0.2-0.2,0.5-0.4,0.7-0.6c1-0.9,2-1.7,3-2.4&#10;&#9;&#9;c0.4-0.3,0.9-0.6,1.3-1c0.2-0.2,0.5-0.4,0.7-0.5c0.2-0.2,0.5-0.3,0.7-0.5c3.9-2.7,7.9-4.7,10.9-6.2c0.2-0.1,0.4-0.2,0.6-0.3&#10;&#9;&#9;c1.3-0.6,2.5-1.1,3.3-1.4c0.1-0.1,0.2-0.1,0.3-0.1c0.3-0.1,0.5-0.2,0.7-0.3c0.1,0,0.2-0.1,0.2-0.1C381.9,114.6,382,114.6,382,114.6&#10;&#9;&#9;z" id="el_Jj7f5s7iO6N"/>
</g></g></g>
</svg>