<svg version="1.1" xmlns="http://www.w3.org/2000/svg" xmlns:xlink="http://www.w3.org/1999/xlink" x="0px" y="0px" viewBox="0 0 532 422" style="enable-background:new 0 0 532.3 422;" xml:space="preserve" id="el_wiWFH_PWC"><style>@-webkit-keyframes kf_el_TXlvLmGtmJZ_an_ruyxlWeYb{68.89%{opacity: 1;}78.89%{opacity: 0;}0%{opacity: 1;}100%{opacity: 0;}}@keyframes kf_el_TXlvLmGtmJZ_an_ruyxlWeYb{68.89%{opacity: 1;}78.89%{opacity: 0;}0%{opacity: 1;}100%{opacity: 0;}}@-webkit-keyframes kf_el_nv4dchgQMOI_an_19jzjH-Sp{0%{-webkit-transform: translate(-0.037418365478515625px, -0.012789815664291382px) rotate(0deg) translate(0.037418365478515625px, 0.012789815664291382px);transform: translate(-0.037418365478515625px, -0.012789815664291382px) rotate(0deg) translate(0.037418365478515625px, 0.012789815664291382px);}14.44%{-webkit-transform: translate(-0.037418365478515625px, -0.012789815664291382px) rotate(30deg) translate(0.037418365478515625px, 0.012789815664291382px);transform: translate(-0.037418365478515625px, -0.012789815664291382px) rotate(30deg) translate(0.037418365478515625px, 0.012789815664291382px);}100%{-webkit-transform: translate(-0.037418365478515625px, -0.012789815664291382px) rotate(30deg) translate(0.037418365478515625px, 0.012789815664291382px);transform: translate(-0.037418365478515625px, -0.012789815664291382px) rotate(30deg) translate(0.037418365478515625px, 0.012789815664291382px);}}@keyframes kf_el_nv4dchgQMOI_an_19jzjH-Sp{0%{-webkit-transform: translate(-0.037418365478515625px, -0.012789815664291382px) rotate(0deg) translate(0.037418365478515625px, 0.012789815664291382px);transform: translate(-0.037418365478515625px, -0.012789815664291382px) rotate(0deg) translate(0.037418365478515625px, 0.012789815664291382px);}14.44%{-webkit-transform: translate(-0.037418365478515625px, -0.012789815664291382px) rotate(30deg) translate(0.037418365478515625px, 0.012789815664291382px);transform: translate(-0.037418365478515625px, -0.012789815664291382px) rotate(30deg) translate(0.037418365478515625px, 0.012789815664291382px);}100%{-webkit-transform: translate(-0.037418365478515625px, -0.012789815664291382px) rotate(30deg) translate(0.037418365478515625px, 0.012789815664291382px);transform: translate(-0.037418365478515625px, -0.012789815664291382px) rotate(30deg) translate(0.037418365478515625px, 0.012789815664291382px);}}@-webkit-keyframes kf_el_YWcTO0ZNmOS_an_p0uEoTf_x{0%{-webkit-transform: translate(266.8851318359375px, 94.90000915527344px) translate(-266.8851318359375px, -94.90000915527344px) translate(0px, 0px);transform: translate(266.8851318359375px, 94.90000915527344px) translate(-266.8851318359375px, -94.90000915527344px) translate(0px, 0px);}14.44%{-webkit-transform: translate(266.8851318359375px, 94.90000915527344px) translate(-266.8851318359375px, -94.90000915527344px) translate(4px, 0px);transform: translate(266.8851318359375px, 94.90000915527344px) translate(-266.8851318359375px, -94.90000915527344px) translate(4px, 0px);}100%{-webkit-transform: translate(266.8851318359375px, 94.90000915527344px) translate(-266.8851318359375px, -94.90000915527344px) translate(4px, 0px);transform: translate(266.8851318359375px, 94.90000915527344px) translate(-266.8851318359375px, -94.90000915527344px) translate(4px, 0px);}}@keyframes kf_el_YWcTO0ZNmOS_an_p0uEoTf_x{0%{-webkit-transform: translate(266.8851318359375px, 94.90000915527344px) translate(-266.8851318359375px, -94.90000915527344px) translate(0px, 0px);transform: translate(266.8851318359375px, 94.90000915527344px) translate(-266.8851318359375px, -94.90000915527344px) translate(0px, 0px);}14.44%{-webkit-transform: translate(266.8851318359375px, 94.90000915527344px) translate(-266.8851318359375px, -94.90000915527344px) translate(4px, 0px);transform: translate(266.8851318359375px, 94.90000915527344px) translate(-266.8851318359375px, -94.90000915527344px) translate(4px, 0px);}100%{-webkit-transform: translate(266.8851318359375px, 94.90000915527344px) translate(-266.8851318359375px, -94.90000915527344px) translate(4px, 0px);transform: translate(266.8851318359375px, 94.90000915527344px) translate(-266.8851318359375px, -94.90000915527344px) translate(4px, 0px);}}@-webkit-keyframes kf_el_nv4dchgQMOI_an_0Ma4y_qyu{0%{-webkit-transform: translate(-0.037418365478515625px, -0.012789815664291382px) translate(0.037418365478515625px, 0.012789815664291382px) translate(0px, 0px);transform: translate(-0.037418365478515625px, -0.012789815664291382px) translate(0.037418365478515625px, 0.012789815664291382px) translate(0px, 0px);}14.44%{-webkit-transform: translate(-0.037418365478515625px, -0.012789815664291382px) translate(0.037418365478515625px, 0.012789815664291382px) translate(-40px, 0px);transform: translate(-0.037418365478515625px, -0.012789815664291382px) translate(0.037418365478515625px, 0.012789815664291382px) translate(-40px, 0px);}27.78%{-webkit-transform: translate(-0.037418365478515625px, -0.012789815664291382px) translate(0.037418365478515625px, 0.012789815664291382px) translate(-40px, 100px);transform: translate(-0.037418365478515625px, -0.012789815664291382px) translate(0.037418365478515625px, 0.012789815664291382px) translate(-40px, 100px);}51.11%{-webkit-transform: translate(-0.037418365478515625px, -0.012789815664291382px) translate(0.037418365478515625px, 0.012789815664291382px) translate(-20px, 200px);transform: translate(-0.037418365478515625px, -0.012789815664291382px) translate(0.037418365478515625px, 0.012789815664291382px) translate(-20px, 200px);}58.89%{-webkit-transform: translate(-0.037418365478515625px, -0.012789815664291382px) translate(0.037418365478515625px, 0.012789815664291382px) translate(-50px, 200px);transform: translate(-0.037418365478515625px, -0.012789815664291382px) translate(0.037418365478515625px, 0.012789815664291382px) translate(-50px, 200px);}62.22%{-webkit-transform: translate(-0.037418365478515625px, -0.012789815664291382px) translate(0.037418365478515625px, 0.012789815664291382px) translate(-50px, 300px);transform: translate(-0.037418365478515625px, -0.012789815664291382px) translate(0.037418365478515625px, 0.012789815664291382px) translate(-50px, 300px);}100%{-webkit-transform: translate(-0.037418365478515625px, -0.012789815664291382px) translate(0.037418365478515625px, 0.012789815664291382px) translate(-50px, 300px);transform: translate(-0.037418365478515625px, -0.012789815664291382px) translate(0.037418365478515625px, 0.012789815664291382px) translate(-50px, 300px);}}@keyframes kf_el_nv4dchgQMOI_an_0Ma4y_qyu{0%{-webkit-transform: translate(-0.037418365478515625px, -0.012789815664291382px) translate(0.037418365478515625px, 0.012789815664291382px) translate(0px, 0px);transform: translate(-0.037418365478515625px, -0.012789815664291382px) translate(0.037418365478515625px, 0.012789815664291382px) translate(0px, 0px);}14.44%{-webkit-transform: translate(-0.037418365478515625px, -0.012789815664291382px) translate(0.037418365478515625px, 0.012789815664291382px) translate(-40px, 0px);transform: translate(-0.037418365478515625px, -0.012789815664291382px) translate(0.037418365478515625px, 0.012789815664291382px) translate(-40px, 0px);}27.78%{-webkit-transform: translate(-0.037418365478515625px, -0.012789815664291382px) translate(0.037418365478515625px, 0.012789815664291382px) translate(-40px, 100px);transform: translate(-0.037418365478515625px, -0.012789815664291382px) translate(0.037418365478515625px, 0.012789815664291382px) translate(-40px, 100px);}51.11%{-webkit-transform: translate(-0.037418365478515625px, -0.012789815664291382px) translate(0.037418365478515625px, 0.012789815664291382px) translate(-20px, 200px);transform: translate(-0.037418365478515625px, -0.012789815664291382px) translate(0.037418365478515625px, 0.012789815664291382px) translate(-20px, 200px);}58.89%{-webkit-transform: translate(-0.037418365478515625px, -0.012789815664291382px) translate(0.037418365478515625px, 0.012789815664291382px) translate(-50px, 200px);transform: translate(-0.037418365478515625px, -0.012789815664291382px) translate(0.037418365478515625px, 0.012789815664291382px) translate(-50px, 200px);}62.22%{-webkit-transform: translate(-0.037418365478515625px, -0.012789815664291382px) translate(0.037418365478515625px, 0.012789815664291382px) translate(-50px, 300px);transform: translate(-0.037418365478515625px, -0.012789815664291382px) translate(0.037418365478515625px, 0.012789815664291382px) translate(-50px, 300px);}100%{-webkit-transform: translate(-0.037418365478515625px, -0.012789815664291382px) translate(0.037418365478515625px, 0.012789815664291382px) translate(-50px, 300px);transform: translate(-0.037418365478515625px, -0.012789815664291382px) translate(0.037418365478515625px, 0.012789815664291382px) translate(-50px, 300px);}}#el_wiWFH_PWC *{-webkit-animation-duration: 3s;animation-duration: 3s;-webkit-animation-iteration-count: infinite;animation-iteration-count: infinite;-webkit-animation-timing-function: cubic-bezier(0, 0, 1, 1);animation-timing-function: cubic-bezier(0, 0, 1, 1);}#el_2SvtkaJz85{fill: #72141D;}#el_6qmOv6Cd46{fill: none;stroke: #940F17;stroke-width: 0.3543;stroke-miterlimit: 10;}#el_WGF7sDEx0D{fill: #D61D45;}#el_REkADBMMZr{fill: #C6395B;}#el_WueDPzDdnV{fill: #D01128;}#el_9O-yFUWPpN{fill: #D01128;}#el_mQKsm02HkJ{fill: #D01128;}#el_UNvBIT-Glp{fill: #D61D45;}#el_RUwTdwlq3Q{fill: #D61D45;}#el_e8mlnqTMwK{fill: #D61D45;}#el_ydxTkzy5hr{fill: #D01128;}#el_cXvv1_cn_2{fill: #8D171D;}#el_uJyLAWCQ3ee{fill: #8D171D;}#el_TPacmtmlH_q{fill: #8D171D;}#el_XXyllnGhTHT{fill: none;stroke: #D18A4A;stroke-miterlimit: 10;}#el_FO6-fkLc29D{fill: #72141D;}#el_90ZoDZXx2LZ{fill: none;stroke: #940F17;stroke-width: 0.3543;stroke-miterlimit: 10;}#el_7wT12aN7P62{fill: #C6395B;}#el_NPNz0JAwOFr{fill: #D61D45;}#el_mQ1_AbFZmnx{fill: #D01128;}#el_sTBgqfuGlFU{fill: #8D171D;}#el_VEiEMtG0hg0{fill: none;stroke: #D18A4A;stroke-miterlimit: 10;}#el_3gxUS88XVsX{fill: #D18A4A;}#el_DIY0Yy5mNxy{fill: #050503;-webkit-transform: matrix(0.8665, -0.4991, 0.4991, 0.8665, -27.5354, 110.6699);transform: matrix(0.8665, -0.4991, 0.4991, 0.8665, -27.5354, 110.6699);}#el_rY-AEI8bvyZ{fill: none;stroke: #8D171D;stroke-width: 0.6108;stroke-miterlimit: 10;}#el_c6aE6HTJHWt{fill: #F0F0F0;}#el_F89pXfyXzXT{fill: #E4E4E4;}#el_8znT07ds8rr{fill: #D61D45;}#el_qRS23zgKtKz{fill: #D61D45;}#el_0dfzhkmpFnR{fill: #D01128;}#el_dUBozLsuJxg{fill: #8D171D;}#el_nv4dchgQMOI_an_0Ma4y_qyu{-webkit-animation-fill-mode: backwards;animation-fill-mode: backwards;-webkit-transform: translate(-0.037418365478515625px, -0.012789815664291382px) translate(0.037418365478515625px, 0.012789815664291382px) translate(0px, 0px);transform: translate(-0.037418365478515625px, -0.012789815664291382px) translate(0.037418365478515625px, 0.012789815664291382px) translate(0px, 0px);-webkit-animation-name: kf_el_nv4dchgQMOI_an_0Ma4y_qyu;animation-name: kf_el_nv4dchgQMOI_an_0Ma4y_qyu;-webkit-animation-timing-function: cubic-bezier(0, 0, 1, 1);animation-timing-function: cubic-bezier(0, 0, 1, 1);}#el_YWcTO0ZNmOS_an_p0uEoTf_x{-webkit-animation-fill-mode: backwards;animation-fill-mode: backwards;-webkit-transform: translate(266.8851318359375px, 94.90000915527344px) translate(-266.8851318359375px, -94.90000915527344px) translate(0px, 0px);transform: translate(266.8851318359375px, 94.90000915527344px) translate(-266.8851318359375px, -94.90000915527344px) translate(0px, 0px);-webkit-animation-name: kf_el_YWcTO0ZNmOS_an_p0uEoTf_x;animation-name: kf_el_YWcTO0ZNmOS_an_p0uEoTf_x;-webkit-animation-timing-function: cubic-bezier(0, 0, 1, 1);animation-timing-function: cubic-bezier(0, 0, 1, 1);}#el_nv4dchgQMOI_an_19jzjH-Sp{-webkit-animation-fill-mode: backwards;animation-fill-mode: backwards;-webkit-transform: translate(-0.037418365478515625px, -0.012789815664291382px) rotate(0deg) translate(0.037418365478515625px, 0.012789815664291382px);transform: translate(-0.037418365478515625px, -0.012789815664291382px) rotate(0deg) translate(0.037418365478515625px, 0.012789815664291382px);-webkit-animation-name: kf_el_nv4dchgQMOI_an_19jzjH-Sp;animation-name: kf_el_nv4dchgQMOI_an_19jzjH-Sp;-webkit-animation-timing-function: cubic-bezier(0, 0, 1, 1);animation-timing-function: cubic-bezier(0, 0, 1, 1);}#el_TXlvLmGtmJZ{-webkit-animation-fill-mode: backwards;animation-fill-mode: backwards;opacity: 1;-webkit-animation-name: kf_el_TXlvLmGtmJZ_an_ruyxlWeYb;animation-name: kf_el_TXlvLmGtmJZ_an_ruyxlWeYb;-webkit-animation-timing-function: cubic-bezier(0, 0, 1, 1);animation-timing-function: cubic-bezier(0, 0, 1, 1);}</style>

<g id="el_YUjnIK8y4Q">
	<g id="el_qfvn-bnYko">
		<path d="M262.8,198.3v0.1c0-0.1,0-0.2,0-0.3C262.8,198.2,262.8,198.3,262.8,198.3z M258.9,177.2L258.9,177.2&#10;&#9;&#9;&#9;C258.9,177.2,258.9,177.1,258.9,177.2C258.9,177.1,258.9,177.1,258.9,177.2z M216,149.1c0.1,0,0.2-0.1,0.2-0.1&#10;&#9;&#9;&#9;c-0.2,0.2-0.5,0.3-0.8,0.5C215.7,149.3,215.9,149.2,216,149.1z M216.8,148.6c0.1-0.1,0.2-0.1,0.4-0.2c-0.2,0.1-0.4,0.2-0.6,0.4&#10;&#9;&#9;&#9;C216.6,148.7,216.7,148.7,216.8,148.6z M220.9,146.9C220.9,146.9,221,146.9,220.9,146.9C220.9,146.9,220.9,146.9,220.9,146.9&#10;&#9;&#9;&#9;C220.9,146.9,220.9,146.9,220.9,146.9z M225,146.5c0.1,0,0.1,0,0.1,0s0.1,0,0.1,0h0c0.1,0,0.1,0,0.2,0c-0.2,0-0.4,0-0.6,0H225z&#10;&#9;&#9;&#9; M209.1,239.6C209,239.6,209,239.6,209.1,239.6c-0.2-0.2-0.3-0.2-0.4-0.4c-0.1-0.1-0.1-0.2-0.2-0.2&#10;&#9;&#9;&#9;C208.7,239.2,208.9,239.4,209.1,239.6z M208,238.5c-0.1-0.1-0.2-0.2-0.3-0.3c0,0-0.1-0.1-0.1-0.1&#10;&#9;&#9;&#9;C207.8,238.2,207.9,238.3,208,238.5z M198.7,221.9c0-0.1-0.1-0.2-0.1-0.3c0-0.1-0.1-0.1-0.1-0.2&#10;&#9;&#9;&#9;C198.6,221.5,198.6,221.7,198.7,221.9z M198.3,220.7c-0.1-0.3-0.2-0.5-0.3-0.8c-0.1-0.1-0.1-0.3-0.2-0.4&#10;&#9;&#9;&#9;C198,219.9,198.1,220.3,198.3,220.7z M196.3,215c0-0.1-0.1-0.2-0.1-0.2c-0.1-0.3-0.2-0.6-0.3-0.9C196,214.3,196.1,214.6,196.3,215&#10;&#9;&#9;&#9;z M194.7,209.4c0-0.1-0.1-0.2-0.1-0.3c-0.1-0.3-0.1-0.6-0.2-0.9c0-0.1,0-0.2-0.1-0.3C194.4,208.4,194.6,208.9,194.7,209.4z&#10;&#9;&#9;&#9; M192.9,199.1c0-0.3-0.1-0.6-0.1-0.9c0-0.5-0.1-1-0.1-1.5v-0.1c0-0.1,0-0.3,0-0.4C192.8,197.2,192.9,198.1,192.9,199.1z&#10;&#9;&#9;&#9; M192.7,194.2c0,0.4,0,0.8,0,1.2c0-0.2,0-0.3,0-0.5C192.7,194.7,192.7,194.4,192.7,194.2z M458.9,231.7c-0.1-0.4-0.3-0.7-0.4-1.1&#10;&#9;&#9;&#9;c-0.1-0.3-0.2-0.5-0.3-0.8c0.1,0.2,0.2,0.5,0.3,0.8C458.6,231,458.8,231.3,458.9,231.7z M327,103.8c-2.1-0.9-3.9-1.7-5.6-2.5&#10;&#9;&#9;&#9;c0,0,0,0,0-0.1c0,0,0,0-0.1,0.1c-1.2-0.6-2.2-1.1-3.2-1.6c-0.2,0.2-0.2,0.3-0.2,0.3c-2.5-0.2-4.9-0.4-7.3-0.5&#10;&#9;&#9;&#9;c-45.9-1.9-78.3,16.8-100.3,38.7c0,0,0,0,0,0c-13.3,13.2-22.8,27.6-29.1,39.2l0,0c-7.2,13.2-10.3,22.8-10.3,22.8&#10;&#9;&#9;&#9;c-30.4,95.2,9.9,149.7,56.8,180.3c0,0,0,0,0,0c0,0,0,0,0,0c8.6,5.6,17.5,10.4,26.2,14.5c0,0,0,0,0,0&#10;&#9;&#9;&#9;c24.7,11.7,47.9,17.6,60.5,20.3h0c2.4,0.5,4.4,0.9,5.9,1.2c-3-3.8-5.9-7.6-8.7-11.4c-96.2-132.7-10.9-262.1,15.9-296.9&#10;&#9;&#9;&#9;c1,0.1,1.6,0.2,1.6,0.2s0.9-1,2-2.8C329.7,104.9,328.3,104.3,327,103.8z M397.5,108.2C397.5,108.2,397.5,108.2,397.5,108.2&#10;&#9;&#9;&#9;C397.5,108.2,397.5,108.2,397.5,108.2c-0.1,0-0.1-0.1-0.2-0.2c-8.2,3.3-16.6,4.8-24.7,5.1c4.9,13.2,13.6,38.1,21.7,68.8&#10;&#9;&#9;&#9;c7.5,28.3,14.5,61.5,17.5,94.9c4.3,47.4,0.7,95.2-20.8,129.9c2.7-0.3,5.4-0.6,8-0.9c1.4-0.2,2.7-0.3,4-0.5c1.3-0.2,2.6-0.4,4-0.6&#10;&#9;&#9;&#9;c0,0,0,0,0.1,0c1.3-0.2,2.6-0.4,3.9-0.6c0.1,0,0.2,0,0.3-0.1c1.3-0.2,2.6-0.4,3.9-0.7c0.8-0.1,1.6-0.3,2.4-0.5&#10;&#9;&#9;&#9;c1.1-0.2,2.2-0.4,3.3-0.7c0.7-0.1,1.4-0.3,2-0.4c0.1,0,0.3-0.1,0.4-0.1c0,0,0,0,0,0c9.7-3.7,18.6-8,26.8-13&#10;&#9;&#9;&#9;c48.1-29.2,68.2-79.6,69.2-144.4C520.9,138.5,397.5,108.2,397.5,108.2z" id="el_2SvtkaJz85"/>
		<path d="M375.2,96.2" id="el_6qmOv6Cd46"/>
		<path d="M217.2,138.4c-11.7-3.5-23.4,9.6-33.7,32.2c-10.3,22.7,6.4,58.8,14.9,65.9c8.5,7.1,30.1,18.1,38.6,14.5&#10;&#9;&#9;&#9;c8.5-3.5,17-57,17-57s0-17.4-7.8-32.6C238.4,146.2,228.8,141.9,217.2,138.4z" id="el_WGF7sDEx0D"/>
		<path d="M329.7,96.2c0,0.1,0,0.2-0.1,0.2c-0.1,0.5-0.2,1-0.4,1.6c-0.3,1.1-0.7,2.2-1.1,3.1c-1.8,4.6-4,7.2-4,7.2&#10;&#9;&#9;&#9;s-0.6-0.1-1.6-0.2c-3.7-0.4-12.6-1.9-12.6-5.5c0-3.1,3.4-8.6,5.5-12.3c0.1-0.1,0.1-0.2,0.2-0.4c-0.1,0.1-0.1,0.2-0.2,0.4&#10;&#9;&#9;&#9;C319.3,92.2,324.1,94.2,329.7,96.2z" id="el_REkADBMMZr"/>
		<path d="M315.5,90.3C315.5,90.3,315.5,90.3,315.5,90.3c0.1-0.1,0.1-0.2,0.2-0.4C315.6,90.1,315.6,90.2,315.5,90.3z&#10;&#9;&#9;&#9; M463,268.9c0.7-2.6,1.5-5.4,2.5-8.6c0.3-1,0.6-2,0.8-2.9c-0.2,0.9-0.5,1.9-0.8,2.9C464.5,263.4,463.7,266.3,463,268.9z&#10;&#9;&#9;&#9; M415.1,137.9c0-0.1,0.1-0.2,0.1-0.2c0-0.1,0-0.1,0-0.2c0,0.1,0,0.1,0,0.2C415.2,137.8,415.1,137.8,415.1,137.9z M414.8,135.8&#10;&#9;&#9;&#9;c-0.1-0.3-0.3-0.6-0.5-0.8C414.5,135.3,414.7,135.6,414.8,135.8z M397.9,121L397.9,121L397.9,121C397.8,121,397.8,121,397.9,121z&#10;&#9;&#9;&#9; M310,102.6c0-3.1,3.4-8.6,5.5-12.3c-1.2-0.6-2.3-1.2-3.3-1.7c-0.1,0.2-0.2,0.3-0.2,0.3C195,78.7,157.4,194.2,157.4,194.2&#10;&#9;&#9;&#9;c-31.9,100,10.4,157.2,59.7,189.3c0,0,0,0,0,0c0,0,0,0,0,0c0.9,0.3,38.1,15,89.5,21.5c-96.2-132.7-10.9-262.1,15.9-296.9&#10;&#9;&#9;&#9;C318.9,107.7,310,106.2,310,102.6z M237,251c-8.5,3.5-30.1-7.4-38.6-14.5c-0.1-0.1-0.2-0.2-0.3-0.3c-0.2-0.2-0.4-0.4-0.7-0.6&#10;&#9;&#9;&#9;c-0.1-0.1-0.2-0.2-0.3-0.3c-0.1-0.1-0.3-0.3-0.4-0.5c0,0,0,0-0.1-0.1c-0.2-0.2-0.4-0.4-0.5-0.6c-0.2-0.3-0.5-0.6-0.7-0.9&#10;&#9;&#9;&#9;c-0.2-0.3-0.5-0.6-0.7-1c-0.4-0.5-0.7-1.1-1.1-1.6c-0.2-0.4-0.5-0.8-0.8-1.2c-0.1-0.2-0.2-0.4-0.4-0.6c-0.4-0.6-0.8-1.3-1.1-2&#10;&#9;&#9;&#9;c-0.2-0.5-0.5-0.9-0.8-1.4c-0.2-0.5-0.5-1-0.8-1.5c-0.1-0.2-0.2-0.5-0.4-0.8c-0.2-0.5-0.5-1-0.7-1.5c-0.7-1.6-1.4-3.2-2.1-4.9&#10;&#9;&#9;&#9;c-0.2-0.6-0.4-1.2-0.7-1.7c-0.2-0.6-0.4-1.2-0.7-1.8c-0.4-1.2-0.8-2.4-1.2-3.7c-0.2-0.6-0.4-1.2-0.6-1.9c-0.2-0.6-0.4-1.3-0.5-1.9&#10;&#9;&#9;&#9;c-0.2-0.8-0.4-1.5-0.6-2.3c-0.1-0.3-0.2-0.7-0.2-1c-0.1-0.4-0.2-0.9-0.3-1.3c-0.1-0.3-0.1-0.5-0.2-0.8c0-0.1,0-0.2,0-0.2&#10;&#9;&#9;&#9;c-0.2-0.8-0.3-1.7-0.4-2.5c-0.1-0.4-0.1-0.8-0.2-1.2c-0.1-0.8-0.2-1.6-0.3-2.3c-0.1-0.7-0.1-1.4-0.2-2.1c0-0.5-0.1-1.1-0.1-1.6&#10;&#9;&#9;&#9;v-0.1c0-0.3,0-0.6,0-0.9c0-0.3,0-0.6,0-0.9c-0.2-6.4,0.8-12.7,3.2-18.1c0.6-1.3,1.2-2.7,1.8-3.9c0.3-0.6,0.6-1.3,0.9-1.9&#10;&#9;&#9;&#9;c0.8-1.7,1.7-3.3,2.6-4.8c0.3-0.5,0.6-1,0.8-1.5c0.3-0.5,0.6-1,0.9-1.5c0.3-0.4,0.5-0.9,0.8-1.3c0.3-0.5,0.6-1,0.9-1.5&#10;&#9;&#9;&#9;c0.2-0.3,0.4-0.6,0.6-0.9c2-3,4-5.6,6-7.7c0.6-0.7,1.3-1.3,1.9-1.9c0.6-0.6,1.3-1.1,1.9-1.6c0.3-0.2,0.5-0.4,0.8-0.6&#10;&#9;&#9;&#9;c0.2-0.2,0.4-0.3,0.7-0.5c0.2-0.2,0.5-0.3,0.7-0.5c0.3-0.2,0.5-0.3,0.8-0.5c0.3-0.2,0.6-0.4,1-0.5c0.3-0.1,0.6-0.3,0.8-0.4&#10;&#9;&#9;&#9;c0.8-0.4,1.7-0.7,2.5-0.9c0.3-0.1,0.5-0.1,0.8-0.2c0.1,0,0.1,0,0.2-0.1c0.2,0,0.4-0.1,0.6-0.1c0.1,0,0.1,0,0.2,0&#10;&#9;&#9;&#9;c0.2,0,0.4,0,0.7-0.1c0.6,0,1.2,0,1.8,0c0.1,0,0.1,0,0.1,0c0,0,0.1,0,0.1,0h0c0.6,0,1.1,0.1,1.7,0.3c0,0,0.1,0,0.1,0&#10;&#9;&#9;&#9;c0,0,0,0,0.1,0c0.2,0,0.5,0.1,0.7,0.2h0c0.6,0.2,1.1,0.3,1.6,0.5c0.4,0.1,0.8,0.3,1.3,0.4c0.5,0.2,0.9,0.3,1.4,0.5&#10;&#9;&#9;&#9;c0.4,0.1,0.7,0.2,1,0.4c0.4,0.1,0.7,0.3,1.1,0.4c0.3,0.1,0.6,0.2,1,0.4c0.3,0.1,0.7,0.3,1,0.4c0.3,0.1,0.7,0.3,1,0.4&#10;&#9;&#9;&#9;c0.3,0.1,0.7,0.3,1,0.4c0.3,0.2,0.6,0.3,1,0.5c0.7,0.3,1.3,0.7,1.9,1c0.3,0.2,0.6,0.4,0.9,0.6c0.3,0.2,0.6,0.4,0.9,0.6&#10;&#9;&#9;&#9;c0.3,0.2,0.6,0.4,0.9,0.6c0.6,0.4,1.2,0.9,1.8,1.3c0.2,0.2,0.5,0.4,0.7,0.6c0.3,0.3,0.6,0.5,0.9,0.8c0.3,0.3,0.6,0.6,1,0.9&#10;&#9;&#9;&#9;c0.3,0.3,0.6,0.6,0.9,0.9c1.4,1.5,2.7,3.1,4,5c0.7,0.9,1.3,1.9,1.9,3c0.3,0.5,0.6,1.1,0.9,1.6c0.1,0.3,0.3,0.6,0.5,0.9&#10;&#9;&#9;&#9;c0.2,0.3,0.3,0.6,0.5,0.9c0.4,0.7,0.7,1.4,1.1,2.2c0.2,0.4,0.3,0.7,0.5,1.1c0.3,0.7,0.6,1.5,0.9,2.2c0.2,0.4,0.3,0.7,0.4,1.1&#10;&#9;&#9;&#9;c0.3,0.7,0.5,1.4,0.8,2.2c0.3,1,0.6,1.9,0.9,2.9c0.2,0.6,0.4,1.2,0.5,1.8c0.1,0.5,0.3,1,0.4,1.5c0.3,1.3,0.6,2.6,0.8,3.8&#10;&#9;&#9;&#9;c0.2,0.8,0.3,1.5,0.4,2.2c0.1,0.5,0.2,1,0.2,1.5c0,0.3,0.1,0.6,0.1,0.9c0,0.3,0.1,0.6,0.1,0.8c0,0.3,0.1,0.5,0.1,0.8&#10;&#9;&#9;&#9;c0,0.2,0,0.3,0.1,0.5c0,0.3,0.1,0.7,0.1,1c0,0.3,0.1,0.6,0.1,0.9c0,0.3,0.1,0.6,0.1,0.9c0,0.3,0.1,0.5,0.1,0.8c0,0.3,0,0.5,0,0.7&#10;&#9;&#9;&#9;c0,0.1,0,0.2,0,0.3c0,0.2,0,0.3,0,0.5c0,0.1,0,0.2,0,0.2c0,0.1,0,0.1,0,0.2c0.1,1.1,0.1,1.7,0.1,1.7S245.5,247.5,237,251z" id="el_WueDPzDdnV"/>
		<path d="M372.5,113c-14,0.5-27.2-2.6-37.6-6.2c-1.3-0.5-2.6-0.9-3.8-1.4c0.7-1.1,1.4-2.6,2.1-4.3c0.4-1,0.7-2,1.1-3.1&#10;&#9;&#9;&#9;c0.1-0.5,0.3-1,0.4-1.6c0-0.1,0-0.2,0.1-0.2c9.5,3.3,21.3,6.2,33.9,6.6C368.6,102.8,370.1,106.4,372.5,113z" id="el_9O-yFUWPpN"/>
		<path d="M390.9,406.6c-3.7,0.4-7.4,0.7-11.1,0.9c-0.4,0-0.8,0.1-1.2,0.1c-1.2,0.1-2.5,0.2-3.7,0.2&#10;&#9;&#9;&#9;c-2.6,0.1-5.3,0.2-7.9,0.3c-1.1,0-2.2,0.1-3.3,0.1c-0.3,0-0.7,0-1,0c-1.2,0-2.4,0-3.5,0c-16.7,0-32.7-1.2-47.5-3.1&#10;&#9;&#9;&#9;c-96.2-132.7-10.9-262.1,15.9-296.9c1,0.1,1.6,0.2,1.6,0.2s0.9-1,2-2.8c1.2,0.5,2.5,0.9,3.8,1.4c10.4,3.6,23.6,6.7,37.6,6.2&#10;&#9;&#9;&#9;c4.9,13.2,13.6,38.1,21.7,68.8c-24.3,3.5-34.6,41.3-34.9,54c-0.4,13.1,29.8,28.7,40.7,35.8c2.6,1.7,6.8,3.4,11.7,5.1&#10;&#9;&#9;&#9;C416,324.1,412.4,371.9,390.9,406.6z" id="el_mQKsm02HkJ"/>
		<path d="M411.7,276.7c-4.9-1.7-9.1-3.4-11.7-5.1c-11-7.1-41.1-22.7-40.7-35.8c0.3-12.7,10.6-50.5,34.9-54&#10;&#9;&#9;&#9;C401.7,210.1,408.7,243.3,411.7,276.7z" id="el_UNvBIT-Glp"/>
		<g id="el_UJtwk4HIeB">
			<path d="M476.4,250.2c0,0.2,0,0.4,0,0.6c0,0.2,0,0.3,0,0.5c0,0.2,0,0.4,0,0.6c0,0.2,0,0.3-0.1,0.5&#10;&#9;&#9;&#9;&#9;c-0.1,0.6-0.1,1.1-0.2,1.8c-0.1,0.4-0.1,0.8-0.2,1.2v0c-0.1,0.4-0.2,0.8-0.3,1.3c-0.1,0.2-0.1,0.5-0.2,0.7&#10;&#9;&#9;&#9;&#9;c-0.2,0.9-0.5,1.9-0.8,2.9c-0.1,0.4-0.2,0.7-0.3,1c-0.1,0.3-0.2,0.7-0.3,1c-0.6,2-1.1,3.9-1.6,5.6c-0.1,0.3-0.2,0.7-0.3,1v0&#10;&#9;&#9;&#9;&#9;c-0.1,0.5-0.3,1.1-0.4,1.6c-0.1,0.3-0.1,0.5-0.2,0.8l-0.2,0.8c-0.2,0.7-0.4,1.3-0.6,1.9c-0.7,2.4-1.5,4.5-2.4,6.2&#10;&#9;&#9;&#9;&#9;c-0.1,0.3-0.3,0.5-0.4,0.8c-0.1,0.2-0.3,0.5-0.5,0.7c-0.1,0.2-0.3,0.4-0.4,0.6c0,0-0.1,0.1-0.1,0.1c-0.2,0.2-0.3,0.4-0.5,0.5&#10;&#9;&#9;&#9;&#9;c-0.2,0.2-0.3,0.3-0.5,0.5c-0.1,0.1-0.1,0.1-0.2,0.2c-0.2,0.2-0.4,0.3-0.6,0.4c-0.1,0.1-0.2,0.2-0.4,0.2&#10;&#9;&#9;&#9;&#9;c-0.2,0.1-0.3,0.2-0.5,0.3c-0.2,0.1-0.3,0.2-0.5,0.2c-0.4,0.2-0.7,0.3-1.1,0.4c-7.1,2.1-7.1,2.1-7.1,2.1s-23.6-5-39.7-10.5&#10;&#9;&#9;&#9;&#9;c-3-33.4-10-66.6-17.5-94.9c0.9-0.1,1.7-0.2,2.6-0.2c26.2-1.1,20.6,1.8,37.9,13.1c1.9,1.2,3.6,2.3,5.2,3.4c0.3,0.2,0.6,0.4,1,0.6&#10;&#9;&#9;&#9;&#9;c0.6,0.4,1.2,0.8,1.8,1.2c0.6,0.4,1.2,0.8,1.8,1.2c0.3,0.2,0.6,0.4,0.8,0.6c0.3,0.2,0.5,0.4,0.8,0.6c0.5,0.3,1,0.6,1.4,1&#10;&#9;&#9;&#9;&#9;c0.2,0.1,0.4,0.3,0.6,0.4c0.4,0.3,0.7,0.5,1.1,0.8c0.2,0.2,0.5,0.3,0.7,0.5c0.4,0.3,0.9,0.7,1.3,1c0.3,0.2,0.6,0.5,0.9,0.8&#10;&#9;&#9;&#9;&#9;c0.1,0.1,0.3,0.3,0.4,0.4c0.1,0.1,0.1,0.1,0.1,0.1c0.1,0.1,0.3,0.2,0.4,0.4c0.4,0.4,0.8,0.7,1.2,1.1c0.1,0.1,0.3,0.3,0.4,0.4&#10;&#9;&#9;&#9;&#9;c0.1,0.1,0.3,0.3,0.4,0.4c0.1,0.2,0.3,0.3,0.4,0.4c0.8,0.9,1.5,1.7,2.2,2.7c0.1,0.2,0.2,0.3,0.4,0.5c0.1,0.2,0.2,0.3,0.3,0.5&#10;&#9;&#9;&#9;&#9;c0.2,0.3,0.5,0.7,0.7,1c0.2,0.3,0.4,0.7,0.6,1c0.2,0.4,0.4,0.7,0.6,1.1c0.1,0.2,0.2,0.4,0.3,0.6c0.2,0.4,0.4,0.8,0.6,1.2&#10;&#9;&#9;&#9;&#9;c0.1,0.2,0.2,0.4,0.3,0.6c0.1,0.2,0.2,0.4,0.3,0.6c0.2,0.4,0.4,0.9,0.6,1.3v0c0.2,0.4,0.4,0.9,0.6,1.4c0.2,0.5,0.4,0.9,0.6,1.4&#10;&#9;&#9;&#9;&#9;c0.2,0.5,0.4,1,0.6,1.5c0.1,0.3,0.2,0.5,0.3,0.8c0.3,0.8,0.5,1.5,0.8,2.2c0,0,0,0,0,0c0.3,0.7,0.5,1.4,0.8,2&#10;&#9;&#9;&#9;&#9;c1.1,3,2.2,5.4,3.1,7.6c0.2,0.5,0.4,1,0.6,1.4c0.5,1.2,0.9,2.3,1.3,3.4c0.1,0.3,0.2,0.6,0.3,0.9c0.1,0.2,0.1,0.5,0.2,0.7&#10;&#9;&#9;&#9;&#9;c0.1,0.2,0.1,0.5,0.2,0.7c0.1,0.4,0.2,0.8,0.3,1.2c0.1,0.3,0.1,0.6,0.1,0.9c0,0.3,0.1,0.6,0.1,0.9c0,0,0,0,0,0.1&#10;&#9;&#9;&#9;&#9;c0,0.2,0,0.5,0.1,0.7c0,0.1,0,0.3,0,0.4C476.4,249.7,476.4,249.9,476.4,250.2z" id="el_RUwTdwlq3Q"/>
			<path d="M424.2,137.3c0,0.1,0,0.1,0,0.2s0,0.1,0,0.2c0,0.1-0.1,0.2-0.1,0.2c0,0.1-0.1,0.2-0.1,0.2&#10;&#9;&#9;&#9;&#9;c0,0.1-0.1,0.1-0.1,0.2c-0.1,0.1-0.1,0.2-0.2,0.2c-0.1,0.1-0.2,0.2-0.3,0.2c-0.4,0.2-0.8,0.4-1.4,0.6c-0.1,0-0.2,0.1-0.3,0.1&#10;&#9;&#9;&#9;&#9;c-0.1,0-0.2,0.1-0.4,0.1c0,0,0,0-0.1,0c0,0,0,0-0.1,0c-0.3,0.1-0.7,0.2-1.1,0.2c-0.2,0-0.4,0-0.6,0.1c-0.3,0-0.6,0.1-0.9,0.1&#10;&#9;&#9;&#9;&#9;c-0.2,0-0.5,0-0.7,0c-0.2,0-0.5,0-0.8,0c-0.9,0-1.8,0-2.8,0c-0.2,0-0.4,0-0.7,0c-0.3,0-0.6,0-1,0c-0.4,0-0.9,0-1.4-0.1&#10;&#9;&#9;&#9;&#9;c0,0,0,0,0,0c-0.4,0-0.9-0.1-1.4-0.1c-0.5,0-0.9-0.1-1.4-0.1c-0.9-0.1-1.9-0.2-2.8-0.3c-1.9-0.2-3.7-0.5-5.5-0.7&#10;&#9;&#9;&#9;&#9;c-0.4-0.1-0.9-0.1-1.3-0.2c-1.7-0.3-3.3-0.6-4.7-0.9c-0.2,0-0.4-0.1-0.7-0.1c-0.4-0.1-0.8-0.2-1.1-0.3c-0.9-0.3-1.5-0.6-2-1&#10;&#9;&#9;&#9;&#9;c-0.1-0.1-0.2-0.1-0.3-0.2c-0.1-0.1-0.2-0.2-0.3-0.3c-0.1-0.1-0.2-0.2-0.2-0.3c0-0.1-0.1-0.1-0.1-0.2c-0.1-0.1-0.1-0.2-0.1-0.4&#10;&#9;&#9;&#9;&#9;c0-0.1,0-0.1,0-0.2c0,0,0,0,0,0c0-0.1,0-0.2,0-0.3c0-2.6,3-6.6,3-13.2c0-10.6,13.1,0.3,14.5,0h0v0c0,0,0,0,0,0c0,0,0.1,0,0.1,0.1&#10;&#9;&#9;&#9;&#9;c0,0,0,0,0.1,0c0,0,0.1,0,0.1,0c0,0,0,0,0,0c0.1,0.1,0.3,0.2,0.5,0.3c0.1,0.1,0.2,0.1,0.3,0.2c0,0,0.1,0.1,0.1,0.1&#10;&#9;&#9;&#9;&#9;c0.2,0.1,0.4,0.3,0.7,0.5c0.8,0.6,1.8,1.3,2.9,2.1c0.2,0.2,0.5,0.4,0.7,0.5c0.1,0.1,0.2,0.2,0.4,0.3c0.3,0.2,0.5,0.4,0.8,0.6&#10;&#9;&#9;&#9;&#9;c1.5,1.1,3,2.4,4.4,3.6c0.2,0.2,0.3,0.3,0.5,0.4c0.2,0.2,0.4,0.4,0.7,0.6c0.2,0.2,0.5,0.5,0.7,0.7c0.4,0.4,0.7,0.7,1,1&#10;&#9;&#9;&#9;&#9;c0.2,0.2,0.4,0.4,0.6,0.7c0,0,0,0,0,0c0.1,0.2,0.3,0.3,0.4,0.5c0.1,0.2,0.3,0.3,0.4,0.5c0,0,0,0,0,0c0.2,0.2,0.3,0.4,0.5,0.6&#10;&#9;&#9;&#9;&#9;c0.2,0.2,0.3,0.4,0.4,0.6c0,0,0,0,0,0c0.2,0.3,0.4,0.6,0.5,0.8c0,0,0,0,0,0c0.1,0.1,0.1,0.3,0.2,0.4c0.1,0.1,0.1,0.2,0.1,0.4&#10;&#9;&#9;&#9;&#9;c0,0.1,0.1,0.2,0.1,0.3C424.2,137.1,424.2,137.2,424.2,137.3z" id="el_e8mlnqTMwK"/>
			<path d="M424.2,137.5c0,0.1,0,0.1,0,0.2c0,0.1-0.1,0.2-0.1,0.2c0,0.1-0.1,0.2-0.1,0.2c0,0.1-0.1,0.1-0.1,0.2&#10;&#9;&#9;&#9;&#9;c-0.1,0.1-0.1,0.2-0.2,0.2c-0.1,0.1-0.2,0.2-0.3,0.2c-0.4,0.2-0.8,0.4-1.4,0.6c-0.1,0-0.2,0.1-0.3,0.1c-0.1,0-0.2,0.1-0.4,0.1&#10;&#9;&#9;&#9;&#9;c0,0,0,0-0.1,0c0,0,0,0-0.1,0c-0.3,0.1-0.7,0.1-1.1,0.2c-0.2,0-0.4,0.1-0.6,0.1c-0.3,0-0.6,0.1-0.9,0.1c-0.2,0-0.5,0-0.7,0&#10;&#9;&#9;&#9;&#9;c-0.2,0-0.5,0-0.8,0c-0.9,0-1.8,0-2.8,0c-0.2,0-0.4,0-0.7,0c-0.3,0-0.6,0-1,0c-0.4,0-0.9,0-1.4-0.1c0,0,0,0,0,0&#10;&#9;&#9;&#9;&#9;c-0.4,0-0.9-0.1-1.4-0.1c-0.5,0-0.9-0.1-1.4-0.1c-0.9-0.1-1.9-0.2-2.8-0.3c-0.9-0.1-1.9-0.2-2.8-0.3c-0.9-0.1-1.8-0.3-2.7-0.4&#10;&#9;&#9;&#9;&#9;c-0.4-0.1-0.9-0.1-1.3-0.2c-1.7-0.3-3.3-0.6-4.7-0.9c-0.2,0-0.4-0.1-0.7-0.2c-0.4-0.1-0.8-0.2-1.1-0.3c-0.9-0.3-1.5-0.6-2-1&#10;&#9;&#9;&#9;&#9;c-0.1-0.1-0.2-0.2-0.3-0.2c-0.1-0.1-0.2-0.2-0.3-0.3c-0.1-0.1-0.2-0.2-0.2-0.3c0-0.1-0.1-0.1-0.1-0.2c-0.1-0.1-0.1-0.3-0.1-0.4&#10;&#9;&#9;&#9;&#9;c0-0.1,0-0.1,0-0.2c0,0,0,0,0,0c0-0.1,0-0.2,0-0.3c0-2.6,3-6.6,3-13.2c0-10.6,13.1,0.4,14.5,0h0v0c0,0,0,0,0,0c0,0,0.1,0,0.1,0.1&#10;&#9;&#9;&#9;&#9;c0,0,0,0,0.1,0c0,0,0.1,0,0.1,0.1c0,0,0,0,0,0c0.1,0.1,0.3,0.2,0.5,0.3c0.1,0.1,0.2,0.1,0.3,0.2c0,0,0.1,0.1,0.1,0.1&#10;&#9;&#9;&#9;&#9;c0.2,0.1,0.5,0.3,0.7,0.5c0.8,0.6,1.8,1.3,2.9,2.1c0.2,0.2,0.5,0.3,0.7,0.5c0.1,0.1,0.2,0.2,0.4,0.3c0.3,0.2,0.5,0.4,0.8,0.6&#10;&#9;&#9;&#9;&#9;c1.5,1.1,3,2.4,4.4,3.6c0.2,0.1,0.3,0.3,0.5,0.4c0.2,0.2,0.4,0.4,0.7,0.6c0.2,0.2,0.5,0.5,0.7,0.7c0.4,0.3,0.7,0.7,1,1&#10;&#9;&#9;&#9;&#9;c0.2,0.2,0.4,0.4,0.6,0.6c0,0,0,0,0,0c0.1,0.2,0.3,0.3,0.4,0.5c0.2,0.2,0.3,0.3,0.4,0.5c0,0,0,0,0,0c0.2,0.2,0.3,0.4,0.5,0.6&#10;&#9;&#9;&#9;&#9;c0.2,0.2,0.3,0.4,0.4,0.6c0,0,0,0,0,0c0.2,0.3,0.4,0.6,0.5,0.8c0,0,0,0,0,0c0.1,0.1,0.1,0.3,0.2,0.4c0.1,0.1,0.1,0.2,0.1,0.4&#10;&#9;&#9;&#9;&#9;c0,0.1,0.1,0.2,0.1,0.3c0,0.1,0,0.2,0,0.3C424.2,137.4,424.2,137.4,424.2,137.5z M404.4,97.6C404.4,97.6,404.4,97.6,404.4,97.6&#10;&#9;&#9;&#9;&#9;C404.4,97.6,404.4,97.6,404.4,97.6c-0.1,0-0.1-0.1-0.2-0.2c-10.6,4.2-21.3,5.6-31.5,5.4c0,0,1.5,3.7,3.9,10.3&#10;&#9;&#9;&#9;&#9;c4.9,13.2,13.6,38.1,21.7,68.8c0.9-0.1,1.7-0.2,2.6-0.2c26.2-1.1,20.6,1.8,37.9,13.1c1.9,1.2,3.6,2.3,5.2,3.4&#10;&#9;&#9;&#9;&#9;c0.3,0.2,0.6,0.4,1,0.6c0.6,0.4,1.2,0.8,1.8,1.2c0.6,0.4,1.2,0.8,1.8,1.2c0.3,0.2,0.6,0.4,0.8,0.6c0.3,0.2,0.5,0.4,0.8,0.6&#10;&#9;&#9;&#9;&#9;c0.5,0.3,1,0.6,1.4,1c0.2,0.1,0.4,0.3,0.6,0.4c0.4,0.3,0.7,0.5,1.1,0.8c0.2,0.2,0.5,0.3,0.7,0.5c0.4,0.3,0.9,0.7,1.3,1&#10;&#9;&#9;&#9;&#9;c0.3,0.2,0.6,0.5,0.9,0.8c0.1,0.1,0.3,0.3,0.4,0.4c0.1,0.1,0.1,0.1,0.1,0.1c0.1,0.1,0.3,0.2,0.4,0.4c0.4,0.4,0.8,0.7,1.2,1.1&#10;&#9;&#9;&#9;&#9;c0.1,0.1,0.3,0.3,0.4,0.4c0.1,0.1,0.3,0.3,0.4,0.4c0.1,0.2,0.3,0.3,0.4,0.4c0.8,0.9,1.5,1.7,2.2,2.7c0.1,0.2,0.2,0.3,0.4,0.5&#10;&#9;&#9;&#9;&#9;c0.1,0.2,0.2,0.3,0.3,0.5c0.2,0.3,0.5,0.7,0.7,1c0.2,0.3,0.4,0.7,0.6,1c0.2,0.4,0.4,0.7,0.6,1.1c0.1,0.2,0.2,0.4,0.3,0.6&#10;&#9;&#9;&#9;&#9;c0.2,0.4,0.4,0.8,0.6,1.2c0.1,0.2,0.2,0.4,0.3,0.6c0.1,0.2,0.2,0.4,0.3,0.6c0.2,0.4,0.4,0.9,0.6,1.3v0c0.2,0.4,0.4,0.9,0.6,1.4&#10;&#9;&#9;&#9;&#9;c0.2,0.5,0.4,0.9,0.6,1.4c0.2,0.5,0.4,1,0.6,1.5c0.1,0.3,0.2,0.5,0.3,0.8c0.3,0.8,0.5,1.5,0.8,2.2c0,0,0,0,0,0&#10;&#9;&#9;&#9;&#9;c0.3,0.7,0.5,1.4,0.8,2c1.1,3,2.2,5.4,3.1,7.6c0.2,0.5,0.4,1,0.6,1.4c0.5,1.2,0.9,2.3,1.3,3.4c0.1,0.3,0.2,0.6,0.3,0.9&#10;&#9;&#9;&#9;&#9;c0.1,0.2,0.1,0.5,0.2,0.7c0.1,0.2,0.1,0.5,0.2,0.7c0.1,0.4,0.2,0.8,0.3,1.2c0.1,0.3,0.1,0.6,0.1,0.9c0.1,0.3,0.1,0.6,0.1,0.9&#10;&#9;&#9;&#9;&#9;c0,0,0,0,0,0.1c0,0.2,0,0.5,0.1,0.7c0,0.1,0,0.3,0,0.4c0,0.2,0,0.5,0,0.8c0,0.2,0,0.4,0,0.6c0,0.2,0,0.3,0,0.5c0,0.2,0,0.4,0,0.6&#10;&#9;&#9;&#9;&#9;c0,0.2,0,0.3-0.1,0.5c-0.1,0.6-0.1,1.1-0.2,1.8c-0.1,0.4-0.1,0.8-0.2,1.2v0c-0.1,0.4-0.2,0.8-0.3,1.3c-0.1,0.2-0.1,0.5-0.2,0.7&#10;&#9;&#9;&#9;&#9;c-0.2,0.9-0.5,1.9-0.8,2.9c-0.1,0.4-0.2,0.7-0.3,1c-0.1,0.3-0.2,0.7-0.3,1c-0.6,2-1.1,3.9-1.6,5.6c-0.1,0.3-0.2,0.7-0.3,1v0&#10;&#9;&#9;&#9;&#9;c-0.1,0.5-0.3,1.1-0.4,1.6c-0.1,0.3-0.1,0.5-0.2,0.8l-0.2,0.8c-0.2,0.7-0.4,1.3-0.6,1.9c-0.7,2.4-1.5,4.5-2.4,6.2&#10;&#9;&#9;&#9;&#9;c-0.1,0.3-0.3,0.5-0.4,0.8c-0.1,0.2-0.3,0.5-0.5,0.7c-0.1,0.2-0.3,0.4-0.4,0.6c0,0-0.1,0.1-0.1,0.1c-0.2,0.2-0.3,0.4-0.5,0.5&#10;&#9;&#9;&#9;&#9;c-0.2,0.2-0.3,0.3-0.5,0.5c-0.1,0.1-0.1,0.1-0.2,0.2c-0.2,0.2-0.4,0.3-0.6,0.4c-0.1,0.1-0.2,0.2-0.4,0.2&#10;&#9;&#9;&#9;&#9;c-0.2,0.1-0.3,0.2-0.5,0.3c-0.2,0.1-0.3,0.2-0.5,0.2c-0.4,0.2-0.7,0.3-1.1,0.4c-7.1,2.1-7.1,2.1-7.1,2.1s-23.6-5-39.7-10.5&#10;&#9;&#9;&#9;&#9;c4.3,47.4,0.7,95.2-20.8,129.9c2.7-0.3,5.4-0.6,8-0.9c1.4-0.2,2.7-0.3,4-0.5c1.3-0.2,2.6-0.4,4-0.6c0,0,0,0,0.1,0&#10;&#9;&#9;&#9;&#9;c1.3-0.2,2.6-0.4,3.9-0.6c0.1,0,0.2,0,0.3-0.1c1.3-0.2,2.6-0.4,3.9-0.7c0.8-0.1,1.6-0.3,2.4-0.5c1.1-0.2,2.2-0.4,3.3-0.7&#10;&#9;&#9;&#9;&#9;c0.7-0.1,1.4-0.3,2-0.4c0.1,0,0.3-0.1,0.4-0.1c0,0,0,0,0,0c0.2,0,0.4-0.1,0.6-0.1c1.1-0.2,2.3-0.5,3.4-0.8c1.3-0.3,2.7-0.6,4-1&#10;&#9;&#9;&#9;&#9;c0,0,0,0,0,0c1.3-0.3,2.6-0.7,3.9-1c0.1,0,0.2-0.1,0.3-0.1c1.1-0.3,2.2-0.6,3.3-0.9c0.3-0.1,0.6-0.1,0.8-0.2c1-0.3,2-0.6,3-0.9&#10;&#9;&#9;&#9;&#9;c1.4-0.4,2.8-0.9,4.1-1.3c0.6-0.2,1.2-0.4,1.7-0.6c1.1-0.4,2.2-0.8,3.3-1.1c1.2-0.4,2.4-0.9,3.6-1.3&#10;&#9;&#9;&#9;&#9;c50.5-30.7,71.6-83.6,72.7-151.6C534,129.5,404.4,97.6,404.4,97.6z" id="el_ydxTkzy5hr"/>
			<path d="M459.6,392.1c-19.7,12-43.9,20.6-73.1,25.4c1.4-1.8,4-4.2,5.3-6.1c1-1.4,1.9-2.9,2.9-4.4&#10;&#9;&#9;&#9;&#9;c0.1-0.1,0.2-0.3,0.3-0.5c2.7-0.3,5.4-0.6,8-0.9c1.3-0.2,2.7-0.3,4-0.5c1.3-0.2,2.6-0.4,4-0.6c0,0,0,0,0.1,0&#10;&#9;&#9;&#9;&#9;c1.3-0.2,2.6-0.4,3.9-0.6c0.1,0,0.2,0,0.3-0.1c1.3-0.2,2.6-0.4,3.9-0.7c0.8-0.1,1.6-0.3,2.4-0.5c1.1-0.2,2.2-0.4,3.3-0.7&#10;&#9;&#9;&#9;&#9;c0.7-0.1,1.4-0.3,2-0.4c0.1,0,0.3-0.1,0.4-0.1c0,0,0,0,0,0c0.2,0,0.4-0.1,0.6-0.1c1.1-0.2,2.3-0.5,3.4-0.8c1.3-0.3,2.7-0.6,4-1&#10;&#9;&#9;&#9;&#9;c0,0,0,0,0,0c1.3-0.3,2.6-0.7,3.9-1c0.1,0,0.2-0.1,0.3-0.1c1.1-0.3,2.2-0.6,3.3-0.9c0.3-0.1,0.6-0.1,0.8-0.2c1-0.3,2-0.6,3-0.9&#10;&#9;&#9;&#9;&#9;c1.4-0.4,2.8-0.9,4.1-1.3c0.6-0.2,1.2-0.4,1.7-0.6c1.1-0.4,2.2-0.8,3.3-1.1C457.2,393,458.4,392.5,459.6,392.1z" id="el_cXvv1_cn_2"/>
		</g>
		<path d="M379.9,407.5c-0.4,0-0.8,0.1-1.2,0.1c-1.2,0.1-2.5,0.2-3.7,0.2c-2.6,0.1-5.3,0.2-7.9,0.3&#10;&#9;&#9;&#9;c-1.1,0-2.2,0.1-3.3,0.1c-0.3,0-0.7,0-1,0c-1.2,0-2.4,0-3.5,0c-16.7,0-32.7-1.2-47.5-3.1c2.7,3.8,5.6,7.6,8.7,11.4&#10;&#9;&#9;&#9;c1.5,1.9,3.1,3.8,4.6,5.6c21-0.1,40.2-1.6,57.5-4.5c1.4-1.8,4-4.2,5.3-6.1c1-1.4,1.9-2.9,2.9-4.4c0.1-0.1,0.2-0.3,0.3-0.5&#10;&#9;&#9;&#9;C387.2,406.9,383.5,407.2,379.9,407.5z" id="el_uJyLAWCQ3ee"/>
		<path d="M320,422c-0.6,0-1.1,0-1.7,0c0,0-53.8-7.6-101.2-38.5c0.9,0.3,38.1,15,89.5,21.5&#10;&#9;&#9;&#9;C310.8,410.7,315.2,416.3,320,422z" id="el_TPacmtmlH_q"/>
		<path d="M315.5,90.3C315.5,90.3,315.5,90.3,315.5,90.3" id="el_XXyllnGhTHT"/>
	</g>
</g>
<g id="el_TXlvLmGtmJZ">
	<path id="el_FO6-fkLc29D" d="M397.4,111.8C397.4,111.8,397.4,111.8,397.4,111.8C397.4,111.8,397.4,111.8,397.4,111.8&#10;&#9;&#9;c0,0-0.1-0.1-0.2-0.2c-22.5,9-45.9,4.6-62.3-1.2c-5.3-1.9-9.9-3.8-13.5-5.6c0.1-0.1,0.1-0.2,0.2-0.3c-0.1,0.1-0.1,0.2-0.2,0.3&#10;&#9;&#9;c-1.2-0.6-2.2-1.1-3.2-1.6c-0.1,0.2-0.2,0.3-0.2,0.3c-111.3-9.8-147.1,100.2-147.1,100.2c-30.4,95.2,9.9,149.7,56.8,180.3&#10;&#9;&#9;c0,0,0,0,0,0c0,0,0,0,0,0c45.1,29.4,96.3,36.6,96.3,36.6c0.5,0,1.1,0,1.6,0c53.7-0.3,94.4-10.3,124.3-28.5&#10;&#9;&#9;c48-29.2,68.2-79.6,69.2-144.4C520.8,142.2,397.4,111.8,397.4,111.8z M462.9,270.9c0,0.1-0.1,0.2-0.1,0.3&#10;&#9;&#9;C462.8,271.1,462.9,271,462.9,270.9z M458.4,234.3c0.3,0.7,0.5,1.4,0.8,2.1c0,0,0,0,0,0c0.2,0.7,0.5,1.3,0.7,1.9&#10;&#9;&#9;C459.4,237.1,458.9,235.7,458.4,234.3c-0.1-0.3-0.2-0.5-0.3-0.8C458.3,233.8,458.4,234,458.4,234.3z M395.9,151.4&#10;&#9;&#9;c-0.9-0.1-1.7-0.2-2.6-0.4c1.7,0.3,3.5,0.5,5.2,0.7C397.6,151.6,396.7,151.5,395.9,151.4z M248.9,162.8c0,0,0.1,0.1,0.1,0.1&#10;&#9;&#9;C248.9,162.9,248.9,162.8,248.9,162.8z M249.8,163.9c0,0,0.1,0.1,0.1,0.1C249.9,164,249.9,163.9,249.8,163.9z M250.8,165.2&#10;&#9;&#9;C250.8,165.2,250.8,165.2,250.8,165.2C250.8,165.2,250.8,165.2,250.8,165.2z M262.7,200.8c0,0.1,0,0.2,0,0.3c0,0.2,0,0.3,0,0.5&#10;&#9;&#9;c0,0.1,0,0.1,0,0.2c0,0.1,0,0.1,0,0.2c0,0.1,0,0.3,0,0.4c0-0.7-0.1-1.6-0.2-2.7c0,0.1,0,0.2,0,0.4&#10;&#9;&#9;C262.6,200.3,262.7,200.6,262.7,200.8z M262.3,196.7c0,0.3,0.1,0.5,0.1,0.7c-0.1-0.5-0.1-1-0.2-1.6c0,0.1,0,0.2,0.1,0.4&#10;&#9;&#9;C262.3,196.3,262.3,196.5,262.3,196.7z M262.1,194.9c0-0.3-0.1-0.5-0.1-0.8c0,0.2,0.1,0.4,0.1,0.5&#10;&#9;&#9;C262,194.7,262.1,194.8,262.1,194.9z M260.6,187.1c-0.1-0.2-0.1-0.5-0.2-0.7c0,0.1,0.1,0.2,0.1,0.3&#10;&#9;&#9;C260.5,186.8,260.6,187,260.6,187.1z M258.8,180.8C258.8,180.8,258.8,180.8,258.8,180.8C258.8,180.8,258.8,180.8,258.8,180.8&#10;&#9;&#9;C258.8,180.8,258.8,180.8,258.8,180.8z M246.2,160C246.2,160,246.2,160,246.2,160C246.1,160,246.2,160,246.2,160&#10;&#9;&#9;C246.2,160,246.2,160,246.2,160z M234.7,153c0.2,0.1,0.4,0.2,0.6,0.3c-0.8-0.3-1.6-0.6-2.4-0.9c0.3,0.1,0.6,0.2,0.9,0.3&#10;&#9;&#9;C234.1,152.8,234.4,152.9,234.7,153z M226.9,150.4C227,150.4,227,150.4,226.9,150.4c0.2,0,0.3,0.1,0.5,0.1&#10;&#9;&#9;c-0.2-0.1-0.4-0.1-0.6-0.2c0,0,0,0,0,0C226.9,150.4,226.9,150.4,226.9,150.4z M225.1,150.1C225.1,150.1,225.1,150.1,225.1,150.1&#10;&#9;&#9;l0.1,0c0.1,0,0.1,0,0.2,0c-0.2,0-0.4,0-0.6-0.1c0,0,0.1,0,0.1,0C225,150.1,225,150.1,225.1,150.1z M226.4,150.3&#10;&#9;&#9;c-0.2,0-0.4-0.1-0.6-0.1C226,150.2,226.2,150.3,226.4,150.3z M224.3,150.1c-0.1,0-0.3,0-0.4,0C224,150.1,224.2,150.1,224.3,150.1z&#10;&#9;&#9; M223.3,150.1c-0.2,0-0.4,0-0.6,0C222.9,150.2,223.1,150.1,223.3,150.1C223.3,150.1,223.3,150.1,223.3,150.1z M222.3,150.2&#10;&#9;&#9;c-0.2,0-0.4,0.1-0.7,0.1c0,0,0.1,0,0.1,0C222,150.3,222.1,150.2,222.3,150.2z M220.9,150.5c0,0-0.1,0-0.1,0&#10;&#9;&#9;C220.8,150.5,220.8,150.5,220.9,150.5C220.9,150.5,220.9,150.5,220.9,150.5z M219.6,150.9c0,0,0.1,0,0.1,0&#10;&#9;&#9;C219.7,150.9,219.6,150.9,219.6,150.9z M218,151.6c-0.2,0.1-0.4,0.2-0.6,0.3c0,0,0.1-0.1,0.1-0.1&#10;&#9;&#9;C217.7,151.7,217.9,151.6,218,151.6z M217.1,152.1c-0.2,0.1-0.4,0.2-0.6,0.4c0.1-0.1,0.2-0.1,0.3-0.2&#10;&#9;&#9;C216.8,152.2,216.9,152.1,217.1,152.1z M216.2,152.6c-0.3,0.2-0.5,0.3-0.8,0.5c0.2-0.1,0.3-0.2,0.5-0.3&#10;&#9;&#9;C216,152.7,216.1,152.6,216.2,152.6z M214.9,153.5c-0.1,0.1-0.2,0.2-0.3,0.2c0,0,0.1-0.1,0.1-0.1&#10;&#9;&#9;C214.7,153.6,214.8,153.5,214.9,153.5z M214.1,154c-0.2,0.2-0.4,0.3-0.6,0.5c0.2-0.1,0.3-0.3,0.5-0.4&#10;&#9;&#9;C214,154.1,214.1,154.1,214.1,154z M212.1,155.7c0.3-0.3,0.7-0.6,1-0.9c-0.6,0.6-1.3,1.1-1.9,1.8&#10;&#9;&#9;C211.5,156.3,211.8,156,212.1,155.7z M211,156.8c-0.2,0.2-0.5,0.5-0.7,0.7c0,0,0,0,0.1-0.1C210.5,157.3,210.8,157.1,211,156.8z&#10;&#9;&#9; M201.6,169.7c0,0-0.1,0.1-0.1,0.1c0,0,0,0,0,0C201.6,169.8,201.6,169.7,201.6,169.7z M209,158.9c-0.2,0.2-0.3,0.4-0.5,0.6&#10;&#9;&#9;C208.7,159.3,208.9,159.1,209,158.9z M207.8,160.5c-0.2,0.2-0.3,0.4-0.5,0.7C207.4,160.9,207.6,160.7,207.8,160.5z M206.1,162.7&#10;&#9;&#9;c-0.1,0.1-0.2,0.2-0.2,0.3C205.9,162.9,206,162.8,206.1,162.7z M200.9,170.9c-0.1,0.2-0.2,0.3-0.3,0.5c0-0.1,0.1-0.1,0.1-0.2&#10;&#9;&#9;C200.8,171.1,200.9,171,200.9,170.9z M199.6,173.2c0,0.1-0.1,0.2-0.1,0.3C199.5,173.4,199.6,173.3,199.6,173.2z M192.6,195.4&#10;&#9;&#9;c0,0.4,0,0.8,0,1.1C192.6,196.2,192.6,195.8,192.6,195.4z M195,183c0,0.1-0.1,0.2-0.1,0.3C194.9,183.2,194.9,183.1,195,183z&#10;&#9;&#9; M194.5,184.4c-0.1,0.3-0.2,0.7-0.3,1C194.3,185.1,194.4,184.8,194.5,184.4z M193.9,186.4c-0.1,0.4-0.2,0.8-0.3,1.2&#10;&#9;&#9;C193.7,187.2,193.8,186.8,193.9,186.4z M193.4,188.5c-0.1,0.4-0.2,0.9-0.2,1.3C193.2,189.4,193.3,188.9,193.4,188.5z M193,190.8&#10;&#9;&#9;c-0.1,0.4-0.1,0.9-0.2,1.3C192.9,191.6,193,191.2,193,190.8z M192.8,193.1c0,0.4-0.1,0.8-0.1,1.2&#10;&#9;&#9;C192.7,193.9,192.7,193.5,192.8,193.1z M192.6,197.8c0,0.4,0,0.8,0,1.2c0-0.2,0-0.3,0-0.5C192.6,198.3,192.6,198.1,192.6,197.8z&#10;&#9;&#9; M192.8,201.9c0-0.5-0.1-1-0.1-1.5v-0.1c0-0.3,0-0.6,0-0.8c0,0,0,0,0,0c0.1,1.5,0.2,3,0.3,4.5c0,0,0,0,0,0&#10;&#9;&#9;C192.9,203.2,192.8,202.6,192.8,201.9z M193.1,205.2c0,0.4,0.1,0.7,0.1,1.1c0-0.1,0-0.2,0-0.2C193.2,205.8,193.2,205.5,193.1,205.2&#10;&#9;&#9;z M193.4,206.7c0.1,0.4,0.1,0.8,0.2,1.2c0-0.3-0.1-0.5-0.1-0.8C193.4,207,193.4,206.9,193.4,206.7z M193.9,209.8c0-0.1,0-0.1,0-0.2&#10;&#9;&#9;c0-0.1,0-0.2-0.1-0.4c0.1,0.5,0.2,1,0.3,1.6c0-0.1,0-0.2-0.1-0.2C194,210.3,193.9,210,193.9,209.8z M194.3,211.8&#10;&#9;&#9;c0-0.1,0-0.2-0.1-0.3c0.1,0.5,0.2,1,0.4,1.5c0-0.1-0.1-0.2-0.1-0.3C194.5,212.4,194.4,212.1,194.3,211.8z M195,214.4&#10;&#9;&#9;c0.1,0.4,0.2,0.7,0.3,1.1c-0.1-0.2-0.1-0.4-0.2-0.6C195,214.7,195,214.5,195,214.4z M195.6,216.7c0-0.1-0.1-0.3-0.1-0.4&#10;&#9;&#9;c0.3,0.9,0.5,1.8,0.8,2.7c0-0.2-0.1-0.3-0.1-0.4C195.9,217.9,195.7,217.3,195.6,216.7z M197.1,221.5c0.1,0.3,0.2,0.6,0.3,0.8&#10;&#9;&#9;c-0.1-0.1-0.1-0.3-0.2-0.4C197.2,221.8,197.2,221.7,197.1,221.5z M197.7,223.2c0.2,0.4,0.3,0.8,0.5,1.2c-0.1-0.3-0.2-0.5-0.3-0.8&#10;&#9;&#9;C197.8,223.5,197.8,223.3,197.7,223.2z M198.4,225c0.1,0.2,0.2,0.5,0.3,0.7c-0.1-0.2-0.1-0.3-0.2-0.5&#10;&#9;&#9;C198.5,225.2,198.5,225.1,198.4,225z M200.4,229.7c0.1,0.2,0.2,0.4,0.3,0.6c-0.1-0.1-0.1-0.2-0.2-0.4&#10;&#9;&#9;C200.5,229.9,200.5,229.8,200.4,229.7z M199.5,227.5c0.1,0.1,0.1,0.3,0.2,0.4C199.6,227.8,199.5,227.6,199.5,227.5z M201.3,231.4&#10;&#9;&#9;C201.2,231.4,201.2,231.4,201.3,231.4c0.1,0.3,0.3,0.7,0.5,1c-0.1-0.1-0.1-0.2-0.2-0.3C201.5,231.9,201.4,231.7,201.3,231.4z&#10;&#9;&#9; M202,233c0.2,0.4,0.4,0.7,0.6,1.1c-0.1-0.2-0.2-0.4-0.3-0.6C202.2,233.3,202.1,233.2,202,233z M203,234.8c0,0.1,0.1,0.1,0.1,0.2&#10;&#9;&#9;C203.1,234.9,203.1,234.9,203,234.8C203,234.8,203,234.8,203,234.8z M204.1,236.7c0-0.1-0.1-0.1-0.1-0.2c0.2,0.3,0.3,0.6,0.5,0.8&#10;&#9;&#9;c0,0,0,0,0,0C204.4,237.1,204.3,236.9,204.1,236.7z M204.9,238c0.2,0.2,0.3,0.5,0.5,0.7c-0.1-0.1-0.1-0.2-0.2-0.3&#10;&#9;&#9;C205.1,238.3,205,238.1,204.9,238z M206,239.6c0.1,0.2,0.3,0.4,0.4,0.6c0-0.1-0.1-0.1-0.1-0.2C206.2,239.9,206.1,239.7,206,239.6z&#10;&#9;&#9; M206.8,240.7c0.1,0.1,0.2,0.2,0.3,0.4c0-0.1-0.1-0.1-0.1-0.1C206.9,240.9,206.8,240.8,206.8,240.7z M207.6,241.7&#10;&#9;&#9;c0.1,0.1,0.2,0.3,0.4,0.4C207.8,242,207.7,241.9,207.6,241.7C207.6,241.7,207.6,241.7,207.6,241.7z M208.6,242.9&#10;&#9;&#9;c-0.1-0.1-0.1-0.2-0.2-0.2c0.2,0.2,0.4,0.4,0.6,0.6c0,0,0,0,0,0C208.8,243.1,208.7,243,208.6,242.9z M209.3,243.5&#10;&#9;&#9;c0.2,0.2,0.4,0.4,0.6,0.5c-0.1-0.1-0.2-0.2-0.3-0.3C209.5,243.7,209.4,243.6,209.3,243.5z M209.8,244.1c0.1,0.1,0.2,0.2,0.3,0.3&#10;&#9;&#9;C210.1,244.3,209.9,244.2,209.8,244.1C209.8,244.1,209.8,244.1,209.8,244.1z"/>
	<path d="M380.1,94.9" id="el_90ZoDZXx2LZ"/>
	<path d="M334.6,94.8c0,0.1,0,0.2-0.1,0.2c-0.1,0.5-0.2,1-0.4,1.6c-0.3,1.1-0.7,2.2-1.1,3.1c-1.8,4.6-4,7.2-4,7.2&#10;&#9;&#9;s-0.6-0.1-1.6-0.2c-3.7-0.4-12.6-1.9-12.6-5.5c0-3.1,3.4-8.6,5.5-12.3c0.1-0.1,0.1-0.2,0.2-0.4c-0.1,0.1-0.1,0.2-0.2,0.4&#10;&#9;&#9;C324.2,90.8,329,92.9,334.6,94.8z" id="el_7wT12aN7P62"/>
	<g id="el_wMHTdF-_duA">
		<path d="M222.1,137c-11.7-3.5-23.4,9.6-33.7,32.2s6.4,58.8,14.9,65.9s30.1,18.1,38.6,14.5c8.5-3.5,17-57,17-57&#10;&#9;&#9;&#9;s0-17.4-7.8-32.6C243.3,144.8,233.8,140.6,222.1,137z" id="el_NPNz0JAwOFr"/>
		<g id="el_2QWcV4osgc7">
			<path d="M320.4,89C320.4,89,320.4,89,320.4,89c0.1-0.1,0.1-0.2,0.2-0.4C320.6,88.8,320.5,88.9,320.4,89z&#10;&#9;&#9;&#9;&#9; M467.9,267.5c0.7-2.6,1.5-5.4,2.5-8.6c0.3-1,0.6-2,0.8-2.9c-0.2,0.9-0.5,1.9-0.8,2.9C469.4,262.1,468.6,265,467.9,267.5z&#10;&#9;&#9;&#9;&#9; M420,136.6c0-0.1,0.1-0.2,0.1-0.2c0-0.1,0-0.1,0-0.2c0,0.1,0,0.1,0,0.2C420.1,136.4,420.1,136.5,420,136.6z M419.7,134.5&#10;&#9;&#9;&#9;&#9;c-0.1-0.3-0.3-0.6-0.5-0.8C419.4,133.9,419.6,134.2,419.7,134.5z M402.8,119.7L402.8,119.7L402.8,119.7&#10;&#9;&#9;&#9;&#9;C402.8,119.7,402.8,119.7,402.8,119.7z M314.9,101.2c0-3.1,3.4-8.6,5.5-12.3c-1.2-0.6-2.3-1.2-3.3-1.7c-0.1,0.2-0.2,0.3-0.2,0.3&#10;&#9;&#9;&#9;&#9;C199.9,77.3,162.4,192.8,162.4,192.8c-31.9,100,10.4,157.2,59.7,189.3c0,0,0,0,0,0c0,0,0,0,0,0c0.9,0.3,38.1,15,89.5,21.5&#10;&#9;&#9;&#9;&#9;c-96.2-132.7-10.9-262.1,15.9-296.9C323.8,106.3,314.9,104.9,314.9,101.2z M241.9,249.7c-8.5,3.5-30.1-7.4-38.6-14.5&#10;&#9;&#9;&#9;&#9;c-0.1-0.1-0.2-0.2-0.3-0.3c-0.2-0.2-0.4-0.4-0.7-0.6c-0.1-0.1-0.2-0.2-0.3-0.3c-0.1-0.1-0.3-0.3-0.4-0.5c0,0,0,0-0.1-0.1&#10;&#9;&#9;&#9;&#9;c-0.2-0.2-0.4-0.4-0.5-0.6c-0.2-0.3-0.5-0.6-0.7-0.9c-0.2-0.3-0.5-0.6-0.7-1c-0.4-0.5-0.7-1.1-1.1-1.6c-0.2-0.4-0.5-0.8-0.8-1.2&#10;&#9;&#9;&#9;&#9;c-0.1-0.2-0.2-0.4-0.4-0.6c-0.4-0.6-0.8-1.3-1.1-2c-0.2-0.5-0.5-0.9-0.8-1.4c-0.2-0.5-0.5-1-0.8-1.5c-0.1-0.2-0.2-0.5-0.4-0.8&#10;&#9;&#9;&#9;&#9;c-0.2-0.5-0.5-1-0.7-1.5c-0.7-1.6-1.4-3.2-2.1-4.9c-0.2-0.6-0.4-1.2-0.7-1.7c-0.2-0.6-0.4-1.2-0.7-1.8c-0.4-1.2-0.8-2.4-1.2-3.7&#10;&#9;&#9;&#9;&#9;c-0.2-0.6-0.4-1.2-0.6-1.9c-0.2-0.6-0.4-1.3-0.5-1.9c-0.2-0.8-0.4-1.5-0.6-2.3c-0.1-0.3-0.2-0.7-0.2-1c-0.1-0.4-0.2-0.9-0.3-1.3&#10;&#9;&#9;&#9;&#9;c-0.1-0.3-0.1-0.5-0.2-0.8c0-0.1,0-0.2,0-0.2c-0.2-0.8-0.3-1.7-0.4-2.5c-0.1-0.4-0.1-0.8-0.2-1.2c-0.1-0.8-0.2-1.6-0.3-2.3&#10;&#9;&#9;&#9;&#9;c-0.1-0.7-0.1-1.4-0.2-2.1c0-0.5-0.1-1.1-0.1-1.6v-0.1c0-0.3,0-0.6,0-0.9c0-0.3,0-0.6,0-0.9c-0.2-6.4,0.8-12.7,3.2-18.1&#10;&#9;&#9;&#9;&#9;c0.6-1.3,1.2-2.7,1.8-3.9c0.3-0.6,0.6-1.3,0.9-1.9c0.8-1.7,1.7-3.3,2.6-4.8c0.3-0.5,0.6-1,0.8-1.5c0.3-0.5,0.6-1,0.9-1.5&#10;&#9;&#9;&#9;&#9;c0.3-0.4,0.5-0.9,0.8-1.3c0.3-0.5,0.6-1,0.9-1.5c0.2-0.3,0.4-0.6,0.6-0.9c2-3,4-5.6,6-7.7c0.6-0.7,1.3-1.3,1.9-1.9&#10;&#9;&#9;&#9;&#9;c0.6-0.6,1.3-1.1,1.9-1.6c0.3-0.2,0.5-0.4,0.8-0.6c0.2-0.2,0.4-0.3,0.7-0.5c0.2-0.2,0.5-0.3,0.7-0.5c0.3-0.2,0.5-0.3,0.8-0.5&#10;&#9;&#9;&#9;&#9;c0.3-0.2,0.6-0.4,1-0.5c0.3-0.1,0.6-0.3,0.8-0.4c0.8-0.4,1.7-0.7,2.5-0.9c0.3-0.1,0.5-0.1,0.8-0.2c0.1,0,0.1,0,0.2-0.1&#10;&#9;&#9;&#9;&#9;c0.2,0,0.4-0.1,0.6-0.1c0.1,0,0.1,0,0.2,0c0.2,0,0.4,0,0.7-0.1c0.6,0,1.2,0,1.8,0c0.1,0,0.1,0,0.1,0c0,0,0.1,0,0.1,0h0&#10;&#9;&#9;&#9;&#9;c0.6,0,1.1,0.1,1.7,0.3c0,0,0.1,0,0.1,0c0,0,0,0,0.1,0c0.2,0,0.5,0.1,0.7,0.2h0c0.6,0.2,1.1,0.3,1.6,0.5c0.4,0.1,0.8,0.3,1.3,0.4&#10;&#9;&#9;&#9;&#9;c0.5,0.2,0.9,0.3,1.4,0.5c0.4,0.1,0.7,0.2,1,0.4c0.4,0.1,0.7,0.3,1.1,0.4c0.3,0.1,0.6,0.2,1,0.4c0.3,0.1,0.7,0.3,1,0.4&#10;&#9;&#9;&#9;&#9;c0.3,0.1,0.7,0.3,1,0.4c0.3,0.1,0.7,0.3,1,0.4c0.3,0.2,0.6,0.3,1,0.5c0.7,0.3,1.3,0.7,1.9,1c0.3,0.2,0.6,0.4,0.9,0.6&#10;&#9;&#9;&#9;&#9;c0.3,0.2,0.6,0.4,0.9,0.6c0.3,0.2,0.6,0.4,0.9,0.6c0.6,0.4,1.2,0.9,1.8,1.3c0.2,0.2,0.5,0.4,0.7,0.6c0.3,0.3,0.6,0.5,0.9,0.8&#10;&#9;&#9;&#9;&#9;c0.3,0.3,0.6,0.6,1,0.9c0.3,0.3,0.6,0.6,0.9,0.9c1.4,1.5,2.7,3.1,4,5c0.7,0.9,1.3,1.9,1.9,3c0.3,0.5,0.6,1.1,0.9,1.6&#10;&#9;&#9;&#9;&#9;c0.1,0.3,0.3,0.6,0.5,0.9c0.2,0.3,0.3,0.6,0.5,0.9c0.4,0.7,0.7,1.4,1.1,2.2c0.2,0.4,0.3,0.7,0.5,1.1c0.3,0.7,0.6,1.5,0.9,2.2&#10;&#9;&#9;&#9;&#9;c0.2,0.4,0.3,0.7,0.4,1.1c0.3,0.7,0.5,1.4,0.8,2.2c0.3,1,0.6,1.9,0.9,2.9c0.2,0.6,0.4,1.2,0.5,1.8c0.1,0.5,0.3,1,0.4,1.5&#10;&#9;&#9;&#9;&#9;c0.3,1.3,0.6,2.6,0.8,3.8c0.2,0.8,0.3,1.5,0.4,2.2c0.1,0.5,0.2,1,0.2,1.5c0,0.3,0.1,0.6,0.1,0.9c0,0.3,0.1,0.6,0.1,0.8&#10;&#9;&#9;&#9;&#9;c0,0.3,0.1,0.5,0.1,0.8c0,0.2,0,0.3,0.1,0.5c0,0.3,0.1,0.7,0.1,1c0,0.3,0.1,0.6,0.1,0.9c0,0.3,0.1,0.6,0.1,0.9&#10;&#9;&#9;&#9;&#9;c0,0.3,0.1,0.5,0.1,0.8c0,0.3,0,0.5,0,0.7c0,0.1,0,0.2,0,0.3c0,0.2,0,0.3,0,0.5c0,0.1,0,0.2,0,0.2c0,0.1,0,0.1,0,0.2&#10;&#9;&#9;&#9;&#9;c0.1,1.1,0.1,1.7,0.1,1.7S250.4,246.2,241.9,249.7z" id="el_mQ1_AbFZmnx"/>
			<path d="M324.9,420.6c-0.6,0-1.1,0-1.7,0c0,0-53.8-7.6-101.2-38.5c0.9,0.3,38.1,15,89.5,21.5&#10;&#9;&#9;&#9;&#9;C315.7,409.3,320.1,415,324.9,420.6z" id="el_sTBgqfuGlFU"/>
		</g>
	</g>
	<path d="M320.4,89C320.4,89,320.4,89,320.4,89" id="el_VEiEMtG0hg0"/>
	<g id="el_nv4dchgQMOI_an_0Ma4y_qyu" data-animator-group="true" data-animator-type="0"><g id="el_nv4dchgQMOI_an_19jzjH-Sp" data-animator-group="true" data-animator-type="1"><g id="el_nv4dchgQMOI">
		<path d="M196.9,131.1l-166.7,96c-7.3,4.2-16.7,1.7-20.9-5.6L2,208.8c-4.2-7.3-1.7-16.7,5.6-20.9l166.7-96L196.9,131.1&#10;&#9;&#9;&#9;z" id="el_3gxUS88XVsX"/>
		
			<rect x="184.3" y="86.4" width="17.7" height="40.9" id="el_DIY0Yy5mNxy"/>
		<path d="M208.2,115.1c-0.1,0-0.2,0.1-0.3,0.1" id="el_rY-AEI8bvyZ"/>
		<path d="M395.9,0.3C368.6,34,227.3,118.5,227.3,118.5c-2.8-3-6.3-4.9-10-5.4c-2.7-0.4-5.7,0.2-9.1,2.1l-13.6-23.6&#10;&#9;&#9;&#9;l94.1-53.8c23.2-11.1,57.9-27.1,91.3-34.9C385.8,1.4,391.1,0.6,395.9,0.3z" id="el_c6aE6HTJHWt"/>
		<path d="M413.2,0.5c-13.1,12-27,24.1-41.9,36.1c-47.9,38.7-95.3,68.5-138.8,91.6c-1-3.9-2.8-7.2-5.2-9.8&#10;&#9;&#9;&#9;c0,0,141.3-84.5,168.6-118.2C402.6-0.2,408.4,0,413.2,0.5z" id="el_F89pXfyXzXT"/>
	</g></g></g>
	<g id="el_YWcTO0ZNmOS_an_p0uEoTf_x" data-animator-group="true" data-animator-type="0"><g id="el_YWcTO0ZNmOS">
		<path d="M472.3,248.8c0,0.2,0,0.4,0,0.6c0,0.2,0,0.3,0,0.5c0,0.2,0,0.4,0,0.6c0,0.2,0,0.3-0.1,0.5&#10;&#9;&#9;&#9;c-0.1,0.6-0.1,1.1-0.2,1.8c-0.1,0.4-0.1,0.8-0.2,1.2v0c-0.1,0.4-0.2,0.9-0.3,1.3c-0.1,0.2-0.1,0.5-0.2,0.7&#10;&#9;&#9;&#9;c-0.2,0.9-0.5,1.9-0.8,2.9c-1,3.2-1.8,6-2.5,8.6v0c-0.1,0.5-0.3,1.1-0.4,1.6c-0.1,0.3-0.1,0.5-0.2,0.8l-0.2,0.8&#10;&#9;&#9;&#9;c-0.2,0.7-0.4,1.3-0.6,1.9c-0.7,2.4-1.5,4.5-2.4,6.2c-0.1,0.3-0.3,0.5-0.4,0.8c-0.1,0.2-0.3,0.5-0.5,0.7c-0.1,0.2-0.3,0.4-0.4,0.6&#10;&#9;&#9;&#9;c0,0-0.1,0.1-0.1,0.1c-0.2,0.2-0.3,0.4-0.5,0.5c-0.2,0.2-0.3,0.3-0.5,0.5c-0.1,0.1-0.1,0.1-0.2,0.2c-0.2,0.2-0.4,0.3-0.6,0.4&#10;&#9;&#9;&#9;c-0.1,0.1-0.2,0.2-0.4,0.2c-0.2,0.1-0.3,0.2-0.5,0.3c-0.2,0.1-0.3,0.2-0.5,0.2c-0.4,0.2-0.7,0.3-1.1,0.4c-7.1,2.1-7.1,2.1-7.1,2.1&#10;&#9;&#9;&#9;s-40.4-8.5-51.4-15.6c-11-7.1-41.1-22.7-40.7-35.8c0.4-13.1,11.3-53.2,37.6-54.2s20.6,1.8,37.9,13.1c1.9,1.2,3.6,2.3,5.2,3.4&#10;&#9;&#9;&#9;c0.3,0.2,0.6,0.4,1,0.6c0.6,0.4,1.2,0.8,1.8,1.2c0.6,0.4,1.2,0.8,1.8,1.2c0.3,0.2,0.6,0.4,0.8,0.6c0.3,0.2,0.6,0.4,0.8,0.6&#10;&#9;&#9;&#9;c0.5,0.3,1,0.7,1.4,1c0.2,0.1,0.4,0.3,0.6,0.4c0.4,0.3,0.7,0.5,1.1,0.8c0.2,0.2,0.5,0.4,0.7,0.5c0.4,0.3,0.9,0.7,1.3,1&#10;&#9;&#9;&#9;c0.3,0.3,0.6,0.5,0.9,0.8c0.1,0.1,0.3,0.3,0.4,0.4c0.1,0,0.1,0.1,0.1,0.1c0.1,0.1,0.3,0.2,0.4,0.4c0.4,0.4,0.8,0.7,1.2,1.1&#10;&#9;&#9;&#9;c0.1,0.1,0.3,0.3,0.4,0.4c0.1,0.1,0.3,0.3,0.4,0.4c0.1,0.2,0.3,0.3,0.4,0.4c0.8,0.8,1.5,1.7,2.2,2.7c0.1,0.2,0.2,0.3,0.4,0.5&#10;&#9;&#9;&#9;c0.1,0.2,0.2,0.3,0.3,0.5c0.2,0.3,0.5,0.7,0.7,1s0.4,0.7,0.6,1c0.2,0.4,0.4,0.7,0.6,1.1c0.1,0.2,0.2,0.4,0.3,0.6&#10;&#9;&#9;&#9;c0.2,0.4,0.4,0.8,0.6,1.2c0.1,0.2,0.2,0.4,0.3,0.6c0.1,0.2,0.2,0.4,0.3,0.6c0.2,0.4,0.4,0.8,0.6,1.3v0c0.2,0.5,0.4,0.9,0.6,1.4&#10;&#9;&#9;&#9;c0.2,0.5,0.4,1,0.6,1.4c0.2,0.5,0.4,1,0.6,1.5c0.1,0.3,0.2,0.5,0.3,0.8c0.5,1.5,1.1,2.9,1.6,4.2c1.1,3,2.2,5.4,3.1,7.6&#10;&#9;&#9;&#9;c0.2,0.5,0.4,1,0.6,1.4c0.5,1.2,0.9,2.3,1.3,3.4c0.1,0.3,0.2,0.6,0.3,0.9c0.1,0.2,0.1,0.5,0.2,0.7c0.1,0.2,0.1,0.4,0.2,0.7&#10;&#9;&#9;&#9;c0.1,0.4,0.2,0.8,0.3,1.2c0.1,0.3,0.1,0.6,0.1,0.9c0,0.3,0.1,0.6,0.1,0.9c0,0,0,0,0,0.1c0,0.2,0,0.5,0.1,0.7c0,0.1,0,0.3,0,0.4&#10;&#9;&#9;&#9;C472.3,248.3,472.3,248.6,472.3,248.8z" id="el_8znT07ds8rr"/>
		<path d="M420.2,135.9c0,0.1,0,0.1,0,0.2s0,0.1,0,0.2c0,0.1-0.1,0.2-0.1,0.2c0,0.1-0.1,0.2-0.1,0.2&#10;&#9;&#9;&#9;c0,0.1-0.1,0.1-0.1,0.2c-0.1,0.1-0.1,0.2-0.2,0.2c-0.1,0.1-0.2,0.2-0.3,0.2c-0.4,0.2-0.8,0.4-1.4,0.6c-0.1,0-0.2,0.1-0.3,0.1&#10;&#9;&#9;&#9;c-0.1,0-0.2,0.1-0.4,0.1c0,0,0,0-0.1,0c0,0,0,0-0.1,0c-0.3,0.1-0.7,0.2-1.1,0.2c-0.2,0-0.4,0-0.6,0.1c-0.3,0-0.6,0.1-0.9,0.1&#10;&#9;&#9;&#9;c-0.2,0-0.5,0-0.7,0c-0.2,0-0.5,0-0.8,0c-0.9,0-1.8,0-2.8,0c-0.2,0-0.4,0-0.7,0c-0.3,0-0.6,0-1,0c-0.4,0-0.9,0-1.4-0.1&#10;&#9;&#9;&#9;c0,0,0,0,0,0c-0.4,0-0.9-0.1-1.4-0.1c-0.5,0-0.9-0.1-1.4-0.1c-0.9-0.1-1.9-0.2-2.8-0.3c-1.9-0.2-3.7-0.5-5.5-0.7&#10;&#9;&#9;&#9;c-0.4-0.1-0.9-0.1-1.3-0.2c-1.7-0.3-3.3-0.6-4.7-0.9c-0.2,0-0.4-0.1-0.7-0.1c-0.4-0.1-0.8-0.2-1.1-0.3c-0.9-0.3-1.5-0.6-2-1&#10;&#9;&#9;&#9;c-0.1-0.1-0.2-0.1-0.3-0.2c-0.1-0.1-0.2-0.2-0.3-0.3c-0.1-0.1-0.2-0.2-0.2-0.3c0-0.1-0.1-0.1-0.1-0.2c-0.1-0.1-0.1-0.2-0.1-0.4&#10;&#9;&#9;&#9;c0-0.1,0-0.1,0-0.2c0,0,0,0,0,0c0-0.1,0-0.2,0-0.3c0-2.6,3-6.6,3-13.2c0-10.6,13.1,0.3,14.5,0h0v0c0,0,0,0,0,0c0,0,0.1,0,0.1,0.1&#10;&#9;&#9;&#9;c0,0,0,0,0.1,0c0,0,0.1,0,0.1,0c0,0,0,0,0,0c0.1,0.1,0.3,0.2,0.5,0.3c0.1,0.1,0.2,0.1,0.3,0.2c0,0,0.1,0.1,0.1,0.1&#10;&#9;&#9;&#9;c0.2,0.1,0.4,0.3,0.7,0.5c0.8,0.6,1.8,1.3,2.9,2.1c0.2,0.2,0.5,0.4,0.7,0.5c0.1,0.1,0.2,0.2,0.4,0.3c0.3,0.2,0.5,0.4,0.8,0.6&#10;&#9;&#9;&#9;c1.5,1.1,3,2.4,4.4,3.6c0.2,0.2,0.3,0.3,0.5,0.4c0.2,0.2,0.4,0.4,0.7,0.6c0.2,0.2,0.5,0.5,0.7,0.7c0.4,0.4,0.7,0.7,1,1&#10;&#9;&#9;&#9;c0.2,0.2,0.4,0.4,0.6,0.7c0,0,0,0,0,0c0.1,0.2,0.3,0.3,0.4,0.5c0.1,0.2,0.3,0.3,0.4,0.5c0,0,0,0,0,0c0.2,0.2,0.3,0.4,0.5,0.6&#10;&#9;&#9;&#9;c0.2,0.2,0.3,0.4,0.4,0.6c0,0,0,0,0,0c0.2,0.3,0.4,0.6,0.5,0.8c0,0,0,0,0,0c0.1,0.1,0.1,0.3,0.2,0.4c0.1,0.1,0.1,0.2,0.1,0.4&#10;&#9;&#9;&#9;c0,0.1,0.1,0.2,0.1,0.3C420.2,135.7,420.2,135.8,420.2,135.9z" id="el_qRS23zgKtKz"/>
		<path d="M400.3,96.3C400.3,96.3,400.3,96.3,400.3,96.3C400.3,96.3,400.3,96.3,400.3,96.3c-0.1,0-0.1-0.1-0.2-0.2&#10;&#9;&#9;&#9;c-23.7,9.4-48.2,4.8-65.5-1.2c0,0.1,0,0.2-0.1,0.2c-0.1,0.5-0.2,1-0.4,1.6c-0.3,1.1-0.7,2.2-1.1,3.1c-1.8,4.6-4,7.2-4,7.2&#10;&#9;&#9;&#9;s-0.6-0.1-1.6-0.2c-26.8,34.8-112.1,164.2-15.9,296.9c42.5,5.4,94.6,5.3,143.9-12.9c50.5-30.7,71.6-83.6,72.7-151.6&#10;&#9;&#9;&#9;C530,128.2,400.3,96.3,400.3,96.3z M388.2,119.7c0-10.6,13.1,0.3,14.5,0h0v0c0,0,0,0,0,0c0,0,0.1,0,0.1,0.1c0,0,0,0,0.1,0&#10;&#9;&#9;&#9;c0,0,0.1,0,0.1,0c0,0,0,0,0,0c0.1,0.1,0.3,0.2,0.5,0.3c0.1,0.1,0.2,0.1,0.3,0.2c0,0,0.1,0.1,0.1,0.1c0.2,0.1,0.5,0.3,0.7,0.5&#10;&#9;&#9;&#9;c0.8,0.6,1.8,1.3,2.9,2.1c0.2,0.2,0.5,0.3,0.7,0.5c0.1,0.1,0.2,0.2,0.4,0.3c0.3,0.2,0.5,0.4,0.8,0.6c1.5,1.1,3,2.4,4.4,3.6&#10;&#9;&#9;&#9;c0.2,0.1,0.3,0.3,0.5,0.4c0.2,0.2,0.4,0.4,0.7,0.6c0.2,0.2,0.5,0.5,0.7,0.7c0.4,0.4,0.7,0.7,1,1c0.2,0.2,0.4,0.4,0.6,0.7&#10;&#9;&#9;&#9;c0,0,0,0,0,0c0.1,0.2,0.3,0.3,0.4,0.5c0.2,0.2,0.3,0.3,0.4,0.5c0,0,0,0,0,0c0.2,0.2,0.3,0.4,0.5,0.6c0.2,0.2,0.3,0.4,0.4,0.6&#10;&#9;&#9;&#9;c0,0,0,0,0,0c0.2,0.3,0.4,0.6,0.5,0.8c0,0,0,0,0,0c0.1,0.1,0.1,0.3,0.2,0.4c0.1,0.1,0.1,0.2,0.1,0.4c0,0.1,0.1,0.2,0.1,0.3&#10;&#9;&#9;&#9;c0,0.1,0,0.2,0,0.3c0,0.1,0,0.1,0,0.2s0,0.1,0,0.2c0,0.1-0.1,0.2-0.1,0.2c0,0.1-0.1,0.2-0.1,0.2c0,0.1-0.1,0.1-0.1,0.2&#10;&#9;&#9;&#9;c-0.1,0.1-0.1,0.2-0.2,0.2c-0.1,0.1-0.2,0.2-0.3,0.2c-0.4,0.2-0.8,0.4-1.4,0.6c-0.1,0-0.2,0.1-0.3,0.1c-0.1,0-0.2,0.1-0.4,0.1&#10;&#9;&#9;&#9;c0,0,0,0-0.1,0c0,0,0,0-0.1,0c-0.3,0.1-0.7,0.2-1.1,0.2c-0.2,0-0.4,0-0.6,0.1c-0.3,0-0.6,0.1-0.9,0.1c-0.2,0-0.5,0-0.7,0&#10;&#9;&#9;&#9;c-0.2,0-0.5,0-0.8,0c-0.9,0-1.8,0-2.8,0c-0.2,0-0.4,0-0.7,0c-0.3,0-0.6,0-1,0c-0.4,0-0.9,0-1.4-0.1c0,0,0,0,0,0&#10;&#9;&#9;&#9;c-0.4,0-0.9,0-1.4-0.1c-0.5,0-0.9-0.1-1.4-0.1c-0.9-0.1-1.9-0.2-2.8-0.3c-0.9-0.1-1.9-0.2-2.8-0.3c-0.9-0.1-1.8-0.3-2.7-0.4&#10;&#9;&#9;&#9;c-0.4-0.1-0.9-0.1-1.3-0.2c-1.7-0.3-3.3-0.6-4.7-0.9c-0.2,0-0.4-0.1-0.7-0.1c-0.4-0.1-0.8-0.2-1.1-0.3c-0.9-0.3-1.5-0.6-2-1&#10;&#9;&#9;&#9;c-0.1-0.1-0.2-0.1-0.3-0.2c-0.1-0.1-0.2-0.2-0.3-0.3c-0.1-0.1-0.2-0.2-0.2-0.3c0-0.1-0.1-0.1-0.1-0.2c-0.1-0.1-0.1-0.3-0.1-0.4&#10;&#9;&#9;&#9;c0-0.1,0-0.1,0-0.2c0,0,0,0,0,0c0-0.1,0-0.2,0-0.3C385.2,130.3,388.2,126.3,388.2,119.7z M472.3,249.4c0,0.2,0,0.3,0,0.5&#10;&#9;&#9;&#9;c0,0.2,0,0.4,0,0.6c0,0.2,0,0.3-0.1,0.5c-0.1,0.6-0.1,1.1-0.2,1.8c-0.1,0.4-0.1,0.8-0.2,1.2v0c-0.1,0.4-0.2,0.9-0.3,1.3&#10;&#9;&#9;&#9;c-0.1,0.2-0.1,0.5-0.2,0.7c-0.2,0.9-0.5,1.9-0.8,2.9c-0.9,2.8-1.6,5.3-2.3,7.6c-0.1,0.3-0.2,0.7-0.3,1v0c-0.1,0.5-0.3,1.1-0.4,1.6&#10;&#9;&#9;&#9;c-0.1,0.3-0.1,0.5-0.2,0.8l-0.2,0.8c-0.2,0.7-0.4,1.3-0.6,1.9c-0.7,2.4-1.5,4.5-2.4,6.2c-0.1,0.3-0.3,0.5-0.4,0.8&#10;&#9;&#9;&#9;c-0.1,0.2-0.3,0.5-0.5,0.7c-0.1,0.2-0.3,0.4-0.4,0.6c0,0-0.1,0.1-0.1,0.1c-0.2,0.2-0.3,0.4-0.5,0.5c-0.2,0.2-0.3,0.3-0.5,0.5&#10;&#9;&#9;&#9;c-0.1,0.1-0.1,0.1-0.2,0.2c-0.2,0.2-0.4,0.3-0.6,0.4c-0.1,0.1-0.2,0.2-0.4,0.2c-0.2,0.1-0.3,0.2-0.5,0.3c-0.2,0.1-0.3,0.2-0.5,0.2&#10;&#9;&#9;&#9;c-0.4,0.2-0.7,0.3-1.1,0.4c-7.1,2.1-7.1,2.1-7.1,2.1s-40.4-8.5-51.4-15.6c-11-7.1-41.1-22.7-40.7-35.8&#10;&#9;&#9;&#9;c0.4-13.1,11.3-53.2,37.6-54.2s20.6,1.8,37.9,13.1c1.9,1.2,3.6,2.3,5.2,3.4c0.3,0.2,0.6,0.4,1,0.6c0.6,0.4,1.2,0.8,1.8,1.2&#10;&#9;&#9;&#9;c0.6,0.4,1.2,0.8,1.8,1.2c0.3,0.2,0.6,0.4,0.8,0.6c0.3,0.2,0.5,0.4,0.8,0.6c0.5,0.3,1,0.7,1.4,1c0.2,0.1,0.4,0.3,0.6,0.4&#10;&#9;&#9;&#9;c0.4,0.3,0.7,0.5,1.1,0.8c0.2,0.2,0.5,0.4,0.7,0.5c0.4,0.3,0.9,0.7,1.3,1c0.3,0.2,0.6,0.5,0.9,0.8c0.1,0.1,0.3,0.3,0.4,0.4&#10;&#9;&#9;&#9;c0.1,0,0.1,0.1,0.1,0.1c0.1,0.1,0.3,0.2,0.4,0.4c0.4,0.4,0.8,0.7,1.2,1.1c0.1,0.1,0.3,0.3,0.4,0.4c0.1,0.1,0.3,0.3,0.4,0.4&#10;&#9;&#9;&#9;c0.1,0.2,0.3,0.3,0.4,0.4c0.8,0.8,1.5,1.7,2.2,2.7c0.1,0.2,0.2,0.3,0.4,0.5c0.1,0.2,0.2,0.3,0.3,0.5c0.2,0.3,0.5,0.7,0.7,1&#10;&#9;&#9;&#9;c0.2,0.3,0.4,0.7,0.6,1c0.2,0.4,0.4,0.7,0.6,1.1c0.1,0.2,0.2,0.4,0.3,0.6c0.2,0.4,0.4,0.8,0.6,1.2c0.1,0.2,0.2,0.4,0.3,0.6&#10;&#9;&#9;&#9;c0.1,0.2,0.2,0.4,0.3,0.6c0.2,0.4,0.4,0.8,0.6,1.3v0c0.2,0.5,0.4,0.9,0.6,1.4c0.2,0.5,0.4,1,0.6,1.4c0.2,0.5,0.4,1,0.6,1.5&#10;&#9;&#9;&#9;c0.1,0.3,0.2,0.5,0.3,0.8c0.3,0.8,0.5,1.5,0.8,2.2c0,0,0,0,0,0c0.3,0.7,0.5,1.4,0.8,2c1.1,3,2.2,5.4,3.1,7.6&#10;&#9;&#9;&#9;c0.2,0.5,0.4,1,0.6,1.4c0.5,1.2,0.9,2.3,1.3,3.4c0.1,0.3,0.2,0.6,0.3,0.9c0.1,0.2,0.1,0.5,0.2,0.7c0.1,0.2,0.1,0.4,0.2,0.7&#10;&#9;&#9;&#9;c0.1,0.4,0.2,0.8,0.3,1.2c0.1,0.3,0.1,0.6,0.1,0.9c0.1,0.3,0.1,0.6,0.1,0.9c0,0,0,0,0,0.1c0,0.2,0,0.5,0.1,0.7c0,0.1,0,0.3,0,0.4&#10;&#9;&#9;&#9;c0,0.2,0,0.5,0,0.8C472.3,249,472.3,249.2,472.3,249.4z" id="el_0dfzhkmpFnR"/>
		<path d="M455.5,390.7c-31.4,19.1-74.2,29.6-130.6,29.9c-4.8-5.7-9.2-11.3-13.3-17&#10;&#9;&#9;&#9;C354.1,409.1,406.2,408.9,455.5,390.7z" id="el_dUBozLsuJxg"/>
	</g></g>
</g>
</svg>