<svg version="1.1" id="el_7AD9tdO0e" xmlns="http://www.w3.org/2000/svg" xmlns:xlink="http://www.w3.org/1999/xlink" x="0px" y="0px" viewBox="0 0 494 385" style="enable-background:new 0 0 494.7 385.1;" xml:space="preserve"><style>@-webkit-keyframes kf_el_gxgBrtX01_I_an_Zy3GdeYbr{0%{-webkit-transform: translate(205.01358032226562px, 167.69998168945312px) rotate(0deg) translate(-205.01358032226562px, -167.69998168945312px);transform: translate(205.01358032226562px, 167.69998168945312px) rotate(0deg) translate(-205.01358032226562px, -167.69998168945312px);}2.22%{-webkit-transform: translate(205.01358032226562px, 167.69998168945312px) rotate(-20deg) translate(-205.01358032226562px, -167.69998168945312px);transform: translate(205.01358032226562px, 167.69998168945312px) rotate(-20deg) translate(-205.01358032226562px, -167.69998168945312px);}7.78%{-webkit-transform: translate(205.01358032226562px, 167.69998168945312px) rotate(-30deg) translate(-205.01358032226562px, -167.69998168945312px);transform: translate(205.01358032226562px, 167.69998168945312px) rotate(-30deg) translate(-205.01358032226562px, -167.69998168945312px);}100%{-webkit-transform: translate(205.01358032226562px, 167.69998168945312px) rotate(-30deg) translate(-205.01358032226562px, -167.69998168945312px);transform: translate(205.01358032226562px, 167.69998168945312px) rotate(-30deg) translate(-205.01358032226562px, -167.69998168945312px);}}@keyframes kf_el_gxgBrtX01_I_an_Zy3GdeYbr{0%{-webkit-transform: translate(205.01358032226562px, 167.69998168945312px) rotate(0deg) translate(-205.01358032226562px, -167.69998168945312px);transform: translate(205.01358032226562px, 167.69998168945312px) rotate(0deg) translate(-205.01358032226562px, -167.69998168945312px);}2.22%{-webkit-transform: translate(205.01358032226562px, 167.69998168945312px) rotate(-20deg) translate(-205.01358032226562px, -167.69998168945312px);transform: translate(205.01358032226562px, 167.69998168945312px) rotate(-20deg) translate(-205.01358032226562px, -167.69998168945312px);}7.78%{-webkit-transform: translate(205.01358032226562px, 167.69998168945312px) rotate(-30deg) translate(-205.01358032226562px, -167.69998168945312px);transform: translate(205.01358032226562px, 167.69998168945312px) rotate(-30deg) translate(-205.01358032226562px, -167.69998168945312px);}100%{-webkit-transform: translate(205.01358032226562px, 167.69998168945312px) rotate(-30deg) translate(-205.01358032226562px, -167.69998168945312px);transform: translate(205.01358032226562px, 167.69998168945312px) rotate(-30deg) translate(-205.01358032226562px, -167.69998168945312px);}}@-webkit-keyframes kf_el_gxgBrtX01_I_an_OBJraJUHV{0%{-webkit-transform: translate(205.01358032226562px, 167.69998168945312px) translate(-205.01358032226562px, -167.69998168945312px) translate(0px, 0px);transform: translate(205.01358032226562px, 167.69998168945312px) translate(-205.01358032226562px, -167.69998168945312px) translate(0px, 0px);}2.22%{-webkit-transform: translate(205.01358032226562px, 167.69998168945312px) translate(-205.01358032226562px, -167.69998168945312px) translate(-50px, 0px);transform: translate(205.01358032226562px, 167.69998168945312px) translate(-205.01358032226562px, -167.69998168945312px) translate(-50px, 0px);}7.78%{-webkit-transform: translate(205.01358032226562px, 167.69998168945312px) translate(-205.01358032226562px, -167.69998168945312px) translate(-80px, 0px);transform: translate(205.01358032226562px, 167.69998168945312px) translate(-205.01358032226562px, -167.69998168945312px) translate(-80px, 0px);}14.44%{-webkit-transform: translate(205.01358032226562px, 167.69998168945312px) translate(-205.01358032226562px, -167.69998168945312px) translate(-200px, -50px);transform: translate(205.01358032226562px, 167.69998168945312px) translate(-205.01358032226562px, -167.69998168945312px) translate(-200px, -50px);}26.67%{-webkit-transform: translate(205.01358032226562px, 167.69998168945312px) translate(-205.01358032226562px, -167.69998168945312px) translate(-800px, -100px);transform: translate(205.01358032226562px, 167.69998168945312px) translate(-205.01358032226562px, -167.69998168945312px) translate(-800px, -100px);}100%{-webkit-transform: translate(205.01358032226562px, 167.69998168945312px) translate(-205.01358032226562px, -167.69998168945312px) translate(-800px, -100px);transform: translate(205.01358032226562px, 167.69998168945312px) translate(-205.01358032226562px, -167.69998168945312px) translate(-800px, -100px);}}@keyframes kf_el_gxgBrtX01_I_an_OBJraJUHV{0%{-webkit-transform: translate(205.01358032226562px, 167.69998168945312px) translate(-205.01358032226562px, -167.69998168945312px) translate(0px, 0px);transform: translate(205.01358032226562px, 167.69998168945312px) translate(-205.01358032226562px, -167.69998168945312px) translate(0px, 0px);}2.22%{-webkit-transform: translate(205.01358032226562px, 167.69998168945312px) translate(-205.01358032226562px, -167.69998168945312px) translate(-50px, 0px);transform: translate(205.01358032226562px, 167.69998168945312px) translate(-205.01358032226562px, -167.69998168945312px) translate(-50px, 0px);}7.78%{-webkit-transform: translate(205.01358032226562px, 167.69998168945312px) translate(-205.01358032226562px, -167.69998168945312px) translate(-80px, 0px);transform: translate(205.01358032226562px, 167.69998168945312px) translate(-205.01358032226562px, -167.69998168945312px) translate(-80px, 0px);}14.44%{-webkit-transform: translate(205.01358032226562px, 167.69998168945312px) translate(-205.01358032226562px, -167.69998168945312px) translate(-200px, -50px);transform: translate(205.01358032226562px, 167.69998168945312px) translate(-205.01358032226562px, -167.69998168945312px) translate(-200px, -50px);}26.67%{-webkit-transform: translate(205.01358032226562px, 167.69998168945312px) translate(-205.01358032226562px, -167.69998168945312px) translate(-800px, -100px);transform: translate(205.01358032226562px, 167.69998168945312px) translate(-205.01358032226562px, -167.69998168945312px) translate(-800px, -100px);}100%{-webkit-transform: translate(205.01358032226562px, 167.69998168945312px) translate(-205.01358032226562px, -167.69998168945312px) translate(-800px, -100px);transform: translate(205.01358032226562px, 167.69998168945312px) translate(-205.01358032226562px, -167.69998168945312px) translate(-800px, -100px);}}@-webkit-keyframes kf_el_DQqlyQABsim_an_QfYngp_AW{0%{-webkit-transform: translate(205.01358032226562px, 167.69998168945312px) translate(-205.01358032226562px, -167.69998168945312px) translate(0px, 0px);transform: translate(205.01358032226562px, 167.69998168945312px) translate(-205.01358032226562px, -167.69998168945312px) translate(0px, 0px);}100%{-webkit-transform: translate(205.01358032226562px, 167.69998168945312px) translate(-205.01358032226562px, -167.69998168945312px) translate(0px, 0px);transform: translate(205.01358032226562px, 167.69998168945312px) translate(-205.01358032226562px, -167.69998168945312px) translate(0px, 0px);}}@keyframes kf_el_DQqlyQABsim_an_QfYngp_AW{0%{-webkit-transform: translate(205.01358032226562px, 167.69998168945312px) translate(-205.01358032226562px, -167.69998168945312px) translate(0px, 0px);transform: translate(205.01358032226562px, 167.69998168945312px) translate(-205.01358032226562px, -167.69998168945312px) translate(0px, 0px);}100%{-webkit-transform: translate(205.01358032226562px, 167.69998168945312px) translate(-205.01358032226562px, -167.69998168945312px) translate(0px, 0px);transform: translate(205.01358032226562px, 167.69998168945312px) translate(-205.01358032226562px, -167.69998168945312px) translate(0px, 0px);}}#el_7AD9tdO0e *{-webkit-animation-duration: 3s;animation-duration: 3s;-webkit-animation-iteration-count: infinite;animation-iteration-count: infinite;-webkit-animation-timing-function: cubic-bezier(0, 0, 1, 1);animation-timing-function: cubic-bezier(0, 0, 1, 1);}#el_sBj3lhSzQF{fill: #182221;}#el_Tek2UeECbM{fill: #182221;}#el_Jlut5ytkpq{fill: #1F2D0A;}#el__y6ShyJZ7Q{fill: #1F2D0A;}#el_gS1c21Jami{fill: #1F2D0A;}#el_LWFJtbEjyR{fill: #182221;}#el_0vPZkcs-RN{fill: #182221;}#el_NPNQ5E1HNt{fill: #182221;}#el_MDjC0y11Ca{fill: #182221;}#el_xbiDzhpr9T{fill: #182221;}#el_Kue0QTbFVO{fill: #182221;}#el_TU7e9Fl6Ou{fill: #182221;}#el_IMcNLc6iqW{fill: #182221;}#el_rHm4bFVh1Ic{fill: #182221;}#el_pFR9ZoTpo1s{fill: #182221;}#el_wBR9xSLVxuc{fill: #182221;}#el_mNEcN4LfiXx{fill: #182221;}#el_pZLNh5Uc__P{fill: #182221;}#el_LqFCFH_sue5{fill: #182221;}#el_xUenfTEp9bW{fill: #182221;}#el_ornUvqlH3Ka{fill: #182221;}#el_ZYLlTjfq1vr{fill: #182221;}#el_iFinYu557tK{fill: #182221;}#el_n6MRE8_2A_s{fill: #182221;}#el_nPhYy81ogNx{fill: #182221;}#el_vbBULUyRj4J{fill: #182221;}#el_xGbMUa4x1ZK{fill: #182221;}#el_-XNZB8Pljjr{fill: #182221;}#el_1Qr6kQDiCEg{fill: #182221;}#el_xzJqmaBKJRf{fill: #182221;}#el_b0dDJl6mwC1{fill: #182221;}#el_NZZzO_kuD5B{fill: #182221;}#el_K2NLNpSoT8z{fill: #182221;}#el_aDZAKeM5Qaw{fill: #7A7823;}#el_PlLoOh1m_za{fill: #DBCE8A;}#el_-0isRi6-iLX{fill: #D29B63;}#el_DQqlyQABsim{fill: #1F2D0A;}#el_YLsX_nbrwsd{fill: #182221;}#el_J-fQ7TkvtGP{fill: #182221;}#el_0EhxdM--aHa{fill: #182221;}#el_v3aEyykxtn9{fill: #182221;}#el_VgsXznWfCV9{fill: #182221;}#el_fZ5mMrvj8Ow{fill: #182221;}#el__oLFuMo5zgh{fill: #182221;}#el_eU2e_9_bzZ5{fill: #182221;}#el_umcRsAMdEIx{fill: #182221;}#el_-PNxtqvO8kI{fill: #182221;}#el_p2yzRSDdo8Q{fill: #182221;}#el_xi7VXIZ1eyN{fill: #182221;}#el_2QCEtRpxp1L{fill: #182221;}#el_nAHJ_ORfaRP{fill: #182221;}#el_3GBIRv_GPiC{fill: #182221;}#el_mQjRGLDyx0V{fill: #182221;}#el_DoXFHDqwcwd{fill: #182221;}#el_zd1UQ8OPaOv{fill: #182221;}#el_fBTSYwZJ6H7{fill: #182221;}#el_ewCIVGt38Ci{fill: #182221;}#el_LAOE8F29Ld8{fill: #182221;}#el_iAVqAUvR12X{fill: #182221;}#el_outai6oGGdr{fill: #182221;}#el_8TuA7j5UTpG{fill: #182221;}#el_1j5rG_vU9Xr{fill: #182221;}#el_fkfuU_kNWVK{fill: #182221;}#el_eSQL_9LS-dn{fill: #182221;}#el_obkkfkn3VxU{fill: #182221;}#el_LKuI0F2PB1u{fill: #182221;}#el_iHRgV4FQBKy{fill: #182221;}#el_7iqW5kNjAO9{fill: #182221;}#el_dNxWssVynVB{fill: #182221;}#el_x_M0hrCbXqj{fill: #182221;}#el_tToEzbA1BUP{fill: #182221;}#el_xnfmaJepxae{fill: #182221;}#el_CdFxdc9pyqf{fill: #182221;}#el_nm8WfD7Mf3k{fill: #182221;}#el_l_8x8rElIWz{fill: #182221;}#el_GppHCsa6quV{fill: #182221;}#el_4WgI6Y9VWp4{fill: #182221;}#el_rRl47ZqvVTf{fill: #182221;}#el_KNzzatECpiN{fill: #182221;}#el_YIB-iisLsUs{fill: #182221;}#el_1jKMBuZFnzr{fill: #182221;}#el_OEPzGJ_QVoe{fill: #182221;}#el_d5yt8ihaLlR{fill: #182221;}#el_dY_Fa4eT6Cs{fill: #182221;}#el_5FxH0CpSZkj{fill: #182221;}#el_GtP4mCC4M8X{fill: #182221;}#el_DQqlyQABsim_an_QfYngp_AW{-webkit-animation-fill-mode: backwards;animation-fill-mode: backwards;-webkit-transform: translate(205.01358032226562px, 167.69998168945312px) translate(-205.01358032226562px, -167.69998168945312px) translate(0px, 0px);transform: translate(205.01358032226562px, 167.69998168945312px) translate(-205.01358032226562px, -167.69998168945312px) translate(0px, 0px);-webkit-animation-name: kf_el_DQqlyQABsim_an_QfYngp_AW;animation-name: kf_el_DQqlyQABsim_an_QfYngp_AW;-webkit-animation-timing-function: cubic-bezier(0, 0, 1, 1);animation-timing-function: cubic-bezier(0, 0, 1, 1);}#el_gxgBrtX01_I_an_OBJraJUHV{-webkit-animation-fill-mode: backwards;animation-fill-mode: backwards;-webkit-transform: translate(205.01358032226562px, 167.69998168945312px) translate(-205.01358032226562px, -167.69998168945312px) translate(0px, 0px);transform: translate(205.01358032226562px, 167.69998168945312px) translate(-205.01358032226562px, -167.69998168945312px) translate(0px, 0px);-webkit-animation-name: kf_el_gxgBrtX01_I_an_OBJraJUHV;animation-name: kf_el_gxgBrtX01_I_an_OBJraJUHV;-webkit-animation-timing-function: cubic-bezier(0, 0, 1, 1);animation-timing-function: cubic-bezier(0, 0, 1, 1);}#el_gxgBrtX01_I_an_Zy3GdeYbr{-webkit-animation-fill-mode: backwards;animation-fill-mode: backwards;-webkit-transform: translate(205.01358032226562px, 167.69998168945312px) rotate(0deg) translate(-205.01358032226562px, -167.69998168945312px);transform: translate(205.01358032226562px, 167.69998168945312px) rotate(0deg) translate(-205.01358032226562px, -167.69998168945312px);-webkit-animation-name: kf_el_gxgBrtX01_I_an_Zy3GdeYbr;animation-name: kf_el_gxgBrtX01_I_an_Zy3GdeYbr;-webkit-animation-timing-function: cubic-bezier(0, 0, 1, 1);animation-timing-function: cubic-bezier(0, 0, 1, 1);}</style>

<g id="el_uycw_kAP23">
	<path d="M206.3,328.7c0,0,0.2-0.1,0.5-0.3c-0.4-0.9-0.8-1.8-1.2-2.7C205.7,326.7,205.9,327.6,206.3,328.7z" id="el_sBj3lhSzQF"/>
	<path d="M211.2,321.2c1.1-5.3,1.6-2.5,0.2-5.8c-1.4-3.3-0.9-4.2-1.8-11.9c-0.9-7.8-3.9-1.4-5,0.3s1.2,5.5,1.2,12.7&#10;&#9;&#9;c0,4.8-0.4,7.2-0.3,9.2c0.4,0.9,0.8,1.8,1.2,2.7C207.8,327.6,210.4,325.4,211.2,321.2z" id="el_Tek2UeECbM"/>
	<g id="el_VRzTIIBnmQ">
		<path d="M357.5,376.4c0.6-0.1,1.2-0.1,1.8-0.2c0.5-0.6,1-1,1.5-1.1c1.6-0.3,6-1.9,5.4,0.5c1.1-0.2,2-0.4,3.2-1&#10;&#9;&#9;&#9;c3.3-1.4,0.5-0.8,5.8,0.2c3.3,0.7,5.4,2.4,6.5,3.7c12.3-2.8,23.6-6.3,33.6-10.1c-1.1-1.2-2.4-2.9-4.8-5.2&#10;&#9;&#9;&#9;c-5.1-5.1-9.5-6.2-9.9-8.1c-0.4-2-2.8-8.6,3.3-3.8c6.1,4.8,6.3,5.8,9.7,7.2c3.3,1.3,1-0.2,4,4.3c0.9,1.4,1.5,2.8,1.8,4.1&#10;&#9;&#9;&#9;c7.3-2.9,13.8-5.9,19.5-8.8c-4.6-4-8.2-5.2-8.6-6.9c-0.4-2-2.8-8.6,3.3-3.8c6.1,4.8,6.3,5.8,9.7,7.2c0.6,0.2,1,0.4,1.3,0.5&#10;&#9;&#9;&#9;c10.4-5.8,16.9-10.9,18.6-13.6c2.1-3.2,8.1-9.6,14.2-17.8c-1.6-1.4-2.9-3.4-6.6-7c-3.2-3.2-6.1-4.8-7.9-6.1&#10;&#9;&#9;&#9;c-4.4,3.2-9.3,6.3-14.7,9.2c-1.5,3.7-4.3,5.3-4.3,5.3c-0.4-1-0.6-1.8-0.7-2.7c-3.4,1.7-7,3.4-10.8,5c0.5,0.2,1.4,0.5,3.1,0.8&#10;&#9;&#9;&#9;c5.3,1.1,7.5,4.9,7.5,4.9c-3.3,1.4-5,0.3-12.2,0.4c-7.2,0.1-11.1,2.3-12.7,1.2c-0.5-0.3-1.2-0.7-2-1.2c-2.5,0.8-5,1.6-7.6,2.4&#10;&#9;&#9;&#9;c1.8,1.6,2.7,2.3,4.8,3.1c3.3,1.3,1-0.2,4,4.3c3,4.5,1.8,8.8,1.8,8.8c-3.3-1.3-3.8-3.3-8.9-8.4c-3.2-3.2-6.1-4.8-8-6.1&#10;&#9;&#9;&#9;c-7.2,2-14.9,3.8-23.1,5.4c-4.6,0.9-9.1,1.7-13.5,2.4c0.3,0.5,0.6,1.1,1.1,1.9c3,4.5,1.8,8.8,1.8,8.8c-3.3-1.3-3.8-3.3-8.9-8.4&#10;&#9;&#9;&#9;c-0.4-0.4-0.9-0.8-1.3-1.2c-7.2,1-14.1,1.7-20.7,2.2c0,0,0,0,0,0c-1.1,5.3-4.9,7.5-4.9,7.5c-1-2.4-0.7-3.9-0.5-7.2&#10;&#9;&#9;&#9;c-30.8,1.5-54.1-2.6-71.6-8.8c-1.5,2.5-3.4,3.6-3.4,3.6c-0.8-1.8-0.8-3.1-0.7-5.2c-28.6-11.2-40.4-27.5-43.7-30.3&#10;&#9;&#9;&#9;c-3-2.6-9.1-24-1.5-49.8c-4.1,6.3-19.6,33.6-5.7,66.9c-0.1-2,0.4-4.4,0.3-9.2c-0.1-7.2-2.3-11.1-1.2-12.7s4.1-8.1,5-0.3&#10;&#9;&#9;&#9;c0.9,7.8,0.4,8.6,1.8,11.9c1.4,3.3,0.8,0.5-0.2,5.8c-0.8,4.2-3.4,6.4-4.5,7.2c1.9,4.1,4.2,8.3,7.1,12.5c3.4,5.1,7.9,10.2,13.4,15&#10;&#9;&#9;&#9;c1-1.1,1.8-2.2,2.5-3.2c-2.2-1.4-5-3.4,1.2-4.1c0.6-0.1,1.2-0.1,1.8-0.2c0.5-0.6,1-1,1.5-1.1c1.6-0.3,6-1.9,5.4,0.5&#10;&#9;&#9;&#9;c1.1-0.2,2-0.4,3.2-1c3.3-1.4,0.5-0.8,5.8,0.2c5.3,1.1,7.5,4.9,7.5,4.9c-3.3,1.4-5,0.3-12.2,0.4c-3.5,0-6.3,0.6-8.3,1&#10;&#9;&#9;&#9;c-2.5,3-3.5,3.9-4.4,5.8c8.6,6.6,19.4,12.6,33,17.2c-0.6-2.5-1.9-7.2,3.5-2.9c4.6,3.6,5.8,5.1,7.6,6.1c13.2,3.3,28.7,5.3,46.6,5.4&#10;&#9;&#9;&#9;c-1.6-1-2.6-1.8-2.8-2.7c-0.4-2-2.8-8.6,3.3-3.8c4.9,3.9,6,5.3,8,6.4c1.8,0,3.6-0.1,5.4-0.2c6.3-0.3,12.4-0.8,18.3-1.5&#10;&#9;&#9;&#9;c0.8-1,1.6-1.9,2.2-2.8C354,379.2,351.3,377.1,357.5,376.4z M387,346.5c0.9,7.8,0.4,8.6,1.8,11.9c1.4,3.3,0.8,0.5-0.2,5.8&#10;&#9;&#9;&#9;s-4.9,7.5-4.9,7.5c-1.4-3.3-0.3-5-0.4-12.2c-0.1-7.2-2.3-11.1-1.2-12.7C383.1,345.2,386.1,338.8,387,346.5z M298.9,375.1&#10;&#9;&#9;&#9;c-3.2-3.1-6-4.7-7.9-6c-4,0.6-6.3,1.6-7.5,0.8c-1.7-1.1-8.1-4.1-0.3-5c2.2-0.3,3.9-0.4,5.2-0.5c-0.5-2.3-0.4-4.6,3.9-1.2&#10;&#9;&#9;&#9;c0.3,0.2,0.5,0.4,0.8,0.6c0.6-0.2,1.2-0.4,2-0.7c3.3-1.4,0.5-0.8,5.8,0.2c5.3,1,7.5,4.9,7.5,4.9c-2.8,1.2-4.5,0.6-9.4,0.4&#10;&#9;&#9;&#9;c0.9,0.7,1.7,1.1,3,1.7c3.3,1.3,1-0.2,4,4.3c3,4.5,1.8,8.8,1.8,8.8C304.5,382.1,304.1,380.2,298.9,375.1z M319.6,364.8&#10;&#9;&#9;&#9;c-7.2,0.1-11.1,2.3-12.7,1.2c-1.7-1.1-8.1-4.1-0.3-5c7.8-0.9,8.6-0.4,11.9-1.8c3.3-1.4,0.5-0.8,5.8,0.2c5.3,1.1,7.5,4.9,7.5,4.9&#10;&#9;&#9;&#9;C328.5,365.9,326.8,364.8,319.6,364.8z" id="el_Jlut5ytkpq"/>
		<path d="M474,312c3.3,1.3,1-0.2,4,4.3c1,1.5,1.5,3,1.8,4.3c9.2-12.9,17.8-29.2,12.9-43.9c-0.2-0.6-0.5-1.1-0.9-1.6&#10;&#9;&#9;&#9;c-3.9,11-11.8,22.1-24.3,32.2C470.7,310,471.3,310.9,474,312z" id="el__y6ShyJZ7Q"/>
		<path d="M362.2,381.2c-0.4,0.4-0.7,0.8-1,1.2c4.3-0.6,8.4-1.3,12.5-2.1c-0.9,0-2-0.1-3.2,0&#10;&#9;&#9;&#9;C367,380.2,364.2,380.8,362.2,381.2z" id="el_gS1c21Jami"/>
		<path d="M234.3,347.4c-0.5,0.1-1,0.5-1.5,1.1c3.6-0.4,5.4-0.4,6.9-0.6C240.3,345.5,235.8,347.1,234.3,347.4z" id="el_LWFJtbEjyR"/>
		<path d="M235.7,353.5c-2.1,0.4-3.6,0.8-4.4,0.2c-0.3-0.2-0.9-0.5-1.5-0.9c-0.7,1-1.5,2.1-2.5,3.2&#10;&#9;&#9;&#9;c1.3,1.1,2.6,2.2,4,3.3C232.2,357.4,233.2,356.5,235.7,353.5z" id="el_0vPZkcs-RN"/>
		<path d="M231,348.7c-6.1,0.7-3.4,2.7-1.2,4.1c1.3-1.8,2.2-3.3,2.9-4.3C232.2,348.6,231.6,348.6,231,348.7z" id="el_NPNQ5E1HNt"/>
		<path d="M238,350.7c-0.9,1.1-1.6,2-2.3,2.8c2.1-0.4,4.8-1,8.3-1c7.2-0.1,8.9,1,12.2-0.4c0,0-2.3-3.9-7.5-4.9&#10;&#9;&#9;&#9;c-5.3-1.1-2.5-1.6-5.8-0.2c-1.3,0.5-2.2,0.8-3.2,1C239.5,348.5,239,349.4,238,350.7z" id="el_MDjC0y11Ca"/>
		<path d="M235.7,353.5c0.7-0.8,1.4-1.7,2.3-2.8c1-1.3,1.5-2.2,1.7-2.8c-1.5,0.2-3.3,0.3-6.9,0.6&#10;&#9;&#9;&#9;c-0.8,1-1.6,2.5-2.9,4.3c0.6,0.4,1.1,0.7,1.5,0.9C232.2,354.3,233.6,354,235.7,353.5z" id="el_xbiDzhpr9T"/>
		<path d="M257.2,344.1c0,0,1.9-1.1,3.4-3.6c-1.4-0.5-2.8-1-4.1-1.5C256.4,340.9,256.4,342.3,257.2,344.1z" id="el_Kue0QTbFVO"/>
		<path d="M267.8,373.5c-5.4-4.3-4.1,0.4-3.5,2.9c3.5,1.2,7.2,2.2,11.1,3.2C273.6,378.6,272.4,377.2,267.8,373.5z" id="el_TU7e9Fl6Ou"/>
		<path d="M288.4,364.4c-1.3,0.1-3,0.2-5.2,0.5c-7.7,0.9-1.4,3.9,0.3,5c1.2,0.8,3.6-0.2,7.5-0.8c-1.1-0.8-1.9-1.4-2-2.2&#10;&#9;&#9;&#9;C288.9,366.4,288.6,365.4,288.4,364.4z" id="el_IMcNLc6iqW"/>
		<path d="M308.4,368.3c0,0-2.2-3.9-7.5-4.9c-5.3-1-2.5-1.6-5.8-0.2c-0.7,0.3-1.4,0.5-2,0.7c3.1,2.5,4.6,3.9,5.8,4.9&#10;&#9;&#9;&#9;C303.9,368.8,305.6,369.5,308.4,368.3z" id="el_rHm4bFVh1Ic"/>
		<path d="M322.4,378.6c-6.1-4.8-3.7,1.8-3.3,3.8c0.2,0.9,1.2,1.7,2.8,2.7c2.8,0,5.6,0,8.4-0.1&#10;&#9;&#9;&#9;C328.4,383.9,327.3,382.5,322.4,378.6z" id="el_pFR9ZoTpo1s"/>
		<path d="M360.7,375.1c-0.5,0.1-1,0.5-1.5,1.1c3.6-0.4,5.4-0.4,6.9-0.6C366.8,373.2,362.3,374.8,360.7,375.1z" id="el_wBR9xSLVxuc"/>
		<path d="M362.2,381.2c-2.1,0.4-3.6,0.8-4.4,0.2c-0.3-0.2-0.9-0.5-1.5-0.9c-0.6,0.9-1.3,1.8-2.2,2.8&#10;&#9;&#9;&#9;c2.4-0.3,4.8-0.6,7.1-0.9C361.5,382,361.8,381.6,362.2,381.2z" id="el_mNEcN4LfiXx"/>
		<path d="M306,374.7c-3-4.5-0.6-2.9-4-4.3c-1.3-0.5-2.1-1-3-1.7c-0.8,0-1.7,0-2.7,0c-2,0-3.7,0.2-5.2,0.4&#10;&#9;&#9;&#9;c1.8,1.2,4.7,2.9,7.9,6c5.1,5.1,5.6,7,8.9,8.4C307.8,383.5,309,379.1,306,374.7z" id="el_pZLNh5Uc__P"/>
		<path d="M293.1,363.8c-0.3-0.2-0.5-0.4-0.8-0.6c-4.3-3.4-4.4-1.1-3.9,1.2C290.6,364.3,291.8,364.2,293.1,363.8z" id="el_LqFCFH_sue5"/>
		<path d="M299,368.7c-1.3-1-2.7-2.3-5.8-4.9c-1.3,0.3-2.5,0.4-4.7,0.6c0.2,1,0.5,2,0.6,2.5c0.2,0.8,0.9,1.4,2,2.2&#10;&#9;&#9;&#9;c1.5-0.2,3.2-0.4,5.2-0.4C297.3,368.7,298.2,368.7,299,368.7z" id="el_xUenfTEp9bW"/>
		<path d="M357.5,376.4c-6.1,0.7-3.4,2.7-1.2,4.1c1.3-1.8,2.2-3.3,2.9-4.3C358.7,376.3,358.1,376.4,357.5,376.4z" id="el_ornUvqlH3Ka"/>
		<path d="M375.2,374.9c-5.3-1.1-2.5-1.6-5.8-0.2c-1.3,0.5-2.2,0.8-3.2,1c-0.2,0.6-0.7,1.5-1.7,2.8&#10;&#9;&#9;&#9;c-0.9,1.1-1.6,2-2.3,2.8c2.1-0.4,4.8-1,8.3-1c1.2,0,2.2,0,3.2,0c2.7-0.5,5.4-1.1,8-1.7C380.6,377.3,378.5,375.5,375.2,374.9z" id="el_ZYLlTjfq1vr"/>
		<path d="M366.1,375.6c-1.5,0.2-3.3,0.3-6.9,0.6c-0.8,1-1.6,2.5-2.9,4.3c0.6,0.4,1.1,0.7,1.5,0.9&#10;&#9;&#9;&#9;c0.9,0.6,2.3,0.2,4.4-0.2c0.7-0.8,1.4-1.7,2.3-2.8C365.5,377.1,366,376.2,366.1,375.6z" id="el_iFinYu557tK"/>
		<path d="M383.3,359.6c0.1,7.2-1,8.9,0.4,12.2c0,0,3.9-2.3,4.9-7.5s1.6-2.5,0.2-5.8c-1.4-3.3-0.9-4.2-1.8-11.9&#10;&#9;&#9;&#9;c-0.9-7.8-3.9-1.4-5,0.3C381,348.5,383.2,352.4,383.3,359.6z" id="el_n6MRE8_2A_s"/>
		<path d="M417.6,362.8c-3-4.5-0.6-2.9-4-4.3c-3.3-1.3-3.6-2.3-9.7-7.2c-6.1-4.8-3.7,1.8-3.3,3.8c0.4,2,4.7,3.1,9.9,8.1&#10;&#9;&#9;&#9;c2.3,2.3,3.7,3.9,4.8,5.2c1.4-0.5,2.7-1,4-1.6C419.1,365.6,418.6,364.2,417.6,362.8z" id="el_nPhYy81ogNx"/>
		<path d="M324.3,359.5c-5.3-1.1-2.5-1.6-5.8-0.2c-3.3,1.4-4.2,0.9-11.9,1.8c-7.8,0.9-1.4,3.9,0.3,5&#10;&#9;&#9;&#9;c1.7,1.1,5.5-1.2,12.7-1.2c7.2-0.1,8.9,1,12.2-0.4C331.8,364.5,329.6,360.6,324.3,359.5z" id="el_vbBULUyRj4J"/>
		<path d="M332.8,356.4c0,0,3.9-2.3,4.9-7.5c0,0,0,0,0,0c-1.8,0.1-3.7,0.2-5.5,0.3C332,352.5,331.8,354.1,332.8,356.4z" id="el_xGbMUa4x1ZK"/>
		<path d="M368.6,356.3c0,0,1.1-4.3-1.8-8.8c-0.5-0.8-0.9-1.4-1.1-1.9c-2.5,0.4-4.9,0.8-7.2,1.1&#10;&#9;&#9;&#9;c0.4,0.4,0.9,0.8,1.3,1.2C364.8,353,365.2,354.9,368.6,356.3z" id="el_-XNZB8Pljjr"/>
		<path d="M433.6,347.4c-6.1-4.8-3.7,1.8-3.3,3.8c0.4,1.8,4,2.9,8.6,6.9c2-1,3.9-2,5.7-3c-0.3-0.1-0.7-0.3-1.3-0.5&#10;&#9;&#9;&#9;C440,353.2,439.8,352.2,433.6,347.4z" id="el_1Qr6kQDiCEg"/>
		<path d="M419,352.2c0,0,1.1-4.3-1.8-8.8c-3-4.5-0.6-2.9-4-4.3c-2.1-0.8-3-1.5-4.8-3.1c-2,0.6-4.1,1.2-6.3,1.8&#10;&#9;&#9;&#9;c1.8,1.3,4.7,2.9,8,6.1C415.3,348.9,415.7,350.9,419,352.2z" id="el_xzJqmaBKJRf"/>
		<path d="M430.8,333.6c7.2-0.1,8.9,1,12.2-0.4c0,0-2.3-3.9-7.5-4.9c-1.7-0.3-2.6-0.6-3.1-0.8&#10;&#9;&#9;&#9;c-5.1,2.2-10.6,4.2-16.4,6.1c0.8,0.5,1.6,0.9,2,1.2C419.8,335.9,423.6,333.7,430.8,333.6z" id="el_b0dDJl6mwC1"/>
		<path d="M444,325.2c0,0,2.8-1.6,4.3-5.3c-1.6,0.9-3.3,1.7-4.9,2.6C443.4,323.4,443.6,324.2,444,325.2z" id="el_NZZzO_kuD5B"/>
		<path d="M477.5,323.7c0.8-1,1.5-2.1,2.3-3.1c-0.3-1.3-0.8-2.8-1.8-4.3c-3-4.5-0.6-2.9-4-4.3c-2.7-1.1-3.3-1.9-6.6-4.7&#10;&#9;&#9;&#9;c-1.4,1.1-2.9,2.3-4.4,3.4c1.8,1.3,4.7,2.9,7.9,6.1C474.6,320.3,475.8,322.3,477.5,323.7z" id="el_K2NLNpSoT8z"/>
		<path d="M491.7,275.1c7.5-21.3,0.3-42.6-16.1-57.5c0,0-70.3-77-179-36.9c-49.8,18.4-72.9,45.8-82.6,70.5&#10;&#9;&#9;&#9;c-0.9,2.2-1.6,4.4-2.3,6.6c-0.1,0.4-0.2,0.8-0.3,1.2c-7.6,25.8-1.5,47.2,1.5,49.8c6.1,5.2,42.7,59,166.2,34.6&#10;&#9;&#9;&#9;C448.4,329.5,482.1,302.3,491.7,275.1z M475.5,289.8c0,0-88.6,53.2-148.5,46.3s-96.2-24.6-102.2-42.9c-3.1-9.5-1.5-23.3,3.6-36&#10;&#9;&#9;&#9;c4.6-11.7,12.1-22.4,21.4-27.8c19.3-11.3,63-54.4,136.3-45.9c59.6,6.9,97.9,53.6,96.7,86.5C482.5,277.5,480.2,284.4,475.5,289.8z" id="el_aDZAKeM5Qaw"/>
	</g>
	<path d="M482.8,270c-0.3,7.5-2.6,14.4-7.3,19.8c0,0-88.6,53.2-148.5,46.3c-60-6.9-96.2-24.6-102.2-42.9&#10;&#9;&#9;c-3.1-9.5-1.5-23.3,3.6-36c4.6-11.7,12.1-22.4,21.4-27.8c19.3-11.3,63-54.4,136.3-45.9C445.7,190.4,484,237.2,482.8,270z" id="el_PlLoOh1m_za"/>
	<path id="el_-0isRi6-iLX" d="M426.4,284.2c0,0-63.6,24.1-89,6.3c-8.7-6.1-18.6-21.4-24.1-38.6c-10.5-33.1-4.6-73.4,58.6-69.1&#10;&#9;&#9;c62.4,4.3,73.7,45.8,69.4,74.4C439.1,272.6,432.2,284.2,426.4,284.2z"/>
</g>
<g id="el_gxgBrtX01_I_an_OBJraJUHV" data-animator-group="true" data-animator-type="0"><g id="el_gxgBrtX01_I_an_Zy3GdeYbr" data-animator-group="true" data-animator-type="1"><g id="el_gxgBrtX01_I">
	<g id="el_DQqlyQABsim_an_QfYngp_AW" data-animator-group="true" data-animator-type="0"><path d="M472.2,306.4c0,0-164.6,105-263.2,0c0,0-41.5-126.2,143.3-138.1c5.7-0.4,11.2-0.6,16.5-0.6c2.5,0,5,0,7.5,0.1&#10;&#9;&#9;c5.2,0.1,10.1,0.4,14.9,0.8c1.9,0.2,3.8,0.4,5.6,0.6c4.4,0.5,8.7,1.2,12.8,1.9c2,0.4,3.9,0.7,5.7,1.2c0,0,0,0,0,0&#10;&#9;&#9;c54.9,12.3,77.5,46.9,81.2,75.1C500.6,278,472.2,306.4,472.2,306.4z" id="el_DQqlyQABsim"/></g>
	<path d="M212.8,290.7c0,0,2-1.1,3.5-3.6c-1.4-0.5-2.8-1-4.2-1.5C212,287.6,212.1,288.9,212.8,290.7z" id="el_YLsX_nbrwsd"/>
	<path d="M279.1,325.2c-6.2-4.8-3.8,1.8-3.4,3.8c0.2,0.9,1.3,1.7,2.9,2.7c2.8,0,5.7,0,8.6-0.1&#10;&#9;&#9;C285.2,330.5,284.1,329.1,279.1,325.2z" id="el_J-fQ7TkvtGP"/>
	<path d="M255.3,315.3c-1.3-1-2.7-2.3-5.9-4.9c-1.3,0.3-2.6,0.4-4.8,0.6c0.2,1,0.5,2,0.6,2.5c0.2,0.8,0.9,1.4,2.1,2.2&#10;&#9;&#9;c1.5-0.2,3.3-0.4,5.3-0.4C253.5,315.3,254.4,315.3,255.3,315.3z" id="el_0EhxdM--aHa"/>
	<path d="M340.9,306.2c0.1,7.2-1,8.9,0.4,12.2c0,0,3.9-2.3,5-7.5s1.7-2.5,0.2-5.8c-1.4-3.3-0.9-4.2-1.8-11.9&#10;&#9;&#9;c-0.9-7.8-4-1.4-5.1,0.3S340.9,299,340.9,306.2z" id="el_v3aEyykxtn9"/>
	<path d="M375.8,309.4c-3-4.5-0.6-2.9-4-4.3c-3.4-1.3-3.6-2.3-9.8-7.2c-6.2-4.8-3.8,1.8-3.4,3.8c0.4,2,4.8,3.1,10,8.1&#10;&#9;&#9;c2.3,2.3,3.7,3.9,4.8,5.2c1.4-0.5,2.8-1,4.1-1.6C377.3,312.3,376.8,310.9,375.8,309.4z" id="el_VgsXznWfCV9"/>
	<path d="M281,306.1c-5.4-1.1-2.6-1.6-5.9-0.2s-4.2,0.9-12.1,1.8s-1.4,3.9,0.3,5c1.7,1.1,5.6-1.2,13-1.2&#10;&#9;&#9;c7.3-0.1,9,1,12.4-0.4C288.7,311.1,286.4,307.2,281,306.1z" id="el_fZ5mMrvj8Ow"/>
	<path d="M289.6,303.1c0,0,3.9-2.3,5-7.5c0,0,0,0,0,0c-1.9,0.1-3.7,0.2-5.5,0.3C288.9,299.2,288.6,300.7,289.6,303.1z" id="el__oLFuMo5zgh"/>
	<path d="M326,302.9c0,0,1.2-4.3-1.9-8.8c-0.5-0.8-0.9-1.4-1.2-1.9c-2.5,0.4-4.9,0.8-7.4,1.1c0.4,0.4,0.9,0.8,1.3,1.2&#10;&#9;&#9;C322.2,299.6,322.6,301.6,326,302.9z" id="el_eU2e_9_bzZ5"/>
	<path d="M421.3,294.2c-6.2-4.8-3.8,1.8-3.4,3.8c0.2,0.9,1.3,1.7,2.9,2.7c2.8,0,5.7,0,8.6-0.1&#10;&#9;&#9;C427.4,299.5,426.3,298.1,421.3,294.2z" id="el_umcRsAMdEIx"/>
	<path d="M397.5,284.3c-1.3-1-2.7-2.3-5.9-4.9c-1.3,0.3-2.6,0.4-4.8,0.6c0.2,1,0.5,2,0.6,2.5c0.2,0.8,0.9,1.4,2.1,2.2&#10;&#9;&#9;c1.5-0.2,3.3-0.4,5.3-0.4C395.8,284.3,396.7,284.3,397.5,284.3z" id="el_-PNxtqvO8kI"/>
	<path d="M423.3,275.1c-5.4-1.1-2.6-1.6-5.9-0.2s-4.2,0.9-12.1,1.8s-1.4,3.9,0.3,5c1.7,1.1,5.6-1.2,13-1.2s9,1,12.4-0.4&#10;&#9;&#9;C430.9,280.1,428.6,276.2,423.3,275.1z" id="el_p2yzRSDdo8Q"/>
	<path d="M431.9,272.1c0,0,3.9-2.3,5-7.5c0,0,0,0,0,0c-1.9,0.1-3.7,0.2-5.5,0.3C431.1,268.2,430.8,269.7,431.9,272.1z" id="el_xi7VXIZ1eyN"/>
	<path d="M468.3,271.9c0,0,1.2-4.3-1.9-8.8c-0.5-0.8-0.9-1.4-1.2-1.9c-2.5,0.4-4.9,0.8-7.4,1.1c0.4,0.4,0.9,0.8,1.3,1.2&#10;&#9;&#9;C464.4,268.6,464.9,270.6,468.3,271.9z" id="el_2QCEtRpxp1L"/>
	<path d="M384.4,298.4c-4.9,6.1,1.8,3.7,3.8,3.3c0.9-0.2,1.7-1.2,2.7-2.8c0-2.8,0-5.6-0.1-8.4&#10;&#9;&#9;C389.8,292.4,388.4,293.5,384.4,298.4z" id="el_nAHJ_ORfaRP"/>
	<path d="M374.4,321.8c-1,1.3-2.4,2.7-4.9,5.8c0.4,1.3,0.4,2.5,0.6,4.7c1-0.2,2-0.5,2.6-0.6c0.8-0.2,1.4-0.9,2.2-2&#10;&#9;&#9;c-0.2-1.5-0.4-3.2-0.5-5.2C374.3,323.5,374.3,322.6,374.4,321.8z" id="el_3GBIRv_GPiC"/>
	<path d="M365,296.5c-1.1,5.3-1.7,2.5-0.2,5.8c1.4,3.3,0.9,4.2,1.8,11.9c0.9,7.8,4,1.4,5.1-0.3s-1.2-5.5-1.2-12.7&#10;&#9;&#9;c-0.1-7.2,1-8.9-0.4-12.2C370,289,366.1,291.2,365,296.5z" id="el_mQjRGLDyx0V"/>
	<path d="M361.9,288c0,0-2.3-3.9-7.7-4.9c0,0,0,0,0,0c0.1,1.8,0.2,3.7,0.3,5.5C357.9,288.8,359.5,289,361.9,288z" id="el_DoXFHDqwcwd"/>
	<path d="M361.8,252.2c0,0-4.4-1.1-9,1.8c-0.8,0.5-1.4,0.9-1.9,1.1c0.4,2.5,0.8,4.9,1.1,7.2c0.4-0.4,0.8-0.9,1.2-1.3&#10;&#9;&#9;C358.4,255.9,360.4,255.5,361.8,252.2z" id="el_zd1UQ8OPaOv"/>
	<path d="M418.1,229.7c0,0,2-1.1,3.5-3.6c-1.4-0.5-2.8-1-4.2-1.5C417.3,226.6,417.3,227.9,418.1,229.7z" id="el_fBTSYwZJ6H7"/>
	<path d="M460.5,254.3c-1.3-1-2.7-2.3-5.9-4.9c-1.3,0.3-2.6,0.4-4.8,0.6c0.2,1,0.5,2,0.6,2.5c0.2,0.8,0.9,1.4,2.1,2.2&#10;&#9;&#9;c1.5-0.2,3.3-0.4,5.3-0.4C458.8,254.3,459.7,254.3,460.5,254.3z" id="el_ewCIVGt38Ci"/>
	<path d="M486.2,245.1c-5.4-1.1-2.6-1.6-5.9-0.2c-3.4,1.4-4.2,0.9-12.1,1.8c-7.9,0.9-1.4,3.9,0.3,5s5.6-1.2,13-1.2&#10;&#9;&#9;s9,1,12.4-0.4C493.9,250.1,491.6,246.2,486.2,245.1z" id="el_LAOE8F29Ld8"/>
	<path d="M275,227.2c-6.2-4.8-3.8,1.8-3.4,3.8c0.2,0.9,1.3,1.7,2.9,2.7c2.8,0,5.7,0,8.6-0.1&#10;&#9;&#9;C281.1,232.5,280,231.1,275,227.2z" id="el_iAVqAUvR12X"/>
	<path d="M251.2,217.3c-1.3-1-2.7-2.3-5.9-4.9c-1.3,0.3-2.6,0.4-4.8,0.6c0.2,1,0.5,2,0.6,2.5c0.2,0.8,0.9,1.4,2.1,2.2&#10;&#9;&#9;c1.5-0.2,3.3-0.4,5.3-0.4C249.5,217.3,250.4,217.3,251.2,217.3z" id="el_outai6oGGdr"/>
	<path d="M336.9,208.2c0.1,7.2-1,8.9,0.4,12.2c0,0,3.9-2.3,5-7.5c1.1-5.3,1.7-2.5,0.2-5.8c-1.4-3.3-0.9-4.2-1.8-11.9&#10;&#9;&#9;s-4-1.4-5.1,0.3C334.5,197.1,336.8,201,336.9,208.2z" id="el_8TuA7j5UTpG"/>
	<path d="M371.8,211.4c-3-4.5-0.6-2.9-4-4.3c-3.4-1.3-3.6-2.3-9.8-7.2c-6.2-4.8-3.8,1.8-3.4,3.8c0.4,2,4.8,3.1,10,8.1&#10;&#9;&#9;c2.3,2.3,3.7,3.9,4.8,5.2c1.4-0.5,2.8-1,4.1-1.6C373.3,214.3,372.7,212.9,371.8,211.4z" id="el_1j5rG_vU9Xr"/>
	<path d="M276.9,208.1c-5.4-1.1-2.6-1.6-5.9-0.2c-3.4,1.4-4.2,0.9-12.1,1.8c-7.9,0.9-1.4,3.9,0.3,5s5.6-1.2,13-1.2&#10;&#9;&#9;c7.3-0.1,9,1,12.4-0.4C284.6,213.1,282.3,209.2,276.9,208.1z" id="el_fkfuU_kNWVK"/>
	<path d="M285.5,205.1c0,0,3.9-2.3,5-7.5c0,0,0,0,0,0c-1.9,0.1-3.7,0.2-5.5,0.3C284.8,201.2,284.5,202.7,285.5,205.1z" id="el_eSQL_9LS-dn"/>
	<path d="M321.9,204.9c0,0,1.2-4.3-1.9-8.8c-0.5-0.8-0.9-1.4-1.2-1.9c-2.5,0.4-4.9,0.8-7.4,1.1c0.4,0.4,0.9,0.8,1.3,1.2&#10;&#9;&#9;C318.1,201.6,318.5,203.6,321.9,204.9z" id="el_obkkfkn3VxU"/>
	<path d="M373.2,200.8c0,0,1.2-4.3-1.9-8.8c-3-4.5-0.6-2.9-4-4.3c-2.1-0.8-3-1.5-4.9-3.1c-2.1,0.6-4.2,1.2-6.4,1.8&#10;&#9;&#9;c1.8,1.3,4.8,2.9,8.1,6.1C369.4,197.5,369.8,199.5,373.2,200.8z" id="el_LKuI0F2PB1u"/>
	<path d="M398.2,183.9c-1.1,5.3-5,7.5-5,7.5c-1.4-3.3-0.3-5-0.4-12.2c0-5.1-1.2-8.5-1.5-10.7c1.9,0.2,3.8,0.4,5.6,0.6&#10;&#9;&#9;c0.5,5.1,0.3,6.1,1.5,8.9C399.8,181.4,399.2,178.6,398.2,183.9z" id="el_iHRgV4FQBKy"/>
	<path d="M429.4,186.5c-1.3,0.5-2.7,1-4.1,1.6c-1.1-1.2-2.5-2.9-4.8-5.2c-5.2-5-9.6-6.2-10-8.2&#10;&#9;&#9;c-0.2-0.8-0.7-2.4-0.8-3.7c2,0.4,3.9,0.7,5.7,1.2c0,0,0,0,0,0c4.7,3.8,5.2,4.7,8.3,5.9c3.4,1.3,1-0.2,4,4.3&#10;&#9;&#9;C428.6,183.9,429.2,185.3,429.4,186.5z" id="el_7iqW5kNjAO9"/>
	<path d="M332.8,179.1c-5.4-1.1-2.6-1.6-5.9-0.2c-3.4,1.4-4.2,0.9-12.1,1.8c-7.9,0.9-1.4,3.9,0.3,5s5.6-1.2,13-1.2&#10;&#9;&#9;c7.3-0.1,9,1,12.4-0.4C340.5,184.1,338.2,180.2,332.8,179.1z" id="el_dNxWssVynVB"/>
	<path d="M341.4,176.1c0,0,3.9-2.3,5-7.5c0,0,0,0,0,0c-1.9,0.1-3.7,0.2-5.5,0.3C340.7,172.2,340.4,173.7,341.4,176.1z" id="el_x_M0hrCbXqj"/>
	<path d="M377.8,175.9c-3.4-1.3-3.8-3.3-8.9-8.2c2.5,0,5,0,7.5,0.1C378.9,172,377.8,175.9,377.8,175.9z" id="el_tToEzbA1BUP"/>
	<path d="M316.1,266.2c7.3-0.1,9,1,12.4-0.4c0,0-2.3-3.9-7.7-4.9c-1.7-0.3-2.6-0.6-3.1-0.8c-5.2,2.2-10.7,4.2-16.6,6.1&#10;&#9;&#9;c0.8,0.5,1.6,0.9,2.1,1.2C304.9,268.5,308.8,266.3,316.1,266.2z" id="el_xnfmaJepxae"/>
	<path d="M337.9,237.2c0.1,7.2-1,8.9,0.4,12.2c0,0,3.9-2.3,5-7.5c1.1-5.3,1.7-2.5,0.2-5.8c-1.4-3.3-0.9-4.2-1.8-11.9&#10;&#9;&#9;s-4-1.4-5.1,0.3C335.5,226.1,337.8,230,337.9,237.2z" id="el_CdFxdc9pyqf"/>
	<path d="M323,233.9c0,0,1.2-4.3-1.9-8.8c-0.5-0.8-0.9-1.4-1.2-1.9c-2.5,0.4-4.9,0.8-7.4,1.1c0.4,0.4,0.9,0.8,1.3,1.2&#10;&#9;&#9;C319.1,230.6,319.6,232.6,323,233.9z" id="el_nm8WfD7Mf3k"/>
	<path d="M374.2,229.8c0,0,1.2-4.3-1.9-8.8c-3-4.5-0.6-2.9-4-4.3c-2.1-0.8-3-1.5-4.9-3.1c-2.1,0.6-4.2,1.2-6.4,1.8&#10;&#9;&#9;c1.8,1.3,4.8,2.9,8.1,6.1C370.4,226.5,370.8,228.5,374.2,229.8z" id="el_l_8x8rElIWz"/>
	<path d="M386.2,211.2c7.3-0.1,9,1,12.4-0.4c0,0-2.3-3.9-7.7-4.9c-1.7-0.3-2.6-0.6-3.1-0.8c-5.2,2.2-10.7,4.2-16.6,6.1&#10;&#9;&#9;c0.8,0.5,1.6,0.9,2.1,1.2C375,213.5,378.9,211.3,386.2,211.2z" id="el_GppHCsa6quV"/>
	<path d="M438.9,203.9c3,4.5,0.6,2.9,4,4.3c3.4,1.3,3.6,2.3,9.8,7.2c6.2,4.8,3.8-1.8,3.4-3.8c-0.4-2-4.8-3.1-10-8.1&#10;&#9;&#9;c-2.3-2.3-3.7-3.9-4.8-5.2c-1.4,0.5-2.8,1-4.1,1.6C437.4,201.1,437.9,202.4,438.9,203.9z" id="el_4WgI6Y9VWp4"/>
	<path d="M437.4,214.5c0,0-1.2,4.3,1.9,8.8c3,4.5,0.6,2.9,4,4.3c2.1,0.8,3,1.5,4.9,3.1c2.1-0.6,4.2-1.2,6.4-1.8&#10;&#9;&#9;c-1.8-1.3-4.8-2.9-8.1-6.1C441.3,217.8,440.8,215.8,437.4,214.5z" id="el_rRl47ZqvVTf"/>
	<path d="M425.4,233.1c-7.3,0.1-9-1-12.4,0.4c0,0,2.3,3.9,7.7,4.9c1.7,0.3,2.6,0.6,3.1,0.8c5.2-2.2,10.7-4.2,16.6-6.1&#10;&#9;&#9;c-0.8-0.5-1.6-0.9-2-1.2C436.7,230.8,432.8,233,425.4,233.1z" id="el_KNzzatECpiN"/>
	<path d="M378.1,243c-0.8,1-1.6,2.1-2.3,3.1c0.3,1.3,0.8,2.8,1.8,4.3c3,4.5,0.6,2.9,4,4.3c2.7,1.1,3.4,1.9,6.7,4.7&#10;&#9;&#9;c1.4-1.1,2.9-2.3,4.5-3.4c-1.8-1.3-4.8-2.9-8.1-6.1C381,246.4,379.7,244.4,378.1,243z" id="el_YIB-iisLsUs"/>
	<path d="M236.8,269.6c-5.6,4.7-7.6,4.9-9.2,8.2c0,0,4.3,1.5,9.1-1.1c4.8-2.6,3-0.4,4.7-3.6c1.6-3.2,2.7-3.3,8.1-9&#10;&#9;&#9;c5.4-5.7-1.5-3.8-3.5-3.6C243.8,260.7,242.3,264.9,236.8,269.6z" id="el_1jKMBuZFnzr"/>
	<path d="M256.7,297.9c1.5-5.2,1.9-2.4,0.7-5.8c-1.1-3.4-0.5-4.2-0.8-12c-0.2-7.8-3.8-1.7-5.1-0.1&#10;&#9;&#9;c-1.3,1.6,0.7,5.6,0.1,12.8c-0.3,3.2-0.6,5.3-0.9,7c1.3,0.7,2.6,1.4,3.9,2.1C255.5,300.9,256.3,299.6,256.7,297.9z" id="el_OEPzGJ_QVoe"/>
	<path d="M229.7,256.2c0,0,4.1-1.9,5.6-7.1c0.3-0.9,0.5-1.6,0.7-2.1c-1.9-1.6-3.8-3.2-5.6-4.8c0,0.6,0,1.2-0.1,1.8&#10;&#9;&#9;C229.8,251.2,228.6,252.8,229.7,256.2z" id="el_d5yt8ihaLlR"/>
	<path d="M265.9,292.2c0,0,4.1-1.9,5.6-7.1c1.5-5.2,1.9-2.4,0.7-5.8c-0.7-2.1-0.7-3.2-0.7-5.7c-1.8-1.2-3.6-2.4-5.5-3.6&#10;&#9;&#9;c0.2,2.2,0.9,5.5,0.5,10C266,287.2,264.7,288.7,265.9,292.2z" id="el_dY_Fa4eT6Cs"/>
	<path d="M288.1,289.2c4.8,5.5,5,7.5,8.3,9.1c0,0,1.5-4.2-1.1-8.9c-0.8-1.5-1.2-2.4-1.4-2.9c-5-2.5-10.2-5.4-15.5-8.6&#10;&#9;&#9;c0.1,0.9,0.3,1.8,0.4,2.3C279,282.2,283.3,283.7,288.1,289.2z" id="el_5FxH0CpSZkj"/>
	<path d="M326.3,318.5c1.3-0.1,2.6-0.2,3.9-0.3c0.8-1.1,1.7-2.4,2.2-4.2c1.5-5.2,1.9-2.4,0.7-5.8&#10;&#9;&#9;c-0.9-2.7-0.7-3.8-0.7-8.1c-1.8-0.3-3.6-0.8-5.5-1.2c0.2,2.2,0.8,5.5,0.5,10C327.1,314.1,326.3,316.3,326.3,318.5z" id="el_GtP4mCC4M8X"/>
</g></g></g>
</svg>