<svg version="1.1" id="el__F_0gSBd4" xmlns="http://www.w3.org/2000/svg" xmlns:xlink="http://www.w3.org/1999/xlink" x="0px" y="0px" viewBox="0 0 494 385" style="enable-background:new 0 0 494.7 385.1;" xml:space="preserve"><style>@-webkit-keyframes kf_el_6xQTjVsiJM5_an_nyHNKtUoc{24.44%{-webkit-transform: translate(307.13720703125px, 182.48300170898438px) rotate(0deg) translate(-307.13720703125px, -182.48300170898438px);transform: translate(307.13720703125px, 182.48300170898438px) rotate(0deg) translate(-307.13720703125px, -182.48300170898438px);}0%{-webkit-transform: translate(307.13720703125px, 182.48300170898438px) rotate(0deg) translate(-307.13720703125px, -182.48300170898438px);transform: translate(307.13720703125px, 182.48300170898438px) rotate(0deg) translate(-307.13720703125px, -182.48300170898438px);}100%{-webkit-transform: translate(307.13720703125px, 182.48300170898438px) rotate(0deg) translate(-307.13720703125px, -182.48300170898438px);transform: translate(307.13720703125px, 182.48300170898438px) rotate(0deg) translate(-307.13720703125px, -182.48300170898438px);}}@keyframes kf_el_6xQTjVsiJM5_an_nyHNKtUoc{24.44%{-webkit-transform: translate(307.13720703125px, 182.48300170898438px) rotate(0deg) translate(-307.13720703125px, -182.48300170898438px);transform: translate(307.13720703125px, 182.48300170898438px) rotate(0deg) translate(-307.13720703125px, -182.48300170898438px);}0%{-webkit-transform: translate(307.13720703125px, 182.48300170898438px) rotate(0deg) translate(-307.13720703125px, -182.48300170898438px);transform: translate(307.13720703125px, 182.48300170898438px) rotate(0deg) translate(-307.13720703125px, -182.48300170898438px);}100%{-webkit-transform: translate(307.13720703125px, 182.48300170898438px) rotate(0deg) translate(-307.13720703125px, -182.48300170898438px);transform: translate(307.13720703125px, 182.48300170898438px) rotate(0deg) translate(-307.13720703125px, -182.48300170898438px);}}@-webkit-keyframes kf_el_KLp8i2gIepx_an_QrxRMNuxi{24.44%{-webkit-transform: translate(-0.05333447456359863px, 0.04750990867614746px) rotate(0deg) translate(0.05333447456359863px, -0.04750990867614746px);transform: translate(-0.05333447456359863px, 0.04750990867614746px) rotate(0deg) translate(0.05333447456359863px, -0.04750990867614746px);}33.33%{-webkit-transform: translate(-0.05333447456359863px, 0.04750990867614746px) rotate(-2deg) translate(0.05333447456359863px, -0.04750990867614746px);transform: translate(-0.05333447456359863px, 0.04750990867614746px) rotate(-2deg) translate(0.05333447456359863px, -0.04750990867614746px);}35.56%{-webkit-transform: translate(-0.05333447456359863px, 0.04750990867614746px) rotate(-3deg) translate(0.05333447456359863px, -0.04750990867614746px);transform: translate(-0.05333447456359863px, 0.04750990867614746px) rotate(-3deg) translate(0.05333447456359863px, -0.04750990867614746px);}41.11%{-webkit-transform: translate(-0.05333447456359863px, 0.04750990867614746px) rotate(-5deg) translate(0.05333447456359863px, -0.04750990867614746px);transform: translate(-0.05333447456359863px, 0.04750990867614746px) rotate(-5deg) translate(0.05333447456359863px, -0.04750990867614746px);}0%{-webkit-transform: translate(-0.05333447456359863px, 0.04750990867614746px) rotate(0deg) translate(0.05333447456359863px, -0.04750990867614746px);transform: translate(-0.05333447456359863px, 0.04750990867614746px) rotate(0deg) translate(0.05333447456359863px, -0.04750990867614746px);}100%{-webkit-transform: translate(-0.05333447456359863px, 0.04750990867614746px) rotate(-5deg) translate(0.05333447456359863px, -0.04750990867614746px);transform: translate(-0.05333447456359863px, 0.04750990867614746px) rotate(-5deg) translate(0.05333447456359863px, -0.04750990867614746px);}}@keyframes kf_el_KLp8i2gIepx_an_QrxRMNuxi{24.44%{-webkit-transform: translate(-0.05333447456359863px, 0.04750990867614746px) rotate(0deg) translate(0.05333447456359863px, -0.04750990867614746px);transform: translate(-0.05333447456359863px, 0.04750990867614746px) rotate(0deg) translate(0.05333447456359863px, -0.04750990867614746px);}33.33%{-webkit-transform: translate(-0.05333447456359863px, 0.04750990867614746px) rotate(-2deg) translate(0.05333447456359863px, -0.04750990867614746px);transform: translate(-0.05333447456359863px, 0.04750990867614746px) rotate(-2deg) translate(0.05333447456359863px, -0.04750990867614746px);}35.56%{-webkit-transform: translate(-0.05333447456359863px, 0.04750990867614746px) rotate(-3deg) translate(0.05333447456359863px, -0.04750990867614746px);transform: translate(-0.05333447456359863px, 0.04750990867614746px) rotate(-3deg) translate(0.05333447456359863px, -0.04750990867614746px);}41.11%{-webkit-transform: translate(-0.05333447456359863px, 0.04750990867614746px) rotate(-5deg) translate(0.05333447456359863px, -0.04750990867614746px);transform: translate(-0.05333447456359863px, 0.04750990867614746px) rotate(-5deg) translate(0.05333447456359863px, -0.04750990867614746px);}0%{-webkit-transform: translate(-0.05333447456359863px, 0.04750990867614746px) rotate(0deg) translate(0.05333447456359863px, -0.04750990867614746px);transform: translate(-0.05333447456359863px, 0.04750990867614746px) rotate(0deg) translate(0.05333447456359863px, -0.04750990867614746px);}100%{-webkit-transform: translate(-0.05333447456359863px, 0.04750990867614746px) rotate(-5deg) translate(0.05333447456359863px, -0.04750990867614746px);transform: translate(-0.05333447456359863px, 0.04750990867614746px) rotate(-5deg) translate(0.05333447456359863px, -0.04750990867614746px);}}@-webkit-keyframes kf_el_KLp8i2gIepx_an_TTCh6tMTy{0%{-webkit-transform: translate(-0.05333447456359863px, 0.04750990867614746px) translate(0.05333447456359863px, -0.04750990867614746px) translate(-400px, 0px);transform: translate(-0.05333447456359863px, 0.04750990867614746px) translate(0.05333447456359863px, -0.04750990867614746px) translate(-400px, 0px);}24.44%{-webkit-transform: translate(-0.05333447456359863px, 0.04750990867614746px) translate(0.05333447456359863px, -0.04750990867614746px) translate(0px, 0px);transform: translate(-0.05333447456359863px, 0.04750990867614746px) translate(0.05333447456359863px, -0.04750990867614746px) translate(0px, 0px);}37.78%{-webkit-transform: translate(-0.05333447456359863px, 0.04750990867614746px) translate(0.05333447456359863px, -0.04750990867614746px) translate(0px, -12px);transform: translate(-0.05333447456359863px, 0.04750990867614746px) translate(0.05333447456359863px, -0.04750990867614746px) translate(0px, -12px);}51.11%{-webkit-transform: translate(-0.05333447456359863px, 0.04750990867614746px) translate(0.05333447456359863px, -0.04750990867614746px) translate(0px, -50px);transform: translate(-0.05333447456359863px, 0.04750990867614746px) translate(0.05333447456359863px, -0.04750990867614746px) translate(0px, -50px);}58.89%{-webkit-transform: translate(-0.05333447456359863px, 0.04750990867614746px) translate(0.05333447456359863px, -0.04750990867614746px) translate(0px, -320px);transform: translate(-0.05333447456359863px, 0.04750990867614746px) translate(0.05333447456359863px, -0.04750990867614746px) translate(0px, -320px);}100%{-webkit-transform: translate(-0.05333447456359863px, 0.04750990867614746px) translate(0.05333447456359863px, -0.04750990867614746px) translate(0px, -320px);transform: translate(-0.05333447456359863px, 0.04750990867614746px) translate(0.05333447456359863px, -0.04750990867614746px) translate(0px, -320px);}}@keyframes kf_el_KLp8i2gIepx_an_TTCh6tMTy{0%{-webkit-transform: translate(-0.05333447456359863px, 0.04750990867614746px) translate(0.05333447456359863px, -0.04750990867614746px) translate(-400px, 0px);transform: translate(-0.05333447456359863px, 0.04750990867614746px) translate(0.05333447456359863px, -0.04750990867614746px) translate(-400px, 0px);}24.44%{-webkit-transform: translate(-0.05333447456359863px, 0.04750990867614746px) translate(0.05333447456359863px, -0.04750990867614746px) translate(0px, 0px);transform: translate(-0.05333447456359863px, 0.04750990867614746px) translate(0.05333447456359863px, -0.04750990867614746px) translate(0px, 0px);}37.78%{-webkit-transform: translate(-0.05333447456359863px, 0.04750990867614746px) translate(0.05333447456359863px, -0.04750990867614746px) translate(0px, -12px);transform: translate(-0.05333447456359863px, 0.04750990867614746px) translate(0.05333447456359863px, -0.04750990867614746px) translate(0px, -12px);}51.11%{-webkit-transform: translate(-0.05333447456359863px, 0.04750990867614746px) translate(0.05333447456359863px, -0.04750990867614746px) translate(0px, -50px);transform: translate(-0.05333447456359863px, 0.04750990867614746px) translate(0.05333447456359863px, -0.04750990867614746px) translate(0px, -50px);}58.89%{-webkit-transform: translate(-0.05333447456359863px, 0.04750990867614746px) translate(0.05333447456359863px, -0.04750990867614746px) translate(0px, -320px);transform: translate(-0.05333447456359863px, 0.04750990867614746px) translate(0.05333447456359863px, -0.04750990867614746px) translate(0px, -320px);}100%{-webkit-transform: translate(-0.05333447456359863px, 0.04750990867614746px) translate(0.05333447456359863px, -0.04750990867614746px) translate(0px, -320px);transform: translate(-0.05333447456359863px, 0.04750990867614746px) translate(0.05333447456359863px, -0.04750990867614746px) translate(0px, -320px);}}@-webkit-keyframes kf_el_6xQTjVsiJM5_an_V53qY6gzi{24.44%{-webkit-transform: translate(307.13720703125px, 182.48300170898438px) translate(-307.13720703125px, -182.48300170898438px) translate(0px, 0px);transform: translate(307.13720703125px, 182.48300170898438px) translate(-307.13720703125px, -182.48300170898438px) translate(0px, 0px);}41.11%{-webkit-transform: translate(307.13720703125px, 182.48300170898438px) translate(-307.13720703125px, -182.48300170898438px) translate(0px, -30px);transform: translate(307.13720703125px, 182.48300170898438px) translate(-307.13720703125px, -182.48300170898438px) translate(0px, -30px);}46.67%{-webkit-transform: translate(307.13720703125px, 182.48300170898438px) translate(-307.13720703125px, -182.48300170898438px) translate(-20px, -60px);transform: translate(307.13720703125px, 182.48300170898438px) translate(-307.13720703125px, -182.48300170898438px) translate(-20px, -60px);}51.11%{-webkit-transform: translate(307.13720703125px, 182.48300170898438px) translate(-307.13720703125px, -182.48300170898438px) translate(-20px, -70px);transform: translate(307.13720703125px, 182.48300170898438px) translate(-307.13720703125px, -182.48300170898438px) translate(-20px, -70px);}58.89%{-webkit-transform: translate(307.13720703125px, 182.48300170898438px) translate(-307.13720703125px, -182.48300170898438px) translate(-20px, -300px);transform: translate(307.13720703125px, 182.48300170898438px) translate(-307.13720703125px, -182.48300170898438px) translate(-20px, -300px);}0%{-webkit-transform: translate(307.13720703125px, 182.48300170898438px) translate(-307.13720703125px, -182.48300170898438px) translate(0px, 0px);transform: translate(307.13720703125px, 182.48300170898438px) translate(-307.13720703125px, -182.48300170898438px) translate(0px, 0px);}100%{-webkit-transform: translate(307.13720703125px, 182.48300170898438px) translate(-307.13720703125px, -182.48300170898438px) translate(-20px, -300px);transform: translate(307.13720703125px, 182.48300170898438px) translate(-307.13720703125px, -182.48300170898438px) translate(-20px, -300px);}}@keyframes kf_el_6xQTjVsiJM5_an_V53qY6gzi{24.44%{-webkit-transform: translate(307.13720703125px, 182.48300170898438px) translate(-307.13720703125px, -182.48300170898438px) translate(0px, 0px);transform: translate(307.13720703125px, 182.48300170898438px) translate(-307.13720703125px, -182.48300170898438px) translate(0px, 0px);}41.11%{-webkit-transform: translate(307.13720703125px, 182.48300170898438px) translate(-307.13720703125px, -182.48300170898438px) translate(0px, -30px);transform: translate(307.13720703125px, 182.48300170898438px) translate(-307.13720703125px, -182.48300170898438px) translate(0px, -30px);}46.67%{-webkit-transform: translate(307.13720703125px, 182.48300170898438px) translate(-307.13720703125px, -182.48300170898438px) translate(-20px, -60px);transform: translate(307.13720703125px, 182.48300170898438px) translate(-307.13720703125px, -182.48300170898438px) translate(-20px, -60px);}51.11%{-webkit-transform: translate(307.13720703125px, 182.48300170898438px) translate(-307.13720703125px, -182.48300170898438px) translate(-20px, -70px);transform: translate(307.13720703125px, 182.48300170898438px) translate(-307.13720703125px, -182.48300170898438px) translate(-20px, -70px);}58.89%{-webkit-transform: translate(307.13720703125px, 182.48300170898438px) translate(-307.13720703125px, -182.48300170898438px) translate(-20px, -300px);transform: translate(307.13720703125px, 182.48300170898438px) translate(-307.13720703125px, -182.48300170898438px) translate(-20px, -300px);}0%{-webkit-transform: translate(307.13720703125px, 182.48300170898438px) translate(-307.13720703125px, -182.48300170898438px) translate(0px, 0px);transform: translate(307.13720703125px, 182.48300170898438px) translate(-307.13720703125px, -182.48300170898438px) translate(0px, 0px);}100%{-webkit-transform: translate(307.13720703125px, 182.48300170898438px) translate(-307.13720703125px, -182.48300170898438px) translate(-20px, -300px);transform: translate(307.13720703125px, 182.48300170898438px) translate(-307.13720703125px, -182.48300170898438px) translate(-20px, -300px);}}#el__F_0gSBd4 *{-webkit-animation-duration: 3s;animation-duration: 3s;-webkit-animation-iteration-count: infinite;animation-iteration-count: infinite;-webkit-animation-timing-function: cubic-bezier(0, 0, 1, 1);animation-timing-function: cubic-bezier(0, 0, 1, 1);}#el_8IJUjL3xZa{fill: #182221;}#el_c9pcevjPyV{fill: #182221;}#el_Rap6bOMU_T{fill: #1F2D0A;}#el_wxFwexHVCY{fill: #1F2D0A;}#el_InDiq92d7w{fill: #1F2D0A;}#el_zHlaabe3ot{fill: #182221;}#el_Ov-FyMhPWr{fill: #182221;}#el_G3BQ4Kez-b{fill: #182221;}#el_TWQVw2UWCX{fill: #182221;}#el_Bt9E64d8TO{fill: #182221;}#el_FhGxNYr4Q3{fill: #182221;}#el__LBfRr3pa9{fill: #182221;}#el_fewLsnCTRY{fill: #182221;}#el_PO9tk4sTqx{fill: #182221;}#el_2i60Jc5zFFE{fill: #182221;}#el_tJwtvvM5LrB{fill: #182221;}#el_O04pXhNFpUD{fill: #182221;}#el_GRYDAWf9Kn3{fill: #182221;}#el_KcZvo8W8Exf{fill: #182221;}#el_d4qKmmmsc7I{fill: #182221;}#el_hxOH4SDuQJV{fill: #182221;}#el_hilmVROeu2L{fill: #182221;}#el_xjkSXAfbRNg{fill: #182221;}#el_2jOejnqgfa5{fill: #182221;}#el_mFCG65RME4U{fill: #182221;}#el_DAU0eoKOTuF{fill: #182221;}#el_j39rOw--pK2{fill: #182221;}#el_8kyPVRfKdhA{fill: #182221;}#el_CFmF3PlBKBP{fill: #182221;}#el_gAuasI8-z94{fill: #182221;}#el_-uHLCzZp9d6{fill: #182221;}#el_Q5vR7o3dzao{fill: #182221;}#el_VcePQX-4UTT{fill: #182221;}#el_hCUobU8EYB3{fill: #7A7823;}#el_VCv7LVpDHbG{fill: #DBCE8A;}#el_g4a9VgSL5lP{fill: #C1B47E;}#el_RO9_pPy7qG2{fill: #8D8980;}#el_S0UIRWL2RvI{fill: #8D8980;}#el_Of781qgz9-V{fill: #180D09;}#el_6xQTjVsiJM5{fill: #D29B63;}#el_6xQTjVsiJM5_an_V53qY6gzi{-webkit-animation-fill-mode: backwards;animation-fill-mode: backwards;-webkit-transform: translate(307.13720703125px, 182.48300170898438px) translate(-307.13720703125px, -182.48300170898438px) translate(0px, 0px);transform: translate(307.13720703125px, 182.48300170898438px) translate(-307.13720703125px, -182.48300170898438px) translate(0px, 0px);-webkit-animation-name: kf_el_6xQTjVsiJM5_an_V53qY6gzi;animation-name: kf_el_6xQTjVsiJM5_an_V53qY6gzi;-webkit-animation-timing-function: cubic-bezier(0, 0, 1, 1);animation-timing-function: cubic-bezier(0, 0, 1, 1);}#el_KLp8i2gIepx_an_TTCh6tMTy{-webkit-animation-fill-mode: backwards;animation-fill-mode: backwards;-webkit-transform: translate(-0.05333447456359863px, 0.04750990867614746px) translate(0.05333447456359863px, -0.04750990867614746px) translate(-400px, 0px);transform: translate(-0.05333447456359863px, 0.04750990867614746px) translate(0.05333447456359863px, -0.04750990867614746px) translate(-400px, 0px);-webkit-animation-name: kf_el_KLp8i2gIepx_an_TTCh6tMTy;animation-name: kf_el_KLp8i2gIepx_an_TTCh6tMTy;-webkit-animation-timing-function: cubic-bezier(0, 0, 1, 1);animation-timing-function: cubic-bezier(0, 0, 1, 1);}#el_KLp8i2gIepx_an_QrxRMNuxi{-webkit-animation-fill-mode: backwards;animation-fill-mode: backwards;-webkit-transform: translate(-0.05333447456359863px, 0.04750990867614746px) rotate(0deg) translate(0.05333447456359863px, -0.04750990867614746px);transform: translate(-0.05333447456359863px, 0.04750990867614746px) rotate(0deg) translate(0.05333447456359863px, -0.04750990867614746px);-webkit-animation-name: kf_el_KLp8i2gIepx_an_QrxRMNuxi;animation-name: kf_el_KLp8i2gIepx_an_QrxRMNuxi;-webkit-animation-timing-function: cubic-bezier(0, 0, 1, 1);animation-timing-function: cubic-bezier(0, 0, 1, 1);}#el_6xQTjVsiJM5_an_nyHNKtUoc{-webkit-animation-fill-mode: backwards;animation-fill-mode: backwards;-webkit-transform: translate(307.13720703125px, 182.48300170898438px) rotate(0deg) translate(-307.13720703125px, -182.48300170898438px);transform: translate(307.13720703125px, 182.48300170898438px) rotate(0deg) translate(-307.13720703125px, -182.48300170898438px);-webkit-animation-name: kf_el_6xQTjVsiJM5_an_nyHNKtUoc;animation-name: kf_el_6xQTjVsiJM5_an_nyHNKtUoc;-webkit-animation-timing-function: cubic-bezier(0, 0, 1, 1);animation-timing-function: cubic-bezier(0, 0, 1, 1);}</style>

<path d="M206.3,328.7c0,0,0.2-0.1,0.5-0.3c-0.4-0.9-0.8-1.8-1.2-2.7C205.7,326.7,205.9,327.6,206.3,328.7z" id="el_8IJUjL3xZa"/>
<path d="M211.2,321.2c1.1-5.3,1.6-2.5,0.2-5.8c-1.4-3.3-0.9-4.2-1.8-11.9c-0.9-7.8-3.9-1.4-5,0.3s1.2,5.5,1.2,12.7&#10;&#9;c0,4.8-0.4,7.2-0.3,9.2c0.4,0.9,0.8,1.8,1.2,2.7C207.8,327.6,210.4,325.4,211.2,321.2z" id="el_c9pcevjPyV"/>
<g id="el_-25d9uXo4U">
	<path d="M357.5,376.4c0.6-0.1,1.2-0.1,1.8-0.2c0.5-0.6,1-1,1.5-1.1c1.6-0.3,6-1.9,5.4,0.5c1.1-0.2,2-0.4,3.2-1&#10;&#9;&#9;c3.3-1.4,0.5-0.8,5.8,0.2c3.3,0.7,5.4,2.4,6.5,3.7c12.3-2.8,23.6-6.3,33.6-10.1c-1.1-1.2-2.4-2.9-4.8-5.2c-5.1-5.1-9.5-6.2-9.9-8.1&#10;&#9;&#9;c-0.4-2-2.8-8.6,3.3-3.8c6.1,4.8,6.3,5.8,9.7,7.2c3.3,1.3,1-0.2,4,4.3c0.9,1.4,1.5,2.8,1.8,4.1c7.3-2.9,13.8-5.9,19.5-8.8&#10;&#9;&#9;c-4.6-4-8.2-5.2-8.6-6.9c-0.4-2-2.8-8.6,3.3-3.8c6.1,4.8,6.3,5.8,9.7,7.2c0.6,0.2,1,0.4,1.3,0.5c10.4-5.8,16.9-10.9,18.6-13.6&#10;&#9;&#9;c2.1-3.2,8.1-9.6,14.2-17.8c-1.6-1.4-2.9-3.4-6.6-7c-3.2-3.2-6.1-4.8-7.9-6.1c-4.4,3.2-9.3,6.3-14.7,9.2c-1.5,3.7-4.3,5.3-4.3,5.3&#10;&#9;&#9;c-0.4-1-0.6-1.8-0.7-2.7c-3.4,1.7-7,3.4-10.8,5c0.5,0.2,1.4,0.5,3.1,0.8c5.3,1.1,7.5,4.9,7.5,4.9c-3.3,1.4-5,0.3-12.2,0.4&#10;&#9;&#9;c-7.2,0.1-11.1,2.3-12.7,1.2c-0.5-0.3-1.2-0.7-2-1.2c-2.5,0.8-5,1.6-7.6,2.4c1.8,1.6,2.7,2.3,4.8,3.1c3.3,1.3,1-0.2,4,4.3&#10;&#9;&#9;c3,4.5,1.8,8.8,1.8,8.8c-3.3-1.3-3.8-3.3-8.9-8.4c-3.2-3.2-6.1-4.8-8-6.1c-7.2,2-14.9,3.8-23.1,5.4c-4.6,0.9-9.1,1.7-13.5,2.4&#10;&#9;&#9;c0.3,0.5,0.6,1.1,1.1,1.9c3,4.5,1.8,8.8,1.8,8.8c-3.3-1.3-3.8-3.3-8.9-8.4c-0.4-0.4-0.9-0.8-1.3-1.2c-7.2,1-14.1,1.7-20.7,2.2&#10;&#9;&#9;c0,0,0,0,0,0c-1.1,5.3-4.9,7.5-4.9,7.5c-1-2.4-0.7-3.9-0.5-7.2c-30.8,1.5-54.1-2.6-71.6-8.8c-1.5,2.5-3.4,3.6-3.4,3.6&#10;&#9;&#9;c-0.8-1.8-0.8-3.1-0.7-5.2c-28.6-11.2-40.4-27.5-43.7-30.3c-3-2.6-9.1-24-1.5-49.8c-4.1,6.3-19.6,33.6-5.7,66.9&#10;&#9;&#9;c-0.1-2,0.4-4.4,0.3-9.2c-0.1-7.2-2.3-11.1-1.2-12.7s4.1-8.1,5-0.3c0.9,7.8,0.4,8.6,1.8,11.9c1.4,3.3,0.8,0.5-0.2,5.8&#10;&#9;&#9;c-0.8,4.2-3.4,6.4-4.5,7.2c1.9,4.1,4.2,8.3,7.1,12.5c3.4,5.1,7.9,10.2,13.4,15c1-1.1,1.8-2.2,2.5-3.2c-2.2-1.4-5-3.4,1.2-4.1&#10;&#9;&#9;c0.6-0.1,1.2-0.1,1.8-0.2c0.5-0.6,1-1,1.5-1.1c1.6-0.3,6-1.9,5.4,0.5c1.1-0.2,2-0.4,3.2-1c3.3-1.4,0.5-0.8,5.8,0.2&#10;&#9;&#9;c5.3,1.1,7.5,4.9,7.5,4.9c-3.3,1.4-5,0.3-12.2,0.4c-3.5,0-6.3,0.6-8.3,1c-2.5,3-3.5,3.9-4.4,5.8c8.6,6.6,19.4,12.6,33,17.2&#10;&#9;&#9;c-0.6-2.5-1.9-7.2,3.5-2.9c4.6,3.6,5.8,5.1,7.6,6.1c13.2,3.3,28.7,5.3,46.6,5.4c-1.6-1-2.6-1.8-2.8-2.7c-0.4-2-2.8-8.6,3.3-3.8&#10;&#9;&#9;c4.9,3.9,6,5.3,8,6.4c1.8,0,3.6-0.1,5.4-0.2c6.3-0.3,12.4-0.8,18.3-1.5c0.8-1,1.6-1.9,2.2-2.8C354,379.2,351.3,377.1,357.5,376.4z&#10;&#9;&#9; M387,346.5c0.9,7.8,0.4,8.6,1.8,11.9c1.4,3.3,0.8,0.5-0.2,5.8s-4.9,7.5-4.9,7.5c-1.4-3.3-0.3-5-0.4-12.2&#10;&#9;&#9;c-0.1-7.2-2.3-11.1-1.2-12.7C383.1,345.2,386.1,338.8,387,346.5z M298.9,375.1c-3.2-3.1-6-4.7-7.9-6c-4,0.6-6.3,1.6-7.5,0.8&#10;&#9;&#9;c-1.7-1.1-8.1-4.1-0.3-5c2.2-0.3,3.9-0.4,5.2-0.5c-0.5-2.3-0.4-4.6,3.9-1.2c0.3,0.2,0.5,0.4,0.8,0.6c0.6-0.2,1.2-0.4,2-0.7&#10;&#9;&#9;c3.3-1.4,0.5-0.8,5.8,0.2c5.3,1,7.5,4.9,7.5,4.9c-2.8,1.2-4.5,0.6-9.4,0.4c0.9,0.7,1.7,1.1,3,1.7c3.3,1.3,1-0.2,4,4.3&#10;&#9;&#9;c3,4.5,1.8,8.8,1.8,8.8C304.5,382.1,304.1,380.2,298.9,375.1z M319.6,364.8c-7.2,0.1-11.1,2.3-12.7,1.2c-1.7-1.1-8.1-4.1-0.3-5&#10;&#9;&#9;c7.8-0.9,8.6-0.4,11.9-1.8c3.3-1.4,0.5-0.8,5.8,0.2c5.3,1.1,7.5,4.9,7.5,4.9C328.5,365.9,326.8,364.8,319.6,364.8z" id="el_Rap6bOMU_T"/>
	<path d="M474,312c3.3,1.3,1-0.2,4,4.3c1,1.5,1.5,3,1.8,4.3c9.2-12.9,17.8-29.2,12.9-43.9c-0.2-0.6-0.5-1.1-0.9-1.6&#10;&#9;&#9;c-3.9,11-11.8,22.1-24.3,32.2C470.7,310,471.3,310.9,474,312z" id="el_wxFwexHVCY"/>
	<path d="M362.2,381.2c-0.4,0.4-0.7,0.8-1,1.2c4.3-0.6,8.4-1.3,12.5-2.1c-0.9,0-2-0.1-3.2,0&#10;&#9;&#9;C367,380.2,364.2,380.8,362.2,381.2z" id="el_InDiq92d7w"/>
	<path d="M234.3,347.4c-0.5,0.1-1,0.5-1.5,1.1c3.6-0.4,5.4-0.4,6.9-0.6C240.3,345.5,235.8,347.1,234.3,347.4z" id="el_zHlaabe3ot"/>
	<path d="M235.7,353.5c-2.1,0.4-3.6,0.8-4.4,0.2c-0.3-0.2-0.9-0.5-1.5-0.9c-0.7,1-1.5,2.1-2.5,3.2&#10;&#9;&#9;c1.3,1.1,2.6,2.2,4,3.3C232.2,357.4,233.2,356.5,235.7,353.5z" id="el_Ov-FyMhPWr"/>
	<path d="M231,348.7c-6.1,0.7-3.4,2.7-1.2,4.1c1.3-1.8,2.2-3.3,2.9-4.3C232.2,348.6,231.6,348.6,231,348.7z" id="el_G3BQ4Kez-b"/>
	<path d="M238,350.7c-0.9,1.1-1.6,2-2.3,2.8c2.1-0.4,4.8-1,8.3-1c7.2-0.1,8.9,1,12.2-0.4c0,0-2.3-3.9-7.5-4.9&#10;&#9;&#9;c-5.3-1.1-2.5-1.6-5.8-0.2c-1.3,0.5-2.2,0.8-3.2,1C239.5,348.5,239,349.4,238,350.7z" id="el_TWQVw2UWCX"/>
	<path d="M235.7,353.5c0.7-0.8,1.4-1.7,2.3-2.8c1-1.3,1.5-2.2,1.7-2.8c-1.5,0.2-3.3,0.3-6.9,0.6c-0.8,1-1.6,2.5-2.9,4.3&#10;&#9;&#9;c0.6,0.4,1.1,0.7,1.5,0.9C232.2,354.3,233.6,354,235.7,353.5z" id="el_Bt9E64d8TO"/>
	<path d="M257.2,344.1c0,0,1.9-1.1,3.4-3.6c-1.4-0.5-2.8-1-4.1-1.5C256.4,340.9,256.4,342.3,257.2,344.1z" id="el_FhGxNYr4Q3"/>
	<path d="M267.8,373.5c-5.4-4.3-4.1,0.4-3.5,2.9c3.5,1.2,7.2,2.2,11.1,3.2C273.6,378.6,272.4,377.2,267.8,373.5z" id="el__LBfRr3pa9"/>
	<path d="M288.4,364.4c-1.3,0.1-3,0.2-5.2,0.5c-7.7,0.9-1.4,3.9,0.3,5c1.2,0.8,3.6-0.2,7.5-0.8c-1.1-0.8-1.9-1.4-2-2.2&#10;&#9;&#9;C288.9,366.4,288.6,365.4,288.4,364.4z" id="el_fewLsnCTRY"/>
	<path d="M308.4,368.3c0,0-2.2-3.9-7.5-4.9c-5.3-1-2.5-1.6-5.8-0.2c-0.7,0.3-1.4,0.5-2,0.7c3.1,2.5,4.6,3.9,5.8,4.9&#10;&#9;&#9;C303.9,368.8,305.6,369.5,308.4,368.3z" id="el_PO9tk4sTqx"/>
	<path d="M322.4,378.6c-6.1-4.8-3.7,1.8-3.3,3.8c0.2,0.9,1.2,1.7,2.8,2.7c2.8,0,5.6,0,8.4-0.1&#10;&#9;&#9;C328.4,383.9,327.3,382.5,322.4,378.6z" id="el_2i60Jc5zFFE"/>
	<path d="M360.7,375.1c-0.5,0.1-1,0.5-1.5,1.1c3.6-0.4,5.4-0.4,6.9-0.6C366.8,373.2,362.3,374.8,360.7,375.1z" id="el_tJwtvvM5LrB"/>
	<path d="M362.2,381.2c-2.1,0.4-3.6,0.8-4.4,0.2c-0.3-0.2-0.9-0.5-1.5-0.9c-0.6,0.9-1.3,1.8-2.2,2.8&#10;&#9;&#9;c2.4-0.3,4.8-0.6,7.1-0.9C361.5,382,361.8,381.6,362.2,381.2z" id="el_O04pXhNFpUD"/>
	<path d="M306,374.7c-3-4.5-0.6-2.9-4-4.3c-1.3-0.5-2.1-1-3-1.7c-0.8,0-1.7,0-2.7,0c-2,0-3.7,0.2-5.2,0.4&#10;&#9;&#9;c1.8,1.2,4.7,2.9,7.9,6c5.1,5.1,5.6,7,8.9,8.4C307.8,383.5,309,379.1,306,374.7z" id="el_GRYDAWf9Kn3"/>
	<path d="M293.1,363.8c-0.3-0.2-0.5-0.4-0.8-0.6c-4.3-3.4-4.4-1.1-3.9,1.2C290.6,364.3,291.8,364.2,293.1,363.8z" id="el_KcZvo8W8Exf"/>
	<path d="M299,368.7c-1.3-1-2.7-2.3-5.8-4.9c-1.3,0.3-2.5,0.4-4.7,0.6c0.2,1,0.5,2,0.6,2.5c0.2,0.8,0.9,1.4,2,2.2&#10;&#9;&#9;c1.5-0.2,3.2-0.4,5.2-0.4C297.3,368.7,298.2,368.7,299,368.7z" id="el_d4qKmmmsc7I"/>
	<path d="M357.5,376.4c-6.1,0.7-3.4,2.7-1.2,4.1c1.3-1.8,2.2-3.3,2.9-4.3C358.7,376.3,358.1,376.4,357.5,376.4z" id="el_hxOH4SDuQJV"/>
	<path d="M375.2,374.9c-5.3-1.1-2.5-1.6-5.8-0.2c-1.3,0.5-2.2,0.8-3.2,1c-0.2,0.6-0.7,1.5-1.7,2.8&#10;&#9;&#9;c-0.9,1.1-1.6,2-2.3,2.8c2.1-0.4,4.8-1,8.3-1c1.2,0,2.2,0,3.2,0c2.7-0.5,5.4-1.1,8-1.7C380.6,377.3,378.5,375.5,375.2,374.9z" id="el_hilmVROeu2L"/>
	<path d="M366.1,375.6c-1.5,0.2-3.3,0.3-6.9,0.6c-0.8,1-1.6,2.5-2.9,4.3c0.6,0.4,1.1,0.7,1.5,0.9&#10;&#9;&#9;c0.9,0.6,2.3,0.2,4.4-0.2c0.7-0.8,1.4-1.7,2.3-2.8C365.5,377.1,366,376.2,366.1,375.6z" id="el_xjkSXAfbRNg"/>
	<path d="M383.3,359.6c0.1,7.2-1,8.9,0.4,12.2c0,0,3.9-2.3,4.9-7.5s1.6-2.5,0.2-5.8c-1.4-3.3-0.9-4.2-1.8-11.9&#10;&#9;&#9;c-0.9-7.8-3.9-1.4-5,0.3C381,348.5,383.2,352.4,383.3,359.6z" id="el_2jOejnqgfa5"/>
	<path d="M417.6,362.8c-3-4.5-0.6-2.9-4-4.3c-3.3-1.3-3.6-2.3-9.7-7.2c-6.1-4.8-3.7,1.8-3.3,3.8c0.4,2,4.7,3.1,9.9,8.1&#10;&#9;&#9;c2.3,2.3,3.7,3.9,4.8,5.2c1.4-0.5,2.7-1,4-1.6C419.1,365.6,418.6,364.2,417.6,362.8z" id="el_mFCG65RME4U"/>
	<path d="M324.3,359.5c-5.3-1.1-2.5-1.6-5.8-0.2c-3.3,1.4-4.2,0.9-11.9,1.8c-7.8,0.9-1.4,3.9,0.3,5&#10;&#9;&#9;c1.7,1.1,5.5-1.2,12.7-1.2c7.2-0.1,8.9,1,12.2-0.4C331.8,364.5,329.6,360.6,324.3,359.5z" id="el_DAU0eoKOTuF"/>
	<path d="M332.8,356.4c0,0,3.9-2.3,4.9-7.5c0,0,0,0,0,0c-1.8,0.1-3.7,0.2-5.5,0.3C332,352.5,331.8,354.1,332.8,356.4z" id="el_j39rOw--pK2"/>
	<path d="M368.6,356.3c0,0,1.1-4.3-1.8-8.8c-0.5-0.8-0.9-1.4-1.1-1.9c-2.5,0.4-4.9,0.8-7.2,1.1c0.4,0.4,0.9,0.8,1.3,1.2&#10;&#9;&#9;C364.8,353,365.2,354.9,368.6,356.3z" id="el_8kyPVRfKdhA"/>
	<path d="M433.6,347.4c-6.1-4.8-3.7,1.8-3.3,3.8c0.4,1.8,4,2.9,8.6,6.9c2-1,3.9-2,5.7-3c-0.3-0.1-0.7-0.3-1.3-0.5&#10;&#9;&#9;C440,353.2,439.8,352.2,433.6,347.4z" id="el_CFmF3PlBKBP"/>
	<path d="M419,352.2c0,0,1.1-4.3-1.8-8.8c-3-4.5-0.6-2.9-4-4.3c-2.1-0.8-3-1.5-4.8-3.1c-2,0.6-4.1,1.2-6.3,1.8&#10;&#9;&#9;c1.8,1.3,4.7,2.9,8,6.1C415.3,348.9,415.7,350.9,419,352.2z" id="el_gAuasI8-z94"/>
	<path d="M430.8,333.6c7.2-0.1,8.9,1,12.2-0.4c0,0-2.3-3.9-7.5-4.9c-1.7-0.3-2.6-0.6-3.1-0.8&#10;&#9;&#9;c-5.1,2.2-10.6,4.2-16.4,6.1c0.8,0.5,1.6,0.9,2,1.2C419.8,335.9,423.6,333.7,430.8,333.6z" id="el_-uHLCzZp9d6"/>
	<path d="M444,325.2c0,0,2.8-1.6,4.3-5.3c-1.6,0.9-3.3,1.7-4.9,2.6C443.4,323.4,443.6,324.2,444,325.2z" id="el_Q5vR7o3dzao"/>
	<path d="M477.5,323.7c0.8-1,1.5-2.1,2.3-3.1c-0.3-1.3-0.8-2.8-1.8-4.3c-3-4.5-0.6-2.9-4-4.3c-2.7-1.1-3.3-1.9-6.6-4.7&#10;&#9;&#9;c-1.4,1.1-2.9,2.3-4.4,3.4c1.8,1.3,4.7,2.9,7.9,6.1C474.6,320.3,475.8,322.3,477.5,323.7z" id="el_VcePQX-4UTT"/>
	<path d="M491.7,275.1c7.5-21.3,0.3-42.6-16.1-57.5c0,0-70.3-77-179-36.9c-49.8,18.4-72.9,45.8-82.6,70.5&#10;&#9;&#9;c-0.9,2.2-1.6,4.4-2.3,6.6c-0.1,0.4-0.2,0.8-0.3,1.2c-7.6,25.8-1.5,47.2,1.5,49.8c6.1,5.2,42.7,59,166.2,34.6&#10;&#9;&#9;C448.4,329.5,482.1,302.3,491.7,275.1z M475.5,289.8c0,0-88.6,53.2-148.5,46.3s-96.2-24.6-102.2-42.9c-3.1-9.5-1.5-23.3,3.6-36&#10;&#9;&#9;c4.6-11.7,12.1-22.4,21.4-27.8c19.3-11.3,63-54.4,136.3-45.9c59.6,6.9,97.9,53.6,96.7,86.5C482.5,277.5,480.2,284.4,475.5,289.8z" id="el_hCUobU8EYB3"/>
</g>
<path d="M482.8,270c-0.3,7.5-2.6,14.4-7.3,19.8c0,0-88.6,53.2-148.5,46.3c-60-6.9-96.2-24.6-102.2-42.9&#10;&#9;c-3.1-9.5-1.5-23.3,3.6-36c4.6-11.7,12.1-22.4,21.4-27.8c19.3-11.3,63-54.4,136.3-45.9C445.7,190.4,484,237.2,482.8,270z" id="el_VCv7LVpDHbG"/>
<path id="el_g4a9VgSL5lP" d="M424.4,284.2c0,0-63.6,24.1-89,6.3c-8.7-6.1-18.6-21.4-24.1-38.6c-10.5-33.1-4.6-73.4,58.6-69.1&#10;&#9;c62.4,4.3,73.7,45.8,69.4,74.4C437.1,272.6,430.2,284.2,424.4,284.2z"/>
<g id="el_KLp8i2gIepx_an_TTCh6tMTy" data-animator-group="true" data-animator-type="0"><g id="el_KLp8i2gIepx_an_QrxRMNuxi" data-animator-group="true" data-animator-type="1"><g id="el_KLp8i2gIepx">
	<path d="M231.4,236.5l5.1,2.9l-8.5,6.2c23,30.9,117.8,101.3,139.2,88.4c1.5-1.2,2.7-2.7,3.5-4.4c0-0.1,0.1-0.1,0.1-0.2&#10;&#9;&#9;c3.3-7.3,0-19.1-12.8-36.2C295.6,209.9,231.4,236.5,231.4,236.5z" id="el_RO9_pPy7qG2"/>
	<path d="M12.9,30.3C24.5,49,131.1,139.6,135.2,143c4.2,3.4,81,69.3,87.9,94.1c0.5,1.8,1.7,4,3.4,6.5&#10;&#9;&#9;c0.4,0.6,0.9,1.3,1.4,1.9l8.5-6.2l-5.1-2.9c0,0-16.2-23-18.7-27.4C210.3,204.8,43.9,37.6,28.4,11.9c-2.8-4.7-5.4-7.8-7.7-9.7&#10;&#9;&#9;C20.7,2.2,1.3,11.6,12.9,30.3z" id="el_S0UIRWL2RvI"/>
	<path d="M1,15.2c0,0-13.8,17.4,58.5,71l91.7,78.3c0,0,78.7,67.2,71.4,85C247.7,312.8,344.4,352,367.2,334&#10;&#9;&#9;c-21.5,13-116.2-57.5-139.2-88.4c-0.5-0.7-1-1.3-1.4-1.9c-1.7-2.5-2.9-4.7-3.4-6.5c-6.9-24.8-83.7-90.7-87.9-94.1&#10;&#9;&#9;c-4.2-3.4-110.7-94-122.3-112.7s7.8-28.1,7.8-28.1C10.6-6,4.4,11,1,15.2z" id="el_Of781qgz9-V"/>
</g></g></g>
<g id="el_6xQTjVsiJM5_an_V53qY6gzi" data-animator-group="true" data-animator-type="0"><g id="el_6xQTjVsiJM5_an_nyHNKtUoc" data-animator-group="true" data-animator-type="1"><path id="el_6xQTjVsiJM5" d="M424.4,284.2c0,0-63.6,24.1-89,6.3c-8.7-6.1-18.6-21.4-24.1-38.6c-10.5-33.1-4.6-73.4,58.6-69.1&#10;&#9;c62.4,4.3,73.7,45.8,69.4,74.4C437.1,272.6,430.2,284.2,424.4,284.2z"/></g></g>
</svg>