<svg version="1.1" id="el_oDZ4mP2GPM" xmlns="http://www.w3.org/2000/svg" xmlns:xlink="http://www.w3.org/1999/xlink" x="0px" y="0px" viewBox="0 0 538 358" style="enable-background:new 0 0 538 358.2;" xml:space="preserve"><style>@-webkit-keyframes kf_el_GeecgzBFaLs_an_X_3HoxWDK{16.67%{-webkit-transform: translate(38.93084716796875px, 14.427090644836426px) rotate(0deg) translate(-38.93084716796875px, -14.427090644836426px);transform: translate(38.93084716796875px, 14.427090644836426px) rotate(0deg) translate(-38.93084716796875px, -14.427090644836426px);}30%{-webkit-transform: translate(38.93084716796875px, 14.427090644836426px) rotate(-20deg) translate(-38.93084716796875px, -14.427090644836426px);transform: translate(38.93084716796875px, 14.427090644836426px) rotate(-20deg) translate(-38.93084716796875px, -14.427090644836426px);}34.44%{-webkit-transform: translate(38.93084716796875px, 14.427090644836426px) rotate(-50deg) translate(-38.93084716796875px, -14.427090644836426px);transform: translate(38.93084716796875px, 14.427090644836426px) rotate(-50deg) translate(-38.93084716796875px, -14.427090644836426px);}41.11%{-webkit-transform: translate(38.93084716796875px, 14.427090644836426px) rotate(-70deg) translate(-38.93084716796875px, -14.427090644836426px);transform: translate(38.93084716796875px, 14.427090644836426px) rotate(-70deg) translate(-38.93084716796875px, -14.427090644836426px);}47.78%{-webkit-transform: translate(38.93084716796875px, 14.427090644836426px) rotate(-90deg) translate(-38.93084716796875px, -14.427090644836426px);transform: translate(38.93084716796875px, 14.427090644836426px) rotate(-90deg) translate(-38.93084716796875px, -14.427090644836426px);}56.67%{-webkit-transform: translate(38.93084716796875px, 14.427090644836426px) rotate(-100deg) translate(-38.93084716796875px, -14.427090644836426px);transform: translate(38.93084716796875px, 14.427090644836426px) rotate(-100deg) translate(-38.93084716796875px, -14.427090644836426px);}63.33%{-webkit-transform: translate(38.93084716796875px, 14.427090644836426px) rotate(-110deg) translate(-38.93084716796875px, -14.427090644836426px);transform: translate(38.93084716796875px, 14.427090644836426px) rotate(-110deg) translate(-38.93084716796875px, -14.427090644836426px);}73.33%{-webkit-transform: translate(38.93084716796875px, 14.427090644836426px) rotate(-113deg) translate(-38.93084716796875px, -14.427090644836426px);transform: translate(38.93084716796875px, 14.427090644836426px) rotate(-113deg) translate(-38.93084716796875px, -14.427090644836426px);}80%{-webkit-transform: translate(38.93084716796875px, 14.427090644836426px) rotate(-120deg) translate(-38.93084716796875px, -14.427090644836426px);transform: translate(38.93084716796875px, 14.427090644836426px) rotate(-120deg) translate(-38.93084716796875px, -14.427090644836426px);}88.89%{-webkit-transform: translate(38.93084716796875px, 14.427090644836426px) rotate(-140deg) translate(-38.93084716796875px, -14.427090644836426px);transform: translate(38.93084716796875px, 14.427090644836426px) rotate(-140deg) translate(-38.93084716796875px, -14.427090644836426px);}98.89%{-webkit-transform: translate(38.93084716796875px, 14.427090644836426px) rotate(-200deg) translate(-38.93084716796875px, -14.427090644836426px);transform: translate(38.93084716796875px, 14.427090644836426px) rotate(-200deg) translate(-38.93084716796875px, -14.427090644836426px);}0%{-webkit-transform: translate(38.93084716796875px, 14.427090644836426px) rotate(0deg) translate(-38.93084716796875px, -14.427090644836426px);transform: translate(38.93084716796875px, 14.427090644836426px) rotate(0deg) translate(-38.93084716796875px, -14.427090644836426px);}100%{-webkit-transform: translate(38.93084716796875px, 14.427090644836426px) rotate(-200deg) translate(-38.93084716796875px, -14.427090644836426px);transform: translate(38.93084716796875px, 14.427090644836426px) rotate(-200deg) translate(-38.93084716796875px, -14.427090644836426px);}}@keyframes kf_el_GeecgzBFaLs_an_X_3HoxWDK{16.67%{-webkit-transform: translate(38.93084716796875px, 14.427090644836426px) rotate(0deg) translate(-38.93084716796875px, -14.427090644836426px);transform: translate(38.93084716796875px, 14.427090644836426px) rotate(0deg) translate(-38.93084716796875px, -14.427090644836426px);}30%{-webkit-transform: translate(38.93084716796875px, 14.427090644836426px) rotate(-20deg) translate(-38.93084716796875px, -14.427090644836426px);transform: translate(38.93084716796875px, 14.427090644836426px) rotate(-20deg) translate(-38.93084716796875px, -14.427090644836426px);}34.44%{-webkit-transform: translate(38.93084716796875px, 14.427090644836426px) rotate(-50deg) translate(-38.93084716796875px, -14.427090644836426px);transform: translate(38.93084716796875px, 14.427090644836426px) rotate(-50deg) translate(-38.93084716796875px, -14.427090644836426px);}41.11%{-webkit-transform: translate(38.93084716796875px, 14.427090644836426px) rotate(-70deg) translate(-38.93084716796875px, -14.427090644836426px);transform: translate(38.93084716796875px, 14.427090644836426px) rotate(-70deg) translate(-38.93084716796875px, -14.427090644836426px);}47.78%{-webkit-transform: translate(38.93084716796875px, 14.427090644836426px) rotate(-90deg) translate(-38.93084716796875px, -14.427090644836426px);transform: translate(38.93084716796875px, 14.427090644836426px) rotate(-90deg) translate(-38.93084716796875px, -14.427090644836426px);}56.67%{-webkit-transform: translate(38.93084716796875px, 14.427090644836426px) rotate(-100deg) translate(-38.93084716796875px, -14.427090644836426px);transform: translate(38.93084716796875px, 14.427090644836426px) rotate(-100deg) translate(-38.93084716796875px, -14.427090644836426px);}63.33%{-webkit-transform: translate(38.93084716796875px, 14.427090644836426px) rotate(-110deg) translate(-38.93084716796875px, -14.427090644836426px);transform: translate(38.93084716796875px, 14.427090644836426px) rotate(-110deg) translate(-38.93084716796875px, -14.427090644836426px);}73.33%{-webkit-transform: translate(38.93084716796875px, 14.427090644836426px) rotate(-113deg) translate(-38.93084716796875px, -14.427090644836426px);transform: translate(38.93084716796875px, 14.427090644836426px) rotate(-113deg) translate(-38.93084716796875px, -14.427090644836426px);}80%{-webkit-transform: translate(38.93084716796875px, 14.427090644836426px) rotate(-120deg) translate(-38.93084716796875px, -14.427090644836426px);transform: translate(38.93084716796875px, 14.427090644836426px) rotate(-120deg) translate(-38.93084716796875px, -14.427090644836426px);}88.89%{-webkit-transform: translate(38.93084716796875px, 14.427090644836426px) rotate(-140deg) translate(-38.93084716796875px, -14.427090644836426px);transform: translate(38.93084716796875px, 14.427090644836426px) rotate(-140deg) translate(-38.93084716796875px, -14.427090644836426px);}98.89%{-webkit-transform: translate(38.93084716796875px, 14.427090644836426px) rotate(-200deg) translate(-38.93084716796875px, -14.427090644836426px);transform: translate(38.93084716796875px, 14.427090644836426px) rotate(-200deg) translate(-38.93084716796875px, -14.427090644836426px);}0%{-webkit-transform: translate(38.93084716796875px, 14.427090644836426px) rotate(0deg) translate(-38.93084716796875px, -14.427090644836426px);transform: translate(38.93084716796875px, 14.427090644836426px) rotate(0deg) translate(-38.93084716796875px, -14.427090644836426px);}100%{-webkit-transform: translate(38.93084716796875px, 14.427090644836426px) rotate(-200deg) translate(-38.93084716796875px, -14.427090644836426px);transform: translate(38.93084716796875px, 14.427090644836426px) rotate(-200deg) translate(-38.93084716796875px, -14.427090644836426px);}}@-webkit-keyframes kf_el_P6Dl-9AzD2_an_Nl-meqsR_{0%{-webkit-transform: translate(123.8419189453125px, 204.80003356933594px) translate(-123.8419189453125px, -204.80003356933594px) translate(450px, 0px);transform: translate(123.8419189453125px, 204.80003356933594px) translate(-123.8419189453125px, -204.80003356933594px) translate(450px, 0px);}12.22%{-webkit-transform: translate(123.8419189453125px, 204.80003356933594px) translate(-123.8419189453125px, -204.80003356933594px) translate(0px, 0px);transform: translate(123.8419189453125px, 204.80003356933594px) translate(-123.8419189453125px, -204.80003356933594px) translate(0px, 0px);}16.67%{-webkit-transform: translate(123.8419189453125px, 204.80003356933594px) translate(-123.8419189453125px, -204.80003356933594px) translate(0px, 0px);transform: translate(123.8419189453125px, 204.80003356933594px) translate(-123.8419189453125px, -204.80003356933594px) translate(0px, 0px);}100%{-webkit-transform: translate(123.8419189453125px, 204.80003356933594px) translate(-123.8419189453125px, -204.80003356933594px) translate(0px, 0px);transform: translate(123.8419189453125px, 204.80003356933594px) translate(-123.8419189453125px, -204.80003356933594px) translate(0px, 0px);}}@keyframes kf_el_P6Dl-9AzD2_an_Nl-meqsR_{0%{-webkit-transform: translate(123.8419189453125px, 204.80003356933594px) translate(-123.8419189453125px, -204.80003356933594px) translate(450px, 0px);transform: translate(123.8419189453125px, 204.80003356933594px) translate(-123.8419189453125px, -204.80003356933594px) translate(450px, 0px);}12.22%{-webkit-transform: translate(123.8419189453125px, 204.80003356933594px) translate(-123.8419189453125px, -204.80003356933594px) translate(0px, 0px);transform: translate(123.8419189453125px, 204.80003356933594px) translate(-123.8419189453125px, -204.80003356933594px) translate(0px, 0px);}16.67%{-webkit-transform: translate(123.8419189453125px, 204.80003356933594px) translate(-123.8419189453125px, -204.80003356933594px) translate(0px, 0px);transform: translate(123.8419189453125px, 204.80003356933594px) translate(-123.8419189453125px, -204.80003356933594px) translate(0px, 0px);}100%{-webkit-transform: translate(123.8419189453125px, 204.80003356933594px) translate(-123.8419189453125px, -204.80003356933594px) translate(0px, 0px);transform: translate(123.8419189453125px, 204.80003356933594px) translate(-123.8419189453125px, -204.80003356933594px) translate(0px, 0px);}}@-webkit-keyframes kf_el_0p4gdPYcu6V_an_k7kpcStJq{0%{-webkit-transform: translate(121.48887634277344px, 83.81236267089844px) translate(-121.48887634277344px, -83.81236267089844px) translate(450px, 0px);transform: translate(121.48887634277344px, 83.81236267089844px) translate(-121.48887634277344px, -83.81236267089844px) translate(450px, 0px);}12.22%{-webkit-transform: translate(121.48887634277344px, 83.81236267089844px) translate(-121.48887634277344px, -83.81236267089844px) translate(0px, 0px);transform: translate(121.48887634277344px, 83.81236267089844px) translate(-121.48887634277344px, -83.81236267089844px) translate(0px, 0px);}16.67%{-webkit-transform: translate(121.48887634277344px, 83.81236267089844px) translate(-121.48887634277344px, -83.81236267089844px) translate(0px, 0px);transform: translate(121.48887634277344px, 83.81236267089844px) translate(-121.48887634277344px, -83.81236267089844px) translate(0px, 0px);}100%{-webkit-transform: translate(121.48887634277344px, 83.81236267089844px) translate(-121.48887634277344px, -83.81236267089844px) translate(0px, 0px);transform: translate(121.48887634277344px, 83.81236267089844px) translate(-121.48887634277344px, -83.81236267089844px) translate(0px, 0px);}}@keyframes kf_el_0p4gdPYcu6V_an_k7kpcStJq{0%{-webkit-transform: translate(121.48887634277344px, 83.81236267089844px) translate(-121.48887634277344px, -83.81236267089844px) translate(450px, 0px);transform: translate(121.48887634277344px, 83.81236267089844px) translate(-121.48887634277344px, -83.81236267089844px) translate(450px, 0px);}12.22%{-webkit-transform: translate(121.48887634277344px, 83.81236267089844px) translate(-121.48887634277344px, -83.81236267089844px) translate(0px, 0px);transform: translate(121.48887634277344px, 83.81236267089844px) translate(-121.48887634277344px, -83.81236267089844px) translate(0px, 0px);}16.67%{-webkit-transform: translate(121.48887634277344px, 83.81236267089844px) translate(-121.48887634277344px, -83.81236267089844px) translate(0px, 0px);transform: translate(121.48887634277344px, 83.81236267089844px) translate(-121.48887634277344px, -83.81236267089844px) translate(0px, 0px);}100%{-webkit-transform: translate(121.48887634277344px, 83.81236267089844px) translate(-121.48887634277344px, -83.81236267089844px) translate(0px, 0px);transform: translate(121.48887634277344px, 83.81236267089844px) translate(-121.48887634277344px, -83.81236267089844px) translate(0px, 0px);}}@-webkit-keyframes kf_el_GeecgzBFaLs_an_Ovr0lo5nu{0%{-webkit-transform: translate(38.93084716796875px, 14.427090644836426px) translate(-38.93084716796875px, -14.427090644836426px) translate(-200px, 0px);transform: translate(38.93084716796875px, 14.427090644836426px) translate(-38.93084716796875px, -14.427090644836426px) translate(-200px, 0px);}12.22%{-webkit-transform: translate(38.93084716796875px, 14.427090644836426px) translate(-38.93084716796875px, -14.427090644836426px) translate(0px, 0px);transform: translate(38.93084716796875px, 14.427090644836426px) translate(-38.93084716796875px, -14.427090644836426px) translate(0px, 0px);}16.67%{-webkit-transform: translate(38.93084716796875px, 14.427090644836426px) translate(-38.93084716796875px, -14.427090644836426px) translate(0px, 0px);transform: translate(38.93084716796875px, 14.427090644836426px) translate(-38.93084716796875px, -14.427090644836426px) translate(0px, 0px);}30%{-webkit-transform: translate(38.93084716796875px, 14.427090644836426px) translate(-38.93084716796875px, -14.427090644836426px) translate(0px, 50px);transform: translate(38.93084716796875px, 14.427090644836426px) translate(-38.93084716796875px, -14.427090644836426px) translate(0px, 50px);}34.44%{-webkit-transform: translate(38.93084716796875px, 14.427090644836426px) translate(-38.93084716796875px, -14.427090644836426px) translate(-60px, 100px);transform: translate(38.93084716796875px, 14.427090644836426px) translate(-38.93084716796875px, -14.427090644836426px) translate(-60px, 100px);}41.11%{-webkit-transform: translate(38.93084716796875px, 14.427090644836426px) translate(-38.93084716796875px, -14.427090644836426px) translate(-60px, 200px);transform: translate(38.93084716796875px, 14.427090644836426px) translate(-38.93084716796875px, -14.427090644836426px) translate(-60px, 200px);}44.44%{-webkit-transform: translate(38.93084716796875px, 14.427090644836426px) translate(-38.93084716796875px, -14.427090644836426px) translate(-60px, 230px);transform: translate(38.93084716796875px, 14.427090644836426px) translate(-38.93084716796875px, -14.427090644836426px) translate(-60px, 230px);}47.78%{-webkit-transform: translate(38.93084716796875px, 14.427090644836426px) translate(-38.93084716796875px, -14.427090644836426px) translate(-60px, 260px);transform: translate(38.93084716796875px, 14.427090644836426px) translate(-38.93084716796875px, -14.427090644836426px) translate(-60px, 260px);}56.67%{-webkit-transform: translate(38.93084716796875px, 14.427090644836426px) translate(-38.93084716796875px, -14.427090644836426px) translate(-60px, 300px);transform: translate(38.93084716796875px, 14.427090644836426px) translate(-38.93084716796875px, -14.427090644836426px) translate(-60px, 300px);}63.33%{-webkit-transform: translate(38.93084716796875px, 14.427090644836426px) translate(-38.93084716796875px, -14.427090644836426px) translate(70px, 330px);transform: translate(38.93084716796875px, 14.427090644836426px) translate(-38.93084716796875px, -14.427090644836426px) translate(70px, 330px);}73.33%{-webkit-transform: translate(38.93084716796875px, 14.427090644836426px) translate(-38.93084716796875px, -14.427090644836426px) translate(150px, 330px);transform: translate(38.93084716796875px, 14.427090644836426px) translate(-38.93084716796875px, -14.427090644836426px) translate(150px, 330px);}80%{-webkit-transform: translate(38.93084716796875px, 14.427090644836426px) translate(-38.93084716796875px, -14.427090644836426px) translate(150px, 380px);transform: translate(38.93084716796875px, 14.427090644836426px) translate(-38.93084716796875px, -14.427090644836426px) translate(150px, 380px);}88.89%{-webkit-transform: translate(38.93084716796875px, 14.427090644836426px) translate(-38.93084716796875px, -14.427090644836426px) translate(320px, 400px);transform: translate(38.93084716796875px, 14.427090644836426px) translate(-38.93084716796875px, -14.427090644836426px) translate(320px, 400px);}98.89%{-webkit-transform: translate(38.93084716796875px, 14.427090644836426px) translate(-38.93084716796875px, -14.427090644836426px) translate(580px, 400px);transform: translate(38.93084716796875px, 14.427090644836426px) translate(-38.93084716796875px, -14.427090644836426px) translate(580px, 400px);}100%{-webkit-transform: translate(38.93084716796875px, 14.427090644836426px) translate(-38.93084716796875px, -14.427090644836426px) translate(580px, 400px);transform: translate(38.93084716796875px, 14.427090644836426px) translate(-38.93084716796875px, -14.427090644836426px) translate(580px, 400px);}}@keyframes kf_el_GeecgzBFaLs_an_Ovr0lo5nu{0%{-webkit-transform: translate(38.93084716796875px, 14.427090644836426px) translate(-38.93084716796875px, -14.427090644836426px) translate(-200px, 0px);transform: translate(38.93084716796875px, 14.427090644836426px) translate(-38.93084716796875px, -14.427090644836426px) translate(-200px, 0px);}12.22%{-webkit-transform: translate(38.93084716796875px, 14.427090644836426px) translate(-38.93084716796875px, -14.427090644836426px) translate(0px, 0px);transform: translate(38.93084716796875px, 14.427090644836426px) translate(-38.93084716796875px, -14.427090644836426px) translate(0px, 0px);}16.67%{-webkit-transform: translate(38.93084716796875px, 14.427090644836426px) translate(-38.93084716796875px, -14.427090644836426px) translate(0px, 0px);transform: translate(38.93084716796875px, 14.427090644836426px) translate(-38.93084716796875px, -14.427090644836426px) translate(0px, 0px);}30%{-webkit-transform: translate(38.93084716796875px, 14.427090644836426px) translate(-38.93084716796875px, -14.427090644836426px) translate(0px, 50px);transform: translate(38.93084716796875px, 14.427090644836426px) translate(-38.93084716796875px, -14.427090644836426px) translate(0px, 50px);}34.44%{-webkit-transform: translate(38.93084716796875px, 14.427090644836426px) translate(-38.93084716796875px, -14.427090644836426px) translate(-60px, 100px);transform: translate(38.93084716796875px, 14.427090644836426px) translate(-38.93084716796875px, -14.427090644836426px) translate(-60px, 100px);}41.11%{-webkit-transform: translate(38.93084716796875px, 14.427090644836426px) translate(-38.93084716796875px, -14.427090644836426px) translate(-60px, 200px);transform: translate(38.93084716796875px, 14.427090644836426px) translate(-38.93084716796875px, -14.427090644836426px) translate(-60px, 200px);}44.44%{-webkit-transform: translate(38.93084716796875px, 14.427090644836426px) translate(-38.93084716796875px, -14.427090644836426px) translate(-60px, 230px);transform: translate(38.93084716796875px, 14.427090644836426px) translate(-38.93084716796875px, -14.427090644836426px) translate(-60px, 230px);}47.78%{-webkit-transform: translate(38.93084716796875px, 14.427090644836426px) translate(-38.93084716796875px, -14.427090644836426px) translate(-60px, 260px);transform: translate(38.93084716796875px, 14.427090644836426px) translate(-38.93084716796875px, -14.427090644836426px) translate(-60px, 260px);}56.67%{-webkit-transform: translate(38.93084716796875px, 14.427090644836426px) translate(-38.93084716796875px, -14.427090644836426px) translate(-60px, 300px);transform: translate(38.93084716796875px, 14.427090644836426px) translate(-38.93084716796875px, -14.427090644836426px) translate(-60px, 300px);}63.33%{-webkit-transform: translate(38.93084716796875px, 14.427090644836426px) translate(-38.93084716796875px, -14.427090644836426px) translate(70px, 330px);transform: translate(38.93084716796875px, 14.427090644836426px) translate(-38.93084716796875px, -14.427090644836426px) translate(70px, 330px);}73.33%{-webkit-transform: translate(38.93084716796875px, 14.427090644836426px) translate(-38.93084716796875px, -14.427090644836426px) translate(150px, 330px);transform: translate(38.93084716796875px, 14.427090644836426px) translate(-38.93084716796875px, -14.427090644836426px) translate(150px, 330px);}80%{-webkit-transform: translate(38.93084716796875px, 14.427090644836426px) translate(-38.93084716796875px, -14.427090644836426px) translate(150px, 380px);transform: translate(38.93084716796875px, 14.427090644836426px) translate(-38.93084716796875px, -14.427090644836426px) translate(150px, 380px);}88.89%{-webkit-transform: translate(38.93084716796875px, 14.427090644836426px) translate(-38.93084716796875px, -14.427090644836426px) translate(320px, 400px);transform: translate(38.93084716796875px, 14.427090644836426px) translate(-38.93084716796875px, -14.427090644836426px) translate(320px, 400px);}98.89%{-webkit-transform: translate(38.93084716796875px, 14.427090644836426px) translate(-38.93084716796875px, -14.427090644836426px) translate(580px, 400px);transform: translate(38.93084716796875px, 14.427090644836426px) translate(-38.93084716796875px, -14.427090644836426px) translate(580px, 400px);}100%{-webkit-transform: translate(38.93084716796875px, 14.427090644836426px) translate(-38.93084716796875px, -14.427090644836426px) translate(580px, 400px);transform: translate(38.93084716796875px, 14.427090644836426px) translate(-38.93084716796875px, -14.427090644836426px) translate(580px, 400px);}}#el_oDZ4mP2GPM *{-webkit-animation-duration: 3s;animation-duration: 3s;-webkit-animation-iteration-count: infinite;animation-iteration-count: infinite;-webkit-animation-timing-function: cubic-bezier(0, 0, 1, 1);animation-timing-function: cubic-bezier(0, 0, 1, 1);}#el_g0zEXcR3tC{fill: #1F2D0A;}#el_kxC9NsB8ic{fill: #1F2D0A;}#el_vM27q54CYW{fill: #1F2D0A;}#el_iTBIqHDhyz{fill: #1F2D0A;}#el_4vrFhYt6s1{fill: #1F2D0A;}#el_K7QPSlrZwK{fill: #1F2D0A;}#el_gwQsXWXy0E{fill: #182221;}#el_ZkK4k42fqc{fill: #182221;}#el_-8gejr5VxA{fill: #182221;}#el_ezBXCOnxV7{fill: #182221;}#el_ABoCzxWkzy6{fill: #1F2D0A;}#el_nqC2TKwadpA{fill: #20310D;}#el_CUCPEkkUpEu{fill: #182221;}#el_-TDYuiJe_yQ{fill: #1F2D0A;}#el_1YrElk5NHlr{fill: #1F2D0A;}#el_IufphRkJ8Th{fill: #1F2D0A;}#el_9rW5--TWbkY{fill: #1F2D0A;}#el_9UAymzzaAIt{fill: #1F2D0A;}#el_JvkNNV8Gv55{fill: #1F2D0A;}#el_qQO7u0qiYrC{fill: #1F2D0A;}#el_xBXOL-JOJwC{fill: #182221;}#el_xchHXSOv30I{fill: #1F2D0A;}#el_dATYqx7_HHk{fill: #1F2D0A;}#el_Wyr1rWxQXeY{fill: #1F2D0A;}#el_6mbuCy5r8SX{fill: #1F2D0A;}#el_R3sMa2drFKo{fill: #1F2D0A;}#el_FDReq1QRzba{fill: #1F2D0A;}#el_zrzp2xuHPtK{fill: #1F2D0A;}#el_oZjUdb8QWJg{fill: #182221;}#el_w8bXiy-CK7b{fill: #182221;}#el_giDMXWcfxlU{fill: #182221;}#el_xLBD4r_IHSV{fill: #182221;}#el_A1AqFsfKTS4{fill: #182221;}#el_L6m4GM9m-DN{fill: #182221;}#el_eBfN21KJiCz{fill: #182221;}#el_ImzvgiCNqlr{fill: #182221;}#el_xyULZKyafqc{fill: #182221;}#el_6nubF3cPqCB{fill: #182221;}#el_hXWcYGSGKw6{fill: #182221;}#el_-Bt2qw5NB8z{fill: #182221;}#el_lvIfsPIbtnK{fill: #D18A4A;}#el_P76P4Dhx8l2{fill: #050503;-webkit-transform: matrix(0.2466, -0.9691, 0.9691, 0.2466, -109.6321, 203.6172);transform: matrix(0.2466, -0.9691, 0.9691, 0.2466, -109.6321, 203.6172);}#el_7SM5TQ532jp{fill: none;stroke: #8D171D;stroke-width: 0.4548;stroke-miterlimit: 10;}#el_wVSxt4RMgPG{fill: #F0F0F0;}#el_q4chveMUIQy{fill: #E4E4E4;}#el_MphFoMsgHGd{fill: #182221;}#el_9wZg7KWpfrU{fill: #182221;}#el_PFgIEgTXdw-{fill: none;stroke: #F0F0F0;stroke-miterlimit: 10;}#el_do9u4r3bIsP{fill: #182221;}#el_CpkpC-nJE4U{fill: none;stroke: #F0F0F0;stroke-miterlimit: 10;}#el_l2jRWW8K8i9{fill: none;stroke: #152300;stroke-miterlimit: 10;}#el_8euta9I7kfL{fill: #231616;}#el_N99lE1g33mv{fill: none;stroke: #152300;stroke-miterlimit: 10;}#el_xou9J7t-fpl{fill: none;stroke: #152300;stroke-miterlimit: 10;}#el_cnVVKW8Sm43{fill: none;stroke: #152300;stroke-miterlimit: 10;}#el_830Nv9-tmNR{fill: #20310D;}#el_jNr5IxNLttG{fill: #1F2D0A;}#el_LJ5Ut0Y-9nH{fill: #1F2D0A;}#el_lRnJYGQx4cx{fill: #1F2D0A;}#el_fJvhPjhoR9O{fill: #1F2D0A;}#el_wWNMg8HLThk{fill: #1F2D0A;}#el_PocKhvqvD6D{fill: #1F2D0A;}#el_79oURIRth-x{fill: #1F2D0A;}#el_wn-Du4qAHaB{fill: #1F2D0A;}#el_T1WrlLaBZDY{fill: #1F2D0A;}#el__yHtqdVtquj{fill: #1F2D0A;}#el_GF7boNRsvxH{fill: #1F2D0A;}#el_4I1sBDVjawu{fill: #1F2D0A;}#el_eusaFUQ-dcA{fill: #1F2D0A;}#el_bfilCm0EPuZ{fill: #1F2D0A;}#el_awg-HjjfcYV{fill: #1F2D0A;}#el_5OlBYBIy-8K{fill: #1F2D0A;}#el_xeMUNkZ-crK{fill: #1F2D0A;}#el_p262cF0G7i7{fill: #1F2D0A;}#el_4h0SF2urrqx{fill: #1F2D0A;}#el_02kXrzpOXiA{fill: #1F2D0A;}#el_-0dUDBemzW3{fill: #1F2D0A;}#el_hrULX_UDXMy{fill: #1F2D0A;}#el_hMo6BUxHVIE{fill: #182221;}#el_wkjZ78kyF_i{fill: #182221;}#el_gEqk_BAs70S{fill: #182221;}#el_goc4oSf8VNC{fill: #182221;}#el_aaVI9E_3x8C{fill: #182221;}#el_xAn7Pya6xcu{fill: #182221;}#el_97tTd2z4_Vy{fill: #182221;}#el_Em33Kd6yWW7{fill: #182221;}#el_QlIgRJOgrK7{fill: #182221;}#el_2IcMW6DxlCZ{fill: #182221;}#el_JG13-CHCERy{fill: #182221;}#el_V8396w9VSaK{fill: #182221;}#el_DXiKupJIK_T{fill: #182221;}#el_DVtVCp0OTOs{fill: #182221;}#el_9NgriRz8MAg{fill: #182221;}#el_iltiblhuuuE{fill: #182221;}#el_2ZR1YeY0189{fill: #182221;}#el_CdEIbq1PAdP{fill: #182221;}#el_DpshvDnlrPz{fill: #182221;}#el_WtgMKzvq8n0{fill: #182221;}#el_b-H_gdnQN3R{fill: #182221;}#el_TvuLvrq1HbH{fill: #182221;}#el_mwl8tVRHMQc{fill: #182221;}#el_YM1Adgqz0_G{fill: #182221;}#el_pZ2pvU7DYj0{fill: #20310D;}#el_GeecgzBFaLs_an_Ovr0lo5nu{-webkit-animation-fill-mode: backwards;animation-fill-mode: backwards;-webkit-transform: translate(38.93084716796875px, 14.427090644836426px) translate(-38.93084716796875px, -14.427090644836426px) translate(-200px, 0px);transform: translate(38.93084716796875px, 14.427090644836426px) translate(-38.93084716796875px, -14.427090644836426px) translate(-200px, 0px);-webkit-animation-name: kf_el_GeecgzBFaLs_an_Ovr0lo5nu;animation-name: kf_el_GeecgzBFaLs_an_Ovr0lo5nu;-webkit-animation-timing-function: cubic-bezier(0, 0, 1, 1);animation-timing-function: cubic-bezier(0, 0, 1, 1);}#el_0p4gdPYcu6V_an_k7kpcStJq{-webkit-animation-fill-mode: backwards;animation-fill-mode: backwards;-webkit-transform: translate(121.48887634277344px, 83.81236267089844px) translate(-121.48887634277344px, -83.81236267089844px) translate(450px, 0px);transform: translate(121.48887634277344px, 83.81236267089844px) translate(-121.48887634277344px, -83.81236267089844px) translate(450px, 0px);-webkit-animation-name: kf_el_0p4gdPYcu6V_an_k7kpcStJq;animation-name: kf_el_0p4gdPYcu6V_an_k7kpcStJq;-webkit-animation-timing-function: cubic-bezier(0, 0, 1, 1);animation-timing-function: cubic-bezier(0, 0, 1, 1);}#el_P6Dl-9AzD2_an_Nl-meqsR_{-webkit-animation-fill-mode: backwards;animation-fill-mode: backwards;-webkit-transform: translate(123.8419189453125px, 204.80003356933594px) translate(-123.8419189453125px, -204.80003356933594px) translate(450px, 0px);transform: translate(123.8419189453125px, 204.80003356933594px) translate(-123.8419189453125px, -204.80003356933594px) translate(450px, 0px);-webkit-animation-name: kf_el_P6Dl-9AzD2_an_Nl-meqsR_;animation-name: kf_el_P6Dl-9AzD2_an_Nl-meqsR_;-webkit-animation-timing-function: cubic-bezier(0, 0, 1, 1);animation-timing-function: cubic-bezier(0, 0, 1, 1);}#el_GeecgzBFaLs_an_X_3HoxWDK{-webkit-animation-fill-mode: backwards;animation-fill-mode: backwards;-webkit-transform: translate(38.93084716796875px, 14.427090644836426px) rotate(0deg) translate(-38.93084716796875px, -14.427090644836426px);transform: translate(38.93084716796875px, 14.427090644836426px) rotate(0deg) translate(-38.93084716796875px, -14.427090644836426px);-webkit-animation-name: kf_el_GeecgzBFaLs_an_X_3HoxWDK;animation-name: kf_el_GeecgzBFaLs_an_X_3HoxWDK;-webkit-animation-timing-function: cubic-bezier(0, 0, 1, 1);animation-timing-function: cubic-bezier(0, 0, 1, 1);}</style>

<g id="el_P6Dl-9AzD2_an_Nl-meqsR_" data-animator-group="true" data-animator-type="0"><g id="el_P6Dl-9AzD2">
	<g id="el_k2skiNU8Hf">
		<path d="M402.7,237.6c-2,3-4,3-10,7c-6,4-8,8-10,8c-2,0-9,1-3-4c6-5,7-5,9-8c2-3,0-1,5-3&#10;&#9;&#9;&#9;C398.7,235.6,402.7,237.6,402.7,237.6z" id="el_g0zEXcR3tC"/>
		<path d="M506.1,247.1c-0.3,0.8-0.5,1.7-0.8,2.5c-2.3-0.1-4.4-1.2-9.9-2.3c-7.1-1.4-11.3,0-12.8-1.4&#10;&#9;&#9;&#9;c-1.4-1.4-7.1-5.7,0.7-5c7.8,0.7,8.5,1.4,12,0.7c3.5-0.7,0.7-0.7,5.7,1.4C503.5,244.1,505.1,245.7,506.1,247.1z" id="el_kxC9NsB8ic"/>
		<g id="el_9ayN5M1ANU">
			<path d="M189.5,289c-7.7-1.3-8.4-2-12-1.6c-3.6,0.4-0.8,0.6-5.6-1.8c-4.8-2.5-5.9-6.8-5.9-6.8&#10;&#9;&#9;&#9;&#9;c3.6-0.4,4.9,1.1,11.9,3s11.3,0.8,12.6,2.4C191.9,285.6,197.2,290.3,189.5,289z" id="el_vM27q54CYW"/>
			<path d="M220.7,305c-7.7-1.3-8.4-2-12-1.6c-3.6,0.4-0.8,0.6-5.6-1.8c-4.8-2.5-5.9-6.8-5.9-6.8&#10;&#9;&#9;&#9;&#9;c3.6-0.4,4.9,1.1,11.9,3c7,1.9,11.3,0.8,12.6,2.4C223.1,301.6,228.4,306.3,220.7,305z" id="el_iTBIqHDhyz"/>
			<path d="M256.4,303.3c-3-2-3-4-7-10s-8-8-8-10s-1-9,4-3s5,7,8,9c3,2,1,0,3,5C258.4,299.3,256.4,303.3,256.4,303.3z" id="el_4vrFhYt6s1"/>
			<path d="M260,310.6c-2,3-4,3-10.1,7s-8,8-10.1,8s-9.1,1-3-4s7-5,9.1-8s0-1,5-3S260,310.6,260,310.6z" id="el_K7QPSlrZwK"/>
			<path d="M260,310.6c-2,3-4,3-10.1,7s-8,8-10.1,8s-9.1,1-3-4s7-5,9.1-8s0-1,5-3S260,310.6,260,310.6z" id="el_gwQsXWXy0E"/>
			<path d="M235.8,267.6c-2,3-4,3-10.1,7c-6,4-8,8-10.1,8s-9.1,1-3-4s7-5,9.1-8s0-1,5-3&#10;&#9;&#9;&#9;&#9;C231.8,265.6,235.8,267.6,235.8,267.6z" id="el_ZkK4k42fqc"/>
			<path d="M189.5,289c-7.7-1.3-8.4-2-12-1.6c-3.6,0.4-0.8,0.6-5.6-1.8c-4.8-2.5-5.9-6.8-5.9-6.8&#10;&#9;&#9;&#9;&#9;c3.6-0.4,4.9,1.1,11.9,3s11.3,0.8,12.6,2.4C191.9,285.6,197.2,290.3,189.5,289z" id="el_-8gejr5VxA"/>
			<path d="M220.7,305c-7.7-1.3-8.4-2-12-1.6c-3.6,0.4-0.8,0.6-5.6-1.8c-4.8-2.5-5.9-6.8-5.9-6.8&#10;&#9;&#9;&#9;&#9;c3.6-0.4,4.9,1.1,11.9,3c7,1.9,11.3,0.8,12.6,2.4C223.1,301.6,228.4,306.3,220.7,305z" id="el_ezBXCOnxV7"/>
			<g id="el_3-8spibSoSn">
				<path d="M355.8,293.5c-3.1-0.6-5.8-0.7-7.8-0.7l12.1,1.7C359,294.2,357.6,293.8,355.8,293.5z M283.2,256.5&#10;&#9;&#9;&#9;&#9;&#9;c-1.8-0.8-5.3,2-12.4,3.3c-7.1,1.2-9,0.4-12,2.4c0,0,2.8,3.5,8.2,3.6c5.4,0.2,2.7,1.2,5.8-0.7c3-1.9,4-1.5,11.4-3.7&#10;&#9;&#9;&#9;&#9;&#9;c0,0,0.1,0,0.1,0c3.4-1,3.9-1.9,3.2-2.7C286.6,257.7,284.2,256.9,283.2,256.5z M226.8,267.6c-5,2-3,0-5,3s-3,3-9.1,8s1,4,3,4&#10;&#9;&#9;&#9;&#9;&#9;s4-4,10.1-8c6-4,8-4,10.1-7C235.8,267.6,231.8,265.6,226.8,267.6z M187.4,262.1c-5.4-0.6-2.7-1.4-5.9,0.3&#10;&#9;&#9;&#9;&#9;&#9;c-3.2,1.7-4.1,1.2-11.8,2.8c-7.7,1.6-1,4,0.8,4.9c1.8,0.9,5.4-1.7,12.7-2.4c7.2-0.7,9,0.2,12.2-1.5&#10;&#9;&#9;&#9;&#9;&#9;C195.4,266.3,192.8,262.7,187.4,262.1z" id="el_ABoCzxWkzy6"/>
				<path d="M453.8,219.3c-74.7,16.1-208.4,37.9-324.3,19.8c0,0-0.1,0-0.1,0.1c0,0,0,0-0.1,0c-0.1,0.1-0.2,0.1-0.2,0.1&#10;&#9;&#9;&#9;&#9;&#9;c-0.1,0-0.1,0.1-0.2,0.1c0,0,0,0,0,0c0,0-0.1,0-0.1,0c-0.1,0-0.1,0-0.1,0s-0.3-0.2-0.8-0.5c-0.1-0.1-0.2-0.1-0.3-0.2&#10;&#9;&#9;&#9;&#9;&#9;c-0.2-0.1-0.5-0.3-0.8-0.5c-0.4-0.3-0.8-0.5-1.3-0.9c-0.2-0.1-0.3-0.2-0.5-0.4c-0.1,0.4-0.5,1.8-0.8,3.9&#10;&#9;&#9;&#9;&#9;&#9;c-1.7,14.8,4.2,66.8,160.8,99.9c20.4,4.3,39.2,6.4,56.5,6.8c4-0.2,7.9-0.5,11.9-0.8c0.3,0,0.6-0.1,1-0.1&#10;&#9;&#9;&#9;&#9;&#9;c82.1-6.6,133.4-46.8,150.8-97.3c-2.3-0.1-4.4-1.2-9.9-2.3c-7.1-1.4-11.3,0-12.8-1.4c-1.4-1.4-7.1-5.7,0.7-5&#10;&#9;&#9;&#9;&#9;&#9;c7.8,0.7,8.5,1.4,12,0.7c3.5-0.7,0.7-0.7,5.7,1.4c2.5,1.1,4.1,2.7,5.1,4c0.9-2.7,1.6-5.4,2.3-8.2c2.6-10.6,3.8-21.6,3.5-32.8&#10;&#9;&#9;&#9;&#9;&#9;c0-0.3,0-0.6,0-0.9c-2.8,0.8-22.1,6.2-52.2,12.9 M404.2,289.3c2,5,0,9,0,9c-3-2-3-4-7-10s-8-8-8-10s-1-9,4-3s5,7,8,9&#10;&#9;&#9;&#9;&#9;&#9;S402.2,284.3,404.2,289.3z M379.7,248.6c6-5,7-5,9-8c2-3,0-1,5-3c5-2,9,0,9,0c-2,3-4,3-10,7c-6,4-8,8-10,8&#10;&#9;&#9;&#9;&#9;&#9;C380.7,252.6,373.7,253.6,379.7,248.6z M343,256.6c5,6,5,7,8,9s1,0,3,5s0,9,0,9c-3-2-3-4-7-10s-8-8-8-10S338,250.6,343,256.6z&#10;&#9;&#9;&#9;&#9;&#9; M334.8,301.3c3,2,1,0,3,5s0,9,0,9c-3-2-3-4-7-10s-8-8-8-10s-1-9,4-3S331.8,299.3,334.8,301.3z M320.9,260.4&#10;&#9;&#9;&#9;&#9;&#9;c1.4-7.1,0-11.3,1.4-12.7c1.4-1.4,5.7-7.1,5,0.7c-0.7,7.8-1.4,8.5-0.7,12c0.7,3.5,0.7,0.7-1.4,5.7c-2.1,5-6.4,6.4-6.4,6.4&#10;&#9;&#9;&#9;&#9;&#9;C318.1,268.9,319.5,267.5,320.9,260.4z M270.7,259.8c7.1-1.2,10.6-4.1,12.4-3.3c1,0.4,3.5,1.2,4.3,2.2c0.7,0.8,0.2,1.7-3.2,2.7&#10;&#9;&#9;&#9;&#9;&#9;c0,0-0.1,0-0.1,0c-7.4,2.1-8.3,1.7-11.4,3.7c-3.1,2-0.4,0.9-5.8,0.7c-5.4-0.2-8.2-3.6-8.2-3.6&#10;&#9;&#9;&#9;&#9;&#9;C261.8,260.2,263.6,261,270.7,259.8z M245.3,280.3c5,6,5,7,8,9c3,2,1,0,3,5c2,5,0,9,0,9c-3-2-3-4-7-10s-8-8-8-10&#10;&#9;&#9;&#9;&#9;&#9;S240.3,274.3,245.3,280.3z M154.6,247.7c0.4-0.2,1-0.1,3.7-1.2c5-2,9.1,0,9.1,0c-0.9,1.4-1.8,2.1-3.1,2.9&#10;&#9;&#9;&#9;&#9;&#9;C160.9,248.9,157.7,248.3,154.6,247.7z M189.5,289c-7.7-1.3-8.4-2-12-1.6c-3.6,0.4-0.8,0.6-5.6-1.8c-4.8-2.5-5.9-6.8-5.9-6.8&#10;&#9;&#9;&#9;&#9;&#9;c3.6-0.4,4.9,1.1,11.9,3s11.3,0.8,12.6,2.4C191.9,285.6,197.2,290.3,189.5,289z M183.2,267.8c-7.2,0.7-10.9,3.3-12.7,2.4&#10;&#9;&#9;&#9;&#9;&#9;c-1.8-0.9-8.5-3.3-0.8-4.9c7.7-1.6,8.6-1.1,11.8-2.8c3.2-1.7,0.5-0.9,5.9-0.3c5.4,0.6,8,4.2,8,4.2&#10;&#9;&#9;&#9;&#9;&#9;C192.2,268.1,190.5,267.1,183.2,267.8z M220.7,305c-7.7-1.3-8.4-2-12-1.6c-3.6,0.4-0.8,0.6-5.6-1.8c-4.8-2.5-5.9-6.8-5.9-6.8&#10;&#9;&#9;&#9;&#9;&#9;c3.6-0.4,4.9,1.1,11.9,3c7,1.9,11.3,0.8,12.6,2.4C223.1,301.6,228.4,306.3,220.7,305z M215.7,282.6c-2,0-9.1,1-3-4s7-5,9.1-8&#10;&#9;&#9;&#9;&#9;&#9;s0-1,5-3c5-2,9.1,0,9.1,0c-2,3-4,3-10.1,7C219.7,278.6,217.7,282.6,215.7,282.6z M249.9,317.6c-6,4-8,8-10.1,8s-9.1,1-3-4&#10;&#9;&#9;&#9;&#9;&#9;s7-5,9.1-8s0-1,5-3s9.1,0,9.1,0C258,313.6,255.9,313.6,249.9,317.6z M261.5,280.1c-1.4-1.4-7.1-5.7,0.7-5&#10;&#9;&#9;&#9;&#9;&#9;c7.8,0.7,8.5,1.4,12.1,0.7c3.6-0.7,0.7-0.7,5.7,1.4c5,2.1,6.4,6.4,6.4,6.4c-3.6,0.7-5-0.7-12.1-2.1&#10;&#9;&#9;&#9;&#9;&#9;C267.2,280.1,263,281.5,261.5,280.1z M298.1,323c-7.7-1.3-8.4-2-12-1.6c-3.6,0.4-0.8,0.6-5.6-1.8c-4.8-2.5-5.9-6.8-5.9-6.8&#10;&#9;&#9;&#9;&#9;&#9;c3.6-0.4,4.9,1.1,11.9,3c7,1.9,11.3,0.8,12.6,2.4C300.5,319.6,305.9,324.3,298.1,323z M304.1,277.9c-7.1-1.4-11.4,0-12.8-1.4&#10;&#9;&#9;&#9;&#9;&#9;c-1.4-1.4-7.1-5.7,0.7-4.9c7.8,0.7,8.5,1.4,12.1,0.7c3.6-0.7,0.7-0.7,5.7,1.4s6.4,6.4,6.4,6.4&#10;&#9;&#9;&#9;&#9;&#9;C312.6,280.8,311.2,279.4,304.1,277.9z M331.4,329.6c-6,4-8,8-10.1,8s-9.1,1-3-4s7-5,9.1-8s0-1,5-3s9.1,0,9.1,0&#10;&#9;&#9;&#9;&#9;&#9;C339.4,325.6,337.4,325.6,331.4,329.6z M360.2,294.5l-12.1-1.7c-2.6,0-4.2,0.1-5-0.7c-1.4-1.4-7.1-5.7,0.7-5&#10;&#9;&#9;&#9;&#9;&#9;c7.8,0.7,8.5,1.4,12.1,0.7c3.6-0.7,0.7-0.7,5.7,1.4c5,2.1,6.4,6.4,6.4,6.4C365.2,296.1,363.8,295.5,360.2,294.5z M392.7,333.6&#10;&#9;&#9;&#9;&#9;&#9;c-6,4-8,8-10.1,8s-9.1,1-3-4s7-5,9.1-8c2-3,0-1,5-3s9.1,0,9.1,0C400.8,329.6,398.8,329.6,392.7,333.6z M397.8,312.6&#10;&#9;&#9;&#9;&#9;&#9;c-6,4-8,8-10.1,8c-2,0-9.1,1-3-4c6-5,7-5,9.1-8s0-1,5-3s9.1,0,9.1,0C405.8,308.6,403.8,308.6,397.8,312.6z M434.4,302.1&#10;&#9;&#9;&#9;&#9;&#9;c-7.1-1.4-11.3,0-12.8-1.4c-1.4-1.4-7.1-5.7,0.7-5c7.8,0.7,8.5,1.4,12,0.7c3.5-0.7,0.7-0.7,5.7,1.4c5,2.1,6.4,6.4,6.4,6.4&#10;&#9;&#9;&#9;&#9;&#9;C442.9,305,441.5,303.6,434.4,302.1z M443.7,276.1c-6,4-8,8-10,8s-9,1-3-4c0.6-0.5,1.1-0.9,1.6-1.3c-2.4-0.1-4.4-1.2-10.1-2.3&#10;&#9;&#9;&#9;&#9;&#9;c-7.1-1.4-11.4,0-12.8-1.4c-1.4-1.4-7.1-5.7,0.7-5c7.8,0.7,8.5,1.4,12.1,0.7c3.6-0.7,0.7-0.7,5.7,1.4c3.4,1.5,5.2,3.9,5.9,5.3&#10;&#9;&#9;&#9;&#9;&#9;c3.3-2.6,4.3-3.1,5.9-5.5c2-3,0-1,5-3c5-2,9,0,9,0C451.7,272.1,449.7,272.1,443.7,276.1z M463.3,291.1c-2.8,5.6-2.9,8.5-4.3,9.9&#10;&#9;&#9;&#9;&#9;&#9;c-1.4,1.4-6,6.7-3.5,0.7c2.5-6,3.2-6.7,3.6-9.2c0.4-2.5-0.4-0.4,2.5-4.6c2.8-4.2,6.4-6.4,6.4-6.4&#10;&#9;&#9;&#9;&#9;&#9;C467.5,284,466.1,285.4,463.3,291.1z M462.1,252.6c-6,4-8,8-10,8c-2,0-9,1-3-4c6-5,7-5,9-8c2-3,0-1,5-3c5-2,9,0,9,0&#10;&#9;&#9;&#9;&#9;&#9;C470.1,248.6,468.1,248.6,462.1,252.6z" id="el_nqC2TKwadpA"/>
				<path d="M341.5,347.7c-18.2,1-36.5,1-54.3-0.1c-10-0.6-19.8-1.5-29.4-2.7c-67.4-28.8-138.8-34-133.7-103.9&#10;&#9;&#9;&#9;&#9;&#9;c0.1-1.4,0.3-2.8,0.4-4.2c0.2,0.1,0.3,0.2,0.5,0.3c-0.1,0.4-0.5,1.8-0.8,3.9c-1.7,14.8,4.2,66.8,160.8,99.9&#10;&#9;&#9;&#9;&#9;&#9;C305.5,345.3,324.3,347.4,341.5,347.7z" id="el_CUCPEkkUpEu"/>
				<path d="M286.4,283.6c-3.6,0.7-5-0.7-12.1-2.1c-7.1-1.4-11.4,0-12.8-1.4c-1.4-1.4-7.1-5.7,0.7-5&#10;&#9;&#9;&#9;&#9;&#9;c7.8,0.7,8.5,1.4,12.1,0.7c3.6-0.7,0.7-0.7,5.7,1.4C285,279.4,286.4,283.6,286.4,283.6z" id="el_-TDYuiJe_yQ"/>
				<path d="M298.1,323c-7.7-1.3-8.4-2-12-1.6c-3.6,0.4-0.8,0.6-5.6-1.8c-4.8-2.5-5.9-6.8-5.9-6.8&#10;&#9;&#9;&#9;&#9;&#9;c3.6-0.4,4.9,1.1,11.9,3c7,1.9,11.3,0.8,12.6,2.4C300.5,319.6,305.9,324.3,298.1,323z" id="el_1YrElk5NHlr"/>
				<path d="M316.2,280.1c-3.6,0.7-5-0.7-12.1-2.1c-7.1-1.4-11.4,0-12.8-1.4c-1.4-1.4-7.1-5.7,0.7-4.9&#10;&#9;&#9;&#9;&#9;&#9;c7.8,0.7,8.5,1.4,12.1,0.7c3.6-0.7,0.7-0.7,5.7,1.4S316.2,280.1,316.2,280.1z" id="el_IufphRkJ8Th"/>
				<path d="M327.3,248.4c-0.7,7.8-1.4,8.5-0.7,12c0.7,3.5,0.7,0.7-1.4,5.7c-2.1,5-6.4,6.4-6.4,6.4&#10;&#9;&#9;&#9;&#9;&#9;c-0.7-3.5,0.7-5,2.1-12c1.4-7.1,0-11.3,1.4-12.7C323.8,246.3,328,240.6,327.3,248.4z" id="el_9rW5--TWbkY"/>
				<path d="M337.8,315.3c-3-2-3-4-7-10s-8-8-8-10s-1-9,4-3s5,7,8,9s1,0,3,5S337.8,315.3,337.8,315.3z" id="el_9UAymzzaAIt"/>
				<path d="M341.4,322.6c-2,3-4,3-10.1,7s-8,8-10.1,8s-9.1,1-3-4s7-5,9.1-8s0-1,5-3S341.4,322.6,341.4,322.6z" id="el_JvkNNV8Gv55"/>
				<path d="M354.1,279.6c-3-2-3-4-7-10s-8-8-8-10s-1-9,4-3c5,6,5,7,8,9s1,0,3,5S354.1,279.6,354.1,279.6z" id="el_qQO7u0qiYrC"/>
				<path d="M367.9,295.6l-7.7-1.1l-12.1-1.7l-5-0.7c-1.4-1.4-7.1-5.7,0.7-5c7.8,0.7,8.5,1.4,12.1,0.7&#10;&#9;&#9;&#9;&#9;&#9;c3.6-0.7,0.7-0.7,5.7,1.4C366.5,291.4,367.9,295.6,367.9,295.6z" id="el_xBXOL-JOJwC"/>
				<path d="M402.8,326.6c-2,3-4,3-10.1,7c-6,4-8,8-10.1,8s-9.1,1-3-4s7-5,9.1-8c2-3,0-1,5-3S402.8,326.6,402.8,326.6z" id="el_xchHXSOv30I"/>
				<path d="M404.2,298.3c-3-2-3-4-7-10s-8-8-8-10s-1-9,4-3s5,7,8,9s1,0,3,5S404.2,298.3,404.2,298.3z" id="el_dATYqx7_HHk"/>
				<path d="M407.8,305.6c-2,3-4,3-10.1,7s-8,8-10.1,8c-2,0-9.1,1-3-4c6-5,7-5,9.1-8s0-1,5-3S407.8,305.6,407.8,305.6z" id="el_Wyr1rWxQXeY"/>
				<path d="M446.5,304.3c-3.5,0.7-5-0.7-12-2.1c-7.1-1.4-11.3,0-12.8-1.4c-1.4-1.4-7.1-5.7,0.7-5&#10;&#9;&#9;&#9;&#9;&#9;c7.8,0.7,8.5,1.4,12,0.7c3.5-0.7,0.7-0.7,5.7,1.4C445.1,300,446.5,304.3,446.5,304.3z" id="el_6mbuCy5r8SX"/>
				<path d="M453.7,269.1c-2,3-4,3-10,7c-6,4-8,8-10,8s-9,1-3-4c0.6-0.5,1.1-0.9,1.6-1.3c-2.4-0.1-4.4-1.2-10.1-2.3&#10;&#9;&#9;&#9;&#9;&#9;c-7.1-1.4-11.4,0-12.8-1.4c-1.4-1.4-7.1-5.7,0.7-5c7.8,0.7,8.5,1.4,12.1,0.7c3.6-0.7,0.7-0.7,5.7,1.4c3.4,1.5,5.2,3.9,5.9,5.3&#10;&#9;&#9;&#9;&#9;&#9;c3.3-2.6,4.3-3.1,5.9-5.5c2-3,0-1,5-3C449.7,267.1,453.7,269.1,453.7,269.1z" id="el_R3sMa2drFKo"/>
				<path d="M467.9,281.5c-0.4,2.5-1.8,3.9-4.6,9.5c-2.8,5.6-2.9,8.5-4.3,9.9c-1.4,1.4-6,6.7-3.5,0.7&#10;&#9;&#9;&#9;&#9;&#9;c2.5-6,3.2-6.7,3.6-9.2c0.4-2.5-0.4-0.4,2.5-4.6C464.4,283.6,467.9,281.5,467.9,281.5z" id="el_FDReq1QRzba"/>
				<path d="M472.1,245.6c-2,3-4,3-10,7c-6,4-8,8-10,8c-2,0-9,1-3-4c6-5,7-5,9-8c2-3,0-1,5-3&#10;&#9;&#9;&#9;&#9;&#9;C468.1,243.6,472.1,245.6,472.1,245.6z" id="el_zrzp2xuHPtK"/>
				<path d="M316.2,280.1c-3.6,0.7-5-0.7-12.1-2.1c-7.1-1.4-11.4,0-12.8-1.4c-1.4-1.4-7.1-5.7,0.7-4.9&#10;&#9;&#9;&#9;&#9;&#9;c7.8,0.7,8.5,1.4,12.1,0.7c3.6-0.7,0.7-0.7,5.7,1.4S316.2,280.1,316.2,280.1z" id="el_oZjUdb8QWJg"/>
				<path d="M327.3,248.4c-0.7,7.8-1.4,8.5-0.7,12c0.7,3.5,0.7,0.7-1.4,5.7c-2.1,5-6.4,6.4-6.4,6.4&#10;&#9;&#9;&#9;&#9;&#9;c-0.7-3.5,0.7-5,2.1-12c1.4-7.1,0-11.3,1.4-12.7C323.8,246.3,328,240.6,327.3,248.4z" id="el_w8bXiy-CK7b"/>
				<path d="M402.8,326.6c-2,3-4,3-10.1,7c-6,4-8,8-10.1,8s-9.1,1-3-4s7-5,9.1-8c2-3,0-1,5-3S402.8,326.6,402.8,326.6z" id="el_giDMXWcfxlU"/>
				<path d="M404.2,298.3c-3-2-3-4-7-10s-8-8-8-10s-1-9,4-3s5,7,8,9s1,0,3,5S404.2,298.3,404.2,298.3z" id="el_xLBD4r_IHSV"/>
				<path d="M434.3,278.6c-0.7,0.2-1.4,0.2-2,0.2c-2.4-0.1-4.4-1.2-10.1-2.3c-7.1-1.4-11.4,0-12.8-1.4&#10;&#9;&#9;&#9;&#9;&#9;c-1.4-1.4-7.1-5.7,0.7-5c7.8,0.7,8.5,1.4,12.1,0.7c3.6-0.7,0.7-0.7,5.7,1.4c3.4,1.5,5.2,3.9,5.9,5.3&#10;&#9;&#9;&#9;&#9;&#9;C434.1,278.2,434.3,278.6,434.3,278.6z" id="el_A1AqFsfKTS4"/>
				<path d="M341.4,322.6c-2,3-4,3-10.1,7s-8,8-10.1,8s-9.1,1-3-4s7-5,9.1-8s0-1,5-3S341.4,322.6,341.4,322.6z" id="el_L6m4GM9m-DN"/>
				<path d="M472.1,245.6c-2,3-4,3-10,7c-6,4-8,8-10,8c-2,0-9,1-3-4c6-5,7-5,9-8c2-3,0-1,5-3&#10;&#9;&#9;&#9;&#9;&#9;C468.1,243.6,472.1,245.6,472.1,245.6z" id="el_eBfN21KJiCz"/>
				<path d="M284.3,261.4c0,0-0.1,0-0.1,0c-7.4,2.1-8.3,1.7-11.4,3.7c-3.1,2-0.4,0.9-5.8,0.7c-5.4-0.2-8.2-3.6-8.2-3.6&#10;&#9;&#9;&#9;&#9;&#9;c3.1-2,4.9-1.1,12-2.4c7.1-1.2,10.6-4.1,12.4-3.3c1,0.4,3.5,1.2,4.3,2.2C288.2,259.4,287.7,260.4,284.3,261.4z" id="el_ImzvgiCNqlr"/>
				<path d="M467.9,281.5c-0.4,2.5-1.8,3.9-4.6,9.5c-2.8,5.6-2.9,8.5-4.3,9.9c-1.4,1.4-6,6.7-3.5,0.7&#10;&#9;&#9;&#9;&#9;&#9;c2.5-6,3.2-6.7,3.6-9.2c0.4-2.5-0.4-0.4,2.5-4.6C464.4,283.6,467.9,281.5,467.9,281.5z" id="el_xyULZKyafqc"/>
				<path d="M446.5,304.3c-3.5,0.7-5-0.7-12-2.1c-7.1-1.4-11.3,0-12.8-1.4c-1.4-1.4-7.1-5.7,0.7-5&#10;&#9;&#9;&#9;&#9;&#9;c7.8,0.7,8.5,1.4,12,0.7c3.5-0.7,0.7-0.7,5.7,1.4C445.1,300,446.5,304.3,446.5,304.3z" id="el_6nubF3cPqCB"/>
				<path d="M453.7,269.1c-2,3-4,3-10,7c-6,4-8,8-10,8s-9,1-3-4c0.6-0.5,1.1-0.9,1.6-1.3c0.6-0.5,1.1-0.8,1.5-1.2&#10;&#9;&#9;&#9;&#9;&#9;c3.3-2.6,4.3-3.1,5.9-5.5c2-3,0-1,5-3C449.7,267.1,453.7,269.1,453.7,269.1z" id="el_hXWcYGSGKw6"/>
			</g>
		</g>
	</g>
	<path d="M167.4,246.6c-0.9,1.4-1.8,2.1-3.1,2.9c-3.4-0.6-6.6-1.2-9.7-1.7c0.4-0.2,1-0.1,3.7-1.2&#10;&#9;&#9;C163.4,244.6,167.4,246.6,167.4,246.6z" id="el_-Bt2qw5NB8z"/>
</g></g>
<g id="el_GeecgzBFaLs_an_Ovr0lo5nu" data-animator-group="true" data-animator-type="0"><g id="el_GeecgzBFaLs_an_X_3HoxWDK" data-animator-group="true" data-animator-type="1"><g id="el_GeecgzBFaLs">
	<path d="M61.6,161.8L97,23c1.5-6.1,7.7-9.8,13.8-8.2l10.5,2.7c6.1,1.5,9.8,7.7,8.2,13.8L94.2,170.1L61.6,161.8z" id="el_lvIfsPIbtnK"/>
	
		<rect x="69.5" y="157.1" width="13.2" height="30.5" id="el_P76P4Dhx8l2"/>
	<path d="M85.1,181.2c0,0.1,0,0.1-0.1,0.2" id="el_7SM5TQ532jp"/>
	<path d="M39.1,327.2c-1.1-25.4,3.4-53.5,6.7-72.4l19.7-78.3l19.6,5c-0.6,2.8-0.4,5,0.4,6.9c1.1,2.5,3.2,4.7,5.9,6&#10;&#9;&#9;c0,0-32.2,118.3-50.9,144.6C39.8,335.5,39.3,331.5,39.1,327.2z" id="el_wVSxt4RMgPG"/>
	<path d="M40.5,339.1c18.7-26.4,50.9-144.6,50.9-144.6c2.3,1.1,5,1.8,8,1.7c-7.8,35.9-19.7,75.8-37.8,117.9&#10;&#9;&#9;c-5.7,13.2-11.5,25.6-17.5,37.3C42.8,348,41.5,344,40.5,339.1z" id="el_q4chveMUIQy"/>
</g></g></g>
<g id="el_0p4gdPYcu6V_an_k7kpcStJq" data-animator-group="true" data-animator-type="0"><g id="el_0p4gdPYcu6V">
	<path d="M458.7,224.6c-2.5-1.6-2.9-3.3-5.2-7.2c-0.5-0.8-1.1-1.8-1.8-2.8c-3.9-5.8-7.7-7.9-8-9.8&#10;&#9;&#9;c0.9-0.8,2.1-1.7,4-3.2c5,6,5,7,8,9c3,2,1,0,3,5c0.4,1.1,0.7,2.2,0.8,3.2C459.9,222.2,458.7,224.6,458.7,224.6z" id="el_MphFoMsgHGd"/>
	<path d="M436.7,220.6c-2.5-1.6-2.9-3.3-5.2-7.2c-0.5-0.8-1.1-1.8-1.8-2.8c-1.3-1.9-2.5-3.4-3.7-4.6&#10;&#9;&#9;c1.6-0.7,3.1-1.5,4.6-2.2c0.9,1.1,1.7,1.9,3.1,2.8c3,2,1,0,3,5c0.4,1.1,0.7,2.2,0.8,3.2C437.9,218.2,436.7,220.6,436.7,220.6z" id="el_9wZg7KWpfrU"/>
	<line x1="490.7" y1="148.9" x2="490.7" y2="148.9" id="el_PFgIEgTXdw-"/>
	<path d="M381.3,224.5c-1.3,0.7-3,1.7-5.1,3.1c-6,4-8,8-10,8c-2,0-9,1-3-4c0.5-0.4,1-0.8,1.4-1.2&#10;&#9;&#9;C370.1,228.6,375.7,226.6,381.3,224.5z" id="el_do9u4r3bIsP"/>
	<path d="M126.3,242C126.2,242,126.2,242,126.3,242" id="el_CpkpC-nJE4U"/>
	<path d="M140.6,229.4c-0.2,0.3-0.3,0.5-0.5,0.8c-0.2,0.3-0.3,0.5-0.5,0.8c-0.2,0.2-0.3,0.5-0.5,0.7&#10;&#9;&#9;c-0.3,0.5-0.7,1-1,1.5c-0.2,0.2-0.4,0.5-0.5,0.7c-0.2,0.2-0.3,0.5-0.5,0.7c-0.3,0.4-0.7,0.8-1,1.2c-0.1,0.2-0.3,0.4-0.5,0.5&#10;&#9;&#9;c-0.2,0.2-0.3,0.4-0.4,0.5c-0.7,0.8-1.4,1.5-1.9,2c-0.1,0.1-0.2,0.2-0.3,0.2c-0.2,0.1-0.3,0.2-0.4,0.3c-0.2,0.2-0.4,0.3-0.6,0.4&#10;&#9;&#9;c0,0,0,0,0,0c-0.1,0.1-0.2,0.1-0.3,0.2c0,0-0.1,0-0.1,0.1c-0.1,0-0.1,0.1-0.2,0.1c0,0,0,0-0.1,0c-0.1,0.1-0.2,0.1-0.2,0.1&#10;&#9;&#9;c-0.1,0-0.1,0-0.2,0.1c0,0,0,0,0,0c0,0-0.1,0-0.1,0c-0.1,0-0.1,0-0.1,0s-0.3-0.2-0.8-0.5c-0.1-0.1-0.2-0.1-0.3-0.2&#10;&#9;&#9;c-0.2-0.1-0.5-0.3-0.8-0.5c-0.4-0.3-0.8-0.5-1.2-0.9c-0.2-0.1-0.3-0.2-0.5-0.4c-0.2-0.1-0.3-0.2-0.5-0.3c1-8,2.8-16.1,5.5-24.3&#10;&#9;&#9;c1-2.9,2-5.9,3.2-8.8c1.4-0.6,2.8-0.7,4.3-0.2c0.1,0,0.2,0,0.2,0.1c5.8,1.8,5.7-1.9,3.8,8.9C141.6,224.4,147.6,218.4,140.6,229.4z" id="el_l2jRWW8K8i9"/>
	<path d="M140.6,229.4c-0.2,0.3-0.3,0.5-0.5,0.8c-0.2,0.3-0.3,0.5-0.5,0.8c-0.2,0.2-0.3,0.5-0.5,0.7&#10;&#9;&#9;c-0.3,0.5-0.7,1-1,1.5c-0.2,0.2-0.4,0.5-0.5,0.7c-0.2,0.2-0.3,0.5-0.5,0.7c-0.3,0.4-0.7,0.8-1,1.2c-0.1,0.2-0.3,0.4-0.5,0.5&#10;&#9;&#9;c-0.2,0.2-0.3,0.4-0.4,0.5c-0.7,0.8-1.4,1.5-1.9,2c-0.1,0.1-0.2,0.2-0.3,0.2c-0.2,0.1-0.3,0.2-0.4,0.3c-0.2,0.2-0.4,0.3-0.6,0.4&#10;&#9;&#9;c0,0,0,0,0,0c-0.1,0.1-0.2,0.1-0.3,0.2c0,0-0.1,0-0.1,0.1c-0.1,0-0.1,0.1-0.2,0.1c0,0,0,0-0.1,0c-0.1,0.1-0.2,0.1-0.2,0.1&#10;&#9;&#9;c-0.1,0-0.1,0-0.2,0.1c0,0,0,0,0,0c0,0-0.1,0-0.1,0c-0.1,0-0.1,0-0.1,0s-0.3-0.2-0.8-0.5c-0.1-0.1-0.2-0.1-0.3-0.2&#10;&#9;&#9;c-0.2-0.1-0.5-0.3-0.8-0.5c-0.4-0.3-0.8-0.5-1.2-0.9c-0.2-0.1-0.3-0.2-0.5-0.4c-0.2-0.1-0.3-0.2-0.5-0.3c-2.4-1.9-5-4.6-5-7.3&#10;&#9;&#9;c0-5-1-8,3-14c3-4.5,6.6-10.1,10.7-11.8c1.4-0.6,2.8-0.7,4.3-0.2c0.1,0,0.2,0,0.2,0.1c5.8,1.8,5.7-1.9,3.8,8.9&#10;&#9;&#9;C141.6,224.4,147.6,218.4,140.6,229.4z" id="el_8euta9I7kfL"/>
	<path d="M132.1,213.5" id="el_N99lE1g33mv"/>
	<path d="M139.8,204.5" id="el_xou9J7t-fpl"/>
	<path d="M302.1,192.5" id="el_cnVVKW8Sm43"/>
	<path d="M478.1,173.8c-1.3-1.2-2.7-2.4-4.1-3.5c-2.2-1.9-4.4-3.7-6.6-5.5c-8.6-6.9-17.1-13.1-25.5-18.5&#10;&#9;&#9;c-1.5-1-3-1.9-4.5-2.8c-19.8-12.3-39.2-20.7-58-26h0c-2-0.6-3.9-1.1-5.9-1.5c-27.4-6.8-53.5-7-77.7-3c-1.9,0.3-3.7,0.6-5.6,1&#10;&#9;&#9;c-16.1,3.1-31.2,8.1-45.4,14.2c-1.6,0.7-3.3,1.4-4.9,2.1c-25.8,11.7-47.9,27-65.3,41.3c-2.2,1.8-4.3,3.6-6.4,5.3&#10;&#9;&#9;c-12.7,10.9-22.3,20.9-28.5,27.6c-0.1,0-0.2,0-0.2-0.1c-1.5-0.5-2.9-0.4-4.3,0.2c23.3-58,87.5-113.5,170-119.9&#10;&#9;&#9;c80.1-6.2,151.5,20.6,185.4,64.1v0C491.7,157,486.9,165.4,478.1,173.8z" id="el_830Nv9-tmNR"/>
	<path d="M130.6,240.4c0,0,0,0,0.1,0C130.6,240.4,130.6,240.4,130.6,240.4z" id="el_jNr5IxNLttG"/>
	<path d="M138.1,233.2c0.3-0.5,0.7-0.9,1-1.5C138.7,232.2,138.4,232.7,138.1,233.2z" id="el_LJ5Ut0Y-9nH"/>
	<path d="M158.6,230.4c-4-6-8-8-8-10s-1-9,4-3s5,7,8,9s1,0,3,5s0,9,0,9C162.6,238.4,162.6,236.4,158.6,230.4z" id="el_lRnJYGQx4cx"/>
	<path d="M168.3,176.9c2-1.8,4.2-3.5,6.4-5.3c4.8,0.4,7.7-0.3,8.9,0.9c1.4,1.4,7.1,5.7-0.7,5c-7.8-0.7-8.5-1.4-12-0.7&#10;&#9;&#9;C168.8,177.1,168.8,177.3,168.3,176.9z" id="el_fJvhPjhoR9O"/>
	<path d="M195.5,220.6c-3.5,0.7-5-0.7-12-2.1c-7.1-1.4-11.3,0-12.7-1.4c-1.4-1.4-7.1-5.7,0.7-4.9&#10;&#9;&#9;c7.8,0.7,8.5,1.4,12,0.7c3.5-0.7,0.7-0.7,5.7,1.4C194.1,216.4,195.5,220.6,195.5,220.6z" id="el_wWNMg8HLThk"/>
	<path d="M226.4,170.5c-7.1-1.4-11.3,0-12.7-1.4c-1.4-1.4-7.1-5.7,0.7-4.9c7.8,0.7,8.5,1.4,12,0.7&#10;&#9;&#9;c3.5-0.7,0.7-0.7,5.7,1.4c4.9,2.1,6.4,6.4,6.4,6.4C234.9,173.3,233.5,171.9,226.4,170.5z" id="el_PocKhvqvD6D"/>
	<path d="M240,130.3c1.6-0.7,3.2-1.4,4.9-2.1c1.5,4.6-0.3,8.2-0.3,8.2C242.3,134.9,241.8,133.4,240,130.3z" id="el_79oURIRth-x"/>
	<path d="M248.1,218.9c-6,5-7,5-9,8s0,1-5,3s-9,0-9,0c2-3,4-3,10-7s8-8,10-8S254.1,213.9,248.1,218.9z" id="el_wn-Du4qAHaB"/>
	<path d="M283.1,137.4c-0.7,7.8-1.4,8.5-0.7,12c0.7,3.5,0.7,0.7-1.4,5.7s-6.4,6.4-6.4,6.4c-0.7-3.5,0.7-5,2.1-12&#10;&#9;&#9;c1.4-7.1,0-11.3,1.4-12.7C279.6,135.3,283.8,129.6,283.1,137.4z" id="el_T1WrlLaBZDY"/>
	<path d="M309.7,168.6c-3-2-3-4-7-10s-8-8-8-10s-1-9,4-3s5,7,8,9s1,0,3,5S309.7,168.6,309.7,168.6z" id="el__yHtqdVtquj"/>
	<path d="M309.7,200.2c-2-5,0-9,0-9c3,2,3,4,7,10s8,8,8,10s1,9-4,3s-5-7-8-9S311.7,205.2,309.7,200.2z" id="el_GF7boNRsvxH"/>
	<path d="M334.8,232.4c-7.8-0.7-8.5-1.4-12-0.7c-3.5,0.7-0.7,0.7-5.7-1.4c-5-2.1-6.4-6.4-6.4-6.4c3.5-0.7,5,0.7,12,2.1&#10;&#9;&#9;c7.1,1.4,11.3,0,12.7,1.4C336.9,228.8,342.6,233.1,334.8,232.4z" id="el_4I1sBDVjawu"/>
	<path d="M320.5,140.2c7.7,0.7,8.4,1.4,12,0.7s0.7-0.7,5.6,1.4c4.9,2.1,6.3,6.4,6.3,6.4c-3.5,0.7-4.9-0.7-12-2.1&#10;&#9;&#9;c-7-1.4-11.3,0-12.7-1.4C318.4,143.8,312.8,139.5,320.5,140.2z" id="el_eusaFUQ-dcA"/>
	<path d="M328.7,124.6c6-5,7-5,9-8c2-3,0-1,5-3c5-2,9,0,9,0c-2,3-4,3-10,7c-6,4-8,8-10,8S322.8,129.6,328.7,124.6z" id="el_bfilCm0EPuZ"/>
	<path d="M352.1,151.3c0.7,3.5-0.7,5-2.1,12c-1.4,7.1,0,11.3-1.4,12.8c-1.4,1.4-5.6,7.1-4.9-0.7c0.7-7.8,1.4-8.5,0.7-12&#10;&#9;&#9;c-0.7-3.5-0.7-0.7,1.4-5.7C347.9,152.7,352.1,151.3,352.1,151.3z" id="el_awg-HjjfcYV"/>
	<path d="M361.5,199.2c-2,3-4,3-10,7c-6,4-8,8-10,8c-2,0-9,1-3-4c6-5,7-5,9-8c2-3,0-1,5-3&#10;&#9;&#9;C357.6,197.2,361.5,199.2,361.5,199.2z" id="el_5OlBYBIy-8K"/>
	<path d="M381.6,128.4c-4-6-8-8-8-10c0-0.5-0.1-1.5-0.1-2.4c2,0.5,3.9,1,5.9,1.5h0c3.3,4.1,3.6,5.1,6.2,6.8c3,2,1,0,3,5&#10;&#9;&#9;s0,9,0,9C385.6,136.4,385.6,134.4,381.6,128.4z" id="el_xeMUNkZ-crK"/>
	<path d="M398,198.9c2,5,0,9,0,9c-3-2-3-4-7-10c-4-6-8-8-8-10c0-2-1-9,4-3c5,6,5,7,8,9C398,195.9,396,193.9,398,198.9z" id="el_p262cF0G7i7"/>
	<path d="M419.6,147.4c2,5,0,9,0,9c-3-2-3-4-7-10s-8-8-8-10s-1-9,4-3s5,7,8,9S417.6,142.4,419.6,147.4z" id="el_4h0SF2urrqx"/>
	<path d="M425.8,197.6c2.6,3.1,3.8,4.9,4.9,6.1c-1.5,0.7-3,1.5-4.6,2.2c-2.3-2.5-4.1-3.9-4.3-5.1&#10;&#9;&#9;C422.7,200,423.9,199.2,425.8,197.6z" id="el_02kXrzpOXiA"/>
	<path d="M461.6,161c-2.6,2.5-4.6,2-11.3,4.6c-6.8,2.5-9.6,6-11.5,5.5c-2-0.5-9-1.1-2-4.6c7-3.5,8-3.3,10.6-5.8&#10;&#9;&#9;c2.6-2.5,0.2-1,5.5-1.8C458.2,158.1,461.6,161,461.6,161z" id="el_-0dUDBemzW3"/>
	<path d="M478.1,173.8c-0.5,0.5-1.1,1-1.7,1.6c-1.2,1.1-2.5,2.2-3.9,3.3c-1.1-2.5-1.6-3.5-3.2-5.3&#10;&#9;&#9;c-2.5-2.6-1-0.2-1.8-5.5c-0.2-1.1-0.2-2.1-0.1-3.1c2.2,1.8,4.4,3.6,6.6,5.5C475.3,171.5,476.7,172.6,478.1,173.8z" id="el_hrULX_UDXMy"/>
	<path d="M248.1,218.9c-6,5-7,5-9,8s0,1-5,3s-9,0-9,0c2-3,4-3,10-7s8-8,10-8S254.1,213.9,248.1,218.9z" id="el_hMo6BUxHVIE"/>
	<path d="M182.8,177.4c-7.8-0.7-8.5-1.4-12-0.7c-2,0.4-2,0.6-2.5,0.2c-0.4-0.2-1.1-0.8-3.2-1.6c-5-2.1-6.4-6.4-6.4-6.4&#10;&#9;&#9;c3.5-0.7,5,0.7,12,2.1c1.4,0.3,2.7,0.4,3.9,0.5c4.8,0.4,7.7-0.3,8.9,0.9C184.9,173.8,190.6,178.1,182.8,177.4z" id="el_wkjZ78kyF_i"/>
	<path d="M320.7,214.2c-5-6-5-7-8-9s-1,0-3-5s0-9,0-9c3,2,3,4,7,10s8,8,8,10S325.7,220.2,320.7,214.2z" id="el_gEqk_BAs70S"/>
	<path d="M334.8,232.4c-7.8-0.7-8.5-1.4-12-0.7c-3.5,0.7-0.7,0.7-5.7-1.4c-5-2.1-6.4-6.4-6.4-6.4c3.5-0.7,5,0.7,12,2.1&#10;&#9;&#9;c7.1,1.4,11.3,0,12.7,1.4C336.9,228.8,342.6,233.1,334.8,232.4z" id="el_goc4oSf8VNC"/>
	<path d="M283.1,137.4c-0.7,7.8-1.4,8.5-0.7,12c0.7,3.5,0.7,0.7-1.4,5.7s-6.4,6.4-6.4,6.4c-0.7-3.5,0.7-5,2.1-12&#10;&#9;&#9;c1.4-7.1,0-11.3,1.4-12.7C279.6,135.3,283.8,129.6,283.1,137.4z" id="el_aaVI9E_3x8C"/>
	<path d="M309.7,168.6c-3-2-3-4-7-10s-8-8-8-10s-1-9,4-3s5,7,8,9s1,0,3,5S309.7,168.6,309.7,168.6z" id="el_xAn7Pya6xcu"/>
	<path d="M430.6,203.8c-1.5,0.7-3,1.5-4.6,2.2c-2.3-2.5-4.1-3.9-4.3-5.1c0.9-0.8,2.1-1.7,4-3.2&#10;&#9;&#9;C428.4,200.8,429.6,202.5,430.6,203.8z" id="el_97tTd2z4_Vy"/>
	<path d="M165.6,240.4c-3-2-3-4-7-10s-8-8-8-10s-1-9,4-3s5,7,8,9s1,0,3,5S165.6,240.4,165.6,240.4z" id="el_Em33Kd6yWW7"/>
	<path d="M195.5,220.6c-3.5,0.7-5-0.7-12-2.1c-7.1-1.4-11.3,0-12.7-1.4c-1.4-1.4-7.1-5.7,0.7-4.9&#10;&#9;&#9;c7.8,0.7,8.5,1.4,12,0.7c3.5-0.7,0.7-0.7,5.7,1.4C194.1,216.4,195.5,220.6,195.5,220.6z" id="el_QlIgRJOgrK7"/>
	<path d="M238.5,172.6c-3.5,0.7-5-0.7-12-2.1c-7.1-1.4-11.3,0-12.7-1.4c-1.4-1.4-7.1-5.7,0.7-4.9&#10;&#9;&#9;c7.8,0.7,8.5,1.4,12,0.7c3.5-0.7,0.7-0.7,5.7,1.4C237.1,168.4,238.5,172.6,238.5,172.6z" id="el_2IcMW6DxlCZ"/>
	<path d="M388.6,138.4c-3-2-3-4-7-10s-8-8-8-10c0-0.5-0.1-1.5-0.1-2.4c0-2.5,0.4-5,4.1-0.6c0.7,0.8,1.3,1.5,1.8,2.2h0&#10;&#9;&#9;c3.3,4.1,3.6,5.1,6.2,6.8c3,2,1,0,3,5S388.6,138.4,388.6,138.4z" id="el_JG13-CHCERy"/>
	<path d="M419.6,156.4c-3-2-3-4-7-10s-8-8-8-10s-1-9,4-3s5,7,8,9s1,0,3,5S419.6,156.4,419.6,156.4z" id="el_V8396w9VSaK"/>
	<path d="M396.7,98.6c-2.8,2.3-4.7,1.7-11.6,3.7c-6.9,2.1-10,5.3-11.9,4.7s-8.9-1.7-1.7-4.7c7.2-3,8.2-2.7,11-5&#10;&#9;&#9;c2.8-2.3,0.3-1,5.7-1.4C393.5,95.5,396.7,98.6,396.7,98.6z" id="el_DXiKupJIK_T"/>
	<path d="M325.5,101.6c-3.5,0.7-4.9-0.7-12-2.1c-7.1-1.4-11.3,0-12.7-1.4s-7.1-5.7,0.7-4.9c7.8,0.7,8.5,1.4,12,0.7&#10;&#9;&#9;c3.5-0.7,0.7-0.7,5.7,1.4S325.5,101.6,325.5,101.6z" id="el_DVtVCp0OTOs"/>
	<path d="M244.6,136.4c-2.2-1.5-2.8-3-4.6-6.1c-0.6-1.1-1.4-2.4-2.4-3.9c-4-6-8-8-8-10s-1-9,4-3s5,7,8,9s1,0,3,5&#10;&#9;&#9;c0.1,0.3,0.2,0.5,0.3,0.8C246.4,132.8,244.6,136.4,244.6,136.4z" id="el_9NgriRz8MAg"/>
	<path d="M274.5,116.6c-3.5,0.7-4.9-0.7-12-2.1c-7.1-1.4-11.3,0-12.7-1.4c-1.4-1.4-7.1-5.7,0.7-4.9&#10;&#9;&#9;c7.8,0.7,8.5,1.4,12,0.7c3.5-0.7,0.7-0.7,5.7,1.4S274.5,116.6,274.5,116.6z" id="el_iltiblhuuuE"/>
	<path d="M386.1,220.6c-1.3,1.9-2.5,2.6-4.8,3.9l-16.7,6c4.8-3.9,5.8-4.1,7.6-6.9c2-3,0-1,5-3&#10;&#9;&#9;C382.1,218.6,386.1,220.6,386.1,220.6z" id="el_2ZR1YeY0189"/>
	<path d="M361.5,199.2c-2,3-4,3-10,7c-6,4-8,8-10,8c-2,0-9,1-3-4c6-5,7-5,9-8c2-3,0-1,5-3&#10;&#9;&#9;C357.6,197.2,361.5,199.2,361.5,199.2z" id="el_CdEIbq1PAdP"/>
	<path d="M398,207.9c-3-2-3-4-7-10c-4-6-8-8-8-10c0-2-1-9,4-3c5,6,5,7,8,9c3,2,1,0,3,5S398,207.9,398,207.9z" id="el_DpshvDnlrPz"/>
	<path d="M350,163.3c-1.4,7.1,0,11.3-1.4,12.8c-1.4,1.4-5.6,7.1-4.9-0.7c0.7-7.8,1.4-8.5,0.7-12&#10;&#9;&#9;c-0.7-3.5-0.7-0.7,1.4-5.7c2.1-4.9,6.3-6.4,6.3-6.4C352.8,154.8,351.4,156.2,350,163.3z" id="el_WtgMKzvq8n0"/>
	<path d="M344.5,148.7c-3.5,0.7-4.9-0.7-12-2.1c-7-1.4-11.3,0-12.7-1.4c-1.4-1.4-7-5.7,0.7-5c7.7,0.7,8.4,1.4,12,0.7&#10;&#9;&#9;s0.7-0.7,5.6,1.4C343.1,144.5,344.5,148.7,344.5,148.7z" id="el_b-H_gdnQN3R"/>
	<path d="M351.6,113.6c-2,3-4,3-10,7c-6,4-8,8-10,8s-9,1-3-4c6-5,7-5,9-8c2-3,0-1,5-3&#10;&#9;&#9;C347.7,111.6,351.6,113.6,351.6,113.6z" id="el_TvuLvrq1HbH"/>
	<path d="M476.3,175.4c-1.2,1.1-2.5,2.2-3.9,3.3c-1.1-2.5-1.6-3.5-3.2-5.3c-2.5-2.6-1-0.2-1.8-5.5&#10;&#9;&#9;c-0.2-1.1-0.2-2.1-0.1-3.1c0.3-3.5,2.1-5.7,2.1-5.7c2.5,2.6,2,4.5,4.5,11.2c0,0,0,0.1,0,0.1C474.8,172.4,475.6,174,476.3,175.4z" id="el_mwl8tVRHMQc"/>
	<path d="M461.6,161c-2.6,2.5-4.6,2-11.3,4.6c-6.8,2.5-9.6,6-11.5,5.5c-2-0.5-9-1.1-2-4.6c7-3.5,8-3.3,10.6-5.8&#10;&#9;&#9;c2.6-2.5,0.2-1,5.5-1.8C458.2,158.1,461.6,161,461.6,161z" id="el_YM1Adgqz0_G"/>
	<path d="M511.3,200.2c-0.9-11.1-3.8-21.8-8.5-31.8c-3.2-6.8-7.3-13.3-12.1-19.5c1,8.1-3.8,16.5-12.7,24.9&#10;&#9;&#9;c-0.5,0.5-1.1,1-1.7,1.6c-1.2,1.1-2.5,2.2-3.9,3.3c-1.1-2.5-1.6-3.5-3.2-5.3c-2.5-2.6-1-0.2-1.8-5.5c-0.2-1.1-0.2-2.1-0.1-3.1&#10;&#9;&#9;c-8.6-6.9-17.1-13.1-25.5-18.5c-1.5-1-3-1.9-4.5-2.8c-19.8-12.3-39.2-20.7-58-26c3.3,4.1,3.6,5.1,6.2,6.8c3,2,1,0,3,5s0,9,0,9&#10;&#9;&#9;c-3-2-3-4-7-10s-8-8-8-10c0-0.5-0.1-1.5-0.1-2.4c-27.4-6.8-53.5-7-77.7-3c-1.9,0.3-3.7,0.6-5.6,1c-16.1,3.1-31.2,8.1-45.4,14.2&#10;&#9;&#9;c1.5,4.6-0.3,8.2-0.3,8.2c-2.2-1.5-2.8-3-4.6-6.1c-25.8,11.7-47.9,27-65.3,41.3c4.8,0.4,7.7-0.3,8.9,0.9c1.4,1.4,7.1,5.7-0.7,5&#10;&#9;&#9;c-7.8-0.7-8.5-1.4-12-0.7c-2,0.4-2,0.6-2.5,0.2c-12.7,10.9-22.3,20.9-28.5,27.6c5.8,1.8,5.7-1.9,3.8,8.9c-2,11,4,5-3,16&#10;&#9;&#9;c-0.2,0.3-0.3,0.5-0.5,0.8c-0.2,0.3-0.3,0.5-0.5,0.8c-0.2,0.2-0.3,0.5-0.5,0.7c-0.3,0.5-0.7,1-1,1.5c-0.2,0.3-0.3,0.5-0.5,0.7&#10;&#9;&#9;c-0.2,0.2-0.3,0.5-0.5,0.7c-0.3,0.4-0.7,0.8-1,1.2c-0.1,0.2-0.3,0.4-0.5,0.5c-0.2,0.2-0.3,0.4-0.4,0.5c-0.7,0.8-1.4,1.5-1.9,2&#10;&#9;&#9;c-0.1,0.1-0.2,0.2-0.3,0.2c-0.2,0.1-0.3,0.2-0.4,0.3c-0.2,0.2-0.4,0.3-0.6,0.4c0,0,0,0,0,0c-0.1,0-0.2,0.1-0.2,0.1c0,0,0,0-0.1,0&#10;&#9;&#9;c0,0-0.1,0-0.1,0.1c0,0,0,0-0.1,0c115.3,18.1,248.1-3.7,322.4-19.8c-0.2-0.3-0.3-0.6-0.3-0.9c0-0.5,0-1.2-0.1-1.9&#10;&#9;&#9;c-0.5-0.8-1.1-1.8-1.8-2.8c-0.8-1.1-1.5-2.1-2.2-3c-3-3.6-5.6-5.3-5.8-6.8c0.9-0.8,2.1-1.7,4-3.2c5,6,5,7,8,9&#10;&#9;&#9;c0.2,0.2,0.5,0.3,0.6,0.4c2,1.3,0.5,0,2.4,4.6c0.4,1.1,0.7,2.2,0.8,3.2c0.1,0.1,0.1,0.1,0.2,0.2c30-6.7,49.2-12.1,51.9-12.9&#10;&#9;&#9;c0,0,0,0,0-0.1C511.6,204.1,511.5,202.2,511.3,200.2z M408.6,133.4c5,6,5,7,8,9s1,0,3,5s0,9,0,9c-3-2-3-4-7-10s-8-8-8-10&#10;&#9;&#9;S403.6,127.4,408.6,133.4z M387,184.9c5,6,5,7,8,9c3,2,1,0,3,5s0,9,0,9c-3-2-3-4-7-10c-4-6-8-8-8-10C383,185.9,382,178.9,387,184.9&#10;&#9;&#9;z M361.5,199.2c-2,3-4,3-10,7c-6,4-8,8-10,8c-2,0-9,1-3-4c6-5,7-5,9-8c2-3,0-1,5-3C357.6,197.2,361.5,199.2,361.5,199.2z&#10;&#9;&#9; M350,163.3c-1.4,7.1,0,11.3-1.4,12.8c-1.4,1.4-5.6,7.1-4.9-0.7c0.7-7.8,1.4-8.5,0.7-12c-0.7-3.5-0.7-0.7,1.4-5.7&#10;&#9;&#9;c2.1-4.9,6.3-6.4,6.3-6.4C352.8,154.8,351.4,156.2,350,163.3z M328.7,124.6c6-5,7-5,9-8c2-3,0-1,5-3c5-2,9,0,9,0c-2,3-4,3-10,7&#10;&#9;&#9;c-6,4-8,8-10,8S322.8,129.6,328.7,124.6z M320.5,140.2c7.7,0.7,8.4,1.4,12,0.7s0.7-0.7,5.6,1.4c4.9,2.1,6.3,6.4,6.3,6.4&#10;&#9;&#9;c-3.5,0.7-4.9-0.7-12-2.1c-7-1.4-11.3,0-12.7-1.4C318.4,143.8,312.8,139.5,320.5,140.2z M316.7,201.2c4,6,8,8,8,10s1,9-4,3&#10;&#9;&#9;s-5-7-8-9s-1,0-3-5s0-9,0-9C312.7,193.2,312.7,195.2,316.7,201.2z M298.7,145.6c5,6,5,7,8,9s1,0,3,5s0,9,0,9c-3-2-3-4-7-10&#10;&#9;&#9;s-8-8-8-10S293.7,139.6,298.7,145.6z M276.8,149.4c1.4-7.1,0-11.3,1.4-12.7c1.4-1.4,5.7-7.1,4.9,0.7c-0.7,7.8-1.4,8.5-0.7,12&#10;&#9;&#9;c0.7,3.5,0.7,0.7-1.4,5.7s-6.4,6.4-6.4,6.4C273.9,157.9,275.3,156.5,276.8,149.4z M245.1,214.9c2,0,9-1,3,4s-7,5-9,8s0,1-5,3&#10;&#9;&#9;s-9,0-9,0c2-3,4-3,10-7S243.1,214.9,245.1,214.9z M214.4,164.1c7.8,0.7,8.5,1.4,12,0.7c3.5-0.7,0.7-0.7,5.7,1.4&#10;&#9;&#9;c4.9,2.1,6.4,6.4,6.4,6.4c-3.5,0.7-5-0.7-12-2.1c-7.1-1.4-11.3,0-12.7-1.4C212.3,167.7,206.6,163.4,214.4,164.1z M171.4,212.1&#10;&#9;&#9;c7.8,0.7,8.5,1.4,12,0.7c3.5-0.7,0.7-0.7,5.7,1.4c4.9,2.1,6.4,6.4,6.4,6.4c-3.5,0.7-5-0.7-12-2.1c-7.1-1.4-11.3,0-12.7-1.4&#10;&#9;&#9;C169.3,215.7,163.6,211.4,171.4,212.1z M165.6,240.4c-1.4-0.9-2.1-1.8-2.9-3.1c-0.9-1.5-1.9-3.6-4.1-6.9c-4-6-8-8-8-10s-1-9,4-3&#10;&#9;&#9;s5,7,8,9s1,0,3,5c0.8,2.1,1,4,0.8,5.5C166.2,239,165.6,240.4,165.6,240.4z M334.8,232.4c-7.8-0.7-8.5-1.4-12-0.7&#10;&#9;&#9;c-3.5,0.7-0.7,0.7-5.7-1.4c-4.5-1.9-6-5.6-6.3-6.2c0-0.1,0-0.1,0-0.1c1-0.2,1.9-0.2,2.8-0.1c2.1,0.3,4.3,1.3,9.2,2.2&#10;&#9;&#9;c7.1,1.4,11.3,0,12.7,1.4C336.9,228.8,342.6,233.1,334.8,232.4z M381.3,224.5c-1.3,0.7-3,1.7-5.1,3.1c-6,4-8,8-10,8c-2,0-9,1-3-4&#10;&#9;&#9;c0.5-0.4,1-0.8,1.4-1.2c4.8-3.9,5.8-4.1,7.6-6.9c2-3,0-1,5-3c5-2,9,0,9,0C384.8,222.5,383.6,223.2,381.3,224.5z M437.5,214.8&#10;&#9;&#9;c0.4,3.4-0.8,5.8-0.8,5.8c-2.5-1.6-2.9-3.3-5.2-7.2c0-0.1-0.1-0.1-0.1-0.2c-0.5-0.8-1-1.7-1.7-2.7c-1.3-1.9-2.5-3.4-3.7-4.6&#10;&#9;&#9;c-2.3-2.5-4.1-3.9-4.3-5.1c0.9-0.8,2.1-1.7,4-3.2c2.6,3.1,3.8,4.9,4.9,6.1c0.9,1.2,1.7,1.9,3.1,2.8c3,2,1,0,3,5&#10;&#9;&#9;c0.1,0.4,0.3,0.8,0.4,1.1C437.3,213.5,437.5,214.2,437.5,214.8z M450.3,165.5c-6.8,2.5-9.6,6-11.5,5.5c-2-0.5-9-1.1-2-4.6&#10;&#9;&#9;c7-3.5,8-3.3,10.6-5.8c2.6-2.5,0.2-1,5.5-1.8c5.3-0.8,8.8,2,8.8,2C459,163.5,457.1,163,450.3,165.5z" id="el_pZ2pvU7DYj0"/>
</g></g>
</svg>