<?xml version="1.0" encoding="utf-8"?>
<!-- Generator: Adobe Illustrator 22.1.0, SVG Export Plug-In . SVG Version: 6.00 Build 0)  -->
<svg version="1.1" id="Promegranade" xmlns="http://www.w3.org/2000/svg" xmlns:xlink="http://www.w3.org/1999/xlink" x="0px"
	 y="0px" viewBox="0 0 674 338.6" style="enable-background:new 0 0 674 338.6;" xml:space="preserve">
<style type="text/css">
	.st0{fill:#EFEFEF;}
	.st1{fill:#F4F4F4;}
	.st2{fill:#EAEAEA;}
	.st3{fill:#FECF25;}
	.st4{fill:#F9DC0B;}
	.st5{fill:#F7BE08;}
	.st6{fill:#F9B903;}
</style>
<g>
	<g id="Plate_1_">
		<ellipse class="st0" cx="337" cy="167.5" rx="337" ry="111"/>
		<ellipse class="st1" cx="337" cy="160.5" rx="337" ry="111"/>
		<ellipse class="st2" cx="337" cy="149.5" rx="236.8" ry="77.9"/>
	</g>
	<g>
		<path class="st3" d="M515.4,106.2l36.7,65.5c10.4-2.5,23.1-8.9,37.3-18.2l-45-71.4L515.4,106.2z"/>
		<path class="st4" d="M487.8,82.6l33.3-26.8l-51.5-12.3c-14.8,17.8-21.9,28.9-21.9,28.9L487.8,82.6z"/>
		<path class="st3" d="M447.6,72.3c0,0,13.1,52.8,35.5,63.3c0,0,49.5,47.3,69,36l-36.7-65.5l-27.6-23.6L447.6,72.3z M477.7,125.9
			c-9.5-1.3,11.4-16.6,11.4-16.6S487.2,127.2,477.7,125.9z M501.3,138.7c-8.2,5.8,4.4-22,4.4-22S509.6,132.8,501.3,138.7z
			 M491.7,132.6c-10.2,7.3,8.9-27.1,8.9-27.1S501.9,125.4,491.7,132.6z"/>
		<path class="st5" d="M489.1,109.3c0,0-20.9,15.3-11.4,16.6C487.2,127.2,489.1,109.3,489.1,109.3z"/>
		<path class="st5" d="M501.3,138.7c8.2-5.8,4.4-22,4.4-22S493.1,144.6,501.3,138.7z"/>
		<path class="st5" d="M491.7,132.6c10.2-7.3,8.9-27.1,8.9-27.1S481.4,140,491.7,132.6z"/>
		<polygon class="st6" points="530.1,65.9 521.1,55.7 487.8,82.6 515.4,106.2 544.5,82.1 		"/>
	</g>
	<g>
		<path class="st3" d="M430.6,110.8l29.4,69.1c10.5-1.3,23.9-6.4,39-14l-37-76L430.6,110.8z"/>
		<path class="st4" d="M405.7,84.3l36-23.1L392,43.4c-16.7,16.1-25,26.3-25,26.3L405.7,84.3z"/>
		<path class="st3" d="M367,69.7c0,0,7.3,53.8,28.4,66.8c0,0,44,52.4,64.7,43.4l-29.4-69.1l-24.9-26.5L367,69.7z M390.9,126.1
			c-9.3-2.3,13.1-15.3,13.1-15.3S400.3,128.6,390.9,126.1z M413.1,141.6c-8.8,4.9,6.9-21.5,6.9-21.5S421.9,136.6,413.1,141.6z
			 M404.2,134.4c-11,6.1,11.8-26.1,11.8-26.1S415.2,128.4,404.2,134.4z"/>
		<path class="st5" d="M404.2,111c0,0-22.4,13-13.1,15.3C400.3,128.6,404.2,111,404.2,111z"/>
		<path class="st5" d="M413.1,141.6c8.8-4.9,6.9-21.5,6.9-21.5S404.3,146.5,413.1,141.6z"/>
		<path class="st5" d="M404.2,134.4c11-6.1,11.8-26.1,11.8-26.1S393.1,140.7,404.2,134.4z"/>
		<polygon class="st6" points="449.5,72.2 441.8,61.2 405.7,84.3 430.6,110.8 462.1,90 		"/>
	</g>
	<g>
		<path class="st3" d="M348.8,118l33.5,67.3c10.4-1.9,23.5-7.8,38.1-16.2L379,95.4L348.8,118z"/>
		<path class="st4" d="M322.3,93.1L357,67.9l-50.8-14.8c-15.7,17-23.3,27.7-23.3,27.7L322.3,93.1z"/>
		<path class="st3" d="M282.8,80.8c0,0,10.5,53.3,32.3,65c0,0,47.1,49.7,67,39.5L348.7,118l-26.5-25L282.8,80.8z M310,135.7
			c-9.5-1.8,12.2-16.1,12.2-16.1S319.5,137.6,310,135.7z M333.1,149.7c-8.4,5.4,5.6-21.8,5.6-21.8S341.5,144.3,333.1,149.7z
			 M323.8,143.3c-10.6,6.7,10.2-26.7,10.2-26.7S334.3,136.4,323.8,143.3z"/>
		<path class="st5" d="M322.2,119.7c0,0-21.7,14.3-12.2,16.1C319.5,137.6,322.2,119.7,322.2,119.7z"/>
		<path class="st5" d="M333.1,149.7c8.4-5.4,5.6-21.8,5.6-21.8S324.6,155.2,333.1,149.7z"/>
		<path class="st5" d="M323.8,143.3c10.6-6.7,10.2-26.7,10.2-26.7S313.1,150,323.8,143.3z"/>
		<polygon class="st6" points="365.4,78.4 357,67.9 322.3,93.1 348.8,118 379,95.4 		"/>
	</g>
	<g>
		<path class="st3" d="M261.9,125.4l31.2,68.3c10.5-1.6,23.7-7,38.6-15l-38.9-74.9L261.9,125.4z"/>
		<path class="st4" d="M236.4,99.6l35.4-24l-50.3-16.5c-16.2,16.5-24.2,27-24.2,27L236.4,99.6z"/>
		<path class="st3" d="M197.2,86.1c0,0,8.7,53.7,30.2,66c0,0,45.4,51.2,65.7,41.6l-31.2-68.3l-25.5-25.8L197.2,86.1z M222.8,141.8
			c-9.3-2.1,12.7-15.7,12.7-15.7S232.1,143.9,222.8,141.8z M245.2,156.6c-8.7,5.2,6.2-21.7,6.2-21.7S253.9,151.4,245.2,156.6z
			 M236.1,149.7c-10.9,6.5,11.2-26.3,11.2-26.3S247,143.4,236.1,149.7z"/>
		<path class="st5" d="M235.5,126.3c0,0-22,13.5-12.7,15.7C232.1,143.9,235.5,126.3,235.5,126.3z"/>
		<path class="st5" d="M245.2,156.6c8.7-5.2,6.2-21.7,6.2-21.7S236.6,161.8,245.2,156.6z"/>
		<path class="st5" d="M236.1,149.7c10.9-6.5,11.2-26.3,11.2-26.3S225.2,156.2,236.1,149.7z"/>
		<polygon class="st6" points="279.9,86.3 271.8,75.6 236.4,99.6 261.9,125.4 292.9,103.7 		"/>
	</g>
	<g>
		<path class="st3" d="M361,219l-74.2-12.1c-4.5,9.6-7.4,23.6-8.9,40.5l84,9.3L361,219z"/>
		<path class="st4" d="M396.6,212l0.3,42.8l41.6-32.7c-4.7-22.7-8.9-35.1-8.9-35.1L396.6,212z"/>
		<path class="st3" d="M429.6,187c0,0-49.4-22.6-71.6-11.5c0,0-67.8,9.3-71.2,31.5L361,219l35.7-7L429.6,187z M369,177.2
			c7-6.6,6,19.3,6,19.3S362.2,183.8,369,177.2z M344.3,187.7c0.5-10.1,14.5,17.2,14.5,17.2S343.7,197.9,344.3,187.7z M355,184
			c0.6-12.6,15.7,23.9,15.7,23.9S354.4,196.6,355,184z"/>
		<path class="st5" d="M375,196.4c0,0,1-25.9-6-19.3C362,183.7,375,196.4,375,196.4z"/>
		<path class="st5" d="M344.3,187.7c-0.5,10.1,14.5,17.2,14.5,17.2S344.8,177.6,344.3,187.7z"/>
		<path class="st5" d="M355,184c-0.6,12.6,15.7,23.9,15.7,23.9S355.7,171.4,355,184z"/>
		<polygon class="st6" points="383.4,255.6 396.9,254.9 396.6,212 361,219 361.8,256.7 		"/>
	</g>
	<g>
		<path class="st3" d="M176.5,134.1l15,73.6c10.6,0.8,24.6-1.4,41.1-6l-21-81.8L176.5,134.1z"/>
		<path class="st4" d="M157.3,103.1l39.9-15.4L152,60.3c-19.6,12.4-29.7,20.9-29.7,20.9L157.3,103.1z"/>
		<path class="st3" d="M122.1,81.2c0,0-3.5,54.2,14.5,71.1c0,0,32.7,60,54.7,55.4l-15-73.6l-19.1-30.9L122.1,81.2z M134.5,141.2
			c-8.7-4.1,15.9-12.3,15.9-12.3S143.2,145.3,134.5,141.2z M153.1,160.6c-9.6,3.1,10.9-19.7,10.9-19.7S162.7,157.5,153.1,160.6z
			 M145.7,151.9c-12.1,3.9,16.7-23.1,16.7-23.1S157.8,148.1,145.7,151.9z"/>
		<path class="st5" d="M150.4,128.9c0,0-24.5,8.2-15.9,12.3C143.2,145.3,150.4,128.9,150.4,128.9z"/>
		<path class="st5" d="M153.1,160.6c9.6-3.1,10.9-19.7,10.9-19.7S143.5,163.7,153.1,160.6z"/>
		<path class="st5" d="M145.7,151.9c12.1-3.9,16.7-23.1,16.7-23.1S133.8,155.7,145.7,151.9z"/>
		<polygon class="st6" points="202.7,100 197.2,87.6 157.3,103.1 176.5,134.1 211.5,119.8 		"/>
	</g>
</g>
</svg>
