<?xml version="1.0" encoding="utf-8"?>
<!-- Generator: Adobe Illustrator 22.1.0, SVG Export Plug-In . SVG Version: 6.00 Build 0)  -->
<svg version="1.1" id="Layer_1" xmlns="http://www.w3.org/2000/svg" xmlns:xlink="http://www.w3.org/1999/xlink" x="0px" y="0px"
	 viewBox="0 0 139.6 80.8" style="enable-background:new 0 0 139.6 80.8;" xml:space="preserve">
<style type="text/css">
	.st0{fill:#FECF25;}
	.st1{fill:#F9DC0B;}
	.st2{fill:#F7BE08;}
	.st3{fill:#F9B903;}
</style>
<g>
	<path class="st0" d="M91.4,32.6l26.1,29.5c5-2.4,10.8-7.2,17.1-13.5l-31-31.6L91.4,32.6z"/>
	<path class="st1" d="M74.6,23.6L88.7,6.1L61,5.6c-5.6,10.8-8,17.3-8,17.3L74.6,23.6z"/>
	<path class="st0" d="M52.9,22.8c0,0,12.6,25.6,25.3,28.5c0,0,30.6,18.7,39.3,10.8L91.4,32.6l-16.8-9L52.9,22.8z M74.3,46.8
		c-5,0.4,4-9.8,4-9.8S79.3,46.5,74.3,46.8z M87.8,50.8C84.3,54.8,87.6,39,87.6,39S91.4,46.9,87.8,50.8z M82.2,48.8
		c-4.5,4.9,1.6-14.9,1.6-14.9S86.7,43.9,82.2,48.8z"/>
	<path class="st2" d="M78.3,37.1c0,0-9,10.2-4,9.8C79.3,46.5,78.3,37.1,78.3,37.1z"/>
	<path class="st2" d="M87.8,50.8c3.6-3.9-0.2-11.8-0.2-11.8S84.3,54.8,87.8,50.8z"/>
	<path class="st2" d="M82.2,48.8c4.5-4.9,1.6-14.9,1.6-14.9S77.7,53.7,82.2,48.8z"/>
	<polygon class="st3" points="94.4,10.2 88.7,6.1 74.6,23.6 91.4,32.6 103.6,17 	"/>
</g>
<g>
	<path class="st0" d="M46.3,40.4l8.8,38.4c5.6,0.3,12.9-1.1,21.5-3.7L64.6,32.4L46.3,40.4z"/>
	<path class="st1" d="M35.9,24.3l20.7-8.6L32.5,2C22.4,8.7,17.2,13.3,17.2,13.3L35.9,24.3z"/>
	<path class="st0" d="M17.1,13.3c0,0-1.1,28.5,8.5,37.1c0,0,17.9,31,29.4,28.3l-8.8-38.4l-10.4-16L17.1,13.3z M24.4,44.6
		c-4.6-2,8.2-6.7,8.2-6.7S29,46.7,24.4,44.6z M34.4,54.6c-5,1.8,5.5-10.5,5.5-10.5S39.4,52.8,34.4,54.6z M30.4,50.1
		c-6.3,2.2,8.5-12.3,8.5-12.3S36.7,47.9,30.4,50.1z"/>
	<path class="st2" d="M32.6,38c0,0-12.7,4.6-8.2,6.7C29,46.7,32.6,38,32.6,38z"/>
	<path class="st2" d="M34.4,54.6c5-1.8,5.5-10.5,5.5-10.5S29.4,56.3,34.4,54.6z"/>
	<path class="st2" d="M30.4,50.1c6.3-2.2,8.5-12.3,8.5-12.3S24.2,52.2,30.4,50.1z"/>
	<polygon class="st3" points="59.6,22.1 56.6,15.7 35.9,24.3 46.3,40.4 64.5,32.4 	"/>
</g>
</svg>
