<?xml version="1.0" encoding="utf-8"?>
<!-- Generator: Adobe Illustrator 22.1.0, SVG Export Plug-In . SVG Version: 6.00 Build 0)  -->
<svg version="1.1" id="Promegranade" xmlns="http://www.w3.org/2000/svg" xmlns:xlink="http://www.w3.org/1999/xlink" x="0px"
	 y="0px" viewBox="0 0 674 338.6" style="enable-background:new 0 0 674 338.6;" xml:space="preserve">
<style type="text/css">
	.st0{fill:#EFEFEF;}
	.st1{fill:#F4F4F4;}
	.st2{fill:#EAEAEA;}
	.st3{fill:none;}
	.st4{fill:#F9DC0B;}
	.st5{fill:#FECF25;}
	.st6{fill:#EAC50F;}
	.st7{fill:#F2D10C;}
</style>
<g>
	<g id="Plate_1_">
		<ellipse class="st0" cx="335.7" cy="218.1" rx="329" ry="108.4"/>
		<ellipse class="st1" cx="335.7" cy="211.2" rx="329" ry="108.4"/>
		<ellipse class="st2" cx="335.7" cy="200.6" rx="231.1" ry="76.2"/>
	</g>
	<g>
		<path class="st3" d="M149.6,56.2c-0.2-4-0.5-9.5,0-15.2C148.7,47.1,148.9,52.2,149.6,56.2z"/>
		<path class="st4" d="M151.6,31.7c-0.1,0.1-0.2,0.2-0.3,0.5c0.1,0,0.2-0.1,0.3-0.1C151.5,31.9,151.6,31.8,151.6,31.7z"/>
		<path class="st4" d="M150.7,32.3c0,0.1,0,0.3-0.1,0.5c0.2-0.2,0.3-0.5,0.6-0.6C150.9,32.3,150.7,32.3,150.7,32.3z"/>
		<path class="st4" d="M149.6,41.1c0.3-2.8,1-5.8,2-9c-0.1,0-0.2,0.1-0.3,0.1c-0.2,0.2-0.3,0.5-0.6,0.6
			C150.1,35.5,149.7,38.3,149.6,41.1z"/>
		<path class="st5" d="M121.2,82.2c4,19.7,18.2,28.5,18.2,28.5C139.3,101,117.1,62.6,121.2,82.2z"/>
		<path class="st5" d="M134.1,75.2c-0.8,19.3,11.2,31.5,11.2,31.5C147.8,97.6,134.9,55.7,134.1,75.2z"/>
		<path class="st4" d="M150.3,63.5c0-0.1-0.5-3-0.7-7.3c-0.6-3.9-0.9-9.1,0-15.2c0.2-2.8,0.6-5.6,1-8.2
			c-18.7,20.7-30.9,36.4-30.9,36.4c-1.5,4.6-2.5,9-3.4,13.1C122.3,81.1,134.8,73.8,150.3,63.5z"/>
		<path class="st4" d="M151.2,62.9c-0.6-1.6-1.2-3.9-1.6-6.7c0.3,4.3,0.7,7.2,0.7,7.3C150.7,63.3,150.9,63.1,151.2,62.9z"/>
		<path class="st4" d="M150.3,63.5l10.3,33.3l1-0.7l-9.3-30.2c0,0-0.6-1-1.3-3C150.9,63.1,150.7,63.3,150.3,63.5L150.3,63.5z"/>
		<path class="st5" d="M184.7,63.3c4,19.7,18.2,28.5,18.2,28.5C202.8,82,180.6,43.6,184.7,63.3z"/>
		<path class="st5" d="M197.6,56.2c-0.8,19.3,11.2,31.5,11.2,31.5C211.3,78.6,198.3,36.8,197.6,56.2z"/>
		<g>
			<path class="st6" d="M151.4,169.1l14.6,6.5l3.2-16.3l-0.5,0.2C161.9,163.3,155.9,166.7,151.4,169.1z"/>
			<path class="st6" d="M207.2,208.2l-31.5-14l-5,24.9c14,18.3,27.1,30,36.2,36.9l7.4-36.6C212.1,215.7,209.7,211.9,207.2,208.2z"/>
			<path class="st6" d="M146.4,181c4.6,8.4,9.3,16.1,13.9,23l3.1-15.5L146.4,181z"/>
			<path class="st6" d="M219.1,264c0.9,0.6,1.5,0.8,1.5,0.8c11.8,3.7,23.4,5,34.6,4.4c-6.4-2.7-17.9-16.9-30.2-34.4L219.1,264z"/>
			<path class="st6" d="M178.5,181.3l16.8,7.5c-6.1-10.4-11-19.2-13.4-24.5L178.5,181.3z"/>
			<path class="st6" d="M214.5,219.4l-7.4,36.6c5.7,4.4,9.9,6.8,12,8l5.9-29.2C221.5,230,218,224.6,214.5,219.4z"/>
			<path class="st6" d="M207.2,208.2c-4.3-6.8-8.3-13.4-11.9-19.5l-16.8-7.5l3.5-17c-0.7-1.5-1.2-2.8-1.5-3.7l-1.9-6l-9.4,4.6
				l-3.2,16.3l-14.6-6.5l-0.1,0.1l-7.8,4.3c0,0-0.7-1.2-1.7-3.2l3.8,9.3c0.2,0.5,0.6,0.9,0.8,1.5l17,7.5l-3.1,15.5
				c3.6,5.4,7.2,10.4,10.6,14.9l5-24.9L207.2,208.2z"/>
			<path class="st7" d="M135,154.2l37.6-18.7l-11.9-38.6l-40.8,28.3c0,0-9.3-13.9-3.5-42.9c-0.3,0.1-0.6,0.1-0.9,0.1l-2,7.5
				l-3.2,12.5c0,0,0.5-0.3,1.2-0.9c0,0.5,0,1,0,1.7c1.4,12.7,23.7,55.2,30.2,67.2l-2.8-6.8L135,154.2z"/>
			<path class="st7" d="M119.9,125.1l40.8-28.2l-10.3-33.3l0,0c-15.5,10.4-28,17.6-34,18.7C110.6,111.3,119.9,125.1,119.9,125.1z"/>
			<path class="st7" d="M172.6,135.4L135,154.2l3.9,9.4l12.5,5.6c4.5-2.4,10.5-5.8,17.4-9.6l0.5-0.2l4.3-21.1L172.6,135.4z"/>
			<polygon class="st7" points="169.3,159.3 178.5,154.5 173.4,138.1 			"/>
			<path class="st7" d="M151.2,169.2l0.1-0.1l-12.5-5.6l2.8,6.8c1,2.1,1.7,3.2,1.7,3.2L151.2,169.2z"/>
			<path class="st4" d="M311.2,228.4c14.3-17.9-36.4-137.7-76-175.8c-36.6-35.2-77.5-22.7-83.6-20.6c-0.9,3.2-1.5,6.2-2,9
				c-0.5,5.7-0.2,11.1,0,15.2c0.5,2.8,1,5.1,1.6,6.7c0.7,2,1.3,3,1.3,3l9.3,30.2l11.9,38.9l0.6-0.2l-0.2,1.2l5.6,18.2l1.7,5.9
				c0.3,0.7,0.7,1.4,1,2.1c5,9.9,9.7,19,14.2,27.2c3.8,6.9,7.5,13.3,11.1,19.2c2.3,3.8,4.6,7.4,6.8,10.8c3.7,5.7,7.2,10.8,10.5,15.3
				c14.6,19.8,25.8,29.7,32.9,34.5c-0.9,0.1-1.9,0.1-2.8,0.1c0.7,0.2,1.3,0.5,1.9,0.5C271.2,269.6,296.8,246.3,311.2,228.4z
				 M279.3,147.5c12.5,8.7-17.1-1.3-22.6-6.5C256.7,140.9,266.7,138.7,279.3,147.5z M262.9,120.5c10.6,0.3-9.9,8.1-15.2,6.7
				C247.7,127.2,252.2,120.2,262.9,120.5z M208.8,87.6c0,0-12-12-11.2-31.5C198.3,36.8,211.3,78.6,208.8,87.6z M184.7,63.3
				c-4-19.7,18.2,18.7,18.2,28.5C202.8,91.7,188.7,82.9,184.7,63.3z M218.7,140.5c-11.1-16.9-15.2-33.8-9.3-37.7s19.7,6.7,30.8,23.6
				s15.2,33.8,9.3,37.7C243.4,168.1,229.7,157.5,218.7,140.5z M241.7,170.6c0,0,7.8,13.8,0,25.8C234.1,208.3,236.1,175,241.7,170.6z
				 M258.7,176.3c0,0,9.9,5.9,15,20.6C278.8,211.4,260,183.6,258.7,176.3z"/>
			<path class="st4" d="M214.5,219.4v-0.1c-2.2-3.4-4.5-6.9-6.8-10.8l-0.3-0.2C209.7,211.9,212.1,215.7,214.5,219.4z"/>
			<path class="st4" d="M225,234.6l-0.1,0.3c12.3,17.5,23.9,31.7,30.2,34.4c0.9,0,1.9-0.1,2.8-0.1
				C250.8,264.2,239.6,254.4,225,234.6z"/>
			<path class="st4" d="M195.3,188.7l1.3,0.6c-4.5-8.2-9.4-17.4-14.2-27.2l-0.5,2.2C184.3,169.5,189.2,178.4,195.3,188.7z"/>
			<path class="st4" d="M225,234.9l0.1-0.3c-3.4-4.5-6.8-9.6-10.5-15.3v0.1C218,224.6,221.5,230,225,234.9z"/>
			<path class="st4" d="M207.2,208.2l0.3,0.2c-3.6-5.9-7.3-12.3-11.1-19.2l-1.3-0.6C198.9,194.8,202.9,201.5,207.2,208.2z"/>
			<path class="st4" d="M180.4,160.5c0.2,0.9,0.8,2.1,1.5,3.7l0.5-2.2c-0.3-0.7-0.7-1.4-1-2.1l-1.7-5.9l-0.9,0.5L180.4,160.5z"/>
			<polygon class="st4" points="172.6,135.4 173.7,135 161.8,96.1 160.7,96.8 			"/>
			<polygon class="st4" points="173.4,138.1 173.9,135.9 173.7,135 172.6,135.4 			"/>
			<polygon class="st4" points="178.5,154.5 179.5,154.1 173.9,135.9 173.4,138.1 			"/>
			<polygon class="st4" points="174.1,134.7 173.7,135 173.9,135.9 			"/>
			<path class="st5" d="M279.3,147.5c-12.5-8.7-22.6-6.5-22.6-6.5C262.1,146.2,291.8,156.1,279.3,147.5z"/>
			<path class="st5" d="M273.7,196.8c-5.1-14.7-15-20.6-15-20.6C260,183.6,278.8,211.4,273.7,196.8z"/>
			<path class="st5" d="M241.7,170.6c-5.6,4.5-7.6,37.7,0,25.8C249.4,184.4,241.7,170.6,241.7,170.6z"/>
			<path class="st5" d="M262.9,120.5c-10.6-0.3-15.2,6.7-15.2,6.7C253,128.6,273.5,120.9,262.9,120.5z"/>
		</g>
	</g>
	<g>
		<path class="st3" d="M212.2,62.3c-0.2-4-0.5-9.5,0-15.2C211.4,53.3,211.6,58.4,212.2,62.3z"/>
		<path class="st4" d="M214.2,37.8c-0.1,0.1-0.2,0.2-0.3,0.5c0.1,0,0.2-0.1,0.3-0.1C214.2,38,214.2,37.9,214.2,37.8z"/>
		<path class="st4" d="M213.4,38.5c0,0.1,0,0.3-0.1,0.5c0.2-0.2,0.3-0.5,0.6-0.6C213.5,38.4,213.4,38.5,213.4,38.5z"/>
		<path class="st4" d="M212.2,47.2c0.3-2.8,1-5.8,2-9c-0.1,0-0.2,0.1-0.3,0.1c-0.2,0.2-0.3,0.5-0.6,0.6
			C212.7,41.6,212.4,44.4,212.2,47.2z"/>
		<path class="st5" d="M183.7,88.5c4,19.7,18.2,28.5,18.2,28.5C201.9,107.2,179.7,68.7,183.7,88.5z"/>
		<path class="st5" d="M196.7,81.3c-0.8,19.3,11.2,31.5,11.2,31.5C210.3,103.9,197.5,62,196.7,81.3z"/>
		<path class="st4" d="M213,69.6c0-0.1-0.5-3-0.7-7.3c-0.6-3.9-0.9-9.1,0-15.2c0.2-2.8,0.6-5.6,1-8.2
			c-18.7,20.7-30.9,36.4-30.9,36.4c-1.5,4.6-2.5,9-3.4,13.1C184.9,87.2,197.4,80,213,69.6z"/>
		<path class="st4" d="M213.8,69c-0.6-1.6-1.2-3.9-1.6-6.7c0.3,4.3,0.7,7.2,0.7,7.3C213.2,69.5,213.6,69.3,213.8,69z"/>
		<path class="st4" d="M213,69.6l10.3,33.3l1-0.7l-9.3-30.2c0,0-0.6-1-1.3-3C213.6,69.3,213.2,69.5,213,69.6L213,69.6z"/>
		<path class="st5" d="M247.2,69.4c4,19.7,18.2,28.5,18.2,28.5C265.4,88.1,243.2,49.7,247.2,69.4z"/>
		<path class="st5" d="M260.2,62.3c-0.8,19.3,11.2,31.5,11.2,31.5C273.9,84.8,261,43,260.2,62.3z"/>
		<g>
			<path class="st6" d="M214,175.2l14.6,6.5l3.2-16.3l-0.5,0.2C224.6,169.5,218.4,172.8,214,175.2z"/>
			<path class="st6" d="M269.9,214.5l-31.5-14.1l-5,24.9c14,18.3,27.1,30,36.2,36.9l7.4-36.6C274.7,221.9,272.2,218.2,269.9,214.5z"
				/>
			<path class="st6" d="M209,187.3c4.6,8.4,9.3,16.1,13.9,23l3.1-15.5L209,187.3z"/>
			<path class="st6" d="M281.7,270.2c0.9,0.6,1.5,0.8,1.5,0.8c11.8,3.7,23.4,5,34.6,4.4c-6.4-2.7-17.9-16.9-30.2-34.4L281.7,270.2z"
				/>
			<path class="st6" d="M241.1,187.4l16.8,7.5c-6.1-10.4-11-19.2-13.4-24.5L241.1,187.4z"/>
			<path class="st6" d="M277.1,225.6l-7.4,36.6c5.7,4.4,9.9,6.8,12,8l5.9-29.2C284.1,236.1,280.6,230.9,277.1,225.6z"/>
			<path class="st6" d="M269.9,214.5c-4.3-6.8-8.3-13.4-11.9-19.5l-16.8-7.5l3.5-17c-0.7-1.5-1.2-2.8-1.5-3.7l-1.9-6l-9.4,4.6
				l-3.2,16.3l-14.6-6.5l-0.1,0.1l-7.8,4.3c0,0-0.7-1.2-1.7-3.2l3.8,9.3c0.2,0.5,0.6,0.9,0.8,1.5l17,7.5l-3.1,15.5
				c3.6,5.4,7.2,10.4,10.6,14.9l5-24.9L269.9,214.5z"/>
			<path class="st7" d="M197.6,160.3l37.6-18.7l-11.9-38.6l-40.8,28.2c0,0-9.3-13.9-3.5-42.9c-0.3,0.1-0.6,0.1-0.9,0.1l-2,7.5
				l-3.2,12.5c0,0,0.5-0.3,1.2-0.9c0,0.5,0,1,0,1.7c1.4,12.7,23.7,55.2,30.2,67.2l-2.8-6.8L197.6,160.3z"/>
			<path class="st7" d="M182.5,131.3l40.8-28.2L213,69.7l0,0c-15.5,10.4-28,17.6-34,18.7C173.2,117.4,182.5,131.3,182.5,131.3z"/>
			<path class="st7" d="M235.2,141.7l-37.6,18.7l3.9,9.4l12.5,5.6c4.5-2.4,10.5-5.8,17.4-9.6l0.5-0.2l4.3-21.1L235.2,141.7z"/>
			<polygon class="st7" points="231.9,165.4 241.2,160.8 236.1,144.4 			"/>
			<path class="st7" d="M213.8,175.4l0.1-0.1l-12.5-5.6l2.8,6.8c1,2.1,1.7,3.2,1.7,3.2L213.8,175.4z"/>
			<path class="st4" d="M373.8,234.6c14.3-17.9-36.4-137.7-76-175.8c-36.6-35.2-77.5-22.7-83.6-20.6c-0.9,3.2-1.5,6.2-2,9
				c-0.5,5.7-0.2,11.1,0,15.2c0.5,2.8,1,5.1,1.6,6.7c0.7,2,1.3,3,1.3,3l9.3,30.2l11.9,38.9l0.6-0.2l-0.2,1.2l5.6,18.2l1.7,5.9
				c0.3,0.7,0.7,1.4,1,2.1c5,9.9,9.7,19,14.2,27.2c3.8,6.9,7.5,13.3,11.1,19.2c2.3,3.8,4.6,7.4,6.8,10.8c3.7,5.7,7.2,10.8,10.5,15.3
				c14.6,19.8,25.8,29.7,32.9,34.5c-0.9,0.1-1.9,0.1-2.8,0.1c0.7,0.2,1.3,0.5,1.9,0.5C333.9,275.8,359.5,252.5,373.8,234.6z
				 M341.9,153.6c12.5,8.7-17.1-1.3-22.6-6.5C319.3,147.1,329.4,144.9,341.9,153.6z M325.6,126.7c10.6,0.3-9.9,8.1-15.2,6.7
				C310.4,133.5,314.9,126.4,325.6,126.7z M271.5,93.8c0,0-12-12-11.2-31.5C261,43,273.9,84.8,271.5,93.8z M247.2,69.4
				c-4-19.7,18.2,18.7,18.2,28.5C265.4,97.8,251.3,89.2,247.2,69.4z M281.3,146.8c-11.1-16.9-15.2-33.8-9.3-37.7
				c5.9-3.9,19.7,6.7,30.8,23.6c11.1,16.9,15.2,33.8,9.3,37.7C306.1,174.2,292.4,163.7,281.3,146.8z M304.4,176.7
				c0,0,7.8,13.8,0,25.8C296.8,214.5,298.8,181.3,304.4,176.7z M321.3,182.4c0,0,9.9,5.9,15,20.6
				C341.4,217.7,322.6,189.7,321.3,182.4z"/>
			<path class="st4" d="M277.1,225.6v-0.1c-2.2-3.4-4.5-6.9-6.8-10.8l-0.3-0.2C272.2,218.2,274.7,221.9,277.1,225.6z"/>
			<path class="st4" d="M287.7,240.7l-0.1,0.3c12.3,17.5,23.9,31.7,30.2,34.4c0.9,0,1.9-0.1,2.8-0.1
				C313.4,270.4,302.3,260.5,287.7,240.7z"/>
			<path class="st4" d="M257.9,194.9l1.3,0.6c-4.5-8.2-9.4-17.4-14.2-27.2l-0.5,2.2C246.9,175.7,251.8,184.5,257.9,194.9z"/>
			<path class="st4" d="M287.6,241.1l0.1-0.3c-3.4-4.5-6.8-9.6-10.5-15.3v0.1C280.6,230.9,284.1,236.1,287.6,241.1z"/>
			<path class="st4" d="M269.9,214.5l0.3,0.2c-3.6-5.9-7.3-12.3-11.1-19.2l-1.3-0.6C261.6,201,265.6,207.6,269.9,214.5z"/>
			<path class="st4" d="M243.1,166.7c0.2,0.9,0.8,2.1,1.5,3.7l0.5-2.2c-0.3-0.7-0.7-1.4-1-2.1l-1.7-5.9l-0.9,0.5L243.1,166.7z"/>
			<polygon class="st4" points="235.2,141.7 236.3,141.1 224.3,102.4 223.3,103.1 			"/>
			<polygon class="st4" points="236.1,144.4 236.5,142 236.3,141.1 235.2,141.7 			"/>
			<polygon class="st4" points="241.2,160.8 242.2,160.3 236.5,142 236.1,144.4 			"/>
			<polygon class="st4" points="236.8,140.9 236.3,141.1 236.5,142 			"/>
			<path class="st5" d="M341.9,153.6c-12.5-8.7-22.6-6.5-22.6-6.5C324.7,152.3,354.4,162.4,341.9,153.6z"/>
			<path class="st5" d="M336.3,203c-5.1-14.7-15-20.6-15-20.6C322.6,189.7,341.4,217.7,336.3,203z"/>
			<path class="st5" d="M304.4,176.7c-5.6,4.5-7.6,37.7,0,25.8C312,190.5,304.4,176.7,304.4,176.7z"/>
			<path class="st5" d="M325.6,126.7c-10.6-0.3-15.2,6.7-15.2,6.7C315.6,134.7,336.2,127,325.6,126.7z"/>
		</g>
	</g>
	<g>
		<path class="st3" d="M274.8,62.3c-0.2-4-0.5-9.5,0-15.2C274,53.3,274.2,58.4,274.8,62.3z"/>
		<path class="st4" d="M276.9,37.8c-0.1,0.1-0.2,0.2-0.3,0.5c0.1,0,0.2-0.1,0.3-0.1C276.7,38,276.7,37.9,276.9,37.8z"/>
		<path class="st4" d="M275.9,38.5c0,0.1,0,0.3-0.1,0.5c0.2-0.2,0.3-0.5,0.6-0.6C276.1,38.4,275.9,38.5,275.9,38.5z"/>
		<path class="st4" d="M274.8,47.2c0.3-2.8,1-5.8,2-9c-0.1,0-0.2,0.1-0.3,0.1c-0.2,0.2-0.3,0.5-0.6,0.6
			C275.4,41.6,275,44.4,274.8,47.2z"/>
		<path class="st5" d="M246.4,88.5c4,19.7,18.2,28.5,18.2,28.5C264.6,107.2,242.3,68.7,246.4,88.5z"/>
		<path class="st5" d="M259.4,81.3c-0.8,19.3,11.2,31.5,11.2,31.5C273,103.9,260.1,62,259.4,81.3z"/>
		<path class="st4" d="M275.6,69.6c0-0.1-0.5-3-0.7-7.3c-0.6-3.9-0.9-9.1,0-15.2c0.2-2.8,0.6-5.6,1-8.2
			C257.2,59.7,245,75.4,245,75.4c-1.5,4.6-2.5,9-3.4,13.1C247.6,87.2,260.1,80,275.6,69.6z"/>
		<path class="st4" d="M276.4,69c-0.6-1.6-1.2-3.9-1.6-6.7c0.3,4.3,0.7,7.2,0.7,7.3C275.8,69.5,276.2,69.3,276.4,69z"/>
		<path class="st4" d="M275.6,69.6l10.3,33.3l1-0.7l-9.3-30.2c0,0-0.6-1-1.3-3C276.2,69.3,275.8,69.5,275.6,69.6L275.6,69.6z"/>
		<path class="st5" d="M309.8,69.4c4,19.7,18.2,28.5,18.2,28.5C328.1,88.1,305.8,49.7,309.8,69.4z"/>
		<path class="st5" d="M322.8,62.3C322,81.7,334,93.8,334,93.8C336.4,84.8,323.6,43,322.8,62.3z"/>
		<g>
			<path class="st6" d="M276.6,175.2l14.6,6.5l3.2-16.3l-0.5,0.2C287.2,169.5,281.1,172.8,276.6,175.2z"/>
			<path class="st6" d="M332.5,214.5l-31.3-14.1l-5,24.9c14,18.3,27.1,30,36.2,36.9l7.4-36.6C337.2,221.9,334.8,218.2,332.5,214.5z"
				/>
			<path class="st6" d="M271.7,187.3c4.6,8.4,9.3,16.1,13.9,23l3.1-15.5L271.7,187.3z"/>
			<path class="st6" d="M344.4,270.2c0.9,0.6,1.5,0.8,1.5,0.8c11.8,3.7,23.4,5,34.6,4.4c-6.4-2.7-17.9-16.9-30.2-34.4L344.4,270.2z"
				/>
			<path class="st6" d="M303.7,187.4l16.8,7.5c-6.1-10.4-11-19.2-13.4-24.5L303.7,187.4z"/>
			<path class="st6" d="M339.7,225.6l-7.4,36.6c5.7,4.4,9.9,6.8,12,8l5.9-29.2C346.7,236.1,343.1,230.9,339.7,225.6z"/>
			<path class="st6" d="M332.5,214.5c-4.3-6.8-8.3-13.4-11.9-19.5l-16.8-7.5l3.5-17c-0.7-1.5-1.2-2.8-1.5-3.7l-1.9-6l-9.4,4.6
				l-3.2,16.3l-14.6-6.5l-0.1,0.1l-7.8,4.3c0,0-0.7-1.2-1.7-3.2l3.8,9.3c0.2,0.5,0.6,0.9,0.8,1.5l17,7.5l-3.1,15.5
				c3.6,5.4,7.2,10.4,10.6,14.9l5-24.9L332.5,214.5z"/>
			<path class="st7" d="M260.2,160.3l37.6-18.7l-11.9-38.6L245,131.2c0,0-9.3-13.9-3.5-42.9c-0.3,0.1-0.6,0.1-0.9,0.1l-2,7.5
				l-3.2,12.5c0,0,0.5-0.3,1.2-0.9c0,0.5,0,1,0,1.7c1.4,12.7,23.7,55.2,30.2,67.2l-2.8-6.8L260.2,160.3z"/>
			<path class="st7" d="M245,131.3l40.8-28.2l-10.3-33.3l0,0c-15.5,10.4-28,17.6-34,18.7C235.8,117.4,245,131.3,245,131.3z"/>
			<path class="st7" d="M297.9,141.7l-37.7,18.6l3.9,9.4l12.5,5.6c4.5-2.4,10.5-5.8,17.4-9.6l0.5-0.2l4.3-21.1L297.9,141.7z"/>
			<polygon class="st7" points="294.4,165.4 303.8,160.8 298.7,144.4 			"/>
			<path class="st7" d="M276.5,175.4l0.1-0.1l-12.5-5.6l2.8,6.8c1,2.1,1.7,3.2,1.7,3.2L276.5,175.4z"/>
			<path class="st4" d="M436.4,234.6c14.3-17.9-36.4-137.7-76-175.8c-36.6-35.2-77.5-22.7-83.6-20.6c-0.9,3.2-1.5,6.2-2,9
				c-0.5,5.7-0.2,11.1,0,15.2c0.5,2.8,1,5.1,1.6,6.7c0.7,2,1.3,3,1.3,3l9.3,30.2l11.9,38.9l0.6-0.2l-0.2,1.2l5.6,18.2l1.7,5.9
				c0.3,0.7,0.7,1.4,1,2.1c5,9.9,9.7,19,14.2,27.2c3.8,6.9,7.5,13.3,11.1,19.2c2.3,3.8,4.6,7.4,6.8,10.8c3.7,5.7,7.2,10.8,10.5,15.3
				c14.6,19.8,25.8,29.7,32.9,34.5c-0.9,0.1-1.9,0.1-2.8,0.1c0.7,0.2,1.3,0.5,1.9,0.5C396.5,275.8,422,252.5,436.4,234.6z
				 M404.5,153.6c12.5,8.7-17.1-1.3-22.6-6.5C381.9,147.1,392,144.9,404.5,153.6z M388.1,126.7c10.6,0.3-9.9,8.1-15.2,6.7
				C373,133.5,377.5,126.4,388.1,126.7z M334.1,93.8c0,0-12-12-11.2-31.5C323.6,43,336.4,84.8,334.1,93.8z M309.8,69.4
				c-4-19.7,18.2,18.7,18.2,28.5C328.1,97.8,314,89.2,309.8,69.4z M343.8,146.8c-11.1-16.9-15.2-33.8-9.3-37.7
				c5.9-3.9,19.7,6.7,30.8,23.6s15.2,33.8,9.3,37.7C368.7,174.2,354.9,163.7,343.8,146.8z M367,176.7c0,0,7.8,13.8,0,25.8
				C359.3,214.5,361.4,181.3,367,176.7z M384,182.4c0,0,9.9,5.9,15,20.6C404,217.7,385.2,189.7,384,182.4z"/>
			<path class="st4" d="M339.7,225.6v-0.1c-2.2-3.4-4.5-6.9-6.8-10.8l-0.3-0.2C334.8,218.2,337.2,221.9,339.7,225.6z"/>
			<path class="st4" d="M350.3,240.7l-0.1,0.3c12.3,17.5,23.9,31.7,30.2,34.4c0.9,0,1.9-0.1,2.8-0.1
				C376.1,270.4,364.9,260.5,350.3,240.7z"/>
			<path class="st4" d="M320.6,194.9l1.3,0.6c-4.5-8.2-9.4-17.4-14.2-27.2l-0.5,2.2C309.6,175.7,314.5,184.5,320.6,194.9z"/>
			<path class="st4" d="M350.2,241.1l0.1-0.3c-3.4-4.5-6.8-9.6-10.5-15.3v0.1C343.1,230.9,346.7,236.1,350.2,241.1z"/>
			<path class="st4" d="M332.5,214.5l0.3,0.2c-3.6-5.9-7.3-12.3-11.1-19.2l-1.3-0.6C324.2,201,328.2,207.6,332.5,214.5z"/>
			<path class="st4" d="M305.7,166.7c0.2,0.9,0.8,2.1,1.5,3.7l0.5-2.2c-0.3-0.7-0.7-1.4-1-2.1l-1.7-5.9l-0.9,0.5L305.7,166.7z"/>
			<polygon class="st4" points="297.9,141.7 298.8,141.1 286.9,102.4 285.9,103.1 			"/>
			<polygon class="st4" points="298.7,144.4 299.2,142 298.8,141.1 297.9,141.7 			"/>
			<polygon class="st4" points="303.8,160.8 304.7,160.3 299.2,142 298.7,144.4 			"/>
			<polygon class="st4" points="299.4,140.9 298.8,141.1 299.2,142 			"/>
			<path class="st5" d="M404.5,153.6c-12.5-8.7-22.6-6.5-22.6-6.5C387.3,152.3,416.9,162.4,404.5,153.6z"/>
			<path class="st5" d="M398.9,203c-5.1-14.7-15-20.6-15-20.6C385.2,189.7,404,217.7,398.9,203z"/>
			<path class="st5" d="M367,176.7c-5.6,4.5-7.6,37.7,0,25.8C374.6,190.5,367,176.7,367,176.7z"/>
			<path class="st5" d="M388.1,126.7c-10.6-0.3-15.2,6.7-15.2,6.7C378.2,134.7,398.8,127,388.1,126.7z"/>
		</g>
	</g>
	<g>
		<path class="st3" d="M345.2,61.4c-0.2-4-0.5-9.5,0-15.2C344.3,52.3,344.5,57.4,345.2,61.4z"/>
		<path class="st4" d="M347.2,36.9c-0.1,0.1-0.2,0.2-0.3,0.5c0.1,0,0.2-0.1,0.3-0.1C347.1,37.1,347.1,37,347.2,36.9z"/>
		<path class="st4" d="M346.3,37.5c0,0.1,0,0.3-0.1,0.5c0.2-0.2,0.3-0.5,0.6-0.6C346.5,37.5,346.3,37.5,346.3,37.5z"/>
		<path class="st4" d="M345.1,46.3c0.3-2.8,1-5.8,2-9c-0.1,0-0.2,0.1-0.3,0.1c-0.2,0.2-0.3,0.5-0.6,0.6
			C345.7,40.7,345.3,43.5,345.1,46.3z"/>
		<path class="st5" d="M316.8,87.4c4,19.7,18.2,28.5,18.2,28.5C334.9,106.2,312.6,67.8,316.8,87.4z"/>
		<path class="st5" d="M329.7,80.4c-0.8,19.3,11.2,31.5,11.2,31.5C343.4,102.8,330.4,60.9,329.7,80.4z"/>
		<path class="st4" d="M345.9,68.7c0-0.1-0.5-3-0.7-7.3c-0.6-3.9-0.9-9.1,0-15.2c0.2-2.8,0.6-5.6,1-8.2
			c-18.7,20.7-30.9,36.4-30.9,36.4c-1.5,4.6-2.5,9-3.4,13.1C317.9,86.3,330.4,79,345.9,68.7z"/>
		<path class="st4" d="M346.8,68.1c-0.6-1.6-1.2-3.9-1.6-6.7c0.3,4.3,0.7,7.2,0.7,7.3C346.1,68.5,346.5,68.4,346.8,68.1z"/>
		<path class="st4" d="M345.9,68.7l10.3,33.3l1-0.7L348,71.1c0,0-0.6-1-1.3-3C346.5,68.4,346.1,68.5,345.9,68.7L345.9,68.7z"/>
		<path class="st5" d="M380.3,68.5c4,19.7,18.2,28.5,18.2,28.5C398.4,87.2,376.1,48.8,380.3,68.5z"/>
		<path class="st5" d="M393.1,61.4c-0.8,19.3,11.2,31.5,11.2,31.5C406.8,83.9,393.9,42,393.1,61.4z"/>
		<g>
			<path class="st6" d="M347,174.3l14.6,6.5l3.2-16.3l-0.5,0.2C357.5,168.5,351.5,171.8,347,174.3z"/>
			<path class="st6" d="M402.8,213.4l-31.5-14l-5,24.9c14,18.3,27.1,30,36.2,36.9l7.4-36.6C407.6,220.9,405.1,217.1,402.8,213.4z"/>
			<path class="st6" d="M342,186.2c4.6,8.4,9.3,16.1,13.9,23l3.1-15.5L342,186.2z"/>
			<path class="st6" d="M414.7,269.2c0.9,0.6,1.5,0.8,1.5,0.8c11.8,3.7,23.4,5,34.6,4.4c-6.4-2.7-17.9-16.9-30.2-34.4L414.7,269.2z"
				/>
			<path class="st6" d="M374,186.3l16.8,7.5c-6.1-10.4-11-19.2-13.4-24.5L374,186.3z"/>
			<path class="st6" d="M410,224.6l-7.4,36.6c5.7,4.4,9.9,6.8,12,8l5.9-29.2C417.1,235.2,413.5,229.8,410,224.6z"/>
			<path class="st6" d="M402.8,213.4c-4.3-6.8-8.3-13.4-11.9-19.5l-16.8-7.5l3.5-17c-0.7-1.5-1.2-2.8-1.5-3.7l-1.9-6l-9.4,4.6
				l-3.2,16.3l-14.6-6.5l-0.1,0.1l-7.8,4.3c0,0-0.7-1.2-1.7-3.2l3.8,9.3c0.2,0.5,0.6,0.9,0.8,1.5l17,7.5L356,209
				c3.6,5.4,7.2,10.4,10.6,14.9l5-24.9L402.8,213.4z"/>
			<path class="st7" d="M330.5,159.4l37.6-18.7L356.2,102l-40.8,28.2c0,0-9.3-13.9-3.5-42.9c-0.3,0.1-0.6,0.1-0.9,0.1l-2,7.5
				l-3.2,12.5c0,0,0.5-0.3,1.2-0.9c0,0.5,0,1,0,1.7c1.4,12.7,23.7,55.2,30.2,67.2l-2.8-6.8L330.5,159.4z"/>
			<path class="st7" d="M315.5,130.4l40.7-28.3l-10.3-33.3l0,0c-15.5,10.4-28,17.6-34,18.7C306.1,116.5,315.5,130.4,315.5,130.4z"/>
			<path class="st7" d="M368.2,140.6l-37.6,18.7l3.9,9.4l12.5,5.6c4.5-2.4,10.5-5.8,17.4-9.6l0.5-0.2l4.3-21.1L368.2,140.6z"/>
			<polygon class="st7" points="364.8,164.5 374.1,159.7 369.1,143.3 			"/>
			<path class="st7" d="M346.8,174.4l0.1-0.1l-12.5-5.6l2.8,6.8c1,2.1,1.7,3.2,1.7,3.2L346.8,174.4z"/>
			<path class="st4" d="M506.7,233.5c14.3-17.9-36.4-137.7-76-175.8c-36.6-35.2-77.5-22.7-83.6-20.6c-0.9,3.2-1.5,6.2-2,9
				c-0.5,5.7-0.2,11.1,0,15.2c0.5,2.8,1,5.1,1.6,6.7c0.7,2,1.3,3,1.3,3l9.3,30.2l11.9,38.9l0.6-0.2l-0.2,1.2l5.6,18.2l1.7,5.9
				c0.3,0.7,0.7,1.4,1,2.1c5,9.9,9.7,19,14.2,27.2c3.8,6.9,7.5,13.3,11.1,19.2c2.3,3.8,4.6,7.4,6.8,10.8c3.7,5.7,7.2,10.8,10.5,15.3
				c14.6,19.8,25.8,29.7,32.9,34.5c-0.9,0.1-1.9,0.1-2.8,0.1c0.7,0.2,1.3,0.5,1.9,0.5C466.8,274.8,492.4,251.5,506.7,233.5z
				 M474.8,152.7c12.5,8.7-17.1-1.3-22.6-6.5C452.2,146.1,462.3,143.9,474.8,152.7z M458.5,125.7c10.6,0.3-9.9,8.1-15.2,6.7
				C443.3,132.4,447.8,125.4,458.5,125.7z M404.5,92.8c0,0-12-12-11.2-31.5C393.9,42,406.8,83.9,404.5,92.8z M380.3,68.5
				c-4-19.7,18.2,18.7,18.2,28.5C398.4,96.9,384.3,88.1,380.3,68.5z M414.2,145.7c-11.1-16.9-15.2-33.8-9.3-37.7
				c5.9-3.9,19.7,6.7,30.8,23.6s15.2,33.8,9.3,37.7C439,173.3,425.3,162.6,414.2,145.7z M437.3,175.7c0,0,7.8,13.8,0,25.8
				C429.7,213.5,431.7,180.2,437.3,175.7z M454.3,181.5c0,0,9.9,5.9,15,20.6C474.3,216.6,455.6,188.8,454.3,181.5z"/>
			<path class="st4" d="M410,224.6v-0.1c-2.2-3.4-4.5-6.9-6.8-10.8l-0.3-0.2C405.1,217.1,407.6,220.9,410,224.6z"/>
			<path class="st4" d="M420.6,239.8l-0.1,0.3c12.3,17.5,23.9,31.7,30.2,34.4c0.9,0,1.9-0.1,2.8-0.1
				C446.4,269.4,435.2,259.6,420.6,239.8z"/>
			<path class="st4" d="M390.9,193.9l1.3,0.6c-4.5-8.2-9.4-17.4-14.2-27.2l-0.5,2.2C379.9,174.7,384.8,183.6,390.9,193.9z"/>
			<path class="st4" d="M420.5,240.1l0.1-0.3c-3.4-4.5-6.8-9.6-10.5-15.3v0.1C413.5,229.8,417.1,235.2,420.5,240.1z"/>
			<path class="st4" d="M402.8,213.4l0.3,0.2c-3.6-5.9-7.3-12.3-11.1-19.2l-1.3-0.6C394.5,200,398.6,206.7,402.8,213.4z"/>
			<path class="st4" d="M376,165.8c0.2,0.9,0.8,2.1,1.5,3.7l0.5-2.2c-0.3-0.7-0.7-1.4-1-2.1l-1.7-5.9l-0.9,0.5L376,165.8z"/>
			<polygon class="st4" points="368.2,140.6 369.2,140.2 357.3,101.3 356.2,102 			"/>
			<polygon class="st4" points="369.1,143.3 369.5,141.1 369.2,140.2 368.2,140.6 			"/>
			<polygon class="st4" points="374.1,159.7 375.1,159.3 369.5,141.1 369.1,143.3 			"/>
			<polygon class="st4" points="369.7,140 369.2,140.2 369.5,141.1 			"/>
			<path class="st5" d="M474.8,152.7c-12.5-8.7-22.6-6.5-22.6-6.5C457.7,151.4,487.3,161.4,474.8,152.7z"/>
			<path class="st5" d="M469.2,202c-5.1-14.7-15-20.6-15-20.6C455.6,188.8,474.3,216.6,469.2,202z"/>
			<path class="st5" d="M437.3,175.7c-5.6,4.5-7.6,37.7,0,25.8C444.9,189.6,437.3,175.7,437.3,175.7z"/>
			<path class="st5" d="M458.5,125.7c-10.6-0.3-15.2,6.7-15.2,6.7C448.5,133.8,469.1,126.1,458.5,125.7z"/>
		</g>
	</g>
</g>
</svg>
