<svg version="1.1" id="el_c0kFTgD2e" xmlns="http://www.w3.org/2000/svg" xmlns:xlink="http://www.w3.org/1999/xlink" x="0px" y="0px" viewBox="0 0 576 576" style="enable-background:new 0 0 576 576;" xml:space="preserve"><style>@-webkit-keyframes kf_el_qOl9mOTsqSk_an_n_rEqQEM8{0%{-webkit-transform: translate(181.17449951171875px, 267.6000061035156px) translate(-181.17449951171875px, -267.6000061035156px) translate(0px, 0px);transform: translate(181.17449951171875px, 267.6000061035156px) translate(-181.17449951171875px, -267.6000061035156px) translate(0px, 0px);}41.67%{-webkit-transform: translate(181.17449951171875px, 267.6000061035156px) translate(-181.17449951171875px, -267.6000061035156px) translate(-50px, 0px);transform: translate(181.17449951171875px, 267.6000061035156px) translate(-181.17449951171875px, -267.6000061035156px) translate(-50px, 0px);}100%{-webkit-transform: translate(181.17449951171875px, 267.6000061035156px) translate(-181.17449951171875px, -267.6000061035156px) translate(-50px, 0px);transform: translate(181.17449951171875px, 267.6000061035156px) translate(-181.17449951171875px, -267.6000061035156px) translate(-50px, 0px);}}@keyframes kf_el_qOl9mOTsqSk_an_n_rEqQEM8{0%{-webkit-transform: translate(181.17449951171875px, 267.6000061035156px) translate(-181.17449951171875px, -267.6000061035156px) translate(0px, 0px);transform: translate(181.17449951171875px, 267.6000061035156px) translate(-181.17449951171875px, -267.6000061035156px) translate(0px, 0px);}41.67%{-webkit-transform: translate(181.17449951171875px, 267.6000061035156px) translate(-181.17449951171875px, -267.6000061035156px) translate(-50px, 0px);transform: translate(181.17449951171875px, 267.6000061035156px) translate(-181.17449951171875px, -267.6000061035156px) translate(-50px, 0px);}100%{-webkit-transform: translate(181.17449951171875px, 267.6000061035156px) translate(-181.17449951171875px, -267.6000061035156px) translate(-50px, 0px);transform: translate(181.17449951171875px, 267.6000061035156px) translate(-181.17449951171875px, -267.6000061035156px) translate(-50px, 0px);}}@-webkit-keyframes kf_el_E9P5HlulNEI_an_KzTFVjQf1{0%{-webkit-transform: translate(144.5px, 39.303321838378906px) translate(-144.5px, -39.303321838378906px) translate(0px, 0px);transform: translate(144.5px, 39.303321838378906px) translate(-144.5px, -39.303321838378906px) translate(0px, 0px);}41.67%{-webkit-transform: translate(144.5px, 39.303321838378906px) translate(-144.5px, -39.303321838378906px) translate(0px, 800px);transform: translate(144.5px, 39.303321838378906px) translate(-144.5px, -39.303321838378906px) translate(0px, 800px);}100%{-webkit-transform: translate(144.5px, 39.303321838378906px) translate(-144.5px, -39.303321838378906px) translate(0px, 800px);transform: translate(144.5px, 39.303321838378906px) translate(-144.5px, -39.303321838378906px) translate(0px, 800px);}}@keyframes kf_el_E9P5HlulNEI_an_KzTFVjQf1{0%{-webkit-transform: translate(144.5px, 39.303321838378906px) translate(-144.5px, -39.303321838378906px) translate(0px, 0px);transform: translate(144.5px, 39.303321838378906px) translate(-144.5px, -39.303321838378906px) translate(0px, 0px);}41.67%{-webkit-transform: translate(144.5px, 39.303321838378906px) translate(-144.5px, -39.303321838378906px) translate(0px, 800px);transform: translate(144.5px, 39.303321838378906px) translate(-144.5px, -39.303321838378906px) translate(0px, 800px);}100%{-webkit-transform: translate(144.5px, 39.303321838378906px) translate(-144.5px, -39.303321838378906px) translate(0px, 800px);transform: translate(144.5px, 39.303321838378906px) translate(-144.5px, -39.303321838378906px) translate(0px, 800px);}}#el_c0kFTgD2e *{-webkit-animation-duration: 2s;animation-duration: 2s;-webkit-animation-iteration-count: infinite;animation-iteration-count: infinite;-webkit-animation-timing-function: cubic-bezier(0, 0, 1, 1);animation-timing-function: cubic-bezier(0, 0, 1, 1);}#el_-E9q1ZqGhi{fill: #F9DC0B;}#el_AFSpLuqcVD{fill: #EAC50F;}#el_xzIKSnChfP{fill: #EAC50F;}#el_ZBX2CTYLP4{fill: #EAC50F;}#el_23uXRKAold{fill: #EAC50F;}#el_kFf5h-45Am{fill: #EAC50F;}#el_pCwwnfrbYo{fill: #F2D10C;}#el_rNs6iZe3wS{fill: #FECF25;}#el_eonAsWuV7p{fill: #EAC50F;}#el_UJVZWmvOND{fill: #F9DC0B;}#el_PHkw3-vsWV{fill: #FECF25;-webkit-transform: matrix(0.9179, -0.3969, 0.3969, 0.9179, -134.1921, 86.9975);transform: matrix(0.9179, -0.3969, 0.3969, 0.9179, -134.1921, 86.9975);}#el_M0KjXXqKP1{fill: #FECF25;}#el_ycWj4OVUsZ{fill: #FECF25;}#el_rN_UxeI-0L{fill: #FECF25;}#el_C6oBYPw35A{fill: #FECF25;}#el_XMEIw7f_oWR{fill: #FECF25;}#el_N25fAWx4Axc{fill: #FECF25;}#el_zSeb7D9L52p{fill: #F9DC0B;}#el_Mlae5aAJv_3{fill: #EAC50F;}#el_wv57reCCzBP{fill: #EAC50F;}#el_f-cFgH2e6_N{fill: #EAC50F;}#el_W1PkHuXAI81{fill: #EAC50F;}#el_M6emfeLzuMi{fill: #EAC50F;}#el_FlyIf3ZMZMJ{fill: #EAC50F;}#el_tmZCxGz8Rlg{fill: #EAC50F;}#el_01B-Owojl9F{fill: #F2D10C;}#el_l1HHshQEtE3{fill: #F2D10C;}#el_rVNupe1cDUI{fill: #F2D10C;}#el_KrSZKx2fpcx{fill: #F2D10C;}#el_IDTl3qhGi-0{fill: #F2D10C;}#el_bNr4KssETVj{fill: #FECF25;}#el__YCCU99CRRH{fill: #F9DC0B;}#el_UWzxZLdM4ia{fill: #FECF25;-webkit-transform: matrix(2.060439e-02, -0.9998, 0.9998, 2.060439e-02, -103.2138, 650.5198);transform: matrix(2.060439e-02, -0.9998, 0.9998, 2.060439e-02, -103.2138, 650.5198);}#el_G0R4bIu4mh_{fill: #FECF25;}#el_Pc9_TSWsD2h{fill: #FECF25;}#el_cLBrn0HOZXa{fill: #FECF25;}#el_vAR7PMMt56k{fill: #FECF25;}#el_bObaFxhFegQ{fill: #FECF25;}#el_Aw3YJYAHNQc{fill: #FECF25;}#el_QmyVLKIbX7R{fill: #C1B4BE;}#el_zsZMU5Z4aYd{fill: #E2D2DD;}#el_h1LGG-cp0GV{fill: #29353F;}#el_ZwM5onW5ce5{fill: #374757;}#el_sOEHwNlBrNu{fill: #EAC50F;}#el_U-mdAJTG5FP{fill: #EAC50F;}#el_aWl7dfARacK{fill: #EAC50F;}#el_-BT1LUhRd2P{fill: #F9DC0B;}#el_uupXFv0ODq9{fill: #FECF25;-webkit-transform: matrix(0.9982, -5.993563e-02, 5.993563e-02, 0.9982, -22.4154, 30.4004);transform: matrix(0.9982, -5.993563e-02, 5.993563e-02, 0.9982, -22.4154, 30.4004);}#el_fpNKo-R3cKL{fill: #FECF25;}#el_P5wO_BgkX05{fill: #FECF25;}#el_Ng-RVusCJe3{fill: #FECF25;}#el_8upETGOTWhY{fill: #FECF25;}#el_bgIoXcqtmAs{fill: #FECF25;}#el_QgYqViPxpTt{fill: #FECF25;}#el_Y3jyhoKZYNy{fill: #EAC50F;}#el_-pdxmKQE0HL{fill: #F2D10C;}#el_xS5fxTBLB-5{fill: #F2D10C;}#el_E9P5HlulNEI_an_KzTFVjQf1{-webkit-animation-fill-mode: backwards;animation-fill-mode: backwards;-webkit-transform: translate(144.5px, 39.303321838378906px) translate(-144.5px, -39.303321838378906px) translate(0px, 0px);transform: translate(144.5px, 39.303321838378906px) translate(-144.5px, -39.303321838378906px) translate(0px, 0px);-webkit-animation-name: kf_el_E9P5HlulNEI_an_KzTFVjQf1;animation-name: kf_el_E9P5HlulNEI_an_KzTFVjQf1;-webkit-animation-timing-function: cubic-bezier(0, 0, 1, 1);animation-timing-function: cubic-bezier(0, 0, 1, 1);}#el_qOl9mOTsqSk_an_n_rEqQEM8{-webkit-animation-fill-mode: backwards;animation-fill-mode: backwards;-webkit-transform: translate(181.17449951171875px, 267.6000061035156px) translate(-181.17449951171875px, -267.6000061035156px) translate(0px, 0px);transform: translate(181.17449951171875px, 267.6000061035156px) translate(-181.17449951171875px, -267.6000061035156px) translate(0px, 0px);-webkit-animation-name: kf_el_qOl9mOTsqSk_an_n_rEqQEM8;animation-name: kf_el_qOl9mOTsqSk_an_n_rEqQEM8;-webkit-animation-timing-function: cubic-bezier(0, 0, 1, 1);animation-timing-function: cubic-bezier(0, 0, 1, 1);}</style>

<path d="M89.5,270.9c-21.5,15.8-37.2,28.2-41.3,31.5c-0.7,0.6-1.3,1.2-1.8,2c-2.4,3.9-4.1,7.6-5.7,11.1&#10;&#9;c6.6-0.4,22.3-6.3,41.4-15C81.5,295.5,84.3,286.2,89.5,270.9z" id="el_-E9q1ZqGhi"/>
<path d="M109.2,441.8l-0.1,0.2c-1.5-3.5-3-7-4.4-10.4l0.3,0.2C106.4,435.4,107.8,438.8,109.2,441.8z" id="el_AFSpLuqcVD"/>
<path d="M98.6,413.8l-1.2-0.7c-3.6-9.7-6.3-17.9-7.5-22.8l1-2C93.5,397.6,96,406.1,98.6,413.8z" id="el_xzIKSnChfP"/>
<path d="M116,456.5l-0.2,0.3c-2.3-4.7-4.5-9.7-6.7-14.7l0.1-0.1C111.5,447.3,113.8,452.2,116,456.5z" id="el_ZBX2CTYLP4"/>
<path d="M90.9,388.4l-1,2c-0.3-1.5-0.6-2.6-0.6-3.5l-0.4-5.3l1.1-0.4l0.4,5.3C90.5,387.1,90.7,387.8,90.9,388.4z" id="el_23uXRKAold"/>
<path d="M105,431.8l-0.3-0.2c0,0,0,0,0,0c-2.6-6.4-5.1-12.7-7.2-18.4l1.1,0.6C100.7,420.3,102.9,426.3,105,431.8z" id="el_kFf5h-45Am"/>
<path d="M40.2,320.7 M89.9,384.1l-38,11.4c0,0-17.6-53.3-16.6-63.2c0-0.6,0.1-1.1,0.3-1.5c-0.3-2.1,5.8-16.8,5.8-16.8&#10;&#9;c0.6,2.3,23.7-6.7,23.7-6.7l18.1-7.7L89.9,384.1z M89.9,383.9l-4.2-53.1l-2.2-27.5c0,0-0.3-1-0.5-2.8 M51.9,395.5" id="el_pCwwnfrbYo"/>
<polygon points="89.1,363.5 88.5,363.7 88.6,364.6 " id="el_rNs6iZe3wS"/>
<path d="M68.3,436.7l1.3,2.2c9.5,17.7,19.4,29.3,26.8,36.4l1,1.1c4.3,4.1,7.1,4.4,8.9,5.5l0,0c0.8,0.6,1.3,0.8,1.3,0.8&#10;&#9;c11.5,4.7,23.4,7,35.4,7.3c-5.8-5-14.5-14.7-24.2-33.6l-0.2,0.3c-2.3-4.7-4.5-9.7-6.7-14.7l-0.3,0.6c-1.4-3.3-2.8-6.7-4.2-10&#10;&#9;c0,0,0,0,0,0c-2.6-6.5-5.1-12.8-7.2-18.7c0,0,0,0,0-0.1c-3.6-9.8-6.3-18.1-7.5-23.1c-0.3-1.5-0.6-2.7-0.6-3.5l-0.4-5.4l-10.1,3.3&#10;&#9;c-7.9,2.7-15.3,5-20.5,6.9l0,0c0,0-0.1,0-0.1,0.1l-9.1,3.2l0.8,5.7c0.1,0.5,0.3,0.9,0.4,1.4l0.1,0l8.2,21.7L68.3,436.7z" id="el_eonAsWuV7p"/>
<path d="M201.2,459.2c-18.1,14.4-48.2,32.6-62,31.3c-5.5-0.5-14.5-15.3-23.4-33.7c-2.3-4.7-4.5-9.7-6.7-14.7&#10;&#9;c0,0,0-0.1,0-0.1c-1.5-3.5-3-7-4.4-10.4c0,0,0,0,0,0c-2.6-6.4-5.1-12.7-7.2-18.4c0,0,0,0,0-0.1c-3.6-9.7-6.3-17.9-7.5-22.8&#10;&#9;c-0.3-1.5-0.6-2.6-0.6-3.5l-0.4-5.3L82,298.4c0.1,0,1.3-14.9,7.5-27.5c0,0,47.7-11.5,77.6,25.9C197,334.2,219.3,444.8,201.2,459.2z" id="el_UJVZWmvOND"/>
<ellipse cx="143.1" cy="367.7" rx="13.1" ry="31.5" id="el_PHkw3-vsWV"/>
<path d="M126.7,328.2c0,0-11.7-9-11.3-26.8C116,283.7,128.9,319.7,126.7,328.2z" id="el_M0KjXXqKP1"/>
<path d="M133.5,325.2c0,0-9-11.8-3.9-28.8S137.9,317.5,133.5,325.2z" id="el_ycWj4OVUsZ"/>
<path d="M168,376.8c0,0,10.3-1,20.5,7.9C198.7,393.6,172.1,382,168,376.8z" id="el_rN_UxeI-0L"/>
<path d="M161.9,408.2c0,0,8.3,6.1,9.9,19.6S161.5,414.8,161.9,408.2z" id="el_C6oBYPw35A"/>
<path d="M146.7,401.6c0,0,4.4,12.9-5.8,22.8C130.7,434.2,140.3,405,146.7,401.6z" id="el_XMEIw7f_oWR"/>
<path d="M162.4,363.9c0,0,6-5.8,16.3-4.5C188.9,360.7,167.2,365.6,162.4,363.9z" id="el_N25fAWx4Axc"/>
<g id="el_qOl9mOTsqSk_an_n_rEqQEM8" data-animator-group="true" data-animator-type="0"><g id="el_qOl9mOTsqSk">
	<path d="M272.9,267.6c-28.4,5.6-48.4,10.9-48.4,10.9c-3.9,2.6-7.3,5.1-10.3,7.6c5.8,2.2,20.9,3.2,40.5,3.4&#10;&#9;&#9;C256.2,285.2,260.5,276.2,272.9,267.6z" id="el_zSeb7D9L52p"/>
	<path d="M194,364.9l8.6,11.7l12.2-10l-0.5-0.1C206.2,366,199.2,365.4,194,364.9z" id="el_Mlae5aAJv_3"/>
	<path d="M219.1,420.4l-18.8-25.7l-18.5,15.1c1.4,19.8,5.7,34.5,9.5,44l27.3-22.4C218.7,427.9,218.8,424.3,219.1,420.4z&#10;&#9;&#9;" id="el_wv57reCCzBP"/>
	<path d="M182.9,370.9c-1,8.2-1.4,16-1.5,23.1l11.5-9.5L182.9,370.9z" id="el_f-cFgH2e6_N"/>
	<path d="M196.9,465.4c0.5,0.9,0.8,1.3,0.8,1.3c8.5,9.1,18.4,16.1,29.1,21.3c-3.3-6.9-7.1-19.4-8-40.6L196.9,465.4z" id="el_W1PkHuXAI81"/>
	<path d="M210,386.8l10.7,14.6c0.9-8.1,2-16.8,3.6-26.3L210,386.8z" id="el_M6emfeLzuMi"/>
	<path d="M218.6,431.4l-27.3,22.4c2.3,5.9,4.5,9.7,5.6,11.6l21.9-18C218.6,442.6,218.5,437.3,218.6,431.4z" id="el_FlyIf3ZMZMJ"/>
	<path d="M219.1,420.4c0.3-5.9,0.9-12.2,1.6-19L210,386.8l14.2-11.7c0.1-0.7,0.2-1.3,0.3-2l1.8-5l-11.6-1.4l-12.2,10&#10;&#9;&#9;l-8.6-11.7c-0.1,0-0.1,0-0.2,0l-9.1-0.7c0,0,0.1-1.1,0.4-3.1l-2.1,8.5c-0.1,0.5-0.1,0.9-0.2,1.4l10,13.7l-11.5,9.5&#10;&#9;&#9;c-0.1,5.6,0.1,10.9,0.5,15.8l18.5-15.1L219.1,420.4z" id="el_tmZCxGz8Rlg"/>
	<path d="M188.7,346.3l43.7,5.4l12.2-33.4h-52c0,0,0.1-14.4,21.6-32.2c-0.3-0.1-0.6-0.2-0.8-0.3l-6,4.4l-9.9,7.3&#10;&#9;&#9;c0,0,0.5,0,1.5,0c-0.3,0.3-0.6,0.7-0.9,1.2c-6.1,9.7-11.5,50.7-13,62.4l1.5-6.2L188.7,346.3z" id="el_01B-Owojl9F"/>
	<path d="M192.6,318.3h52l9.5-25.9c0,0,0.1-1,0.7-2.8c-19.6-0.3-34.7-1.3-40.5-3.4C192.7,303.9,192.6,318.3,192.6,318.3&#10;&#9;&#9;z" id="el_l1HHshQEtE3"/>
	<path d="M232.4,351.7l-43.7-5.4l-2.1,8.5l7.4,10.1c5.2,0.4,12.2,1,20.2,1.7l0.5,0.1l17.3-14.2L232.4,351.7z" id="el_rVNupe1cDUI"/>
	<polygon points="214.7,366.7 226.4,368.1 232.1,352.5 &#9;" id="el_KrSZKx2fpcx"/>
	<path d="M193.8,364.9c0.1,0,0.1,0,0.2,0l-7.4-10.1l-1.5,6.2c-0.2,2-0.4,3.1-0.4,3.1L193.8,364.9z" id="el_IDTl3qhGi-0"/>
	<polygon points="233,351.7 232.4,351.7 232.1,352.5 &#9;" id="el_bNr4KssETVj"/>
	<path d="M271.9,267.6c0,0,48.2,9.4,59.8,55.8s-14.1,156.3-36.5,161.9c-22.4,5.6-57.4,9.6-69.4,2.7s-6.6-103.3-2.3-115&#10;&#9;&#9;l30.2-83.5C253.7,289.6,261,276.5,271.9,267.6z" id="el__YCCU99CRRH"/>
	
		<ellipse cx="280.4" cy="377.9" rx="31.5" ry="13.1" id="el_UWzxZLdM4ia"/>
	<path d="M281.9,335.3c0,0-6.9-13.1,0.9-29.1C290.6,290.3,287.4,328.4,281.9,335.3z" id="el_G0R4bIu4mh_"/>
	<path d="M289.3,335.3c0,0-3.3-14.4,8.5-27.8C309.6,294.2,296.5,330.2,289.3,335.3z" id="el_Pc9_TSWsD2h"/>
	<path d="M299.2,396.6c0,0,9.8,3.4,15.3,15.7C320.1,424.6,300.8,403,299.2,396.6z" id="el_cLBrn0HOZXa"/>
	<path d="M280.7,422.6c0,0,5,9,0.9,21.9S277.6,428.4,280.7,422.6z" id="el_vAR7PMMt56k"/>
	<path d="M269.6,410.3c0,0-1.4,13.6-14.7,18.3C241.5,433.3,262.3,410.7,269.6,410.3z" id="el_bObaFxhFegQ"/>
	<path d="M299.5,382.6c0,0,7.9-2.8,16.7,2.6C325,390.6,303.2,386.1,299.5,382.6z" id="el_Aw3YJYAHNQc"/>
</g></g>
<g id="el_E9P5HlulNEI_an_KzTFVjQf1" data-animator-group="true" data-animator-type="0"><g id="el_E9P5HlulNEI">
	<polygon points="312,207.8 144.5,458.3 306.3,200.7 &#9;" id="el_QmyVLKIbX7R"/>
	<path d="M316.9,244.8c0,0-113.7,193.4-172.4,213.5L312,207.8L316.9,244.8z" id="el_zsZMU5Z4aYd"/>
	<path d="M405.6,57.1c0,0,32.9-37.3,40.9-3.9c0,0-3.3,22.1-18.2,22.8c-14.9,0.6-117,133.1-117,133.1l-4.9-8.5&#10;&#9;&#9;L405.6,57.1z" id="el_h1LGG-cp0GV"/>
	<path d="M314,222.8l-2.8-13.7c0,0,101.6-131.9,108.1-131.6s24.9-10.6,26-26.6c0,0,9.3,18.8-6.7,26.4&#10;&#9;&#9;C422.5,84.9,314,222.8,314,222.8z" id="el_ZwM5onW5ce5"/>
</g></g>
<path d="M312.4,383.1c2.1-0.7,4.1-1.5,5.9-2.1l-0.3-0.3L312.4,383.1z" id="el_sOEHwNlBrNu"/>
<path d="M312.4,383.1L312.4,383.1L312.4,383.1z" id="el_U-mdAJTG5FP"/>
<path d="M316.8,379.1c-4.4,3.9-4.4,3.9-4.4,3.9l0,0l5.7-2.4L316.8,379.1z" id="el_aWl7dfARacK"/>
<g id="el_ipp3YjLOpei">
	<path d="M494.7,500.1c0.1,0,0.1,0,0.2,0c1.7-0.4,3.5-0.8,5.1-1.2c14.8-5.1,27-23.5,34.1-49.3c0.1-0.3,0.1-0.5,0.2-0.8&#10;&#9;&#9;c1.2-4.3,2.2-8.7,3-13.3c0.1-0.3,0.1-0.5,0.1-0.8c1.7-9.2,2.8-19,3.2-29.1c0,0,0-0.1,0-0.2c0.2-5.5,0.3-11.1,0.1-16.8&#10;&#9;&#9;c0-0.1,0-0.1,0-0.2c-0.1-1.5-0.1-3.1-0.2-4.6c-0.2-3.8-0.5-7.6-0.9-11.3c0-0.3-0.1-0.5-0.1-0.8c-0.5-4.6-1.1-9.1-1.8-13.5&#10;&#9;&#9;c0-0.3-0.1-0.5-0.1-0.8c-4-23.4-11.5-43.4-20.9-57.2l-0.1-0.1c-3.3-4.9-6.9-9-10.7-12.2l-0.1-0.1c-3-2.5-6.1-4.5-9.3-5.8l0.6-0.8&#10;&#9;&#9;c-59.8-35.9-234-1.1-234-1.1c-35.6,20.5-37,40.5-37,40.5l217.5,13.8c0.1,2.9,0.2,8,0.6,14.7c0.2,3.3,0.4,6.9,0.6,10.8&#10;&#9;&#9;c0.7,10.1,1.6,22,3.1,34.8c0.2,1.8,0.4,3.6,0.7,5.4c0.2,1.6,0.4,3.2,0.6,4.9c0.8,5.6,1.6,11.2,2.6,16.8c0.3,1.5,0.5,2.9,0.8,4.4&#10;&#9;&#9;l0.5,0.1l-0.5,0.2c0.7,3.9,1.5,7.8,2.3,11.6c0.3,1.3,0.6,2.7,0.9,4l0.4-0.2h0.3l-0.7,0.3c0.4,1.8,0.9,3.6,1.3,5.4&#10;&#9;&#9;c2.8,11,6.2,21.1,10.2,29.4c1.4,2.9,2.9,5.5,4.4,8C478,494.5,485.6,500.4,494.7,500.1z" id="el_-BT1LUhRd2P"/>
	
		<ellipse cx="495.6" cy="388.9" rx="14.2" ry="33.9" id="el_uupXFv0ODq9"/>
	<path d="M493.5,343c0,0-8.6-13.5-1.5-31.2C499,294,498.9,335.2,493.5,343z" id="el_fpNKo-R3cKL"/>
	<path d="M501.4,342.4c0,0-4.8-15.2,6.7-30.5C519.6,296.5,508.7,336.3,501.4,342.4z" id="el_P5wO_BgkX05"/>
	<path d="M517.4,407.2c0,0,10.8,2.8,17.9,15.5C542.3,435.5,519.6,414,517.4,407.2z" id="el_Ng-RVusCJe3"/>
	<path d="M499.7,436.8c0,0,6.2,9.3,2.9,23.4C499.3,474.5,496.9,443.2,499.7,436.8z" id="el_8upETGOTWhY"/>
	<path d="M486.8,424.5c0,0-0.3,14.7-14.3,20.9S479,425.6,486.8,424.5z" id="el_bgIoXcqtmAs"/>
	<path d="M516.4,392.1c0,0,8.2-3.7,18.2,1.4C544.5,398.6,520.7,395.6,516.4,392.1z" id="el_QgYqViPxpTt"/>
	<path d="M474.8,481.7l-20,14.4l0-0.1L474.8,481.7c-2.8-3.6-5.1-7.4-7.3-11.4l-17,12.2l0,0l17.1-12.3&#10;&#9;&#9;c-7.2-13.4-11.7-28.7-14.6-41.9l-0.3-0.5c-1.3-6.2-2.3-12-3-16.8c-1.2-8.8-1.6-14.6-1.6-14.6l-1-0.2l-16.9-3.7l-0.1-0.2l-62.1-13.7&#10;&#9;&#9;l4.4,6.9h-0.2l-4.4-6.9l-6-1.3l-4-0.9l-8.4-1.6l-5.6-1.1l-54.9-10.4l-3.5-0.7l-14.6-2.8l-3.7-0.7l-0.1,0.1l-47.1-8.9l-2.8,9l0,0&#10;&#9;&#9;l-4.8,15.6c-0.1,0.5-0.2,1-0.3,1.5l0.1,0.2l-0.1-0.1c-0.7,4.1-1.4,8-1.9,11.9l0,0c0,0,0,0.1,0,0.1c-0.6,4.4-1,8.6-1.3,12.7v0&#10;&#9;&#9;c-0.5,6-0.6,11.6-0.6,17l-0.1,0.1c0.1,21.5,3.8,37.4,7.2,47.9l1-0.7c0,0,0,0,0,0.1l-0.9,0.6c2.1,6.4,4.1,10.7,5.2,12.8l-0.1,0&#10;&#9;&#9;c0.5,1,0.8,1.4,0.8,1.4c15.2,18.4,35.3,29.9,57.6,36.8c5.6,1.8,11.3,3.2,17.1,4.4c3.2,0.6,6.3,1.2,9.5,1.7l0,0&#10;&#9;&#9;c5.7,0.9,11.4,1.5,17.2,1.9l-8.5-13.3l0.1,0l8.5,13.3c17.7,1.3,35.6,0.7,52.7-0.9l-0.1-0.1c5-0.5,10-1.1,14.8-1.7l-4.9-7.7l0.1,0&#10;&#9;&#9;l4.9,7.8c1.8-0.2,3.6-0.5,5.4-0.7l0.2-0.1c10.8-1.6,21.1-3.5,30.6-5.5c4-0.9,7.9-1.7,11.6-2.6c5-1.2,9.6-2.3,13.8-3.4&#10;&#9;&#9;c6.2-1.6,11.6-3.2,15.9-4.4c4.3-1.3,7.6-2.3,9.7-2.9c1.6-0.5,18.8-3.3,18.8-3.3C487.7,496,480.6,489.5,474.8,481.7z M396.9,449.2&#10;&#9;&#9;l-17.2,12.4l-0.1,0L396.9,449.2L396.9,449.2z M446.6,502.1L446.6,502.1l5.1,7.9L446.6,502.1z" id="el_Y3jyhoKZYNy"/>
	<path d="M224.4,371L224.4,371c5.6,0.8,13.2,1.9,21.7,3.2l18.4,3.4l0.8-0.5c6.3,0.9,12.7,1.9,19,2.9l0,0l0,0&#10;&#9;&#9;c16.1,2.4,31.4,4.8,41.2,6.4c0.2,0,0.5,0.1,0.7,0.1l-0.9,0.6l8.6,0.7c1.5,0.3,2.3,0.5,2.4,0.6c0.2,0.2,0.7,0.1,1.4-0.2l0,0l0,0&#10;&#9;&#9;c0.5-0.2,1-0.5,1.7-0.8l17.6-8.3c0.5,0.2,1.1,0.5,1.6,0.8c1,0.7,2.2,1.8,3.3,2.9c1.2,1.1,2.3,2.3,3.3,3.2c0.2,0.2,0.4,0.4,0.6,0.5&#10;&#9;&#9;l0,0l0,0c0.2,0.1,0.3,0.2,0.5,0.4c0.6,0.4,1.9,0.6,3.5,0.5c1.1,0,2.3-0.1,3.5-0.2c5.5-0.5,12.1-1.8,12.1-1.8s13.9,8.4,18.2,9.8&#10;&#9;&#9;c3,1,23.6,8.6,35.9,10.9l0,0c0,0,0.6,0.1,1.5,0.2c3.6,0.6,6.2,0.6,7.2-0.3l0,0c0.2-0.2,0.4-0.5,0.4-0.9c0-0.8,0.1-2.9,0.2-5.8&#10;&#9;&#9;l25.8-99.6c0,0-38.7-0.1-84.1-1.2c-0.1,0-0.3,0-0.4,0c-10.3-0.3-21-0.6-31.5-0.9c-0.4-0.1-0.8-0.1-1.3-0.2c-0.6,0-1.2,0-1.8,0.1&#10;&#9;&#9;c-48.4-1.7-95.3-4.8-104.9-10.1l-6.7,4.3l-11.2,7.1c0,0,0.6,0,1.6,0.1c-0.4,0.3-0.7,0.7-1.1,1.2c-8.5,11.7-18.8,69.5-18.8,69.5&#10;&#9;&#9;L224.4,371z M328.5,315.3l-0.3,0.2l0,0L328.5,315.3z" id="el_-pdxmKQE0HL"/>
</g>
<path d="M88.9,381.6" id="el_xS5fxTBLB-5"/>
</svg>