<svg version="1.1" id="el_l0vHa0TQi" xmlns="http://www.w3.org/2000/svg" xmlns:xlink="http://www.w3.org/1999/xlink" x="0px" y="0px" viewBox="0 0 576 576" style="enable-background:new 0 0 576 576;" xml:space="preserve"><style>@-webkit-keyframes kf_el_rUdkHjFnI1o_an_Xy9imfQP7{21.11%{-webkit-transform: translate(230.59898376464844px, 24.494449615478516px) translate(-230.59898376464844px, -24.494449615478516px) translate(0px, 0px);transform: translate(230.59898376464844px, 24.494449615478516px) translate(-230.59898376464844px, -24.494449615478516px) translate(0px, 0px);}70%{-webkit-transform: translate(230.59898376464844px, 24.494449615478516px) translate(-230.59898376464844px, -24.494449615478516px) translate(0px, 160px);transform: translate(230.59898376464844px, 24.494449615478516px) translate(-230.59898376464844px, -24.494449615478516px) translate(0px, 160px);}0%{-webkit-transform: translate(230.59898376464844px, 24.494449615478516px) translate(-230.59898376464844px, -24.494449615478516px) translate(0px, 0px);transform: translate(230.59898376464844px, 24.494449615478516px) translate(-230.59898376464844px, -24.494449615478516px) translate(0px, 0px);}100%{-webkit-transform: translate(230.59898376464844px, 24.494449615478516px) translate(-230.59898376464844px, -24.494449615478516px) translate(0px, 160px);transform: translate(230.59898376464844px, 24.494449615478516px) translate(-230.59898376464844px, -24.494449615478516px) translate(0px, 160px);}}@keyframes kf_el_rUdkHjFnI1o_an_Xy9imfQP7{21.11%{-webkit-transform: translate(230.59898376464844px, 24.494449615478516px) translate(-230.59898376464844px, -24.494449615478516px) translate(0px, 0px);transform: translate(230.59898376464844px, 24.494449615478516px) translate(-230.59898376464844px, -24.494449615478516px) translate(0px, 0px);}70%{-webkit-transform: translate(230.59898376464844px, 24.494449615478516px) translate(-230.59898376464844px, -24.494449615478516px) translate(0px, 160px);transform: translate(230.59898376464844px, 24.494449615478516px) translate(-230.59898376464844px, -24.494449615478516px) translate(0px, 160px);}0%{-webkit-transform: translate(230.59898376464844px, 24.494449615478516px) translate(-230.59898376464844px, -24.494449615478516px) translate(0px, 0px);transform: translate(230.59898376464844px, 24.494449615478516px) translate(-230.59898376464844px, -24.494449615478516px) translate(0px, 0px);}100%{-webkit-transform: translate(230.59898376464844px, 24.494449615478516px) translate(-230.59898376464844px, -24.494449615478516px) translate(0px, 160px);transform: translate(230.59898376464844px, 24.494449615478516px) translate(-230.59898376464844px, -24.494449615478516px) translate(0px, 160px);}}@-webkit-keyframes kf_el_ngsyQhe6YvP_an_VX60ZhkcW{0%{-webkit-transform: translate(396.29998779296875px, 73.30000305175781px) translate(-396.29998779296875px, -73.30000305175781px) translate(0px, 0px);transform: translate(396.29998779296875px, 73.30000305175781px) translate(-396.29998779296875px, -73.30000305175781px) translate(0px, 0px);}18.89%{-webkit-transform: translate(396.29998779296875px, 73.30000305175781px) translate(-396.29998779296875px, -73.30000305175781px) translate(0px, 20px);transform: translate(396.29998779296875px, 73.30000305175781px) translate(-396.29998779296875px, -73.30000305175781px) translate(0px, 20px);}100%{-webkit-transform: translate(396.29998779296875px, 73.30000305175781px) translate(-396.29998779296875px, -73.30000305175781px) translate(0px, 20px);transform: translate(396.29998779296875px, 73.30000305175781px) translate(-396.29998779296875px, -73.30000305175781px) translate(0px, 20px);}}@keyframes kf_el_ngsyQhe6YvP_an_VX60ZhkcW{0%{-webkit-transform: translate(396.29998779296875px, 73.30000305175781px) translate(-396.29998779296875px, -73.30000305175781px) translate(0px, 0px);transform: translate(396.29998779296875px, 73.30000305175781px) translate(-396.29998779296875px, -73.30000305175781px) translate(0px, 0px);}18.89%{-webkit-transform: translate(396.29998779296875px, 73.30000305175781px) translate(-396.29998779296875px, -73.30000305175781px) translate(0px, 20px);transform: translate(396.29998779296875px, 73.30000305175781px) translate(-396.29998779296875px, -73.30000305175781px) translate(0px, 20px);}100%{-webkit-transform: translate(396.29998779296875px, 73.30000305175781px) translate(-396.29998779296875px, -73.30000305175781px) translate(0px, 20px);transform: translate(396.29998779296875px, 73.30000305175781px) translate(-396.29998779296875px, -73.30000305175781px) translate(0px, 20px);}}@-webkit-keyframes kf_el_r2yvEgsHoGT_an_EUH5d-NCr{0%{-webkit-transform: translate(154.5px, 73.30000305175781px) translate(-154.5px, -73.30000305175781px) translate(0px, 0px);transform: translate(154.5px, 73.30000305175781px) translate(-154.5px, -73.30000305175781px) translate(0px, 0px);}16.67%{-webkit-transform: translate(154.5px, 73.30000305175781px) translate(-154.5px, -73.30000305175781px) translate(0px, 20px);transform: translate(154.5px, 73.30000305175781px) translate(-154.5px, -73.30000305175781px) translate(0px, 20px);}100%{-webkit-transform: translate(154.5px, 73.30000305175781px) translate(-154.5px, -73.30000305175781px) translate(0px, 20px);transform: translate(154.5px, 73.30000305175781px) translate(-154.5px, -73.30000305175781px) translate(0px, 20px);}}@keyframes kf_el_r2yvEgsHoGT_an_EUH5d-NCr{0%{-webkit-transform: translate(154.5px, 73.30000305175781px) translate(-154.5px, -73.30000305175781px) translate(0px, 0px);transform: translate(154.5px, 73.30000305175781px) translate(-154.5px, -73.30000305175781px) translate(0px, 0px);}16.67%{-webkit-transform: translate(154.5px, 73.30000305175781px) translate(-154.5px, -73.30000305175781px) translate(0px, 20px);transform: translate(154.5px, 73.30000305175781px) translate(-154.5px, -73.30000305175781px) translate(0px, 20px);}100%{-webkit-transform: translate(154.5px, 73.30000305175781px) translate(-154.5px, -73.30000305175781px) translate(0px, 20px);transform: translate(154.5px, 73.30000305175781px) translate(-154.5px, -73.30000305175781px) translate(0px, 20px);}}#el_l0vHa0TQi *{-webkit-animation-duration: 3s;animation-duration: 3s;-webkit-animation-iteration-count: infinite;animation-iteration-count: infinite;-webkit-animation-timing-function: cubic-bezier(0, 0, 1, 1);animation-timing-function: cubic-bezier(0, 0, 1, 1);}#el_ztH5NT7oBk{fill: #EAC50F;}#el_iG-KHPam8u{fill: #EAC50F;}#el_JKCQ6wn4A9{fill: #EAC50F;}#el_r23sz3y_ul{fill: #F9DC0B;}#el_cu26AEAvTd{fill: #EAC50F;}#el_CWLRfJqnKt{fill: #EAC50F;}#el_peZ5YaIXMM{fill: #EAC50F;}#el_AKhjglvdCr{fill: #EAC50F;}#el_1DU4HVsJlZ{fill: #EAC50F;}#el_aPFBezKlY1{fill: #EAC50F;}#el_jTrAntR92L{fill: #EAC50F;}#el_t2cfrQoLCY{fill: #F2D10C;}#el_qq4qZonqZR{fill: #F2D10C;}#el_pAD868RoM8{fill: #F2D10C;}#el_4UWsvDW581o{fill: #F2D10C;}#el_UN2cntQrtfP{fill: #F2D10C;}#el_TC2XzlFC1Mf{fill: #FECF25;}#el_uSEdcyltl9J{fill: #F9DC0B;}#el_VjYrs5Fn7ev{fill: #FECF25;-webkit-transform: matrix(1, -7.376215e-03, 7.376215e-03, 1, -2.3325, 2.1921);transform: matrix(1, -7.376215e-03, 7.376215e-03, 1, -2.3325, 2.1921);}#el_TRM6F33SSkq{fill: #FECF25;}#el_ZS414w10XGM{fill: #FECF25;}#el_dt06d0-b97p{fill: #FECF25;}#el_UgCu1kG19Rw{fill: #FECF25;}#el_ZREMwv4Vs1m{fill: #FECF25;}#el_ZW-J86mmuGb{fill: #FECF25;}#el_pD-9zMRdr-0{fill: #E2D2DD;}#el_yYn-fF9STOU{fill: #F4E9F1;}#el_r2yvEgsHoGT_an_EUH5d-NCr{-webkit-animation-fill-mode: backwards;animation-fill-mode: backwards;-webkit-transform: translate(154.5px, 73.30000305175781px) translate(-154.5px, -73.30000305175781px) translate(0px, 0px);transform: translate(154.5px, 73.30000305175781px) translate(-154.5px, -73.30000305175781px) translate(0px, 0px);-webkit-animation-name: kf_el_r2yvEgsHoGT_an_EUH5d-NCr;animation-name: kf_el_r2yvEgsHoGT_an_EUH5d-NCr;-webkit-animation-timing-function: cubic-bezier(0, 0, 1, 1);animation-timing-function: cubic-bezier(0, 0, 1, 1);}#el_ngsyQhe6YvP_an_VX60ZhkcW{-webkit-animation-fill-mode: backwards;animation-fill-mode: backwards;-webkit-transform: translate(396.29998779296875px, 73.30000305175781px) translate(-396.29998779296875px, -73.30000305175781px) translate(0px, 0px);transform: translate(396.29998779296875px, 73.30000305175781px) translate(-396.29998779296875px, -73.30000305175781px) translate(0px, 0px);-webkit-animation-name: kf_el_ngsyQhe6YvP_an_VX60ZhkcW;animation-name: kf_el_ngsyQhe6YvP_an_VX60ZhkcW;-webkit-animation-timing-function: cubic-bezier(0, 0, 1, 1);animation-timing-function: cubic-bezier(0, 0, 1, 1);}#el_rUdkHjFnI1o_an_Xy9imfQP7{-webkit-animation-fill-mode: backwards;animation-fill-mode: backwards;-webkit-transform: translate(230.59898376464844px, 24.494449615478516px) translate(-230.59898376464844px, -24.494449615478516px) translate(0px, 0px);transform: translate(230.59898376464844px, 24.494449615478516px) translate(-230.59898376464844px, -24.494449615478516px) translate(0px, 0px);-webkit-animation-name: kf_el_rUdkHjFnI1o_an_Xy9imfQP7;animation-name: kf_el_rUdkHjFnI1o_an_Xy9imfQP7;-webkit-animation-timing-function: cubic-bezier(0, 0, 1, 1);animation-timing-function: cubic-bezier(0, 0, 1, 1);}</style>

<path d="M478.8,379.7c2.2-0.7,4.2-1.5,6-2.2l-0.3-0.3L478.8,379.7z" id="el_ztH5NT7oBk"/>
<path d="M478.8,379.7L478.8,379.7L478.8,379.7z" id="el_iG-KHPam8u"/>
<path d="M483.3,375.6c-4.5,4-4.5,4-4.5,4l0,0l5.8-2.5L483.3,375.6z" id="el_JKCQ6wn4A9"/>
<g id="el_gmXnXM49mW">
	<path d="M68.9,339c13.1,58.2,25.3,99.2,25.3,99.2c5.5,7.9,11,14.8,16.3,20.8c4.2-12.1,5.3-43.4,4.7-83.8&#10;&#9;&#9;C106,372.6,87.3,364.3,68.9,339z" id="el_r23sz3y_ul"/>
	<path d="M274.1,496.1l23.7-18.4l-21.3-24.5l-0.1,1.1C275.5,470.9,274.7,485.4,274.1,496.1z" id="el_cu26AEAvTd"/>
	<path d="M387,441.3l-51.9,40.2l32.3,37.2c40.8-4,70.8-13.7,90.1-22l-47.8-55C402.5,441.6,395,441.5,387,441.3z" id="el_CWLRfJqnKt"/>
	<path d="M287.1,518.7c17.1,1.5,33,2,47.8,1.8l-20.2-23.2L287.1,518.7z" id="el_peZ5YaIXMM"/>
	<path d="M481.1,484.4c1.7-1.1,2.6-1.7,2.6-1.7c18.2-18.1,32-38.8,42.3-61.3c-14.1,7.1-39.6,15.7-83.3,18.9L481.1,484.4&#10;&#9;&#9;z" id="el_AKhjglvdCr"/>
	<path d="M318.2,462l29.5-22.8c-16.7-1.3-34.8-3.2-54.4-5.9L318.2,462z" id="el_1DU4HVsJlZ"/>
	<path d="M409.7,441.6l47.8,55c12-5.2,19.8-9.8,23.6-12.2l-38.3-44.1C432.8,441,421.8,441.5,409.7,441.6z" id="el_aPFBezKlY1"/>
	<path d="M387,441.3c-12.2-0.4-25.3-1.1-39.3-2.2L318.2,462l-24.9-28.7c-1.4-0.2-2.7-0.4-4.1-0.5l-10.5-3.5l-2.2,24.1&#10;&#9;&#9;l21.3,24.5l-23.7,18.4c0,0.1,0,0.3,0,0.4l-1,18.7c0,0-2.4-0.2-6.5-0.6l17.6,3.8c1,0.1,2,0.2,2.9,0.3l27.6-21.4l20.2,23.2&#10;&#9;&#9;c11.5-0.2,22.4-0.8,32.6-1.8l-32.3-37.2L387,441.3z" id="el_jTrAntR92L"/>
	<path d="M236,508.1l8.5-90.3L175,394.6l3,107.3c0,0-29.7,0.6-67.6-42.8c-0.2,0.6-0.4,1.2-0.7,1.7l9.3,12l15.6,20&#10;&#9;&#9;c0,0-0.1-1.1-0.2-3.1c0.7,0.6,1.5,1.2,2.6,1.9c20.3,12,105.3,20.8,129.5,23.1l-12.9-2.7L236,508.1z" id="el_t2cfrQoLCY"/>
	<path d="M178,501.8l-3-107.3l-54-18c0,0-2.1-0.2-5.8-1.3c0.6,40.4-0.6,71.7-4.7,83.8C148.3,502.4,178,501.8,178,501.8z&#10;&#9;&#9;" id="el_qq4qZonqZR"/>
	<path d="M244.5,417.8l-8.5,90.3l17.7,3.8l20.4-15.8c0.6-10.7,1.4-25.2,2.3-41.8l0.1-1.1l-30.3-34.9L244.5,417.8z" id="el_pAD868RoM8"/>
	<polygon points="276.5,453.3 278.7,429.2 246.2,418.4 &#9;" id="el_4UWsvDW581o"/>
	<path d="M274.1,496.5c0-0.1,0-0.3,0-0.4l-20.4,15.8l12.9,2.7c4.1,0.4,6.5,0.6,6.5,0.6L274.1,496.5z" id="el_UN2cntQrtfP"/>
	<polygon points="244.6,416.6 244.5,417.8 246.2,418.4 &#9;" id="el_TC2XzlFC1Mf"/>
	<path d="M68.9,341.3c0,0,16.5-99.9,111.6-126.5s323,20.1,335.9,65.9c12.9,45.9,23.2,117.8,9.6,142.9&#10;&#9;&#9;S313.6,443.1,289.2,435l-174-57.4C115.3,377.5,88,363.1,68.9,341.3z" id="el_uSEdcyltl9J"/>
	<ellipse cx="296" cy="317.3" rx="65" ry="27.1" id="el_VjYrs5Fn7ev"/>
	<path d="M207.9,316.7c0,0-26.6,15-59.9-0.2C114.6,301.2,193.4,305.7,207.9,316.7z" id="el_TRM6F33SSkq"/>
	<path d="M207.6,301.3c0,0-29.6,7.6-57.8-15.9C121.6,262,196.5,286.9,207.6,301.3z" id="el_ZS414w10XGM"/>
	<path d="M333.3,277.4c0,0,6.4-20.3,31.5-32.5S346.4,273.8,333.3,277.4z" id="el_dt06d0-b97p"/>
	<path d="M388.1,314.2c0,0,18.3-10.8,45.2-3.1S400.2,320.2,388.1,314.2z" id="el_UgCu1kG19Rw"/>
	<path d="M363.2,337.7c0,0,28.1,2.1,38.6,29.3S364.6,352.7,363.2,337.7z" id="el_ZREMwv4Vs1m"/>
	<path d="M304.3,277.7c0,0-6.2-16,4.5-34.5S311.3,269.9,304.3,277.7z" id="el_ZW-J86mmuGb"/>
</g>
<g id="el_rUdkHjFnI1o_an_Xy9imfQP7" data-animator-group="true" data-animator-type="0"><g id="el_rUdkHjFnI1o">
	<path d="M295.4,24.5c-35.9,0.3-65,12.6-64.8,27.6v103.1c0.1,15,29.3,26.9,65.2,26.6c35.9-0.3,65-12.6,64.8-27.6V51.1&#10;&#9;&#9;C360.5,36.1,331.3,24.2,295.4,24.5z M295.6,71.9c-33.2,0-60.1-9.5-60.1-21.2s26.9-21.2,60.1-21.2s60.1,9.5,60.1,21.2&#10;&#9;&#9;S328.8,71.9,295.6,71.9z" id="el_pD-9zMRdr-0"/>
	<ellipse cx="295.6" cy="51.1" rx="60.1" ry="22.2" id="el_yYn-fF9STOU"/>
</g></g>
<g id="el_r2yvEgsHoGT_an_EUH5d-NCr" data-animator-group="true" data-animator-type="0"><polygon points="179.9,120.1 179.9,73.3 171.2,73.3 171.2,120.1 154.5,120.1 175.5,141.2 196.6,120.1 " id="el_r2yvEgsHoGT"/></g>
<g id="el_ngsyQhe6YvP_an_VX60ZhkcW" data-animator-group="true" data-animator-type="0"><polygon points="421.7,120.1 421.7,73.3 413,73.3 413,120.1 396.3,120.1 417.4,141.2 438.4,120.1 " id="el_ngsyQhe6YvP"/></g>
</svg>