<svg version="1.1" id="el_k4Z70DXly" xmlns="http://www.w3.org/2000/svg" xmlns:xlink="http://www.w3.org/1999/xlink" x="0px" y="0px" viewBox="0 0 576 576" style="enable-background:new 0 0 576 576;" xml:space="preserve"><style>@-webkit-keyframes kf_el_K1rQDDPqlMn_an_JiajKMaKB{50%{-webkit-transform: translate(274.4000244140625px, 211.5730438232422px) translate(-274.4000244140625px, -211.5730438232422px) translate(0px, -500px);transform: translate(274.4000244140625px, 211.5730438232422px) translate(-274.4000244140625px, -211.5730438232422px) translate(0px, -500px);}68.89%{-webkit-transform: translate(274.4000244140625px, 211.5730438232422px) translate(-274.4000244140625px, -211.5730438232422px) translate(0px, 0px);transform: translate(274.4000244140625px, 211.5730438232422px) translate(-274.4000244140625px, -211.5730438232422px) translate(0px, 0px);}0%{-webkit-transform: translate(274.4000244140625px, 211.5730438232422px) translate(-274.4000244140625px, -211.5730438232422px) translate(0px, -500px);transform: translate(274.4000244140625px, 211.5730438232422px) translate(-274.4000244140625px, -211.5730438232422px) translate(0px, -500px);}100%{-webkit-transform: translate(274.4000244140625px, 211.5730438232422px) translate(-274.4000244140625px, -211.5730438232422px) translate(0px, 0px);transform: translate(274.4000244140625px, 211.5730438232422px) translate(-274.4000244140625px, -211.5730438232422px) translate(0px, 0px);}}@keyframes kf_el_K1rQDDPqlMn_an_JiajKMaKB{50%{-webkit-transform: translate(274.4000244140625px, 211.5730438232422px) translate(-274.4000244140625px, -211.5730438232422px) translate(0px, -500px);transform: translate(274.4000244140625px, 211.5730438232422px) translate(-274.4000244140625px, -211.5730438232422px) translate(0px, -500px);}68.89%{-webkit-transform: translate(274.4000244140625px, 211.5730438232422px) translate(-274.4000244140625px, -211.5730438232422px) translate(0px, 0px);transform: translate(274.4000244140625px, 211.5730438232422px) translate(-274.4000244140625px, -211.5730438232422px) translate(0px, 0px);}0%{-webkit-transform: translate(274.4000244140625px, 211.5730438232422px) translate(-274.4000244140625px, -211.5730438232422px) translate(0px, -500px);transform: translate(274.4000244140625px, 211.5730438232422px) translate(-274.4000244140625px, -211.5730438232422px) translate(0px, -500px);}100%{-webkit-transform: translate(274.4000244140625px, 211.5730438232422px) translate(-274.4000244140625px, -211.5730438232422px) translate(0px, 0px);transform: translate(274.4000244140625px, 211.5730438232422px) translate(-274.4000244140625px, -211.5730438232422px) translate(0px, 0px);}}@-webkit-keyframes kf_el_VvKbshabN8V_an_ezAgQgZCj{33.33%{-webkit-transform: translate(213.60000610351562px, 212.47303771972656px) translate(-213.60000610351562px, -212.47303771972656px) translate(0px, -500px);transform: translate(213.60000610351562px, 212.47303771972656px) translate(-213.60000610351562px, -212.47303771972656px) translate(0px, -500px);}50%{-webkit-transform: translate(213.60000610351562px, 212.47303771972656px) translate(-213.60000610351562px, -212.47303771972656px) translate(0px, 0px);transform: translate(213.60000610351562px, 212.47303771972656px) translate(-213.60000610351562px, -212.47303771972656px) translate(0px, 0px);}0%{-webkit-transform: translate(213.60000610351562px, 212.47303771972656px) translate(-213.60000610351562px, -212.47303771972656px) translate(0px, -500px);transform: translate(213.60000610351562px, 212.47303771972656px) translate(-213.60000610351562px, -212.47303771972656px) translate(0px, -500px);}100%{-webkit-transform: translate(213.60000610351562px, 212.47303771972656px) translate(-213.60000610351562px, -212.47303771972656px) translate(0px, 0px);transform: translate(213.60000610351562px, 212.47303771972656px) translate(-213.60000610351562px, -212.47303771972656px) translate(0px, 0px);}}@keyframes kf_el_VvKbshabN8V_an_ezAgQgZCj{33.33%{-webkit-transform: translate(213.60000610351562px, 212.47303771972656px) translate(-213.60000610351562px, -212.47303771972656px) translate(0px, -500px);transform: translate(213.60000610351562px, 212.47303771972656px) translate(-213.60000610351562px, -212.47303771972656px) translate(0px, -500px);}50%{-webkit-transform: translate(213.60000610351562px, 212.47303771972656px) translate(-213.60000610351562px, -212.47303771972656px) translate(0px, 0px);transform: translate(213.60000610351562px, 212.47303771972656px) translate(-213.60000610351562px, -212.47303771972656px) translate(0px, 0px);}0%{-webkit-transform: translate(213.60000610351562px, 212.47303771972656px) translate(-213.60000610351562px, -212.47303771972656px) translate(0px, -500px);transform: translate(213.60000610351562px, 212.47303771972656px) translate(-213.60000610351562px, -212.47303771972656px) translate(0px, -500px);}100%{-webkit-transform: translate(213.60000610351562px, 212.47303771972656px) translate(-213.60000610351562px, -212.47303771972656px) translate(0px, 0px);transform: translate(213.60000610351562px, 212.47303771972656px) translate(-213.60000610351562px, -212.47303771972656px) translate(0px, 0px);}}@-webkit-keyframes kf_el_ZhHmaoJdtV8_an_o-BOqRj38{16.67%{-webkit-transform: translate(159.49998474121094px, 212.47303771972656px) translate(-159.49998474121094px, -212.47303771972656px) translate(0px, -500px);transform: translate(159.49998474121094px, 212.47303771972656px) translate(-159.49998474121094px, -212.47303771972656px) translate(0px, -500px);}33.33%{-webkit-transform: translate(159.49998474121094px, 212.47303771972656px) translate(-159.49998474121094px, -212.47303771972656px) translate(0px, 0px);transform: translate(159.49998474121094px, 212.47303771972656px) translate(-159.49998474121094px, -212.47303771972656px) translate(0px, 0px);}0%{-webkit-transform: translate(159.49998474121094px, 212.47303771972656px) translate(-159.49998474121094px, -212.47303771972656px) translate(0px, -500px);transform: translate(159.49998474121094px, 212.47303771972656px) translate(-159.49998474121094px, -212.47303771972656px) translate(0px, -500px);}100%{-webkit-transform: translate(159.49998474121094px, 212.47303771972656px) translate(-159.49998474121094px, -212.47303771972656px) translate(0px, 0px);transform: translate(159.49998474121094px, 212.47303771972656px) translate(-159.49998474121094px, -212.47303771972656px) translate(0px, 0px);}}@keyframes kf_el_ZhHmaoJdtV8_an_o-BOqRj38{16.67%{-webkit-transform: translate(159.49998474121094px, 212.47303771972656px) translate(-159.49998474121094px, -212.47303771972656px) translate(0px, -500px);transform: translate(159.49998474121094px, 212.47303771972656px) translate(-159.49998474121094px, -212.47303771972656px) translate(0px, -500px);}33.33%{-webkit-transform: translate(159.49998474121094px, 212.47303771972656px) translate(-159.49998474121094px, -212.47303771972656px) translate(0px, 0px);transform: translate(159.49998474121094px, 212.47303771972656px) translate(-159.49998474121094px, -212.47303771972656px) translate(0px, 0px);}0%{-webkit-transform: translate(159.49998474121094px, 212.47303771972656px) translate(-159.49998474121094px, -212.47303771972656px) translate(0px, -500px);transform: translate(159.49998474121094px, 212.47303771972656px) translate(-159.49998474121094px, -212.47303771972656px) translate(0px, -500px);}100%{-webkit-transform: translate(159.49998474121094px, 212.47303771972656px) translate(-159.49998474121094px, -212.47303771972656px) translate(0px, 0px);transform: translate(159.49998474121094px, 212.47303771972656px) translate(-159.49998474121094px, -212.47303771972656px) translate(0px, 0px);}}@-webkit-keyframes kf_el_0104-gj2xn_an_7SBVqW3Jr{0%{-webkit-transform: translate(105.39999389648438px, 207.1730194091797px) translate(-105.39999389648438px, -207.1730194091797px) translate(0px, -500px);transform: translate(105.39999389648438px, 207.1730194091797px) translate(-105.39999389648438px, -207.1730194091797px) translate(0px, -500px);}16.67%{-webkit-transform: translate(105.39999389648438px, 207.1730194091797px) translate(-105.39999389648438px, -207.1730194091797px) translate(0px, 0px);transform: translate(105.39999389648438px, 207.1730194091797px) translate(-105.39999389648438px, -207.1730194091797px) translate(0px, 0px);}100%{-webkit-transform: translate(105.39999389648438px, 207.1730194091797px) translate(-105.39999389648438px, -207.1730194091797px) translate(0px, 0px);transform: translate(105.39999389648438px, 207.1730194091797px) translate(-105.39999389648438px, -207.1730194091797px) translate(0px, 0px);}}@keyframes kf_el_0104-gj2xn_an_7SBVqW3Jr{0%{-webkit-transform: translate(105.39999389648438px, 207.1730194091797px) translate(-105.39999389648438px, -207.1730194091797px) translate(0px, -500px);transform: translate(105.39999389648438px, 207.1730194091797px) translate(-105.39999389648438px, -207.1730194091797px) translate(0px, -500px);}16.67%{-webkit-transform: translate(105.39999389648438px, 207.1730194091797px) translate(-105.39999389648438px, -207.1730194091797px) translate(0px, 0px);transform: translate(105.39999389648438px, 207.1730194091797px) translate(-105.39999389648438px, -207.1730194091797px) translate(0px, 0px);}100%{-webkit-transform: translate(105.39999389648438px, 207.1730194091797px) translate(-105.39999389648438px, -207.1730194091797px) translate(0px, 0px);transform: translate(105.39999389648438px, 207.1730194091797px) translate(-105.39999389648438px, -207.1730194091797px) translate(0px, 0px);}}#el_k4Z70DXly *{-webkit-animation-duration: 3s;animation-duration: 3s;-webkit-animation-iteration-count: infinite;animation-iteration-count: infinite;-webkit-animation-timing-function: cubic-bezier(0, 0, 1, 1);animation-timing-function: cubic-bezier(0, 0, 1, 1);}#el_jLjWE6ahGZ{fill: #EFEFEF;}#el_bblu6RNG0_{fill: #F4F4F4;}#el_ktwKhR_p-d{fill: #EAEAEA;}#el_IxqO_FdFxW{fill: none;}#el_Y5JmTc7AuT{fill: #F9DC0B;}#el_xdFlXQbcSh{fill: #F9DC0B;}#el_bip5n7lygQ{fill: #F9DC0B;}#el__z50bw25Py{fill: #FECF25;}#el_fkemzfDOwf{fill: #FECF25;}#el_T8DhJXn1vB{fill: #F9DC0B;}#el_G0Xyc9mJOl{fill: #F9DC0B;}#el_CPGoCb6-LN{fill: #F9DC0B;}#el_UyVo8pr44D{fill: #FECF25;}#el_hCufdc9_LTH{fill: #FECF25;}#el_dZrOC6dQ9zP{fill: #EAC50F;}#el_rcpwqqEr1sk{fill: #EAC50F;}#el_sE2_AoDrCc1{fill: #EAC50F;}#el_G-C5YgXQCuD{fill: #EAC50F;}#el_-1jvb3K4GRu{fill: #EAC50F;}#el_z3mdm9Ue-jW{fill: #EAC50F;}#el_R9z91B0S-ot{fill: #EAC50F;}#el_V6Lmdid_k-v{fill: #F2D10C;}#el_uLh8ZmwR5Pw{fill: #F2D10C;}#el_VCENjbzmI_h{fill: #F2D10C;}#el_azv5KeZdgI9{fill: #F2D10C;}#el_baCAFXT5G-a{fill: #F2D10C;}#el_oBvCGqWmCvX{fill: #F9DC0B;}#el_14WyIlwWFlH{fill: #F9DC0B;}#el_S_Fycs_N9p2{fill: #F9DC0B;}#el_C8pt9gJro5x{fill: #F9DC0B;}#el_qS5y_2_ENVW{fill: #F9DC0B;}#el_9ott7MbzSKN{fill: #F9DC0B;}#el_amI_0m2-sCQ{fill: #F9DC0B;}#el_bTXh0oLoIGf{fill: #F9DC0B;}#el_hMU_SYCPpPQ{fill: #F9DC0B;}#el_xyY8OeJ97dr{fill: #F9DC0B;}#el_vC9VtXB_FZr{fill: #F9DC0B;}#el_liN4g6mTq0f{fill: #FECF25;}#el_Z59Y2rMsQi-{fill: #FECF25;}#el_9SbgZwbwTUO{fill: #FECF25;}#el_wcsUBF9ChW5{fill: #FECF25;}#el_2YM5563ZpDE{fill: none;}#el_fEtQTThQK0L{fill: #F9DC0B;}#el_oxPjqOTDNFJ{fill: #F9DC0B;}#el_ls9Ja4KPgCZ{fill: #F9DC0B;}#el_BySwPHCb8Sd{fill: #FECF25;}#el_VgRwtrLkPyo{fill: #FECF25;}#el_cneYIHk8JP4{fill: #F9DC0B;}#el_Py9xtrktVoB{fill: #F9DC0B;}#el_pFtUaZyp_Ay{fill: #F9DC0B;}#el_1nB4aC02hUe{fill: #FECF25;}#el_FTLpJRZLv4T{fill: #FECF25;}#el_gOfoneQTFBG{fill: #EAC50F;}#el_DPWwaowHhdW{fill: #EAC50F;}#el_3TtMO5H22c9{fill: #EAC50F;}#el_8Ga537WZ3rq{fill: #EAC50F;}#el_2DX_xQYTlhk{fill: #EAC50F;}#el_1cTbVSTr-TM{fill: #EAC50F;}#el_sPQh4edqXAd{fill: #EAC50F;}#el_YVTCjBurcPj{fill: #F2D10C;}#el_IspRZI_JVsq{fill: #F2D10C;}#el_iAJVEzV-Jzu{fill: #F2D10C;}#el_KGovDAj0Zmz{fill: #F2D10C;}#el_rn73a-3VgwQ{fill: #F2D10C;}#el_oxgZ9Ecooe6{fill: #F9DC0B;}#el_de2l7Zj-WbK{fill: #F9DC0B;}#el_ELyIiVDiXWX{fill: #F9DC0B;}#el_sBxLBC1Njv4{fill: #F9DC0B;}#el_hz_pGfTVuJY{fill: #F9DC0B;}#el_eVH_Zy7ikOu{fill: #F9DC0B;}#el_S6qyAv7Z3xJ{fill: #F9DC0B;}#el_EeFtqG89EGc{fill: #F9DC0B;}#el_1ebgptwjmXb{fill: #F9DC0B;}#el_1azJsjhUw2s{fill: #F9DC0B;}#el_UsOjJ7OEVDX{fill: #F9DC0B;}#el_I5nPdo0LU4v{fill: #FECF25;}#el_pz9bCkGSDIC{fill: #FECF25;}#el_6rCOzw-MBBQ{fill: #FECF25;}#el_K_LRhwJOd9-{fill: #FECF25;}#el_WTKBZJFlIrt{fill: none;}#el_yS1gsWb1l6u{fill: #F9DC0B;}#el_uZANtiwdA-v{fill: #F9DC0B;}#el_DpKifehWRNl{fill: #F9DC0B;}#el_JsQNMwGbiTW{fill: #FECF25;}#el_bYdDlCFkXl1{fill: #FECF25;}#el_VanexjB7fC1{fill: #F9DC0B;}#el_6Jh2s6mzCdX{fill: #F9DC0B;}#el_8YreanTVjl3{fill: #F9DC0B;}#el_U8RPJk-rn-J{fill: #FECF25;}#el_22kwczXut_J{fill: #FECF25;}#el_4tkYetRqk4k{fill: #EAC50F;}#el_c-CXJ1HgbQQ{fill: #EAC50F;}#el_YtiUOIAtOp4{fill: #EAC50F;}#el_WjhAb5dEAch{fill: #EAC50F;}#el_q6G47QVCPxk{fill: #EAC50F;}#el__KJ7KzAoFn3{fill: #EAC50F;}#el_8By8GippsjB{fill: #EAC50F;}#el_zmqO-S157-F{fill: #F2D10C;}#el_2IzwMc7kJjF{fill: #F2D10C;}#el_jBNJQUX6dKx{fill: #F2D10C;}#el_Wu_B7PlbN3E{fill: #F2D10C;}#el_FrMFSK_s-Ml{fill: #F2D10C;}#el_85XH_Dy_OPR{fill: #F9DC0B;}#el__VrnEfj0P5_{fill: #F9DC0B;}#el_EGC0dZpSMfY{fill: #F9DC0B;}#el_oTcH5tZSgKC{fill: #F9DC0B;}#el_gbp653AczdH{fill: #F9DC0B;}#el_7rqKAA6lp9e{fill: #F9DC0B;}#el_RU_w3iAj9Wc{fill: #F9DC0B;}#el_5pJcImpJ9lg{fill: #F9DC0B;}#el_pOCA6dvtQov{fill: #F9DC0B;}#el_px7EIwWqMgy{fill: #F9DC0B;}#el_MxzUTLkWeGC{fill: #F9DC0B;}#el_TPFgiV46DVw{fill: #FECF25;}#el_54CfQdSuwWn{fill: #FECF25;}#el_7mhIDWA8DPa{fill: #FECF25;}#el__S2yJJ_21OU{fill: #FECF25;}#el_Qf8VxPgiUii{fill: none;}#el_s0HYKOM5Niz{fill: #F9DC0B;}#el_LianBK7fnhZ{fill: #F9DC0B;}#el_s0vizJL4lQ9{fill: #F9DC0B;}#el_H80RFzznDZu{fill: #FECF25;}#el_ab-WI26Hq9Z{fill: #FECF25;}#el_OAUL4ynYD5j{fill: #F9DC0B;}#el_jd72gl7-U-z{fill: #F9DC0B;}#el_-dXdLjt1DKE{fill: #F9DC0B;}#el_F6ad7Scfmxb{fill: #FECF25;}#el_mFbr_aAmEie{fill: #FECF25;}#el_qlLJlbSrMyi{fill: #EAC50F;}#el_znZRS3NxdIr{fill: #EAC50F;}#el_GHY5D6tO1O8{fill: #EAC50F;}#el_teEF7Jq587k{fill: #EAC50F;}#el_BgZ10RzwOIw{fill: #EAC50F;}#el_XbFAdD7HVig{fill: #EAC50F;}#el_U2bDPaCS7mC{fill: #EAC50F;}#el_wybFOEYRoIX{fill: #F2D10C;}#el_M3jhm2N8gt6{fill: #F2D10C;}#el_aFxyQOO8NNB{fill: #F2D10C;}#el_waxEKQ09VLK{fill: #F2D10C;}#el_yGXkhgoex7B{fill: #F2D10C;}#el_ogO6kNTuGgM{fill: #F9DC0B;}#el_WPuOFmtX0Uu{fill: #F9DC0B;}#el_JU-GCWBdvBl{fill: #F9DC0B;}#el_UIELxglNUDY{fill: #F9DC0B;}#el_s08TOR_Fbnf{fill: #F9DC0B;}#el_5C5L8Qfu7zp{fill: #F9DC0B;}#el_aF0Cwmf6hDT{fill: #F9DC0B;}#el_UHuRv7e3n7p{fill: #F9DC0B;}#el_4dQcmjysATu{fill: #F9DC0B;}#el_dEB_WX6Am3K{fill: #F9DC0B;}#el_U8fYs09yoWI{fill: #F9DC0B;}#el_Eg5Jm_OseiF{fill: #FECF25;}#el_D4By_PIThuX{fill: #FECF25;}#el_TM8F-0o-IN9{fill: #FECF25;}#el_-aIVtviY8aG{fill: #FECF25;}#el_0104-gj2xn_an_7SBVqW3Jr{-webkit-animation-fill-mode: backwards;animation-fill-mode: backwards;-webkit-transform: translate(105.39999389648438px, 207.1730194091797px) translate(-105.39999389648438px, -207.1730194091797px) translate(0px, -500px);transform: translate(105.39999389648438px, 207.1730194091797px) translate(-105.39999389648438px, -207.1730194091797px) translate(0px, -500px);-webkit-animation-name: kf_el_0104-gj2xn_an_7SBVqW3Jr;animation-name: kf_el_0104-gj2xn_an_7SBVqW3Jr;-webkit-animation-timing-function: cubic-bezier(0, 0, 1, 1);animation-timing-function: cubic-bezier(0, 0, 1, 1);}#el_ZhHmaoJdtV8_an_o-BOqRj38{-webkit-animation-fill-mode: backwards;animation-fill-mode: backwards;-webkit-transform: translate(159.49998474121094px, 212.47303771972656px) translate(-159.49998474121094px, -212.47303771972656px) translate(0px, -500px);transform: translate(159.49998474121094px, 212.47303771972656px) translate(-159.49998474121094px, -212.47303771972656px) translate(0px, -500px);-webkit-animation-name: kf_el_ZhHmaoJdtV8_an_o-BOqRj38;animation-name: kf_el_ZhHmaoJdtV8_an_o-BOqRj38;-webkit-animation-timing-function: cubic-bezier(0, 0, 1, 1);animation-timing-function: cubic-bezier(0, 0, 1, 1);}#el_VvKbshabN8V_an_ezAgQgZCj{-webkit-animation-fill-mode: backwards;animation-fill-mode: backwards;-webkit-transform: translate(213.60000610351562px, 212.47303771972656px) translate(-213.60000610351562px, -212.47303771972656px) translate(0px, -500px);transform: translate(213.60000610351562px, 212.47303771972656px) translate(-213.60000610351562px, -212.47303771972656px) translate(0px, -500px);-webkit-animation-name: kf_el_VvKbshabN8V_an_ezAgQgZCj;animation-name: kf_el_VvKbshabN8V_an_ezAgQgZCj;-webkit-animation-timing-function: cubic-bezier(0, 0, 1, 1);animation-timing-function: cubic-bezier(0, 0, 1, 1);}#el_K1rQDDPqlMn_an_JiajKMaKB{-webkit-animation-fill-mode: backwards;animation-fill-mode: backwards;-webkit-transform: translate(274.4000244140625px, 211.5730438232422px) translate(-274.4000244140625px, -211.5730438232422px) translate(0px, -500px);transform: translate(274.4000244140625px, 211.5730438232422px) translate(-274.4000244140625px, -211.5730438232422px) translate(0px, -500px);-webkit-animation-name: kf_el_K1rQDDPqlMn_an_JiajKMaKB;animation-name: kf_el_K1rQDDPqlMn_an_JiajKMaKB;-webkit-animation-timing-function: cubic-bezier(0, 0, 1, 1);animation-timing-function: cubic-bezier(0, 0, 1, 1);}</style>

<g id="el_BflBQC1MB7">
	<ellipse cx="294.7" cy="380.2" rx="234" ry="77.1" id="el_jLjWE6ahGZ"/>
	<ellipse cx="294.7" cy="375.3" rx="234" ry="77.1" id="el_bblu6RNG0_"/>
	<ellipse cx="294.7" cy="367.7" rx="164.4" ry="54.2" id="el_ktwKhR_p-d"/>
</g>
<g id="el_0104-gj2xn_an_7SBVqW3Jr" data-animator-group="true" data-animator-type="0"><g id="el_0104-gj2xn">
	<path d="M139.4,231.4c-0.2-3.5-0.4-8.2,0-13.1C138.6,223.5,138.8,227.9,139.4,231.4z" id="el_IxqO_FdFxW"/>
	<path d="M141.1,210.2c-0.1,0.1-0.2,0.2-0.3,0.4c0.1,0,0.2-0.1,0.3-0.1C141,210.4,141.1,210.3,141.1,210.2z" id="el_Y5JmTc7AuT"/>
	<path d="M140.3,210.7c0,0.1,0,0.3-0.1,0.4c0.2-0.2,0.3-0.4,0.5-0.5C140.5,210.7,140.3,210.7,140.3,210.7z" id="el_xdFlXQbcSh"/>
	<path d="M139.4,218.3c0.3-2.4,0.9-5,1.7-7.8c-0.1,0-0.2,0.1-0.3,0.1c-0.2,0.2-0.3,0.4-0.5,0.5&#10;&#9;&#9;C139.8,213.5,139.5,215.9,139.4,218.3z" id="el_bip5n7lygQ"/>
	<path d="M114.8,253.9c3.5,17,15.7,24.6,15.7,24.6C130.5,270.1,111.3,236.9,114.8,253.9z" id="el__z50bw25Py"/>
	<path d="M126,247.8c-0.7,16.7,9.7,27.2,9.7,27.2C137.8,267.2,126.7,231,126,247.8z" id="el_fkemzfDOwf"/>
	<path d="M140,237.7c0-0.1-0.4-2.6-0.6-6.3c-0.5-3.4-0.8-7.9,0-13.1c0.2-2.4,0.5-4.8,0.9-7.1&#10;&#9;&#9;c-16.2,17.9-26.7,31.5-26.7,31.5c-1.3,4-2.2,7.8-2.9,11.3C115.8,252.9,126.6,246.6,140,237.7z" id="el_T8DhJXn1vB"/>
	<path d="M140.8,237.2c-0.5-1.4-1-3.4-1.4-5.8c0.3,3.7,0.6,6.2,0.6,6.3C140.3,237.5,140.5,237.4,140.8,237.2z" id="el_G0Xyc9mJOl"/>
	<path d="M140,237.7l8.9,28.8l0.9-0.6l-8-26.1c0,0-0.5-0.9-1.1-2.6C140.5,237.4,140.3,237.5,140,237.7&#10;&#9;&#9;C140,237.7,140,237.7,140,237.7z" id="el_CPGoCb6-LN"/>
	<path d="M169.7,237.5c3.5,17,15.7,24.6,15.7,24.6C185.4,253.7,166.2,220.5,169.7,237.5z" id="el_UyVo8pr44D"/>
	<path d="M180.9,231.4c-0.7,16.7,9.7,27.2,9.7,27.2C192.7,250.8,181.5,214.6,180.9,231.4z" id="el_hCufdc9_LTH"/>
	<g id="el_PtRhcy-r57A">
		<path d="M140.9,329l12.6,5.6l2.8-14.1l-0.4,0.2C150,324,144.8,326.9,140.9,329z" id="el_dZrOC6dQ9zP"/>
		<path d="M189.2,362.8l-27.2-12.1l-4.3,21.5c12.1,15.8,23.4,25.9,31.3,31.9l6.4-31.6&#10;&#9;&#9;&#9;C193.4,369.3,191.3,366,189.2,362.8z" id="el_rcpwqqEr1sk"/>
		<path d="M136.6,339.3c4,7.3,8,13.9,12,19.9l2.7-13.4L136.6,339.3z" id="el_sE2_AoDrCc1"/>
		<path d="M199.5,411c0.8,0.5,1.3,0.7,1.3,0.7c10.2,3.2,20.2,4.3,29.9,3.8c-5.5-2.3-15.5-14.6-26.1-29.7L199.5,411z" id="el_G-C5YgXQCuD"/>
		<path d="M164.4,339.5l14.5,6.5c-5.3-9-9.5-16.6-11.6-21.2L164.4,339.5z" id="el_-1jvb3K4GRu"/>
		<path d="M195.5,372.5l-6.4,31.6c4.9,3.8,8.6,5.9,10.4,6.9l5.1-25.2C201.5,381.6,198.5,377,195.5,372.5z" id="el_z3mdm9Ue-jW"/>
		<path d="M189.2,362.8c-3.7-5.9-7.2-11.6-10.3-16.9l-14.5-6.5l3-14.7c-0.6-1.3-1-2.4-1.3-3.2l-1.6-5.2l-8.1,4&#10;&#9;&#9;&#9;l-2.8,14.1l-12.6-5.6c0,0-0.1,0.1-0.1,0.1l-6.7,3.7c0,0-0.6-1-1.5-2.8l3.3,8c0.2,0.4,0.5,0.8,0.7,1.3l14.7,6.5l-2.7,13.4&#10;&#9;&#9;&#9;c3.1,4.7,6.2,9,9.2,12.9l4.3-21.5L189.2,362.8z" id="el_R9z91B0S-ot"/>
		<path d="M126.8,316.1l32.5-16.2L149,266.5L113.7,291c0,0-8-12-3-37.1c-0.3,0.1-0.5,0.1-0.8,0.1l-1.7,6.5l-2.8,10.8&#10;&#9;&#9;&#9;c0,0,0.4-0.3,1-0.8c0,0.4,0,0.9,0,1.5c1.2,11,20.5,47.7,26.1,58.1l-2.4-5.9L126.8,316.1z" id="el_V6Lmdid_k-v"/>
		<path d="M113.7,291l35.3-24.4l-8.9-28.8c0,0,0,0,0,0c-13.4,9-24.2,15.2-29.4,16.2C105.7,279,113.7,291,113.7,291z" id="el_uLh8ZmwR5Pw"/>
		<path d="M159.3,299.9l-32.5,16.2l3.4,8.1l10.8,4.8c3.9-2.1,9.1-5,15-8.3l0.4-0.2l3.7-18.2L159.3,299.9z" id="el_VCENjbzmI_h"/>
		<polygon points="156.4,320.5 164.4,316.4 160,302.2 &#9;&#9;" id="el_azv5KeZdgI9"/>
		<path d="M140.8,329.1c0,0,0.1-0.1,0.1-0.1l-10.8-4.8l2.4,5.9c0.9,1.8,1.5,2.8,1.5,2.8L140.8,329.1z" id="el_baCAFXT5G-a"/>
		<path d="M279.1,380.3c12.4-15.5-31.5-119-65.7-152c-31.6-30.4-67-19.6-72.3-17.8c-0.8,2.8-1.3,5.4-1.7,7.8&#10;&#9;&#9;&#9;c-0.4,4.9-0.2,9.6,0,13.1c0.4,2.4,0.9,4.4,1.4,5.8c0.6,1.7,1.1,2.6,1.1,2.6l8,26.1l10.3,33.6l0.5-0.2l-0.2,1l4.8,15.7l1.5,5.1&#10;&#9;&#9;&#9;c0.3,0.6,0.6,1.2,0.9,1.8c4.3,8.6,8.4,16.4,12.3,23.5c3.3,6,6.5,11.5,9.6,16.6c2,3.3,4,6.4,5.9,9.3c3.2,4.9,6.2,9.3,9.1,13.2&#10;&#9;&#9;&#9;c12.6,17.1,22.3,25.7,28.4,29.8c-0.8,0.1-1.6,0.1-2.4,0.1c0.6,0.2,1.1,0.4,1.6,0.4C244.5,415.9,266.6,395.7,279.1,380.3z&#10;&#9;&#9;&#9; M251.5,310.3c10.8,7.5-14.8-1.1-19.5-5.6C232,304.6,240.6,302.7,251.5,310.3z M237.3,287c9.2,0.3-8.6,7-13.1,5.8&#10;&#9;&#9;&#9;C224.2,292.8,228.1,286.7,237.3,287z M190.6,258.5c0,0-10.4-10.4-9.7-27.2C181.5,214.6,192.7,250.8,190.6,258.5z M169.7,237.5&#10;&#9;&#9;&#9;c-3.5-17,15.7,16.2,15.7,24.6C185.4,262.1,173.2,254.5,169.7,237.5z M199.1,304.3c-9.6-14.6-13.1-29.2-8-32.6&#10;&#9;&#9;&#9;c5.1-3.4,17,5.8,26.6,20.4c9.6,14.6,13.1,29.2,8,32.6C220.5,328.1,208.6,319,199.1,304.3z M219,330.3c0,0,6.7,11.9,0,22.3&#10;&#9;&#9;&#9;C212.4,362.9,214.2,334.1,219,330.3z M233.7,335.2c0,0,8.6,5.1,13,17.8C251.1,365.6,234.8,341.5,233.7,335.2z" id="el_oBvCGqWmCvX"/>
		<path d="M195.5,372.5l0-0.1c-1.9-2.9-3.9-6-5.9-9.3l-0.3-0.2C191.3,366,193.4,369.3,195.5,372.5z" id="el_14WyIlwWFlH"/>
		<path d="M204.6,385.6l-0.1,0.3c10.6,15.1,20.7,27.4,26.1,29.7c0.8,0,1.6-0.1,2.4-0.1&#10;&#9;&#9;&#9;C226.9,411.2,217.2,402.7,204.6,385.6z" id="el_S_Fycs_N9p2"/>
		<path d="M178.9,345.9l1.1,0.5c-3.9-7.1-8.1-15-12.3-23.5l-0.4,1.9C169.4,329.3,173.6,337,178.9,345.9z" id="el_C8pt9gJro5x"/>
		<path d="M204.6,385.9l0.1-0.3c-2.9-3.9-5.9-8.3-9.1-13.2l0,0.1C198.5,377,201.5,381.6,204.6,385.9z" id="el_qS5y_2_ENVW"/>
		<path d="M189.2,362.8l0.3,0.2c-3.1-5.1-6.3-10.6-9.6-16.6l-1.1-0.5C182,351.2,185.5,357,189.2,362.8z" id="el_9ott7MbzSKN"/>
		<path d="M166,321.6c0.2,0.8,0.7,1.8,1.3,3.2l0.4-1.9c-0.3-0.6-0.6-1.2-0.9-1.8l-1.5-5.1l-0.8,0.4L166,321.6z" id="el_amI_0m2-sCQ"/>
		<polygon points="159.3,299.9 160.2,299.5 149.9,265.9 149,266.5 &#9;&#9;" id="el_bTXh0oLoIGf"/>
		<polygon points="160,302.2 160.4,300.3 160.2,299.5 159.3,299.9 &#9;&#9;" id="el_hMU_SYCPpPQ"/>
		<polygon points="164.4,316.4 165.2,316 160.4,300.3 160,302.2 &#9;&#9;" id="el_xyY8OeJ97dr"/>
		<polygon points="160.6,299.3 160.2,299.5 160.4,300.3 &#9;&#9;" id="el_vC9VtXB_FZr"/>
		<path d="M251.5,310.3c-10.8-7.5-19.5-5.6-19.5-5.6C236.6,309.2,262.3,317.8,251.5,310.3z" id="el_liN4g6mTq0f"/>
		<path d="M246.7,352.9c-4.4-12.7-13-17.8-13-17.8C234.8,341.5,251.1,365.6,246.7,352.9z" id="el_Z59Y2rMsQi-"/>
		<path d="M219,330.3c-4.8,3.9-6.6,32.6,0,22.3C225.7,342.2,219,330.3,219,330.3z" id="el_9SbgZwbwTUO"/>
		<path d="M237.3,287c-9.2-0.3-13.1,5.8-13.1,5.8C228.8,294,246.5,287.3,237.3,287z" id="el_wcsUBF9ChW5"/>
	</g>
</g></g>
<g id="el_ZhHmaoJdtV8_an_o-BOqRj38" data-animator-group="true" data-animator-type="0"><g id="el_ZhHmaoJdtV8">
	<path d="M193.5,236.7c-0.2-3.5-0.4-8.2,0-13.1C192.8,228.9,193,233.3,193.5,236.7z" id="el_2YM5563ZpDE"/>
	<path d="M195.2,215.5c-0.1,0.1-0.2,0.2-0.3,0.4c0.1,0,0.2-0.1,0.3-0.1C195.2,215.7,195.2,215.6,195.2,215.5z" id="el_fEtQTThQK0L"/>
	<path d="M194.5,216.1c0,0.1,0,0.3-0.1,0.4c0.2-0.2,0.3-0.4,0.5-0.5C194.6,216,194.5,216.1,194.5,216.1z" id="el_oxPjqOTDNFJ"/>
	<path d="M193.5,223.6c0.3-2.4,0.9-5,1.7-7.8c-0.1,0-0.2,0.1-0.3,0.1c-0.2,0.2-0.3,0.4-0.5,0.5&#10;&#9;&#9;C193.9,218.8,193.7,221.2,193.5,223.6z" id="el_ls9Ja4KPgCZ"/>
	<path d="M168.9,259.3c3.5,17,15.7,24.6,15.7,24.6C184.6,275.5,165.4,242.2,168.9,259.3z" id="el_BySwPHCb8Sd"/>
	<path d="M180.1,253.1c-0.7,16.7,9.7,27.2,9.7,27.2C191.9,272.6,180.8,236.4,180.1,253.1z" id="el_VgRwtrLkPyo"/>
	<path d="M194.2,243c0-0.1-0.4-2.6-0.6-6.3c-0.5-3.4-0.8-7.9,0-13.1c0.2-2.4,0.5-4.8,0.9-7.1&#10;&#9;&#9;c-16.2,17.9-26.7,31.5-26.7,31.5c-1.3,4-2.2,7.8-2.9,11.3C169.9,258.2,180.7,252,194.2,243z" id="el_cneYIHk8JP4"/>
	<path d="M194.9,242.5c-0.5-1.4-1-3.4-1.4-5.8c0.3,3.7,0.6,6.2,0.6,6.3C194.4,242.9,194.7,242.7,194.9,242.5z" id="el_Py9xtrktVoB"/>
	<path d="M194.2,243l8.9,28.8l0.9-0.6l-8-26.1c0,0-0.5-0.9-1.1-2.6C194.7,242.7,194.4,242.9,194.2,243&#10;&#9;&#9;C194.2,243,194.2,243,194.2,243z" id="el_pFtUaZyp_Ay"/>
	<path d="M223.8,242.8c3.5,17,15.7,24.6,15.7,24.6C239.5,259,220.3,225.8,223.8,242.8z" id="el_1nB4aC02hUe"/>
	<path d="M235,236.7c-0.7,16.7,9.7,27.2,9.7,27.2C246.8,256.1,235.7,220,235,236.7z" id="el_FTLpJRZLv4T"/>
	<g id="el_AssG52Hgdka">
		<path d="M195.1,334.3l12.6,5.6l2.8-14.1l-0.4,0.2C204.2,329.3,198.9,332.2,195.1,334.3z" id="el_gOfoneQTFBG"/>
		<path d="M243.4,368.2L216.2,356l-4.3,21.5c12.1,15.8,23.4,25.9,31.3,31.9l6.4-31.6&#10;&#9;&#9;&#9;C247.5,374.6,245.4,371.4,243.4,368.2z" id="el_DPWwaowHhdW"/>
		<path d="M190.7,344.7c4,7.3,8,13.9,12,19.9l2.7-13.4L190.7,344.7z" id="el_3TtMO5H22c9"/>
		<path d="M253.6,416.4c0.8,0.5,1.3,0.7,1.3,0.7c10.2,3.2,20.2,4.3,29.9,3.8c-5.5-2.3-15.5-14.6-26.1-29.7L253.6,416.4z&#10;&#9;&#9;&#9;" id="el_8Ga537WZ3rq"/>
		<path d="M218.5,344.8l14.5,6.5c-5.3-9-9.5-16.6-11.6-21.2L218.5,344.8z" id="el_2DX_xQYTlhk"/>
		<path d="M249.6,377.8l-6.4,31.6c4.9,3.8,8.6,5.9,10.4,6.9l5.1-25.2C255.7,386.9,252.6,382.4,249.6,377.8z" id="el_1cTbVSTr-TM"/>
		<path d="M243.4,368.2c-3.7-5.9-7.2-11.6-10.3-16.9l-14.5-6.5l3-14.7c-0.6-1.3-1-2.4-1.3-3.2l-1.6-5.2l-8.1,4&#10;&#9;&#9;&#9;l-2.8,14.1l-12.6-5.6c0,0-0.1,0.1-0.1,0.1l-6.7,3.7c0,0-0.6-1-1.5-2.8l3.3,8c0.2,0.4,0.5,0.8,0.7,1.3l14.7,6.5l-2.7,13.4&#10;&#9;&#9;&#9;c3.1,4.7,6.2,9,9.2,12.9l4.3-21.5L243.4,368.2z" id="el_sPQh4edqXAd"/>
		<path d="M180.9,321.4l32.5-16.2l-10.3-33.4l-35.3,24.4c0,0-8-12-3-37.1c-0.3,0.1-0.5,0.1-0.8,0.1l-1.7,6.5l-2.8,10.8&#10;&#9;&#9;&#9;c0,0,0.4-0.3,1-0.8c0,0.4,0,0.9,0,1.5c1.2,11,20.5,47.7,26.1,58.1l-2.4-5.9L180.9,321.4z" id="el_YVTCjBurcPj"/>
		<path d="M167.8,296.3l35.3-24.4l-8.9-28.8c0,0,0,0,0,0c-13.4,9-24.2,15.2-29.4,16.2&#10;&#9;&#9;&#9;C159.8,284.3,167.8,296.3,167.8,296.3z" id="el_IspRZI_JVsq"/>
		<path d="M213.4,305.3l-32.5,16.2l3.4,8.1l10.8,4.8c3.9-2.1,9.1-5,15-8.3l0.4-0.2l3.7-18.2L213.4,305.3z" id="el_iAJVEzV-Jzu"/>
		<polygon points="210.5,325.8 218.6,321.8 214.2,307.6 &#9;&#9;" id="el_KGovDAj0Zmz"/>
		<path d="M194.9,334.4c0,0,0.1-0.1,0.1-0.1l-10.8-4.8l2.4,5.9c0.9,1.8,1.5,2.8,1.5,2.8L194.9,334.4z" id="el_rn73a-3VgwQ"/>
		<path d="M333.2,385.6c12.4-15.5-31.5-119-65.7-152c-31.6-30.4-67-19.6-72.3-17.8c-0.8,2.8-1.3,5.4-1.7,7.8&#10;&#9;&#9;&#9;c-0.4,4.9-0.2,9.6,0,13.1c0.4,2.4,0.9,4.4,1.4,5.8c0.6,1.7,1.1,2.6,1.1,2.6l8,26.1l10.3,33.6l0.5-0.2l-0.2,1l4.8,15.7l1.5,5.1&#10;&#9;&#9;&#9;c0.3,0.6,0.6,1.2,0.9,1.8c4.3,8.6,8.4,16.4,12.3,23.5c3.3,6,6.5,11.5,9.6,16.6c2,3.3,4,6.4,5.9,9.3c3.2,4.9,6.2,9.3,9.1,13.2&#10;&#9;&#9;&#9;c12.6,17.1,22.3,25.7,28.4,29.8c-0.8,0.1-1.6,0.1-2.4,0.1c0.6,0.2,1.1,0.4,1.6,0.4C298.7,421.2,320.8,401.1,333.2,385.6z&#10;&#9;&#9;&#9; M305.6,315.6c10.8,7.5-14.8-1.1-19.5-5.6C286.1,310,294.8,308.1,305.6,315.6z M291.5,292.3c9.2,0.3-8.6,7-13.1,5.8&#10;&#9;&#9;&#9;C278.4,298.2,282.3,292.1,291.5,292.3z M244.8,263.9c0,0-10.4-10.4-9.7-27.2C235.7,220,246.8,256.1,244.8,263.9z M223.8,242.8&#10;&#9;&#9;&#9;c-3.5-17,15.7,16.2,15.7,24.6C239.5,267.4,227.3,259.9,223.8,242.8z M253.2,309.7c-9.6-14.6-13.1-29.2-8-32.6&#10;&#9;&#9;&#9;c5.1-3.4,17,5.8,26.6,20.4c9.6,14.6,13.1,29.2,8,32.6C274.7,333.4,262.8,324.3,253.2,309.7z M273.2,335.6c0,0,6.7,11.9,0,22.3&#10;&#9;&#9;&#9;C266.6,368.2,268.4,339.5,273.2,335.6z M287.8,340.5c0,0,8.6,5.1,13,17.8C305.2,371,288.9,346.8,287.8,340.5z" id="el_oxgZ9Ecooe6"/>
		<path d="M249.6,377.8l0-0.1c-1.9-2.9-3.9-6-5.9-9.3l-0.3-0.2C245.4,371.4,247.5,374.6,249.6,377.8z" id="el_de2l7Zj-WbK"/>
		<path d="M258.8,390.9l-0.1,0.3c10.6,15.1,20.7,27.4,26.1,29.7c0.8,0,1.6-0.1,2.4-0.1C281,416.6,271.4,408,258.8,390.9&#10;&#9;&#9;&#9;z" id="el_ELyIiVDiXWX"/>
		<path d="M233,351.3l1.1,0.5c-3.9-7.1-8.1-15-12.3-23.5l-0.4,1.9C223.5,334.7,227.7,342.3,233,351.3z" id="el_sBxLBC1Njv4"/>
		<path d="M258.7,391.2l0.1-0.3c-2.9-3.9-5.9-8.3-9.1-13.2l0,0.1C252.6,382.4,255.7,386.9,258.7,391.2z" id="el_hz_pGfTVuJY"/>
		<path d="M243.4,368.2l0.3,0.2c-3.1-5.1-6.3-10.6-9.6-16.6l-1.1-0.5C236.2,356.6,239.7,362.3,243.4,368.2z" id="el_eVH_Zy7ikOu"/>
		<path d="M220.2,326.9c0.2,0.8,0.7,1.8,1.3,3.2l0.4-1.9c-0.3-0.6-0.6-1.2-0.9-1.8l-1.5-5.1l-0.8,0.4L220.2,326.9z" id="el_S6qyAv7Z3xJ"/>
		<polygon points="213.4,305.3 214.3,304.8 204,271.3 203.1,271.9 &#9;&#9;" id="el_EeFtqG89EGc"/>
		<polygon points="214.2,307.6 214.5,305.6 214.3,304.8 213.4,305.3 &#9;&#9;" id="el_1ebgptwjmXb"/>
		<polygon points="218.6,321.8 219.4,321.4 214.5,305.6 214.2,307.6 &#9;&#9;" id="el_1azJsjhUw2s"/>
		<polygon points="214.8,304.6 214.3,304.8 214.5,305.6 &#9;&#9;" id="el_UsOjJ7OEVDX"/>
		<path d="M305.6,315.6c-10.8-7.5-19.5-5.6-19.5-5.6C290.8,314.5,316.4,323.2,305.6,315.6z" id="el_I5nPdo0LU4v"/>
		<path d="M300.8,358.3c-4.4-12.7-13-17.8-13-17.8C288.9,346.8,305.2,371,300.8,358.3z" id="el_pz9bCkGSDIC"/>
		<path d="M273.2,335.6c-4.8,3.9-6.6,32.6,0,22.3C279.8,347.5,273.2,335.6,273.2,335.6z" id="el_6rCOzw-MBBQ"/>
		<path d="M291.5,292.3c-9.2-0.3-13.1,5.8-13.1,5.8C282.9,299.3,300.7,292.6,291.5,292.3z" id="el_K_LRhwJOd9-"/>
	</g>
</g></g>
<g id="el_VvKbshabN8V_an_ezAgQgZCj" data-animator-group="true" data-animator-type="0"><g id="el_VvKbshabN8V">
	<path d="M247.6,236.7c-0.2-3.5-0.4-8.2,0-13.1C246.9,228.9,247.1,233.3,247.6,236.7z" id="el_WTKBZJFlIrt"/>
	<path d="M249.4,215.5c-0.1,0.1-0.2,0.2-0.3,0.4c0.1,0,0.2-0.1,0.3-0.1C249.3,215.7,249.3,215.6,249.4,215.5z" id="el_yS1gsWb1l6u"/>
	<path d="M248.6,216.1c0,0.1,0,0.3-0.1,0.4c0.2-0.2,0.3-0.4,0.5-0.5C248.7,216,248.6,216.1,248.6,216.1z" id="el_uZANtiwdA-v"/>
	<path d="M247.6,223.6c0.3-2.4,0.9-5,1.7-7.8c-0.1,0-0.2,0.1-0.3,0.1c-0.2,0.2-0.3,0.4-0.5,0.5&#10;&#9;&#9;C248.1,218.8,247.8,221.2,247.6,223.6z" id="el_DpKifehWRNl"/>
	<path d="M223.1,259.3c3.5,17,15.7,24.6,15.7,24.6C238.8,275.5,219.5,242.2,223.1,259.3z" id="el_JsQNMwGbiTW"/>
	<path d="M234.3,253.1c-0.7,16.7,9.7,27.2,9.7,27.2C246.1,272.6,234.9,236.4,234.3,253.1z" id="el_bYdDlCFkXl1"/>
	<path d="M248.3,243c0-0.1-0.4-2.6-0.6-6.3c-0.5-3.4-0.8-7.9,0-13.1c0.2-2.4,0.5-4.8,0.9-7.1&#10;&#9;&#9;c-16.2,17.9-26.7,31.5-26.7,31.5c-1.3,4-2.2,7.8-2.9,11.3C224.1,258.2,234.9,252,248.3,243z" id="el_VanexjB7fC1"/>
	<path d="M249,242.5c-0.5-1.4-1-3.4-1.4-5.8c0.3,3.7,0.6,6.2,0.6,6.3C248.5,242.9,248.8,242.7,249,242.5z" id="el_6Jh2s6mzCdX"/>
	<path d="M248.3,243l8.9,28.8l0.9-0.6l-8-26.1c0,0-0.5-0.9-1.1-2.6C248.8,242.7,248.5,242.9,248.3,243&#10;&#9;&#9;C248.3,243,248.3,243,248.3,243z" id="el_8YreanTVjl3"/>
	<path d="M277.9,242.8c3.5,17,15.7,24.6,15.7,24.6C293.7,259,274.4,225.8,277.9,242.8z" id="el_U8RPJk-rn-J"/>
	<path d="M289.1,236.7c-0.7,16.7,9.7,27.2,9.7,27.2C300.9,256.1,289.8,220,289.1,236.7z" id="el_22kwczXut_J"/>
	<g id="el_P6tNC6On9kO">
		<path d="M249.2,334.3l12.6,5.6l2.8-14.1l-0.4,0.2C258.3,329.3,253.1,332.2,249.2,334.3z" id="el_4tkYetRqk4k"/>
		<path d="M297.5,368.2L270.4,356l-4.3,21.5c12.1,15.8,23.4,25.9,31.3,31.9l6.4-31.6&#10;&#9;&#9;&#9;C301.6,374.6,299.5,371.4,297.5,368.2z" id="el_c-CXJ1HgbQQ"/>
		<path d="M244.9,344.7c4,7.3,8,13.9,12,19.9l2.7-13.4L244.9,344.7z" id="el_YtiUOIAtOp4"/>
		<path d="M307.8,416.4c0.8,0.5,1.3,0.7,1.3,0.7c10.2,3.2,20.2,4.3,29.9,3.8c-5.5-2.3-15.5-14.6-26.1-29.7L307.8,416.4z&#10;&#9;&#9;&#9;" id="el_WjhAb5dEAch"/>
		<path d="M272.6,344.8l14.5,6.5c-5.3-9-9.5-16.6-11.6-21.2L272.6,344.8z" id="el_q6G47QVCPxk"/>
		<path d="M303.7,377.8l-6.4,31.6c4.9,3.8,8.6,5.9,10.4,6.9l5.1-25.2C309.8,386.9,306.7,382.4,303.7,377.8z" id="el__KJ7KzAoFn3"/>
		<path d="M297.5,368.2c-3.7-5.9-7.2-11.6-10.3-16.9l-14.5-6.5l3-14.7c-0.6-1.3-1-2.4-1.3-3.2l-1.6-5.2l-8.1,4&#10;&#9;&#9;&#9;l-2.8,14.1l-12.6-5.6c0,0-0.1,0.1-0.1,0.1l-6.7,3.7c0,0-0.6-1-1.5-2.8l3.3,8c0.2,0.4,0.5,0.8,0.7,1.3l14.7,6.5l-2.7,13.4&#10;&#9;&#9;&#9;c3.1,4.7,6.2,9,9.2,12.9l4.3-21.5L297.5,368.2z" id="el_8By8GippsjB"/>
		<path d="M235,321.4l32.5-16.2l-10.3-33.4l-35.3,24.4c0,0-8-12-3-37.1c-0.3,0.1-0.5,0.1-0.8,0.1l-1.7,6.5l-2.8,10.8&#10;&#9;&#9;&#9;c0,0,0.4-0.3,1-0.8c0,0.4,0,0.9,0,1.5c1.2,11,20.5,47.7,26.1,58.1l-2.4-5.9L235,321.4z" id="el_zmqO-S157-F"/>
		<path d="M221.9,296.3l35.3-24.4l-8.9-28.8c0,0,0,0,0,0c-13.4,9-24.2,15.2-29.4,16.2&#10;&#9;&#9;&#9;C213.9,284.3,221.9,296.3,221.9,296.3z" id="el_2IzwMc7kJjF"/>
		<path d="M267.6,305.3L235,321.4l3.4,8.1l10.8,4.8c3.9-2.1,9.1-5,15-8.3l0.4-0.2l3.7-18.2L267.6,305.3z" id="el_jBNJQUX6dKx"/>
		<polygon points="264.6,325.8 272.7,321.8 268.3,307.6 &#9;&#9;" id="el_Wu_B7PlbN3E"/>
		<path d="M249.1,334.4c0,0,0.1-0.1,0.1-0.1l-10.8-4.8l2.4,5.9c0.9,1.8,1.5,2.8,1.5,2.8L249.1,334.4z" id="el_FrMFSK_s-Ml"/>
		<path d="M387.3,385.6c12.4-15.5-31.5-119-65.7-152c-31.6-30.4-67-19.6-72.3-17.8c-0.8,2.8-1.3,5.4-1.7,7.8&#10;&#9;&#9;&#9;c-0.4,4.9-0.2,9.6,0,13.1c0.4,2.4,0.9,4.4,1.4,5.8c0.6,1.7,1.1,2.6,1.1,2.6l8,26.1l10.3,33.6l0.5-0.2l-0.2,1l4.8,15.7l1.5,5.1&#10;&#9;&#9;&#9;c0.3,0.6,0.6,1.2,0.9,1.8c4.3,8.6,8.4,16.4,12.3,23.5c3.3,6,6.5,11.5,9.6,16.6c2,3.3,4,6.4,5.9,9.3c3.2,4.9,6.2,9.3,9.1,13.2&#10;&#9;&#9;&#9;c12.6,17.1,22.3,25.7,28.4,29.8c-0.8,0.1-1.6,0.1-2.4,0.1c0.6,0.2,1.1,0.4,1.6,0.4C352.8,421.2,374.9,401.1,387.3,385.6z&#10;&#9;&#9;&#9; M359.7,315.6c10.8,7.5-14.8-1.1-19.5-5.6C340.2,310,348.9,308.1,359.7,315.6z M345.6,292.3c9.2,0.3-8.6,7-13.1,5.8&#10;&#9;&#9;&#9;C332.5,298.2,336.4,292.1,345.6,292.3z M298.9,263.9c0,0-10.4-10.4-9.7-27.2C289.8,220,300.9,256.1,298.9,263.9z M277.9,242.8&#10;&#9;&#9;&#9;c-3.5-17,15.7,16.2,15.7,24.6C293.7,267.4,281.5,259.9,277.9,242.8z M307.3,309.7c-9.6-14.6-13.1-29.2-8-32.6&#10;&#9;&#9;&#9;c5.1-3.4,17,5.8,26.6,20.4c9.6,14.6,13.1,29.2,8,32.6C328.8,333.4,316.9,324.3,307.3,309.7z M327.3,335.6c0,0,6.7,11.9,0,22.3&#10;&#9;&#9;&#9;C320.7,368.2,322.5,339.5,327.3,335.6z M342,340.5c0,0,8.6,5.1,13,17.8C359.3,371,343.1,346.8,342,340.5z" id="el_85XH_Dy_OPR"/>
		<path d="M303.7,377.8l0-0.1c-1.9-2.9-3.9-6-5.9-9.3l-0.3-0.2C299.5,371.4,301.6,374.6,303.7,377.8z" id="el__VrnEfj0P5_"/>
		<path d="M312.9,390.9l-0.1,0.3c10.6,15.1,20.7,27.4,26.1,29.7c0.8,0,1.6-0.1,2.4-0.1&#10;&#9;&#9;&#9;C335.2,416.6,325.5,408,312.9,390.9z" id="el_EGC0dZpSMfY"/>
		<path d="M287.2,351.3l1.1,0.5c-3.9-7.1-8.1-15-12.3-23.5l-0.4,1.9C277.7,334.7,281.9,342.3,287.2,351.3z" id="el_oTcH5tZSgKC"/>
		<path d="M312.8,391.2l0.1-0.3c-2.9-3.9-5.9-8.3-9.1-13.2l0,0.1C306.7,382.4,309.8,386.9,312.8,391.2z" id="el_gbp653AczdH"/>
		<path d="M297.5,368.2l0.3,0.2c-3.1-5.1-6.3-10.6-9.6-16.6l-1.1-0.5C290.3,356.6,293.8,362.3,297.5,368.2z" id="el_7rqKAA6lp9e"/>
		<path d="M274.3,326.9c0.2,0.8,0.7,1.8,1.3,3.2l0.4-1.9c-0.3-0.6-0.6-1.2-0.9-1.8l-1.5-5.1l-0.8,0.4L274.3,326.9z" id="el_RU_w3iAj9Wc"/>
		<polygon points="267.6,305.3 268.4,304.8 258.1,271.3 257.2,271.9 &#9;&#9;" id="el_5pJcImpJ9lg"/>
		<polygon points="268.3,307.6 268.7,305.6 268.4,304.8 267.6,305.3 &#9;&#9;" id="el_pOCA6dvtQov"/>
		<polygon points="272.7,321.8 273.5,321.4 268.7,305.6 268.3,307.6 &#9;&#9;" id="el_px7EIwWqMgy"/>
		<polygon points="268.9,304.6 268.4,304.8 268.7,305.6 &#9;&#9;" id="el_MxzUTLkWeGC"/>
		<path d="M359.7,315.6c-10.8-7.5-19.5-5.6-19.5-5.6C344.9,314.5,370.5,323.2,359.7,315.6z" id="el_TPFgiV46DVw"/>
		<path d="M354.9,358.3c-4.4-12.7-13-17.8-13-17.8C343.1,346.8,359.3,371,354.9,358.3z" id="el_54CfQdSuwWn"/>
		<path d="M327.3,335.6c-4.8,3.9-6.6,32.6,0,22.3C333.9,347.5,327.3,335.6,327.3,335.6z" id="el_7mhIDWA8DPa"/>
		<path d="M345.6,292.3c-9.2-0.3-13.1,5.8-13.1,5.8C337,299.3,354.8,292.6,345.6,292.3z" id="el__S2yJJ_21OU"/>
	</g>
</g></g>
<g id="el_K1rQDDPqlMn_an_JiajKMaKB" data-animator-group="true" data-animator-type="0"><g id="el_K1rQDDPqlMn">
	<path d="M308.5,235.9c-0.2-3.5-0.4-8.2,0-13.1C307.7,228,307.9,232.4,308.5,235.9z" id="el_Qf8VxPgiUii"/>
	<path d="M310.2,214.7c-0.1,0.1-0.2,0.2-0.3,0.4c0.1,0,0.2-0.1,0.3-0.1C310.1,214.9,310.1,214.8,310.2,214.7z" id="el_s0HYKOM5Niz"/>
	<path d="M309.4,215.2c0,0.1,0,0.3-0.1,0.4c0.2-0.2,0.3-0.4,0.5-0.5C309.6,215.2,309.4,215.2,309.4,215.2z" id="el_LianBK7fnhZ"/>
	<path d="M308.4,222.8c0.3-2.4,0.9-5,1.7-7.8c-0.1,0-0.2,0.1-0.3,0.1c-0.2,0.2-0.3,0.4-0.5,0.5&#10;&#9;&#9;C308.9,218,308.6,220.4,308.4,222.8z" id="el_s0vizJL4lQ9"/>
	<path d="M283.9,258.4c3.5,17,15.7,24.6,15.7,24.6C299.6,274.6,280.3,241.4,283.9,258.4z" id="el_H80RFzznDZu"/>
	<path d="M295.1,252.3c-0.7,16.7,9.7,27.2,9.7,27.2C306.9,271.7,295.7,235.5,295.1,252.3z" id="el_ab-WI26Hq9Z"/>
	<path d="M309.1,242.2c0-0.1-0.4-2.6-0.6-6.3c-0.5-3.4-0.8-7.9,0-13.1c0.2-2.4,0.5-4.8,0.9-7.1&#10;&#9;&#9;c-16.2,17.9-26.7,31.5-26.7,31.5c-1.3,4-2.2,7.8-2.9,11.3C284.9,257.4,295.7,251.1,309.1,242.2z" id="el_OAUL4ynYD5j"/>
	<path d="M309.9,241.7c-0.5-1.4-1-3.4-1.4-5.8c0.3,3.7,0.6,6.2,0.6,6.3C309.3,242,309.6,241.9,309.9,241.7z" id="el_jd72gl7-U-z"/>
	<path d="M309.1,242.2L318,271l0.9-0.6l-8-26.1c0,0-0.5-0.9-1.1-2.6C309.6,241.9,309.3,242,309.1,242.2&#10;&#9;&#9;C309.1,242.2,309.1,242.2,309.1,242.2z" id="el_-dXdLjt1DKE"/>
	<path d="M338.8,242c3.5,17,15.7,24.6,15.7,24.6C354.5,258.2,335.2,225,338.8,242z" id="el_F6ad7Scfmxb"/>
	<path d="M349.9,235.9c-0.7,16.7,9.7,27.2,9.7,27.2C361.7,255.3,350.6,219.1,349.9,235.9z" id="el_mFbr_aAmEie"/>
	<g id="el_6aGIk1PhZeZ">
		<path d="M310,333.5l12.6,5.6l2.8-14.1l-0.4,0.2C319.1,328.5,313.9,331.3,310,333.5z" id="el_qlLJlbSrMyi"/>
		<path d="M358.3,367.3l-27.2-12.1l-4.3,21.5c12.1,15.8,23.4,25.9,31.3,31.9l6.4-31.6&#10;&#9;&#9;&#9;C362.4,373.8,360.3,370.5,358.3,367.3z" id="el_znZRS3NxdIr"/>
		<path d="M305.7,343.8c4,7.3,8,13.9,12,19.9l2.7-13.4L305.7,343.8z" id="el_GHY5D6tO1O8"/>
		<path d="M368.6,415.5c0.8,0.5,1.3,0.7,1.3,0.7c10.2,3.2,20.2,4.3,29.9,3.8c-5.5-2.3-15.5-14.6-26.1-29.7L368.6,415.5z&#10;&#9;&#9;&#9;" id="el_teEF7Jq587k"/>
		<path d="M333.4,343.9l14.5,6.5c-5.3-9-9.5-16.6-11.6-21.2L333.4,343.9z" id="el_BgZ10RzwOIw"/>
		<path d="M364.5,377l-6.4,31.6c4.9,3.8,8.6,5.9,10.4,6.9l5.1-25.2C370.6,386.1,367.5,381.5,364.5,377z" id="el_XbFAdD7HVig"/>
		<path d="M358.3,367.3c-3.7-5.9-7.2-11.6-10.3-16.9l-14.5-6.5l3-14.7c-0.6-1.3-1-2.4-1.3-3.2l-1.6-5.2l-8.1,4&#10;&#9;&#9;&#9;l-2.8,14.1l-12.6-5.6c0,0-0.1,0.1-0.1,0.1l-6.7,3.7c0,0-0.6-1-1.5-2.8l3.3,8c0.2,0.4,0.5,0.8,0.7,1.3l14.7,6.5l-2.7,13.4&#10;&#9;&#9;&#9;c3.1,4.7,6.2,9,9.2,12.9l4.3-21.5L358.3,367.3z" id="el_U2bDPaCS7mC"/>
		<path d="M295.8,320.6l32.5-16.2L318,271l-35.3,24.4c0,0-8-12-3-37.1c-0.3,0.1-0.5,0.1-0.8,0.1l-1.7,6.5l-2.8,10.8&#10;&#9;&#9;&#9;c0,0,0.4-0.3,1-0.8c0,0.4,0,0.9,0,1.5c1.2,11,20.5,47.7,26.1,58.1l-2.4-5.9L295.8,320.6z" id="el_wybFOEYRoIX"/>
		<path d="M282.8,295.5L318,271l-8.9-28.8c0,0,0,0,0,0c-13.4,9-24.2,15.2-29.4,16.2&#10;&#9;&#9;&#9;C274.7,283.5,282.8,295.5,282.8,295.5z" id="el_M3jhm2N8gt6"/>
		<path d="M328.4,304.4l-32.5,16.2l3.4,8.1l10.8,4.8c3.9-2.1,9.1-5,15-8.3l0.4-0.2l3.7-18.2L328.4,304.4z" id="el_aFxyQOO8NNB"/>
		<polygon points="325.4,325 333.5,320.9 329.1,306.7 &#9;&#9;" id="el_waxEKQ09VLK"/>
		<path d="M309.9,333.6c0,0,0.1-0.1,0.1-0.1l-10.8-4.8l2.4,5.9c0.9,1.8,1.5,2.8,1.5,2.8L309.9,333.6z" id="el_yGXkhgoex7B"/>
		<path d="M448.1,384.7c12.4-15.5-31.5-119-65.7-152c-31.6-30.4-67-19.6-72.3-17.8c-0.8,2.8-1.3,5.4-1.7,7.8&#10;&#9;&#9;&#9;c-0.4,4.9-0.2,9.6,0,13.1c0.4,2.4,0.9,4.4,1.4,5.8c0.6,1.7,1.1,2.6,1.1,2.6l8,26.1l10.3,33.6l0.5-0.2l-0.2,1l4.8,15.7l1.5,5.1&#10;&#9;&#9;&#9;c0.3,0.6,0.6,1.2,0.9,1.8c4.3,8.6,8.4,16.4,12.3,23.5c3.3,6,6.5,11.5,9.6,16.6c2,3.3,4,6.4,5.9,9.3c3.2,4.9,6.2,9.3,9.1,13.2&#10;&#9;&#9;&#9;c12.6,17.1,22.3,25.7,28.4,29.8c-0.8,0.1-1.6,0.1-2.4,0.1c0.6,0.2,1.1,0.4,1.6,0.4C413.6,420.4,435.7,400.2,448.1,384.7z&#10;&#9;&#9;&#9; M420.5,314.8c10.8,7.5-14.8-1.1-19.5-5.6C401,309.1,409.7,307.2,420.5,314.8z M406.4,291.5c9.2,0.3-8.6,7-13.1,5.8&#10;&#9;&#9;&#9;C393.3,297.3,397.2,291.2,406.4,291.5z M359.7,263c0,0-10.4-10.4-9.7-27.2C350.6,219.1,361.7,255.3,359.7,263z M338.8,242&#10;&#9;&#9;&#9;c-3.5-17,15.7,16.2,15.7,24.6C354.5,266.6,342.3,259,338.8,242z M368.1,308.8c-9.6-14.6-13.1-29.2-8-32.6&#10;&#9;&#9;&#9;c5.1-3.4,17,5.8,26.6,20.4c9.6,14.6,13.1,29.2,8,32.6C389.6,332.6,377.7,323.4,368.1,308.8z M388.1,334.7c0,0,6.7,11.9,0,22.3&#10;&#9;&#9;&#9;C381.5,367.4,383.3,338.6,388.1,334.7z M402.8,339.7c0,0,8.6,5.1,13,17.8C420.1,370.1,403.9,346,402.8,339.7z" id="el_ogO6kNTuGgM"/>
		<path d="M364.5,377l0-0.1c-1.9-2.9-3.9-6-5.9-9.3l-0.3-0.2C360.3,370.5,362.4,373.8,364.5,377z" id="el_WPuOFmtX0Uu"/>
		<path d="M373.7,390.1l-0.1,0.3c10.6,15.1,20.7,27.4,26.1,29.7c0.8,0,1.6-0.1,2.4-0.1&#10;&#9;&#9;&#9;C396,415.7,386.3,407.2,373.7,390.1z" id="el_JU-GCWBdvBl"/>
		<path d="M348,350.4l1.1,0.5c-3.9-7.1-8.1-15-12.3-23.5l-0.4,1.9C338.5,333.8,342.7,341.5,348,350.4z" id="el_UIELxglNUDY"/>
		<path d="M373.6,390.4l0.1-0.3c-2.9-3.9-5.9-8.3-9.1-13.2l0,0.1C367.5,381.5,370.6,386.1,373.6,390.4z" id="el_s08TOR_Fbnf"/>
		<path d="M358.3,367.3l0.3,0.2c-3.1-5.1-6.3-10.6-9.6-16.6l-1.1-0.5C351.1,355.7,354.6,361.5,358.3,367.3z" id="el_5C5L8Qfu7zp"/>
		<path d="M335.1,326.1c0.2,0.8,0.7,1.8,1.3,3.2l0.4-1.9c-0.3-0.6-0.6-1.2-0.9-1.8l-1.5-5.1l-0.8,0.4L335.1,326.1z" id="el_aF0Cwmf6hDT"/>
		<polygon points="328.4,304.4 329.2,304 318.9,270.4 318,271 &#9;&#9;" id="el_UHuRv7e3n7p"/>
		<polygon points="329.1,306.7 329.5,304.8 329.2,304 328.4,304.4 &#9;&#9;" id="el_4dQcmjysATu"/>
		<polygon points="333.5,320.9 334.3,320.5 329.5,304.8 329.1,306.7 &#9;&#9;" id="el_dEB_WX6Am3K"/>
		<polygon points="329.7,303.8 329.2,304 329.5,304.8 &#9;&#9;" id="el_U8fYs09yoWI"/>
		<path d="M420.5,314.8c-10.8-7.5-19.5-5.6-19.5-5.6C405.7,313.7,431.3,322.3,420.5,314.8z" id="el_Eg5Jm_OseiF"/>
		<path d="M415.7,357.4c-4.4-12.7-13-17.8-13-17.8C403.9,346,420.1,370.1,415.7,357.4z" id="el_D4By_PIThuX"/>
		<path d="M388.1,334.7c-4.8,3.9-6.6,32.6,0,22.3C394.7,346.7,388.1,334.7,388.1,334.7z" id="el_TM8F-0o-IN9"/>
		<path d="M406.4,291.5c-9.2-0.3-13.1,5.8-13.1,5.8C397.8,298.5,415.6,291.8,406.4,291.5z" id="el_-aIVtviY8aG"/>
	</g>
</g></g>
</svg>