<svg version="1.1" id="el_brZh0P2dT" xmlns="http://www.w3.org/2000/svg" xmlns:xlink="http://www.w3.org/1999/xlink" x="0px" y="0px" viewBox="0 0 576 576" style="enable-background:new 0 0 576 576;" xml:space="preserve"><style>@-webkit-keyframes kf_el_R2_eiQp4gld_an_MZK6IVJML{31.67%{opacity: 0;}56.67%{opacity: 1;}0%{opacity: 0;}100%{opacity: 1;}}@keyframes kf_el_R2_eiQp4gld_an_MZK6IVJML{31.67%{opacity: 0;}56.67%{opacity: 1;}0%{opacity: 0;}100%{opacity: 1;}}@-webkit-keyframes kf_el_CsvkVtQvdnK_an_YRA8UmhIi{0%{opacity: 0;}30.83%{opacity: 0;}42.50%{opacity: 1;}100%{opacity: 1;}}@keyframes kf_el_CsvkVtQvdnK_an_YRA8UmhIi{0%{opacity: 0;}30.83%{opacity: 0;}42.50%{opacity: 1;}100%{opacity: 1;}}@-webkit-keyframes kf_el_6kS0wjI1we_an_QgGxYwZnX{0%{opacity: 0;}30.83%{opacity: 0;}42.50%{opacity: 1;}100%{opacity: 1;}}@keyframes kf_el_6kS0wjI1we_an_QgGxYwZnX{0%{opacity: 0;}30.83%{opacity: 0;}42.50%{opacity: 1;}100%{opacity: 1;}}@-webkit-keyframes kf_el_7NCKKRV-haP_an_PXOAY68p8{0%{opacity: 0;}30.83%{opacity: 0;}42.50%{opacity: 1;}100%{opacity: 1;}}@keyframes kf_el_7NCKKRV-haP_an_PXOAY68p8{0%{opacity: 0;}30.83%{opacity: 0;}42.50%{opacity: 1;}100%{opacity: 1;}}@-webkit-keyframes kf_el_CsvkVtQvdnK_an_H8aI5lpex{44.17%{-webkit-transform: translate(23.599000930786133px, 66.13056945800781px) translate(-23.599000930786133px, -66.13056945800781px) translate(0px, 0px);transform: translate(23.599000930786133px, 66.13056945800781px) translate(-23.599000930786133px, -66.13056945800781px) translate(0px, 0px);}66.67%{-webkit-transform: translate(23.599000930786133px, 66.13056945800781px) translate(-23.599000930786133px, -66.13056945800781px) translate(0px, 700px);transform: translate(23.599000930786133px, 66.13056945800781px) translate(-23.599000930786133px, -66.13056945800781px) translate(0px, 700px);}0%{-webkit-transform: translate(23.599000930786133px, 66.13056945800781px) translate(-23.599000930786133px, -66.13056945800781px) translate(0px, 0px);transform: translate(23.599000930786133px, 66.13056945800781px) translate(-23.599000930786133px, -66.13056945800781px) translate(0px, 0px);}100%{-webkit-transform: translate(23.599000930786133px, 66.13056945800781px) translate(-23.599000930786133px, -66.13056945800781px) translate(0px, 700px);transform: translate(23.599000930786133px, 66.13056945800781px) translate(-23.599000930786133px, -66.13056945800781px) translate(0px, 700px);}}@keyframes kf_el_CsvkVtQvdnK_an_H8aI5lpex{44.17%{-webkit-transform: translate(23.599000930786133px, 66.13056945800781px) translate(-23.599000930786133px, -66.13056945800781px) translate(0px, 0px);transform: translate(23.599000930786133px, 66.13056945800781px) translate(-23.599000930786133px, -66.13056945800781px) translate(0px, 0px);}66.67%{-webkit-transform: translate(23.599000930786133px, 66.13056945800781px) translate(-23.599000930786133px, -66.13056945800781px) translate(0px, 700px);transform: translate(23.599000930786133px, 66.13056945800781px) translate(-23.599000930786133px, -66.13056945800781px) translate(0px, 700px);}0%{-webkit-transform: translate(23.599000930786133px, 66.13056945800781px) translate(-23.599000930786133px, -66.13056945800781px) translate(0px, 0px);transform: translate(23.599000930786133px, 66.13056945800781px) translate(-23.599000930786133px, -66.13056945800781px) translate(0px, 0px);}100%{-webkit-transform: translate(23.599000930786133px, 66.13056945800781px) translate(-23.599000930786133px, -66.13056945800781px) translate(0px, 700px);transform: translate(23.599000930786133px, 66.13056945800781px) translate(-23.599000930786133px, -66.13056945800781px) translate(0px, 700px);}}@-webkit-keyframes kf_el_6kS0wjI1we_an_O0P918KW7{42.50%{-webkit-transform: translate(168.40000915527344px, 160.5999755859375px) translate(-168.40000915527344px, -160.5999755859375px) translate(0px, 0px);transform: translate(168.40000915527344px, 160.5999755859375px) translate(-168.40000915527344px, -160.5999755859375px) translate(0px, 0px);}0%{-webkit-transform: translate(168.40000915527344px, 160.5999755859375px) translate(-168.40000915527344px, -160.5999755859375px) translate(0px, 0px);transform: translate(168.40000915527344px, 160.5999755859375px) translate(-168.40000915527344px, -160.5999755859375px) translate(0px, 0px);}100%{-webkit-transform: translate(168.40000915527344px, 160.5999755859375px) translate(-168.40000915527344px, -160.5999755859375px) translate(0px, 0px);transform: translate(168.40000915527344px, 160.5999755859375px) translate(-168.40000915527344px, -160.5999755859375px) translate(0px, 0px);}}@keyframes kf_el_6kS0wjI1we_an_O0P918KW7{42.50%{-webkit-transform: translate(168.40000915527344px, 160.5999755859375px) translate(-168.40000915527344px, -160.5999755859375px) translate(0px, 0px);transform: translate(168.40000915527344px, 160.5999755859375px) translate(-168.40000915527344px, -160.5999755859375px) translate(0px, 0px);}0%{-webkit-transform: translate(168.40000915527344px, 160.5999755859375px) translate(-168.40000915527344px, -160.5999755859375px) translate(0px, 0px);transform: translate(168.40000915527344px, 160.5999755859375px) translate(-168.40000915527344px, -160.5999755859375px) translate(0px, 0px);}100%{-webkit-transform: translate(168.40000915527344px, 160.5999755859375px) translate(-168.40000915527344px, -160.5999755859375px) translate(0px, 0px);transform: translate(168.40000915527344px, 160.5999755859375px) translate(-168.40000915527344px, -160.5999755859375px) translate(0px, 0px);}}@-webkit-keyframes kf_el_7NCKKRV-haP_an_mu1E8AHgO{43.33%{-webkit-transform: translate(127.19998168945312px, 214.60000610351562px) translate(-127.19998168945312px, -214.60000610351562px) translate(0px, 0px);transform: translate(127.19998168945312px, 214.60000610351562px) translate(-127.19998168945312px, -214.60000610351562px) translate(0px, 0px);}64.17%{-webkit-transform: translate(127.19998168945312px, 214.60000610351562px) translate(-127.19998168945312px, -214.60000610351562px) translate(-1000px, 0px);transform: translate(127.19998168945312px, 214.60000610351562px) translate(-127.19998168945312px, -214.60000610351562px) translate(-1000px, 0px);}0%{-webkit-transform: translate(127.19998168945312px, 214.60000610351562px) translate(-127.19998168945312px, -214.60000610351562px) translate(0px, 0px);transform: translate(127.19998168945312px, 214.60000610351562px) translate(-127.19998168945312px, -214.60000610351562px) translate(0px, 0px);}100%{-webkit-transform: translate(127.19998168945312px, 214.60000610351562px) translate(-127.19998168945312px, -214.60000610351562px) translate(-1000px, 0px);transform: translate(127.19998168945312px, 214.60000610351562px) translate(-127.19998168945312px, -214.60000610351562px) translate(-1000px, 0px);}}@keyframes kf_el_7NCKKRV-haP_an_mu1E8AHgO{43.33%{-webkit-transform: translate(127.19998168945312px, 214.60000610351562px) translate(-127.19998168945312px, -214.60000610351562px) translate(0px, 0px);transform: translate(127.19998168945312px, 214.60000610351562px) translate(-127.19998168945312px, -214.60000610351562px) translate(0px, 0px);}64.17%{-webkit-transform: translate(127.19998168945312px, 214.60000610351562px) translate(-127.19998168945312px, -214.60000610351562px) translate(-1000px, 0px);transform: translate(127.19998168945312px, 214.60000610351562px) translate(-127.19998168945312px, -214.60000610351562px) translate(-1000px, 0px);}0%{-webkit-transform: translate(127.19998168945312px, 214.60000610351562px) translate(-127.19998168945312px, -214.60000610351562px) translate(0px, 0px);transform: translate(127.19998168945312px, 214.60000610351562px) translate(-127.19998168945312px, -214.60000610351562px) translate(0px, 0px);}100%{-webkit-transform: translate(127.19998168945312px, 214.60000610351562px) translate(-127.19998168945312px, -214.60000610351562px) translate(-1000px, 0px);transform: translate(127.19998168945312px, 214.60000610351562px) translate(-127.19998168945312px, -214.60000610351562px) translate(-1000px, 0px);}}@-webkit-keyframes kf_el_R2_eiQp4gld_an_-DOn-SrAW{0%{-webkit-transform: translate(392.29998779296875px, 352.79998779296875px) translate(-392.29998779296875px, -352.79998779296875px) translate(0px, 0px);transform: translate(392.29998779296875px, 352.79998779296875px) translate(-392.29998779296875px, -352.79998779296875px) translate(0px, 0px);}56.67%{-webkit-transform: translate(392.29998779296875px, 352.79998779296875px) translate(-392.29998779296875px, -352.79998779296875px) translate(0px, 0px);transform: translate(392.29998779296875px, 352.79998779296875px) translate(-392.29998779296875px, -352.79998779296875px) translate(0px, 0px);}100%{-webkit-transform: translate(392.29998779296875px, 352.79998779296875px) translate(-392.29998779296875px, -352.79998779296875px) translate(0px, 0px);transform: translate(392.29998779296875px, 352.79998779296875px) translate(-392.29998779296875px, -352.79998779296875px) translate(0px, 0px);}}@keyframes kf_el_R2_eiQp4gld_an_-DOn-SrAW{0%{-webkit-transform: translate(392.29998779296875px, 352.79998779296875px) translate(-392.29998779296875px, -352.79998779296875px) translate(0px, 0px);transform: translate(392.29998779296875px, 352.79998779296875px) translate(-392.29998779296875px, -352.79998779296875px) translate(0px, 0px);}56.67%{-webkit-transform: translate(392.29998779296875px, 352.79998779296875px) translate(-392.29998779296875px, -352.79998779296875px) translate(0px, 0px);transform: translate(392.29998779296875px, 352.79998779296875px) translate(-392.29998779296875px, -352.79998779296875px) translate(0px, 0px);}100%{-webkit-transform: translate(392.29998779296875px, 352.79998779296875px) translate(-392.29998779296875px, -352.79998779296875px) translate(0px, 0px);transform: translate(392.29998779296875px, 352.79998779296875px) translate(-392.29998779296875px, -352.79998779296875px) translate(0px, 0px);}}@-webkit-keyframes kf_el_ayTfdJ_YfQn_an_ne6U7JuSh{0%{opacity: 1;}26.67%{opacity: 0;}100%{opacity: 0;}}@keyframes kf_el_ayTfdJ_YfQn_an_ne6U7JuSh{0%{opacity: 1;}26.67%{opacity: 0;}100%{opacity: 0;}}@-webkit-keyframes kf_el_b5uPMT0M5Cr_an_pc7F6fcjf{0%{-webkit-transform: translate(23.20000457763672px, 185.38096618652344px) translate(-23.20000457763672px, -185.38096618652344px) translate(0px, 0px);transform: translate(23.20000457763672px, 185.38096618652344px) translate(-23.20000457763672px, -185.38096618652344px) translate(0px, 0px);}19.17%{-webkit-transform: translate(23.20000457763672px, 185.38096618652344px) translate(-23.20000457763672px, -185.38096618652344px) translate(-1000px, 0px);transform: translate(23.20000457763672px, 185.38096618652344px) translate(-23.20000457763672px, -185.38096618652344px) translate(-1000px, 0px);}100%{-webkit-transform: translate(23.20000457763672px, 185.38096618652344px) translate(-23.20000457763672px, -185.38096618652344px) translate(-1000px, 0px);transform: translate(23.20000457763672px, 185.38096618652344px) translate(-23.20000457763672px, -185.38096618652344px) translate(-1000px, 0px);}}@keyframes kf_el_b5uPMT0M5Cr_an_pc7F6fcjf{0%{-webkit-transform: translate(23.20000457763672px, 185.38096618652344px) translate(-23.20000457763672px, -185.38096618652344px) translate(0px, 0px);transform: translate(23.20000457763672px, 185.38096618652344px) translate(-23.20000457763672px, -185.38096618652344px) translate(0px, 0px);}19.17%{-webkit-transform: translate(23.20000457763672px, 185.38096618652344px) translate(-23.20000457763672px, -185.38096618652344px) translate(-1000px, 0px);transform: translate(23.20000457763672px, 185.38096618652344px) translate(-23.20000457763672px, -185.38096618652344px) translate(-1000px, 0px);}100%{-webkit-transform: translate(23.20000457763672px, 185.38096618652344px) translate(-23.20000457763672px, -185.38096618652344px) translate(-1000px, 0px);transform: translate(23.20000457763672px, 185.38096618652344px) translate(-23.20000457763672px, -185.38096618652344px) translate(-1000px, 0px);}}@-webkit-keyframes kf_el_906PtSXhiJw_an_HS4GSaq8J{0%{-webkit-transform: translate(125.68928527832031px, 44.529930114746094px) translate(-125.68928527832031px, -44.529930114746094px) translate(0px, 0px);transform: translate(125.68928527832031px, 44.529930114746094px) translate(-125.68928527832031px, -44.529930114746094px) translate(0px, 0px);}21.67%{-webkit-transform: translate(125.68928527832031px, 44.529930114746094px) translate(-125.68928527832031px, -44.529930114746094px) translate(0px, 700px);transform: translate(125.68928527832031px, 44.529930114746094px) translate(-125.68928527832031px, -44.529930114746094px) translate(0px, 700px);}100%{-webkit-transform: translate(125.68928527832031px, 44.529930114746094px) translate(-125.68928527832031px, -44.529930114746094px) translate(0px, 700px);transform: translate(125.68928527832031px, 44.529930114746094px) translate(-125.68928527832031px, -44.529930114746094px) translate(0px, 700px);}}@keyframes kf_el_906PtSXhiJw_an_HS4GSaq8J{0%{-webkit-transform: translate(125.68928527832031px, 44.529930114746094px) translate(-125.68928527832031px, -44.529930114746094px) translate(0px, 0px);transform: translate(125.68928527832031px, 44.529930114746094px) translate(-125.68928527832031px, -44.529930114746094px) translate(0px, 0px);}21.67%{-webkit-transform: translate(125.68928527832031px, 44.529930114746094px) translate(-125.68928527832031px, -44.529930114746094px) translate(0px, 700px);transform: translate(125.68928527832031px, 44.529930114746094px) translate(-125.68928527832031px, -44.529930114746094px) translate(0px, 700px);}100%{-webkit-transform: translate(125.68928527832031px, 44.529930114746094px) translate(-125.68928527832031px, -44.529930114746094px) translate(0px, 700px);transform: translate(125.68928527832031px, 44.529930114746094px) translate(-125.68928527832031px, -44.529930114746094px) translate(0px, 700px);}}#el_brZh0P2dT *{-webkit-animation-duration: 4s;animation-duration: 4s;-webkit-animation-iteration-count: infinite;animation-iteration-count: infinite;-webkit-animation-timing-function: cubic-bezier(0, 0, 1, 1);animation-timing-function: cubic-bezier(0, 0, 1, 1);}#el_hOsG0-5Yad{fill: none;}#el_gfS7TCfzkf{fill: none;}#el_UVtki6AICE{fill: none;}#el_4JOqeTxCpW{fill: none;}#el_WRiw1DVBty{fill: none;}#el_I2-EC7w1Xf{fill: none;}#el_VTc0W2TZin{fill: none;}#el_oce-E3dLfh{fill: none;}#el_mBUedlEogY{fill: none;}#el_qRDfgs248K{fill: none;}#el_GSgnzvDeD1{fill: #FCC008;}#el_Df3vanVSpk{fill: #FCC008;}#el_8vMMRQfMuI{fill: #FCC008;}#el_edUYJqWW4O{fill: #FCC008;}#el_L4k33Bzx-Z7{fill: #FCC008;-webkit-transform: matrix(0.6512, -0.7589, 0.7589, 0.6512, -41.4645, 311.9996);transform: matrix(0.6512, -0.7589, 0.7589, 0.6512, -41.4645, 311.9996);}#el_8OpIKuAdY1I{fill: #FCC008;-webkit-transform: matrix(0.6512, -0.7589, 0.7589, 0.6512, -53.1194, 352.9713);transform: matrix(0.6512, -0.7589, 0.7589, 0.6512, -53.1194, 352.9713);}#el_lqy3EHghvia{fill: #FCC008;}#el_GKcljd0d8Hw{fill: #FCC008;-webkit-transform: matrix(0.6512, -0.7589, 0.7589, 0.6512, -139.9587, 328.1396);transform: matrix(0.6512, -0.7589, 0.7589, 0.6512, -139.9587, 328.1396);}#el_1XKGJhSHxiR{fill: #FCC008;-webkit-transform: matrix(0.6512, -0.7589, 0.7589, 0.6512, -128.2235, 287.1909);transform: matrix(0.6512, -0.7589, 0.7589, 0.6512, -128.2235, 287.1909);}#el_aBxQ4rnge7c{fill: #FCC008;}#el_jnjUSrok25z{fill: #FCC008;}#el_gibXYiGRJvO{fill: #FCC008;-webkit-transform: matrix(0.6512, -0.7589, 0.7589, 0.6512, -153.0437, 373.9901);transform: matrix(0.6512, -0.7589, 0.7589, 0.6512, -153.0437, 373.9901);}#el_LY5tEmFsLpe{fill: #FCC008;}#el_vOxAXz6M7LI{fill: #FCC008;}#el_jRGECuYQ5Zh{fill: #FCC008;-webkit-transform: matrix(0.6512, -0.7589, 0.7589, 0.6512, -107.2733, 387.0518);transform: matrix(0.6512, -0.7589, 0.7589, 0.6512, -107.2733, 387.0518);}#el_CFrglMU-jwc{fill: #FCC008;-webkit-transform: matrix(0.6512, -0.7589, 0.7589, 0.6512, -82.4544, 300.2533);transform: matrix(0.6512, -0.7589, 0.7589, 0.6512, -82.4544, 300.2533);}#el_OE7myD8vukO{fill: #FCC008;-webkit-transform: matrix(0.6512, -0.7589, 0.7589, 0.6512, -94.2122, 341.2823);transform: matrix(0.6512, -0.7589, 0.7589, 0.6512, -94.2122, 341.2823);}#el_7P0jStIexWX{fill: #D47F00;}#el_EFpQXKWu1lU{fill: #D47F00;}#el_XE2v3CIWXvU{fill: #D47F00;}#el_4VTm-sC00mB{fill: #D47F00;}#el_MafIfF7vpy0{fill: #D47F00;}#el_yTyGYzNav29{fill: #D47F00;}#el_kN_jfiLqJGO{fill: #D47F00;}#el_acZ3xHxZar2{fill: #D47F00;}#el_9t2eU3w5Hz7{fill: #D47F00;}#el_ZrlII_k2gOG{fill: #D47F00;}#el_OIIUJOgKvKk{fill: #D47F00;}#el_rmOXBL-Yai9{fill: #D47F00;}#el_92DHMiK81rP{fill: #D47F00;}#el_hvEzXB_eXUI{fill: #D47F00;}#el_XMEgrG8CLB-{fill: #D47F00;}#el_L7ZLoS7zjy4{fill: #D47F00;}#el_P111kb9zg4X{fill: #D47F00;}#el_ROhw-J6teqO{fill: #FCC008;}#el_krHww78RgwO{fill: #F9DC0B;}#el_eu6NYUXmJb3{fill: none;}#el_dbpZsuCzdAh{fill: none;}#el_hLUYIrUXJD9{fill: none;}#el_r1-uChHSdq5{fill: none;}#el_m1ItmHWa8ZM{fill: none;}#el_tw75Ked6kIz{fill: none;}#el_0g2TSrhx_sX{fill: none;}#el_P4J1N63C2Cb{fill: none;}#el_M3RjdSclWBj{fill: none;}#el_QPOlcpQ6H-E{fill: #FCC008;}#el_kFJyoHtmg4V{fill: #FCC008;}#el_x4OUOzldX1Q{fill: #FCC008;}#el_ToLl-KRx9UK{fill: #FCC008;}#el_IosmjiXamNk{fill: #D47F00;}#el_8RXSVKu5tO6{fill: #D47F00;}#el_Jw5PmlaxPE7{fill: #D47F00;}#el_8rbj-DQl7VC{fill: #D47F00;}#el_QYZ1q1DUR0W{fill: #F9DC0B;}#el_GKpih80ldVi{fill: #FCC008;}#el_xqBLqOWmnNS{fill: #C1B4BE;}#el_qsSeMrE_L2S{fill: #E2D2DD;}#el_flxsv7x--JE{fill: #374757;}#el_R462W5GOrBY{fill: #FCC008;}#el_r4hMA-ijVGt{fill: #FCC008;}#el_Yr79Td0mHAU{fill: #FCC008;}#el_jrDq7XV0W8h{fill: #D47F00;}#el_RBSBX-TG2HG{fill: #D47F00;}#el_LmVshb4l0Fi{fill: #D47F00;}#el_-p3RTYXy_bY{fill: #D47F00;}#el_X_aSQJNgmCn{fill: #F9DC0B;}#el_hrcONKhJaES{fill: #F9DC0B;}#el_Vc2AEzBrBqb{fill: #F9DC0B;}#el_QUWB-dOU-J4{fill: #009247;}#el_4X8-aUj1JA7{fill: #3BB44A;}#el_v-H_Di3hJQ9{fill: #289E40;}#el_Nj8_dQmLkVz{fill: #38C545;}#el_3x93_fG4-K1{fill: #009247;}#el_NROEHWDJpZo{fill: #009247;}#el_wkIOzDz63zb{fill: #009247;}#el_nInn0jTh1LX{fill: #009247;}#el_l9mirGQmmsy{fill: #009247;}#el_8uhUFl2YbZ9{fill: #04833E;}#el_mz_mt1IJFoB{fill: #0DA33F;}#el_0iC67u1MBMd{fill: #04833E;}#el_AYx96vHnNov{fill: #009247;}#el_4Dd5xwz72jA{fill: #009247;}#el_qaJdzDrkqp3{fill: #38C545;}#el_EgG0xxTHMrA{fill: #289E40;}#el_YqA6emJZAH9{fill: none;}#el_NSCsC4etDfD{fill: none;}#el_aM6m5ckLcZP{fill: none;}#el_MwL0CQX_kgA{fill: none;}#el_pf9hbkxNpOZ{fill: none;}#el_N1SLxkGxctD{fill: none;}#el_8LeWAbaCHuu{fill: none;}#el_UzYJB7V6iz1{fill: none;}#el_nVM-qSE3laP{fill: none;}#el_qLTI24bOomL{fill: none;}#el_bEmZ49_fhhx{fill: #FCC008;}#el_eBbwPCNID2j{fill: #FCC008;}#el_icth5UG2PjW{fill: #FCC008;}#el_8OPTI83qfHO{fill: #FCC008;}#el_Ny17GcLQOwc{fill: #FCC008;-webkit-transform: matrix(0.6512, -0.7589, 0.7589, 0.6512, -132.3611, 403.4412);transform: matrix(0.6512, -0.7589, 0.7589, 0.6512, -132.3611, 403.4412);}#el_mrw8UKgtzYN{fill: #FCC008;-webkit-transform: matrix(0.6512, -0.7589, 0.7589, 0.6512, -120.9829, 363.7001);transform: matrix(0.6512, -0.7589, 0.7589, 0.6512, -120.9829, 363.7001);}#el_YEKa5s4O9UU{fill: #FCC008;}#el_u_TISlS_qeA{fill: #FCC008;-webkit-transform: matrix(0.6512, -0.7589, 0.7589, 0.6512, -36.9057, 387.7688);transform: matrix(0.6512, -0.7589, 0.7589, 0.6512, -36.9057, 387.7688);}#el_JJqPULnKYse{fill: #FCC008;-webkit-transform: matrix(0.6512, -0.7589, 0.7589, 0.6512, -48.261, 427.4296);transform: matrix(0.6512, -0.7589, 0.7589, 0.6512, -48.261, 427.4296);}#el_DbtnJuhwaIZ{fill: #FCC008;}#el_A3i1hIeFpRs{fill: #FCC008;}#el_ZjSpk1wS3Vj{fill: #FCC008;}#el_yGoqTVRJ3X2{fill: #FCC008;}#el_obfNrkQ6G6C{fill: #FCC008;}#el_4aD8A_kzbmG{fill: #FCC008;-webkit-transform: matrix(0.6512, -0.7589, 0.7589, 0.6512, -24.2153, 343.4327);transform: matrix(0.6512, -0.7589, 0.7589, 0.6512, -24.2153, 343.4327);}#el_M7qdzOr2_te{fill: #FCC008;}#el_fP9d5LScUlE{fill: #FCC008;}#el_rg_qRt8aXho{fill: #FCC008;-webkit-transform: matrix(0.6512, -0.7589, 0.7589, 0.6512, -68.6315, 330.7191);transform: matrix(0.6512, -0.7589, 0.7589, 0.6512, -68.6315, 330.7191);}#el_bH7lc0RuIDp{fill: #FCC008;-webkit-transform: matrix(0.6512, -0.7589, 0.7589, 0.6512, -92.5981, 414.74);transform: matrix(0.6512, -0.7589, 0.7589, 0.6512, -92.5981, 414.74);}#el_HkWkKlTP0tZ{fill: #FCC008;-webkit-transform: matrix(0.6512, -0.7589, 0.7589, 0.6512, -81.2424, 375.0788);transform: matrix(0.6512, -0.7589, 0.7589, 0.6512, -81.2424, 375.0788);}#el_-1xU-yh95rz{fill: #FCC008;}#el_JaMjuSSjvce{fill: #D47F00;}#el_cJmHOzHfqva{fill: #D47F00;}#el_M76r_009vVR{fill: #D47F00;}#el_dFcXSQfdEpo{fill: #D47F00;}#el_bH9suHkTkzi{fill: #D47F00;}#el_l3DJSd9EVnh{fill: #D47F00;}#el_Itf__FIbWJu{fill: #D47F00;}#el_dn6tEhKIt6P{fill: #D47F00;}#el_KTqLdUhdQMq{fill: #D47F00;}#el_ckO1JNDh5qx{fill: #D47F00;}#el_qsHyRFPgdfG{fill: #D47F00;}#el_V1oTNiOUvW0{fill: #D47F00;}#el_0H4MDyqj-4p{fill: #D47F00;}#el_IMgxu6iwrPI{fill: #D47F00;}#el_0WkYxwofaz-{fill: #D47F00;}#el_cq-HuoD3UiO{fill: #D47F00;}#el_vmKXjXbSK1h{fill: #D47F00;}#el_THlwsMjiQv5{fill: #D47F00;}#el_FVBRVsFHLnz{fill: #D47F00;}#el_LlpMH854foe{fill: #D47F00;}#el_RjBT4ZDOwDZ{fill: #D47F00;}#el_RTkYXBS_mZV{fill: #FCC008;}#el_nC_2i5KC7rd{fill: #FCC008;}#el_jCFXdwwOu4k{fill: #FCC008;}#el_trEraeFi9_c{fill: #F9DC0B;}#el_S5_UGOalTvR{fill: #FCC008;}#el_Bf47FaoVfB4{fill: #C1B4BE;}#el_rgcOvu51-dA{fill: #E2D2DD;}#el_zgeTz2f80WE{fill: #374757;}#el_-lcDYpuUT5D{fill: #009247;}#el_4PxN1bU4PD-{fill: #3BB44A;}#el_KNHvrGXa6XS{fill: #289E40;}#el_SoSQaZKU4ZC{fill: #38C545;}#el_OmIWzHWsaGp{fill: #009247;}#el_JduPx84qWpD{fill: #009247;}#el_QdphravYinx{fill: #009247;}#el_YXcusm7UmEM{fill: #009247;}#el_Sn_jgGpAKdw{fill: #009247;}#el_eqtCqNEVZ0m{fill: #04833E;}#el_DM4zECJq71g{fill: #0DA33F;}#el_Hj7dKPd4oMD{fill: #04833E;}#el_Ux58go8FkdN{fill: #009247;}#el_RaKvZJS0rAl{fill: #009247;}#el_PmRd7fm2h-2{fill: #38C545;}#el_ZH0-p3wxTsB{fill: #289E40;}#el_ZgvaktxKK4e{fill: none;}#el_ydSnrWZNvFB{fill: none;}#el_W8KVO2e99e-{fill: none;}#el_cFD9RuBROmt{fill: #009247;}#el_G93OYKGB9XB{fill: #FCC008;}#el_BiYAFTFq3gt{fill: #FCC008;}#el_H4XwpSqJ_E9{fill: #FCC008;}#el_9Q0jcDNi4YP{fill: #FCC008;}#el_-m-fD2giwcU{fill: #FCC008;}#el_G2XbqF6rXcC{fill: #FCC008;}#el_xKIwGepwSSO{fill: #FCC008;}#el_dIyYwnH4eR0{fill: #FCC008;}#el_2FTjNMa18NS{fill: #FCC008;}#el_80WavQPBYvo{fill: #FCC008;}#el_-Mlr9YkhLnD{fill: #FCC008;}#el_ZOqMssyxLDy{fill: #D47F00;}#el_9eHHVOR_fzT{fill: #D47F00;}#el_saSs_YYE0BJ{fill: #D47F00;}#el_189J5cgyPlP{fill: #D47F00;}#el_piP-k-1GUUy{fill: #D47F00;}#el_1a0mL_ToIwM{fill: #D47F00;}#el_KWAXVdXw4EI{fill: #D47F00;}#el_nrBQn5e2IR0{fill: #D47F00;}#el_5fE3DH7RjnY{fill: #D47F00;}#el_E2YvUzjuvGj{fill: #D47F00;}#el_GpSgl3qsXNN{fill: #D47F00;}#el_NZPd7Pn7xfi{fill: #D47F00;}#el_VpQQIsT1KXm{fill: #D47F00;}#el_lrZQZKVZw3_{fill: #F9DC0B;}#el_tTCaakFU1ug{fill: #D47F00;}#el_906PtSXhiJw_an_9n_kBdSV-{-webkit-transform: translate(125.68928527832031px, 44.529930114746094px) translate(-125.68928527832031px, -44.529930114746094px) translate(0px, 0px);transform: translate(125.68928527832031px, 44.529930114746094px) translate(-125.68928527832031px, -44.529930114746094px) translate(0px, 0px);}#el_b5uPMT0M5Cr_an_-Pi968k2_{-webkit-transform: translate(23.20000457763672px, 185.38096618652344px) translate(-23.20000457763672px, -185.38096618652344px) translate(0px, 0px);transform: translate(23.20000457763672px, 185.38096618652344px) translate(-23.20000457763672px, -185.38096618652344px) translate(0px, 0px);}#el_ayTfdJ_YfQn_an_eFf1CJSgK{-webkit-transform: translate(267.5999450683594px, 152.9981689453125px) translate(-267.5999450683594px, -152.9981689453125px) translate(0px, 0px);transform: translate(267.5999450683594px, 152.9981689453125px) translate(-267.5999450683594px, -152.9981689453125px) translate(0px, 0px);}#el_CsvkVtQvdnK_an_GSlz140vF{-webkit-transform: translate(23.599000930786133px, 66.13056945800781px) translate(-23.599000930786133px, -66.13056945800781px) translate(0px, 0px);transform: translate(23.599000930786133px, 66.13056945800781px) translate(-23.599000930786133px, -66.13056945800781px) translate(0px, 0px);}#el_6kS0wjI1we_an_xLrrZxtTI{-webkit-transform: translate(168.40000915527344px, 160.5999755859375px) translate(-168.40000915527344px, -160.5999755859375px) translate(0px, 0px);transform: translate(168.40000915527344px, 160.5999755859375px) translate(-168.40000915527344px, -160.5999755859375px) translate(0px, 0px);}#el_7NCKKRV-haP_an_z8iD5PnnN{-webkit-transform: translate(127.19998168945312px, 214.60000610351562px) translate(-127.19998168945312px, -214.60000610351562px) translate(0px, 0px);transform: translate(127.19998168945312px, 214.60000610351562px) translate(-127.19998168945312px, -214.60000610351562px) translate(0px, 0px);}#el_906PtSXhiJw_an_HS4GSaq8J{-webkit-animation-fill-mode: backwards;animation-fill-mode: backwards;-webkit-transform: translate(125.68928527832031px, 44.529930114746094px) translate(-125.68928527832031px, -44.529930114746094px) translate(0px, 0px);transform: translate(125.68928527832031px, 44.529930114746094px) translate(-125.68928527832031px, -44.529930114746094px) translate(0px, 0px);-webkit-animation-name: kf_el_906PtSXhiJw_an_HS4GSaq8J;animation-name: kf_el_906PtSXhiJw_an_HS4GSaq8J;-webkit-animation-timing-function: cubic-bezier(0, 0, 1, 1);animation-timing-function: cubic-bezier(0, 0, 1, 1);}#el_b5uPMT0M5Cr_an_pc7F6fcjf{-webkit-animation-fill-mode: backwards;animation-fill-mode: backwards;-webkit-transform: translate(23.20000457763672px, 185.38096618652344px) translate(-23.20000457763672px, -185.38096618652344px) translate(0px, 0px);transform: translate(23.20000457763672px, 185.38096618652344px) translate(-23.20000457763672px, -185.38096618652344px) translate(0px, 0px);-webkit-animation-name: kf_el_b5uPMT0M5Cr_an_pc7F6fcjf;animation-name: kf_el_b5uPMT0M5Cr_an_pc7F6fcjf;-webkit-animation-timing-function: cubic-bezier(0, 0, 1, 1);animation-timing-function: cubic-bezier(0, 0, 1, 1);}#el_ayTfdJ_YfQn{-webkit-animation-fill-mode: backwards;animation-fill-mode: backwards;opacity: 1;-webkit-animation-name: kf_el_ayTfdJ_YfQn_an_ne6U7JuSh;animation-name: kf_el_ayTfdJ_YfQn_an_ne6U7JuSh;-webkit-animation-timing-function: cubic-bezier(0, 0, 1, 1);animation-timing-function: cubic-bezier(0, 0, 1, 1);}#el_R2_eiQp4gld_an_-DOn-SrAW{-webkit-animation-fill-mode: backwards;animation-fill-mode: backwards;-webkit-transform: translate(392.29998779296875px, 352.79998779296875px) translate(-392.29998779296875px, -352.79998779296875px) translate(0px, 0px);transform: translate(392.29998779296875px, 352.79998779296875px) translate(-392.29998779296875px, -352.79998779296875px) translate(0px, 0px);-webkit-animation-name: kf_el_R2_eiQp4gld_an_-DOn-SrAW;animation-name: kf_el_R2_eiQp4gld_an_-DOn-SrAW;-webkit-animation-timing-function: cubic-bezier(0, 0, 1, 1);animation-timing-function: cubic-bezier(0, 0, 1, 1);}#el_7NCKKRV-haP_an_mu1E8AHgO{-webkit-transform: translate(127.19998168945312px, 214.60000610351562px) translate(-127.19998168945312px, -214.60000610351562px) translate(0px, 0px);transform: translate(127.19998168945312px, 214.60000610351562px) translate(-127.19998168945312px, -214.60000610351562px) translate(0px, 0px);-webkit-animation-fill-mode: backwards;animation-fill-mode: backwards;-webkit-animation-name: kf_el_7NCKKRV-haP_an_mu1E8AHgO;animation-name: kf_el_7NCKKRV-haP_an_mu1E8AHgO;-webkit-animation-timing-function: cubic-bezier(0, 0, 1, 1);animation-timing-function: cubic-bezier(0, 0, 1, 1);}#el_6kS0wjI1we_an_O0P918KW7{-webkit-animation-fill-mode: backwards;animation-fill-mode: backwards;-webkit-transform: translate(168.40000915527344px, 160.5999755859375px) translate(-168.40000915527344px, -160.5999755859375px) translate(0px, 0px);transform: translate(168.40000915527344px, 160.5999755859375px) translate(-168.40000915527344px, -160.5999755859375px) translate(0px, 0px);-webkit-animation-name: kf_el_6kS0wjI1we_an_O0P918KW7;animation-name: kf_el_6kS0wjI1we_an_O0P918KW7;-webkit-animation-timing-function: cubic-bezier(0, 0, 1, 1);animation-timing-function: cubic-bezier(0, 0, 1, 1);}#el_CsvkVtQvdnK_an_H8aI5lpex{-webkit-animation-fill-mode: backwards;animation-fill-mode: backwards;-webkit-transform: translate(23.599000930786133px, 66.13056945800781px) translate(-23.599000930786133px, -66.13056945800781px) translate(0px, 0px);transform: translate(23.599000930786133px, 66.13056945800781px) translate(-23.599000930786133px, -66.13056945800781px) translate(0px, 0px);-webkit-animation-name: kf_el_CsvkVtQvdnK_an_H8aI5lpex;animation-name: kf_el_CsvkVtQvdnK_an_H8aI5lpex;-webkit-animation-timing-function: cubic-bezier(0, 0, 1, 1);animation-timing-function: cubic-bezier(0, 0, 1, 1);}#el_7NCKKRV-haP{-webkit-animation-fill-mode: backwards;animation-fill-mode: backwards;opacity: 0;-webkit-animation-name: kf_el_7NCKKRV-haP_an_PXOAY68p8;animation-name: kf_el_7NCKKRV-haP_an_PXOAY68p8;-webkit-animation-timing-function: cubic-bezier(0, 0, 1, 1);animation-timing-function: cubic-bezier(0, 0, 1, 1);}#el_6kS0wjI1we{-webkit-animation-fill-mode: backwards;animation-fill-mode: backwards;opacity: 0;-webkit-animation-name: kf_el_6kS0wjI1we_an_QgGxYwZnX;animation-name: kf_el_6kS0wjI1we_an_QgGxYwZnX;-webkit-animation-timing-function: cubic-bezier(0, 0, 1, 1);animation-timing-function: cubic-bezier(0, 0, 1, 1);}#el_CsvkVtQvdnK{-webkit-animation-fill-mode: backwards;animation-fill-mode: backwards;opacity: 0;-webkit-animation-name: kf_el_CsvkVtQvdnK_an_YRA8UmhIi;animation-name: kf_el_CsvkVtQvdnK_an_YRA8UmhIi;-webkit-animation-timing-function: cubic-bezier(0, 0, 1, 1);animation-timing-function: cubic-bezier(0, 0, 1, 1);}#el_R2_eiQp4gld{-webkit-animation-fill-mode: backwards;animation-fill-mode: backwards;opacity: 0;-webkit-animation-name: kf_el_R2_eiQp4gld_an_MZK6IVJML;animation-name: kf_el_R2_eiQp4gld_an_MZK6IVJML;-webkit-animation-timing-function: cubic-bezier(0, 0, 1, 1);animation-timing-function: cubic-bezier(0, 0, 1, 1);}</style>

<g id="el_6kS0wjI1we_an_O0P918KW7" data-animator-group="true" data-animator-type="0"><g id="el_6kS0wjI1we">
	<polygon points="287,269.1 287,269.2 315,236.6 284.2,210.2 283.9,210.6 314.6,236.9 &#9;" id="el_hOsG0-5Yad"/>
	<polygon points="361.2,276.9 401.3,311.3 373.7,343.6 373.8,343.6 401.7,311 361.5,276.5 &#9;" id="el_gfS7TCfzkf"/>
	<path d="M393,225.8L393,225.8l15.5-17.9c0-0.1,0-0.1,0-0.2L393,225.8z" id="el_UVtki6AICE"/>
	<polygon points="321,229.5 321.1,229.6 347.5,198.8 316.7,172.3 316.3,172.7 347.1,199.1 &#9;" id="el_4JOqeTxCpW"/>
	<polygon points="360.6,263.5 360.7,263.6 387.1,232.8 354.5,204.8 354.2,205.2 386.7,233.1 &#9;" id="el_WRiw1DVBty"/>
	<polygon points="288.2,282.1 287.8,282.5 320.4,310.4 286.2,350.2 286.3,350.3 320.8,310.1 &#9;" id="el_I2-EC7w1Xf"/>
	<polygon points="327.3,316.4 367.4,350.8 333.3,390.6 333.4,390.7 367.8,350.5 327.7,316 &#9;" id="el_VTc0W2TZin"/>
	<polygon points="326.6,303.2 326.7,303.2 354.6,270.6 322.1,242.6 321.7,243 354.2,270.9 &#9;" id="el_oce-E3dLfh"/>
	<polygon points="246.6,316.2 246.6,316.3 281.1,276.1 250.3,249.6 250,250 280.7,276.4 &#9;" id="el_mBUedlEogY"/>
	<path d="M405.2,248.3l-11.2-9.6l-0.3,0.4l11.5,9.9C405.2,248.7,405.2,248.5,405.2,248.3z" id="el_qRDfgs248K"/>
	<path d="M393,225.8l15.5-18c1.8-13.3,4.2-21.8,6.8-23c-11.4-4.9-22.5-8.8-33.2-12L360.5,198L393,225.8z" id="el_GSgnzvDeD1"/>
	<path d="M399.9,231.8l5.8,5c0.3-4.5,0.6-8.8,0.9-12.9L399.9,231.8z" id="el_Df3vanVSpk"/>
	<path d="M353.3,191.8l18.8-21.9c-16.6-4.3-32.1-6.8-46.5-8l-3,3.5L353.3,191.8z" id="el_8vMMRQfMuI"/>
	<path d="M405,301.6c-0.3-7.7-0.4-15.9-0.4-24.3c0-9.9,0.2-19.4,0.5-28.4l-11.5-9.9l-26,30.5L405,301.6z" id="el_edUYJqWW4O"/>
	
		<rect x="298.6" y="180.9" width="40.1" height="40.5" id="el_L4k33Bzx-Z7"/>
	
		<rect x="337.4" y="212.8" width="40.1" height="42.9" id="el_8OpIKuAdY1I"/>
	<path d="M343.3,392.9l-0.3,0.3c21.2-4.6,40.4-10.7,55-16.1l-23.7-20.3L343.3,392.9&#10;&#9;&#9;C343.4,392.9,343.3,392.9,343.3,392.9z" id="el_lqy3EHghvia"/>
	
		<rect x="260.8" y="294.9" width="52.4" height="42.9" id="el_GKcljd0d8Hw"/>
	
		<rect x="222.1" y="262.8" width="52.4" height="40.5" id="el_1XKGJhSHxiR"/>
	<path d="M257.1,398.1l-0.3,0.4c22.9,3,46.5,1.6,68.6-1.9l-38.5-33l-29.7,34.5H257.1z" id="el_aBxQ4rnge7c"/>
	<path d="M309.4,166.8l-6.6-5.7c-21.5,0.2-39.6,3.2-53.6,6.8l34.1,29.3L309.4,166.8z" id="el_jnjUSrok25z"/>
	
		<rect x="304.1" y="327" width="52.4" height="52.9" id="el_gibXYiGRJvO"/>
	<path d="M203.6,380.6l-0.3,0.4c13.4,7.8,28,12.8,43.1,15.8l33.6-39.2l-32.5-27.9L203.6,380.6L203.6,380.6z" id="el_LY5tEmFsLpe"/>
	<path d="M405.9,320.1l-25.3,29.4l27.5,23.6c-0.2,0.1-0.4,0.1-0.5,0.2l0.1,0.1c3.1-1.2,5.8-2.3,8.2-3.4l0,0&#10;&#9;&#9;C411.5,370,407.8,349.8,405.9,320.1z" id="el_vOxAXz6M7LI"/>
	
		<rect x="346.2" y="283.8" width="42.4" height="52.9" id="el_jRGECuYQ5Zh"/>
	
		<rect x="264.2" y="219.6" width="42.4" height="40.5" id="el_CFrglMU-jwc"/>
	
		<rect x="303" y="251.7" width="42.4" height="42.9" id="el_OE7myD8vukO"/>
	<path d="M360,198.3l32.6,28l0.3-0.4L360.4,198l21.6-25.2h-0.1L360,198.3z" id="el_7P0jStIexWX"/>
	<path d="M399.9,231.8l6.8-7.9v-0.1l-7.2,8.4l6.2,5.3c0-0.2,0-0.4,0-0.6L399.9,231.8z" id="el_EFpQXKWu1lU"/>
	<path d="M322.2,165.8l30.8,26.4l0.3-0.4l-30.7-26.4l3-3.5h-0.1L322.2,165.8z" id="el_XE2v3CIWXvU"/>
	<path d="M367.6,269.5l26.1-30.4l-0.1-0.1l-26.4,30.8l37.9,32.5c0-0.2,0-0.5,0-0.7L367.6,269.5z" id="el_4VTm-sC00mB"/>
	<polygon points="321,229.5 290.3,203.1 316.3,172.7 316.3,172.7 289.8,203.5 320.7,229.9 &#9;" id="el_MafIfF7vpy0"/>
	<polygon points="360.3,263.9 360.6,263.5 328.1,235.6 354.2,205.2 354.1,205.1 327.7,235.9 &#9;" id="el_yTyGYzNav29"/>
	<path d="M343.3,392.9h0.1l31-36.1l-0.1-0.1L343.3,392.9z" id="el_kN_jfiLqJGO"/>
	<polygon points="287.8,282.5 287.8,282.5 253.3,322.6 285.9,350.6 286.2,350.2 253.7,322.3 &#9;" id="el_acZ3xHxZar2"/>
	<polygon points="246.6,316.2 215.8,289.8 250,250 249.9,250 215.4,290.2 246.2,316.6 &#9;" id="el_9t2eU3w5Hz7"/>
	<path d="M257.1,398.1h0.1l29.7-34.6l-0.1-0.1L257.1,398.1z" id="el_ZrlII_k2gOG"/>
	<path d="M283,197.6l0.3-0.4l-34.1-29.3c-0.2,0.1-0.4,0.1-0.6,0.2L283,197.6z" id="el_OIIUJOgKvKk"/>
	<polygon points="327.3,316.4 327.2,316.3 292.8,356.5 333,391 333.3,390.6 293.2,356.2 &#9;" id="el_rmOXBL-Yai9"/>
	<path d="M203.6,380.6L203.6,380.6l43.9-51l-0.1-0.1L203.6,380.6z" id="el_92DHMiK81rP"/>
	<path d="M380.6,349.5l25.3-29.4V320l-25.6,29.9l27.3,23.4c0.2-0.1,0.4-0.1,0.5-0.2L380.6,349.5z" id="el_hvEzXB_eXUI"/>
	<polygon points="361.2,276.9 361.1,276.9 333.2,309.5 373.3,343.9 373.7,343.6 333.6,309.1 &#9;" id="el_XMEgrG8CLB-"/>
	<polygon points="287,269.1 256.2,242.8 283.9,210.6 283.8,210.5 255.8,243.1 286.6,269.5 &#9;" id="el_L7ZLoS7zjy4"/>
	<polygon points="326.6,303.2 294.1,275.2 321.7,243 321.6,243 293.7,275.6 326.3,303.5 &#9;" id="el_P111kb9zg4X"/>
	<path d="M407.7,303.9l-2.7-2.3c0,0.2,0,0.5,0,0.7l2.3,2L407.7,303.9z" id="el_ROhw-J6teqO"/>
	<path d="M404.9,301.6l2.1,2.3l-0.3,0.4l-1.9-2c0.2,6.2,0.4,12.1,0.7,17.7l1.8-2.7l0.1,0.1l-1.8,2.7&#10;&#9;&#9;c1.5,29.7,4.5,50,8,50l0,0c0.3-0.2,0.6-0.3,0.9-0.5c2.6-2.7,4.9-17,6.3-37.9c0-0.2,0-0.4,0-0.6c0.2-3.4,0.5-7.1,0.6-10.8&#10;&#9;&#9;c0-0.2,0-0.4,0-0.6c0.4-7.5,0.7-15.6,0.8-24.1v-0.1c0.1-4.6,0.1-9.3,0.2-14v-0.1c0-1.3,0-2.6,0-3.9c0-3.2,0-6.4,0-9.5&#10;&#9;&#9;c0-0.2,0-0.5,0-0.7c0-3.9-0.1-7.7-0.2-11.5c0-0.2,0-0.5,0-0.7c-0.5-20-1.6-37.5-3.1-50V205c-0.5-4.4-1.1-8.2-1.7-11.2v-0.1&#10;&#9;&#9;c-0.7-3.6-1.5-6.2-2.4-7.6c-0.7-0.4-1.3-0.7-2-1.1c-2.1,1.2-3.9,9.7-5.4,23c0,0.1,0,0.1,0,0.2c-0.5,4.7-1,10-1.4,15.8v0.1&#10;&#9;&#9;c-0.3,4.1-0.5,8.4-0.7,12.9c0,0.2,0,0.4,0,0.6c-0.2,3.5-0.3,7.1-0.4,10.8c0,0.2,0,0.4,0,0.7c-0.3,9-0.4,18.5-0.4,28.4&#10;&#9;&#9;C404.6,285.7,404.7,293.9,404.9,301.6z" id="el_krHww78RgwO"/>
	<polygon points="287,269.1 287,269.2 315,236.6 284.2,210.2 283.9,210.6 283.8,210.5 255.8,243.1 286.6,269.5 &#9;" id="el_eu6NYUXmJb3"/>
	<polygon points="321,229.5 321.1,229.6 347.5,198.8 316.7,172.3 316.3,172.7 316.3,172.7 289.8,203.5 320.7,229.9 &#9;" id="el_dbpZsuCzdAh"/>
	<polygon points="360.3,263.9 360.6,263.5 360.7,263.6 387.1,232.8 354.5,204.8 354.2,205.2 354.1,205.1 327.7,235.9 &#9;&#10;&#9;&#9;" id="el_hLUYIrUXJD9"/>
	<polygon points="250.3,249.6 250,250 249.9,250 215.4,290.2 246.2,316.6 246.6,316.2 246.6,316.3 281.1,276.1 &#9;" id="el_r1-uChHSdq5"/>
	<polygon points="321.7,243 321.6,243 293.7,275.6 326.3,303.5 326.6,303.2 326.7,303.2 354.6,270.6 322.1,242.6 &#9;" id="el_m1ItmHWa8ZM"/>
	<polygon points="288.2,282.1 287.8,282.5 287.8,282.5 253.3,322.6 285.9,350.6 286.2,350.2 286.3,350.3 320.8,310.1 &#9;&#10;&#9;&#9;" id="el_tw75Ked6kIz"/>
	<path d="M202.6,291.2l-12.5,14.6v0.1l12.9-15.1L190.4,280c0,0.2,0,0.5,0,0.7L202.6,291.2z" id="el_0g2TSrhx_sX"/>
	<polygon points="361.5,276.5 361.2,276.9 361.1,276.9 333.2,309.5 373.3,343.9 373.7,343.6 373.8,343.6 401.7,311 &#9;" id="el_P4J1N63C2Cb"/>
	<polygon points="327.3,316.4 327.2,316.3 292.8,356.5 333,391 333.3,390.6 333.4,390.7 367.8,350.5 327.7,316 &#9;" id="el_M3RjdSclWBj"/>
	<path d="M189.2,322.4c0,0.2,0,0.4,0,0.5c-0.2,3.2-0.5,6.2-0.8,9.1c0,0.2,0,0.4-0.1,0.5c-1.7,16.5-4.4,28.2-7.5,31.3&#10;&#9;&#9;c0.3,0.6,0.5,0.9,0.5,0.9c4.5,4.2,9.1,7.9,14,11.2l45-52.4l-30.7-26.4l-20.3,23.6C189.3,321.3,189.3,321.8,189.2,322.4z" id="el_QPOlcpQ6H-E"/>
	<path d="M184,216.7C184,216.7,184,216.8,184,216.7c0.8,2.7,1.5,5.8,2.2,9.5v0.1c1.9,10.4,3.3,24.9,3.9,41.5l18.8,16.1&#10;&#9;&#9;l34.2-39.8l-53.2-45.7c-4,3.6-7.6,7.4-10.8,11.2c0.7,0.2,1.3,0.5,2,0.7C182.1,211.5,183.1,213.7,184,216.7z" id="el_kFJyoHtmg4V"/>
	<path d="M190.4,280.7c0,2.1,0,4.2,0,6.3c0,1.1,0,2.2,0,3.2v0.1c0,4-0.1,7.9-0.2,11.8v0.1c0,1.2-0.1,2.4-0.1,3.5&#10;&#9;&#9;l12.5-14.6L190.4,280.7z" id="el_x4OUOzldX1Q"/>
	<path d="M276.9,204.6l-39-33.5c-14.1,4.5-21.8,8.9-21.8,8.9c-7,3.8-13.2,7.9-18.8,12.2l52,44.6L276.9,204.6z" id="el_ToLl-KRx9UK"/>
	<path d="M405.9,320c-0.4-5.6-0.6-11.5-0.8-17.7l-37.9-32.5l26.4-30.8l0.1,0.1l0.3-0.4l11.2,9.6&#10;&#9;&#9;c0.1-3.7,0.3-7.3,0.5-10.8l-6.2-5.3l7.2-8.4c0.5-5.8,1.1-11.1,1.7-15.8L393,225.9l-0.1-0.1l-0.3,0.4l-32.6-28l21.9-25.5h0.1&#10;&#9;&#9;l0.3-0.4c-3.3-1-6.6-1.9-9.9-2.8l-19.1,22.3l-0.1-0.1l-0.3,0.4l-30.8-26.4l3.3-3.9h0.1l0.3-0.3c-2.9-0.2-5.7-0.4-8.4-0.6&#10;&#9;&#9;c-1,0-2-0.1-2.9-0.1c-3.9-0.1-7.6-0.2-11.3-0.2l6.6,5.7l-26.4,30.8l-0.1-0.1l-0.3,0.4L248.6,168c0.2-0.1,0.4-0.1,0.6-0.2l-0.2-0.2&#10;&#9;&#9;c-3.9,1-7.4,2-10.7,3.1l39,33.5l-28,32.6l-0.1-0.1l-0.3,0.4l-52.1-44.7c0.1-0.1,0.3-0.2,0.4-0.3l0,0c-2.5,1.9-4.8,3.9-7.1,5.9&#10;&#9;&#9;l53.2,45.7l-34.5,40.2l-0.1-0.1l-0.3,0.4L190,268.4c0,0.1,0,0.2,0,0.3c0.1,3.1,0.2,6.3,0.2,9.6c0,0.2,0,0.4,0,0.6c0,0.3,0,0.7,0,1&#10;&#9;&#9;l12.6,10.8l-12.9,15.1c-0.2,5.1-0.4,10-0.8,14.7l20.2-23.5l0.1,0.1l0.3-0.4l30.8,26.4l-45,52.4c2.6,1.8,5.2,3.4,7.8,5l43.8-51&#10;&#9;&#9;l0.1,0.1l0.3-0.4l32.6,28l-33.6,39.2c3.4,0.7,6.9,1.2,10.4,1.7l29.7-34.7l0.1,0.1l0.3-0.4l38.6,33.1c1.1-0.2,2.2-0.4,3.3-0.5&#10;&#9;&#9;c2.8-0.5,5.5-1,8.2-1.5c2-0.4,4-0.8,5.9-1.2l31-36.2l0.1,0.1l0.3-0.4l23.7,20.4c3.3-1.2,6.3-2.4,9.1-3.5L379.9,350L405.9,320z&#10;&#9;&#9; M354.1,205.1L354.1,205.1l0.4-0.3l32.6,28l-26.4,30.8l-0.1-0.1l-0.3,0.4l-32.6-28L354.1,205.1z M354.6,270.6l-28,32.6l-0.1-0.1&#10;&#9;&#9;l-0.3,0.4l-32.6-28l28-32.6l0.1,0.1l0.3-0.4L354.6,270.6z M316.3,172.7L316.3,172.7l0.4-0.3l30.8,26.4l-26.4,30.8l-0.1-0.1&#10;&#9;&#9;l-0.3,0.4l-30.8-26.4L316.3,172.7z M283.8,210.5L283.8,210.5l0.4-0.3l30.8,26.4l-28,32.6l-0.1-0.1l-0.3,0.4l-30.8-26.4L283.8,210.5&#10;&#9;&#9;z M246.6,316.3L246.6,316.3l-0.4,0.3l-30.8-26.4l34.5-40.2l0.1,0.1l0.3-0.4l30.8,26.4L246.6,316.3z M286.3,350.3L286.3,350.3&#10;&#9;&#9;l-0.4,0.3l-32.6-28l34.5-40.2l0.1,0.1l0.3-0.4l32.6,28L286.3,350.3z M333.4,390.7L333.4,390.7L333,391l-40.2-34.5l34.5-40.2&#10;&#9;&#9;l0.1,0.1l0.3-0.4l40.2,34.5L333.4,390.7z M373.8,343.6L373.8,343.6l-0.4,0.3l-40.2-34.5l28-32.6l0.1,0.1l0.3-0.4l40.2,34.5&#10;&#9;&#9;L373.8,343.6z" id="el_IosmjiXamNk"/>
	<path d="M189.3,320.6v0.1l20.3-23.6l-0.1-0.1L189.3,320.6z" id="el_8RXSVKu5tO6"/>
	<path d="M190.1,268.2c0,0.1,0,0.2,0,0.3l18.4,15.8l0.3-0.4L190,267.8C190.1,267.9,190.1,268.1,190.1,268.2z" id="el_Jw5PmlaxPE7"/>
	<path d="M249,237.2l0.3-0.4l-52-44.6c-0.1,0.1-0.3,0.2-0.4,0.3L249,237.2z" id="el_8rbj-DQl7VC"/>
	<path d="M190.7,280.7c0-0.2,0-0.5,0-0.7c0-0.3,0-0.7,0-1c0-0.2,0-0.4,0-0.6c-0.1-3.3-0.1-6.5-0.2-9.6&#10;&#9;&#9;c0-0.1,0-0.2,0-0.3c0-0.1,0-0.2,0-0.3c0-0.1,0-0.3,0-0.4c-0.6-16.6-2-31.1-3.9-41.5v-0.1c-0.7-3.7-1.4-6.9-2.2-9.4v-0.1&#10;&#9;&#9;c-0.9-3-1.9-5.2-3-6.4c-0.7-0.2-1.3-0.5-2-0.7c-1.4,1.7-2.7,3.4-4,5.1c-1.2,3.3-2.4,8.1-3.3,14v0.1c-0.6,3.9-1.2,8.4-1.7,13.2v0.1&#10;&#9;&#9;c-0.3,2.5-0.5,5-0.7,7.7c0,0.2,0,0.4-0.1,0.6c-0.1,0.8-0.1,1.7-0.2,2.5c0,0.2,0,0.4,0,0.5c-0.2,2.5-0.3,5-0.5,7.6&#10;&#9;&#9;c0,0.2,0,0.4,0,0.7c0,0.3,0,0.5,0,0.8c0,0.2,0,0.4,0,0.6c-0.4,7.5-0.5,15.5-0.5,23.8c0,7,0.1,13.9,0.4,20.3l2.7,1.9l-0.3,0.3&#10;&#9;&#9;l-2.3-1.7c0.2,5.2,0.5,10.1,0.8,14.8l2.3-2.3h0.1l-2.4,2.3c0.2,2.3,0.4,4.5,0.6,6.7v0.1c0.4,4.4,0.9,8.4,1.4,12.1v0.1&#10;&#9;&#9;c0.2,1.4,0.4,2.8,0.7,4.1c4.1,9.2,7.7,15.6,9,17.8c3.1-3.1,5.7-14.7,7.5-31.3c0-0.2,0-0.4,0.1-0.5c0.3-2.9,0.6-5.9,0.8-9.1&#10;&#9;&#9;c0-0.2,0-0.4,0-0.5c0-0.5,0.1-1.1,0.1-1.7v-0.1c0.3-4.7,0.6-9.6,0.8-14.7v-0.1c0-1.2,0.1-2.3,0.1-3.5v-0.1&#10;&#9;&#9;c0.1-3.8,0.2-7.8,0.2-11.8v-0.1c0-1.1,0-2.2,0-3.2C190.8,284.8,190.7,282.8,190.7,280.7z" id="el_QYZ1q1DUR0W"/>
	<path d="M408.3,317.3L408.3,317.3l-2.4,2.7v0.1L408.3,317.3z" id="el_GKpih80ldVi"/>
</g></g>
<g id="el_CsvkVtQvdnK_an_H8aI5lpex" data-animator-group="true" data-animator-type="0"><g id="el_CsvkVtQvdnK">
	<g id="el_fKBfaPOZyUp">
		<path d="M131,169.4c1.8-1.6,114.9,139.8,109.7,171.1l-36.9-22.6L90.4,212.5L131,169.4z" id="el_xqBLqOWmnNS"/>
		<path d="M129.1,171.4c0,0,113.9,139.2,110.6,168.9l-49-30.2l-107.6-98L129.1,171.4z" id="el_qsSeMrE_L2S"/>
	</g>
	<path d="M131.4,169.8c0,0-70.4-100.9-76.6-100c-6.2,1-21-18-30.9,21.8c-1.6,17.5,3.7,17.6,3.7,17.6s11.7-7.3,18.2,2.5&#10;&#9;&#9;s22.4,40.4,22.4,40.4s15.2,19.5,21.4,24.9s10.7,15.6,10.9,19.9C100.6,201,131.4,169.8,131.4,169.8z" id="el_flxsv7x--JE"/>
</g></g>
<g id="el_7NCKKRV-haP_an_mu1E8AHgO" data-animator-group="true" data-animator-type="0"><g id="el_7NCKKRV-haP">
	<path d="M166.5,343.9C166.4,343.8,166.4,343.8,166.5,343.9l-0.3,0.4c0.8,1,1.6,1.9,2.4,2.8c-0.6-1.2-1.2-2.4-1.9-3.8&#10;&#9;&#9;L166.5,343.9z" id="el_R462W5GOrBY"/>
	<path d="M137.4,256.1c-0.6-2.6-1.1-5.1-1.6-7.5v-0.1c-1-4.8-1.7-9.2-2.3-13.2v-0.1c-0.8-5.9-1.2-10.8-1-14.4&#10;&#9;&#9;c-3.7,10.7-5.3,21.3-5.3,31.4l0.3,0.1c0-0.2,0-0.4,0-0.6L137.4,256.1z" id="el_r4hMA-ijVGt"/>
	<path d="M160.7,322.8L160.7,322.8l-1.6,2.8c-1.7-4.4-3.5-9-5.2-13.9l2.7,0.9l0.2-0.4l-3.1-1&#10;&#9;&#9;c-2.2-6.1-4.3-12.6-6.4-19.3c-2.5-7.9-4.7-15.6-6.6-22.9c0-0.2-0.1-0.4-0.1-0.5c-0.1-0.3-0.1-0.5-0.2-0.8l-12.6-5.4&#10;&#9;&#9;c2.9,29.8,18.3,56,32.1,74l1.9-4.4c-0.8-2-1.7-4.1-2.5-6.2L160.7,322.8z" id="el_Yr79Td0mHAU"/>
	<path d="M138.1,259.1c-0.2-0.8-0.4-1.6-0.6-2.5l-10.1-4.3c0,3.2,0.2,6.4,0.5,9.5l12.2,5.2c-0.7-2.5-1.3-5-1.8-7.4&#10;&#9;&#9;C138.2,259.5,138.2,259.3,138.1,259.1z" id="el_jrDq7XV0W8h"/>
	<path d="M161.7,332l-1.6,3.8c2.2,2.8,4.3,5.5,6.4,7.9l0.3-0.6C165,339.8,163.4,336.1,161.7,332z" id="el_RBSBX-TG2HG"/>
	<path d="M166.7,343.3v-0.1l-0.3,0.6c0,0,0,0.1,0.1,0.1L166.7,343.3z" id="el_LmVshb4l0Fi"/>
	<path d="M137.4,256.1l-10-4.3c0,0.2,0,0.4,0,0.6l10.1,4.3C137.5,256.5,137.4,256.3,137.4,256.1z" id="el_-p3RTYXy_bY"/>
	<path d="M134.2,214.7c-1,0.8-1.6,2.9-1.7,6.1c0.7-2,1.5-4,2.3-6.1C134.5,214.7,134.3,214.7,134.2,214.7z" id="el_X_aSQJNgmCn"/>
	<path d="M181.1,362.7C181.1,362.7,181.2,362.7,181.1,362.7c0.4-0.3,0.7-0.5,1-0.7c0.1-0.2,0.2-0.4,0.3-0.6&#10;&#9;&#9;c-1.9-1.7-7.2-6.7-13.9-14.3C173.9,357.6,178.5,363.5,181.1,362.7z" id="el_hrcONKhJaES"/>
	<path d="M166.8,279.1c-0.1-0.2-0.1-0.4-0.2-0.7c-0.1-0.3-0.2-0.6-0.3-0.9c-0.1-0.2-0.1-0.4-0.2-0.6&#10;&#9;&#9;c-1-3.1-2.1-6.1-3.1-9.1c0-0.1-0.1-0.2-0.1-0.3c0-0.1-0.1-0.2-0.1-0.3c0-0.1-0.1-0.3-0.1-0.4c-5.5-15.7-11.2-29-16.1-38.4v-0.1&#10;&#9;&#9;c-1.7-3.3-3.4-6.1-4.9-8.3c0,0,0,0-0.1-0.1c-1.8-2.6-3.4-4.4-4.8-5.2c-0.7,0-1.4-0.1-2.1-0.1c-0.8,2-1.6,4-2.3,6.1&#10;&#9;&#9;c-0.2,3.6,0.2,8.4,1,14.4v0.1c0.6,4,1.3,8.4,2.3,13.2v0.1c0.5,2.4,1,4.9,1.6,7.5c0,0.2,0.1,0.4,0.1,0.6c0.2,0.8,0.4,1.6,0.6,2.5&#10;&#9;&#9;c0,0.2,0.1,0.4,0.1,0.5c0.6,2.4,1.2,4.9,1.8,7.4c0.1,0.2,0.1,0.4,0.2,0.6c0.1,0.3,0.1,0.5,0.2,0.8c0,0.2,0.1,0.4,0.1,0.5&#10;&#9;&#9;c1.9,7.3,4.1,15,6.6,22.9c2.1,6.7,4.3,13.2,6.4,19.3l3.1,1l-0.2,0.4l-2.7-0.9c1.7,4.9,3.5,9.5,5.2,13.9l1.5-2.9h0.1l-1.6,2.9&#10;&#9;&#9;c0.9,2.1,1.7,4.2,2.5,6.2v0.1c1.7,4,3.4,7.8,5,11.1v0.1c0.6,1.3,1.2,2.6,1.9,3.8c6.7,7.6,12,12.6,13.9,14.3&#10;&#9;&#9;c2-3.9,1.1-15.8-2.2-32.1c0-0.2-0.1-0.3-0.1-0.5c-0.6-2.8-1.2-5.8-1.9-8.9c0-0.2-0.1-0.4-0.1-0.5c-0.1-0.5-0.3-1.1-0.4-1.6v-0.1&#10;&#9;&#9;c-1.1-4.5-2.3-9.3-3.6-14.3V303c-0.3-1.1-0.6-2.3-0.9-3.4v-0.1c-1-3.7-2.1-7.5-3.3-11.3v-0.1c-0.3-1-0.6-2.1-1-3.1&#10;&#9;&#9;C168.1,283.1,167.4,281.1,166.8,279.1z" id="el_Vc2AEzBrBqb"/>
</g></g>
<g id="el_R2_eiQp4gld_an_-DOn-SrAW" data-animator-group="true" data-animator-type="0"><g id="el_R2_eiQp4gld">
	<path d="M497.7,425.4c1.3-24.9-2.5-53.3-20.9-72.6c0,0-13.2,36.6-16.9,70.3c7.5,9.8,13.5,20.4,18.2,30&#10;&#9;&#9;C483.3,444.2,489.9,434.4,497.7,425.4z" id="el_QUWB-dOU-J4"/>
	<path d="M550,393.8c0,0-6.9,19.9-17.7,41.9c-15.8,7.2-29.8,19.5-41.1,31.8c-1.7,1.8-3.2,3.5-4.7,5.3&#10;&#9;&#9;c-2.1-5.5-4.9-12.3-8.4-19.7c5.3-8.9,11.8-18.7,19.7-27.7C511.4,409.9,528.8,396.6,550,393.8z" id="el_4X8-aUj1JA7"/>
	<path d="M480.2,478.4c0.3,0.4,0.6,0.7,0.9,1.1c0.2-0.3,0.5-0.6,0.7-0.9C481.2,478.6,480.7,478.5,480.2,478.4z" id="el_v-H_Di3hJQ9"/>
	<path d="M470.3,467.5c3.5,3.6,6.8,7.3,9.7,10.9c0.1,0,0.1,0,0.2,0c0.3,0.4,0.6,0.8,0.9,1.1c-3.3,4.2-6.2,8.2-8.7,11.8&#10;&#9;&#9;" id="el_Nj8_dQmLkVz"/>
	<path d="M491.2,467.5c-1.6,1.8-3.2,3.5-4.7,5.3" id="el_3x93_fG4-K1"/>
	<path d="M486.5,472.8c-1.7,2-3.3,3.9-4.8,5.8" id="el_NROEHWDJpZo"/>
	<path d="M472.4,491.3c-0.2,0.3-0.4,0.6-0.6,0.9" id="el_wkIOzDz63zb"/>
	<path d="M472.3,491.3c2.5-3.6,5.4-7.6,8.7-11.8" id="el_nInn0jTh1LX"/>
	<path d="M476.1,531.4c-0.2-0.3-0.4-0.5-0.7-0.8" id="el_l9mirGQmmsy"/>
	<path d="M477.8,531.5c-0.5,0-1.1-0.1-1.6-0.1c0.3,0.4,0.6,0.7,0.8,1C477.2,532.1,477.5,531.8,477.8,531.5z" id="el_8uhUFl2YbZ9"/>
	<path d="M476.3,517.1c1.3-1.6,2.8-3.3,4.5-5.1c-3.1-4.2-7.2-9.5-12.3-14.9c-12.9-13.8-32-29-55.4-32.6&#10;&#9;&#9;c-5.9-0.9-12-1-18.4-0.2c0,0,8.8,16,21.8,32.5c24.7,2,42.8,16.1,53.8,27.8c1.3-1.7,3.1-4.1,5.5-6.9c-0.1,0-0.1,0-0.2,0l0.4-0.6&#10;&#9;&#9;C476.1,517.1,476.2,517.1,476.3,517.1z" id="el_mz_mt1IJFoB"/>
	<path d="M532.3,474.9c-13.5,5-25.6,13.2-35.5,21.7c-0.3,0.2-0.6,0.5-0.9,0.8c-0.4,0.3-0.7,0.6-1.1,0.9&#10;&#9;&#9;c-14.3,11.2-20.6,21.4-20.6,21.4l0,0c-1.6,2-2.9,3.7-3.9,5c1.9,2,3.7,4,5.2,5.9c0.2,0.3,0.4,0.6,0.7,0.8c0.5,0,1.1,0.1,1.6,0.1&#10;&#9;&#9;c10.3-11.6,34.3-33.4,67.1-28.9c14.4-16.3,24.5-31.7,24.5-31.7C556.3,468.7,543.8,470.6,532.3,474.9z" id="el_0iC67u1MBMd"/>
	<path d="M553.9,503.5c-3.1-0.9-6.1-1.5-9.1-1.9c-0.1,0.1-0.1,0.1-0.2,0.2c-32.8-4.4-56.7,17.2-66.8,28.7l0,0&#10;&#9;&#9;c-0.2,0.3-0.4,0.5-0.7,0.8c0,0,0,0,0-0.1c-0.3-0.3-0.5-0.7-0.8-1c-0.1,0-0.2,0-0.3,0c-0.2-0.4-0.5-0.7-0.8-0.9c-0.8-1-1.7-2-2.6-3&#10;&#9;&#9;c-0.3-0.5-0.7-0.9-1.1-1.2c-0.4-0.4-0.8-0.9-1.2-1.4c-11-11.7-29-25.7-53.5-27.8c-0.1-0.1-0.1-0.1-0.2-0.2&#10;&#9;&#9;c-7.1-0.6-14.8-0.2-23,1.6c0,0,16.5,30.8,38.8,46.4c10.8,7.6,23,11.6,35.4,6.8c0,0,0,0,0.1,0c1.9-0.8,3.9-1.7,5.9-3l-0.1-0.1&#10;&#9;&#9;c0,0,0,0,0.1,0l0.2,0.2c0.5-0.3,1.1-0.7,1.6-1l2.9-3.1c0.1,0.1,0.2,0.2,0.3,0.2c0.1,0.1,0.2,0.2,0.3,0.2c1.5,1.2,3.1,2.2,4.6,3.1&#10;&#9;&#9;c0.1,0.1,0.2,0.1,0.3,0.2c10,5.1,20.6,2.8,30.5-2.9c0,0,0,0-0.1,0C535.9,531.6,553.9,503.5,553.9,503.5z M457.5,532.3l-0.3-0.3&#10;&#9;&#9;c0,0,0,0,0.1,0L457.5,532.3C457.5,532.2,457.5,532.3,457.5,532.3z" id="el_AYx96vHnNov"/>
	<path d="M533.8,435.1C533.8,435.1,533.8,435.1,533.8,435.1c-0.2,0.1-0.4,0.2-0.6,0.3c-0.3,0.1-0.5,0.2-0.8,0.4&#10;&#9;&#9;c0,0,0,0,0,0c-0.1,0-0.2,0.1-0.3,0.1c0,0,0-0.1,0.1-0.1c-15.7,7.2-29.7,19.5-41,31.8c-5.8,6-14.6,18.1-19.4,24.8c0,0,0,0,0,0&#10;&#9;&#9;c-0.6,0.8-1.1,1.6-1.6,2.4c-1,1.5-1.7,2.4-1.7,2.4l0.1,0c0,0,0,0.1-0.1,0.1c5.1,5.4,9.2,10.6,12.3,14.8c3.9-4.3,8.6-9,14-13.7&#10;&#9;&#9;c10.3-9.1,23.1-18.1,37.5-23.4c16.4-22.7,28.5-45.8,28.5-45.8C551.3,429.1,542.3,431.4,533.8,435.1z" id="el_4Dd5xwz72jA"/>
	<path d="M470.3,467.5L470.3,467.5c0,0,0-0.1,0-0.1c-2.9-3-6-6-9.4-9c-6.1-5.4-12.7-10.4-19.9-14.7&#10;&#9;&#9;c-4.3-2.6-8.9-4.9-13.6-6.9c0,0.1,0.1,0.2,0.2,0.3c0,0,0,0-0.1,0c0-0.1-0.1-0.1-0.1-0.2c-0.7-0.3-1.5-0.6-2.2-0.9&#10;&#9;&#9;c-10.2-3.8-21.2-5.9-32.9-5c0,0,8.3,15.7,20.8,33.6c21.7,3.3,39.8,16.6,52.6,29.6l2.8,3c0.7-1.1,1.4-2.2,2.1-3.3&#10;&#9;&#9;c3.6-5.2,10.5-14.3,10.5-14.3L470.3,467.5z" id="el_qaJdzDrkqp3"/>
	<path d="M480.8,458.9L480.8,458.9c0,0-0.5-1.1-1.3-2.8c-0.5-1-0.9-1.9-1.4-2.9c0,0,0,0,0,0c-0.8-1.5-1.6-3.2-2.6-5&#10;&#9;&#9;c0,0-0.1-0.1-0.1-0.1c-4.2-8.1-9.4-16.7-15.5-24.7c0,0,0-0.1,0-0.1c-12.3-16.2-28.5-30.3-49-34.7c0,0,6.1,23.6,16.6,48.4&#10;&#9;&#9;c12.5,5.1,23.7,12.9,33.4,21.5c0,0,0,0.1,0,0.1c3.3,3,6.5,6,9.4,9l2.4,2.5c2.6,2.9,5.1,5.7,7.5,8.5c0.5,0.1,1,0.2,1.6,0.2&#10;&#9;&#9;c1.5-1.9,3.1-3.9,4.8-5.8C485,468.8,483.1,464,480.8,458.9z" id="el_EgG0xxTHMrA"/>
</g></g>
<g id="el_ayTfdJ_YfQn">
	<polygon points="403.4,279.8 403.4,279.7 376.3,311.3 406.1,336.9 406.4,336.5 376.7,311 &#9;" id="el_YqA6emJZAH9"/>
	<polygon points="331.5,272.3 292.7,238.9 319.4,207.7 319.4,207.7 292.3,239.2 331.2,272.6 &#9;" id="el_NSCsC4etDfD"/>
	<path d="M300.8,321.7L300.8,321.7l-15,17.3c0,0.1,0,0.1,0,0.2L300.8,321.7z" id="el_aM6m5ckLcZP"/>
	<polygon points="370.5,318.2 370.4,318.1 344.8,348 374.7,373.6 375,373.2 345.2,347.6 &#9;" id="el_MwL0CQX_kgA"/>
	<polygon points="332.1,285.2 332,285.2 306.4,315 338,342.1 338.3,341.7 306.8,314.7 &#9;" id="el_pf9hbkxNpOZ"/>
	<polygon points="402.3,267.2 402.6,266.8 371.1,239.8 404.2,201.2 404.1,201.2 370.7,240.1 &#9;" id="el_N1SLxkGxctD"/>
	<polygon points="364.4,234 325.5,200.7 358.6,162.1 358.5,162.1 325.1,201 364,234.4 &#9;" id="el_8LeWAbaCHuu"/>
	<polygon points="365.1,246.8 365,246.8 337.9,278.4 369.5,305.5 369.8,305.1 338.3,278 &#9;" id="el_UzYJB7V6iz1"/>
	<polygon points="442.6,234.2 442.5,234.1 409.1,273.1 438.9,298.7 439.3,298.3 409.5,272.7 &#9;" id="el_nVM-qSE3laP"/>
	<path d="M288.9,300l10.8,9.3l0.3-0.4l-11.1-9.6C289,299.6,288.9,299.8,288.9,300z" id="el_qLTI24bOomL"/>
	<path d="M300.8,321.7l-15,17.5c-1.8,12.9-4.1,21.1-6.6,22.3c11.1,4.7,21.8,8.6,32.2,11.7l20.9-24.4L300.8,321.7z" id="el_bEmZ49_fhhx"/>
	<path d="M294,316l-5.7-4.9c-0.3,4.4-0.6,8.5-0.9,12.5L294,316z" id="el_eBbwPCNID2j"/>
	<path d="M339.2,354.7L321,375.9c16,4.2,31.1,6.6,45,7.8l2.9-3.4L339.2,354.7z" id="el_icth5UG2PjW"/>
	<path d="M289.1,248.3c0.2,7.5,0.4,15.4,0.4,23.5c0,9.6-0.2,18.8-0.5,27.5l11.1,9.6l25.3-29.5L289.1,248.3z" id="el_8OPTI83qfHO"/>
	
		<rect x="353.3" y="326.1" width="38.8" height="39.2" id="el_Ny17GcLQOwc"/>
	
		<rect x="315.8" y="292.7" width="38.8" height="41.5" id="el_mrw8UKgtzYN"/>
	<path d="M348.9,159.9l0.3-0.3c-20.6,4.4-39.1,10.4-53.3,15.6l22.9,19.7l30-34.9C348.8,159.9,348.8,159.9,348.9,159.9z" id="el_YEKa5s4O9UU"/>
	
		<rect x="378" y="213.3" width="50.8" height="41.5" id="el_u_TISlS_qeA"/>
	
		<rect x="415.5" y="246.6" width="50.8" height="39.2" id="el_JJqPULnKYse"/>
	<path d="M432.4,154.9l0.3-0.3c-22.2-2.9-45-1.6-66.5,1.8l37.3,32L432.4,154.9C432.3,154.9,432.3,154.9,432.4,154.9z" id="el_DbtnJuhwaIZ"/>
	<path d="M516,209l0.4-0.4c-5.6-13.1-10.6-21.3-10.6-21.3c-4.3-4-8.8-7.7-13.5-10.9l-43.6,50.8l29.8,25.6L516,209&#10;&#9;&#9;C516,208.9,516,208.9,516,209z" id="el_A3i1hIeFpRs"/>
	<path d="M479.1,265.5L446,304.1l51.6,44.2c14.7-13.2,23.5-28.1,28.3-43.3l-0.2-0.2c-0.1,0.2-0.1,0.4-0.2,0.5&#10;&#9;&#9;L479.1,265.5z" id="el_ZjSpk1wS3Vj"/>
	<path d="M520,217.8l-34.9,40.7l43.2,37.1C534.3,267.1,527.6,238.5,520,217.8z" id="el_yGoqTVRJ3X2"/>
	<path d="M381.7,379l6.4,5.5c20.8-0.2,38.4-3.1,51.9-6.6l-33-28.4L381.7,379z" id="el_obfNrkQ6G6C"/>
	
		<rect x="336.1" y="172.5" width="50.8" height="51.2" id="el_4aD8A_kzbmG"/>
	<path d="M484.2,171.9l0.3-0.4c-13-7.5-27.1-12.4-41.7-15.3l-32.6,38l31.5,27L484.2,171.9&#10;&#9;&#9;C484.2,171.8,484.2,171.8,484.2,171.9z" id="el_M7qdzOr2_te"/>
	<path d="M288.3,230.4l24.5-28.5l-26.6-22.8c0.2-0.1,0.4-0.1,0.5-0.2l-0.1-0.1c-3,1.2-5.6,2.3-8,3.3l0,0&#10;&#9;&#9;C282.8,182,286.4,201.7,288.3,230.4z" id="el_fP9d5LScUlE"/>
	
		<rect x="304.9" y="214.4" width="41.1" height="51.2" id="el_rg_qRt8aXho"/>
	
		<rect x="384.3" y="288.5" width="41.1" height="39.2" id="el_bH7lc0RuIDp"/>
	
		<rect x="346.9" y="255.2" width="41.1" height="41.5" id="el_HkWkKlTP0tZ"/>
	<path d="M413.2,342.3l37.8,32.4c13.7-4.4,21.1-8.6,21.1-8.6c6.8-3.7,12.8-7.7,18.2-11.8l-50.4-43.2L413.2,342.3z" id="el_-1xU-yh95rz"/>
	<path d="M484.7,258.8l34.9-40.7c-1.2-3.3-2.4-6.3-3.6-9.2l-37.5,43.8l-0.1-0.1l-0.3,0.4l-29.8-25.6l43.6-50.8&#10;&#9;&#9;c-2.5-1.7-5-3.3-7.6-4.8l-42.4,49.4l-0.1-0.1l-0.3,0.4l-31.6-27.1l32.6-38c-3.3-0.7-6.7-1.2-10.1-1.6l-28.8,33.6l-0.1,0l-0.3,0.4&#10;&#9;&#9;l-37.4-32.1c-1.1,0.2-2.1,0.3-3.2,0.5c-2.7,0.5-5.4,0.9-8,1.5c-1.9,0.4-3.9,0.8-5.8,1.2l-30.1,35l-0.1-0.1l-0.3,0.4l-23-19.7&#10;&#9;&#9;c-3.2,1.2-6.1,2.3-8.8,3.4l26.5,22.7l-24.8,29c0.3,5.4,0.6,11.1,0.8,17.1l36.7,31.5L300.1,309l-0.1-0.1l-0.3,0.4l-10.8-9.3&#10;&#9;&#9;c-0.1,3.6-0.3,7.1-0.5,10.5l6,5.2l-7,8.1c-0.5,5.6-1,10.8-1.7,15.3l14.9-17.4l0.1,0.1l0.3-0.4l31.6,27.1l-21.1,24.7h-0.1l-0.3,0.4&#10;&#9;&#9;c3.2,1,6.4,1.8,9.5,2.7l18.5-21.6l0.1,0.1l0.3-0.4l29.8,25.6l-3.2,3.7H366l-0.3,0.3c2.8,0.2,5.5,0.4,8.2,0.5c1,0,1.9,0.1,2.8,0.1&#10;&#9;&#9;c3.7,0.1,7.4,0.2,11,0.2l-6.4-5.5l25.6-29.8l0.1,0.1l0.3-0.4l33.3,28.6c-0.2,0.1-0.4,0.1-0.6,0.1l0.2,0.2c3.8-1,7.2-2,10.3-3&#10;&#9;&#9;l-37.8-32.4l27.1-31.6l0.1,0.1l0.3-0.4l50.4,43.3c-0.1,0.1-0.3,0.2-0.4,0.3l0,0c2.4-1.9,4.7-3.8,6.8-5.7l-51.4-44.3l33.4-38.9&#10;&#9;&#9;l0.1,0.1l0.3-0.4l46.2,39.6c0.9-3,1.7-5.9,2.3-8.9L484.7,258.8z M404.1,201.2L404.1,201.2l0.4-0.3l31.6,27.1l-33.4,38.9l-0.1-0.1&#10;&#9;&#9;l-0.3,0.4l-31.6-27.1L404.1,201.2z M397,273.6l-27.1,31.6l-0.1-0.1l-0.3,0.4l-31.6-27.1l27.1-31.6l0.1,0.1l0.3-0.4L397,273.6z&#10;&#9;&#9; M358.5,162.1L358.5,162.1l0.4-0.3l38.9,33.4l-33.4,38.9l-0.1-0.1l-0.3,0.4L325.1,201L358.5,162.1z M292.3,239.2l27.1-31.6l0.1,0.1&#10;&#9;&#9;l0.3-0.4l38.9,33.4l-27.1,31.6l-0.1-0.1l-0.3,0.4L292.3,239.2z M338.4,341.8L338.4,341.8l-0.4,0.3L306.4,315l25.6-29.8l0.1,0.1&#10;&#9;&#9;l0.3-0.4L364,312L338.4,341.8z M375.1,373.2L375.1,373.2l-0.4,0.3l-29.8-25.6l25.6-29.8l0.1,0.1l0.3-0.4l29.8,25.6L375.1,373.2z&#10;&#9;&#9; M406.5,336.6L406.5,336.6l-0.4,0.3l-29.8-25.6l27.1-31.6l0.1,0.1l0.3-0.4l29.8,25.6L406.5,336.6z M439.3,298.3L439.3,298.3&#10;&#9;&#9;l-0.4,0.3L409.1,273l33.4-38.9l0.1,0.1l0.3-0.4l29.8,25.6L439.3,298.3z" id="el_JaMjuSSjvce"/>
	<path d="M332.7,348.5l-31.6-27.1l-0.3,0.4l31.5,27l-20.9,24.4h0.1L332.7,348.5z" id="el_cJmHOzHfqva"/>
	<path d="M294,316l-6.6,7.6v0.1l7-8.1l-6-5.2c0,0.2,0,0.4,0,0.6L294,316z" id="el_M76r_009vVR"/>
	<path d="M369.3,379.9l-29.8-25.6l-0.3,0.4l29.8,25.6l-2.9,3.4h0.1L369.3,379.9z" id="el_dFcXSQfdEpo"/>
	<path d="M325.4,279.5L300.1,309l0.1,0.1l25.6-29.8l-36.7-31.5c0,0.2,0,0.5,0,0.7L325.4,279.5z" id="el_bH9suHkTkzi"/>
	<polygon points="370.5,318.2 400.3,343.7 375,373.2 375.1,373.2 400.7,343.4 370.8,317.8 &#9;" id="el_l3DJSd9EVnh"/>
	<polygon points="332.4,284.9 332.1,285.2 363.6,312.3 338.3,341.7 338.4,341.8 364,312 &#9;" id="el_Itf__FIbWJu"/>
	<path d="M348.9,159.9h-0.1l-30,34.9l0.1,0.1L348.9,159.9z" id="el_dn6tEhKIt6P"/>
	<polygon points="402.6,266.8 402.7,266.9 436.1,228 404.5,200.9 404.2,201.2 435.7,228.3 &#9;" id="el_KTqLdUhdQMq"/>
	<polygon points="442.6,234.2 472.4,259.7 439.3,298.3 439.3,298.3 472.7,259.4 442.9,233.8 &#9;" id="el_ckO1JNDh5qx"/>
	<path d="M432.4,154.9C432.3,154.9,432.3,154.9,432.4,154.9l-28.9,33.5l0.1,0.1L432.4,154.9z" id="el_qsHyRFPgdfG"/>
	<path d="M516,209C516,208.9,516,208.9,516,209l-37.6,43.7l0.1,0.1L516,209z" id="el_V1oTNiOUvW0"/>
	<path d="M479.1,265.5l46.4,39.8c0.1-0.2,0.1-0.4,0.2-0.5l-46.2-39.6L479.1,265.5z" id="el_0H4MDyqj-4p"/>
	<path d="M407.3,349.1l-0.3,0.4l33,28.4c0.2-0.1,0.4-0.1,0.6-0.1L407.3,349.1z" id="el_IMgxu6iwrPI"/>
	<polygon points="364.4,234 364.4,234.1 397.8,195.1 358.9,161.7 358.6,162.1 397.5,195.5 &#9;" id="el_0WkYxwofaz-"/>
	<path d="M484.2,171.9C484.2,171.8,484.2,171.8,484.2,171.9l-42.5,49.4l0.1,0.1L484.2,171.9z" id="el_cq-HuoD3UiO"/>
	<path d="M312.7,201.9l-24.4,28.5v0.1l24.8-29l-26.5-22.7c-0.2,0.1-0.4,0.1-0.5,0.2L312.7,201.9z" id="el_vmKXjXbSK1h"/>
	<polygon points="331.5,272.3 331.6,272.3 358.7,240.7 319.8,207.3 319.4,207.7 358.3,241.1 &#9;" id="el_THlwsMjiQv5"/>
	<polygon points="403.4,279.8 433.2,305.3 406.4,336.5 406.5,336.6 433.6,305 403.8,279.4 &#9;" id="el_FVBRVsFHLnz"/>
	<polygon points="365.1,246.8 396.6,273.9 369.8,305.1 369.9,305.1 397,273.6 365.4,246.5 &#9;" id="el_LlpMH854foe"/>
	<path d="M440.3,310.7l-0.3,0.4l50.4,43.2c0.1-0.1,0.3-0.2,0.4-0.3L440.3,310.7z" id="el_RjBT4ZDOwDZ"/>
	<path d="M277.4,182.5c0.3-0.1,0.7-0.3,1.1-0.5C278.1,182.1,277.8,182.2,277.4,182.5z" id="el_RTkYXBS_mZV"/>
	<path d="M278.6,361.7c0.2,0,0.4-0.1,0.6-0.2c-0.8-0.3-1.6-0.7-2.4-1C277.3,361.2,277.9,361.7,278.6,361.7z" id="el_nC_2i5KC7rd"/>
	<path d="M286.5,246.1l2.6,2.2c0-0.2,0-0.5,0-0.7l-2.3-1.9L286.5,246.1z" id="el_jCFXdwwOu4k"/>
	<path d="M289.1,248.3l-2.6-2.2l0.3-0.4l2.3,1.9c-0.2-6-0.5-11.7-0.8-17.1l-2.3,2.6l-0.1-0.1l2.3-2.7&#10;&#9;&#9;c-1.8-28.8-5.5-48.4-9.7-48.4l0,0c-0.4,0.2-0.7,0.3-1.1,0.5c-3.2,2.7-6,16.5-7.7,36.7c0,0.2,0,0.4-0.1,0.6&#10;&#9;&#9;c-0.3,3.3-0.6,6.8-0.8,10.5c0,0.2,0,0.4,0,0.6c-0.5,7.3-0.8,15.1-1,23.3v0.1c-0.1,4.4-0.2,9-0.2,13.6v0.1c0,1.2,0,2.5,0,3.8&#10;&#9;&#9;c0,3.1,0,6.2,0.1,9.2c0,0.2,0,0.4,0,0.7c0.1,3.8,0.1,7.5,0.2,11.1c0,0.2,0,0.5,0,0.7c0.6,19.4,1.9,36.3,3.8,48.4v0.1&#10;&#9;&#9;c0.7,4.3,1.4,7.9,2.1,10.9v0.1c0.9,3.5,1.9,6,2.9,7.4c0.8,0.4,1.6,0.7,2.4,1c2.5-1.2,4.8-9.4,6.6-22.3c0-0.1,0-0.1,0-0.2&#10;&#9;&#9;c0.6-4.6,1.2-9.7,1.7-15.3v-0.1c0.3-3.9,0.6-8.1,0.9-12.5c0-0.2,0-0.4,0-0.6c0.2-3.4,0.4-6.9,0.5-10.5c0-0.2,0-0.4,0-0.6&#10;&#9;&#9;c0.3-8.7,0.5-17.9,0.5-27.5C289.5,263.7,289.4,255.8,289.1,248.3z" id="el_trEraeFi9_c"/>
	<path d="M285.9,233.1L285.9,233.1l2.3-2.6v-0.1L285.9,233.1z" id="el_S5_UGOalTvR"/>
</g>
<g id="el_906PtSXhiJw_an_HS4GSaq8J" data-animator-group="true" data-animator-type="0"><g id="el_906PtSXhiJw">
	<g id="el_5OGarNuZDGu">
		<path d="M229.7,144.6C231.5,143,341,280,336,310.3l-35.8-21.9L190.4,186.3L229.7,144.6z" id="el_Bf47FaoVfB4"/>
		<path d="M227.9,146.5c0,0,110.4,134.9,107.2,163.6l-47.6-29.2l-104.2-95L227.9,146.5z" id="el_rgcOvu51-dA"/>
	</g>
	<path d="M230.1,145c0,0-68.2-97.8-74.2-96.9S135.5,30.7,126,69.2c-1.6,16.9,3.5,17,3.5,17s11.4-7.1,17.6,2.4&#10;&#9;&#9;c6.2,9.5,21.7,39.1,21.7,39.1s14.7,18.9,20.8,24.1s10.3,15.1,10.6,19.3S230.1,145,230.1,145z" id="el_zgeTz2f80WE"/>
</g></g>
<g id="el_b5uPMT0M5Cr_an_pc7F6fcjf" data-animator-group="true" data-animator-type="0"><g id="el_b5uPMT0M5Cr">
	<g id="el_XxAC1d2Rbwt">
		<path d="M95.8,261.6c-24.9-1.3-53.3,2.5-72.6,20.9c0,0,36.6,13.2,70.3,16.9c9.8-7.5,20.4-13.5,30-18.2&#10;&#9;&#9;&#9;C114.6,276,104.8,269.4,95.8,261.6z" id="el_-lcDYpuUT5D"/>
		<path d="M64.2,209.3c0,0,19.9,6.9,41.9,17.7c7.2,15.8,19.5,29.8,31.8,41.1c1.8,1.7,3.5,3.2,5.3,4.7&#10;&#9;&#9;&#9;c-5.5,2.1-12.3,4.9-19.7,8.4c-8.9-5.3-18.7-11.8-27.7-19.7C80.3,247.9,67,230.5,64.2,209.3z" id="el_4PxN1bU4PD-"/>
		<path d="M148.8,279.1c0.4-0.3,0.7-0.6,1.1-0.9c-0.3-0.2-0.6-0.5-0.9-0.7C149,278.1,148.9,278.6,148.8,279.1z" id="el_KNHvrGXa6XS"/>
		<path d="M137.9,289c3.6-3.5,7.3-6.8,10.9-9.7c0-0.1,0-0.1,0-0.2c0.4-0.3,0.8-0.6,1.1-0.9c4.2,3.3,8.2,6.2,11.8,8.7" id="el_SoSQaZKU4ZC"/>
		<path d="M137.9,268.1c1.8,1.6,3.5,3.2,5.3,4.7" id="el_OmIWzHWsaGp"/>
		<path d="M143.2,272.8c2,1.7,3.9,3.3,5.8,4.8" id="el_JduPx84qWpD"/>
		<path d="M161.7,286.9c0.3,0.2,0.6,0.4,0.9,0.6" id="el_QdphravYinx"/>
		<path d="M161.7,287c-3.6-2.5-7.6-5.4-11.8-8.7" id="el_YXcusm7UmEM"/>
		<path d="M201.8,283.2c-0.3,0.2-0.5,0.4-0.8,0.7" id="el_Sn_jgGpAKdw"/>
		<path d="M201.9,281.5c0,0.5-0.1,1.1-0.1,1.6c0.4-0.3,0.7-0.6,1-0.8C202.5,282.1,202.2,281.8,201.9,281.5z" id="el_eqtCqNEVZ0m"/>
		<path d="M187.5,283c-1.6-1.3-3.3-2.8-5.1-4.5c-4.2,3.1-9.5,7.2-14.9,12.3c-13.8,12.9-29,32-32.6,55.4&#10;&#9;&#9;&#9;c-0.9,5.9-1,12-0.2,18.4c0,0,16-8.8,32.5-21.8c2-24.7,16.1-42.8,27.8-53.8c-1.7-1.3-4.1-3.1-6.9-5.5c0,0.1,0,0.1,0,0.2l-0.6-0.4&#10;&#9;&#9;&#9;C187.5,283.2,187.5,283.1,187.5,283z" id="el_DM4zECJq71g"/>
		<path d="M145.3,227c5,13.5,13.2,25.6,21.7,35.5c0.2,0.3,0.5,0.6,0.8,0.9c0.3,0.4,0.6,0.7,0.9,1.1&#10;&#9;&#9;&#9;c11.2,14.3,21.4,20.6,21.4,20.6l0,0c2,1.6,3.7,2.9,5,3.9c2-1.9,4-3.7,5.9-5.2c0.3-0.2,0.6-0.4,0.8-0.7c0-0.5,0.1-1.1,0.1-1.6&#10;&#9;&#9;&#9;c-11.6-10.3-33.4-34.3-28.9-67.1c-16.3-14.4-31.7-24.5-31.7-24.5C139.1,203,141,215.5,145.3,227z" id="el_Hj7dKPd4oMD"/>
		<path d="M173.9,205.4c-0.9,3.1-1.5,6.1-1.9,9.1c0.1,0.1,0.1,0.1,0.2,0.2c-4.4,32.8,17.2,56.7,28.7,66.8l0,0&#10;&#9;&#9;&#9;c0.3,0.2,0.5,0.4,0.8,0.7c0,0,0,0-0.1,0c-0.3,0.3-0.7,0.5-1,0.8c0,0.1,0,0.2,0,0.3c-0.4,0.2-0.7,0.5-0.9,0.8c-1,0.8-2,1.7-3,2.6&#10;&#9;&#9;&#9;c-0.5,0.3-0.9,0.7-1.2,1.1c-0.4,0.4-0.9,0.8-1.4,1.2c-11.7,11-25.7,29-27.8,53.5c-0.1,0.1-0.1,0.1-0.2,0.2&#10;&#9;&#9;&#9;c-0.6,7.1-0.2,14.8,1.6,23c0,0,30.8-16.5,46.4-38.8c7.6-10.8,11.6-23,6.8-35.4c0,0,0,0,0-0.1c-0.8-1.9-1.7-3.9-3-5.9l-0.1,0.1&#10;&#9;&#9;&#9;c0,0,0,0,0-0.1l0.2-0.2c-0.3-0.5-0.7-1.1-1-1.6l-3.1-2.9c0.1-0.1,0.2-0.2,0.2-0.3c0.1-0.1,0.2-0.2,0.2-0.3&#10;&#9;&#9;&#9;c1.2-1.5,2.2-3.1,3.1-4.6c0.1-0.1,0.1-0.2,0.2-0.3c5.1-10,2.8-20.6-2.9-30.5c0,0,0,0,0,0.1C202,223.4,173.9,205.4,173.9,205.4z&#10;&#9;&#9;&#9; M202.7,301.8l-0.3,0.3c0,0,0,0,0-0.1L202.7,301.8C202.6,301.8,202.6,301.8,202.7,301.8z" id="el_Ux58go8FkdN"/>
		<path d="M105.5,225.5C105.5,225.5,105.5,225.5,105.5,225.5c0.1,0.2,0.2,0.4,0.3,0.6c0.1,0.3,0.2,0.5,0.4,0.8&#10;&#9;&#9;&#9;c0,0,0,0,0,0c0,0.1,0.1,0.2,0.1,0.3c0,0-0.1,0-0.1-0.1c7.2,15.7,19.5,29.7,31.8,41c6,5.8,18.1,14.6,24.8,19.4c0,0,0,0,0,0&#10;&#9;&#9;&#9;c0.8,0.6,1.6,1.1,2.4,1.6c1.5,1,2.4,1.7,2.4,1.7l0-0.1c0,0,0.1,0,0.1,0.1c5.4-5.1,10.6-9.2,14.8-12.3c-4.3-3.9-9-8.6-13.7-14&#10;&#9;&#9;&#9;c-9.1-10.3-18.1-23.1-23.4-37.5c-22.7-16.4-45.8-28.5-45.8-28.5C99.5,208,101.7,217,105.5,225.5z" id="el_RaKvZJS0rAl"/>
		<path d="M137.9,289L137.9,289c0,0-0.1,0-0.1,0c-3,2.9-6,6-9,9.4c-5.4,6.1-10.4,12.7-14.7,19.9&#10;&#9;&#9;&#9;c-2.6,4.3-4.9,8.9-6.9,13.6c0.1,0,0.2-0.1,0.3-0.2c0,0,0,0,0,0.1c-0.1,0-0.1,0.1-0.2,0.1c-0.3,0.7-0.6,1.5-0.9,2.2&#10;&#9;&#9;&#9;c-3.8,10.2-5.9,21.2-5,32.9c0,0,15.7-8.3,33.6-20.8c3.3-21.7,16.6-39.8,29.6-52.6l3-2.8c-1.1-0.7-2.2-1.4-3.3-2.1&#10;&#9;&#9;&#9;c-5.2-3.6-14.3-10.5-14.3-10.5L137.9,289z" id="el_PmRd7fm2h-2"/>
		<path d="M129.3,278.5L129.3,278.5c0,0-1.1,0.5-2.8,1.3c-1,0.5-1.9,0.9-2.9,1.4c0,0,0,0,0,0c-1.5,0.8-3.2,1.6-5,2.6&#10;&#9;&#9;&#9;c0,0-0.1,0.1-0.1,0.1c-8.1,4.2-16.7,9.4-24.7,15.5c0,0-0.1,0-0.1,0c-16.2,12.3-30.3,28.5-34.7,49c0,0,23.6-6.1,48.4-16.6&#10;&#9;&#9;&#9;c5.1-12.5,12.9-23.7,21.5-33.4c0,0,0.1,0,0.1,0c3-3.3,6-6.5,9-9.4l2.5-2.4c2.9-2.6,5.7-5.1,8.5-7.5c0.1-0.5,0.2-1,0.2-1.6&#10;&#9;&#9;&#9;c-1.9-1.5-3.9-3.1-5.8-4.8C139.2,274.3,134.4,276.2,129.3,278.5z" id="el_ZH0-p3wxTsB"/>
	</g>
	<g id="el_hEh97oTGLoL">
		<path d="M253.9,285.2c0-0.2-0.1-0.4-0.1-0.7l-7.3-4.3l5-8.5v-0.1l-5.3,9L253.9,285.2z" id="el_ZgvaktxKK4e"/>
		<path d="M239.7,291.5L239.7,291.5l2.1-3.3h-0.1L239.7,291.5z" id="el_ydSnrWZNvFB"/>
		<path d="M230.2,270.6c0,0.2-0.1,0.3-0.2,0.5l8.6,5l0.3-0.4" id="el_W8KVO2e99e-"/>
		<path d="M217.1,263.4" id="el_cFD9RuBROmt"/>
		<path d="M268.8,359.9c2.6,0.7,5.2,1.3,7.8,2c-1.3-1.3-2.9-3.9-4.5-7.6L268.8,359.9z" id="el_G93OYKGB9XB"/>
		<path d="M239.6,290.1l2-3.5l14.8,8.9c4.1,19.6,8.5,36.7,12.4,48.5l-7.9,13.5c-0.1-0.1-0.1-0.1-0.2-0.1&#10;&#9;&#9;&#9;c0,0-9.1-4.7-19.8-14.6v0c0,0-0.1-0.1-0.1-0.1c-6.3-5.8-13-13.2-18.8-22.4l17.6-30.2" id="el_BiYAFTFq3gt"/>
		<path d="M241,342.6L241,342.6C241,342.6,240.9,342.6,241,342.6C240.9,342.5,241,342.6,241,342.6z" id="el_H4XwpSqJ_E9"/>
		<path d="M231.9,282.3c0.7,0.6,1.3,1.2,1.9,1.9l0.3-0.5L231.9,282.3z" id="el_9Q0jcDNi4YP"/>
		<path d="M211.4,292.2C211.4,292.2,211.4,292.2,211.4,292.2c-0.1,0-0.1-0.1-0.1-0.1c0,0,0,0,0,0&#10;&#9;&#9;&#9;C211.3,292.1,211.4,292.2,211.4,292.2z" id="el_-m-fD2giwcU"/>
		<path d="M214.8,286.6C214.8,286.6,214.8,286.6,214.8,286.6C214.8,286.6,214.8,286.6,214.8,286.6c-0.1,0.1-0.1,0-0.1,0&#10;&#9;&#9;&#9;c0,0,0,0,0,0c0,0,0,0,0,0c0,0,0,0,0,0C214.7,286.5,214.7,286.5,214.8,286.6C214.8,286.5,214.8,286.6,214.8,286.6z" id="el_G2XbqF6rXcC"/>
		<path d="M214.8,286.6C214.8,286.6,214.8,286.6,214.8,286.6C214.7,286.6,214.7,286.6,214.8,286.6&#10;&#9;&#9;&#9;C214.7,286.6,214.7,286.6,214.8,286.6C214.7,286.6,214.8,286.6,214.8,286.6z" id="el_xKIwGepwSSO"/>
		<path d="M211.4,292.2C211.4,292.2,211.4,292.2,211.4,292.2c-0.1,0-0.1-0.1-0.1-0.1c0,0,0,0,0,0&#10;&#9;&#9;&#9;C211.3,292.1,211.4,292.2,211.4,292.2z" id="el_dIyYwnH4eR0"/>
		<path d="M214.7,286.6C214.7,286.6,214.7,286.5,214.7,286.6c0.1,0,0.1,0,0.1,0C214.8,286.6,214.8,286.6,214.7,286.6&#10;&#9;&#9;&#9;C214.8,286.6,214.8,286.6,214.7,286.6" id="el_2FTjNMa18NS"/>
		<g id="el_6fGIsvqyReQ">
			<path d="M259.1,289.3c-2.7-7.8-4.9-15.6-7.6-23.6c-0.9-3-1.7-6.1-2.6-9.3c-1.1-7.4-1.4-16.2-2.1-22.8l-25.4-15.1&#10;&#9;&#9;&#9;&#9;c-1.4,3.1-3.5,8-4.6,11c0,0,0,0,0,0c-2.8,7.2-4.8,14.1-6.2,20.7c-0.6,2.9-1.1,5.9-1.5,8.7 M208.2,264.2c-1.2,6,0.7,19.5,0.7,19.5&#10;&#9;&#9;&#9;&#9;c0.1,0.8,0.2,1.5,0.3,2.3c0.2,1.2,0.4,2.4,0.6,3.6c0.2,1.3,0.5,2.5,0.8,3.7c1,4.3,2.3,8.3,3.8,12.1c0,0.1,0,0.1,0,0.2&#10;&#9;&#9;&#9;&#9;c0.9,2.2,1.8,4.3,2.8,6.3l17.6-28.6C234.5,282.8,210.1,263.5,208.2,264.2 M211.8,270.7 M211.4,292.5c0,0,0-0.1-0.1-0.2&#10;&#9;&#9;&#9;&#9;c0,0,0,0,0,0C211.3,292.3,211.4,292.4,211.4,292.5C211.4,292.4,211.4,292.4,211.4,292.5z M214.8,286.8&#10;&#9;&#9;&#9;&#9;C214.8,286.8,214.8,286.8,214.8,286.8C214.7,286.8,214.7,286.8,214.8,286.8C214.7,286.8,214.7,286.8,214.8,286.8&#10;&#9;&#9;&#9;&#9;c-0.1,0-0.1,0-0.1-0.1C214.7,286.7,214.7,286.7,214.8,286.8C214.7,286.7,214.7,286.7,214.8,286.8&#10;&#9;&#9;&#9;&#9;C214.8,286.7,214.8,286.8,214.8,286.8C214.8,286.8,214.8,286.8,214.8,286.8z" id="el_80WavQPBYvo"/>
			<path d="M245.5,185.9c-2.4,1.8-3.4,2.3-4.6,3.7c-2.6,1.8-4.8,4-6.5,6.6c-3.5,5.5-6.7,10.7-9.5,15.9l20.7,12.4&#10;&#9;&#9;&#9;&#9;C243.7,203.7,242.8,189.2,245.5,185.9z" id="el_-Mlr9YkhLnD"/>
		</g>
		<path d="M260.7,356.9L260.7,356.9l-0.3,0.4c3,0.9,5.9,1.7,8.8,2.4l3.2-5.5c-1.3-2.8-2.6-6.3-4-10.4L260.7,356.9z" id="el_ZOqMssyxLDy"/>
		<path d="M246.1,234.3c-0.4-3.6-0.8-7.1-1.1-10.5l-20.2-12c-1.4,2.7-2.8,5.4-4,8.1l0.1,0.1c0.1-0.2,0.1-0.3,0.2-0.5&#10;&#9;&#9;&#9;L246.1,234.3z" id="el_9eHHVOR_fzT"/>
		<path d="M230,280.6" id="el_saSs_YYE0BJ"/>
		<path d="M268.4,343.9v-0.1l-7.7,13.1h0.1L268.4,343.9z" id="el_189J5cgyPlP"/>
		<path d="M242,287.7l-0.3,0.4l14.5,8.6c0-0.2-0.1-0.4-0.1-0.7L242,287.7z" id="el_piP-k-1GUUy"/>
		<path d="M230,280.7c0.7,0.6,1.3,1.1,1.9,1.7l2.2,1.3l-0.3,0.5c0,0,0,0,0.1,0.1" id="el_1a0mL_ToIwM"/>
		<path d="M233.8,284.3C233.8,284.3,233.8,284.2,233.8,284.3l-16.3,27.5v0.1L233.8,284.3z" id="el_KWAXVdXw4EI"/>
		<path d="M226.7,279.3l5.2,3.1c-0.6-0.6-1.2-1.1-1.9-1.7" id="el_nrBQn5e2IR0"/>
		<path d="M218.2,273.7c0,0.2,0,0.4,0,0.6l1,0.6c0.2-0.2,0.3-0.3,0.4-0.4" id="el_5fE3DH7RjnY"/>
		<path d="M208.3,267.8c0,0.2,0,0.4,0,0.6l9.9,5.9c0-0.2,0-0.4,0-0.6" id="el_E2YvUzjuvGj"/>
		<path d="M219.6,274.5c-0.1,0.1-0.2,0.2-0.4,0.4l7.4,4.4" id="el_GpSgl3qsXNN"/>
		<path d="M246.1,234.3l-25-14.8c-0.1,0.2-0.1,0.3-0.2,0.5l25.3,14.9C246.2,234.7,246.1,234.5,246.1,234.3z" id="el_NZPd7Pn7xfi"/>
		<path d="M249.3,258.2v-0.1l-10.4,17.6h0.1L249.3,258.2z" id="el_VpQQIsT1KXm"/>
		<path d="M280.7,338.8c0-0.1,0-0.1,0-0.2c-0.2-4.6-0.5-9.8-1-15.4v-0.1c-0.4-3.9-0.8-8.1-1.3-12.5c0-0.2,0-0.4-0.1-0.6&#10;&#9;&#9;&#9;c-0.4-3.4-0.8-6.8-1.3-10.4c0-0.2-0.1-0.4-0.1-0.6c-1.2-8.6-2.6-17.7-4.3-27.2c-1.4-7.2-2.7-14.2-4.1-20.9c0,0,0,0,0,0l0-0.1&#10;&#9;&#9;&#9;c-0.1-0.7-0.3-1.4-0.4-2.1l-0.1,0l-0.1-0.6l0.1,0.1c-1.2-5.8-2.5-11.4-3.8-16.7l-0.1,0.1l0-0.2c-6.8-28-13.8-46.7-18-46&#10;&#9;&#9;&#9;c-0.3,0.2-0.7,0.4-1,0.6c-2.7,3.2-3,17.3-1.2,37.5c0,0.2,0,0.4,0.1,0.6c0.3,3.3,0.6,6.8,1.1,10.5c0,0.2,0,0.4,0.1,0.6&#10;&#9;&#9;&#9;c0.8,7.2,1.8,15,3.1,23.1v0.1c0.7,4.4,1.4,8.9,2.2,13.4v0.1c0.2,1.2,0.4,2.5,0.6,3.7c0.5,3.1,1.1,6.1,1.7,9.1&#10;&#9;&#9;&#9;c0,0.2,0.1,0.4,0.1,0.7c0.7,3.7,1.4,7.4,2.2,10.9c0,0.2,0.1,0.4,0.1,0.7c4,19,8.2,35.4,12.2,47v0.1c1.4,4.1,2.7,7.6,4,10.4v0.1&#10;&#9;&#9;&#9;c1.5,3.3,2.9,5.6,4.1,6.8c0.9,0.2,1.7,0.4,2.6,0.6C280.4,360.3,281.2,351.8,280.7,338.8z" id="el_lrZQZKVZw3_"/>
		<path d="M238.2,275.7L238.2,275.7l-0.4,0.4l-8.3-5c0,0,0,0,0,0l-12.5-7.5c0,0,0,0,0-0.1l-8-4.9&#10;&#9;&#9;&#9;c-0.5,3.3-0.7,6.5-0.9,9.7l0.3,0.2v-0.6l0.1,0l-0.1,0.6l25.3,15.2l-0.1,0.1c0,0-0.1-0.1-0.1-0.1l-16.1,27.6l-0.3,0.4&#10;&#9;&#9;&#9;c1.5,3.1,3.1,6.1,4.9,8.9l17-29.1c0,0,0,0,0,0l2-3.4l14.4,8.7l-0.2-0.7l0.1,0.1c-0.7-3.6-1.5-7.2-2.2-10.9l-7.6-4.6l5.2-9&#10;&#9;&#9;&#9;c-0.8-4.6-1.5-9-2.2-13.4" id="el_tTCaakFU1ug"/>
	</g>
</g></g>
</svg>