<svg version="1.1" id="el_e6Rbl9ZrD" xmlns="http://www.w3.org/2000/svg" xmlns:xlink="http://www.w3.org/1999/xlink" x="0px" y="0px" viewBox="0 0 576 576" style="enable-background:new 0 0 576 576;" xml:space="preserve"><style>@-webkit-keyframes kf_el_sfE3JoRDlgY_an_QkrswvlYN{33.33%{-webkit-transform: translate(299.5px, 145.59999084472656px) translate(-299.5px, -145.59999084472656px) translate(0px, 0px);transform: translate(299.5px, 145.59999084472656px) translate(-299.5px, -145.59999084472656px) translate(0px, 0px);}85%{-webkit-transform: translate(299.5px, 145.59999084472656px) translate(-299.5px, -145.59999084472656px) translate(-1000px, 0px);transform: translate(299.5px, 145.59999084472656px) translate(-299.5px, -145.59999084472656px) translate(-1000px, 0px);}0%{-webkit-transform: translate(299.5px, 145.59999084472656px) translate(-299.5px, -145.59999084472656px) translate(0px, 0px);transform: translate(299.5px, 145.59999084472656px) translate(-299.5px, -145.59999084472656px) translate(0px, 0px);}100%{-webkit-transform: translate(299.5px, 145.59999084472656px) translate(-299.5px, -145.59999084472656px) translate(-1000px, 0px);transform: translate(299.5px, 145.59999084472656px) translate(-299.5px, -145.59999084472656px) translate(-1000px, 0px);}}@keyframes kf_el_sfE3JoRDlgY_an_QkrswvlYN{33.33%{-webkit-transform: translate(299.5px, 145.59999084472656px) translate(-299.5px, -145.59999084472656px) translate(0px, 0px);transform: translate(299.5px, 145.59999084472656px) translate(-299.5px, -145.59999084472656px) translate(0px, 0px);}85%{-webkit-transform: translate(299.5px, 145.59999084472656px) translate(-299.5px, -145.59999084472656px) translate(-1000px, 0px);transform: translate(299.5px, 145.59999084472656px) translate(-299.5px, -145.59999084472656px) translate(-1000px, 0px);}0%{-webkit-transform: translate(299.5px, 145.59999084472656px) translate(-299.5px, -145.59999084472656px) translate(0px, 0px);transform: translate(299.5px, 145.59999084472656px) translate(-299.5px, -145.59999084472656px) translate(0px, 0px);}100%{-webkit-transform: translate(299.5px, 145.59999084472656px) translate(-299.5px, -145.59999084472656px) translate(-1000px, 0px);transform: translate(299.5px, 145.59999084472656px) translate(-299.5px, -145.59999084472656px) translate(-1000px, 0px);}}@-webkit-keyframes kf_el__qwQzpGsbFl_an_-CgTi5FJ7{0%{-webkit-transform: translate(57.289100646972656px, 93.3049087524414px) translate(-57.289100646972656px, -93.3049087524414px) translate(0px, 0px);transform: translate(57.289100646972656px, 93.3049087524414px) translate(-57.289100646972656px, -93.3049087524414px) translate(0px, 0px);}85%{-webkit-transform: translate(57.289100646972656px, 93.3049087524414px) translate(-57.289100646972656px, -93.3049087524414px) translate(0px, 500px);transform: translate(57.289100646972656px, 93.3049087524414px) translate(-57.289100646972656px, -93.3049087524414px) translate(0px, 500px);}100%{-webkit-transform: translate(57.289100646972656px, 93.3049087524414px) translate(-57.289100646972656px, -93.3049087524414px) translate(0px, 500px);transform: translate(57.289100646972656px, 93.3049087524414px) translate(-57.289100646972656px, -93.3049087524414px) translate(0px, 500px);}}@keyframes kf_el__qwQzpGsbFl_an_-CgTi5FJ7{0%{-webkit-transform: translate(57.289100646972656px, 93.3049087524414px) translate(-57.289100646972656px, -93.3049087524414px) translate(0px, 0px);transform: translate(57.289100646972656px, 93.3049087524414px) translate(-57.289100646972656px, -93.3049087524414px) translate(0px, 0px);}85%{-webkit-transform: translate(57.289100646972656px, 93.3049087524414px) translate(-57.289100646972656px, -93.3049087524414px) translate(0px, 500px);transform: translate(57.289100646972656px, 93.3049087524414px) translate(-57.289100646972656px, -93.3049087524414px) translate(0px, 500px);}100%{-webkit-transform: translate(57.289100646972656px, 93.3049087524414px) translate(-57.289100646972656px, -93.3049087524414px) translate(0px, 500px);transform: translate(57.289100646972656px, 93.3049087524414px) translate(-57.289100646972656px, -93.3049087524414px) translate(0px, 500px);}}#el_e6Rbl9ZrD *{-webkit-animation-duration: 2s;animation-duration: 2s;-webkit-animation-iteration-count: infinite;animation-iteration-count: infinite;-webkit-animation-timing-function: cubic-bezier(0, 0, 1, 1);animation-timing-function: cubic-bezier(0, 0, 1, 1);}#el_qGiEmCK4B7{fill: #F9DC0B;}#el_nveFPgXmQz{fill: #8E4E02;}#el_jusBfj9Ccf{fill: #8E4E02;}#el_8HNovuqdVz{fill: #8E4E02;-webkit-transform: matrix(0.5788, -0.8155, 0.8155, 0.5788, -281.349, 264.3478);transform: matrix(0.5788, -0.8155, 0.8155, 0.5788, -281.349, 264.3478);}#el_xiNxTwDf9P{fill: #8E4E02;}#el_PNxxP7i6d2{fill: #8E4E02;}#el_KcauFIUMAg{fill: #8E4E02;}#el_-EMF64v5lF{fill: #8E4E02;-webkit-transform: matrix(0.5788, -0.8155, 0.8155, 0.5788, -222.0668, 297.951);transform: matrix(0.5788, -0.8155, 0.8155, 0.5788, -222.0668, 297.951);}#el_TqgR36Qdwk{fill: #F9DC0B;}#el_dLFvFaUUNM{fill: #8E4E02;}#el_5X9mw8KsSy{fill: #8E4E02;}#el_t-6-rn255I{fill: #8E4E02;}#el_5NF9TaxDV2{fill: #8E4E02;}#el_dS6qsneiba{fill: #8E4E02;}#el_gdcTc5-AbD{fill: #8E4E02;}#el_FRUPUataBWS{fill: #8E4E02;}#el_gpNESC_sc6S{fill: #F9DC0B;}#el_gCp9tvafkHP{fill: #FCC008;}#el_XkKv2WjfIA3{fill: #FCC008;}#el_EHh3jhmCzKc{fill: #FCC008;}#el_raQCIlySQlj{fill: #FCC008;}#el_NuKZns5NXVP{fill: #FCC008;}#el_HDFbctRctzu{fill: #FCC008;}#el_3E3Te2f8Q6k{fill: #FCC008;}#el_urvAtH33-5_{fill: #FCC008;}#el_9cvadAnCsJe{fill: #FCC008;}#el_RHJekNC6V45{fill: #FCC008;}#el_z2NekGiqewv{fill: #FCC008;}#el_LaxFHUheHoH{fill: #FCC008;}#el_Zq3_7IWx9bM{fill: #FCC008;}#el_2Saz4zhEFsS{fill: #FCC008;}#el_NcLRUwwUZnG{fill: #FCC008;}#el_OUHwEE8YTYD{fill: none;}#el_PJ3bdpQC8DD{fill: none;}#el_-RL8bKrtk6Q{fill: none;}#el_uwFE6Db2aV2{fill: none;}#el_f1nEdz4v6Q9{fill: #D47F00;}#el_j7hmo11vrO9{fill: #FECF25;-webkit-transform: matrix(0.9616, -0.2745, 0.2745, 0.9616, -13.9496, 108.5025);transform: matrix(0.9616, -0.2745, 0.2745, 0.9616, -13.9496, 108.5025);}#el_78vB-q5FKla{fill: #FECF25;}#el_68x5SYM9uyz{fill: #FECF25;}#el_HsEv75dyS95{fill: #FECF25;}#el_gwjzjVPCHjQ{fill: #FECF25;}#el_eVMe9nVzEpP{fill: #FECF25;}#el_K9oiX2HJlnG{fill: #FECF25;}#el_TKghHqBAoCb{fill: #EDCC0F;}#el_cwF1PZ0QP4T{fill: #F7D323;}#el_EofgK-WlDtD{fill: #8E4E02;-webkit-transform: matrix(0.959, -0.2833, 0.2833, 0.959, -39.6858, 108.413);transform: matrix(0.959, -0.2833, 0.2833, 0.959, -39.6858, 108.413);}#el_eTamd8BPXRj{fill: #8E4E02;-webkit-transform: matrix(0.959, -0.2833, 0.2833, 0.959, -51.7391, 112.0038);transform: matrix(0.959, -0.2833, 0.2833, 0.959, -51.7391, 112.0038);}#el_-FDDEUjWQCv{fill: #8E4E02;-webkit-transform: matrix(0.959, -0.2833, 0.2833, 0.959, -64.4808, 116.4499);transform: matrix(0.959, -0.2833, 0.2833, 0.959, -64.4808, 116.4499);}#el_h_VLO6OMvB1{fill: #8E4E02;-webkit-transform: matrix(0.959, -0.2833, 0.2833, 0.959, -80.959, 121.8306);transform: matrix(0.959, -0.2833, 0.2833, 0.959, -80.959, 121.8306);}#el_RCpLkFotaNj{fill: #C1B4BE;}#el_o-vpS4YNmNY{fill: #E2D2DD;}#el_uHDZokdiJx_{fill: #374757;}#el_EdzP7r0zqBM{fill: none;}#el_ZrnVHva7pJh{fill: none;}#el_bCzssZrIyyJ{fill: none;}#el_jnxY_IMekns{fill: none;}#el_r2CV4cMQoCL{fill: #FCC008;}#el_i0fKnrA1eO8{fill: #FCC008;}#el_n70_vmiBZ9z{fill: #FCC008;}#el__BxIoSit0Kl{fill: #FCC008;}#el_9RSxtjg3aXu{fill: #F7EB0D;}#el_nX0sJsqfiha{fill: #F7EB0D;}#el_FzPCbbtOCuP{fill: #F9DC0B;}#el_vEY1bZSKQH1{fill: #F9DC0B;}#el_t3g-cjLzxgj{fill: #8E4E02;-webkit-transform: matrix(0.9873, -0.1586, 0.1586, 0.9873, -27.3544, 52.9399);transform: matrix(0.9873, -0.1586, 0.1586, 0.9873, -27.3544, 52.9399);}#el_SMuxmet0T7F{fill: #8E4E02;}#el_D371Ya92qXq{fill: #8E4E02;}#el_h9iUs2mw4RT{fill: #8E4E02;}#el_viU1xaQZb2M{fill: #8E4E02;}#el_FnyRM-PC-0D{fill: #8E4E02;}#el_pVQ80DNKaCs{fill: #8E4E02;}#el_9JuHQf0Q6pb{fill: #F9DC0B;}#el_FWhjb6oiF5C{fill: #F9DC0B;}#el_FNN3Kj9nPLF{fill: #D47F00;}#el_1bR1rF4bYQr{fill: #D47F00;}#el_oUvXhqXNwlX{fill: #D47F00;}#el_S6MTpVI8JZm{fill: #FCC008;}#el_i7h58JnzRFT{fill: #D47F00;}#el__qwQzpGsbFl_an_-CgTi5FJ7{-webkit-animation-fill-mode: backwards;animation-fill-mode: backwards;-webkit-transform: translate(57.289100646972656px, 93.3049087524414px) translate(-57.289100646972656px, -93.3049087524414px) translate(0px, 0px);transform: translate(57.289100646972656px, 93.3049087524414px) translate(-57.289100646972656px, -93.3049087524414px) translate(0px, 0px);-webkit-animation-name: kf_el__qwQzpGsbFl_an_-CgTi5FJ7;animation-name: kf_el__qwQzpGsbFl_an_-CgTi5FJ7;-webkit-animation-timing-function: cubic-bezier(0, 0, 1, 1);animation-timing-function: cubic-bezier(0, 0, 1, 1);}#el_sfE3JoRDlgY_an_QkrswvlYN{-webkit-animation-fill-mode: backwards;animation-fill-mode: backwards;-webkit-transform: translate(299.5px, 145.59999084472656px) translate(-299.5px, -145.59999084472656px) translate(0px, 0px);transform: translate(299.5px, 145.59999084472656px) translate(-299.5px, -145.59999084472656px) translate(0px, 0px);-webkit-animation-name: kf_el_sfE3JoRDlgY_an_QkrswvlYN;animation-name: kf_el_sfE3JoRDlgY_an_QkrswvlYN;-webkit-animation-timing-function: cubic-bezier(0, 0, 1, 1);animation-timing-function: cubic-bezier(0, 0, 1, 1);}</style>

<path d="M221.6,332.9c0,0-146.9,72.6-185.1,69.9L0,416l63.4,80.6c0,0,126.5-33.6,133.4-43.3&#10;&#9;c6.9-9.7,34.7-29.7,32.5-35.5c-2.2-5.7,8.3-41.1,8.3-41.1S234.7,338,221.6,332.9z" id="el_qGiEmCK4B7"/>
<circle cx="138.9" cy="459.3" r="5.3" id="el_nveFPgXmQz"/>
<circle cx="176.3" cy="436.1" r="2.8" id="el_jusBfj9Ccf"/>
<ellipse cx="115.2" cy="404.5" rx="6.9" ry="1.7" id="el_8HNovuqdVz"/>
<circle cx="148.5" cy="381.4" r="4" id="el_xiNxTwDf9P"/>
<circle cx="92.2" cy="470.7" r="2.8" id="el_PNxxP7i6d2"/>
<circle cx="64.3" cy="416.1" r="4" id="el_KcauFIUMAg"/>
<ellipse cx="177.4" cy="363.9" rx="8.5" ry="2.9" id="el_-EMF64v5lF"/>
<path d="M242.6,470.1c0,0-144.2-77.8-164.1-110.5l-31.9-22.1l-29,98.4c0,0,100.6,83.7,112.5,83.7s44.3,11.1,47.7,6&#10;&#9;s38.4-17,38.4-17S246,483.7,242.6,470.1z" id="el_TqgR36Qdwk"/>
<circle cx="91.6" cy="475.8" r="5.3" id="el_dLFvFaUUNM"/>
<circle cx="132.2" cy="492.9" r="2.8" id="el_5X9mw8KsSy"/>
<ellipse cx="122.6" cy="424.8" rx="6.9" ry="1.7" id="el_t-6-rn255I"/>
<circle cx="160.7" cy="438.6" r="4" id="el_5NF9TaxDV2"/>
<circle cx="55.2" cy="444.3" r="2.8" id="el_dS6qsneiba"/>
<circle cx="83.7" cy="390" r="4" id="el_gdcTc5-AbD"/>
<ellipse cx="191.7" cy="452" rx="8.5" ry="2.9" id="el_FRUPUataBWS"/>
<g id="el_eh4ZnkY0-Q0">
	<g id="el_055MeuYDKUL">
		<path d="M494.5,78.8c0-0.1,0-0.1-0.1-0.2c-0.8-1.7-1.6-3.4-2.4-5c-8.6-14.2-30.6-22.6-58.9-24c-0.3,0-0.6,0-0.9,0&#10;&#9;&#9;&#9;c-4.7-0.2-9.5-0.3-14.5-0.1c-0.3,0-0.6,0-0.9,0c-9.9,0.4-20.2,1.5-30.9,3.4c-0.1,0-0.1,0-0.2,0c-5.7,1-11.5,2.3-17.4,3.8&#10;&#9;&#9;&#9;c-0.1,0-0.1,0-0.2,0c-1.6,0.4-3.1,0.8-4.7,1.2c-3.9,1.1-7.7,2.2-11.5,3.5c-0.3,0.1-0.5,0.2-0.8,0.3c-4.7,1.6-9.2,3.2-13.6,5&#10;&#9;&#9;&#9;c-0.3,0.1-0.5,0.2-0.8,0.3c-23.4,9.5-42.3,21.8-54.4,34.8l-0.1,0.1c-4.3,4.6-7.7,9.2-10.1,13.8c0,0.1-0.1,0.1-0.1,0.2&#10;&#9;&#9;&#9;c-1.9,3.7-3.2,7.3-3.9,10.9l-1-0.5C243.8,196.6,319.8,369,319.8,369c29.4,32.2,50.5,29.1,50.5,29.1l-35.6-228.4&#10;&#9;&#9;&#9;c3-0.8,8.2-2.1,15-4c3.3-0.9,7-2,11-3.1c10.3-3,22.5-6.8,35.3-11.2c1.8-0.6,3.6-1.3,5.4-1.9c1.6-0.6,3.3-1.2,4.9-1.8&#10;&#9;&#9;&#9;c5.6-2.1,11.2-4.2,16.7-6.5c1.4-0.6,2.9-1.2,4.3-1.8l-0.1-0.6l0.3,0.5c3.9-1.6,7.7-3.3,11.4-5c1.3-0.6,2.6-1.2,3.9-1.8l-0.3-0.4&#10;&#9;&#9;&#9;v-0.3l0.5,0.6c1.8-0.9,3.6-1.7,5.3-2.6c10.7-5.4,20.4-11.2,28.2-17.4c2.6-2.1,5.1-4.2,7.2-6.4C492.5,97.3,496.8,88.2,494.5,78.8z" id="el_gpNESC_sc6S"/>
		<g id="el_Wv5jA_jEx6Q">
			<path d="M510.4,233l35.6,31.8l14-13.8c-2.7-18.6-7.4-37-13.1-54.4L510.4,233z" id="el_gCp9tvafkHP"/>
			<polygon points="400.2,323.1 430.6,292.7 398.3,263.8 &#9;&#9;&#9;" id="el_XkKv2WjfIA3"/>
			<path d="M453.4,182.1l43.9-43.9l-27.5-24.6c-12.2,10.5-27.1,18.7-40.1,24.7l-11.9,11.9L453.4,182.1z" id="el_EHh3jhmCzKc"/>
			<path d="M526.9,145.6c-1.8-4-3.6-7.8-5.4-11.4l-3.5,3.5L526.9,145.6z" id="el_raQCIlySQlj"/>
			<path d="M499.8,223.5l42-42c-0.7-1.8-1.3-3.6-2-5.4L508,147.8l-43.9,43.9L499.8,223.5z" id="el_NuKZns5NXVP"/>
			<polygon points="451.4,292.1 487,323.9 536,275 500.3,243.2 &#9;&#9;&#9;" id="el_HDFbctRctzu"/>
			<polygon points="454,201.8 405.1,250.7 440.7,282.6 489.6,233.6 &#9;&#9;&#9;" id="el_3E3Te2f8Q6k"/>
			<path d="M514.9,120.7c-6.2-12.1-11.2-20.8-13.4-24.8c-0.8-1.5-7.7-18.6-7.7-18.6c-2,9.8-7,18.6-13.8,26.4l27.4,24.5&#10;&#9;&#9;&#9;&#9;L514.9,120.7z" id="el_urvAtH33-5_"/>
			<polygon points="443.3,192.3 407.7,160.4 397.8,170.3 397.8,237.8 &#9;&#9;&#9;" id="el_9cvadAnCsJe"/>
			<polygon points="401,346.6 402.6,397.5 412.6,398.3 434.5,376.5 &#9;&#9;&#9;" id="el_RHJekNC6V45"/>
			<path d="M556.7,274.4l5.7,5.1c-0.1-3.4-0.2-6.9-0.5-10.3L556.7,274.4z" id="el_z2NekGiqewv"/>
			<path d="M455.2,375.9l20.3,18.2c22.1-5.1,37.9-12.5,47.9-18.4l-35.9-32.1L455.2,375.9z" id="el_LaxFHUheHoH"/>
			<polygon points="441.3,302.2 408.9,334.5 444.6,366.4 476.9,334 &#9;&#9;&#9;" id="el_Zq3_7IWx9bM"/>
			<path d="M431.4,399.7c9.5-0.4,18.3-1.2,26.4-2.4L445.1,386L431.4,399.7z" id="el_2Saz4zhEFsS"/>
			<path d="M497.7,333.5l37.9,33.9c0.9-0.7,1.3-1.1,1.3-1.1c15.5-20,22.9-43.4,24.9-68.1l-15.2-13.6L497.7,333.5z" id="el_NcLRUwwUZnG"/>
			<polygon points="408.9,334.5 444.6,366.4 476.9,334 441.3,302.2 &#9;&#9;&#9;" id="el_OUHwEE8YTYD"/>
			<polygon points="489.6,233.6 454,201.8 405.1,250.7 440.7,282.6 &#9;&#9;&#9;" id="el_PJ3bdpQC8DD"/>
			<path d="M464.1,191.7l35.6,31.8l42-42c-0.7-1.8-1.3-3.6-2-5.4L508,147.8L464.1,191.7z" id="el_-RL8bKrtk6Q"/>
			<polygon points="451.4,292.1 487,323.9 536,275 500.3,243.2 &#9;&#9;&#9;" id="el_uwFE6Db2aV2"/>
			<path d="M562.4,279.5l-5.7-5.1l5.2-5.2c-0.4-6.1-1.1-12.2-2-18.2L546,264.9L510.4,233l36.5-36.5&#10;&#9;&#9;&#9;&#9;c-1.7-5.1-3.4-10.1-5.2-15l-42,42l-35.6-31.8l43.9-43.9l31.8,28.4c-4.2-10.9-8.5-21.2-12.8-30.6l-8.9-7.9l3.5-3.5&#10;&#9;&#9;&#9;&#9;c-2.3-4.9-4.6-9.4-6.7-13.5l-7.5,7.5L480,103.7c-3.1,3.6-6.5,6.9-10.2,10.1l27.5,24.6l-43.9,43.9l-35.6-31.8l11.9-11.9&#10;&#9;&#9;&#9;&#9;c-6.3,2.9-12.2,5.3-17.2,7.2c-8.8,3.3-14.7,5-14.7,5v1.1v18.7l9.9-9.9l35.6,31.8L397.8,238v6.5v4.4l0.3,9.1l0.2,6.2l32.3,28.8&#10;&#9;&#9;&#9;&#9;l-30.4,30.4l0.1,3.8l0.5,15.8l0.1,4l33.5,29.9l-21.8,21.8l17.2,1.4c0.6,0,1.1,0,1.6-0.1l13.7-13.7l12.7,11.3&#10;&#9;&#9;&#9;&#9;c6.3-0.9,12.2-2,17.8-3.3l-20.3-18.2l32.3-32.3l35.9,32.1c6.2-3.7,10.2-6.8,12.1-8.3l-37.9-33.9l48.9-48.9l15.2,13.6&#10;&#9;&#9;&#9;&#9;C562.4,292,562.6,285.7,562.4,279.5z M405.1,250.7l48.9-48.9l35.6,31.8l-48.9,48.9L405.1,250.7z M444.6,366.4L409,334.6&#10;&#9;&#9;&#9;&#9;l32.3-32.3l35.6,31.8L444.6,366.4z M487,323.9l-35.6-31.8l48.9-48.9L536,275L487,323.9z" id="el_f1nEdz4v6Q9"/>
		</g>
		
			<ellipse cx="380.7" cy="104.1" rx="36" ry="15" id="el_j7hmo11vrO9"/>
		<path d="M333.6,116.8c0,0-12,12-32,8.8C281.6,122.4,324.3,113,333.6,116.8z" id="el_78vB-q5FKla"/>
		<path d="M331.2,108.6c0,0-14.7,8.4-33.2,0.1S323.2,102.6,331.2,108.6z" id="el_68x5SYM9uyz"/>
		<path d="M394.7,77.3c0,0,0.4-11.8,12-22C418.3,45,401.2,73.4,394.7,77.3z" id="el_HsEv75dyS95"/>
		<path d="M440.5,88.8c0,0,8.2-8.5,23.6-8.3S447.9,90.2,440.5,88.8z" id="el_gwjzjVPCHjQ"/>
		<path d="M430.7,105c0,0,15.3-3,24.9,9.9C465.3,127.9,433.7,112.8,430.7,105z" id="el_eVMe9nVzEpP"/>
		<path d="M379.3,81.7c0,0-5.7-7.6-2.7-19.1C379.6,51.1,381.9,76.5,379.3,81.7z" id="el_K9oiX2HJlnG"/>
		<path d="M397.8,150.8l4.8,246.7c0,0-20.8,5.3-50.5-3.5l-49.8-245.9C302.3,148.1,373,150.7,397.8,150.8z" id="el_TKghHqBAoCb"/>
		<path d="M302.3,148.1l-34.2-21.3c0,0-29.2,64.9,51.7,242.2c0,0,26.2,23.4,32.3,25L302.3,148.1z" id="el_cwF1PZ0QP4T"/>
	</g>
	<ellipse cx="355" cy="191.4" rx="2.7" ry="4.5" id="el_EofgK-WlDtD"/>
	<ellipse cx="361.3" cy="234.9" rx="2.7" ry="4.5" id="el_eTamd8BPXRj"/>
	<ellipse cx="370.3" cy="281.1" rx="2.7" ry="4.5" id="el_-FDDEUjWQCv"/>
	<ellipse cx="380.7" cy="340.8" rx="2.7" ry="4.5" id="el_h_VLO6OMvB1"/>
</g>
<g id="el__qwQzpGsbFl_an_-CgTi5FJ7" data-animator-group="true" data-animator-type="0"><g id="el__qwQzpGsbFl">
	<g id="el_JkvKIvloH8d">
		<path d="M246,161.1c1.1-3.2,237.1,89.3,252.7,130.8l-60.6-1.6l-211.2-48.6L246,161.1z" id="el_RCpLkFotaNj"/>
		<path d="M245.1,164.9c0,0,235.5,89.2,252.2,127.5l-80.6-2.2l-199-43.8L245.1,164.9z" id="el_o-vpS4YNmNY"/>
	</g>
	<path d="M246.9,161.3c0,0-156-73.2-162.9-67.7c-6.9,5.5-38.1-7.1-22.3,48c10.2,22.3,16.7,18.8,16.7,18.8&#10;&#9;&#9;s9.1-17.1,23.8-9.7c14.7,7.3,55.4,33.3,55.4,33.3s32.1,13.1,43.4,15.2c11.3,2.1,23.9,11.5,27.1,16.5&#10;&#9;&#9;C231.3,220.7,246.9,161.3,246.9,161.3z" id="el_uHDZokdiJx_"/>
</g></g>
<g id="el_sfE3JoRDlgY_an_QkrswvlYN" data-animator-group="true" data-animator-type="0"><g id="el_sfE3JoRDlgY">
	<g id="el_IU0aDoXodOh">
		<g id="el_g3fkHbVepit">
			<polygon points="405.4,237.3 405.4,169.9 366.3,208.8 402,240.7 &#9;&#9;&#9;" id="el_EdzP7r0zqBM"/>
			<polygon points="405.9,263.3 402.5,260.3 370.2,292.6 405.8,324.4 407.8,322.4 &#9;&#9;&#9;" id="el_ZrnVHva7pJh"/>
			<polygon points="356.2,219 323.9,251.3 359.5,283.1 391.9,250.8 &#9;&#9;&#9;" id="el_bCzssZrIyyJ"/>
			<path d="M326,165.4C326,165.4,326,165.5,326,165.4c12.6-2.4,64-12.3,82.5-15.8L326,165.4z" id="el_jnxY_IMekns"/>
			<path d="M408.5,149.6c-18.5,3.5-69.8,13.5-82.5,15.9c-6.5,28.7,16.6,165.4,25.1,213.6l44.6-44.6l-35.6-31.8&#10;&#9;&#9;&#9;&#9;l-10.7-9.5l-14.1-11.7l-2.3-21.2l26.5,22.8l32.3-32.3L356.2,219l-10.7-9.5l-20.1-22v-18.7l30.2,30.7l48.9-48.8l0.8,0.7v18.7&#10;&#9;&#9;&#9;&#9;l-39.1,39.1l35.6,31.8l11.5-10.4c-1.8-5.6-4.7-12.1-4.7-12.1s5.5-16.3,5.9-21.1c0.2-2.5,2.1-16.1,2.8-28.4&#10;&#9;&#9;&#9;&#9;c0.7-11.1,0.4-21.1-2.8-20.5C413.6,148.7,411.5,149.1,408.5,149.6L408.5,149.6L408.5,149.6z" id="el_r2CV4cMQoCL"/>
			<path d="M406.4,344l-51.1,51c14,6.1,76.3,3.5,76.3,3.5s-1-14.4-2.4-33.7L406.4,344z" id="el_i0fKnrA1eO8"/>
			<path d="M370.2,292.6l35.6,31.8l19.3-18l1.3,17.8l-10.9,9.1l12.3,11.3c-1.7-23.9-3.4-49.7-4.2-64.4&#10;&#9;&#9;&#9;&#9;c-0.4-7-0.6-11.4-0.4-11.7c0.7-1.2-8.4-9.7-12.5-15.2l-11,9.9L370.2,292.6z" id="el_n70_vmiBZ9z"/>
			<path d="M414.7,237.7c0.3-0.7,0.1-2.1-0.2-3.8l-0.4,5.2C414.3,238.6,414.5,238.2,414.7,237.7z" id="el__BxIoSit0Kl"/>
			<path d="M408.5,149.6c0.1,0,0.1,0,0.2,0l-109.1-4l26.5,19.8L408.5,149.6z" id="el_9RSxtjg3aXu"/>
			<path d="M408.7,149.6L408.7,149.6c-0.1,0-0.1,0-0.2,0H408.7z" id="el_nX0sJsqfiha"/>
			<path d="M323.2,166c0,0,1-0.2,2.8-0.5v-0.1l-26.5-19.8c0,0,8.8,40.1,18,87.3c0-0.1,0-0.1,0-0.2&#10;&#9;&#9;&#9;&#9;c-0.5-3,0.3-5.7,1.9-5.9s3.1,2,3.6,5c0.5,3-0.3,5.7-1.9,5.9c-1.4,0.2-2.9-1.7-3.5-4.4c2.1,10.7,4.2,21.8,6.3,32.8&#10;&#9;&#9;&#9;&#9;c-0.1-2.4,0.7-4.4,2-4.6c1.5-0.2,3.1,2,3.6,5s-0.3,5.7-1.9,5.9c-1.2,0.2-2.4-1.2-3.2-3.2c9.3,50.4,17,99.6,13.6,110.8l6,6&#10;&#9;&#9;&#9;&#9;l5.2-5.2C339.5,336.3,315.5,189.7,323.2,166z M318.8,203.3c-1.1,0.2-2.5-2.1-2.9-5.2c-0.5-3,0-5.6,1.2-5.8&#10;&#9;&#9;&#9;&#9;c1.1-0.2,2.5,2.1,2.9,5.2C320.5,200.5,320,203.1,318.8,203.3z M333.9,310.8c-0.9,0.1-2.1-2.2-2.6-5.2c-0.5-3-0.1-5.6,0.8-5.8&#10;&#9;&#9;&#9;&#9;c0.9-0.1,2.1,2.2,2.6,5.2C335.2,308.1,334.8,310.6,333.9,310.8z M337.7,340.6c-0.6,0.1-1.3-1.2-1.5-2.9c-0.3-1.7,0-3.1,0.6-3.2&#10;&#9;&#9;&#9;&#9;c0.6-0.1,1.3,1.2,1.5,2.9C338.5,339,338.3,340.5,337.7,340.6z" id="el_FzPCbbtOCuP"/>
			<path d="M326,165.5c-1.8,0.4-2.8,0.5-2.8,0.5c-7.7,23.6,16.3,170.3,26.2,214.8l1.7-1.7&#10;&#9;&#9;&#9;&#9;C342.6,330.9,319.5,194,326,165.5z" id="el_vEY1bZSKQH1"/>
			
				<ellipse cx="318" cy="197.8" rx="2.1" ry="5.6" id="el_t3g-cjLzxgj"/>
			<path d="M317.7,233.3c0-0.1-0.1-0.3-0.1-0.4C317.6,233,317.7,233.2,317.7,233.3z" id="el_SMuxmet0T7F"/>
			<path d="M321.2,237.7c1.5-0.2,2.3-2.9,1.9-5.9c-0.5-3-2.1-5.3-3.6-5s-2.3,2.9-1.9,5.9c0,0.1,0,0.1,0,0.2&#10;&#9;&#9;&#9;&#9;c0,0.1,0.1,0.3,0.1,0.4C318.3,236,319.8,237.9,321.2,237.7z" id="el_D371Ya92qXq"/>
			<path d="M324.1,267.5c0.1,0.6,0.3,1.3,0.5,1.8c-0.2-1.1-0.4-2.1-0.6-3.2C324,266.6,324,267,324.1,267.5z" id="el_h9iUs2mw4RT"/>
			<path d="M327.7,272.5c1.5-0.2,2.3-2.9,1.9-5.9c-0.5-3-2.1-5.3-3.6-5c-1.3,0.2-2.1,2.1-2,4.6c0.2,1.1,0.4,2.1,0.6,3.2&#10;&#9;&#9;&#9;&#9;C325.3,271.4,326.5,272.7,327.7,272.5z" id="el_viU1xaQZb2M"/>
			<path d="M332.1,299.8c-0.9,0.1-1.3,2.7-0.8,5.8c0.5,3.1,1.6,5.4,2.6,5.2c0.9-0.1,1.3-2.7,0.8-5.8&#10;&#9;&#9;&#9;&#9;C334.2,302,333,299.7,332.1,299.8z" id="el_FnyRM-PC-0D"/>
			<path d="M336.7,334.5c-0.6,0.1-0.8,1.5-0.6,3.2c0.3,1.7,1,2.9,1.5,2.9c0.6-0.1,0.8-1.5,0.6-3.2&#10;&#9;&#9;&#9;&#9;C338,335.7,337.3,334.4,336.7,334.5z" id="el_pVQ80DNKaCs"/>
			<path d="M353.8,394.2c-0.4-0.3-0.8-0.6-1-1c-0.7-1.1-1.9-5.6-3.4-12.5l-5.2,5.2l9.9,9.9&#10;&#9;&#9;&#9;&#9;C354.1,395.9,354,395.3,353.8,394.2z" id="el_9JuHQf0Q6pb"/>
			<path d="M352.8,393.2c0.2,0.3,0.5,0.7,1,1c-0.5-2.5-1.4-7.8-2.7-15.1l-1.7,1.7C351,387.6,352.2,392.1,352.8,393.2z" id="el_FWhjb6oiF5C"/>
			<polygon points="430.9,381.1 412.6,398.3 431.4,400 &#9;&#9;&#9;" id="el_FNN3Kj9nPLF"/>
			<path d="M414.2,232.9l-3.7-3.2l-7,8l-5.1,5.5l6.3,0L414.2,232.9l-3.1-8.4l-13.2,13L366.4,209l39.1-39.1l12.4-12.3&#10;&#9;&#9;&#9;&#9;c0,0-0.4-8.7-2.5-9.1l-10.8,2l-48.9,48.8l-30.2-30.7v18.7l20.1,22l-17.1,19.7l1.5,12.5l25.8-23.2l0.6,0.5l35.6,31.8L359.7,283&#10;&#9;&#9;&#9;&#9;l-26.5-22.8l2.3,21.2l14.1,11.7l0.3,0.2l-11.3,11.9l1.8,8.6l0.9,5.7l18.6-17.3l0.4,0.4l35.4,32l-44.4,44.4&#10;&#9;&#9;&#9;&#9;c1.3,7.3,2.2,12.6,2.7,15.1c0.4,0.3,0.9,0.6,1.5,0.8l50.1-47l24.8,24.6c-0.7-6.1-2-14.6-2.5-21.7l-17.2-17.5l15.1-17.4l-0.3-18.3&#10;&#9;&#9;&#9;&#9;l-20.4,22.4l-34.9-27.2l29.5-29.5l11-9.9c-1.2-1.7-2-3.1-1.9-4c0.4-3.2,3.6-7,5.3-10.1l0.4-5.2" id="el_1bR1rF4bYQr"/>
		</g>
	</g>
	<path d="M422.6,267l1.7,13.1l-32.5-29.8l21.6-20c0,0,1.9,6.3,1,8s-6.1,9.4-5.7,10.9L422.6,267z" id="el_oUvXhqXNwlX"/>
</g></g>
<path d="M409.8,162" id="el_S6MTpVI8JZm"/>
<polygon points="417.3,169 411.6,163.9 420.5,155.5 431.9,167.1 " id="el_i7h58JnzRFT"/>
</svg>