<svg version="1.1" id="el_mdTMaQ-JT" xmlns="http://www.w3.org/2000/svg" xmlns:xlink="http://www.w3.org/1999/xlink" x="0px" y="0px" viewBox="0 0 576 576" style="enable-background:new 0 0 576 576;" xml:space="preserve"><style>@-webkit-keyframes kf_el_htlM90RpBNW_an_8k86Kc1H5{0%{-webkit-transform: translate(40px, 18.2955379486084px) translate(-40px, -18.2955379486084px) translate(0px, 0px);transform: translate(40px, 18.2955379486084px) translate(-40px, -18.2955379486084px) translate(0px, 0px);}46.67%{-webkit-transform: translate(40px, 18.2955379486084px) translate(-40px, -18.2955379486084px) translate(0px, 600px);transform: translate(40px, 18.2955379486084px) translate(-40px, -18.2955379486084px) translate(0px, 600px);}100%{-webkit-transform: translate(40px, 18.2955379486084px) translate(-40px, -18.2955379486084px) translate(0px, 600px);transform: translate(40px, 18.2955379486084px) translate(-40px, -18.2955379486084px) translate(0px, 600px);}}@keyframes kf_el_htlM90RpBNW_an_8k86Kc1H5{0%{-webkit-transform: translate(40px, 18.2955379486084px) translate(-40px, -18.2955379486084px) translate(0px, 0px);transform: translate(40px, 18.2955379486084px) translate(-40px, -18.2955379486084px) translate(0px, 0px);}46.67%{-webkit-transform: translate(40px, 18.2955379486084px) translate(-40px, -18.2955379486084px) translate(0px, 600px);transform: translate(40px, 18.2955379486084px) translate(-40px, -18.2955379486084px) translate(0px, 600px);}100%{-webkit-transform: translate(40px, 18.2955379486084px) translate(-40px, -18.2955379486084px) translate(0px, 600px);transform: translate(40px, 18.2955379486084px) translate(-40px, -18.2955379486084px) translate(0px, 600px);}}#el_mdTMaQ-JT *{-webkit-animation-duration: 3s;animation-duration: 3s;-webkit-animation-iteration-count: infinite;animation-iteration-count: infinite;-webkit-animation-timing-function: cubic-bezier(0, 0, 1, 1);animation-timing-function: cubic-bezier(0, 0, 1, 1);}#el_xiURfLUGZY{fill: #AC7631;}#el_3HwDYDrxpx{fill: #C1B4BE;}#el_aZLo7BND-G{fill: #E2D2DD;}#el_AWeEchzMie{fill: #374757;}#el_a8e0TSxpo1{fill: #E7D0AA;-webkit-transform: matrix(0.7071, -0.7071, 0.7071, 0.7071, -109.3015, 257.8862);transform: matrix(0.7071, -0.7071, 0.7071, 0.7071, -109.3015, 257.8862);}#el_nBoZZhRZUo{fill: #131213;}#el_-zf7S88TwY{fill: #131213;}#el_wbKnTNmVUi{fill: #131213;}#el_VhM-2YLoD7{fill: #131213;}#el_97st7M78j5{fill: #80973B;}#el_BPmOBmfMvt8{fill: #80973B;}#el_lRX9Jebx-Do{fill: #91B23D;}#el_uDOPJTZs5jg{fill: #131213;}#el_zQmg-Zmqxhd{fill: #131213;}#el_JgO8SZk_TEi{fill: #131213;}#el_A4OmW-mh2QN{fill: #131213;}#el_c4pSJ2YwLFF{fill: #131213;}#el_RphpyRNd1ZR{fill: #131213;}#el_gMdDqELBoHP{fill: #131213;}#el_RnN9iRkTS0q{fill: #131213;}#el_EGXQVePbtxP{fill: #131213;}#el_Xg8023W_qBm{fill: #131213;}#el_zIzKjyg7j9_{fill: #131213;}#el_-MQdCetnSSL{fill: #131213;}#el_GjmM68sjTc2{fill: #131213;}#el_-0u0uubPSmU{fill: #EBC478;}#el_Q3DYpKIazvJ{fill: #EBC478;}#el_ZPduoipJutz{fill: #EBC478;}#el_4iiQeIRCP29{fill: #EBC478;}#el_7dk8whZxjmO{fill: #EBC478;}#el_tSR3oz00Ogu{fill: #E7D0AA;}#el_5LEl-9soxTr{fill: #E7D0AA;}#el_aYYoIg0li4B{fill: #E7D0AA;}#el_7mRaKxal41-{fill: #E7D0AA;}#el_pUSVbkdQ2NP{fill: #E7D0AA;}#el_x9F22k6Zpbq{fill: #E7D0AA;}#el_K4K-KD4Zx3U{fill: #E7D0AA;}#el_lukaU30l956{fill: #E7D0AA;}#el_QVN23s7e35i{fill: #E7D0AA;}#el_J5pHLWGeRuP{fill: #E7D0AA;}#el_ZqQzUkQJc4N{fill: #E7D0AA;}#el_GlI1MpKVEo8{fill: #E7D0AA;}#el_64T9nuyEWmZ{fill: #E7D0AA;}#el_g8hRtfSZMg1{fill: #E7D0AA;}#el_D8cw0T2H51y{fill: #E7D0AA;}#el_6AIadE-kFry{fill: #E7D0AA;}#el_8UPyt8uyJ-R{fill: #E7D0AA;}#el_vvF4Hu0z-6I{fill: #E7D0AA;}#el_OJWxqdXOzKs{fill: #E7D0AA;}#el_mU8Xz1kPEP_{fill: #E7D0AA;}#el_BOdQhBJWb7Y{fill: #E7D0AA;}#el_hsjs86ndLRf{fill: #E7D0AA;}#el_n7q0lX01kUC{fill: #E7D0AA;}#el_UJqyLz-CqPn{fill: #E7D0AA;}#el_ehJwe7nuOTA{fill: #E7D0AA;}#el_udEVf4R7740{fill: #131213;}#el_vqSMyv5c8ea{fill: #131213;}#el_br-OzTGCvNx{fill: #131213;}#el_DXSLT9czpJZ{fill: #EBC478;}#el_NhXLjBgoRSJ{fill: #91B23D;}#el_JtI47j0KweW{fill: #131213;}#el_shaay4LUwO_{fill: #131213;}#el_n9Z7UY7E9_A{fill: #9EB247;}#el_A55Kkf7BSIo{fill: #EBC478;}#el_ySHHRHkYqI1{fill: #EBC478;}#el_uI0jovUUhTB{fill: none;}#el_qJ0pVM4hiHU{fill: none;}#el_C67XlmauNr9{fill: none;}#el_hmb9oAFcqFX{fill: none;}#el_U9LgTVb4jHc{fill: #93AA33;}#el_LEM-Qw_XB2T{fill: #93AA33;}#el_ZhtL-ECLJbK{fill: #80973B;}#el_FN47FRABriE{fill: #80973B;}#el_JfGO8D5V3YC{fill: #80973B;}#el_4Rz-CeutJPu{fill: #91B23D;}#el_zycabxeD-5A{fill: #91B23D;}#el_47WtINrswX8{fill: #91B23D;}#el_D9IRLm1rpqo{fill: #91B23D;}#el_EyPPhaHbCDn{fill: #91B23D;}#el_qVKP7N8Z0zC{fill: #91B23D;}#el_lo3HNzia0Ip{fill: #91B23D;}#el_q_c7UGpgcJZ{fill: #91B23D;}#el_jaBlqNSCwYs{fill: #E7D0AA;}#el_5Za2_dlPDgS{fill: #E7D0AA;}#el_IonpXpupH4f{fill: #E7D0AA;}#el_lyzKtkFr31J{fill: #E7D0AA;}#el_3pg2np2SSPr{fill: #E7D0AA;}#el_kBzkJZRUr9Z{fill: #E7D0AA;}#el_vTF77TiLwwt{fill: #E7D0AA;}#el_OwZkmYwWelz{fill: #E7D0AA;}#el_1nmSM_7GH67{fill: #131213;}#el_kFrP_P8h4lW{fill: #131213;}#el_PlcXcYL5jnX{fill: #131213;}#el_NSrznL-_MK1{fill: #131213;}#el_XVbLHJ0q1j0{fill: #131213;}#el_3wysNVwRFMK{fill: #131213;}#el_aywnxcKC1RX{fill: #131213;}#el_Hry4Fq-yYrT{fill: #131213;}#el__GJMMxEC854{fill: #131213;}#el_B7pPkWz3JE7{fill: #131213;}#el_7sIL0pME-Th{fill: #131213;}#el_GeuBVZHVs_T{fill: #9EB247;}#el_IIWChgE5MgC{fill: #EBC478;}#el_NwabbX9MUUc{fill: #E7D0AA;}#el_zTDXPQjEHT6{fill: #E7D0AA;}#el_x5z2IP8GSlC{fill: #E7D0AA;}#el_eGMNnaqBH2n{fill: #E7D0AA;}#el_1f4_Zd0Pvyf{fill: #E7D0AA;}#el_I5PyAeyWbkw{fill: #C1B4BE;}#el_ta8TNPPb-Di{fill: #E2D2DD;}#el_akryJihnJqq{fill: #29353F;}#el_3OKNape2aBw{fill: #374757;}#el_-OfrChML54j{fill: #EBC478;}#el_xK4RnFQ17qh{fill: #9EB247;}#el_yzxuD9UfocT{fill: #91B23D;}#el_Ywjw9W1t-SE{fill: #91B23D;}#el_VtgDhDyiivk{fill: #91B23D;}#el_za19de74El2{fill: #131213;}#el_VADZHWeSfQW{fill: #131213;}#el_UO8xFIg0FAz{fill: #131213;}#el_pDBHHHwe4SV{fill: #131213;}#el_Uo202d7EGX-{fill: #131213;}#el_jQ66pa03VZl{fill: #131213;}#el_Uhy6x2v-43Y{fill: #91B23D;}#el_ZJNF_LvrHcJ{fill: #91B23D;}#el_RPgmHeuNJiO{fill: #91B23D;}#el_vm7RB75pVDt{fill: #91B23D;}#el_HCFMq8-HKPe{fill: #91B23D;}#el_RpcC1YMlzvG{fill: #EBC478;}#el_kviiSViHyo0{fill: #E7D0AA;}#el_Xcw042WZ_RX{fill: #E7D0AA;}#el_BFWYVEFvCPG{fill: #E7D0AA;}#el_AcDxeT6TgAJ{fill: #E7D0AA;}#el_HU5oPTGuqcf{fill: #E7D0AA;}#el_jVDTRw0LvXK{fill: #E7D0AA;}#el_PaALeKX28xb{fill: #131213;}#el_TyCvtVwlNtq{fill: #131213;}#el_J8EHD6D493j{fill: #131213;}#el_gznSW2_SgWw{fill: #131213;}#el_DaK38iwaYgt{fill: #131213;}#el__wpCkS-vjZ-{fill: #131213;}#el_vRrEn8URf1b{fill: #131213;}#el_wIZaETGpsus{fill: #131213;}#el_71rl-sj7wU_{fill: #131213;}#el_VhEWSeIWuSS{fill: #131213;}#el_EY5QsCYtCus{fill: #131213;}#el_DFt4yIB1x0_{fill: #131213;-webkit-transform: matrix(0.1531, -0.9882, 0.9882, 0.1531, -67.6254, 515.766);transform: matrix(0.1531, -0.9882, 0.9882, 0.1531, -67.6254, 515.766);}#el_Gd_XqMb8xje{fill: #131213;-webkit-transform: matrix(0.1531, -0.9882, 0.9882, 0.1531, -60.048, 542.9235);transform: matrix(0.1531, -0.9882, 0.9882, 0.1531, -60.048, 542.9235);}#el_1gmHqdIMii9{fill: #131213;}#el_KcQkxoxeTsI{fill: #9EB247;}#el_KIbRs2Ybi5u{fill: #93AA33;}#el_mitmgvb5Khw{fill: #EBC478;}#el_6v5Qr0TAL-v{fill: #91B23D;}#el_mWyU7T8LItz{fill: #E7D0AA;}#el_2Gg_AGpFp1x{fill: #E7D0AA;}#el_iUiK69DfSug{fill: #E7D0AA;}#el_YKiQuar5R0D{fill: #E7D0AA;}#el_2ZjP-g5_3du{fill: #E7D0AA;}#el_1v2XP3C382j{fill: #E7D0AA;}#el_SjkWJw9Rq39{fill: #131213;}#el_ZPhL-UYJS4n{fill: #131213;}#el_T094IqLfqW5{fill: #131213;}#el_icOXmqD0TqK{fill: #131213;}#el_QsKLmdQNGHG{fill: #131213;}#el_htlM90RpBNW_an_8k86Kc1H5{-webkit-animation-fill-mode: backwards;animation-fill-mode: backwards;-webkit-transform: translate(40px, 18.2955379486084px) translate(-40px, -18.2955379486084px) translate(0px, 0px);transform: translate(40px, 18.2955379486084px) translate(-40px, -18.2955379486084px) translate(0px, 0px);-webkit-animation-name: kf_el_htlM90RpBNW_an_8k86Kc1H5;animation-name: kf_el_htlM90RpBNW_an_8k86Kc1H5;-webkit-animation-timing-function: cubic-bezier(0, 0, 1, 1);animation-timing-function: cubic-bezier(0, 0, 1, 1);}</style>

<g id="el_4MIPLBqnbz">
	<path d="M992.4,150.4" id="el_xiURfLUGZY"/>
	<g id="el_yjHg_JoVhe">
		<g id="el_p-k1GKimhH">
			<path d="M967.2,105c1.5-3.1,270,96.8,284.7,138.4l-70.8-3.7L938,184L967.2,105z" id="el_3HwDYDrxpx"/>
			<path d="M965.8,108.7c0,0,268.1,96.7,284.5,135.1l-94.1-5.1L927,188.2L965.8,108.7z" id="el_aZLo7BND-G"/>
		</g>
		<path d="M968.1,105.3c0,0-176.4-78-184.9-72.8s-44-8.4-30.1,46.6c10.1,22.4,17.9,19.2,17.9,19.2s12.1-16.6,28.6-8.7&#10;&#9;&#9;&#9;s62,34.9,62,34.9s36.4,14.1,49.5,16.6c13.1,2.5,27,12.2,30.3,17.3C944.9,163.3,968.1,105.3,968.1,105.3z" id="el_AWeEchzMie"/>
	</g>
</g>
<g id="el_OhsUQ-i6Wb">
	<g id="el_0Ph_yQprFd">
		
			<rect x="232.1" y="256.1" width="49.1" height="9.6" id="el_a8e0TSxpo1"/>
		<rect x="174.5" y="300" width="31.4" height="202.2" id="el_nBoZZhRZUo"/>
		<path d="M256.5,258.7c0,0,2,1.1,1.5,4.2c0,0-0.7,2.1-2.4,0.1c0,0-0.9-1.5-0.1-3.5&#10;&#9;&#9;&#9;C255.5,259.5,255.9,258.5,256.5,258.7z" id="el_-zf7S88TwY"/>
		<path d="M223.3,255.9c0,0,2,1.1,1.5,4.2c0,0-0.7,2.1-2.4,0.1c0,0-0.9-1.5-0.1-3.5&#10;&#9;&#9;&#9;C222.3,256.7,222.7,255.7,223.3,255.9z" id="el_wbKnTNmVUi"/>
		<path d="M234.3,249.7c0,0,1.8,1.2,1,4c0,0-0.8,1.9-2.2-0.1c0,0-0.7-1.4,0.2-3.2C233.4,250.3,233.8,249.4,234.3,249.7z&#10;&#9;&#9;&#9;" id="el_VhM-2YLoD7"/>
		<path d="M212.3,394.8c-0.4-4.7-0.5-9.9-0.3-15.4c0,0.5,0,1,0,1.5c-0.1,4.4,0,8.5,0.3,12.4&#10;&#9;&#9;&#9;C212.2,393.9,212.3,394.3,212.3,394.8z" id="el_97st7M78j5"/>
		<path d="M212.2,393.4c-0.3-3.9-0.4-8-0.3-12.4C211.9,385.1,212,389.2,212.2,393.4z" id="el_BPmOBmfMvt8"/>
		<path d="M137,282.5c-14.7,17.8-26,55.9-26.5,96.9c0,0.5,0,1,0,1.5c0,4.1,0.1,8.3,0.3,12.4c0,0.5,0.1,1,0.1,1.4&#10;&#9;&#9;&#9;c0.4,7.2,1.2,14.5,2.3,21.7c4.1,25.3,13.1,49.7,28.7,69.3c0.3,0.4,0.6,0.7,0.9,1.1c11,14.8,23.6,24.7,36.6,31.3&#10;&#9;&#9;&#9;c-0.1-0.2-0.1-0.3-0.2-0.5c1.5,0.9,3,1.7,4.4,2.5c10.3,5.5,20.1,8.8,29.1,10.6v-12.1c-4.5-1.2-7.1-2.4-7.1-2.4v-54.3l0,0&#10;&#9;&#9;&#9;c0,0-2.2,0.8-4.1-1.7c0,0-1.1-1.9,1.5-1.8c0,0,1.6,0.3,2.6,2.1v-40.2l0,0c0,0-2.2,0.8-4.1-1.7c0,0-1.1-1.9,1.5-1.8&#10;&#9;&#9;&#9;c0,0,1.6,0.3,2.6,2.1V379l0,0c0,0-2.2,0.8-4.1-1.7c0,0-1.1-1.9,1.5-1.8c0,0,1.6,0.3,2.6,2.1V342c0,0-0.1,0-0.1,0.1&#10;&#9;&#9;&#9;c0,0-0.9,0.2-1.2-0.2c0,0,0,0-0.1-0.1c0,0-0.3-1.7,1.4-3.1v-1.2l0,0c0,0-2.2,0.8-4.1-1.7c0,0-1.1-1.9,1.5-1.8c0,0,1.6,0.3,2.6,2.1&#10;&#9;&#9;&#9;v-35.5c0-0.2,0-0.3,0-0.5c-0.2-3.9,1.9-7.8,5.9-11.1c4.7-3.9,11.7-6.5,19.1-7.2c4.7-0.5,9.3-0.1,13.5,1l16.9-17.3l19-19.4l5.3-5.4&#10;&#9;&#9;&#9;c-17.1-6-37.6-8.9-59.2-6.5C169.1,240.5,137,282.5,137,282.5z M171.3,289.6c0,0-1.3-1.1-1.2-3.3c0,0,0.1-1,0.7-1&#10;&#9;&#9;&#9;c0,0,2.3,0.4,2.7,3.5C173.5,288.8,173.6,291,171.3,289.6z M179.2,282.8c-1.2-0.7-2.4-1.5-3.6-2.4c0.2,0.5,0.4,1.1,0.4,1.8&#10;&#9;&#9;&#9;c0,0-0.2,2-2.1,0.5c0,0-1.1-1.1-0.8-3.1c0,0,0.1-0.7,0.5-0.8l-0.1-0.1c0.1,0,0.2,0,0.3,0h0.1c0,0,0.1,0,0.1,0.1&#10;&#9;&#9;&#9;c1.7,0.3,3.3,0.7,4.9,1.2c-0.2-0.5-0.4-1.2-0.4-2.1c0,0,0.1-1,0.7-1c0,0,2.3,0.4,2.7,3.5c0,0,0,0.3-0.1,0.6c1.6,0.6,3.2,1.2,4.8,2&#10;&#9;&#9;&#9;c2.1,1,4.1,2,6.1,3.2c0.4,0.2,0.8,0.5,1.2,0.7c1.6,1,3.1,2,4.5,3.3c-1.8-0.3-3.5-0.7-5.1-1.2c-0.6-0.2-1.1-0.3-1.6-0.5&#10;&#9;&#9;&#9;c-2.2-0.7-4.3-1.6-6.4-2.6C183.2,285,181.2,284,179.2,282.8z M190.7,298.3c0.2-0.6,0.3-1.3,0.5-1.9l4.3,1.1L190.7,298.3z&#10;&#9;&#9;&#9; M195.7,346.1c0,0,0.9,0.6,0.6,1.1c0,0-1.4,1.8-4.4,0.7c0,0-2-1,0.4-2.3C192.3,345.6,193.8,345,195.7,346.1z M191.9,368.9&#10;&#9;&#9;&#9;c0,0,1.6-0.6,3.5,0.5c0,0,0.9,0.6,0.6,1.1c0,0-1.4,1.8-4.4,0.7C191.5,371.2,189.5,370.2,191.9,368.9z M195.7,387.7&#10;&#9;&#9;&#9;c0,0,0.9,0.6,0.6,1.1c0,0-1.4,1.8-4.4,0.7c0,0-2-1,0.4-2.3C192.3,387.2,193.8,386.6,195.7,387.7z M191.9,410.5&#10;&#9;&#9;&#9;c0,0,1.6-0.6,3.5,0.5c0,0,0.9,0.6,0.6,1.1c0,0-1.4,1.8-4.4,0.7C191.5,412.8,189.5,411.7,191.9,410.5z M195.7,429.2&#10;&#9;&#9;&#9;c0,0,0.9,0.6,0.6,1.1c0,0-1.4,1.8-4.4,0.7c0,0-2-1,0.4-2.3C192.3,428.7,193.8,428.1,195.7,429.2z M191.9,452c0,0,1.6-0.6,3.5,0.5&#10;&#9;&#9;&#9;c0,0,0.9,0.6,0.6,1.1c0,0-1.4,1.8-4.4,0.7C191.5,454.3,189.5,453.3,191.9,452z M192.3,470.3c0,0,1.6-0.6,3.5,0.5&#10;&#9;&#9;&#9;c0,0,0.9,0.6,0.6,1.1c0,0-1.4,1.8-4.4,0.7C191.9,472.6,189.9,471.6,192.3,470.3z M194.2,465.7c0,0-1.1-1.9,1.5-1.8&#10;&#9;&#9;&#9;c0,0,1.7,0.3,2.7,2.2c0,0,0.4,1-0.1,1.3C198.3,467.4,196.2,468.2,194.2,465.7z M196.8,439.5c0,0,1.6-0.6,3.5,0.5&#10;&#9;&#9;&#9;c0,0,0.9,0.6,0.6,1.1c0,0-1.4,1.8-4.4,0.7C196.4,441.8,194.4,440.7,196.8,439.5z M198.3,425.9c0,0-2.2,0.8-4.1-1.7&#10;&#9;&#9;&#9;c0,0-1.1-1.9,1.5-1.8c0,0,1.7,0.3,2.7,2.2C198.4,424.6,198.9,425.6,198.3,425.9z M196.8,397.9c0,0,1.6-0.6,3.5,0.5&#10;&#9;&#9;&#9;c0,0,0.9,0.6,0.6,1.1c0,0-1.4,1.8-4.4,0.7C196.4,400.2,194.4,399.2,196.8,397.9z M198.3,384.3c0,0-2.2,0.8-4.1-1.7&#10;&#9;&#9;&#9;c0,0-1.1-1.9,1.5-1.8c0,0,1.7,0.3,2.7,2.2C198.4,383,198.9,384,198.3,384.3z M196.8,356.4c0,0,1.6-0.6,3.5,0.5&#10;&#9;&#9;&#9;c0,0,0.9,0.6,0.6,1.1c0,0-1.4,1.8-4.4,0.7C196.4,358.7,194.4,357.6,196.8,356.4z M198.3,342.8c0,0-2.2,0.8-4.1-1.7&#10;&#9;&#9;&#9;c0,0-1.1-1.9,1.5-1.8c0,0,1.7,0.3,2.7,2.2C198.4,341.5,198.9,342.5,198.3,342.8z M198.1,287.2c0,0-1.3-1.1-1.2-3.3&#10;&#9;&#9;&#9;c0,0,0.1-1,0.7-1c0,0,2.3,0.4,2.7,3.5C200.4,286.5,200.4,288.7,198.1,287.2z M188.5,292.2c0,0,0.1-1,0.7-1c0,0,2,0.4,2.6,3.1&#10;&#9;&#9;&#9;c0,0.2,0.1,0.3,0.1,0.4s0,0.9-0.5,1.2c-0.3,0.2-0.9,0.2-1.7-0.4C189.7,295.5,188.4,294.4,188.5,292.2z M195.9,495.2&#10;&#9;&#9;&#9;c0,0-1.4,1.8-4.4,0.7c0,0-2-1,0.4-2.3c0,0,1.6-0.6,3.5,0.5C195.3,494,196.2,494.6,195.9,495.2z M196.8,481c0,0,1.6-0.6,3.5,0.5&#10;&#9;&#9;&#9;c0,0,0.9,0.6,0.6,1.1c0,0-1.4,1.8-4.4,0.7C196.4,483.3,194.4,482.3,196.8,481z M201.3,489.6c0,0-1.4,1.8-4.4,0.7c0,0-2-1,0.3-2.3&#10;&#9;&#9;&#9;c0,0,1.6-0.6,3.5,0.5C200.8,488.5,201.6,489.1,201.3,489.6z M203.4,477.4c0,0,0.5,1-0.1,1.3c0,0-2.2,0.8-4.1-1.7&#10;&#9;&#9;&#9;c0,0-1.1-1.9,1.5-1.8C200.7,475.2,202.4,475.5,203.4,477.4z M201.3,448.1c0,0-1.4,1.8-4.4,0.7c0,0-2-1,0.3-2.3&#10;&#9;&#9;&#9;c0,0,1.6-0.6,3.5,0.5C200.8,446.9,201.6,447.5,201.3,448.1z M203.4,435.9c0,0,0.5,1-0.1,1.3c0,0-2.2,0.8-4.1-1.7&#10;&#9;&#9;&#9;c0,0-1.1-1.9,1.5-1.8C200.7,433.6,202.4,434,203.4,435.9z M203.3,408.1c0,0-1.6,0.6-3.2-0.8c-0.7,0.3-1.8,0.4-3.1-0.1&#10;&#9;&#9;&#9;c0,0-2-1,0.3-2.3c0,0,0.9-0.3,2.1,0c0.3-0.2,0.7-0.2,1.3-0.2c0,0,1.7,0.3,2.7,2.2C203.4,406.9,203.9,407.8,203.3,408.1z&#10;&#9;&#9;&#9; M203.4,394.3c0,0,0.5,1-0.1,1.3c0,0-2.2,0.8-4.1-1.7c0,0-1.1-1.9,1.5-1.8C200.7,392.1,202.4,392.4,203.4,394.3z M203.3,366.6&#10;&#9;&#9;&#9;c0,0-1.6,0.6-3.2-0.8c-0.7,0.3-1.8,0.4-3.1-0.1c0,0-2-1,0.3-2.3c0,0,0.9-0.3,2.1,0c0.3-0.2,0.7-0.2,1.3-0.2c0,0,1.7,0.3,2.7,2.2&#10;&#9;&#9;&#9;C203.4,365.3,203.9,366.3,203.3,366.6z M203.4,352.8c0,0,0.5,1-0.1,1.3c0,0-2.2,0.8-4.1-1.7c0,0-1.1-1.9,1.5-1.8&#10;&#9;&#9;&#9;C200.7,350.5,202.4,350.9,203.4,352.8z M203.3,325c0,0-0.3,0.1-0.7,0.1c-0.8,0-2.2-0.2-3.4-1.8c0,0-1.1-1.9,1.5-1.8&#10;&#9;&#9;&#9;c0,0,1.7,0.3,2.7,2.2c0,0,0.1,0.2,0.1,0.4C203.6,324.5,203.6,324.9,203.3,325z M200.2,280.3c-1.3-0.8-2.5-1.6-3.7-2.5&#10;&#9;&#9;&#9;c-0.7-0.5-1.4-1-2.1-1.6c-1.7-1.3-3.3-2.7-4.8-4.2c-0.3,0.3-0.8,0.4-1.7-0.3c0,0-0.8-0.8-0.9-2.2c-0.9-1-1.8-2-2.6-3.2&#10;&#9;&#9;&#9;c1.1,0.4,2.1,1,3.1,1.5c0.1,0,0.2-0.1,0.3-0.1c0,0,0.7,0.2,1.3,1c0.5,0.3,1,0.6,1.6,1c2,1.3,3.9,2.6,5.7,4.1&#10;&#9;&#9;&#9;c0.3,0.3,0.7,0.6,1,0.9c1.5,1.2,2.9,2.4,4.3,3.8c0.3,0.3,0.5,0.6,0.8,0.8c0-0.1,0-0.2,0-0.4c0,0,0.1-1,0.7-1c0,0,2.3,0.4,2.7,3.5&#10;&#9;&#9;&#9;c0,0,0,0.8-0.5,1.1c0.3,0.4,0.6,0.8,1,1.3C204.2,282.7,202.2,281.5,200.2,280.3z M212.2,273.8c0,0-1.3-1.1-1.2-3.3&#10;&#9;&#9;&#9;c0,0,0.1-1.1,0.7-1c0,0,2.3,0.4,2.7,3.5C214.4,273,214.4,275.2,212.2,273.8z M215,271.5c-1.6-1.7-3.1-3.6-4.4-5.5&#10;&#9;&#9;&#9;c-0.9-1.2-1.7-2.5-2.6-3.7c-0.4-0.7-0.9-1.4-1.3-2.1c-1.2-2-2.3-4.1-3.1-6.4c1.9,1.5,3.6,3.2,5.2,4.9c1.1,1.2,2.1,2.5,3.1,3.7&#10;&#9;&#9;&#9;c0.4,0.6,0.9,1.1,1.3,1.7c1.4,1.9,2.7,3.8,3.9,5.9c1.2,2,2.3,4.1,3.1,6.4C218.3,274.9,216.6,273.2,215,271.5z M229.9,276.7&#10;&#9;&#9;&#9;c0,0-0.7,2.1-2.4,0.1c0,0-0.9-1.5-0.1-3.5c0,0,0.4-1,1-0.8C228.4,272.5,230.4,273.6,229.9,276.7z M230.3,274.6&#10;&#9;&#9;&#9;c-1.2-2.2-2.1-4.5-2.9-6.8c-0.6-1.6-1-3.2-1.4-4.8c-0.2-0.7-0.4-1.5-0.6-2.2c-0.6-2.4-1-4.7-1.3-7.2c-0.3-2.4-0.5-4.9-0.4-7.4&#10;&#9;&#9;&#9;c1.2,2.2,2.1,4.5,2.9,6.8c0.8,2.3,1.4,4.6,2,7c0.2,1,0.4,2.1,0.6,3.1c0.2,1.4,0.5,2.7,0.6,4.1&#10;&#9;&#9;&#9;C230.2,269.6,230.4,272.1,230.3,274.6z M240.5,271.4c0,0-0.7,2.1-2.4,0.1c0,0-0.9-1.4-0.1-3.5c0,0,0.4-1,1-0.8&#10;&#9;&#9;&#9;C239,267.2,241,268.3,240.5,271.4z M247.4,268.2c0,0-0.5,1.6-1.8,0.7c-0.3,0.4-0.6,0.9-0.9,1.3c-0.7,1.1-1.5,2.2-2.4,3.2&#10;&#9;&#9;&#9;c0.4-2.3,1-4.6,1.8-6.7c0.3-0.8,0.6-1.6,0.9-2.5c0.5-1.3,1-2.6,1.6-3.9c1-2.1,2-4.1,3.2-6.1c0.1-0.1,0.2-0.2,0.2-0.4&#10;&#9;&#9;&#9;c1.1-1.8,2.3-3.6,3.8-5.3c-0.4,2.4-1,4.6-1.8,6.7c-0.7,2.2-1.6,4.3-2.6,6.3c-0.4,0.9-0.9,1.9-1.4,2.8c-0.3,0.6-0.6,1.1-0.9,1.6&#10;&#9;&#9;&#9;C247.5,266.6,247.6,267.3,247.4,268.2z M262.6,260.9c-1,1.5-2.2,2.9-3.3,4.3c-0.3,0.4-0.6,0.7-0.9,1.1c-1.5,1.7-3,3.5-4.6,5.1&#10;&#9;&#9;&#9;s-3.3,3.2-5.1,4.7c1.1-2.1,2.3-4,3.7-5.9c1.3-1.8,2.6-3.5,4-5.2c0.1-0.1,0.1-0.1,0.2-0.2c0.3-0.4,0.7-0.8,1-1.2l0.1-0.1&#10;&#9;&#9;&#9;c1.1-1.3,2.3-2.6,3.5-3.8c1.6-1.6,3.3-3.2,5.1-4.6C265.2,257.2,263.9,259.1,262.6,260.9z" id="el_lRX9Jebx-Do"/>
		<path d="M240.5,271.4c0.6-3.1-1.5-4.2-1.5-4.2c-0.6-0.2-1,0.8-1,0.8c-0.7,2,0.1,3.5,0.1,3.5&#10;&#9;&#9;&#9;C239.8,273.6,240.5,271.4,240.5,271.4z" id="el_uDOPJTZs5jg"/>
		<path d="M245.6,268.9c1.2,1,1.8-0.7,1.8-0.7c0.2-0.9,0.1-1.6-0.1-2.2c-0.3,0.6-0.6,1.1-0.9,1.7&#10;&#9;&#9;&#9;C246.2,268.1,245.9,268.5,245.6,268.9z" id="el_zQmg-Zmqxhd"/>
		<path d="M229.9,276.7c0.6-3.1-1.5-4.2-1.5-4.2c-0.6-0.2-1,0.8-1,0.8c-0.7,2,0.1,3.5,0.1,3.5&#10;&#9;&#9;&#9;C229.2,278.8,229.9,276.7,229.9,276.7z" id="el_JgO8SZk_TEi"/>
		<path d="M214.4,273c0,0,0,2.2-2.2,0.8c0,0-1.3-1.1-1.2-3.3c0,0,0.1-1.1,0.7-1C211.7,269.4,214,269.9,214.4,273z" id="el_A4OmW-mh2QN"/>
		<path d="M200.4,286.5c0,0,0,2.2-2.2,0.8c0,0-1.3-1.1-1.2-3.3c0,0,0.1-1,0.7-1C197.6,282.9,199.9,283.3,200.4,286.5z" id="el_c4pSJ2YwLFF"/>
		<path d="M182,280.5c0,0,0,0.3-0.1,0.6c-0.5-0.2-1.1-0.4-1.6-0.6c-0.4-0.2-0.9-0.3-1.3-0.4c-0.2-0.5-0.4-1.2-0.4-2.1&#10;&#9;&#9;&#9;c0,0,0.1-1,0.7-1C179.3,277,181.6,277.4,182,280.5z" id="el_RphpyRNd1ZR"/>
		<path d="M206,281.3c0,0,0,0.8-0.5,1.1c-0.9-1.2-1.9-2.2-2.9-3.3c0-0.1,0-0.2,0-0.4c0,0,0.1-1,0.7-1&#10;&#9;&#9;&#9;C203.3,277.7,205.6,278.1,206,281.3z" id="el_gMdDqELBoHP"/>
		<path d="M191.8,294.3c-0.1,0.5-0.3,1.1-0.4,1.6c-0.3,0.2-0.9,0.2-1.7-0.4c0,0-1.3-1.1-1.2-3.3c0,0,0.1-1,0.7-1&#10;&#9;&#9;&#9;C189.2,291.2,191.3,291.6,191.8,294.3z" id="el_RnN9iRkTS0q"/>
		<path d="M173.5,288.8c0,0,0,2.2-2.2,0.8c0,0-1.3-1.1-1.2-3.3c0,0,0.1-1,0.7-1C170.9,285.2,173.1,285.6,173.5,288.8z" id="el_EGXQVePbtxP"/>
		<path d="M189.2,268.6c-0.5-0.3-1.1-0.6-1.6-0.9c0.1,0,0.2-0.1,0.3-0.1C187.8,267.6,188.6,267.8,189.2,268.6z" id="el_Xg8023W_qBm"/>
		<path d="M189.7,272c-0.3,0.3-0.8,0.4-1.7-0.3c0,0-0.8-0.8-0.9-2.2c0.7,0.7,1.4,1.5,2.1,2.2&#10;&#9;&#9;&#9;C189.3,271.7,189.5,271.8,189.7,272z" id="el_zIzKjyg7j9_"/>
		<path d="M174,278.9c-0.1,0-0.2,0-0.2,0H174C173.9,278.8,173.9,278.8,174,278.9z" id="el_-MQdCetnSSL"/>
		<path d="M176.1,282.3c0,0-0.2,2-2.1,0.5c0,0-1.1-1.1-0.8-3.1c0,0,0.1-0.7,0.5-0.8c0.6,0.6,1.3,1.1,2,1.6&#10;&#9;&#9;&#9;C175.9,280.9,176,281.5,176.1,282.3z" id="el_GjmM68sjTc2"/>
		<path d="M212.8,355.4v6.9c-2.4-0.2-4.8-0.4-7.1-0.7v-6.9C208,355,210.4,355.2,212.8,355.4z" id="el_-0u0uubPSmU"/>
		<path d="M212.8,314.8v17l-5.1,6.1c-0.5-0.2-1,0.1-1,0.1c-0.4,0.2-0.7,0.4-1,0.7v-1.2c0.5-0.3,0.1-1.3,0.1-1.3&#10;&#9;&#9;&#9;s0-0.1-0.1-0.1v-14L212.8,314.8z" id="el_Q3DYpKIazvJ"/>
		<path d="M212.8,331.8v23.6c-2.4-0.2-4.8-0.4-7.1-0.7V342c1.9-0.7,2.5-2.2,2.5-2.2c0.2-1.2-0.1-1.7-0.5-1.8&#10;&#9;&#9;&#9;L212.8,331.8z" id="el_ZPduoipJutz"/>
		<path d="M206.6,338c-0.4,0.2-0.7,0.4-1,0.7v1.7l2-2.4C207.2,337.7,206.6,338,206.6,338z" id="el_4iiQeIRCP29"/>
		<path d="M205.7,342c1.9-0.7,2.5-2.3,2.5-2.3c0.3-1.2-0.1-1.7-0.5-1.8l-2,2.4V342z" id="el_7dk8whZxjmO"/>
		<path d="M252.4,270.2c-1.3,1.9-2.6,3.8-3.7,5.9c1.8-1.4,3.5-3,5.1-4.6s3.1-3.3,4.6-5.1c0.3-0.4,0.6-0.7,0.9-1.1&#10;&#9;&#9;&#9;c-1-0.1-1.9-0.2-2.9-0.2C255,266.7,253.6,268.4,252.4,270.2z" id="el_tSR3oz00Ogu"/>
		<path d="M252.2,255.2c0.7-2.2,1.4-4.4,1.8-6.7c-1.5,1.7-2.7,3.5-3.8,5.3l-3.4,10.5c0.5,0,1,0.1,1.5,0.1&#10;&#9;&#9;&#9;c0.5-0.9,0.9-1.8,1.4-2.8C250.6,259.5,251.5,257.4,252.2,255.2z" id="el_5LEl-9soxTr"/>
		<path d="M245.9,264c0,0,0.1,0.1,0.3,0.2c0.2,0,0.3,0,0.5,0l3.4-10.5c-0.1,0.1-0.2,0.3-0.2,0.4c-1.2,2-2.2,4-3.2,6.1&#10;&#9;&#9;&#9;c-0.6,1.3-1.1,2.6-1.6,3.9c0.1,0,0.2,0,0.3,0C245.5,264,245.7,263.9,245.9,264z" id="el_aYYoIg0li4B"/>
		<path d="M246.6,264.6l0.1-0.4c-0.2,0-0.3,0-0.5,0C246.3,264.3,246.5,264.5,246.6,264.6z" id="el_7mRaKxal41-"/>
		<path d="M245.3,268.6l-0.5,1.6c0.3-0.4,0.6-0.9,0.9-1.3C245.5,268.8,245.4,268.7,245.3,268.6z" id="el_pUSVbkdQ2NP"/>
		<path d="M246.6,264.6c0.3,0.3,0.6,0.8,0.7,1.4c0.3-0.5,0.6-1.1,0.9-1.6c-0.5,0-1-0.1-1.5-0.1L246.6,264.6z" id="el_x9F22k6Zpbq"/>
		<path d="M245.1,268.3c0,0-0.9-1.5-0.1-3.5c0,0,0.2-0.4,0.4-0.6c-0.1,0-0.2,0-0.3,0c-0.3,0.8-0.6,1.6-0.9,2.5&#10;&#9;&#9;&#9;c-0.7,2.2-1.4,4.4-1.8,6.7c0.9-1,1.7-2.1,2.4-3.2l0.5-1.6C245.2,268.5,245.1,268.4,245.1,268.3z" id="el_K4K-KD4Zx3U"/>
		<path d="M245.9,264c-0.2-0.1-0.4,0-0.6,0.1c0.3,0,0.6,0,0.9,0.1C246.1,264.1,245.9,264,245.9,264z" id="el_lukaU30l956"/>
		<path d="M246.2,264.2c-0.3,0-0.6,0-0.9-0.1c-0.3,0.2-0.4,0.6-0.4,0.6c-0.7,2,0.1,3.5,0.1,3.5c0.1,0.1,0.2,0.2,0.3,0.3&#10;&#9;&#9;&#9;l1.3-4C246.5,264.5,246.3,264.3,246.2,264.2z" id="el_QVN23s7e35i"/>
		<path d="M245.3,268.6c0.1,0.1,0.2,0.2,0.3,0.3c0.3-0.4,0.5-0.8,0.8-1.2c0.3-0.5,0.6-1.1,0.9-1.7&#10;&#9;&#9;&#9;c-0.2-0.6-0.5-1.1-0.7-1.4L245.3,268.6z" id="el_J5pHLWGeRuP"/>
		<path d="M198.4,290.3c-1.8-0.3-3.5-0.7-5.1-1.2c0.2-0.7,0.4-1.4,0.6-2.1C195.4,288,196.9,289.1,198.4,290.3z" id="el_ZqQzUkQJc4N"/>
		<path d="M173.8,278.8c-0.1,0-0.1,0-0.2,0l-0.1-0.1C173.6,278.8,173.7,278.8,173.8,278.8z" id="el_GlI1MpKVEo8"/>
		<path d="M193.9,287c-0.2,0.7-0.4,1.4-0.6,2.1c-0.6-0.2-1.1-0.3-1.6-0.5c-2.2-0.7-4.3-1.6-6.4-2.6&#10;&#9;&#9;&#9;c-2.1-1-4.1-2-6.1-3.2c-1.2-0.7-2.4-1.5-3.6-2.4c-0.5-1-1.3-1.4-1.6-1.6c1.7,0.3,3.3,0.7,4.9,1.2c0.3,0.8,0.8,1.2,0.8,1.2&#10;&#9;&#9;&#9;c1.4,0.9,1.9,0.4,2.1-0.2c1.6,0.6,3.2,1.2,4.8,2c2.1,1,4.1,2,6.1,3.2C193.1,286.5,193.5,286.8,193.9,287z" id="el_64T9nuyEWmZ"/>
		<path d="M179.8,281.3c1.4,0.9,1.9,0.4,2.1-0.2c-0.5-0.2-1.1-0.4-1.6-0.6c-0.4-0.2-0.9-0.3-1.3-0.4&#10;&#9;&#9;&#9;C179.3,280.9,179.8,281.3,179.8,281.3z" id="el_g8hRtfSZMg1"/>
		<path d="M174,278.9c-0.1,0-0.1,0-0.2,0c-0.1,0-0.1,0-0.2,0c0.6,0.6,1.3,1.1,2,1.6C175.1,279.4,174.3,279,174,278.9z" id="el_D8cw0T2H51y"/>
		<path d="M206.5,283.7c-2.2-0.9-4.3-2.1-6.3-3.4c-1.3-0.8-2.5-1.6-3.7-2.5c0.3-1.1,0.6-2.2,1-3.2&#10;&#9;&#9;&#9;c1.5,1.2,2.9,2.4,4.3,3.8c0.3,0.3,0.5,0.6,0.8,0.8c0.1,1.9,1.2,2.9,1.2,2.9c0.9,0.6,1.4,0.6,1.8,0.3&#10;&#9;&#9;&#9;C205.8,282.8,206.2,283.2,206.5,283.7z" id="el_6AIadE-kFry"/>
		<path d="M197.5,274.5c-0.3,1-0.6,2.1-1,3.2c-0.7-0.5-1.4-1-2.1-1.6c-1.7-1.3-3.3-2.7-4.8-4.2c0.3-0.3,0.4-0.9,0.4-0.9&#10;&#9;&#9;&#9;c-0.1-1.2-0.4-1.9-0.8-2.5c0.5,0.3,1,0.6,1.6,1c2,1.3,3.9,2.6,5.7,4.1C196.8,273.9,197.2,274.2,197.5,274.5z" id="el_8UPyt8uyJ-R"/>
		<path d="M187.6,267.7c-0.4,0.2-0.5,0.8-0.5,0.8c0,0.3,0,0.6,0,0.9c-0.9-1-1.8-2-2.6-3.2&#10;&#9;&#9;&#9;C185.5,266.6,186.6,267.2,187.6,267.7z" id="el_vvF4Hu0z-6I"/>
		<path d="M203.8,282.1c0.9,0.6,1.4,0.6,1.8,0.3c-0.9-1.2-1.9-2.2-2.9-3.3C202.7,281.1,203.8,282.1,203.8,282.1z" id="el_OJWxqdXOzKs"/>
		<path d="M190,271.1c-0.1-1.2-0.4-1.9-0.8-2.5c-0.5-0.3-1.1-0.6-1.6-0.9c-0.4,0.2-0.5,0.8-0.5,0.8c0,0.3,0,0.6,0,0.9&#10;&#9;&#9;&#9;c0.7,0.7,1.4,1.5,2.1,2.2c0.1,0.1,0.3,0.3,0.5,0.4C190,271.7,190,271.1,190,271.1z" id="el_mU8Xz1kPEP_"/>
		<path d="M261.6,292.2c-0.1,0.1-0.2,0.1-0.2,0.1c0,0.1,0,0.1-0.1,0.2c-0.2-0.1-0.5-0.1-0.7-0.2&#10;&#9;&#9;&#9;C261,292.3,261.3,292.3,261.6,292.2z" id="el_BOdQhBJWb7Y"/>
		<path d="M211.8,262.4c-1.3,0-2.5-0.1-3.8-0.1c-0.4-0.7-0.9-1.4-1.3-2.1c-1.2-2-2.3-4.1-3.1-6.4&#10;&#9;&#9;&#9;c1.9,1.5,3.6,3.2,5.2,4.9C209.8,259.9,210.8,261.1,211.8,262.4z" id="el_hsjs86ndLRf"/>
		<path d="M220.2,276.4c-1.9-1.5-3.6-3.2-5.2-4.9c-1.6-1.7-3.1-3.6-4.4-5.5c-0.9-1.2-1.7-2.5-2.6-3.7&#10;&#9;&#9;&#9;c1.3,0,2.5,0.1,3.8,0.1c0.4,0.6,0.9,1.1,1.3,1.7c1.4,1.9,2.7,3.8,3.9,5.9C218.2,272,219.3,274.1,220.2,276.4z" id="el_n7q0lX01kUC"/>
		<path d="M226.6,253c-0.8-2.3-1.7-4.6-2.9-6.8c-0.1,2.5,0.1,5,0.4,7.4c0.3,2.4,0.8,4.8,1.3,7.2&#10;&#9;&#9;&#9;c0.2,0.7,0.4,1.5,0.6,2.2c1.1,0.1,2.1,0.1,3.2,0.2c-0.2-1-0.4-2.1-0.6-3.1C228,257.7,227.4,255.3,226.6,253z" id="el_UJqyLz-CqPn"/>
		<path d="M227.5,267.8c0.8,2.3,1.7,4.6,2.9,6.8c0.1-2.5-0.1-5-0.4-7.4c-0.2-1.4-0.4-2.7-0.7-4.1&#10;&#9;&#9;&#9;c-1.1-0.1-2.1-0.1-3.2-0.2C226.4,264.6,226.9,266.2,227.5,267.8z" id="el_ehJwe7nuOTA"/>
		<path d="M205.7,336.1v1.4l0,0c0,0-2.2,0.8-4.1-1.7c0,0-1.1-1.9,1.5-1.8C203,333.9,204.6,334.3,205.7,336.1z" id="el_udEVf4R7740"/>
		<path d="M205.7,336.2c0,0,0-0.1-0.1-0.1v1.4C206.2,337.1,205.7,336.2,205.7,336.2z" id="el_vqSMyv5c8ea"/>
		<path d="M205.7,377.7c0,0,0-0.1-0.1-0.1v1.4C206.2,378.6,205.7,377.7,205.7,377.7z" id="el_br-OzTGCvNx"/>
		<path d="M230.6,281.7c-7.4,0.7-14.3,3.3-19.1,7.2c-4,3.3-6.1,7.2-5.9,11.1c0,0.2,0,0.3,0,0.5V322v39.5v16v1.4v40.2&#10;&#9;&#9;&#9;v1.4v40.2v1.4v52.8v1.5c0,0,2.6,1.2,7.1,2.4v-3.3V362.3v-47.5l5.1-5.3l5-5.1l21.2-21.7C240,281.7,235.4,281.3,230.6,281.7z" id="el_DXSLT9czpJZ"/>
		<rect x="190.2" y="296.3" width="5.9" height="3.7" id="el_NhXLjBgoRSJ"/>
		<path d="M191.3,271.9c0,0,0,2.2-2.2,0.8c0,0-1.3-1.1-1.2-3.3c0,0,0.1-1,0.7-1C188.6,268.4,190.9,268.8,191.3,271.9z" id="el_JtI47j0KweW"/>
		<path d="M247.4,267.8c0,0,0,2.2-2.2,0.8c0,0-1.3-1.1-1.2-3.3c0,0,0.1-1,0.7-1C244.7,264.2,247,264.7,247.4,267.8z" id="el_shaay4LUwO_"/>
	</g>
	<polygon points="285.4,240.5 285.4,470.1 212.8,530.9 212.8,314.8 &#9;" id="el_n9Z7UY7E9_A"/>
	<polygon points="228.5,303.4 230,502.2 212.8,518.8 212.8,314.8 227.5,298.3 &#9;" id="el_A55Kkf7BSIo"/>
	<polygon points="244.1,282.7 244.1,487.8 212.8,518.8 205.7,516.3 205.7,300 &#9;" id="el_ySHHRHkYqI1"/>
</g>
<g id="el_JJDHtnqcbgJ">
	<path d="M173.7,340.8L173.7,340.8L173.7,340.8L173.7,340.8z" id="el_uI0jovUUhTB"/>
	<path d="M173.7,340.8L173.7,340.8L173.7,340.8z" id="el_qJ0pVM4hiHU"/>
	<path d="M173.7,340.8L173.7,340.8L173.7,340.8z" id="el_C67XlmauNr9"/>
	<path d="M174.6,337.2c0.3-1.1,0.5-2.1,0.8-3.1l0,0C175.1,335.1,174.8,336.2,174.6,337.2L174.6,337.2z" id="el_hmb9oAFcqFX"/>
	<path d="M125.1,298.2c-2.1,3.4-4,7.2-5.9,11.2C121,305.4,123,301.6,125.1,298.2L125.1,298.2z" id="el_U9LgTVb4jHc"/>
	<path d="M163.8,525l3.7-156.6C156.9,420.6,150.8,480.2,163.8,525z" id="el_LEM-Qw_XB2T"/>
	<path d="M99,411.4c-3.1-27.1,5.8-71.5,20.2-102.1C104.7,339.9,95.8,384.4,99,411.4c8,70.3,35.1,105.5,64.6,122.5v-0.1&#10;&#9;&#9;C134,516.7,107,481.5,99,411.4z" id="el_ZhtL-ECLJbK"/>
	<path d="M163.6,533.9c1.3,0.7,2.6,1.4,3.8,2.1v-0.1C166.1,535.2,164.8,534.5,163.6,533.9L163.6,533.9z" id="el_FN47FRABriE"/>
	<path d="M167.5,368.5c-26.2-9.9-44.1-27.7-45.9-49.4c-0.6-7.2,0.7-14.2,3.4-20.9c-2.1,3.4-4,7.1-5.9,11.1&#10;&#9;&#9;c-14.4,30.5-23.3,75-20.2,102.1c8,70.1,35.1,105.4,64.6,122.4c1.3,0.7,2.5,1.4,3.8,2.1c-1.3-3.5-2.5-7.1-3.6-10.8&#10;&#9;&#9;C150.8,480.2,156.9,420.6,167.5,368.5z" id="el_JfGO8D5V3YC"/>
	<path d="M141.1,279.6l-2.9-0.9c-5.8,6-10.3,12.5-13.2,19.4C130,289.9,135.4,283.4,141.1,279.6z" id="el_4Rz-CeutJPu"/>
	<path d="M141.2,279.7L141.2,279.7c-5.7,3.8-11.1,10.2-16.1,18.5c0,0,0,0,0,0.1C130,289.9,135.5,283.4,141.2,279.7z" id="el_zycabxeD-5A"/>
	<path d="M186.8,348.8v-0.1l-1.5,1.6C186.4,349.7,186.8,348.8,186.8,348.8z" id="el_zqDvL0KYuMD"/>
	<path d="M185.5,347c-2.7,1.2-2.5,3.3-2.5,3.3c0.1,0.6,1.1,0.4,1.1,0.4c0.5-0.1,0.8-0.3,1.2-0.5l1.5-1.6&#10;&#9;&#9;C187.5,346.5,185.5,347,185.5,347z" id="el_u3FUcxW7Xu6"/>
	<path d="M188.4,332.2c2.1-0.7,2.7-2.3,2.7-2.3c0.6-2.7-1.6-1.9-1.6-1.9c-2.9,1.5-2.4,3.9-2.4,3.9&#10;&#9;&#9;C187.3,332.5,188.4,332.2,188.4,332.2z" id="el_NrwagfAlMxl"/>
	<path d="M188.2,295.9c-0.1,2.2,1.2,3.4,1.2,3.4c2.3,1.5,2.3-0.8,2.3-0.8c-0.3-2-1.3-2.9-2-3.4l1.6,0.5l-3.1-1l0.6,0.2&#10;&#9;&#9;C188.3,295,188.2,295.9,188.2,295.9z" id="el_mV9RmoXpqor"/>
	<path d="M189.1,299.3c3.2,1.9,3.5-0.6,3.5-0.6c-0.1-1.4-0.6-2.4-1.3-3.1l-1.6-0.5c0.7,0.4,1.7,1.3,2,3.4&#10;&#9;&#9;c0,0,0,2.3-2.3,0.8c0,0-1.3-1.2-1.2-3.4c0,0,0.1-0.9,0.6-1l-0.6-0.2c-0.3,0.3-0.5,0.8-0.5,0.8C187.3,297.9,189.1,299.3,189.1,299.3&#10;&#9;&#9;z" id="el_47WtINrswX8"/>
	<path d="M180.1,324.8c0.6-2.7-1.6-1.9-1.6-1.9c-0.1,0.1-0.2,0.2-0.4,0.2c-2.4,1.5-2.1,3.6-2.1,3.6c0.1,0.4,0.7,0.4,1,0.4&#10;&#9;&#9;c0.1,0,0.3,0,0.3,0C179.5,326.4,180.1,324.8,180.1,324.8z" id="el_Qw2LcYfcHka"/>
	<path d="M173.7,340.8L173.7,340.8L173.7,340.8z" id="el_OELha6u5jVk"/>
	<path d="M182.4,308c0.1-0.1,0.2-0.1,0.2-0.2c-0.4,0.1-0.8,0.1-1.1,0.2C181.8,308.2,182.1,308.2,182.4,308z" id="el__0hNodEoPGC"/>
	<path d="M179.4,304.5c0,0.2,0,0.4,0,0.6c0.1,0,0.2,0,0.3,0C179.6,304.9,179.5,304.7,179.4,304.5z" id="el_-CBSewAJ75O"/>
	<path d="M166.8,293.9c-0.1-1.6-0.7-2.5-1.2-3c-0.5-0.4-1-0.6-1-0.6c-0.1,0-0.1,0-0.2,0c-0.4,0.2-0.6,0.9-0.6,0.9&#10;&#9;&#9;c-0.3,2,0.8,3.2,0.8,3.2C166.6,296,166.8,293.9,166.8,293.9z" id="el_Z5f3WdmQA8G"/>
	<path d="M161.9,301.3c2.3,1.5,2.3-0.8,2.3-0.8c-0.4-3.2-2.7-3.7-2.7-3.7c-0.6,0-0.8,1.1-0.8,1.1&#10;&#9;&#9;C160.6,300.1,161.9,301.3,161.9,301.3z" id="el_ufbHLLKPNg6"/>
	<path d="M170.6,292.9c2.3,1.5,2.3-0.8,2.3-0.8c-0.2-1.4-0.7-2.2-1.2-2.8l0.6,0.2l-2.6-0.8c-0.2,0.3-0.3,0.8-0.3,0.8&#10;&#9;&#9;C169.3,291.8,170.6,292.9,170.6,292.9z" id="el_2x2Kkq8xrMP"/>
	<path d="M170.3,293.4c0.8,0.5,1.4,0.7,1.9,0.7l-2.3-1.1C170.1,293.2,170.3,293.4,170.3,293.4z" id="el_D9IRLm1rpqo"/>
	<path d="M169.9,293l2.3,1.1c1.3,0,1.5-1.3,1.5-1.3c-0.1-1.5-0.7-2.5-1.4-3.2l-0.6-0.2c0.5,0.5,1.1,1.4,1.2,2.8&#10;&#9;&#9;c0,0,0,2.3-2.3,0.8c0,0-1.3-1.2-1.2-3.4c0,0,0.1-0.5,0.3-0.8l-0.2-0.1c-0.4,0.3-0.5,0.8-0.5,0.8C168.7,291.2,169.5,292.4,169.9,293&#10;&#9;&#9;z" id="el_EyPPhaHbCDn"/>
	<path d="M169.7,288.7h-0.2H169.7z" id="el_qVKP7N8Z0zC"/>
	<path d="M125.1,298.2c-2.8,6.7-4,13.8-3.4,20.9c1.8,21.6,19.7,39.5,45.9,49.4l17.8-18.2c-0.3,0.2-0.7,0.3-1.2,0.5&#10;&#9;&#9;c0,0-1,0.2-1.1-0.4c0,0-0.2-2.2,2.5-3.3c0,0,1.9-0.5,1.3,1.7l22.6-23.2c-1.4-0.5-2.7-1-3.9-1.7c-0.1-0.1-0.2-0.1-0.3-0.2&#10;&#9;&#9;c-0.8,1.1-1.7,2.2-2.5,3.3c-1.5,1.8-3.1,3.5-4.7,5.2c-1.6,1.7-3.4,3.2-5.2,4.7s-3.7,2.9-5.7,4.2c1.2-2.1,2.7-3.9,4.2-5.7&#10;&#9;&#9;c1.5-1.8,3.1-3.5,4.7-5.2c1.7-1.7,3.4-3.2,5.2-4.7c1-0.8,2-1.6,3-2.4c-3.2-2-5.4-4.4-6.5-7.2c-0.8,0.4-1.6,0.8-2.4,1.2&#10;&#9;&#9;c-2.1,1-4.3,1.8-6.5,2.6c-2.2,0.7-4.5,1.4-6.8,1.9s-4.6,0.9-7.1,1c2-1.4,4.1-2.5,6.2-3.5c2.1-1,4.3-1.8,6.5-2.6&#10;&#9;&#9;c2.2-0.7,4.5-1.4,6.8-1.9c0.9-0.2,1.8-0.4,2.7-0.5c-0.1-0.4-0.1-0.7-0.2-1.1c-0.3-4.1,1.9-8.3,6.2-11.8c0.5-0.4,1.1-0.8,1.7-1.2&#10;&#9;&#9;l-13.5-4.3c0.7,0.7,1.2,1.6,1.3,3.1c0,0-0.3,2.6-3.5,0.6c0,0-1.8-1.4-1.3-3.9c0,0,0.1-0.5,0.5-0.8l-1.8-0.6l-14.2-4.5&#10;&#9;&#9;c0.7,0.6,1.4,1.6,1.4,3.2c0,0-0.2,1.4-1.5,1.3c-0.5,0-1.1-0.2-1.9-0.7c0,0-0.2-0.1-0.4-0.4c-0.5-0.6-1.2-1.8-0.9-3.4&#10;&#9;&#9;c0,0,0.1-0.5,0.5-0.8l-6.1-1.9l-17.6-5.6l-4.7-1.5C135.5,283.4,130,289.9,125.1,298.2z M189.5,328c0,0,2.1-0.8,1.6,1.9&#10;&#9;&#9;c0,0-0.6,1.6-2.7,2.3c0,0-1,0.3-1.3-0.3C187.1,331.9,186.7,329.6,189.5,328z M169.2,331.7c0,0-1.5,0.9-3.6,0.2c0,0-1-0.4-0.8-1&#10;&#9;&#9;c0,0,1.1-2.1,4.3-1.6C169.1,329.2,171.3,329.9,169.2,331.7z M169.2,317.6c0,0-1.5,0.9-3.6,0.2c0,0-1-0.4-0.8-1c0,0,1.1-2.1,4.3-1.6&#10;&#9;&#9;C169.1,315.1,171.3,315.8,169.2,317.6z M179.2,337.7c0,0-0.5,1-1.1,0.7c0,0-2-1.2-1.3-4.4c0,0,0.8-2.1,2.4,0.1&#10;&#9;&#9;C179.3,334.1,180.1,335.6,179.2,337.7z M175.4,334.1c0.6-2.3,1.2-4.7,1.8-6.9c-0.3,0-0.9,0.1-1-0.4c0,0-0.4-2.1,2.1-3.6&#10;&#9;&#9;c0.1-0.1,0.2-0.2,0.4-0.2c0,0,2.1-0.8,1.6,1.9c0,0-0.6,1.6-2.7,2.3c0,0-0.1,0-0.3,0C176.5,329.4,176,331.8,175.4,334.1L175.4,334.1&#10;&#9;&#9;c-0.3,1-0.5,2.1-0.8,3.1l0,0c-0.3,1.2-0.6,2.4-0.9,3.5l0,0c-0.8,3.3-1.6,6.5-2.3,9.9c0.8-3.3,1.5-6.6,2.3-9.9l0,0l0,0l0,0l0,0&#10;&#9;&#9;c0.3-1.2,0.6-2.4,0.9-3.5C174.8,336.2,175.1,335.1,175.4,334.1z M187.6,315.4c0,0-1,1.4-3.2,1.5c0,0-1.1,0-1.1-0.6&#10;&#9;&#9;c0,0,0.2-2.4,3.4-3.1C186.6,313.2,188.8,312.9,187.6,315.4z M163.8,291.2c0,0,0.1-0.7,0.6-0.9c0.1,0,0.1,0,0.2,0c0,0,0.5,0.1,1,0.6&#10;&#9;&#9;c0.6,0.5,1.2,1.4,1.2,3c0,0-0.2,2.1-2.2,0.5C164.7,294.4,163.6,293.2,163.8,291.2z M161.4,296.9c0,0,2.3,0.5,2.7,3.7&#10;&#9;&#9;c0,0,0,2.3-2.3,0.8c0,0-1.3-1.2-1.2-3.4C160.7,297.9,160.8,296.8,161.4,296.9z M167.7,307.2L167.7,307.2c0,0,0.4-0.2,0.8-0.2&#10;&#9;&#9;c0.1,0,0.3-0.1,0.4-0.1c3.1-0.7,6.2-1.3,9.4-1.7c0.4-0.1,0.8-0.1,1.2-0.2c0-0.2,0-0.4,0-0.6c-0.1-0.3-0.2-0.6-0.3-0.9&#10;&#9;&#9;c0,0-0.2-1.1,0.5-1.2c0,0,2-0.1,3.3,2.3c1.6-0.2,3.2-0.3,4.9-0.4c3.2-0.2,6.4-0.3,9.6-0.1c-3,1.1-6.1,1.9-9.2,2.6&#10;&#9;&#9;c-1.8,0.4-3.7,0.8-5.5,1.1c-0.1,0.1-0.1,0.1-0.2,0.2c-0.2,0.1-0.5,0.1-0.9,0c-0.9,0.2-1.8,0.3-2.7,0.4c-3.1,0.5-6.3,0.8-9.5,1h-0.1&#10;&#9;&#9;c-0.3,0.6-1,1.4-2.3,2c0,0-1,0.4-1.3-0.2c0,0-0.2-0.7,0.1-1.6c-2,0.1-4,0.1-6-0.1C162.3,308.6,165,307.9,167.7,307.2z" id="el_lo3HNzia0Ip"/>
	<path d="M171.4,350.7c0.8-3.3,1.5-6.6,2.3-9.9l0,0C172.9,344,172.1,347.3,171.4,350.7z" id="el_q_c7UGpgcJZ"/>
	<path d="M180.6,307.6c0.3,0.2,0.6,0.3,0.8,0.4c0.4-0.1,0.8-0.1,1.1-0.2c0.3-0.4,0.3-1,0.3-1c0-0.1,0-0.2-0.1-0.3&#10;&#9;&#9;c-0.3,0.2-0.8,0.3-1.7,0c0,0-0.8-0.4-1.4-1.5c-0.1,0-0.2,0-0.3,0C179.7,306.8,180.6,307.6,180.6,307.6z" id="el_jaBlqNSCwYs"/>
	<path d="M182.9,306.5c0,0.1,0.1,0.2,0.1,0.3c0,0,0,0.6-0.3,1c1.9-0.3,3.7-0.7,5.5-1.1c3.1-0.7,6.2-1.5,9.2-2.6&#10;&#9;&#9;c-3.2-0.2-6.4-0.1-9.6,0.1c-1.6,0.1-3.2,0.3-4.9,0.4c0.1,0.2,0.2,0.3,0.3,0.6C183.2,305.2,183.4,306.1,182.9,306.5z" id="el_5Za2_dlPDgS"/>
	<path d="M165.7,309.7c0.2-0.8,0.8-1.6,2-2.4c-2.7,0.6-5.4,1.4-8,2.4C161.7,309.7,163.7,309.7,165.7,309.7z" id="el_IonpXpupH4f"/>
	<path d="M169.4,309c0,0-0.1,0.2-0.3,0.5h0.1c3.2-0.2,6.3-0.6,9.5-1c0.9-0.1,1.8-0.3,2.7-0.4c-0.2-0.1-0.5-0.2-0.8-0.4&#10;&#9;&#9;c0,0-1-0.9-1.2-2.6c-0.4,0.1-0.8,0.1-1.2,0.2c-3.1,0.5-6.3,1-9.4,1.7c-0.1,0-0.3,0.1-0.4,0.1C169,307.1,169.7,307.4,169.4,309z" id="el_lyzKtkFr31J"/>
	<path d="M201.5,313.6c-1.5,0.1-2.9,0.2-4.4,0.5c0.1,0.6,0.3,1.2,0.5,1.8C198.9,315.2,200.2,314.4,201.5,313.6z" id="el_3pg2np2SSPr"/>
	<path d="M187.7,316.5c-2.2,0.7-4.4,1.6-6.5,2.6s-4.2,2.1-6.2,3.5c2.4-0.1,4.8-0.5,7.1-1s4.6-1.2,6.8-1.9&#10;&#9;&#9;c2.2-0.8,4.4-1.6,6.5-2.6c0.8-0.4,1.6-0.8,2.4-1.2c-0.2-0.6-0.4-1.2-0.5-1.8c-0.9,0.2-1.8,0.3-2.7,0.5&#10;&#9;&#9;C192.1,315.1,189.9,315.7,187.7,316.5z" id="el_kBzkJZRUr9Z"/>
	<path d="M206.8,321.2c-0.9,0.6-1.8,1.2-2.7,1.8c0.3,0.2,0.7,0.4,1.1,0.6C205.8,322.9,206.3,322.1,206.8,321.2z" id="el_vTF77TiLwwt"/>
	<path d="M195.9,330.1c-1.7,1.6-3.2,3.4-4.7,5.2c-1.5,1.8-2.9,3.7-4.2,5.7c2.1-1.2,3.9-2.7,5.7-4.2s3.5-3.1,5.2-4.7&#10;&#9;&#9;c1.7-1.7,3.2-3.4,4.7-5.2c0.9-1.1,1.7-2.2,2.5-3.3c-0.4-0.2-0.7-0.4-1.1-0.6c-1,0.8-2,1.5-3,2.4&#10;&#9;&#9;C199.3,326.9,197.6,328.5,195.9,330.1z" id="el_OwZkmYwWelz"/>
	<path d="M165.6,311.3c0.3,0.6,1.3,0.2,1.3,0.2c1.3-0.5,2-1.4,2.3-2c-1.2,0.1-2.3,0.1-3.5,0.2&#10;&#9;&#9;C165.4,310.6,165.6,311.3,165.6,311.3z" id="el_1nmSM_7GH67"/>
	<path d="M167.7,307.2L167.7,307.2c0.2,0,0.5-0.1,0.8-0.2C168.1,307.1,167.7,307.2,167.7,307.2z" id="el_kFrP_P8h4lW"/>
	<path d="M165.7,309.7c1.2,0,2.3-0.1,3.5-0.2c0.2-0.3,0.3-0.5,0.3-0.5c0.2-1.6-0.4-1.9-0.9-1.9&#10;&#9;&#9;c-0.3,0.1-0.5,0.1-0.8,0.2C166.5,308,165.9,308.9,165.7,309.7z" id="el_PlcXcYL5jnX"/>
	<path d="M169.1,329.2c-3.2-0.5-4.3,1.6-4.3,1.6c-0.2,0.6,0.8,1,0.8,1c2.1,0.7,3.6-0.2,3.6-0.2&#10;&#9;&#9;C171.3,329.9,169.1,329.2,169.1,329.2z" id="el_NSrznL-_MK1"/>
	<path d="M169.1,315.1c-3.2-0.5-4.3,1.6-4.3,1.6c-0.2,0.6,0.8,1,0.8,1c2.1,0.7,3.6-0.2,3.6-0.2&#10;&#9;&#9;C171.3,315.8,169.1,315.1,169.1,315.1z" id="el_XVbLHJ0q1j0"/>
	<path d="M182.2,304.7c-0.8-1.3-2-1.5-2-1.5c-0.6,0-0.8,1.1-0.8,1.1c0,0.1,0,0.1,0,0.2c0.1,0.2,0.2,0.4,0.3,0.6&#10;&#9;&#9;C180.5,304.9,181.4,304.8,182.2,304.7z" id="el_3wysNVwRFMK"/>
	<path d="M180.2,303.2c0,0,1.2,0.2,2,1.5c0.2,0,0.5-0.1,0.7-0.1c-1.2-2.4-3.3-2.3-3.3-2.3c-0.6,0.1-0.5,1.2-0.5,1.2&#10;&#9;&#9;c0.1,0.3,0.2,0.6,0.3,0.9c0-0.1,0-0.1,0-0.2C179.4,304.2,179.6,303.2,180.2,303.2z" id="el_aywnxcKC1RX"/>
	<path d="M182.2,304.7c-0.8,0.1-1.6,0.2-2.5,0.3c0.6,1.1,1.4,1.5,1.4,1.5c0.9,0.3,1.4,0.2,1.7,0v-0.1&#10;&#9;&#9;C182.7,305.7,182.5,305.2,182.2,304.7z" id="el_Hry4Fq-yYrT"/>
	<path d="M182.8,306.4v0.1c0.5-0.4,0.3-1.3,0.3-1.3c-0.1-0.2-0.2-0.4-0.3-0.6c-0.2,0-0.5,0.1-0.7,0.1&#10;&#9;&#9;C182.5,305.2,182.7,305.7,182.8,306.4z" id="el__GJMMxEC854"/>
	<path d="M186.6,313.2c-3.2,0.7-3.4,3.1-3.4,3.1c0,0.6,1.1,0.6,1.1,0.6c2.2-0.1,3.2-1.5,3.2-1.5&#10;&#9;&#9;C188.8,312.9,186.6,313.2,186.6,313.2z" id="el_B7pPkWz3JE7"/>
	<path d="M176.8,334c-0.7,3.2,1.3,4.4,1.3,4.4c0.6,0.2,1.1-0.7,1.1-0.7c0.9-2.1,0-3.6,0-3.6&#10;&#9;&#9;C177.6,331.9,176.8,334,176.8,334z" id="el_7sIL0pME-Th"/>
	<path d="M227.5,307.2v176.5c0,1.6-0.5,3.1-1.4,4.3c-5.7,8.2-28.9,39.2-59.9,47.9c0,0-22.1-60.8,0.1-167.4L227.5,307.2z&#10;&#9;&#9;" id="el_GeuBVZHVs_T"/>
	<path d="M204.8,299.9c-0.6,0.4-1.1,0.8-1.7,1.2c-4.3,3.5-6.5,7.7-6.2,11.8c0,0.4,0.1,0.7,0.2,1.1&#10;&#9;&#9;c1.4-0.2,2.9-0.4,4.4-0.5c-1.3,0.9-2.5,1.6-3.9,2.3c1.1,2.7,3.3,5.2,6.5,7.2c0.9-0.6,1.8-1.3,2.7-1.8c-0.5,0.9-1.1,1.7-1.6,2.5&#10;&#9;&#9;c0.1,0.1,0.2,0.1,0.3,0.2c1.2,0.7,2.6,1.2,3.9,1.7V495c0,0,7.3-0.7,18-15.9v-172L204.8,299.9z" id="el_IIWChgE5MgC"/>
	<g id="el_NbBK_GHK35C">
		<g id="el_bP6UzIFiJI4">
			<path d="M211.4,333.9c0.2,6.8,0.2,13.7,0.3,20.5l0.2,20.5l0.2,41l-0.2,41l-0.2,20.5c-0.1,6.8-0.2,13.7-0.3,20.5&#10;&#9;&#9;&#9;&#9;c-0.2-6.8-0.2-13.7-0.3-20.5l-0.2-20.5l-0.2-41l0.2-41l0.2-20.5C211.2,347.5,211.2,340.7,211.4,333.9z" id="el_NwabbX9MUUc"/>
		</g>
		<g id="el_Lx3OjODh11s">
			<path d="M214.6,328.6c0.2,6.8,0.2,13.7,0.3,20.5l0.2,20.5l0.2,41l-0.2,41l-0.2,20.5c-0.1,6.8-0.2,13.7-0.3,20.5&#10;&#9;&#9;&#9;&#9;c-0.2-6.8-0.2-13.7-0.3-20.5l-0.2-20.5l-0.2-41l0.2-41l0.2-20.5C214.4,342.3,214.5,335.4,214.6,328.6z" id="el_zTDXPQjEHT6"/>
		</g>
		<g id="el_m0l0HWN6Wqp">
			<path d="M217.8,323.3c0.2,6.8,0.2,13.7,0.3,20.5l0.2,20.5l0.2,41l-0.2,41l-0.2,20.5c-0.1,6.8-0.2,13.7-0.3,20.5&#10;&#9;&#9;&#9;&#9;c-0.2-6.8-0.2-13.7-0.3-20.5l-0.2-20.5l-0.2-41l0.2-41l0.2-20.5C217.6,337,217.7,330.2,217.8,323.3z" id="el_x5z2IP8GSlC"/>
		</g>
		<g id="el_4MK-8PTlelM">
			<path d="M221.1,318c0.2,6.8,0.2,13.7,0.3,20.5l0.2,20.5l0.2,41l-0.2,41l-0.2,20.5c-0.1,6.8-0.2,13.7-0.3,20.5&#10;&#9;&#9;&#9;&#9;c-0.2-6.8-0.2-13.7-0.3-20.5l-0.2-20.5l-0.2-41l0.2-41l0.2-20.5C220.8,331.7,220.9,324.9,221.1,318z" id="el_eGMNnaqBH2n"/>
		</g>
		<g id="el_DCDUDkMlaNw">
			<path d="M224.3,312.8c0.2,6.8,0.2,13.7,0.3,20.5l0.2,20.5l0.2,41l-0.2,41l-0.2,20.5c-0.1,6.8-0.2,13.7-0.3,20.5&#10;&#9;&#9;&#9;&#9;c-0.2-6.8-0.2-13.7-0.3-20.5l-0.2-20.5l-0.2-41l0.2-41l0.2-20.5C224.1,326.5,224.1,319.6,224.3,312.8z" id="el_1f4_Zd0Pvyf"/>
		</g>
	</g>
</g>
<g id="el_htlM90RpBNW_an_8k86Kc1H5" data-animator-group="true" data-animator-type="0"><g id="el_htlM90RpBNW">
	<polygon points="258.5,182.2 40,474.1 252.1,173.3 &#9;" id="el_I5PyAeyWbkw"/>
	<path d="M262,227.2c0,0-149.8,226.3-222,246.9l218.5-291.9L262,227.2z" id="el_ta8TNPPb-Di"/>
	<path d="M349.5,38c0,0,42.1-42.9,49.6-2.1c0,0-5.4,26.5-23.5,26.3C357.5,62,257.5,183.7,257.5,183.7l-5.4-10.5&#10;&#9;&#9;L349.5,38z" id="el_akryJihnJqq"/>
	<path d="M260,200.5l-2.5-16.7c0,0,99.5-121,107.3-120.3c7.8,0.7,30.8-11.3,33.1-30.5c0,0,10.1,23.3-9.8,31.5&#10;&#9;&#9;C368.1,72.6,260,200.5,260,200.5z" id="el_3OKNape2aBw"/>
</g></g>
<g id="el_cgkExqQqO0o">
	<rect x="215.1" y="319.9" width="34.8" height="213.8" id="el_-OfrChML54j"/>
	<rect x="249.9" y="324.2" width="26.8" height="195.4" id="el_cg_UqNFoG7k"/>
	<path d="M271.5,535.4c0,0-0.4,0.1-1.1,0.4c0.8-0.4,1.1-0.6,1.1-0.6l59-47.4c23.2-44.6-8.8-154.1-8.8-154.1l-0.5-0.1&#10;&#9;&#9;c11.4-12,17.4-26.1,16.1-40.5c-0.5-5.5-2.1-10.8-4.6-15.8C341.6,289.6,443.1,436.8,271.5,535.4z" id="el_xK4RnFQ17qh"/>
	<path d="M337.4,293.1c-0.5-5.5-2.1-10.8-4.6-15.8c-7.4-14.7-23-26.5-43.3-33.5l-5.4,5.6l-19.5,19.9l-17.4,17.8&#10;&#9;&#9;c2.2,0.6,4.3,1.3,6.2,2.3c5.2,2.7,8.3,6.5,8.7,10.8c0.4,4.1-1.8,8.3-6.1,11.9c-1.6,1.4-3.6,2.5-5.7,3.6l12.5,3.2l14.3,3.6&#10;&#9;&#9;c0-0.2,0-0.5,0.2-0.6c0,0,1.9-0.8,3.8,1.4c0,0,0.1,0.1,0.1,0.3l19,4.8l13.1,3.3l7.9,2C332.6,321.6,338.7,307.6,337.4,293.1z&#10;&#9;&#9; M276.5,278.5c0,0,1.3-1.7,4-0.6c0,0,1.8,1-0.3,2.1c0,0-1.4,0.5-3.1-0.5C277,279.6,276.2,279,276.5,278.5z M261.6,290.3&#10;&#9;&#9;c2-1.3,4.1-2.3,6.3-3.3c2.1-1,4.3-1.8,6.5-2.7c2.2-0.8,4.4-1.5,6.7-2.2c2.3-0.6,4.5-1.2,6.9-1.5c-2,1.3-4.1,2.3-6.3,3.3&#10;&#9;&#9;c-2.1,1-4.3,1.8-6.5,2.7c-2.2,0.8-4.4,1.5-6.7,2.2C266.3,289.4,264,290,261.6,290.3z M278.1,292.3c0,0-1.4,0.5-3.1-0.5&#10;&#9;&#9;c0,0-0.8-0.5-0.5-1c0,0,1.3-1.7,4-0.6C278.5,290.1,280.3,291.1,278.1,292.3z M282.8,320.4c-2.2-0.8-4.3-1.8-6.5-2.8&#10;&#9;&#9;c-1.9-0.9-3.8-1.9-5.7-2.9c-0.5,0-1.3-0.2-2.1-0.7c0,0-0.4-0.3-0.5-0.7c-1.4-0.8-2.7-1.6-4-2.5c1.7,0.5,3.3,1,4.9,1.7&#10;&#9;&#9;c0.6-0.2,1.6-0.4,2.8,0.3c0,0,0.7,0.5,0.6,1.1c1.6,0.7,3.2,1.4,4.8,2.1c2.1,1,4.2,2,6.3,3.1c2.1,1.1,4.1,2.3,6.1,3.6&#10;&#9;&#9;C287.2,322.1,285,321.3,282.8,320.4z M268.9,307.9c0,0,1.3-1.6,4-0.6c0,0,1.8,1-0.3,2.1c0,0-1.4,0.5-3.1-0.5&#10;&#9;&#9;C269.4,308.9,268.6,308.4,268.9,307.9z M297.5,301.1c-1.3,0-2.6,0-3.9,0c-3.3-0.1-6.6-0.3-9.9-0.6c-3.3-0.3-6.6-0.8-9.8-1.3&#10;&#9;&#9;c-1.7-0.3-3.3-0.6-5-1c-0.2,0.2-0.4,0.3-0.7,0.5c0,0-1.4,0.4-2.8-0.7c0,0-0.5-0.4-0.5-0.8c-0.2-0.1-0.5-0.1-0.7-0.2&#10;&#9;&#9;c0.3,0,0.6-0.1,0.9-0.1c0.4-0.3,1.5-1,3.3-0.2c1.9-0.1,3.8-0.1,5.7,0c2.8,0.1,5.5,0.2,8.2,0.5c-0.2-0.1-0.4-0.2-0.6-0.3&#10;&#9;&#9;c0,0-0.8-0.5-0.5-1c0,0,1.3-1.6,4-0.6c0,0,1.8,1-0.3,2.1c0,0,0,0-0.1,0c3,0.3,6,0.7,9,1.2c1.1,0.2,2.2,0.4,3.3,0.6&#10;&#9;&#9;c2.1,0.4,4.3,0.9,6.4,1.6C301.6,300.9,299.5,301,297.5,301.1z" id="el_yzxuD9UfocT"/>
	<path d="M288.1,307.6c0,0-1.4,0.5-3.1-0.5c0,0-0.8-0.5-0.5-1c0,0,1.3-1.7,4-0.6C288.4,305.5,290.2,306.4,288.1,307.6z" id="el_Ywjw9W1t-SE"/>
	<path d="M281.3,323.4l-4.1-1c0-0.2,0-0.5,0.2-0.6c0,0,1.9-0.8,3.8,1.4C281.1,323.2,281.2,323.3,281.3,323.4z" id="el_VtgDhDyiivk"/>
	<path d="M280.2,280c0,0-1.4,0.5-3.1-0.5c0,0-0.8-0.5-0.5-1c0,0,1.3-1.7,4-0.6C280.5,277.9,282.3,278.9,280.2,280z" id="el_za19de74El2"/>
	<path d="M285,297.2L285,297.2c-0.4,0-0.6,0-0.9-0.1c-0.6-0.1-1.1-0.1-1.7-0.1c-0.2-0.1-0.4-0.2-0.6-0.3&#10;&#9;&#9;c0,0-0.8-0.5-0.5-1c0,0,1.3-1.6,4-0.6C285.3,295.1,287.1,296.1,285,297.2z" id="el_VADZHWeSfQW"/>
	<path d="M272.5,309.4c0,0-1.4,0.5-3.1-0.5c0,0-0.8-0.5-0.5-1c0,0,1.3-1.6,4-0.6C272.8,307.2,274.6,308.2,272.5,309.4z" id="el_UO8xFIg0FAz"/>
	<path d="M278.1,292.3c0,0-1.4,0.5-3.1-0.5c0,0-0.8-0.5-0.5-1c0,0,1.3-1.7,4-0.6C278.5,290.1,280.3,291.1,278.1,292.3z" id="el_pDBHHHwe4SV"/>
	<path d="M270.6,314.7c-0.5,0-1.3-0.2-2.1-0.7c0,0-0.4-0.3-0.5-0.7c0.7,0.4,1.3,0.8,2,1.1&#10;&#9;&#9;C270.2,314.6,270.4,314.7,270.6,314.7z" id="el_Uo202d7EGX-"/>
	<path d="M272.3,313.8c-0.6-0.2-1.1-0.5-1.6-0.7c-0.6-0.2-1.2-0.4-1.8-0.7c0.6-0.2,1.6-0.4,2.8,0.3&#10;&#9;&#9;C271.8,312.8,272.5,313.2,272.3,313.8z" id="el_jQ66pa03VZl"/>
	<path d="M321.7,333.7l-0.5-0.1l-7.9-2l-13.1-3.3l-19-4.8c0.2,0.5,0.4,1.5-1.4,1.5c0,0-1.5-0.2-2.5-1.9&#10;&#9;&#9;c0,0-0.1-0.3-0.2-0.6l-14.3-3.6l-12.5-3.2c-0.2,0.1-0.3,0.2-0.5,0.3l-0.1,44.3v7.1l-0.5,162c-14.6,3.5-26.8,1.7-34.1-0.2v12.4&#10;&#9;&#9;c28.9,5.8,50.2-3.2,55.3-5.7c0.8-0.4,1.1-0.6,1.1-0.6l59-47.4C353.7,443.3,321.7,333.7,321.7,333.7z M264.6,336.7&#10;&#9;&#9;c0,0,1.5,0.9,1.9,3.1c0,0,0.1,1.1-0.5,1.2c-0.1,0-2.4,0-3.4-3C262.5,338,262.1,335.7,264.6,336.7z M263.9,480.8&#10;&#9;&#9;c-2,2.6-4.2,1.7-4.2,1.7c-0.6-0.3-0.1-1.3-0.1-1.3c1.1-2,2.8-2.3,2.8-2.3C265,478.8,263.9,480.8,263.9,480.8z M265.9,485.4&#10;&#9;&#9;c2.4,1.3,0.4,2.4,0.4,2.4c-3,1.1-4.5-0.7-4.5-0.7c-0.3-0.6,0.6-1.2,0.6-1.2C264.2,484.8,265.9,485.4,265.9,485.4z M254.5,408.9&#10;&#9;&#9;c-0.6-0.3-0.1-1.3-0.1-1.3c1.1-2,2.8-2.3,2.8-2.3c2.7-0.1,1.6,1.9,1.6,1.9C256.7,409.7,254.5,408.9,254.5,408.9z M257.2,418.1&#10;&#9;&#9;c0.7,0,1.1,0.1,1.4,0.2c1.3-0.3,2.2,0.1,2.2,0.1c2.4,1.3,0.4,2.4,0.4,2.4c-1.4,0.5-2.5,0.4-3.2,0.1c-1.7,1.4-3.3,0.8-3.3,0.8&#10;&#9;&#9;c-0.6-0.3-0.1-1.3-0.1-1.3C255.5,418.5,257.2,418.1,257.2,418.1z M257.8,378.3c-1.7,1.4-3.3,0.8-3.3,0.8c-0.6-0.3-0.1-1.3-0.1-1.3&#10;&#9;&#9;c1.1-2,2.8-2.3,2.8-2.3c0.7,0,1.1,0.1,1.4,0.2c1.3-0.3,2.2,0.1,2.2,0.1c2.4,1.3,0.4,2.4,0.4,2.4&#10;&#9;&#9;C259.6,378.7,258.6,378.6,257.8,378.3z M255,366.4c-0.3,0-0.5-0.1-0.5-0.1c-0.6-0.3-0.1-1.3-0.1-1.3c1.1-2,2.8-2.3,2.8-2.3&#10;&#9;&#9;c2.7-0.1,1.6,1.9,1.6,1.9c-0.6,0.8-1.2,1.2-1.8,1.5C256.1,366.4,255.5,366.4,255,366.4z M256.4,347.5c-2,2.5-4.2,1.7-4.2,1.7&#10;&#9;&#9;c-0.6-0.3-0.1-1.3-0.1-1.3c1.1-2,2.8-2.3,2.8-2.3C257.5,345.5,256.4,347.5,256.4,347.5z M252,390.5c1.1-2,2.8-2.3,2.8-2.3&#10;&#9;&#9;c2.7-0.1,1.6,1.9,1.6,1.9c-2,2.5-4.2,1.7-4.2,1.7C251.6,391.5,252,390.5,252,390.5z M252,433.1c1.1-2,2.8-2.3,2.8-2.3&#10;&#9;&#9;c2.7-0.1,1.6,1.9,1.6,1.9c-2,2.5-4.2,1.7-4.2,1.7C251.6,434.1,252,433.1,252,433.1z M254.4,450.2c1.1-2,2.8-2.3,2.8-2.3&#10;&#9;&#9;c2.7-0.1,1.6,1.9,1.6,1.9c-2,2.5-4.2,1.7-4.2,1.7C253.9,451.1,254.4,450.2,254.4,450.2z M257.1,461.5c1.9-1.1,3.6-0.5,3.6-0.5&#10;&#9;&#9;c2.4,1.3,0.4,2.4,0.4,2.4c-3,1.1-4.5-0.7-4.5-0.7C256.2,462.1,257.1,461.5,257.1,461.5z M261.6,456.2c-3,1.1-4.5-0.7-4.5-0.7&#10;&#9;&#9;c-0.3-0.6,0.6-1.2,0.6-1.2c1.9-1.1,3.6-0.5,3.6-0.5C263.6,455.2,261.6,456.2,261.6,456.2z M261.7,444.5c-0.3-0.6,0.6-1.2,0.6-1.2&#10;&#9;&#9;c1.9-1.1,3.6-0.5,3.6-0.5c2.4,1.3,0.4,2.4,0.4,2.4C263.2,446.4,261.7,444.5,261.7,444.5z M263.9,438.2c-2,2.5-4.2,1.7-4.2,1.7&#10;&#9;&#9;c-0.6-0.3-0.1-1.3-0.1-1.3c1.1-2,2.8-2.3,2.8-2.3C265,436.2,263.9,438.2,263.9,438.2z M261.6,413.6c-3,1.1-4.5-0.7-4.5-0.7&#10;&#9;&#9;c-0.3-0.6,0.6-1.2,0.6-1.2c1.9-1.1,3.6-0.5,3.6-0.5C263.6,412.6,261.6,413.6,261.6,413.6z M261.7,401.9c-0.3-0.6,0.6-1.2,0.6-1.2&#10;&#9;&#9;c1.9-1.1,3.6-0.5,3.6-0.5c2.4,1.3,0.4,2.4,0.4,2.4C263.2,403.7,261.7,401.9,261.7,401.9z M263.9,395.6c-2,2.5-4.2,1.7-4.2,1.7&#10;&#9;&#9;c-0.6-0.3-0.1-1.3-0.1-1.3c1.1-2,2.8-2.3,2.8-2.3C265,393.6,263.9,395.6,263.9,395.6z M261.6,371c-3,1.1-4.5-0.7-4.5-0.7&#10;&#9;&#9;c-0.3-0.6,0.6-1.2,0.6-1.2c1.9-1.1,3.6-0.5,3.6-0.5C263.6,370,261.6,371,261.6,371z M259.5,353.4c1.1-2,2.8-2.3,2.8-2.3&#10;&#9;&#9;c2.7-0.1,1.6,1.9,1.6,1.9c-2,2.5-4.2,1.7-4.2,1.7C259.1,354.4,259.5,353.4,259.5,353.4z M261.7,359.3c-0.3-0.6,0.6-1.2,0.6-1.2&#10;&#9;&#9;c1.9-1.1,3.6-0.5,3.6-0.5c2.4,1.3,0.4,2.4,0.4,2.4C263.2,361.1,261.7,359.3,261.7,359.3z M263.1,345.6c2.7,1.2,2.5,3.4,2.5,3.4&#10;&#9;&#9;c-0.2,0.6-1.1,0.4-1.1,0.4c-2-0.5-2.7-2-2.7-2C261.1,345,263.1,345.6,263.1,345.6z M259.3,326.6c2.8,1.6,2.4,3.9,2.4,3.9&#10;&#9;&#9;c-0.2,0.6-1.3,0.3-1.3,0.3c-2.1-0.7-2.7-2.4-2.7-2.4C257.2,325.7,259.3,326.6,259.3,326.6z M254.4,335.2c1.1-2,2.8-2.3,2.8-2.3&#10;&#9;&#9;c2.7-0.1,1.6,1.8,1.6,1.8c-2,2.6-4.2,1.7-4.2,1.7C253.9,336.2,254.4,335.2,254.4,335.2z M249.9,334.7c0,0-0.5-2.3,2.1-1.2&#10;&#9;&#9;c0,0,1.5,0.9,1.9,3.1c0,0,0.1,1.1-0.5,1.2C253.2,337.7,250.9,337.6,249.9,334.7z M252.1,477c-0.6-0.3-0.1-1.3-0.1-1.3&#10;&#9;&#9;c1.1-2,2.8-2.3,2.8-2.3c2.7-0.1,1.6,1.8,1.6,1.8C254.4,477.8,252.1,477,252.1,477z M254.5,494.1c-0.6-0.3-0.1-1.3-0.1-1.3&#10;&#9;&#9;c1.1-2,2.8-2.3,2.8-2.3c2.7-0.1,1.6,1.9,1.6,1.9C256.7,494.9,254.5,494.1,254.5,494.1z M261.1,506c-3,1.1-4.5-0.7-4.5-0.7&#10;&#9;&#9;c-0.3-0.6,0.6-1.2,0.6-1.2c1.9-1.1,3.6-0.5,3.6-0.5C263.1,504.9,261.1,506,261.1,506z M261.6,498.8c-3,1.1-4.5-0.7-4.5-0.7&#10;&#9;&#9;c-0.3-0.6,0.6-1.2,0.6-1.2c1.9-1.1,3.6-0.5,3.6-0.5C263.6,497.8,261.6,498.8,261.6,498.8z M266.6,511.7c-3,1.1-4.5-0.7-4.5-0.7&#10;&#9;&#9;c-0.3-0.6,0.6-1.2,0.6-1.2c1.9-1.1,3.6-0.5,3.6-0.5C268.7,510.6,266.6,511.7,266.6,511.7z M266.6,469.1c-3,1.1-4.5-0.7-4.5-0.7&#10;&#9;&#9;c-0.3-0.6,0.6-1.2,0.6-1.2c1.9-1.1,3.6-0.5,3.6-0.5C268.7,468,266.6,469.1,266.6,469.1z M266.6,426.5c-3,1.1-4.5-0.7-4.5-0.7&#10;&#9;&#9;c-0.3-0.6,0.6-1.2,0.6-1.2c1.9-1.1,3.6-0.5,3.6-0.5C268.7,425.4,266.6,426.5,266.6,426.5z M266.6,383.9c-3,1.1-4.5-0.7-4.5-0.7&#10;&#9;&#9;c-0.3-0.6,0.6-1.2,0.6-1.2c1.9-1.1,3.6-0.5,3.6-0.5C268.7,382.8,266.6,383.9,266.6,383.9z M267.2,324.1c0,0-0.9-0.4-1.2-1.7&#10;&#9;&#9;c0,0-0.1-0.6,0.2-0.7c0,0,0.1,0,0.3,0c0.4,0.1,1.2,0.3,1.7,1.5c0,0,0,0.1,0.1,0.1C268.3,323.3,268.7,324.6,267.2,324.1z" id="el_Uhy6x2v-43Y"/>
	<path d="M279.8,324.9c0,0-1.5-0.2-2.5-1.9c0,0-0.1-0.3-0.2-0.6l4.1,1C281.5,323.9,281.7,324.9,279.8,324.9z" id="el_ZJNF_LvrHcJ"/>
	<path d="M265.9,341c-0.1,0-2.4,0-3.4-3c0,0-0.5-2.3,2.1-1.2c0,0,1.5,0.9,1.9,3.1C266.5,339.8,266.6,340.9,265.9,341z" id="el_RPgmHeuNJiO"/>
	<path d="M268.2,323.2l-1.7-1.4C266.9,321.8,267.7,322.1,268.2,323.2z" id="el_vm7RB75pVDt"/>
	<path d="M267.2,324.1c0,0-0.9-0.4-1.2-1.7c0,0-0.1-0.6,0.2-0.7c0,0,0.1,0,0.3,0l1.7,1.5c0,0,0,0.1,0.1,0.1&#10;&#9;&#9;C268.3,323.3,268.7,324.6,267.2,324.1z" id="el_HCFMq8-HKPe"/>
	<path d="M262.1,300.2c-0.4-4.3-3.5-8.1-8.7-10.8c-1.9-1-4-1.7-6.2-2.3l-21.7,22.2l0,0l-5.2,5.3L215,320v17.5v24.2&#10;&#9;&#9;c0.2,0,0.3,0,0.5,0v6.5c0.2,0,0.4,0,0.7,0c-0.2,0-0.4,0-0.7,0v160.4c7.3,1.9,19.6,3.7,34.1,0.2l0.5-162v-7.1c-0.2,0-0.3,0-0.5,0.1&#10;&#9;&#9;l0.1-43.8c0.2-0.1,0.4-0.2,0.5-0.3c2.1-1,4-2.2,5.7-3.6C260.4,308.5,262.5,304.3,262.1,300.2z M245.7,314.4v45.9l0,0V314.4&#10;&#9;&#9;L245.7,314.4z M232.1,339.8c0,0-0.4,1.1-1.7,1.9c-0.2,0.1-0.4,0.2-0.7,0.4c-0.1,0.1-0.2,0.1-0.4,0.2c0,0-1,0.3-1.3-0.3&#10;&#9;&#9;c0,0-0.4-2.3,2.3-3.8l0,0c0,0,0,0,0.1,0C230.5,338,232.7,337.1,232.1,339.8z M235.5,311.8l5.1,1.3l3,0.8l-3-0.8L235.5,311.8&#10;&#9;&#9;l-8.6-2.2L235.5,311.8z M218.7,328.9c0,0,2.1-0.8,1.6,1.8c0,0-0.6,1.6-2.7,2.4c0,0-1,0.3-1.3-0.3&#10;&#9;&#9;C216.3,332.8,215.8,330.5,218.7,328.9z M222.9,368.4c1,0,2,0.1,3,0.1c1.2,0,2.4,0,3.6,0c-1.2,0-2.4,0.1-3.6,0.1&#10;&#9;&#9;C224.9,368.5,223.9,368.5,222.9,368.4z M245.5,367.4c0.2,0,0.4,0,0.6-0.1v-6.7l0,0v6.7C246,367.3,245.7,367.3,245.5,367.4z" id="el_RpcC1YMlzvG"/>
	<path d="M288,280.7c-2,1.3-4.1,2.3-6.3,3.3c-2.1,1-4.3,1.8-6.5,2.7c-2.2,0.8-4.4,1.5-6.7,2.2c-2.3,0.6-4.5,1.2-6.9,1.5&#10;&#9;&#9;c2-1.3,4.1-2.3,6.3-3.3c2.1-1,4.3-1.8,6.5-2.7c2.2-0.8,4.4-1.5,6.7-2.2C283.3,281.5,285.6,281,288,280.7z" id="el_kviiSViHyo0"/>
	<path d="M268.1,313c-0.1,0.1-0.1,0.2-0.1,0.3c-1.4-0.8-2.7-1.6-4-2.5c1.7,0.5,3.3,1,4.9,1.7&#10;&#9;&#9;C268.4,312.7,268.1,313,268.1,313z" id="el_Xcw042WZ_RX"/>
	<path d="M289.5,322.7c-2.3-0.6-4.5-1.4-6.7-2.3c-2.2-0.8-4.3-1.8-6.5-2.8c-1.9-0.9-3.8-1.9-5.7-2.9&#10;&#9;&#9;c0.4,0,0.7-0.1,0.7-0.1c0.6-0.3,0.9-0.6,1-0.8c1.6,0.7,3.2,1.4,4.8,2.1c2.1,1,4.2,2,6.3,3.1C285.5,320.2,287.5,321.4,289.5,322.7z" id="el_BFWYVEFvCPG"/>
	<path d="M268,313.3c0.7,0.4,1.4,0.8,2,1.1c0.2,0.1,0.4,0.2,0.5,0.3c0.4,0,0.7-0.1,0.7-0.1c0.6-0.3,0.9-0.6,1-0.8&#10;&#9;&#9;c-0.5-0.2-1.1-0.5-1.6-0.7c-0.6-0.2-1.2-0.4-1.7-0.7c-0.5,0.2-0.8,0.5-0.8,0.5C268,313.1,268,313.2,268,313.3z" id="el_AcDxeT6TgAJ"/>
	<path d="M284.9,297.3c-0.3,0.1-1.3,0.3-2.5-0.2c0.6,0,1.1,0.1,1.7,0.1C284.4,297.2,284.6,297.2,284.9,297.3z" id="el_HU5oPTGuqcf"/>
	<path d="M303.6,300.7c-2.1,0.2-4.1,0.3-6.1,0.3c-1.3,0-2.6,0-3.9,0c-3.3-0.1-6.6-0.3-9.9-0.6c-3.3-0.3-6.6-0.8-9.8-1.3&#10;&#9;&#9;c-1.7-0.3-3.3-0.6-5-1c-1.3-0.3-2.7-0.7-4-1.1c0-0.1,0-0.1,0.1-0.2c0,0,0.1-0.1,0.2-0.1c1.1-0.1,2.2-0.2,3.3-0.2&#10;&#9;&#9;c1.9-0.1,3.8-0.1,5.7,0c2.8,0.1,5.5,0.2,8.2,0.5c1.2,0.5,2.2,0.3,2.5,0.2c3,0.3,6,0.7,9,1.2c1.1,0.2,2.2,0.4,3.3,0.6&#10;&#9;&#9;C299.4,299.5,301.5,300.1,303.6,300.7z" id="el_jVDTRw0LvXK"/>
	<path d="M265.6,349c-0.2,0.6-1.1,0.4-1.1,0.4c-2-0.5-2.7-2-2.7-2c-0.7-2.4,1.3-1.8,1.3-1.8&#10;&#9;&#9;C265.8,346.8,265.6,349,265.6,349z" id="el_PaALeKX28xb"/>
	<path d="M266.2,360c-3,1.1-4.5-0.7-4.5-0.7c-0.3-0.6,0.6-1.2,0.6-1.2c1.9-1.1,3.6-0.5,3.6-0.5&#10;&#9;&#9;C268.2,359,266.2,360,266.2,360z" id="el_TyCvtVwlNtq"/>
	<path d="M266.6,383.9c-3,1.1-4.5-0.7-4.5-0.7c-0.3-0.6,0.6-1.2,0.6-1.2c1.9-1.1,3.6-0.5,3.6-0.5&#10;&#9;&#9;C268.7,382.8,266.6,383.9,266.6,383.9z" id="el_J8EHD6D493j"/>
	<path d="M266.2,402.6c-3,1.1-4.5-0.7-4.5-0.7c-0.3-0.6,0.6-1.2,0.6-1.2c1.9-1.1,3.6-0.5,3.6-0.5&#10;&#9;&#9;C268.2,401.5,266.2,402.6,266.2,402.6z" id="el_gznSW2_SgWw"/>
	<path d="M266.6,426.5c-3,1.1-4.5-0.7-4.5-0.7c-0.3-0.6,0.6-1.2,0.6-1.2c1.9-1.1,3.6-0.5,3.6-0.5&#10;&#9;&#9;C268.7,425.4,266.6,426.5,266.6,426.5z" id="el_DaK38iwaYgt"/>
	<path d="M266.2,445.2c-3,1.1-4.5-0.7-4.5-0.7c-0.3-0.6,0.6-1.2,0.6-1.2c1.9-1.1,3.6-0.5,3.6-0.5&#10;&#9;&#9;C268.2,444.1,266.2,445.2,266.2,445.2z" id="el__wpCkS-vjZ-"/>
	<path d="M266.6,469.1c-3,1.1-4.5-0.7-4.5-0.7c-0.3-0.6,0.6-1.2,0.6-1.2c1.9-1.1,3.6-0.5,3.6-0.5&#10;&#9;&#9;C268.7,468,266.6,469.1,266.6,469.1z" id="el_vRrEn8URf1b"/>
	<path d="M266.2,487.8c-3,1.1-4.5-0.7-4.5-0.7c-0.3-0.6,0.6-1.2,0.6-1.2c1.9-1.1,3.6-0.5,3.6-0.5&#10;&#9;&#9;C268.2,486.7,266.2,487.8,266.2,487.8z" id="el_wIZaETGpsus"/>
	<path d="M266.6,511.7c-3,1.1-4.5-0.7-4.5-0.7c-0.3-0.6,0.6-1.2,0.6-1.2c1.9-1.1,3.6-0.5,3.6-0.5&#10;&#9;&#9;C268.7,510.6,266.6,511.7,266.6,511.7z" id="el_71rl-sj7wU_"/>
	<path d="M268.5,296.6c-1.1,0-2.2,0.1-3.3,0.2C265.5,296.5,266.7,295.8,268.5,296.6z" id="el_VhEWSeIWuSS"/>
	<path d="M269,298.1c-0.2,0.2-0.4,0.3-0.7,0.5c0,0-1.4,0.4-2.8-0.7c0,0-0.5-0.4-0.5-0.8&#10;&#9;&#9;C266.3,297.5,267.6,297.8,269,298.1z" id="el_EY5QsCYtCus"/>
	
		<ellipse cx="267.1" cy="297.3" rx="1.3" ry="2.2" id="el_DFt4yIB1x0_"/>
	
		<ellipse cx="286.7" cy="306.5" rx="1.3" ry="2.2" id="el_Gd_XqMb8xje"/>
	<circle cx="266.9" cy="297.8" r="0.1" id="el_1gmHqdIMii9"/>
</g>
<g id="el_TFw3RGWjGeU">
	<path d="M255.2,322.8c1.5,1.1,2.8,0.7,2.8,0.7c0.2-0.1,0.3-0.1,0.4-0.2c1.3-0.8,0-1.7,0-1.7c-1.8-0.9-3.1-0.3-3.5,0&#10;&#9;&#9;c-0.1,0.1-0.2,0.2-0.2,0.2C254.6,322.2,255.2,322.8,255.2,322.8z" id="el_5CMMkVslJOa"/>
	<path d="M287.5,358.7c0.3,49.6-7.9,115.3-39.6,187.4c4.9-1,7.7-1.9,7.7-1.9c108.9-60.9,109.5-142.4,92.9-197.4&#10;&#9;&#9;l-34.6-11C307.6,344.5,298.5,352.2,287.5,358.7z" id="el_KcQkxoxeTsI"/>
	<path d="M287.5,358.7c-16.4,9.6-37.3,16.2-60.3,18.1c-22.8,1.9-44.3-1.2-62-7.9l-3.7,156.5c1.1,3.7,2.2,7.3,3.6,10.8&#10;&#9;&#9;c32.7,17.1,67.7,12.9,82.8,9.9C279.6,473.9,287.8,408.3,287.5,358.7z" id="el_KIbRs2Ybi5u"/>
	<path d="M238.5,342c-0.6-0.2-1-0.3-1.3-0.3c-1.1,0.1-0.8,1.5-0.8,1.5c0.6,1.7,1.5,2.5,2.3,2.8c0.6,0.3,1.1,0.3,1.1,0.3&#10;&#9;&#9;c0.6-0.1,0.5-1.2,0.5-1.2C240,342.9,238.5,342,238.5,342z" id="el_lh4PIIj8rmi"/>
	<path d="M266.5,333.8c2.4,0,1.3-1.7,1.3-1.7c-1.8-2.2-3.8-1.4-3.8-1.4c-0.5,0.3-0.1,1.2-0.1,1.2C265,333.6,266.5,333.8,266.5,333.8&#10;&#9;&#9;z" id="el_NXgzx14MwMJ"/>
	<g id="el_J0P8oqqPrYd">
		<path d="M204.4,341.4c2.1-0.7,2.7-2.3,2.7-2.3c0.6-2.7-1.5-1.8-1.5-1.8c-2.8,1.5-2.4,3.8-2.4,3.8&#10;&#9;&#9;&#9;C203.3,341.7,204.4,341.4,204.4,341.4z" id="el_eh-oL-KogP2"/>
		<path d="M196.6,351.7c-0.5-0.2-1.1,0-1.1,0c-2.8,1.5-2.4,3.8-2.4,3.8s0,0.1,0.1,0.1c0.3,0.5,1.2,0.2,1.2,0.2&#10;&#9;&#9;&#9;c2.1-0.7,2.7-2.3,2.7-2.3C197.3,352.4,197,351.9,196.6,351.7z" id="el_RYTzw4AjdWD"/>
		<path d="M217.2,346.4L217.2,346.4c-2.8,1.6-2.4,3.8-2.4,3.8c0.2,0.6,1.3,0.3,1.3,0.3c0.1,0,0.2-0.1,0.3-0.1&#10;&#9;&#9;&#9;c1.8-0.8,2.4-2.2,2.4-2.2C219.3,345.6,217.2,346.4,217.2,346.4z" id="el_SbSq3E3eAvS"/>
	</g>
	<path d="M249,346.7c1,3.1,3.4,3.1,3.4,3.1c0.2,0,0.3-0.1,0.3-0.2c-1.1-1.4-2.1-2.8-3.1-4.3C248.8,345.5,249,346.7,249,346.7z" id="el_wy5El00Avgc"/>
	<path d="M223.2,327.8c7.6-0.6,14.7-3.2,19.6-7.1c2.3-1.8,3.9-3.8,5-5.9l-22.6-7.2l-18,18.4&#10;&#9;&#9;C211.9,327.6,217.5,328.3,223.2,327.8z" id="el_mitmgvb5Khw"/>
	<path d="M242.9,320.7c-4.9,3.9-12,6.5-19.6,7.1c-5.7,0.5-11.3-0.2-16-1.9l-22.6,23.2v0.1c0,0-0.4,0.8-1.5,1.5&#10;&#9;&#9;l-17.8,18.2c17.7,6.7,39.2,9.7,62,7.9c23-1.9,43.8-8.5,60.3-18.1c11-6.4,20-14.2,26.4-22.8l-7.1-2.3l-20.7-6.6l-10.9-3.5l-16.4-5.2&#10;&#9;&#9;c-0.5,0.1-1.6,0.1-2.7-0.6c0,0-0.2-0.2-0.4-0.4l-8-2.5C246.8,316.9,245.1,318.9,242.9,320.7z M205.2,337.1c0,0,2.1-0.8,1.6,1.9&#10;&#9;&#9;c0,0-0.6,1.6-2.7,2.3c0,0-1,0.3-1.3-0.3C202.8,341,202.4,338.6,205.2,337.1z M196.7,353.6c0,0-0.6,1.6-2.7,2.3c0,0-0.9,0.2-1.2-0.2&#10;&#9;&#9;c0,0,0-0.1-0.1-0.1c0,0-0.4-2.3,2.4-3.9c0,0,0.6-0.2,1.1,0S197,352.3,196.7,353.6z M213.5,339.4c-1.1,3-2.2,6-3.5,8.9&#10;&#9;&#9;s-2.7,5.8-4.2,8.6c-1.5,2.8-3.1,5.6-5,8.2c0.6-3.2,1.6-6.2,2.6-9.2c1.1-3,2.2-6,3.5-8.9s2.7-5.8,4.2-8.6c1.5-2.8,3.1-5.6,5-8.2&#10;&#9;&#9;C215.5,333.3,214.6,336.4,213.5,339.4z M216.2,350.3c-0.1,0-0.2,0.1-0.4,0.1c0,0-1,0.3-1.3-0.3c0,0-0.4-2.3,2.4-3.8c0,0,0,0,0.1,0&#10;&#9;&#9;c0,0,2.1-0.8,1.6,1.9C218.6,348.2,218,349.6,216.2,350.3z M224.2,339.9c-0.3,2.3-0.7,4.6-1.3,6.9c-0.5,2.3-1.2,4.5-2,6.7&#10;&#9;&#9;s-1.7,4.4-2.9,6.5c-0.1-2.4,0.1-4.8,0.4-7.1c0.3-2.3,0.7-4.6,1.3-6.9c0.5-2.3,1.2-4.5,2-6.7s1.7-4.4,2.9-6.5&#10;&#9;&#9;C224.7,335.2,224.5,337.6,224.2,339.9z M239.8,346.3c0,0-0.5,0-1.1-0.3c-0.8-0.3-1.7-1.1-2.3-2.8c0,0-0.2-1.3,0.8-1.5&#10;&#9;&#9;c0.3,0,0.7,0,1.3,0.3c0,0,1.5,0.9,1.8,3.1C240.4,345.1,240.5,346.2,239.8,346.3z M264,330.7c0,0,1.9-0.8,3.8,1.4&#10;&#9;&#9;c0,0,1.1,1.7-1.3,1.7c0,0-1.5-0.2-2.5-2C264,331.9,263.6,331,264,330.7z M254.9,321.8c0,0,0.1-0.1,0.2-0.2c0.4-0.3,1.6-1,3.5,0&#10;&#9;&#9;c0,0,1.3,0.9,0,1.7c-0.1,0.1-0.3,0.2-0.4,0.2c0,0-1.4,0.4-2.8-0.7C255.2,322.8,254.6,322.2,254.9,321.8z M252.3,326.2&#10;&#9;&#9;c1.8,1.5,3.5,3.1,5.2,4.7c1.6,1.7,3.2,3.4,4.7,5.3c1.5,1.8,2.9,3.8,4,5.9c-2.1-1.2-4-2.6-5.8-4.1c-1.8-1.4-3.5-3-5.1-4.6&#10;&#9;&#9;c-0.1,0.5-0.5,1-2.1,0.5c0,0-1.7-0.9-2.5-3.1c0,0-0.3-1.1,0.3-1.3c0,0,0.3,0,0.8,0.1c-0.4-0.5-0.9-1-1.3-1.6&#10;&#9;&#9;c-1.5-1.8-2.9-3.8-4-5.9C248.6,323.3,250.5,324.7,252.3,326.2z M251.8,342.6c1.8,2.6,3.5,5.3,5.1,8.1c1.6,2.8,3.1,5.6,4.3,8.6&#10;&#9;&#9;c-2.4-2.2-4.4-4.7-6.4-7.1c-0.7-0.9-1.4-1.7-2-2.6c-0.1,0.1-0.2,0.2-0.3,0.2c0,0-2.4,0-3.4-3.1c0,0-0.2-1.2,0.6-1.4&#10;&#9;&#9;c-0.2-0.3-0.4-0.5-0.5-0.8c-1.8-2.6-3.5-5.3-5.1-8.1c-1.6-2.8-3.1-5.6-4.3-8.6c2.4,2.2,4.4,4.7,6.4,7.1&#10;&#9;&#9;C248.1,337.5,250,340,251.8,342.6z" id="el_6v5Qr0TAL-v"/>
	<path d="M252.9,348.6c-0.3-2.2-1.8-3.1-1.8-3.1c-0.7-0.3-1.1-0.3-1.5-0.2c1,1.4,2,2.9,3.1,4.3&#10;&#9;&#9;C253,349.2,252.9,348.6,252.9,348.6z" id="el_mWyU7T8LItz"/>
	<path d="M239.7,327.8c1.2,3,2.7,5.8,4.3,8.6c1.6,2.8,3.3,5.4,5.1,8.1c0.2,0.3,0.4,0.5,0.5,0.8c0.3-0.1,0.8-0.1,1.5,0.2&#10;&#9;&#9;c0,0,1.5,0.9,1.8,3.1c0,0,0.1,0.6-0.2,1c0.7,0.9,1.3,1.8,2,2.6c2,2.5,4.1,4.9,6.4,7.1c-1.2-3-2.7-5.8-4.3-8.6&#10;&#9;&#9;c-1.6-2.8-3.3-5.5-5.1-8.1s-3.7-5.2-5.7-7.7C244.1,332.5,242.1,330.1,239.7,327.8z" id="el_2Gg_AGpFp1x"/>
	<path d="M254.9,332.1L254.9,332.1c-0.3-0.7-0.7-1.1-1.1-1.3c0.4,0.4,0.7,0.8,1.1,1.4&#10;&#9;&#9;C255,332.2,254.9,332.1,254.9,332.1z" id="el_iUiK69DfSug"/>
	<path d="M251.7,329.6c0.6,0.1,1.4,0.5,2.1,1.3c0.3,0.2,0.7,0.6,1,1.2v0.1c0,0,0,0.1,0,0.2s0.1,0.1,0.1,0.2&#10;&#9;&#9;c0,0,0.2,0.5,0.1,0.9c1.6,1.6,3.3,3.2,5.1,4.6c1.8,1.5,3.7,2.9,5.8,4.1c-1.2-2.1-2.5-4.1-4-5.9c-1.5-1.9-3-3.6-4.7-5.3&#10;&#9;&#9;c-1.6-1.7-3.4-3.3-5.2-4.7c-1.8-1.5-3.7-2.9-5.8-4.1c1.2,2.1,2.5,4.1,4,5.9C250.9,328.5,251.3,329.1,251.7,329.6z" id="el_YKiQuar5R0D"/>
	<path d="M211.2,338.3c-1.5,2.8-2.9,5.7-4.2,8.6s-2.4,5.9-3.5,8.9s-2,6.1-2.6,9.2c1.9-2.6,3.5-5.4,5-8.2&#10;&#9;&#9;c1.5-2.8,2.9-5.7,4.2-8.6s2.4-5.9,3.5-8.9s2-6.1,2.6-9.2C214.3,332.8,212.7,335.5,211.2,338.3z" id="el_2ZjP-g5_3du"/>
	<path d="M221.7,339.3c-0.8,2.2-1.4,4.5-2,6.7c-0.5,2.3-1,4.6-1.3,6.9s-0.5,4.7-0.4,7.1c1.2-2.1,2.1-4.3,2.9-6.5&#10;&#9;&#9;c0.8-2.2,1.4-4.5,2-6.7c0.5-2.3,1-4.6,1.3-6.9s0.5-4.7,0.4-7.1C223.4,334.9,222.5,337.1,221.7,339.3z" id="el_1v2XP3C382j"/>
	<path d="M252.6,331.2c0.3,1.2,1.2,1.7,1.2,1.7c0.5,0.2,0.8,0.1,1,0c-0.7-0.7-1.4-1.5-2.1-2.2&#10;&#9;&#9;C252.6,330.9,252.6,331.2,252.6,331.2z" id="el_SjkWJw9Rq39"/>
	<path d="M254.8,332.9c-0.2,0.1-0.5,0.2-1,0c0,0-0.9-0.4-1.2-1.7c0,0-0.1-0.3,0.1-0.5c-0.3-0.4-0.6-0.8-0.9-1.1&#10;&#9;&#9;c-0.4-0.1-0.8-0.1-0.8-0.1c-0.6,0.1-0.3,1.3-0.3,1.3c0.8,2.3,2.5,3.1,2.5,3.1c1.6,0.6,2,0.1,2.1-0.5l-0.1-0.1&#10;&#9;&#9;C255,333.2,254.9,333,254.8,332.9z" id="el_ZPhL-UYJS4n"/>
	<path d="M252.9,330.5c-0.1,0-0.2,0.1-0.2,0.2c0.7,0.8,1.4,1.5,2.1,2.2c0.2-0.2,0.2-0.4,0.2-0.6&#10;&#9;&#9;c-0.3-0.6-0.7-1.1-1.1-1.4c-0.3-0.2-0.5-0.3-0.7-0.3C253,330.5,252.9,330.5,252.9,330.5z" id="el_T094IqLfqW5"/>
	<path d="M252.9,330.5c0,0,0.1,0,0.3,0s0.4,0.1,0.7,0.3c-0.8-0.8-1.6-1.1-2.1-1.3c0.3,0.4,0.6,0.8,0.9,1.1&#10;&#9;&#9;C252.7,330.6,252.8,330.6,252.9,330.5z" id="el_icOXmqD0TqK"/>
	<path d="M255.1,332.5c0-0.1-0.1-0.1-0.1-0.2c0,0.2,0,0.5-0.2,0.6c0.1,0.1,0.2,0.2,0.3,0.4l0.1,0.1&#10;&#9;&#9;C255.3,333,255.1,332.5,255.1,332.5z" id="el_QsKLmdQNGHG"/>
</g>
</svg>