<svg version="1.1" id="el_JRIzQlWUr1" xmlns="http://www.w3.org/2000/svg" xmlns:xlink="http://www.w3.org/1999/xlink" x="0px" y="0px" viewBox="0 0 576 576" style="enable-background:new 0 0 576 576;" xml:space="preserve"><style>@-webkit-keyframes kf_el_hyf1dr5xAzE_an_OmhLFOwIp{37.78%{-webkit-transform: translate(266.20001220703125px, 229.6999969482422px) translate(-266.20001220703125px, -229.6999969482422px) translate(0px, 0px);transform: translate(266.20001220703125px, 229.6999969482422px) translate(-266.20001220703125px, -229.6999969482422px) translate(0px, 0px);}52.22%{-webkit-transform: translate(266.20001220703125px, 229.6999969482422px) translate(-266.20001220703125px, -229.6999969482422px) translate(100px, 0px);transform: translate(266.20001220703125px, 229.6999969482422px) translate(-266.20001220703125px, -229.6999969482422px) translate(100px, 0px);}0%{-webkit-transform: translate(266.20001220703125px, 229.6999969482422px) translate(-266.20001220703125px, -229.6999969482422px) translate(0px, 0px);transform: translate(266.20001220703125px, 229.6999969482422px) translate(-266.20001220703125px, -229.6999969482422px) translate(0px, 0px);}100%{-webkit-transform: translate(266.20001220703125px, 229.6999969482422px) translate(-266.20001220703125px, -229.6999969482422px) translate(100px, 0px);transform: translate(266.20001220703125px, 229.6999969482422px) translate(-266.20001220703125px, -229.6999969482422px) translate(100px, 0px);}}@keyframes kf_el_hyf1dr5xAzE_an_OmhLFOwIp{37.78%{-webkit-transform: translate(266.20001220703125px, 229.6999969482422px) translate(-266.20001220703125px, -229.6999969482422px) translate(0px, 0px);transform: translate(266.20001220703125px, 229.6999969482422px) translate(-266.20001220703125px, -229.6999969482422px) translate(0px, 0px);}52.22%{-webkit-transform: translate(266.20001220703125px, 229.6999969482422px) translate(-266.20001220703125px, -229.6999969482422px) translate(100px, 0px);transform: translate(266.20001220703125px, 229.6999969482422px) translate(-266.20001220703125px, -229.6999969482422px) translate(100px, 0px);}0%{-webkit-transform: translate(266.20001220703125px, 229.6999969482422px) translate(-266.20001220703125px, -229.6999969482422px) translate(0px, 0px);transform: translate(266.20001220703125px, 229.6999969482422px) translate(-266.20001220703125px, -229.6999969482422px) translate(0px, 0px);}100%{-webkit-transform: translate(266.20001220703125px, 229.6999969482422px) translate(-266.20001220703125px, -229.6999969482422px) translate(100px, 0px);transform: translate(266.20001220703125px, 229.6999969482422px) translate(-266.20001220703125px, -229.6999969482422px) translate(100px, 0px);}}@-webkit-keyframes kf_el_hyf1dr5xAzE_an_7WMSJMMiU{37.78%{-webkit-transform: translate(266.20001220703125px, 229.6999969482422px) rotate(0deg) translate(-266.20001220703125px, -229.6999969482422px);transform: translate(266.20001220703125px, 229.6999969482422px) rotate(0deg) translate(-266.20001220703125px, -229.6999969482422px);}52.22%{-webkit-transform: translate(266.20001220703125px, 229.6999969482422px) rotate(30deg) translate(-266.20001220703125px, -229.6999969482422px);transform: translate(266.20001220703125px, 229.6999969482422px) rotate(30deg) translate(-266.20001220703125px, -229.6999969482422px);}0%{-webkit-transform: translate(266.20001220703125px, 229.6999969482422px) rotate(0deg) translate(-266.20001220703125px, -229.6999969482422px);transform: translate(266.20001220703125px, 229.6999969482422px) rotate(0deg) translate(-266.20001220703125px, -229.6999969482422px);}100%{-webkit-transform: translate(266.20001220703125px, 229.6999969482422px) rotate(30deg) translate(-266.20001220703125px, -229.6999969482422px);transform: translate(266.20001220703125px, 229.6999969482422px) rotate(30deg) translate(-266.20001220703125px, -229.6999969482422px);}}@keyframes kf_el_hyf1dr5xAzE_an_7WMSJMMiU{37.78%{-webkit-transform: translate(266.20001220703125px, 229.6999969482422px) rotate(0deg) translate(-266.20001220703125px, -229.6999969482422px);transform: translate(266.20001220703125px, 229.6999969482422px) rotate(0deg) translate(-266.20001220703125px, -229.6999969482422px);}52.22%{-webkit-transform: translate(266.20001220703125px, 229.6999969482422px) rotate(30deg) translate(-266.20001220703125px, -229.6999969482422px);transform: translate(266.20001220703125px, 229.6999969482422px) rotate(30deg) translate(-266.20001220703125px, -229.6999969482422px);}0%{-webkit-transform: translate(266.20001220703125px, 229.6999969482422px) rotate(0deg) translate(-266.20001220703125px, -229.6999969482422px);transform: translate(266.20001220703125px, 229.6999969482422px) rotate(0deg) translate(-266.20001220703125px, -229.6999969482422px);}100%{-webkit-transform: translate(266.20001220703125px, 229.6999969482422px) rotate(30deg) translate(-266.20001220703125px, -229.6999969482422px);transform: translate(266.20001220703125px, 229.6999969482422px) rotate(30deg) translate(-266.20001220703125px, -229.6999969482422px);}}@-webkit-keyframes kf_el_p9BAFi0VDE_an_MGOPru6r2{36.67%{-webkit-transform: translate(215.1999969482422px, 155.45736694335938px) rotate(0deg) translate(-215.1999969482422px, -155.45736694335938px);transform: translate(215.1999969482422px, 155.45736694335938px) rotate(0deg) translate(-215.1999969482422px, -155.45736694335938px);}44.44%{-webkit-transform: translate(215.1999969482422px, 155.45736694335938px) rotate(-20deg) translate(-215.1999969482422px, -155.45736694335938px);transform: translate(215.1999969482422px, 155.45736694335938px) rotate(-20deg) translate(-215.1999969482422px, -155.45736694335938px);}0%{-webkit-transform: translate(215.1999969482422px, 155.45736694335938px) rotate(0deg) translate(-215.1999969482422px, -155.45736694335938px);transform: translate(215.1999969482422px, 155.45736694335938px) rotate(0deg) translate(-215.1999969482422px, -155.45736694335938px);}100%{-webkit-transform: translate(215.1999969482422px, 155.45736694335938px) rotate(-20deg) translate(-215.1999969482422px, -155.45736694335938px);transform: translate(215.1999969482422px, 155.45736694335938px) rotate(-20deg) translate(-215.1999969482422px, -155.45736694335938px);}}@keyframes kf_el_p9BAFi0VDE_an_MGOPru6r2{36.67%{-webkit-transform: translate(215.1999969482422px, 155.45736694335938px) rotate(0deg) translate(-215.1999969482422px, -155.45736694335938px);transform: translate(215.1999969482422px, 155.45736694335938px) rotate(0deg) translate(-215.1999969482422px, -155.45736694335938px);}44.44%{-webkit-transform: translate(215.1999969482422px, 155.45736694335938px) rotate(-20deg) translate(-215.1999969482422px, -155.45736694335938px);transform: translate(215.1999969482422px, 155.45736694335938px) rotate(-20deg) translate(-215.1999969482422px, -155.45736694335938px);}0%{-webkit-transform: translate(215.1999969482422px, 155.45736694335938px) rotate(0deg) translate(-215.1999969482422px, -155.45736694335938px);transform: translate(215.1999969482422px, 155.45736694335938px) rotate(0deg) translate(-215.1999969482422px, -155.45736694335938px);}100%{-webkit-transform: translate(215.1999969482422px, 155.45736694335938px) rotate(-20deg) translate(-215.1999969482422px, -155.45736694335938px);transform: translate(215.1999969482422px, 155.45736694335938px) rotate(-20deg) translate(-215.1999969482422px, -155.45736694335938px);}}@-webkit-keyframes kf_el_p9BAFi0VDE_an_VkvccDXUC{36.67%{-webkit-transform: translate(215.1999969482422px, 155.45736694335938px) scale(1, 1) translate(-215.1999969482422px, -155.45736694335938px);transform: translate(215.1999969482422px, 155.45736694335938px) scale(1, 1) translate(-215.1999969482422px, -155.45736694335938px);}44.44%{-webkit-transform: translate(215.1999969482422px, 155.45736694335938px) scale(0.8, 0.8) translate(-215.1999969482422px, -155.45736694335938px);transform: translate(215.1999969482422px, 155.45736694335938px) scale(0.8, 0.8) translate(-215.1999969482422px, -155.45736694335938px);}0%{-webkit-transform: translate(215.1999969482422px, 155.45736694335938px) scale(1, 1) translate(-215.1999969482422px, -155.45736694335938px);transform: translate(215.1999969482422px, 155.45736694335938px) scale(1, 1) translate(-215.1999969482422px, -155.45736694335938px);}100%{-webkit-transform: translate(215.1999969482422px, 155.45736694335938px) scale(0.8, 0.8) translate(-215.1999969482422px, -155.45736694335938px);transform: translate(215.1999969482422px, 155.45736694335938px) scale(0.8, 0.8) translate(-215.1999969482422px, -155.45736694335938px);}}@keyframes kf_el_p9BAFi0VDE_an_VkvccDXUC{36.67%{-webkit-transform: translate(215.1999969482422px, 155.45736694335938px) scale(1, 1) translate(-215.1999969482422px, -155.45736694335938px);transform: translate(215.1999969482422px, 155.45736694335938px) scale(1, 1) translate(-215.1999969482422px, -155.45736694335938px);}44.44%{-webkit-transform: translate(215.1999969482422px, 155.45736694335938px) scale(0.8, 0.8) translate(-215.1999969482422px, -155.45736694335938px);transform: translate(215.1999969482422px, 155.45736694335938px) scale(0.8, 0.8) translate(-215.1999969482422px, -155.45736694335938px);}0%{-webkit-transform: translate(215.1999969482422px, 155.45736694335938px) scale(1, 1) translate(-215.1999969482422px, -155.45736694335938px);transform: translate(215.1999969482422px, 155.45736694335938px) scale(1, 1) translate(-215.1999969482422px, -155.45736694335938px);}100%{-webkit-transform: translate(215.1999969482422px, 155.45736694335938px) scale(0.8, 0.8) translate(-215.1999969482422px, -155.45736694335938px);transform: translate(215.1999969482422px, 155.45736694335938px) scale(0.8, 0.8) translate(-215.1999969482422px, -155.45736694335938px);}}@-webkit-keyframes kf_el_-JO097t8pHF_an_-3rsUJxx7{28.89%{-webkit-transform: translate(202.98458862304688px, 200.8000030517578px) rotate(0deg) translate(-202.98458862304688px, -200.8000030517578px);transform: translate(202.98458862304688px, 200.8000030517578px) rotate(0deg) translate(-202.98458862304688px, -200.8000030517578px);}52.22%{-webkit-transform: translate(202.98458862304688px, 200.8000030517578px) rotate(-30deg) translate(-202.98458862304688px, -200.8000030517578px);transform: translate(202.98458862304688px, 200.8000030517578px) rotate(-30deg) translate(-202.98458862304688px, -200.8000030517578px);}0%{-webkit-transform: translate(202.98458862304688px, 200.8000030517578px) rotate(0deg) translate(-202.98458862304688px, -200.8000030517578px);transform: translate(202.98458862304688px, 200.8000030517578px) rotate(0deg) translate(-202.98458862304688px, -200.8000030517578px);}100%{-webkit-transform: translate(202.98458862304688px, 200.8000030517578px) rotate(-30deg) translate(-202.98458862304688px, -200.8000030517578px);transform: translate(202.98458862304688px, 200.8000030517578px) rotate(-30deg) translate(-202.98458862304688px, -200.8000030517578px);}}@keyframes kf_el_-JO097t8pHF_an_-3rsUJxx7{28.89%{-webkit-transform: translate(202.98458862304688px, 200.8000030517578px) rotate(0deg) translate(-202.98458862304688px, -200.8000030517578px);transform: translate(202.98458862304688px, 200.8000030517578px) rotate(0deg) translate(-202.98458862304688px, -200.8000030517578px);}52.22%{-webkit-transform: translate(202.98458862304688px, 200.8000030517578px) rotate(-30deg) translate(-202.98458862304688px, -200.8000030517578px);transform: translate(202.98458862304688px, 200.8000030517578px) rotate(-30deg) translate(-202.98458862304688px, -200.8000030517578px);}0%{-webkit-transform: translate(202.98458862304688px, 200.8000030517578px) rotate(0deg) translate(-202.98458862304688px, -200.8000030517578px);transform: translate(202.98458862304688px, 200.8000030517578px) rotate(0deg) translate(-202.98458862304688px, -200.8000030517578px);}100%{-webkit-transform: translate(202.98458862304688px, 200.8000030517578px) rotate(-30deg) translate(-202.98458862304688px, -200.8000030517578px);transform: translate(202.98458862304688px, 200.8000030517578px) rotate(-30deg) translate(-202.98458862304688px, -200.8000030517578px);}}@-webkit-keyframes kf_el_-JO097t8pHF_an_3FCm_Utt1{28.89%{-webkit-transform: translate(202.98458862304688px, 200.8000030517578px) translate(-202.98458862304688px, -200.8000030517578px) translate(0px, 0px);transform: translate(202.98458862304688px, 200.8000030517578px) translate(-202.98458862304688px, -200.8000030517578px) translate(0px, 0px);}52.22%{-webkit-transform: translate(202.98458862304688px, 200.8000030517578px) translate(-202.98458862304688px, -200.8000030517578px) translate(-100px, 60px);transform: translate(202.98458862304688px, 200.8000030517578px) translate(-202.98458862304688px, -200.8000030517578px) translate(-100px, 60px);}0%{-webkit-transform: translate(202.98458862304688px, 200.8000030517578px) translate(-202.98458862304688px, -200.8000030517578px) translate(0px, 0px);transform: translate(202.98458862304688px, 200.8000030517578px) translate(-202.98458862304688px, -200.8000030517578px) translate(0px, 0px);}100%{-webkit-transform: translate(202.98458862304688px, 200.8000030517578px) translate(-202.98458862304688px, -200.8000030517578px) translate(-100px, 60px);transform: translate(202.98458862304688px, 200.8000030517578px) translate(-202.98458862304688px, -200.8000030517578px) translate(-100px, 60px);}}@keyframes kf_el_-JO097t8pHF_an_3FCm_Utt1{28.89%{-webkit-transform: translate(202.98458862304688px, 200.8000030517578px) translate(-202.98458862304688px, -200.8000030517578px) translate(0px, 0px);transform: translate(202.98458862304688px, 200.8000030517578px) translate(-202.98458862304688px, -200.8000030517578px) translate(0px, 0px);}52.22%{-webkit-transform: translate(202.98458862304688px, 200.8000030517578px) translate(-202.98458862304688px, -200.8000030517578px) translate(-100px, 60px);transform: translate(202.98458862304688px, 200.8000030517578px) translate(-202.98458862304688px, -200.8000030517578px) translate(-100px, 60px);}0%{-webkit-transform: translate(202.98458862304688px, 200.8000030517578px) translate(-202.98458862304688px, -200.8000030517578px) translate(0px, 0px);transform: translate(202.98458862304688px, 200.8000030517578px) translate(-202.98458862304688px, -200.8000030517578px) translate(0px, 0px);}100%{-webkit-transform: translate(202.98458862304688px, 200.8000030517578px) translate(-202.98458862304688px, -200.8000030517578px) translate(-100px, 60px);transform: translate(202.98458862304688px, 200.8000030517578px) translate(-202.98458862304688px, -200.8000030517578px) translate(-100px, 60px);}}@-webkit-keyframes kf_el_hJT08_iaI5t_an__J-_dIC90{18.89%{-webkit-transform: translate(319.699951171875px, 165.89999389648438px) translate(-319.699951171875px, -165.89999389648438px) translate(0px, 0px);transform: translate(319.699951171875px, 165.89999389648438px) translate(-319.699951171875px, -165.89999389648438px) translate(0px, 0px);}43.33%{-webkit-transform: translate(319.699951171875px, 165.89999389648438px) translate(-319.699951171875px, -165.89999389648438px) translate(50px, -20px);transform: translate(319.699951171875px, 165.89999389648438px) translate(-319.699951171875px, -165.89999389648438px) translate(50px, -20px);}0%{-webkit-transform: translate(319.699951171875px, 165.89999389648438px) translate(-319.699951171875px, -165.89999389648438px) translate(0px, 0px);transform: translate(319.699951171875px, 165.89999389648438px) translate(-319.699951171875px, -165.89999389648438px) translate(0px, 0px);}100%{-webkit-transform: translate(319.699951171875px, 165.89999389648438px) translate(-319.699951171875px, -165.89999389648438px) translate(50px, -20px);transform: translate(319.699951171875px, 165.89999389648438px) translate(-319.699951171875px, -165.89999389648438px) translate(50px, -20px);}}@keyframes kf_el_hJT08_iaI5t_an__J-_dIC90{18.89%{-webkit-transform: translate(319.699951171875px, 165.89999389648438px) translate(-319.699951171875px, -165.89999389648438px) translate(0px, 0px);transform: translate(319.699951171875px, 165.89999389648438px) translate(-319.699951171875px, -165.89999389648438px) translate(0px, 0px);}43.33%{-webkit-transform: translate(319.699951171875px, 165.89999389648438px) translate(-319.699951171875px, -165.89999389648438px) translate(50px, -20px);transform: translate(319.699951171875px, 165.89999389648438px) translate(-319.699951171875px, -165.89999389648438px) translate(50px, -20px);}0%{-webkit-transform: translate(319.699951171875px, 165.89999389648438px) translate(-319.699951171875px, -165.89999389648438px) translate(0px, 0px);transform: translate(319.699951171875px, 165.89999389648438px) translate(-319.699951171875px, -165.89999389648438px) translate(0px, 0px);}100%{-webkit-transform: translate(319.699951171875px, 165.89999389648438px) translate(-319.699951171875px, -165.89999389648438px) translate(50px, -20px);transform: translate(319.699951171875px, 165.89999389648438px) translate(-319.699951171875px, -165.89999389648438px) translate(50px, -20px);}}@-webkit-keyframes kf_el_hJT08_iaI5t_an_oSPsz-ckE{18.89%{-webkit-transform: translate(319.699951171875px, 165.89999389648438px) rotate(0deg) translate(-319.699951171875px, -165.89999389648438px);transform: translate(319.699951171875px, 165.89999389648438px) rotate(0deg) translate(-319.699951171875px, -165.89999389648438px);}43.33%{-webkit-transform: translate(319.699951171875px, 165.89999389648438px) rotate(20deg) translate(-319.699951171875px, -165.89999389648438px);transform: translate(319.699951171875px, 165.89999389648438px) rotate(20deg) translate(-319.699951171875px, -165.89999389648438px);}0%{-webkit-transform: translate(319.699951171875px, 165.89999389648438px) rotate(0deg) translate(-319.699951171875px, -165.89999389648438px);transform: translate(319.699951171875px, 165.89999389648438px) rotate(0deg) translate(-319.699951171875px, -165.89999389648438px);}100%{-webkit-transform: translate(319.699951171875px, 165.89999389648438px) rotate(20deg) translate(-319.699951171875px, -165.89999389648438px);transform: translate(319.699951171875px, 165.89999389648438px) rotate(20deg) translate(-319.699951171875px, -165.89999389648438px);}}@keyframes kf_el_hJT08_iaI5t_an_oSPsz-ckE{18.89%{-webkit-transform: translate(319.699951171875px, 165.89999389648438px) rotate(0deg) translate(-319.699951171875px, -165.89999389648438px);transform: translate(319.699951171875px, 165.89999389648438px) rotate(0deg) translate(-319.699951171875px, -165.89999389648438px);}43.33%{-webkit-transform: translate(319.699951171875px, 165.89999389648438px) rotate(20deg) translate(-319.699951171875px, -165.89999389648438px);transform: translate(319.699951171875px, 165.89999389648438px) rotate(20deg) translate(-319.699951171875px, -165.89999389648438px);}0%{-webkit-transform: translate(319.699951171875px, 165.89999389648438px) rotate(0deg) translate(-319.699951171875px, -165.89999389648438px);transform: translate(319.699951171875px, 165.89999389648438px) rotate(0deg) translate(-319.699951171875px, -165.89999389648438px);}100%{-webkit-transform: translate(319.699951171875px, 165.89999389648438px) rotate(20deg) translate(-319.699951171875px, -165.89999389648438px);transform: translate(319.699951171875px, 165.89999389648438px) rotate(20deg) translate(-319.699951171875px, -165.89999389648438px);}}@-webkit-keyframes kf_el_h__Y4bO85UA_an_8e-Cle4yT{0%{-webkit-transform: translate(31.808940887451172px, 110.35106658935547px) translate(-31.808940887451172px, -110.35106658935547px) translate(0px, -200px);transform: translate(31.808940887451172px, 110.35106658935547px) translate(-31.808940887451172px, -110.35106658935547px) translate(0px, -200px);}23.33%{-webkit-transform: translate(31.808940887451172px, 110.35106658935547px) translate(-31.808940887451172px, -110.35106658935547px) translate(0px, 500px);transform: translate(31.808940887451172px, 110.35106658935547px) translate(-31.808940887451172px, -110.35106658935547px) translate(0px, 500px);}100%{-webkit-transform: translate(31.808940887451172px, 110.35106658935547px) translate(-31.808940887451172px, -110.35106658935547px) translate(0px, 500px);transform: translate(31.808940887451172px, 110.35106658935547px) translate(-31.808940887451172px, -110.35106658935547px) translate(0px, 500px);}}@keyframes kf_el_h__Y4bO85UA_an_8e-Cle4yT{0%{-webkit-transform: translate(31.808940887451172px, 110.35106658935547px) translate(-31.808940887451172px, -110.35106658935547px) translate(0px, -200px);transform: translate(31.808940887451172px, 110.35106658935547px) translate(-31.808940887451172px, -110.35106658935547px) translate(0px, -200px);}23.33%{-webkit-transform: translate(31.808940887451172px, 110.35106658935547px) translate(-31.808940887451172px, -110.35106658935547px) translate(0px, 500px);transform: translate(31.808940887451172px, 110.35106658935547px) translate(-31.808940887451172px, -110.35106658935547px) translate(0px, 500px);}100%{-webkit-transform: translate(31.808940887451172px, 110.35106658935547px) translate(-31.808940887451172px, -110.35106658935547px) translate(0px, 500px);transform: translate(31.808940887451172px, 110.35106658935547px) translate(-31.808940887451172px, -110.35106658935547px) translate(0px, 500px);}}#el_JRIzQlWUr1 *{-webkit-animation-duration: 3s;animation-duration: 3s;-webkit-animation-iteration-count: infinite;animation-iteration-count: infinite;-webkit-animation-timing-function: cubic-bezier(0, 0, 1, 1);animation-timing-function: cubic-bezier(0, 0, 1, 1);}#el_H4DV0BaQvX{fill: #E7D0AA;-webkit-transform: matrix(0.7071, -0.7071, 0.7071, 0.7071, -23.5281, 309.1116);transform: matrix(0.7071, -0.7071, 0.7071, 0.7071, -23.5281, 309.1116);}#el_956BS3uy6s{fill: #131213;}#el_YbjdF-N-En{fill: #131213;}#el_9OVYa-OTI2{fill: #131213;}#el_qDCEQxBQKp{fill: #131213;}#el_SgGzadKTly{fill: #80973B;}#el_V-Md1uRzI2{fill: #80973B;}#el_OJEGxDisH4{fill: #91B23D;}#el_fttRbZ6ImP{fill: #131213;}#el_rebNcDRqwT{fill: #131213;}#el_C5O6IgAL-q{fill: #131213;}#el_z62ihzAsPYW{fill: #131213;}#el_fkTs14oEKFh{fill: #131213;}#el_3sxn-sXUO26{fill: #131213;}#el_xuY2MzIEt6W{fill: #131213;}#el_0Ipsxzegn8Y{fill: #131213;}#el_lQOPQQnmIs-{fill: #131213;}#el_LdSx04xIoWm{fill: #131213;}#el_wWcRVngwN8j{fill: #131213;}#el_68EniKd09nZ{fill: #131213;}#el_lxVaghZ7Ua4{fill: #131213;}#el_QMLO7btxIKa{fill: #EBC478;}#el_2TWgvSGt71-{fill: #EBC478;}#el_g4ELRskk0XB{fill: #EBC478;}#el_1jiQTglgsF1{fill: #EBC478;}#el_GkvqrQoop9H{fill: #EBC478;}#el_rQZBXyTGETQ{fill: #E7D0AA;}#el_NLmZ8G0OI7D{fill: #E7D0AA;}#el_0_cPovOe4lw{fill: #E7D0AA;}#el_6ydsRGxqwvq{fill: #E7D0AA;}#el_jOdyk8kb4S0{fill: #E7D0AA;}#el_m9gcXOoFHx_{fill: #E7D0AA;}#el_tHMVfLOgw4B{fill: #E7D0AA;}#el_yOjAct4iubR{fill: #E7D0AA;}#el_qjF81O3q0jg{fill: #E7D0AA;}#el_QQDQueARwto{fill: #E7D0AA;}#el_ANxDdyLkF7Y{fill: #E7D0AA;}#el_MUDPWe_tMue{fill: #E7D0AA;}#el_nRIiXzeYHJb{fill: #E7D0AA;}#el_6VJo3ygFtm7{fill: #E7D0AA;}#el_ur252mtWRZC{fill: #E7D0AA;}#el_Bi7Wb1XH0L2{fill: #E7D0AA;}#el_2q-aM-Ouw19{fill: #E7D0AA;}#el_7408jCVJMWP{fill: #E7D0AA;}#el_8d17zrwcUhQ{fill: #E7D0AA;}#el_4wXx2gVaKwU{fill: #E7D0AA;}#el_RrOBNNEIxiB{fill: #E7D0AA;}#el_82mT3c7TNr8{fill: #E7D0AA;}#el_vJPRkH22lz2{fill: #E7D0AA;}#el_aVcqro8p5Ub{fill: #E7D0AA;}#el_ocmk9hko9Lu{fill: #E7D0AA;}#el_Oy6ePHqow6N{fill: #131213;}#el_fTim4XT2U94{fill: #131213;}#el_zBUpkGC9BDK{fill: #131213;}#el_5FtODrwBO09{fill: #EBC478;}#el_bYTO2O0fzYp{fill: #91B23D;}#el__4_NewhZ7rv{fill: #131213;}#el_s0WwyFaUiAm{fill: #131213;}#el_5pLsB5wuOTk{fill: #9EB247;}#el_l-VwkTAn38w{fill: #EBC478;}#el_NJEmchjxA3g{fill: #EBC478;}#el_SNXt4aLx3nQ{fill: #EBC478;}#el_LLrMnp8-1MS{fill: #9EB247;}#el_kJ8_NQlr8l-{fill: #91B23D;}#el_8LhFXk3OBGC{fill: #91B23D;}#el_0EdtnVBv6aZ{fill: #91B23D;}#el_3AfUwBBf-c2{fill: #131213;}#el_wWa_6UjkXLn{fill: #131213;}#el_5Xf0x3qVLLz{fill: #131213;}#el_pP9m4uRLYal{fill: #131213;}#el_TcmIJS707Ae{fill: #131213;}#el_1mUhDOtj-1G{fill: #131213;}#el_mg_d-mVHBnK{fill: #91B23D;}#el_O0MbdmLJOVu{fill: #91B23D;}#el_1y0pd-hkfva{fill: #91B23D;}#el_wm8sBhzmXpt{fill: #91B23D;}#el_YIHnxlv2qUP{fill: #91B23D;}#el_tq6hGD8pa0R{fill: #EBC478;}#el_3Pe_nwhpYK8{fill: #E7D0AA;}#el_94ZOneFvQ-b{fill: #E7D0AA;}#el_L7Zuq3HBAc7{fill: #E7D0AA;}#el_LVFxYRIFHrT{fill: #E7D0AA;}#el_9HVDGPz12PO{fill: #E7D0AA;}#el_O9ti5lqu_aX{fill: #E7D0AA;}#el_5SEXCSlyPWa{fill: #131213;}#el__O0hyvS_Kto{fill: #131213;}#el_4NZK2EXomiI{fill: #131213;}#el_ePK28G0s44U{fill: #131213;}#el_NzBIL7YcFn7{fill: #131213;}#el_poUweyU5du0{fill: #131213;}#el_QHOuiUt9FGx{fill: #131213;}#el_Bua3L9gnc9h{fill: #131213;}#el_09EvWnJm-k2{fill: #131213;}#el_vDGWOlwLaO-{fill: #131213;}#el_67KDdmTUbYS{fill: #131213;}#el_weARNwcJKvu{fill: #131213;-webkit-transform: matrix(0.1531, -0.9882, 0.9882, 0.1531, 98.0691, 553.2582);transform: matrix(0.1531, -0.9882, 0.9882, 0.1531, 98.0691, 553.2582);}#el_VdhmMcuPRN_{fill: #131213;-webkit-transform: matrix(0.1531, -0.9882, 0.9882, 0.1531, 105.6464, 580.4156);transform: matrix(0.1531, -0.9882, 0.9882, 0.1531, 105.6464, 580.4156);}#el_-4UP7jng3ai{fill: #131213;}#el_VvtnaJuaMxo{fill: #AC7631;}#el_yXt7hueSF58{fill: #C1B4BE;}#el_q3ESMazyIWl{fill: #E2D2DD;}#el_kdSM5HGmU6e{fill: #374757;}#el_1QlBMp1mFMS{fill: none;}#el_UX0FriAjWnv{fill: none;}#el_8EjjWkoMLpY{fill: none;}#el_1-ytfHA3V72{fill: none;}#el_2DsRttyFkfS{fill: #93AA33;}#el_Mq_gK0zr9Wp{fill: #93AA33;}#el_r8fVN7EJTJY{fill: #80973B;}#el_rlSouNdR8nb{fill: #80973B;}#el_czd2dU3yFV3{fill: #80973B;}#el_qmDXOuGj4qj{fill: #91B23D;}#el_pg8RS8mLl1O{fill: #91B23D;}#el_S8yL36m5Gvw{fill: #91B23D;}#el_938oV5qKTP7{fill: #91B23D;}#el_-XMw1QhghnE{fill: #91B23D;}#el_efTfpgD0xNP{fill: #91B23D;}#el_e7LxBbvPA0e{fill: #91B23D;}#el_bdQ_njs9hOb{fill: #91B23D;}#el_8OGb0toQDQz{fill: #E7D0AA;}#el_1jVc3gBrtKw{fill: #E7D0AA;}#el_gsehmvnkjNH{fill: #E7D0AA;}#el_NgND9umGEcl{fill: #E7D0AA;}#el_mwOruFK7sNF{fill: #E7D0AA;}#el_UJCbN_FwYYN{fill: #E7D0AA;}#el_VMI1cJr0i8p{fill: #E7D0AA;}#el_tJzuvoOftCg{fill: #E7D0AA;}#el_Tme9edDsVyz{fill: #131213;}#el_CFW-zhN81tk{fill: #131213;}#el_9tQUaHsKgiB{fill: #131213;}#el_bow-qhILPES{fill: #131213;}#el_D_Y8oUNLInG{fill: #131213;}#el__EpNNW432YB{fill: #131213;}#el_En8wFgDssiO{fill: #131213;}#el_RmZyXqqluy9{fill: #131213;}#el_lzZHH60rDxK{fill: #131213;}#el_g8i_lZATkav{fill: #131213;}#el_qIqo5eoQW2n{fill: #131213;}#el_q59-KYIOvIO{fill: #9EB247;}#el_vynrhcQINY0{fill: #EBC478;}#el_Cj94PzCzVy_{fill: #E7D0AA;}#el_mOph4wxAoAo{fill: #E7D0AA;}#el_jMdYWzPp7Ho{fill: #E7D0AA;}#el_HiI2aVbJH8A{fill: #E7D0AA;}#el_hGyWRz5uW4o{fill: #E7D0AA;}#el_crhl107ibTg{fill: #9EB247;}#el_kN9_16IsC2B{fill: #93AA33;}#el_EvXURtiI1Cw{fill: #EBC478;}#el_OD-ih4ZqwXE{fill: #91B23D;}#el_FBbGC6UR3VB{fill: #E7D0AA;}#el_mSN5lJA_HE_{fill: #E7D0AA;}#el_8zzGrgEHK33{fill: #E7D0AA;}#el_11R2VtsAcDq{fill: #E7D0AA;}#el_AfYbfxcSwDh{fill: #E7D0AA;}#el_4kjBkDCzDlg{fill: #E7D0AA;}#el_ozu40AOc09n{fill: #131213;}#el_4aidYgtBWik{fill: #131213;}#el_V_Hcl90t1fw{fill: #131213;}#el_basi6GXFRTh{fill: #131213;}#el_rxQnQJ0oT4s{fill: #131213;}#el_h__Y4bO85UA_an_8e-Cle4yT{-webkit-animation-fill-mode: backwards;animation-fill-mode: backwards;-webkit-transform: translate(31.808940887451172px, 110.35106658935547px) translate(-31.808940887451172px, -110.35106658935547px) translate(0px, -200px);transform: translate(31.808940887451172px, 110.35106658935547px) translate(-31.808940887451172px, -110.35106658935547px) translate(0px, -200px);-webkit-animation-name: kf_el_h__Y4bO85UA_an_8e-Cle4yT;animation-name: kf_el_h__Y4bO85UA_an_8e-Cle4yT;-webkit-animation-timing-function: cubic-bezier(0, 0, 1, 1);animation-timing-function: cubic-bezier(0, 0, 1, 1);}#el_hJT08_iaI5t_an_oSPsz-ckE{-webkit-animation-fill-mode: backwards;animation-fill-mode: backwards;-webkit-transform: translate(319.699951171875px, 165.89999389648438px) rotate(0deg) translate(-319.699951171875px, -165.89999389648438px);transform: translate(319.699951171875px, 165.89999389648438px) rotate(0deg) translate(-319.699951171875px, -165.89999389648438px);-webkit-animation-name: kf_el_hJT08_iaI5t_an_oSPsz-ckE;animation-name: kf_el_hJT08_iaI5t_an_oSPsz-ckE;-webkit-animation-timing-function: cubic-bezier(0, 0, 1, 1);animation-timing-function: cubic-bezier(0, 0, 1, 1);}#el_hJT08_iaI5t_an__J-_dIC90{-webkit-animation-fill-mode: backwards;animation-fill-mode: backwards;-webkit-transform: translate(319.699951171875px, 165.89999389648438px) translate(-319.699951171875px, -165.89999389648438px) translate(0px, 0px);transform: translate(319.699951171875px, 165.89999389648438px) translate(-319.699951171875px, -165.89999389648438px) translate(0px, 0px);-webkit-animation-name: kf_el_hJT08_iaI5t_an__J-_dIC90;animation-name: kf_el_hJT08_iaI5t_an__J-_dIC90;-webkit-animation-timing-function: cubic-bezier(0, 0, 1, 1);animation-timing-function: cubic-bezier(0, 0, 1, 1);}#el_-JO097t8pHF_an_3FCm_Utt1{-webkit-animation-fill-mode: backwards;animation-fill-mode: backwards;-webkit-transform: translate(202.98458862304688px, 200.8000030517578px) translate(-202.98458862304688px, -200.8000030517578px) translate(0px, 0px);transform: translate(202.98458862304688px, 200.8000030517578px) translate(-202.98458862304688px, -200.8000030517578px) translate(0px, 0px);-webkit-animation-name: kf_el_-JO097t8pHF_an_3FCm_Utt1;animation-name: kf_el_-JO097t8pHF_an_3FCm_Utt1;-webkit-animation-timing-function: cubic-bezier(0, 0, 1, 1);animation-timing-function: cubic-bezier(0, 0, 1, 1);}#el_-JO097t8pHF_an_-3rsUJxx7{-webkit-animation-fill-mode: backwards;animation-fill-mode: backwards;-webkit-transform: translate(202.98458862304688px, 200.8000030517578px) rotate(0deg) translate(-202.98458862304688px, -200.8000030517578px);transform: translate(202.98458862304688px, 200.8000030517578px) rotate(0deg) translate(-202.98458862304688px, -200.8000030517578px);-webkit-animation-name: kf_el_-JO097t8pHF_an_-3rsUJxx7;animation-name: kf_el_-JO097t8pHF_an_-3rsUJxx7;-webkit-animation-timing-function: cubic-bezier(0, 0, 1, 1);animation-timing-function: cubic-bezier(0, 0, 1, 1);}#el_p9BAFi0VDE_an_VkvccDXUC{-webkit-animation-fill-mode: backwards;animation-fill-mode: backwards;-webkit-transform: translate(215.1999969482422px, 155.45736694335938px) scale(1, 1) translate(-215.1999969482422px, -155.45736694335938px);transform: translate(215.1999969482422px, 155.45736694335938px) scale(1, 1) translate(-215.1999969482422px, -155.45736694335938px);-webkit-animation-name: kf_el_p9BAFi0VDE_an_VkvccDXUC;animation-name: kf_el_p9BAFi0VDE_an_VkvccDXUC;-webkit-animation-timing-function: cubic-bezier(0, 0, 1, 1);animation-timing-function: cubic-bezier(0, 0, 1, 1);}#el_p9BAFi0VDE_an_MGOPru6r2{-webkit-animation-fill-mode: backwards;animation-fill-mode: backwards;-webkit-transform: translate(215.1999969482422px, 155.45736694335938px) rotate(0deg) translate(-215.1999969482422px, -155.45736694335938px);transform: translate(215.1999969482422px, 155.45736694335938px) rotate(0deg) translate(-215.1999969482422px, -155.45736694335938px);-webkit-animation-name: kf_el_p9BAFi0VDE_an_MGOPru6r2;animation-name: kf_el_p9BAFi0VDE_an_MGOPru6r2;-webkit-animation-timing-function: cubic-bezier(0, 0, 1, 1);animation-timing-function: cubic-bezier(0, 0, 1, 1);}#el_hyf1dr5xAzE_an_7WMSJMMiU{-webkit-animation-fill-mode: backwards;animation-fill-mode: backwards;-webkit-transform: translate(266.20001220703125px, 229.6999969482422px) rotate(0deg) translate(-266.20001220703125px, -229.6999969482422px);transform: translate(266.20001220703125px, 229.6999969482422px) rotate(0deg) translate(-266.20001220703125px, -229.6999969482422px);-webkit-animation-name: kf_el_hyf1dr5xAzE_an_7WMSJMMiU;animation-name: kf_el_hyf1dr5xAzE_an_7WMSJMMiU;-webkit-animation-timing-function: cubic-bezier(0, 0, 1, 1);animation-timing-function: cubic-bezier(0, 0, 1, 1);}#el_hyf1dr5xAzE_an_OmhLFOwIp{-webkit-animation-fill-mode: backwards;animation-fill-mode: backwards;-webkit-transform: translate(266.20001220703125px, 229.6999969482422px) translate(-266.20001220703125px, -229.6999969482422px) translate(0px, 0px);transform: translate(266.20001220703125px, 229.6999969482422px) translate(-266.20001220703125px, -229.6999969482422px) translate(0px, 0px);-webkit-animation-name: kf_el_hyf1dr5xAzE_an_OmhLFOwIp;animation-name: kf_el_hyf1dr5xAzE_an_OmhLFOwIp;-webkit-animation-timing-function: cubic-bezier(0, 0, 1, 1);animation-timing-function: cubic-bezier(0, 0, 1, 1);}</style>

<g id="el_p9BAFi0VDE_an_MGOPru6r2" data-animator-group="true" data-animator-type="1"><g id="el_p9BAFi0VDE_an_VkvccDXUC" data-animator-group="true" data-animator-type="2"><g id="el_p9BAFi0VDE">
	<g id="el_JBT9ivwMzO">
		
			<rect x="336.8" y="178.2" width="49.1" height="9.6" id="el_H4DV0BaQvX"/>
		<rect x="279.2" y="222.1" width="31.4" height="202.2" id="el_956BS3uy6s"/>
		<path d="M361.2,180.8c0,0,2,1.1,1.5,4.2c0,0-0.7,2.1-2.4,0.1c0,0-0.9-1.5-0.1-3.5&#10;&#9;&#9;&#9;C360.2,181.6,360.6,180.6,361.2,180.8z" id="el_YbjdF-N-En"/>
		<path d="M328,178c0,0,2,1.1,1.5,4.2c0,0-0.7,2.1-2.4,0.1c0,0-0.9-1.5-0.1-3.5C327,178.8,327.4,177.8,328,178z" id="el_9OVYa-OTI2"/>
		<path d="M339,171.8c0,0,1.8,1.2,1,4c0,0-0.8,1.9-2.2-0.1c0,0-0.7-1.4,0.2-3.2C338.1,172.4,338.5,171.5,339,171.8z" id="el_qDCEQxBQKp"/>
		<path d="M317,316.9c-0.4-4.7-0.5-9.9-0.3-15.4c0,0.5,0,1,0,1.5c-0.1,4.4,0,8.5,0.3,12.4&#10;&#9;&#9;&#9;C316.9,316,317,316.4,317,316.9z" id="el_SgGzadKTly"/>
		<path d="M316.9,315.5c-0.3-3.9-0.4-8-0.3-12.4C316.6,307.2,316.7,311.3,316.9,315.5z" id="el_V-Md1uRzI2"/>
		<path d="M241.7,204.6c-14.7,17.8-26,55.9-26.5,96.9c0,0.5,0,1,0,1.5c0,4.1,0.1,8.3,0.3,12.4c0,0.5,0.1,1,0.1,1.4&#10;&#9;&#9;&#9;c0.4,7.2,1.2,14.5,2.3,21.7c4.1,25.3,13.1,49.7,28.7,69.3c0.3,0.4,0.6,0.7,0.9,1.1c11,14.8,23.6,24.7,36.6,31.3&#10;&#9;&#9;&#9;c-0.1-0.2-0.1-0.3-0.2-0.5c1.5,0.9,3,1.7,4.4,2.5c10.3,5.5,20.1,8.8,29.1,10.6v-12.1c-4.5-1.2-7.1-2.4-7.1-2.4V384l0,0&#10;&#9;&#9;&#9;c0,0-2.2,0.8-4.1-1.7c0,0-1.1-1.9,1.5-1.8c0,0,1.6,0.3,2.6,2.1v-40.2l0,0c0,0-2.2,0.8-4.1-1.7c0,0-1.1-1.9,1.5-1.8&#10;&#9;&#9;&#9;c0,0,1.6,0.3,2.6,2.1v-39.9l0,0c0,0-2.2,0.8-4.1-1.7c0,0-1.1-1.9,1.5-1.8c0,0,1.6,0.3,2.6,2.1v-35.6c0,0-0.1,0-0.1,0.1&#10;&#9;&#9;&#9;c0,0-0.9,0.2-1.2-0.2c0,0,0,0-0.1-0.1c0,0-0.3-1.7,1.4-3.1v-1.2l0,0c0,0-2.2,0.8-4.1-1.7c0,0-1.1-1.9,1.5-1.8c0,0,1.6,0.3,2.6,2.1&#10;&#9;&#9;&#9;v-35.5c0-0.2,0-0.3,0-0.5c-0.2-3.9,1.9-7.8,5.9-11.1c4.7-3.9,11.7-6.5,19.1-7.2c4.7-0.5,9.3-0.1,13.5,1l16.9-17.3l19-19.4l5.3-5.4&#10;&#9;&#9;&#9;c-17.1-6-37.6-8.9-59.2-6.5C273.8,162.6,241.7,204.6,241.7,204.6z M276,211.7c0,0-1.3-1.1-1.2-3.3c0,0,0.1-1,0.7-1&#10;&#9;&#9;&#9;c0,0,2.3,0.4,2.7,3.5C278.2,210.9,278.3,213.1,276,211.7z M283.9,204.9c-1.2-0.7-2.4-1.5-3.6-2.4c0.2,0.5,0.4,1.1,0.4,1.8&#10;&#9;&#9;&#9;c0,0-0.2,2-2.1,0.5c0,0-1.1-1.1-0.8-3.1c0,0,0.1-0.7,0.5-0.8l-0.1-0.1c0.1,0,0.2,0,0.3,0h0.1c0,0,0.1,0,0.1,0.1&#10;&#9;&#9;&#9;c1.7,0.3,3.3,0.7,4.9,1.2c-0.2-0.5-0.4-1.2-0.4-2.1c0,0,0.1-1,0.7-1c0,0,2.3,0.4,2.7,3.5c0,0,0,0.3-0.1,0.6c1.6,0.6,3.2,1.2,4.8,2&#10;&#9;&#9;&#9;c2.1,1,4.1,2,6.1,3.2c0.4,0.2,0.8,0.5,1.2,0.7c1.6,1,3.1,2,4.5,3.3c-1.8-0.3-3.5-0.7-5.1-1.2c-0.6-0.2-1.1-0.3-1.6-0.5&#10;&#9;&#9;&#9;c-2.2-0.7-4.3-1.6-6.4-2.6C287.9,207.1,285.9,206.1,283.9,204.9z M295.4,220.4c0.2-0.6,0.3-1.3,0.5-1.9l4.3,1.1L295.4,220.4z&#10;&#9;&#9;&#9; M300.4,268.2c0,0,0.9,0.6,0.6,1.1c0,0-1.4,1.8-4.4,0.7c0,0-2-1,0.4-2.3C297,267.7,298.5,267.1,300.4,268.2z M296.6,291&#10;&#9;&#9;&#9;c0,0,1.6-0.6,3.5,0.5c0,0,0.9,0.6,0.6,1.1c0,0-1.4,1.8-4.4,0.7C296.2,293.3,294.2,292.3,296.6,291z M300.4,309.8&#10;&#9;&#9;&#9;c0,0,0.9,0.6,0.6,1.1c0,0-1.4,1.8-4.4,0.7c0,0-2-1,0.4-2.3C297,309.3,298.5,308.7,300.4,309.8z M296.6,332.6c0,0,1.6-0.6,3.5,0.5&#10;&#9;&#9;&#9;c0,0,0.9,0.6,0.6,1.1c0,0-1.4,1.8-4.4,0.7C296.2,334.9,294.2,333.8,296.6,332.6z M300.4,351.3c0,0,0.9,0.6,0.6,1.1&#10;&#9;&#9;&#9;c0,0-1.4,1.8-4.4,0.7c0,0-2-1,0.4-2.3C297,350.8,298.5,350.2,300.4,351.3z M296.6,374.1c0,0,1.6-0.6,3.5,0.5c0,0,0.9,0.6,0.6,1.1&#10;&#9;&#9;&#9;c0,0-1.4,1.8-4.4,0.7C296.2,376.4,294.2,375.4,296.6,374.1z M297,392.4c0,0,1.6-0.6,3.5,0.5c0,0,0.9,0.6,0.6,1.1&#10;&#9;&#9;&#9;c0,0-1.4,1.8-4.4,0.7C296.6,394.7,294.6,393.7,297,392.4z M298.9,387.8c0,0-1.1-1.9,1.5-1.8c0,0,1.7,0.3,2.7,2.2&#10;&#9;&#9;&#9;c0,0,0.4,1-0.1,1.3C303,389.5,300.9,390.3,298.9,387.8z M301.5,361.6c0,0,1.6-0.6,3.5,0.5c0,0,0.9,0.6,0.6,1.1&#10;&#9;&#9;&#9;c0,0-1.4,1.8-4.4,0.7C301.1,363.9,299.1,362.8,301.5,361.6z M303,348c0,0-2.2,0.8-4.1-1.7c0,0-1.1-1.9,1.5-1.8&#10;&#9;&#9;&#9;c0,0,1.7,0.3,2.7,2.2C303.1,346.7,303.6,347.7,303,348z M301.5,320c0,0,1.6-0.6,3.5,0.5c0,0,0.9,0.6,0.6,1.1c0,0-1.4,1.8-4.4,0.7&#10;&#9;&#9;&#9;C301.1,322.3,299.1,321.3,301.5,320z M303,306.4c0,0-2.2,0.8-4.1-1.7c0,0-1.1-1.9,1.5-1.8c0,0,1.7,0.3,2.7,2.2&#10;&#9;&#9;&#9;C303.1,305.1,303.6,306.1,303,306.4z M301.5,278.5c0,0,1.6-0.6,3.5,0.5c0,0,0.9,0.6,0.6,1.1c0,0-1.4,1.8-4.4,0.7&#10;&#9;&#9;&#9;C301.1,280.8,299.1,279.7,301.5,278.5z M303,264.9c0,0-2.2,0.8-4.1-1.7c0,0-1.1-1.9,1.5-1.8c0,0,1.7,0.3,2.7,2.2&#10;&#9;&#9;&#9;C303.1,263.6,303.6,264.6,303,264.9z M302.8,209.3c0,0-1.3-1.1-1.2-3.3c0,0,0.1-1,0.7-1c0,0,2.3,0.4,2.7,3.5&#10;&#9;&#9;&#9;C305.1,208.6,305.1,210.8,302.8,209.3z M293.2,214.3c0,0,0.1-1,0.7-1c0,0,2,0.4,2.6,3.1c0,0.2,0.1,0.3,0.1,0.4s0,0.9-0.5,1.2&#10;&#9;&#9;&#9;c-0.3,0.2-0.9,0.2-1.7-0.4C294.4,217.6,293.1,216.5,293.2,214.3z M300.6,417.3c0,0-1.4,1.8-4.4,0.7c0,0-2-1,0.4-2.3&#10;&#9;&#9;&#9;c0,0,1.6-0.6,3.5,0.5C300,416.1,300.9,416.7,300.6,417.3z M301.5,403.1c0,0,1.6-0.6,3.5,0.5c0,0,0.9,0.6,0.6,1.1&#10;&#9;&#9;&#9;c0,0-1.4,1.8-4.4,0.7C301.1,405.4,299.1,404.4,301.5,403.1z M306,411.7c0,0-1.4,1.8-4.4,0.7c0,0-2-1,0.3-2.3c0,0,1.6-0.6,3.5,0.5&#10;&#9;&#9;&#9;C305.5,410.6,306.3,411.2,306,411.7z M308.1,399.5c0,0,0.5,1-0.1,1.3c0,0-2.2,0.8-4.1-1.7c0,0-1.1-1.9,1.5-1.8&#10;&#9;&#9;&#9;C305.4,397.3,307.1,397.6,308.1,399.5z M306,370.2c0,0-1.4,1.8-4.4,0.7c0,0-2-1,0.3-2.3c0,0,1.6-0.6,3.5,0.5&#10;&#9;&#9;&#9;C305.5,369,306.3,369.6,306,370.2z M308.1,358c0,0,0.5,1-0.1,1.3c0,0-2.2,0.8-4.1-1.7c0,0-1.1-1.9,1.5-1.8&#10;&#9;&#9;&#9;C305.4,355.7,307.1,356.1,308.1,358z M308,330.2c0,0-1.6,0.6-3.2-0.8c-0.7,0.3-1.8,0.4-3.1-0.1c0,0-2-1,0.3-2.3c0,0,0.9-0.3,2.1,0&#10;&#9;&#9;&#9;c0.3-0.2,0.7-0.2,1.3-0.2c0,0,1.7,0.3,2.7,2.2C308.1,329,308.6,329.9,308,330.2z M308.1,316.4c0,0,0.5,1-0.1,1.3&#10;&#9;&#9;&#9;c0,0-2.2,0.8-4.1-1.7c0,0-1.1-1.9,1.5-1.8C305.4,314.2,307.1,314.5,308.1,316.4z M308,288.7c0,0-1.6,0.6-3.2-0.8&#10;&#9;&#9;&#9;c-0.7,0.3-1.8,0.4-3.1-0.1c0,0-2-1,0.3-2.3c0,0,0.9-0.3,2.1,0c0.3-0.2,0.7-0.2,1.3-0.2c0,0,1.7,0.3,2.7,2.2&#10;&#9;&#9;&#9;C308.1,287.4,308.6,288.4,308,288.7z M308.1,274.9c0,0,0.5,1-0.1,1.3c0,0-2.2,0.8-4.1-1.7c0,0-1.1-1.9,1.5-1.8&#10;&#9;&#9;&#9;C305.4,272.6,307.1,273,308.1,274.9z M308,247.1c0,0-0.3,0.1-0.7,0.1c-0.8,0-2.2-0.2-3.4-1.8c0,0-1.1-1.9,1.5-1.8&#10;&#9;&#9;&#9;c0,0,1.7,0.3,2.7,2.2c0,0,0.1,0.2,0.1,0.4C308.3,246.6,308.3,247,308,247.1z M304.9,202.4c-1.3-0.8-2.5-1.6-3.7-2.5&#10;&#9;&#9;&#9;c-0.7-0.5-1.4-1-2.1-1.6c-1.7-1.3-3.3-2.7-4.8-4.2c-0.3,0.3-0.8,0.4-1.7-0.3c0,0-0.8-0.8-0.9-2.2c-0.9-1-1.8-2-2.6-3.2&#10;&#9;&#9;&#9;c1.1,0.4,2.1,1,3.1,1.5c0.1,0,0.2-0.1,0.3-0.1c0,0,0.7,0.2,1.3,1c0.5,0.3,1,0.6,1.6,1c2,1.3,3.9,2.6,5.7,4.1&#10;&#9;&#9;&#9;c0.3,0.3,0.7,0.6,1,0.9c1.5,1.2,2.9,2.4,4.3,3.8c0.3,0.3,0.5,0.6,0.8,0.8c0-0.1,0-0.2,0-0.4c0,0,0.1-1,0.7-1c0,0,2.3,0.4,2.7,3.5&#10;&#9;&#9;&#9;c0,0,0,0.8-0.5,1.1c0.3,0.4,0.6,0.8,1,1.3C308.9,204.8,306.9,203.6,304.9,202.4z M316.9,195.9c0,0-1.3-1.1-1.2-3.3&#10;&#9;&#9;&#9;c0,0,0.1-1.1,0.7-1c0,0,2.3,0.4,2.7,3.5C319.1,195.1,319.1,197.3,316.9,195.9z M319.7,193.6c-1.6-1.7-3.1-3.6-4.4-5.5&#10;&#9;&#9;&#9;c-0.9-1.2-1.7-2.5-2.6-3.7c-0.4-0.7-0.9-1.4-1.3-2.1c-1.2-2-2.3-4.1-3.1-6.4c1.9,1.5,3.6,3.2,5.2,4.9c1.1,1.2,2.1,2.5,3.1,3.7&#10;&#9;&#9;&#9;c0.4,0.6,0.9,1.1,1.3,1.7c1.4,1.9,2.7,3.8,3.9,5.9c1.2,2,2.3,4.1,3.1,6.4C323,197,321.3,195.3,319.7,193.6z M334.6,198.8&#10;&#9;&#9;&#9;c0,0-0.7,2.1-2.4,0.1c0,0-0.9-1.5-0.1-3.5c0,0,0.4-1,1-0.8C333.1,194.6,335.1,195.7,334.6,198.8z M335,196.7&#10;&#9;&#9;&#9;c-1.2-2.2-2.1-4.5-2.9-6.8c-0.6-1.6-1-3.2-1.4-4.8c-0.2-0.7-0.4-1.5-0.6-2.2c-0.6-2.4-1-4.7-1.3-7.2c-0.3-2.4-0.5-4.9-0.4-7.4&#10;&#9;&#9;&#9;c1.2,2.2,2.1,4.5,2.9,6.8s1.4,4.6,2,7c0.2,1,0.4,2.1,0.6,3.1c0.2,1.4,0.5,2.7,0.6,4.1C334.9,191.7,335.1,194.2,335,196.7z&#10;&#9;&#9;&#9; M345.2,193.5c0,0-0.7,2.1-2.4,0.1c0,0-0.9-1.4-0.1-3.5c0,0,0.4-1,1-0.8C343.7,189.3,345.7,190.4,345.2,193.5z M352.1,190.3&#10;&#9;&#9;&#9;c0,0-0.5,1.6-1.8,0.7c-0.3,0.4-0.6,0.9-0.9,1.3c-0.7,1.1-1.5,2.2-2.4,3.2c0.4-2.3,1-4.6,1.8-6.7c0.3-0.8,0.6-1.6,0.9-2.5&#10;&#9;&#9;&#9;c0.5-1.3,1-2.6,1.6-3.9c1-2.1,2-4.1,3.2-6.1c0.1-0.1,0.2-0.2,0.2-0.4c1.1-1.8,2.3-3.6,3.8-5.3c-0.4,2.4-1,4.6-1.8,6.7&#10;&#9;&#9;&#9;c-0.7,2.2-1.6,4.3-2.6,6.3c-0.4,0.9-0.9,1.9-1.4,2.8c-0.3,0.6-0.6,1.1-0.9,1.6C352.2,188.7,352.3,189.4,352.1,190.3z M367.3,183&#10;&#9;&#9;&#9;c-1,1.5-2.2,2.9-3.3,4.3c-0.3,0.4-0.6,0.7-0.9,1.1c-1.5,1.7-3,3.5-4.6,5.1s-3.3,3.2-5.1,4.7c1.1-2.1,2.3-4,3.7-5.9&#10;&#9;&#9;&#9;c1.3-1.8,2.6-3.5,4-5.2c0.1-0.1,0.1-0.1,0.2-0.2c0.3-0.4,0.7-0.8,1-1.2l0.1-0.1c1.1-1.3,2.3-2.6,3.5-3.8c1.6-1.6,3.3-3.2,5.1-4.6&#10;&#9;&#9;&#9;C369.9,179.3,368.6,181.2,367.3,183z" id="el_OJEGxDisH4"/>
		<path d="M345.2,193.5c0.6-3.1-1.5-4.2-1.5-4.2c-0.6-0.2-1,0.8-1,0.8c-0.7,2,0.1,3.5,0.1,3.5&#10;&#9;&#9;&#9;C344.5,195.7,345.2,193.5,345.2,193.5z" id="el_fttRbZ6ImP"/>
		<path d="M350.3,191c1.2,1,1.8-0.7,1.8-0.7c0.2-0.9,0.1-1.6-0.1-2.2c-0.3,0.6-0.6,1.1-0.9,1.7&#10;&#9;&#9;&#9;C350.9,190.2,350.6,190.6,350.3,191z" id="el_rebNcDRqwT"/>
		<path d="M334.6,198.8c0.6-3.1-1.5-4.2-1.5-4.2c-0.6-0.2-1,0.8-1,0.8c-0.7,2,0.1,3.5,0.1,3.5&#10;&#9;&#9;&#9;C333.9,200.9,334.6,198.8,334.6,198.8z" id="el_C5O6IgAL-q"/>
		<path d="M319.1,195.1c0,0,0,2.2-2.2,0.8c0,0-1.3-1.1-1.2-3.3c0,0,0.1-1.1,0.7-1C316.4,191.5,318.7,192,319.1,195.1z" id="el_z62ihzAsPYW"/>
		<path d="M305.1,208.6c0,0,0,2.2-2.2,0.8c0,0-1.3-1.1-1.2-3.3c0,0,0.1-1,0.7-1C302.3,205,304.6,205.4,305.1,208.6z" id="el_fkTs14oEKFh"/>
		<path d="M286.7,202.6c0,0,0,0.3-0.1,0.6c-0.5-0.2-1.1-0.4-1.6-0.6c-0.4-0.2-0.9-0.3-1.3-0.4c-0.2-0.5-0.4-1.2-0.4-2.1&#10;&#9;&#9;&#9;c0,0,0.1-1,0.7-1C284,199.1,286.3,199.5,286.7,202.6z" id="el_3sxn-sXUO26"/>
		<path d="M310.7,203.4c0,0,0,0.8-0.5,1.1c-0.9-1.2-1.9-2.2-2.9-3.3c0-0.1,0-0.2,0-0.4c0,0,0.1-1,0.7-1&#10;&#9;&#9;&#9;C308,199.8,310.3,200.2,310.7,203.4z" id="el_xuY2MzIEt6W"/>
		<path d="M296.5,216.4c-0.1,0.5-0.3,1.1-0.4,1.6c-0.3,0.2-0.9,0.2-1.7-0.4c0,0-1.3-1.1-1.2-3.3c0,0,0.1-1,0.7-1&#10;&#9;&#9;&#9;C293.9,213.3,296,213.7,296.5,216.4z" id="el_0Ipsxzegn8Y"/>
		<path d="M278.2,210.9c0,0,0,2.2-2.2,0.8c0,0-1.3-1.1-1.2-3.3c0,0,0.1-1,0.7-1C275.6,207.3,277.8,207.7,278.2,210.9z" id="el_lQOPQQnmIs-"/>
		<path d="M293.9,190.7c-0.5-0.3-1.1-0.6-1.6-0.9c0.1,0,0.2-0.1,0.3-0.1C292.5,189.7,293.3,189.9,293.9,190.7z" id="el_LdSx04xIoWm"/>
		<path d="M294.4,194.1c-0.3,0.3-0.8,0.4-1.7-0.3c0,0-0.8-0.8-0.9-2.2c0.7,0.7,1.4,1.5,2.1,2.2&#10;&#9;&#9;&#9;C294,193.8,294.2,193.9,294.4,194.1z" id="el_wWcRVngwN8j"/>
		<path d="M278.7,201c-0.1,0-0.2,0-0.2,0H278.7C278.6,200.9,278.6,200.9,278.7,201z" id="el_68EniKd09nZ"/>
		<path d="M280.8,204.4c0,0-0.2,2-2.1,0.5c0,0-1.1-1.1-0.8-3.1c0,0,0.1-0.7,0.5-0.8c0.6,0.6,1.3,1.1,2,1.6&#10;&#9;&#9;&#9;C280.6,203,280.7,203.6,280.8,204.4z" id="el_lxVaghZ7Ua4"/>
		<path d="M317.5,277.5v6.9c-2.4-0.2-4.8-0.4-7.1-0.7v-6.9C312.7,277.1,315.1,277.3,317.5,277.5z" id="el_QMLO7btxIKa"/>
		<path d="M317.5,236.9v17l-5.1,6.1c-0.5-0.2-1,0.1-1,0.1c-0.4,0.2-0.7,0.4-1,0.7v-1.2c0.5-0.3,0.1-1.3,0.1-1.3&#10;&#9;&#9;&#9;s0-0.1-0.1-0.1v-14L317.5,236.9z" id="el_2TWgvSGt71-"/>
		<path d="M317.5,253.9v23.6c-2.4-0.2-4.8-0.4-7.1-0.7v-12.7c1.9-0.7,2.5-2.2,2.5-2.2c0.2-1.2-0.1-1.7-0.5-1.8&#10;&#9;&#9;&#9;L317.5,253.9z" id="el_g4ELRskk0XB"/>
		<path d="M311.3,260.1c-0.4,0.2-0.7,0.4-1,0.7v1.7l2-2.4C311.9,259.8,311.3,260.1,311.3,260.1z" id="el_1jiQTglgsF1"/>
		<path d="M310.4,264.1c1.9-0.7,2.5-2.3,2.5-2.3c0.3-1.2-0.1-1.7-0.5-1.8l-2,2.4V264.1z" id="el_GkvqrQoop9H"/>
		<path d="M357.1,192.3c-1.3,1.9-2.6,3.8-3.7,5.9c1.8-1.4,3.5-3,5.1-4.6s3.1-3.3,4.6-5.1c0.3-0.4,0.6-0.7,0.9-1.1&#10;&#9;&#9;&#9;c-1-0.1-1.9-0.2-2.9-0.2C359.7,188.8,358.3,190.5,357.1,192.3z" id="el_rQZBXyTGETQ"/>
		<path d="M356.9,177.3c0.7-2.2,1.4-4.4,1.8-6.7c-1.5,1.7-2.7,3.5-3.8,5.3l-3.4,10.5c0.5,0,1,0.1,1.5,0.1&#10;&#9;&#9;&#9;c0.5-0.9,0.9-1.8,1.4-2.8C355.3,181.6,356.2,179.5,356.9,177.3z" id="el_NLmZ8G0OI7D"/>
		<path d="M350.6,186.1c0,0,0.1,0.1,0.3,0.2c0.2,0,0.3,0,0.5,0l3.4-10.5c-0.1,0.1-0.2,0.3-0.2,0.4c-1.2,2-2.2,4-3.2,6.1&#10;&#9;&#9;&#9;c-0.6,1.3-1.1,2.6-1.6,3.9c0.1,0,0.2,0,0.3,0C350.2,186.1,350.4,186,350.6,186.1z" id="el_0_cPovOe4lw"/>
		<path d="M351.3,186.7l0.1-0.4c-0.2,0-0.3,0-0.5,0C351,186.4,351.2,186.6,351.3,186.7z" id="el_6ydsRGxqwvq"/>
		<path d="M350,190.7l-0.5,1.6c0.3-0.4,0.6-0.9,0.9-1.3C350.2,190.9,350.1,190.8,350,190.7z" id="el_jOdyk8kb4S0"/>
		<path d="M351.3,186.7c0.3,0.3,0.6,0.8,0.7,1.4c0.3-0.5,0.6-1.1,0.9-1.6c-0.5,0-1-0.1-1.5-0.1L351.3,186.7z" id="el_m9gcXOoFHx_"/>
		<path d="M349.8,190.4c0,0-0.9-1.5-0.1-3.5c0,0,0.2-0.4,0.4-0.6c-0.1,0-0.2,0-0.3,0c-0.3,0.8-0.6,1.6-0.9,2.5&#10;&#9;&#9;&#9;c-0.7,2.2-1.4,4.4-1.8,6.7c0.9-1,1.7-2.1,2.4-3.2l0.5-1.6C349.9,190.6,349.8,190.5,349.8,190.4z" id="el_tHMVfLOgw4B"/>
		<path d="M350.6,186.1c-0.2-0.1-0.4,0-0.6,0.1c0.3,0,0.6,0,0.9,0.1C350.8,186.2,350.6,186.1,350.6,186.1z" id="el_yOjAct4iubR"/>
		<path d="M350.9,186.3c-0.3,0-0.6,0-0.9-0.1c-0.3,0.2-0.4,0.6-0.4,0.6c-0.7,2,0.1,3.5,0.1,3.5c0.1,0.1,0.2,0.2,0.3,0.3&#10;&#9;&#9;&#9;l1.3-4C351.2,186.6,351,186.4,350.9,186.3z" id="el_qjF81O3q0jg"/>
		<path d="M350,190.7c0.1,0.1,0.2,0.2,0.3,0.3c0.3-0.4,0.5-0.8,0.8-1.2c0.3-0.5,0.6-1.1,0.9-1.7&#10;&#9;&#9;&#9;c-0.2-0.6-0.5-1.1-0.7-1.4L350,190.7z" id="el_QQDQueARwto"/>
		<path d="M303.1,212.4c-1.8-0.3-3.5-0.7-5.1-1.2c0.2-0.7,0.4-1.4,0.6-2.1C300.1,210.1,301.6,211.2,303.1,212.4z" id="el_ANxDdyLkF7Y"/>
		<path d="M278.5,200.9c-0.1,0-0.1,0-0.2,0l-0.1-0.1C278.3,200.9,278.4,200.9,278.5,200.9z" id="el_MUDPWe_tMue"/>
		<path d="M298.6,209.1c-0.2,0.7-0.4,1.4-0.6,2.1c-0.6-0.2-1.1-0.3-1.6-0.5c-2.2-0.7-4.3-1.6-6.4-2.6&#10;&#9;&#9;&#9;c-2.1-1-4.1-2-6.1-3.2c-1.2-0.7-2.4-1.5-3.6-2.4c-0.5-1-1.3-1.4-1.6-1.6c1.7,0.3,3.3,0.7,4.9,1.2c0.3,0.8,0.8,1.2,0.8,1.2&#10;&#9;&#9;&#9;c1.4,0.9,1.9,0.4,2.1-0.2c1.6,0.6,3.2,1.2,4.8,2c2.1,1,4.1,2,6.1,3.2C297.8,208.6,298.2,208.9,298.6,209.1z" id="el_nRIiXzeYHJb"/>
		<path d="M284.5,203.4c1.4,0.9,1.9,0.4,2.1-0.2c-0.5-0.2-1.1-0.4-1.6-0.6c-0.4-0.2-0.9-0.3-1.3-0.4&#10;&#9;&#9;&#9;C284,203,284.5,203.4,284.5,203.4z" id="el_6VJo3ygFtm7"/>
		<path d="M278.7,201c-0.1,0-0.1,0-0.2,0s-0.1,0-0.2,0c0.6,0.6,1.3,1.1,2,1.6C279.8,201.5,279,201.1,278.7,201z" id="el_ur252mtWRZC"/>
		<path d="M311.2,205.8c-2.2-0.9-4.3-2.1-6.3-3.4c-1.3-0.8-2.5-1.6-3.7-2.5c0.3-1.1,0.6-2.2,1-3.2&#10;&#9;&#9;&#9;c1.5,1.2,2.9,2.4,4.3,3.8c0.3,0.3,0.5,0.6,0.8,0.8c0.1,1.9,1.2,2.9,1.2,2.9c0.9,0.6,1.4,0.6,1.8,0.3&#10;&#9;&#9;&#9;C310.5,204.9,310.9,205.3,311.2,205.8z" id="el_Bi7Wb1XH0L2"/>
		<path d="M302.2,196.6c-0.3,1-0.6,2.1-1,3.2c-0.7-0.5-1.4-1-2.1-1.6c-1.7-1.3-3.3-2.7-4.8-4.2c0.3-0.3,0.4-0.9,0.4-0.9&#10;&#9;&#9;&#9;c-0.1-1.2-0.4-1.9-0.8-2.5c0.5,0.3,1,0.6,1.6,1c2,1.3,3.9,2.6,5.7,4.1C301.5,196,301.9,196.3,302.2,196.6z" id="el_2q-aM-Ouw19"/>
		<path d="M292.3,189.8c-0.4,0.2-0.5,0.8-0.5,0.8c0,0.3,0,0.6,0,0.9c-0.9-1-1.8-2-2.6-3.2&#10;&#9;&#9;&#9;C290.2,188.7,291.3,189.3,292.3,189.8z" id="el_7408jCVJMWP"/>
		<path d="M308.5,204.2c0.9,0.6,1.4,0.6,1.8,0.3c-0.9-1.2-1.9-2.2-2.9-3.3C307.4,203.2,308.5,204.2,308.5,204.2z" id="el_8d17zrwcUhQ"/>
		<path d="M294.7,193.2c-0.1-1.2-0.4-1.9-0.8-2.5c-0.5-0.3-1.1-0.6-1.6-0.9c-0.4,0.2-0.5,0.8-0.5,0.8c0,0.3,0,0.6,0,0.9&#10;&#9;&#9;&#9;c0.7,0.7,1.4,1.5,2.1,2.2c0.1,0.1,0.3,0.3,0.5,0.4C294.7,193.8,294.7,193.2,294.7,193.2z" id="el_4wXx2gVaKwU"/>
		<path d="M366.3,214.3c-0.1,0.1-0.2,0.1-0.2,0.1c0,0.1,0,0.1-0.1,0.2c-0.2-0.1-0.5-0.1-0.7-0.2&#10;&#9;&#9;&#9;C365.7,214.4,366,214.4,366.3,214.3z" id="el_RrOBNNEIxiB"/>
		<path d="M316.5,184.5c-1.3,0-2.5-0.1-3.8-0.1c-0.4-0.7-0.9-1.4-1.3-2.1c-1.2-2-2.3-4.1-3.1-6.4&#10;&#9;&#9;&#9;c1.9,1.5,3.6,3.2,5.2,4.9C314.5,182,315.5,183.2,316.5,184.5z" id="el_82mT3c7TNr8"/>
		<path d="M324.9,198.5c-1.9-1.5-3.6-3.2-5.2-4.9c-1.6-1.7-3.1-3.6-4.4-5.5c-0.9-1.2-1.7-2.5-2.6-3.7&#10;&#9;&#9;&#9;c1.3,0,2.5,0.1,3.8,0.1c0.4,0.6,0.9,1.1,1.3,1.7c1.4,1.9,2.7,3.8,3.9,5.9C322.9,194.1,324,196.2,324.9,198.5z" id="el_vJPRkH22lz2"/>
		<path d="M331.3,175.1c-0.8-2.3-1.7-4.6-2.9-6.8c-0.1,2.5,0.1,5,0.4,7.4s0.8,4.8,1.3,7.2c0.2,0.7,0.4,1.5,0.6,2.2&#10;&#9;&#9;&#9;c1.1,0.1,2.1,0.1,3.2,0.2c-0.2-1-0.4-2.1-0.6-3.1C332.7,179.8,332.1,177.4,331.3,175.1z" id="el_aVcqro8p5Ub"/>
		<path d="M332.2,189.9c0.8,2.3,1.7,4.6,2.9,6.8c0.1-2.5-0.1-5-0.4-7.4c-0.2-1.4-0.4-2.7-0.7-4.1&#10;&#9;&#9;&#9;c-1.1-0.1-2.1-0.1-3.2-0.2C331.1,186.7,331.6,188.3,332.2,189.9z" id="el_ocmk9hko9Lu"/>
		<path d="M310.4,258.2v1.4l0,0c0,0-2.2,0.8-4.1-1.7c0,0-1.1-1.9,1.5-1.8C307.7,256,309.3,256.4,310.4,258.2z" id="el_Oy6ePHqow6N"/>
		<path d="M310.4,258.3c0,0,0-0.1-0.1-0.1v1.4C310.9,259.2,310.4,258.3,310.4,258.3z" id="el_fTim4XT2U94"/>
		<path d="M310.4,299.8c0,0,0-0.1-0.1-0.1v1.4C310.9,300.7,310.4,299.8,310.4,299.8z" id="el_zBUpkGC9BDK"/>
		<path d="M335.3,203.8c-7.4,0.7-14.3,3.3-19.1,7.2c-4,3.3-6.1,7.2-5.9,11.1c0,0.2,0,0.3,0,0.5v21.5v39.5v16v1.4v40.2&#10;&#9;&#9;&#9;v1.4v40.2v1.4V437v1.5c0,0,2.6,1.2,7.1,2.4v-3.3V284.4v-47.5l5.1-5.3l5-5.1l21.2-21.7C344.7,203.8,340.1,203.4,335.3,203.8z" id="el_5FtODrwBO09"/>
		<rect x="294.9" y="218.4" width="5.9" height="3.7" id="el_bYTO2O0fzYp"/>
		<path d="M296,194c0,0,0,2.2-2.2,0.8c0,0-1.3-1.1-1.2-3.3c0,0,0.1-1,0.7-1C293.3,190.5,295.6,190.9,296,194z" id="el__4_NewhZ7rv"/>
		<path d="M352.1,189.9c0,0,0,2.2-2.2,0.8c0,0-1.3-1.1-1.2-3.3c0,0,0.1-1,0.7-1C349.4,186.3,351.7,186.8,352.1,189.9z" id="el_s0WwyFaUiAm"/>
	</g>
	<polygon points="390.1,162.6 390.1,392.2 317.5,453 317.5,236.9 &#9;" id="el_5pLsB5wuOTk"/>
	<polygon points="333.2,225.5 334.7,424.3 317.5,440.9 317.5,236.9 332.2,220.4 &#9;" id="el_l-VwkTAn38w"/>
	<polygon points="348.8,204.8 348.8,409.9 317.5,440.9 310.4,438.4 310.4,222.1 &#9;" id="el_NJEmchjxA3g"/>
</g></g></g>
<g id="el_hJT08_iaI5t_an__J-_dIC90" data-animator-group="true" data-animator-type="0"><g id="el_hJT08_iaI5t_an_oSPsz-ckE" data-animator-group="true" data-animator-type="1"><g id="el_hJT08_iaI5t">
	<rect x="319.8" y="242" width="34.8" height="213.8" id="el_SNXt4aLx3nQ"/>
	<rect x="354.6" y="246.3" width="26.8" height="195.4" id="el__8roqvrJhUn"/>
	<path d="M376.2,457.5c0,0-0.4,0.1-1.1,0.4c0.8-0.4,1.1-0.6,1.1-0.6l59-47.4c23.2-44.6-8.8-154.1-8.8-154.1l-0.5-0.1&#10;&#9;&#9;c11.4-12,17.4-26.1,16.1-40.5c-0.5-5.5-2.1-10.8-4.6-15.8C446.3,211.7,547.8,358.9,376.2,457.5z" id="el_LLrMnp8-1MS"/>
	<path d="M442.1,215.2c-0.5-5.5-2.1-10.8-4.6-15.8c-7.4-14.7-23-26.5-43.3-33.5l-5.4,5.6l-19.5,19.9l-17.4,17.8&#10;&#9;&#9;c2.2,0.6,4.3,1.3,6.2,2.3c5.2,2.7,8.3,6.5,8.7,10.8c0.4,4.1-1.8,8.3-6.1,11.9c-1.6,1.4-3.6,2.5-5.7,3.6l12.5,3.2l14.3,3.6&#10;&#9;&#9;c0-0.2,0-0.5,0.2-0.6c0,0,1.9-0.8,3.8,1.4c0,0,0.1,0.1,0.1,0.3l19,4.8l13.1,3.3l7.9,2C437.3,243.7,443.4,229.7,442.1,215.2z&#10;&#9;&#9; M381.2,200.6c0,0,1.3-1.7,4-0.6c0,0,1.8,1-0.3,2.1c0,0-1.4,0.5-3.1-0.5C381.7,201.7,380.9,201.1,381.2,200.6z M366.3,212.4&#10;&#9;&#9;c2-1.3,4.1-2.3,6.3-3.3c2.1-1,4.3-1.8,6.5-2.7c2.2-0.8,4.4-1.5,6.7-2.2c2.3-0.6,4.5-1.2,6.9-1.5c-2,1.3-4.1,2.3-6.3,3.3&#10;&#9;&#9;c-2.1,1-4.3,1.8-6.5,2.7c-2.2,0.8-4.4,1.5-6.7,2.2C371,211.5,368.7,212.1,366.3,212.4z M382.8,214.4c0,0-1.4,0.5-3.1-0.5&#10;&#9;&#9;c0,0-0.8-0.5-0.5-1c0,0,1.3-1.7,4-0.6C383.2,212.2,385,213.2,382.8,214.4z M387.5,242.5c-2.2-0.8-4.3-1.8-6.5-2.8&#10;&#9;&#9;c-1.9-0.9-3.8-1.9-5.7-2.9c-0.5,0-1.3-0.2-2.1-0.7c0,0-0.4-0.3-0.5-0.7c-1.4-0.8-2.7-1.6-4-2.5c1.7,0.5,3.3,1,4.9,1.7&#10;&#9;&#9;c0.6-0.2,1.6-0.4,2.8,0.3c0,0,0.7,0.5,0.6,1.1c1.6,0.7,3.2,1.4,4.8,2.1c2.1,1,4.2,2,6.3,3.1c2.1,1.1,4.1,2.3,6.1,3.6&#10;&#9;&#9;C391.9,244.2,389.7,243.4,387.5,242.5z M373.6,230c0,0,1.3-1.6,4-0.6c0,0,1.8,1-0.3,2.1c0,0-1.4,0.5-3.1-0.5&#10;&#9;&#9;C374.1,231,373.3,230.5,373.6,230z M402.2,223.2c-1.3,0-2.6,0-3.9,0c-3.3-0.1-6.6-0.3-9.9-0.6c-3.3-0.3-6.6-0.8-9.8-1.3&#10;&#9;&#9;c-1.7-0.3-3.3-0.6-5-1c-0.2,0.2-0.4,0.3-0.7,0.5c0,0-1.4,0.4-2.8-0.7c0,0-0.5-0.4-0.5-0.8c-0.2-0.1-0.5-0.1-0.7-0.2&#10;&#9;&#9;c0.3,0,0.6-0.1,0.9-0.1c0.4-0.3,1.5-1,3.3-0.2c1.9-0.1,3.8-0.1,5.7,0c2.8,0.1,5.5,0.2,8.2,0.5c-0.2-0.1-0.4-0.2-0.6-0.3&#10;&#9;&#9;c0,0-0.8-0.5-0.5-1c0,0,1.3-1.6,4-0.6c0,0,1.8,1-0.3,2.1c0,0,0,0-0.1,0c3,0.3,6,0.7,9,1.2c1.1,0.2,2.2,0.4,3.3,0.6&#10;&#9;&#9;c2.1,0.4,4.3,0.9,6.4,1.6C406.3,223,404.2,223.1,402.2,223.2z" id="el_kJ8_NQlr8l-"/>
	<path d="M392.8,229.7c0,0-1.4,0.5-3.1-0.5c0,0-0.8-0.5-0.5-1c0,0,1.3-1.7,4-0.6C393.1,227.6,394.9,228.5,392.8,229.7z" id="el_8LhFXk3OBGC"/>
	<path d="M386,245.5l-4.1-1c0-0.2,0-0.5,0.2-0.6c0,0,1.9-0.8,3.8,1.4C385.8,245.3,385.9,245.4,386,245.5z" id="el_0EdtnVBv6aZ"/>
	<path d="M384.9,202.1c0,0-1.4,0.5-3.1-0.5c0,0-0.8-0.5-0.5-1c0,0,1.3-1.7,4-0.6C385.2,200,387,201,384.9,202.1z" id="el_3AfUwBBf-c2"/>
	<path d="M389.7,219.3L389.7,219.3c-0.4,0-0.6,0-0.9-0.1c-0.6-0.1-1.1-0.1-1.7-0.1c-0.2-0.1-0.4-0.2-0.6-0.3&#10;&#9;&#9;c0,0-0.8-0.5-0.5-1c0,0,1.3-1.6,4-0.6C390,217.2,391.8,218.2,389.7,219.3z" id="el_wWa_6UjkXLn"/>
	<path d="M377.2,231.5c0,0-1.4,0.5-3.1-0.5c0,0-0.8-0.5-0.5-1c0,0,1.3-1.6,4-0.6C377.5,229.3,379.3,230.3,377.2,231.5z" id="el_5Xf0x3qVLLz"/>
	<path d="M382.8,214.4c0,0-1.4,0.5-3.1-0.5c0,0-0.8-0.5-0.5-1c0,0,1.3-1.7,4-0.6C383.2,212.2,385,213.2,382.8,214.4z" id="el_pP9m4uRLYal"/>
	<path d="M375.3,236.8c-0.5,0-1.3-0.2-2.1-0.7c0,0-0.4-0.3-0.5-0.7c0.7,0.4,1.3,0.8,2,1.1&#10;&#9;&#9;C374.9,236.7,375.1,236.8,375.3,236.8z" id="el_TcmIJS707Ae"/>
	<path d="M377,235.9c-0.6-0.2-1.1-0.5-1.6-0.7c-0.6-0.2-1.2-0.4-1.8-0.7c0.6-0.2,1.6-0.4,2.8,0.3&#10;&#9;&#9;C376.5,234.9,377.2,235.3,377,235.9z" id="el_1mUhDOtj-1G"/>
	<path d="M426.4,255.8l-0.5-0.1l-7.9-2l-13.1-3.3l-19-4.8c0.2,0.5,0.4,1.5-1.4,1.5c0,0-1.5-0.2-2.5-1.9&#10;&#9;&#9;c0,0-0.1-0.3-0.2-0.6l-14.3-3.6l-12.5-3.2c-0.2,0.1-0.3,0.2-0.5,0.3l-0.1,44.3v7.1l-0.5,162c-14.6,3.5-26.8,1.7-34.1-0.2v12.4&#10;&#9;&#9;c28.9,5.8,50.2-3.2,55.3-5.7c0.8-0.4,1.1-0.6,1.1-0.6l59-47.4C458.4,365.4,426.4,255.8,426.4,255.8z M369.3,258.8&#10;&#9;&#9;c0,0,1.5,0.9,1.9,3.1c0,0,0.1,1.1-0.5,1.2c-0.1,0-2.4,0-3.4-3C367.2,260.1,366.8,257.8,369.3,258.8z M368.6,402.9&#10;&#9;&#9;c-2,2.6-4.2,1.7-4.2,1.7c-0.6-0.3-0.1-1.3-0.1-1.3c1.1-2,2.8-2.3,2.8-2.3C369.7,400.9,368.6,402.9,368.6,402.9z M370.6,407.5&#10;&#9;&#9;c2.4,1.3,0.4,2.4,0.4,2.4c-3,1.1-4.5-0.7-4.5-0.7c-0.3-0.6,0.6-1.2,0.6-1.2C368.9,406.9,370.6,407.5,370.6,407.5z M359.2,331&#10;&#9;&#9;c-0.6-0.3-0.1-1.3-0.1-1.3c1.1-2,2.8-2.3,2.8-2.3c2.7-0.1,1.6,1.9,1.6,1.9C361.4,331.8,359.2,331,359.2,331z M361.9,340.2&#10;&#9;&#9;c0.7,0,1.1,0.1,1.4,0.2c1.3-0.3,2.2,0.1,2.2,0.1c2.4,1.3,0.4,2.4,0.4,2.4c-1.4,0.5-2.5,0.4-3.2,0.1c-1.7,1.4-3.3,0.8-3.3,0.8&#10;&#9;&#9;c-0.6-0.3-0.1-1.3-0.1-1.3C360.2,340.6,361.9,340.2,361.9,340.2z M362.5,300.4c-1.7,1.4-3.3,0.8-3.3,0.8c-0.6-0.3-0.1-1.3-0.1-1.3&#10;&#9;&#9;c1.1-2,2.8-2.3,2.8-2.3c0.7,0,1.1,0.1,1.4,0.2c1.3-0.3,2.2,0.1,2.2,0.1c2.4,1.3,0.4,2.4,0.4,2.4&#10;&#9;&#9;C364.3,300.8,363.3,300.7,362.5,300.4z M359.7,288.5c-0.3,0-0.5-0.1-0.5-0.1c-0.6-0.3-0.1-1.3-0.1-1.3c1.1-2,2.8-2.3,2.8-2.3&#10;&#9;&#9;c2.7-0.1,1.6,1.9,1.6,1.9c-0.6,0.8-1.2,1.2-1.8,1.5C360.8,288.5,360.2,288.5,359.7,288.5z M361.1,269.6c-2,2.5-4.2,1.7-4.2,1.7&#10;&#9;&#9;c-0.6-0.3-0.1-1.3-0.1-1.3c1.1-2,2.8-2.3,2.8-2.3C362.2,267.6,361.1,269.6,361.1,269.6z M356.7,312.6c1.1-2,2.8-2.3,2.8-2.3&#10;&#9;&#9;c2.7-0.1,1.6,1.9,1.6,1.9c-2,2.5-4.2,1.7-4.2,1.7C356.3,313.6,356.7,312.6,356.7,312.6z M356.7,355.2c1.1-2,2.8-2.3,2.8-2.3&#10;&#9;&#9;c2.7-0.1,1.6,1.9,1.6,1.9c-2,2.5-4.2,1.7-4.2,1.7C356.3,356.2,356.7,355.2,356.7,355.2z M359.1,372.3c1.1-2,2.8-2.3,2.8-2.3&#10;&#9;&#9;c2.7-0.1,1.6,1.9,1.6,1.9c-2,2.5-4.2,1.7-4.2,1.7C358.6,373.2,359.1,372.3,359.1,372.3z M361.8,383.6c1.9-1.1,3.6-0.5,3.6-0.5&#10;&#9;&#9;c2.4,1.3,0.4,2.4,0.4,2.4c-3,1.1-4.5-0.7-4.5-0.7C360.9,384.2,361.8,383.6,361.8,383.6z M366.3,378.3c-3,1.1-4.5-0.7-4.5-0.7&#10;&#9;&#9;c-0.3-0.6,0.6-1.2,0.6-1.2c1.9-1.1,3.6-0.5,3.6-0.5C368.3,377.3,366.3,378.3,366.3,378.3z M366.4,366.6c-0.3-0.6,0.6-1.2,0.6-1.2&#10;&#9;&#9;c1.9-1.1,3.6-0.5,3.6-0.5c2.4,1.3,0.4,2.4,0.4,2.4C367.9,368.5,366.4,366.6,366.4,366.6z M368.6,360.3c-2,2.5-4.2,1.7-4.2,1.7&#10;&#9;&#9;c-0.6-0.3-0.1-1.3-0.1-1.3c1.1-2,2.8-2.3,2.8-2.3C369.7,358.3,368.6,360.3,368.6,360.3z M366.3,335.7c-3,1.1-4.5-0.7-4.5-0.7&#10;&#9;&#9;c-0.3-0.6,0.6-1.2,0.6-1.2c1.9-1.1,3.6-0.5,3.6-0.5C368.3,334.7,366.3,335.7,366.3,335.7z M366.4,324c-0.3-0.6,0.6-1.2,0.6-1.2&#10;&#9;&#9;c1.9-1.1,3.6-0.5,3.6-0.5c2.4,1.3,0.4,2.4,0.4,2.4C367.9,325.8,366.4,324,366.4,324z M368.6,317.7c-2,2.5-4.2,1.7-4.2,1.7&#10;&#9;&#9;c-0.6-0.3-0.1-1.3-0.1-1.3c1.1-2,2.8-2.3,2.8-2.3C369.7,315.7,368.6,317.7,368.6,317.7z M366.3,293.1c-3,1.1-4.5-0.7-4.5-0.7&#10;&#9;&#9;c-0.3-0.6,0.6-1.2,0.6-1.2c1.9-1.1,3.6-0.5,3.6-0.5C368.3,292.1,366.3,293.1,366.3,293.1z M364.2,275.5c1.1-2,2.8-2.3,2.8-2.3&#10;&#9;&#9;c2.7-0.1,1.6,1.9,1.6,1.9c-2,2.5-4.2,1.7-4.2,1.7C363.8,276.5,364.2,275.5,364.2,275.5z M366.4,281.4c-0.3-0.6,0.6-1.2,0.6-1.2&#10;&#9;&#9;c1.9-1.1,3.6-0.5,3.6-0.5c2.4,1.3,0.4,2.4,0.4,2.4C367.9,283.2,366.4,281.4,366.4,281.4z M367.8,267.7c2.7,1.2,2.5,3.4,2.5,3.4&#10;&#9;&#9;c-0.2,0.6-1.1,0.4-1.1,0.4c-2-0.5-2.7-2-2.7-2C365.8,267.1,367.8,267.7,367.8,267.7z M364,248.7c2.8,1.6,2.4,3.9,2.4,3.9&#10;&#9;&#9;c-0.2,0.6-1.3,0.3-1.3,0.3c-2.1-0.7-2.7-2.4-2.7-2.4C361.9,247.8,364,248.7,364,248.7z M359.1,257.3c1.1-2,2.8-2.3,2.8-2.3&#10;&#9;&#9;c2.7-0.1,1.6,1.8,1.6,1.8c-2,2.6-4.2,1.7-4.2,1.7C358.6,258.3,359.1,257.3,359.1,257.3z M354.6,256.8c0,0-0.5-2.3,2.1-1.2&#10;&#9;&#9;c0,0,1.5,0.9,1.9,3.1c0,0,0.1,1.1-0.5,1.2C357.9,259.8,355.6,259.7,354.6,256.8z M356.8,399.1c-0.6-0.3-0.1-1.3-0.1-1.3&#10;&#9;&#9;c1.1-2,2.8-2.3,2.8-2.3c2.7-0.1,1.6,1.8,1.6,1.8C359.1,399.9,356.8,399.1,356.8,399.1z M359.2,416.2c-0.6-0.3-0.1-1.3-0.1-1.3&#10;&#9;&#9;c1.1-2,2.8-2.3,2.8-2.3c2.7-0.1,1.6,1.9,1.6,1.9C361.4,417,359.2,416.2,359.2,416.2z M365.8,428.1c-3,1.1-4.5-0.7-4.5-0.7&#10;&#9;&#9;c-0.3-0.6,0.6-1.2,0.6-1.2c1.9-1.1,3.6-0.5,3.6-0.5C367.8,427,365.8,428.1,365.8,428.1z M366.3,420.9c-3,1.1-4.5-0.7-4.5-0.7&#10;&#9;&#9;c-0.3-0.6,0.6-1.2,0.6-1.2c1.9-1.1,3.6-0.5,3.6-0.5C368.3,419.9,366.3,420.9,366.3,420.9z M371.3,433.8c-3,1.1-4.5-0.7-4.5-0.7&#10;&#9;&#9;c-0.3-0.6,0.6-1.2,0.6-1.2c1.9-1.1,3.6-0.5,3.6-0.5C373.4,432.7,371.3,433.8,371.3,433.8z M371.3,391.2c-3,1.1-4.5-0.7-4.5-0.7&#10;&#9;&#9;c-0.3-0.6,0.6-1.2,0.6-1.2c1.9-1.1,3.6-0.5,3.6-0.5C373.4,390.1,371.3,391.2,371.3,391.2z M371.3,348.6c-3,1.1-4.5-0.7-4.5-0.7&#10;&#9;&#9;c-0.3-0.6,0.6-1.2,0.6-1.2c1.9-1.1,3.6-0.5,3.6-0.5C373.4,347.5,371.3,348.6,371.3,348.6z M371.3,306c-3,1.1-4.5-0.7-4.5-0.7&#10;&#9;&#9;c-0.3-0.6,0.6-1.2,0.6-1.2c1.9-1.1,3.6-0.5,3.6-0.5C373.4,304.9,371.3,306,371.3,306z M371.9,246.2c0,0-0.9-0.4-1.2-1.7&#10;&#9;&#9;c0,0-0.1-0.6,0.2-0.7c0,0,0.1,0,0.3,0c0.4,0.1,1.2,0.3,1.7,1.5c0,0,0,0.1,0.1,0.1C373,245.4,373.4,246.7,371.9,246.2z" id="el_mg_d-mVHBnK"/>
	<path d="M384.5,247c0,0-1.5-0.2-2.5-1.9c0,0-0.1-0.3-0.2-0.6l4.1,1C386.2,246,386.4,247,384.5,247z" id="el_O0MbdmLJOVu"/>
	<path d="M370.6,263.1c-0.1,0-2.4,0-3.4-3c0,0-0.5-2.3,2.1-1.2c0,0,1.5,0.9,1.9,3.1C371.2,261.9,371.3,263,370.6,263.1z&#10;&#9;&#9;" id="el_1y0pd-hkfva"/>
	<path d="M372.9,245.3l-1.7-1.4C371.6,243.9,372.4,244.2,372.9,245.3z" id="el_wm8sBhzmXpt"/>
	<path d="M371.9,246.2c0,0-0.9-0.4-1.2-1.7c0,0-0.1-0.6,0.2-0.7c0,0,0.1,0,0.3,0l1.7,1.5c0,0,0,0.1,0.1,0.1&#10;&#9;&#9;C373,245.4,373.4,246.7,371.9,246.2z" id="el_YIHnxlv2qUP"/>
	<path d="M366.8,222.3c-0.4-4.3-3.5-8.1-8.7-10.8c-1.9-1-4-1.7-6.2-2.3l-21.7,22.2l0,0l-5.2,5.3l-5.3,5.4v17.5v24.2&#10;&#9;&#9;c0.2,0,0.3,0,0.5,0v6.5c0.2,0,0.4,0,0.7,0c-0.2,0-0.4,0-0.7,0v160.4c7.3,1.9,19.6,3.7,34.1,0.2l0.5-162v-7.1c-0.2,0-0.3,0-0.5,0.1&#10;&#9;&#9;l0.1-43.8c0.2-0.1,0.4-0.2,0.5-0.3c2.1-1,4-2.2,5.7-3.6C365.1,230.6,367.2,226.4,366.8,222.3z M350.4,236.5v45.9l0,0V236.5&#10;&#9;&#9;L350.4,236.5z M336.8,261.9c0,0-0.4,1.1-1.7,1.9c-0.2,0.1-0.4,0.2-0.7,0.4c-0.1,0.1-0.2,0.1-0.4,0.2c0,0-1,0.3-1.3-0.3&#10;&#9;&#9;c0,0-0.4-2.3,2.3-3.8l0,0c0,0,0,0,0.1,0C335.2,260.1,337.4,259.2,336.8,261.9z M340.2,233.9l5.1,1.3l3,0.8l-3-0.8L340.2,233.9&#10;&#9;&#9;l-8.6-2.2L340.2,233.9z M323.4,251c0,0,2.1-0.8,1.6,1.8c0,0-0.6,1.6-2.7,2.4c0,0-1,0.3-1.3-0.3C321,254.9,320.5,252.6,323.4,251z&#10;&#9;&#9; M327.6,290.5c1,0,2,0.1,3,0.1c1.2,0,2.4,0,3.6,0c-1.2,0-2.4,0.1-3.6,0.1C329.6,290.6,328.6,290.6,327.6,290.5z M350.2,289.5&#10;&#9;&#9;c0.2,0,0.4,0,0.6-0.1v-6.7l0,0v6.7C350.7,289.4,350.4,289.4,350.2,289.5z" id="el_tq6hGD8pa0R"/>
	<path d="M392.7,202.8c-2,1.3-4.1,2.3-6.3,3.3c-2.1,1-4.3,1.8-6.5,2.7c-2.2,0.8-4.4,1.5-6.7,2.2&#10;&#9;&#9;c-2.3,0.6-4.5,1.2-6.9,1.5c2-1.3,4.1-2.3,6.3-3.3c2.1-1,4.3-1.8,6.5-2.7c2.2-0.8,4.4-1.5,6.7-2.2&#10;&#9;&#9;C388,203.6,390.3,203.1,392.7,202.8z" id="el_3Pe_nwhpYK8"/>
	<path d="M372.8,235.1c-0.1,0.1-0.1,0.2-0.1,0.3c-1.4-0.8-2.7-1.6-4-2.5c1.7,0.5,3.3,1,4.9,1.7&#10;&#9;&#9;C373.1,234.8,372.8,235.1,372.8,235.1z" id="el_94ZOneFvQ-b"/>
	<path d="M394.2,244.8c-2.3-0.6-4.5-1.4-6.7-2.3c-2.2-0.8-4.3-1.8-6.5-2.8c-1.9-0.9-3.8-1.9-5.7-2.9&#10;&#9;&#9;c0.4,0,0.7-0.1,0.7-0.1c0.6-0.3,0.9-0.6,1-0.8c1.6,0.7,3.2,1.4,4.8,2.1c2.1,1,4.2,2,6.3,3.1C390.2,242.3,392.2,243.5,394.2,244.8z" id="el_L7Zuq3HBAc7"/>
	<path d="M372.7,235.4c0.7,0.4,1.4,0.8,2,1.1c0.2,0.1,0.4,0.2,0.5,0.3c0.4,0,0.7-0.1,0.7-0.1c0.6-0.3,0.9-0.6,1-0.8&#10;&#9;&#9;c-0.5-0.2-1.1-0.5-1.6-0.7c-0.6-0.2-1.2-0.4-1.7-0.7c-0.5,0.2-0.8,0.5-0.8,0.5C372.7,235.2,372.7,235.3,372.7,235.4z" id="el_LVFxYRIFHrT"/>
	<path d="M389.6,219.4c-0.3,0.1-1.3,0.3-2.5-0.2c0.6,0,1.1,0.1,1.7,0.1C389.1,219.3,389.3,219.3,389.6,219.4z" id="el_9HVDGPz12PO"/>
	<path d="M408.3,222.8c-2.1,0.2-4.1,0.3-6.1,0.3c-1.3,0-2.6,0-3.9,0c-3.3-0.1-6.6-0.3-9.9-0.6c-3.3-0.3-6.6-0.8-9.8-1.3&#10;&#9;&#9;c-1.7-0.3-3.3-0.6-5-1c-1.3-0.3-2.7-0.7-4-1.1c0-0.1,0-0.1,0.1-0.2c0,0,0.1-0.1,0.2-0.1c1.1-0.1,2.2-0.2,3.3-0.2&#10;&#9;&#9;c1.9-0.1,3.8-0.1,5.7,0c2.8,0.1,5.5,0.2,8.2,0.5c1.2,0.5,2.2,0.3,2.5,0.2c3,0.3,6,0.7,9,1.2c1.1,0.2,2.2,0.4,3.3,0.6&#10;&#9;&#9;C404.1,221.6,406.2,222.2,408.3,222.8z" id="el_O9ti5lqu_aX"/>
	<path d="M370.3,271.1c-0.2,0.6-1.1,0.4-1.1,0.4c-2-0.5-2.7-2-2.7-2c-0.7-2.4,1.3-1.8,1.3-1.8&#10;&#9;&#9;C370.5,268.9,370.3,271.1,370.3,271.1z" id="el_5SEXCSlyPWa"/>
	<path d="M370.9,282.1c-3,1.1-4.5-0.7-4.5-0.7c-0.3-0.6,0.6-1.2,0.6-1.2c1.9-1.1,3.6-0.5,3.6-0.5&#10;&#9;&#9;C372.9,281.1,370.9,282.1,370.9,282.1z" id="el__O0hyvS_Kto"/>
	<path d="M371.3,306c-3,1.1-4.5-0.7-4.5-0.7c-0.3-0.6,0.6-1.2,0.6-1.2c1.9-1.1,3.6-0.5,3.6-0.5&#10;&#9;&#9;C373.4,304.9,371.3,306,371.3,306z" id="el_4NZK2EXomiI"/>
	<path d="M370.9,324.7c-3,1.1-4.5-0.7-4.5-0.7c-0.3-0.6,0.6-1.2,0.6-1.2c1.9-1.1,3.6-0.5,3.6-0.5&#10;&#9;&#9;C372.9,323.6,370.9,324.7,370.9,324.7z" id="el_ePK28G0s44U"/>
	<path d="M371.3,348.6c-3,1.1-4.5-0.7-4.5-0.7c-0.3-0.6,0.6-1.2,0.6-1.2c1.9-1.1,3.6-0.5,3.6-0.5&#10;&#9;&#9;C373.4,347.5,371.3,348.6,371.3,348.6z" id="el_NzBIL7YcFn7"/>
	<path d="M370.9,367.3c-3,1.1-4.5-0.7-4.5-0.7c-0.3-0.6,0.6-1.2,0.6-1.2c1.9-1.1,3.6-0.5,3.6-0.5&#10;&#9;&#9;C372.9,366.2,370.9,367.3,370.9,367.3z" id="el_poUweyU5du0"/>
	<path d="M371.3,391.2c-3,1.1-4.5-0.7-4.5-0.7c-0.3-0.6,0.6-1.2,0.6-1.2c1.9-1.1,3.6-0.5,3.6-0.5&#10;&#9;&#9;C373.4,390.1,371.3,391.2,371.3,391.2z" id="el_QHOuiUt9FGx"/>
	<path d="M370.9,409.9c-3,1.1-4.5-0.7-4.5-0.7c-0.3-0.6,0.6-1.2,0.6-1.2c1.9-1.1,3.6-0.5,3.6-0.5&#10;&#9;&#9;C372.9,408.8,370.9,409.9,370.9,409.9z" id="el_Bua3L9gnc9h"/>
	<path d="M371.3,433.8c-3,1.1-4.5-0.7-4.5-0.7c-0.3-0.6,0.6-1.2,0.6-1.2c1.9-1.1,3.6-0.5,3.6-0.5&#10;&#9;&#9;C373.4,432.7,371.3,433.8,371.3,433.8z" id="el_09EvWnJm-k2"/>
	<path d="M373.2,218.7c-1.1,0-2.2,0.1-3.3,0.2C370.2,218.6,371.4,217.9,373.2,218.7z" id="el_vDGWOlwLaO-"/>
	<path d="M373.7,220.2c-0.2,0.2-0.4,0.3-0.7,0.5c0,0-1.4,0.4-2.8-0.7c0,0-0.5-0.4-0.5-0.8&#10;&#9;&#9;C371,219.6,372.3,219.9,373.7,220.2z" id="el_67KDdmTUbYS"/>
	
		<ellipse cx="371.8" cy="219.4" rx="1.3" ry="2.2" id="el_weARNwcJKvu"/>
	
		<ellipse cx="391.5" cy="228.6" rx="1.3" ry="2.2" id="el_VdhmMcuPRN_"/>
	<circle cx="371.6" cy="219.9" r="0.1" id="el_-4UP7jng3ai"/>
</g></g></g>
<g id="el_h__Y4bO85UA_an_8e-Cle4yT" data-animator-group="true" data-animator-type="0"><g id="el_h__Y4bO85UA">
	<path d="M274.3,228.5" id="el_VvtnaJuaMxo"/>
	<g id="el_oOu1QsxC4wo">
		<g id="el_NW21GArrYY5">
			<path d="M249.1,183.1c1.5-3.1,270,96.8,284.7,138.4l-70.8-3.7l-243.1-55.7L249.1,183.1z" id="el_yXt7hueSF58"/>
			<path d="M247.7,186.8c0,0,268.1,96.7,284.5,135.1l-94.1-5.1l-229.2-50.5L247.7,186.8z" id="el_q3ESMazyIWl"/>
		</g>
		<path d="M250,183.4c0,0-176.4-78-184.9-72.8s-44-8.4-30.1,46.6c10.1,22.4,17.9,19.2,17.9,19.2s12.1-16.6,28.6-8.7&#10;&#9;&#9;&#9;s62,34.9,62,34.9s36.4,14.1,49.5,16.6s27,12.2,30.3,17.3C226.8,241.4,250,183.4,250,183.4z" id="el_kdSM5HGmU6e"/>
	</g>
</g></g>
<g id="el_-JO097t8pHF_an_3FCm_Utt1" data-animator-group="true" data-animator-type="0"><g id="el_-JO097t8pHF_an_-3rsUJxx7" data-animator-group="true" data-animator-type="1"><g id="el_-JO097t8pHF">
	<path d="M278.4,262.9L278.4,262.9L278.4,262.9L278.4,262.9z" id="el_1QlBMp1mFMS"/>
	<path d="M278.4,262.9L278.4,262.9L278.4,262.9z" id="el_UX0FriAjWnv"/>
	<path d="M278.4,262.9L278.4,262.9L278.4,262.9z" id="el_8EjjWkoMLpY"/>
	<path d="M279.3,259.3c0.3-1.1,0.5-2.1,0.8-3.1l0,0C279.8,257.2,279.5,258.3,279.3,259.3L279.3,259.3z" id="el_1-ytfHA3V72"/>
	<path d="M229.8,220.3c-2.1,3.4-4,7.2-5.9,11.2C225.7,227.5,227.7,223.7,229.8,220.3L229.8,220.3z" id="el_2DsRttyFkfS"/>
	<path d="M268.5,447.1l3.7-156.6C261.6,342.7,255.5,402.3,268.5,447.1z" id="el_Mq_gK0zr9Wp"/>
	<path d="M203.7,333.5c-3.1-27.1,5.8-71.5,20.2-102.1C209.4,262,200.5,306.5,203.7,333.5c8,70.3,35.1,105.5,64.6,122.5&#10;&#9;&#9;v-0.1C238.7,438.8,211.7,403.6,203.7,333.5z" id="el_r8fVN7EJTJY"/>
	<path d="M268.3,456c1.3,0.7,2.6,1.4,3.8,2.1V458C270.8,457.3,269.5,456.6,268.3,456L268.3,456z" id="el_rlSouNdR8nb"/>
	<path d="M272.2,290.6c-26.2-9.9-44.1-27.7-45.9-49.4c-0.6-7.2,0.7-14.2,3.4-20.9c-2.1,3.4-4,7.1-5.9,11.1&#10;&#9;&#9;c-14.4,30.5-23.3,75-20.2,102.1c8,70.1,35.1,105.4,64.6,122.4c1.3,0.7,2.5,1.4,3.8,2.1c-1.3-3.5-2.5-7.1-3.6-10.8&#10;&#9;&#9;C255.5,402.3,261.6,342.7,272.2,290.6z" id="el_czd2dU3yFV3"/>
	<path d="M245.8,201.7l-2.9-0.9c-5.8,6-10.3,12.5-13.2,19.4C234.7,212,240.1,205.5,245.8,201.7z" id="el_qmDXOuGj4qj"/>
	<path d="M245.9,201.8L245.9,201.8c-5.7,3.8-11.1,10.2-16.1,18.5c0,0,0,0,0,0.1C234.7,212,240.2,205.5,245.9,201.8z" id="el_pg8RS8mLl1O"/>
	<path d="M291.5,270.9v-0.1l-1.5,1.6C291.1,271.8,291.5,270.9,291.5,270.9z" id="el_TYuHBBLLwT4"/>
	<path d="M290.2,269.1c-2.7,1.2-2.5,3.3-2.5,3.3c0.1,0.6,1.1,0.4,1.1,0.4c0.5-0.1,0.8-0.3,1.2-0.5l1.5-1.6&#10;&#9;&#9;C292.2,268.6,290.2,269.1,290.2,269.1z" id="el_oToOvSy8Wno"/>
	<path d="M293.1,254.3c2.1-0.7,2.7-2.3,2.7-2.3c0.6-2.7-1.6-1.9-1.6-1.9c-2.9,1.5-2.4,3.9-2.4,3.9&#10;&#9;&#9;C292,254.6,293.1,254.3,293.1,254.3z" id="el_M8utT0yLB0E"/>
	<path d="M292.9,218c-0.1,2.2,1.2,3.4,1.2,3.4c2.3,1.5,2.3-0.8,2.3-0.8c-0.3-2-1.3-2.9-2-3.4l1.6,0.5l-3.1-1l0.6,0.2&#10;&#9;&#9;C293,217.1,292.9,218,292.9,218z" id="el_xsCQCxBqJka"/>
	<path d="M293.8,221.4c3.2,1.9,3.5-0.6,3.5-0.6c-0.1-1.4-0.6-2.4-1.3-3.1l-1.6-0.5c0.7,0.4,1.7,1.3,2,3.4&#10;&#9;&#9;c0,0,0,2.3-2.3,0.8c0,0-1.3-1.2-1.2-3.4c0,0,0.1-0.9,0.6-1l-0.6-0.2c-0.3,0.3-0.5,0.8-0.5,0.8C292,220,293.8,221.4,293.8,221.4z" id="el_S8yL36m5Gvw"/>
	<path d="M284.8,246.9c0.6-2.7-1.6-1.9-1.6-1.9c-0.1,0.1-0.2,0.2-0.4,0.2c-2.4,1.5-2.1,3.6-2.1,3.6c0.1,0.4,0.7,0.4,1,0.4&#10;&#9;&#9;c0.1,0,0.3,0,0.3,0C284.2,248.5,284.8,246.9,284.8,246.9z" id="el_-lKBoMEhnrw"/>
	<path d="M278.4,262.9L278.4,262.9L278.4,262.9z" id="el_VPX4KyUYi0o"/>
	<path d="M287.1,230.1c0.1-0.1,0.2-0.1,0.2-0.2c-0.4,0.1-0.8,0.1-1.1,0.2C286.5,230.3,286.8,230.3,287.1,230.1z" id="el_4U2A1SA5HGP"/>
	<path d="M284.1,226.6c0,0.2,0,0.4,0,0.6c0.1,0,0.2,0,0.3,0C284.3,227,284.2,226.8,284.1,226.6z" id="el_LRP0n2PAs3F"/>
	<path d="M271.5,216c-0.1-1.6-0.7-2.5-1.2-3c-0.5-0.4-1-0.6-1-0.6c-0.1,0-0.1,0-0.2,0c-0.4,0.2-0.6,0.9-0.6,0.9&#10;&#9;&#9;c-0.3,2,0.8,3.2,0.8,3.2C271.3,218.1,271.5,216,271.5,216z" id="el_y1oPjHt88qM"/>
	<path d="M266.6,223.4c2.3,1.5,2.3-0.8,2.3-0.8c-0.4-3.2-2.7-3.7-2.7-3.7c-0.6,0-0.8,1.1-0.8,1.1&#10;&#9;&#9;C265.3,222.2,266.6,223.4,266.6,223.4z" id="el_OFDmaKeO_8o"/>
	<path d="M275.3,215c2.3,1.5,2.3-0.8,2.3-0.8c-0.2-1.4-0.7-2.2-1.2-2.8l0.6,0.2l-2.6-0.8c-0.2,0.3-0.3,0.8-0.3,0.8&#10;&#9;&#9;C274,213.9,275.3,215,275.3,215z" id="el_QB1sDsHDF_8"/>
	<path d="M275,215.5c0.8,0.5,1.4,0.7,1.9,0.7l-2.3-1.1C274.8,215.3,275,215.5,275,215.5z" id="el_938oV5qKTP7"/>
	<path d="M274.6,215.1l2.3,1.1c1.3,0,1.5-1.3,1.5-1.3c-0.1-1.5-0.7-2.5-1.4-3.2l-0.6-0.2c0.5,0.5,1.1,1.4,1.2,2.8&#10;&#9;&#9;c0,0,0,2.3-2.3,0.8c0,0-1.3-1.2-1.2-3.4c0,0,0.1-0.5,0.3-0.8l-0.2-0.1c-0.4,0.3-0.5,0.8-0.5,0.8&#10;&#9;&#9;C273.4,213.3,274.2,214.5,274.6,215.1z" id="el_-XMw1QhghnE"/>
	<path d="M274.4,210.8h-0.2H274.4z" id="el_efTfpgD0xNP"/>
	<path d="M229.8,220.3c-2.8,6.7-4,13.8-3.4,20.9c1.8,21.6,19.7,39.5,45.9,49.4l17.8-18.2c-0.3,0.2-0.7,0.3-1.2,0.5&#10;&#9;&#9;c0,0-1,0.2-1.1-0.4c0,0-0.2-2.2,2.5-3.3c0,0,1.9-0.5,1.3,1.7l22.6-23.2c-1.4-0.5-2.7-1-3.9-1.7c-0.1-0.1-0.2-0.1-0.3-0.2&#10;&#9;&#9;c-0.8,1.1-1.7,2.2-2.5,3.3c-1.5,1.8-3.1,3.5-4.7,5.2s-3.4,3.2-5.2,4.7c-1.8,1.5-3.7,2.9-5.7,4.2c1.2-2.1,2.7-3.9,4.2-5.7&#10;&#9;&#9;c1.5-1.8,3.1-3.5,4.7-5.2c1.7-1.7,3.4-3.2,5.2-4.7c1-0.8,2-1.6,3-2.4c-3.2-2-5.4-4.4-6.5-7.2c-0.8,0.4-1.6,0.8-2.4,1.2&#10;&#9;&#9;c-2.1,1-4.3,1.8-6.5,2.6c-2.2,0.7-4.5,1.4-6.8,1.9c-2.3,0.5-4.6,0.9-7.1,1c2-1.4,4.1-2.5,6.2-3.5s4.3-1.8,6.5-2.6&#10;&#9;&#9;c2.2-0.7,4.5-1.4,6.8-1.9c0.9-0.2,1.8-0.4,2.7-0.5c-0.1-0.4-0.1-0.7-0.2-1.1c-0.3-4.1,1.9-8.3,6.2-11.8c0.5-0.4,1.1-0.8,1.7-1.2&#10;&#9;&#9;l-13.5-4.3c0.7,0.7,1.2,1.6,1.3,3.1c0,0-0.3,2.6-3.5,0.6c0,0-1.8-1.4-1.3-3.9c0,0,0.1-0.5,0.5-0.8l-1.8-0.6l-14.2-4.5&#10;&#9;&#9;c0.7,0.6,1.4,1.6,1.4,3.2c0,0-0.2,1.4-1.5,1.3c-0.5,0-1.1-0.2-1.9-0.7c0,0-0.2-0.1-0.4-0.4c-0.5-0.6-1.2-1.8-0.9-3.4&#10;&#9;&#9;c0,0,0.1-0.5,0.5-0.8l-6.1-1.9l-17.6-5.6l-4.7-1.5C240.2,205.5,234.7,212,229.8,220.3z M294.2,250.1c0,0,2.1-0.8,1.6,1.9&#10;&#9;&#9;c0,0-0.6,1.6-2.7,2.3c0,0-1,0.3-1.3-0.3C291.8,254,291.4,251.7,294.2,250.1z M273.9,253.8c0,0-1.5,0.9-3.6,0.2c0,0-1-0.4-0.8-1&#10;&#9;&#9;c0,0,1.1-2.1,4.3-1.6C273.8,251.3,276,252,273.9,253.8z M273.9,239.7c0,0-1.5,0.9-3.6,0.2c0,0-1-0.4-0.8-1c0,0,1.1-2.1,4.3-1.6&#10;&#9;&#9;C273.8,237.2,276,237.9,273.9,239.7z M283.9,259.8c0,0-0.5,1-1.1,0.7c0,0-2-1.2-1.3-4.4c0,0,0.8-2.1,2.4,0.1&#10;&#9;&#9;C284,256.2,284.8,257.7,283.9,259.8z M280.1,256.2c0.6-2.3,1.2-4.7,1.8-6.9c-0.3,0-0.9,0.1-1-0.4c0,0-0.4-2.1,2.1-3.6&#10;&#9;&#9;c0.1-0.1,0.2-0.2,0.4-0.2c0,0,2.1-0.8,1.6,1.9c0,0-0.6,1.6-2.7,2.3c0,0-0.1,0-0.3,0C281.2,251.5,280.7,253.9,280.1,256.2&#10;&#9;&#9;L280.1,256.2c-0.3,1-0.5,2.1-0.8,3.1l0,0c-0.3,1.2-0.6,2.4-0.9,3.5l0,0c-0.8,3.3-1.6,6.5-2.3,9.9c0.8-3.3,1.5-6.6,2.3-9.9l0,0l0,0&#10;&#9;&#9;l0,0l0,0c0.3-1.2,0.6-2.4,0.9-3.5C279.5,258.3,279.8,257.2,280.1,256.2z M292.3,237.5c0,0-1,1.4-3.2,1.5c0,0-1.1,0-1.1-0.6&#10;&#9;&#9;c0,0,0.2-2.4,3.4-3.1C291.3,235.3,293.5,235,292.3,237.5z M268.5,213.3c0,0,0.1-0.7,0.6-0.9c0.1,0,0.1,0,0.2,0c0,0,0.5,0.1,1,0.6&#10;&#9;&#9;c0.6,0.5,1.2,1.4,1.2,3c0,0-0.2,2.1-2.2,0.5C269.4,216.5,268.3,215.3,268.5,213.3z M266.1,219c0,0,2.3,0.5,2.7,3.7&#10;&#9;&#9;c0,0,0,2.3-2.3,0.8c0,0-1.3-1.2-1.2-3.4C265.4,220,265.5,218.9,266.1,219z M272.4,229.3L272.4,229.3c0,0,0.4-0.2,0.8-0.2&#10;&#9;&#9;c0.1,0,0.3-0.1,0.4-0.1c3.1-0.7,6.2-1.3,9.4-1.7c0.4-0.1,0.8-0.1,1.2-0.2c0-0.2,0-0.4,0-0.6c-0.1-0.3-0.2-0.6-0.3-0.9&#10;&#9;&#9;c0,0-0.2-1.1,0.5-1.2c0,0,2-0.1,3.3,2.3c1.6-0.2,3.2-0.3,4.9-0.4c3.2-0.2,6.4-0.3,9.6-0.1c-3,1.1-6.1,1.9-9.2,2.6&#10;&#9;&#9;c-1.8,0.4-3.7,0.8-5.5,1.1c-0.1,0.1-0.1,0.1-0.2,0.2c-0.2,0.1-0.5,0.1-0.9,0c-0.9,0.2-1.8,0.3-2.7,0.4c-3.1,0.5-6.3,0.8-9.5,1h-0.1&#10;&#9;&#9;c-0.3,0.6-1,1.4-2.3,2c0,0-1,0.4-1.3-0.2c0,0-0.2-0.7,0.1-1.6c-2,0.1-4,0.1-6-0.1C267,230.7,269.7,230,272.4,229.3z" id="el_e7LxBbvPA0e"/>
	<path d="M276.1,272.8c0.8-3.3,1.5-6.6,2.3-9.9l0,0C277.6,266.1,276.8,269.4,276.1,272.8z" id="el_bdQ_njs9hOb"/>
	<path d="M285.3,229.7c0.3,0.2,0.6,0.3,0.8,0.4c0.4-0.1,0.8-0.1,1.1-0.2c0.3-0.4,0.3-1,0.3-1c0-0.1,0-0.2-0.1-0.3&#10;&#9;&#9;c-0.3,0.2-0.8,0.3-1.7,0c0,0-0.8-0.4-1.4-1.5c-0.1,0-0.2,0-0.3,0C284.4,228.9,285.3,229.7,285.3,229.7z" id="el_8OGb0toQDQz"/>
	<path d="M287.6,228.6c0,0.1,0.1,0.2,0.1,0.3c0,0,0,0.6-0.3,1c1.9-0.3,3.7-0.7,5.5-1.1c3.1-0.7,6.2-1.5,9.2-2.6&#10;&#9;&#9;c-3.2-0.2-6.4-0.1-9.6,0.1c-1.6,0.1-3.2,0.3-4.9,0.4c0.1,0.2,0.2,0.3,0.3,0.6C287.9,227.3,288.1,228.2,287.6,228.6z" id="el_1jVc3gBrtKw"/>
	<path d="M270.4,231.8c0.2-0.8,0.8-1.6,2-2.4c-2.7,0.6-5.4,1.4-8,2.4C266.4,231.8,268.4,231.8,270.4,231.8z" id="el_gsehmvnkjNH"/>
	<path d="M274.1,231.1c0,0-0.1,0.2-0.3,0.5h0.1c3.2-0.2,6.3-0.6,9.5-1c0.9-0.1,1.8-0.3,2.7-0.4&#10;&#9;&#9;c-0.2-0.1-0.5-0.2-0.8-0.4c0,0-1-0.9-1.2-2.6c-0.4,0.1-0.8,0.1-1.2,0.2c-3.1,0.5-6.3,1-9.4,1.7c-0.1,0-0.3,0.1-0.4,0.1&#10;&#9;&#9;C273.7,229.2,274.4,229.5,274.1,231.1z" id="el_NgND9umGEcl"/>
	<path d="M306.2,235.7c-1.5,0.1-2.9,0.2-4.4,0.5c0.1,0.6,0.3,1.2,0.5,1.8C303.6,237.3,304.9,236.5,306.2,235.7z" id="el_mwOruFK7sNF"/>
	<path d="M292.4,238.6c-2.2,0.7-4.4,1.6-6.5,2.6s-4.2,2.1-6.2,3.5c2.4-0.1,4.8-0.5,7.1-1c2.3-0.5,4.6-1.2,6.8-1.9&#10;&#9;&#9;c2.2-0.8,4.4-1.6,6.5-2.6c0.8-0.4,1.6-0.8,2.4-1.2c-0.2-0.6-0.4-1.2-0.5-1.8c-0.9,0.2-1.8,0.3-2.7,0.5&#10;&#9;&#9;C296.8,237.2,294.6,237.8,292.4,238.6z" id="el_UJCbN_FwYYN"/>
	<path d="M311.5,243.3c-0.9,0.6-1.8,1.2-2.7,1.8c0.3,0.2,0.7,0.4,1.1,0.6C310.5,245,311,244.2,311.5,243.3z" id="el_VMI1cJr0i8p"/>
	<path d="M300.6,252.2c-1.7,1.6-3.2,3.4-4.7,5.2c-1.5,1.8-2.9,3.7-4.2,5.7c2.1-1.2,3.9-2.7,5.7-4.2&#10;&#9;&#9;c1.8-1.5,3.5-3.1,5.2-4.7c1.7-1.7,3.2-3.4,4.7-5.2c0.9-1.1,1.7-2.2,2.5-3.3c-0.4-0.2-0.7-0.4-1.1-0.6c-1,0.8-2,1.5-3,2.4&#10;&#9;&#9;C304,249,302.3,250.6,300.6,252.2z" id="el_tJzuvoOftCg"/>
	<path d="M270.3,233.4c0.3,0.6,1.3,0.2,1.3,0.2c1.3-0.5,2-1.4,2.3-2c-1.2,0.1-2.3,0.1-3.5,0.2&#10;&#9;&#9;C270.1,232.7,270.3,233.4,270.3,233.4z" id="el_Tme9edDsVyz"/>
	<path d="M272.4,229.3L272.4,229.3c0.2,0,0.5-0.1,0.8-0.2C272.8,229.2,272.4,229.3,272.4,229.3z" id="el_CFW-zhN81tk"/>
	<path d="M270.4,231.8c1.2,0,2.3-0.1,3.5-0.2c0.2-0.3,0.3-0.5,0.3-0.5c0.2-1.6-0.4-1.9-0.9-1.9&#10;&#9;&#9;c-0.3,0.1-0.5,0.1-0.8,0.2C271.2,230.1,270.6,231,270.4,231.8z" id="el_9tQUaHsKgiB"/>
	<path d="M273.8,251.3c-3.2-0.5-4.3,1.6-4.3,1.6c-0.2,0.6,0.8,1,0.8,1c2.1,0.7,3.6-0.2,3.6-0.2&#10;&#9;&#9;C276,252,273.8,251.3,273.8,251.3z" id="el_bow-qhILPES"/>
	<path d="M273.8,237.2c-3.2-0.5-4.3,1.6-4.3,1.6c-0.2,0.6,0.8,1,0.8,1c2.1,0.7,3.6-0.2,3.6-0.2&#10;&#9;&#9;C276,237.9,273.8,237.2,273.8,237.2z" id="el_D_Y8oUNLInG"/>
	<path d="M286.9,226.8c-0.8-1.3-2-1.5-2-1.5c-0.6,0-0.8,1.1-0.8,1.1c0,0.1,0,0.1,0,0.2c0.1,0.2,0.2,0.4,0.3,0.6&#10;&#9;&#9;C285.2,227,286.1,226.9,286.9,226.8z" id="el__EpNNW432YB"/>
	<path d="M284.9,225.3c0,0,1.2,0.2,2,1.5c0.2,0,0.5-0.1,0.7-0.1c-1.2-2.4-3.3-2.3-3.3-2.3c-0.6,0.1-0.5,1.2-0.5,1.2&#10;&#9;&#9;c0.1,0.3,0.2,0.6,0.3,0.9c0-0.1,0-0.1,0-0.2C284.1,226.3,284.3,225.3,284.9,225.3z" id="el_En8wFgDssiO"/>
	<path d="M286.9,226.8c-0.8,0.1-1.6,0.2-2.5,0.3c0.6,1.1,1.4,1.5,1.4,1.5c0.9,0.3,1.4,0.2,1.7,0v-0.1&#10;&#9;&#9;C287.4,227.8,287.2,227.3,286.9,226.8z" id="el_RmZyXqqluy9"/>
	<path d="M287.5,228.5v0.1c0.5-0.4,0.3-1.3,0.3-1.3c-0.1-0.2-0.2-0.4-0.3-0.6c-0.2,0-0.5,0.1-0.7,0.1&#10;&#9;&#9;C287.2,227.3,287.4,227.8,287.5,228.5z" id="el_lzZHH60rDxK"/>
	<path d="M291.3,235.3c-3.2,0.7-3.4,3.1-3.4,3.1c0,0.6,1.1,0.6,1.1,0.6c2.2-0.1,3.2-1.5,3.2-1.5&#10;&#9;&#9;C293.5,235,291.3,235.3,291.3,235.3z" id="el_g8i_lZATkav"/>
	<path d="M281.5,256.1c-0.7,3.2,1.3,4.4,1.3,4.4c0.6,0.2,1.1-0.7,1.1-0.7c0.9-2.1,0-3.6,0-3.6&#10;&#9;&#9;C282.3,254,281.5,256.1,281.5,256.1z" id="el_qIqo5eoQW2n"/>
	<path d="M332.2,229.3v176.5c0,1.6-0.5,3.1-1.4,4.3c-5.7,8.2-28.9,39.2-59.9,47.9c0,0-22.1-60.8,0.1-167.4L332.2,229.3z&#10;&#9;&#9;" id="el_q59-KYIOvIO"/>
	<path d="M309.5,222c-0.6,0.4-1.1,0.8-1.7,1.2c-4.3,3.5-6.5,7.7-6.2,11.8c0,0.4,0.1,0.7,0.2,1.1&#10;&#9;&#9;c1.4-0.2,2.9-0.4,4.4-0.5c-1.3,0.9-2.5,1.6-3.9,2.3c1.1,2.7,3.3,5.2,6.5,7.2c0.9-0.6,1.8-1.3,2.7-1.8c-0.5,0.9-1.1,1.7-1.6,2.5&#10;&#9;&#9;c0.1,0.1,0.2,0.1,0.3,0.2c1.2,0.7,2.6,1.2,3.9,1.7v169.4c0,0,7.3-0.7,18-15.9v-172L309.5,222z" id="el_vynrhcQINY0"/>
	<g id="el_CQ8t9cnGaUj">
		<g id="el_4vWQOZ8xKNZ">
			<path d="M316.1,256c0.2,6.8,0.2,13.7,0.3,20.5l0.2,20.5l0.2,41l-0.2,41l-0.2,20.5c-0.1,6.8-0.2,13.7-0.3,20.5&#10;&#9;&#9;&#9;&#9;c-0.2-6.8-0.2-13.7-0.3-20.5l-0.2-20.5l-0.2-41l0.2-41l0.2-20.5C315.9,269.6,315.9,262.8,316.1,256z" id="el_Cj94PzCzVy_"/>
		</g>
		<g id="el_hFcKxo74lQ_">
			<path d="M319.3,250.7c0.2,6.8,0.2,13.7,0.3,20.5l0.2,20.5l0.2,41l-0.2,41l-0.2,20.5c-0.1,6.8-0.2,13.7-0.3,20.5&#10;&#9;&#9;&#9;&#9;c-0.2-6.8-0.2-13.7-0.3-20.5l-0.2-20.5l-0.2-41l0.2-41l0.2-20.5C319.1,264.4,319.2,257.5,319.3,250.7z" id="el_mOph4wxAoAo"/>
		</g>
		<g id="el_yFtutJh_5N_">
			<path d="M322.5,245.4c0.2,6.8,0.2,13.7,0.3,20.5l0.2,20.5l0.2,41l-0.2,41l-0.2,20.5c-0.1,6.8-0.2,13.7-0.3,20.5&#10;&#9;&#9;&#9;&#9;c-0.2-6.8-0.2-13.7-0.3-20.5l-0.2-20.5l-0.2-41l0.2-41l0.2-20.5C322.3,259.1,322.4,252.3,322.5,245.4z" id="el_jMdYWzPp7Ho"/>
		</g>
		<g id="el_ep2arRQx_Bo">
			<path d="M325.8,240.1c0.2,6.8,0.2,13.7,0.3,20.5l0.2,20.5l0.2,41l-0.2,41l-0.2,20.5c-0.1,6.8-0.2,13.7-0.3,20.5&#10;&#9;&#9;&#9;&#9;c-0.2-6.8-0.2-13.7-0.3-20.5l-0.2-20.5l-0.2-41l0.2-41l0.2-20.5C325.5,253.8,325.6,247,325.8,240.1z" id="el_HiI2aVbJH8A"/>
		</g>
		<g id="el_yVdPPDRQ9I_">
			<path d="M329,234.9c0.2,6.8,0.2,13.7,0.3,20.5l0.2,20.5l0.2,41l-0.2,41l-0.2,20.5c-0.1,6.8-0.2,13.7-0.3,20.5&#10;&#9;&#9;&#9;&#9;c-0.2-6.8-0.2-13.7-0.3-20.5l-0.2-20.5l-0.2-41l0.2-41l0.2-20.5C328.8,248.6,328.8,241.7,329,234.9z" id="el_hGyWRz5uW4o"/>
		</g>
	</g>
</g></g></g>
<g id="el_hyf1dr5xAzE_an_OmhLFOwIp" data-animator-group="true" data-animator-type="0"><g id="el_hyf1dr5xAzE_an_7WMSJMMiU" data-animator-group="true" data-animator-type="1"><g id="el_hyf1dr5xAzE">
	<path d="M359.9,244.9c1.5,1.1,2.8,0.7,2.8,0.7c0.2-0.1,0.3-0.1,0.4-0.2c1.3-0.8,0-1.7,0-1.7c-1.8-0.9-3.1-0.3-3.5,0&#10;&#9;&#9;c-0.1,0.1-0.2,0.2-0.2,0.2C359.3,244.3,359.9,244.9,359.9,244.9z" id="el_rEIvG08yjf9"/>
	<path d="M392.2,280.8c0.3,49.6-7.9,115.3-39.6,187.4c4.9-1,7.7-1.9,7.7-1.9c108.9-60.9,109.5-142.4,92.9-197.4&#10;&#9;&#9;l-34.6-11C412.3,266.6,403.2,274.3,392.2,280.8z" id="el_crhl107ibTg"/>
	<path d="M392.2,280.8c-16.4,9.6-37.3,16.2-60.3,18.1c-22.8,1.9-44.3-1.2-62-7.9l-3.7,156.5c1.1,3.7,2.2,7.3,3.6,10.8&#10;&#9;&#9;c32.7,17.1,67.7,12.9,82.8,9.9C384.3,396,392.5,330.4,392.2,280.8z" id="el_kN9_16IsC2B"/>
	<path d="M343.2,264.1c-0.6-0.2-1-0.3-1.3-0.3c-1.1,0.1-0.8,1.5-0.8,1.5c0.6,1.7,1.5,2.5,2.3,2.8c0.6,0.3,1.1,0.3,1.1,0.3&#10;&#9;&#9;c0.6-0.1,0.5-1.2,0.5-1.2C344.7,265,343.2,264.1,343.2,264.1z" id="el__vRwRohB92v"/>
	<path d="M371.2,255.9c2.4,0,1.3-1.7,1.3-1.7c-1.8-2.2-3.8-1.4-3.8-1.4c-0.5,0.3-0.1,1.2-0.1,1.2&#10;&#9;&#9;C369.7,255.7,371.2,255.9,371.2,255.9z" id="el_frj-aBqSUuI"/>
	<g id="el_BLw2lSch9RC">
		<path d="M309.1,263.5c2.1-0.7,2.7-2.3,2.7-2.3c0.6-2.7-1.5-1.8-1.5-1.8c-2.8,1.5-2.4,3.8-2.4,3.8&#10;&#9;&#9;&#9;C308,263.8,309.1,263.5,309.1,263.5z" id="el_3O3FywTMxRH"/>
		<path d="M301.3,273.8c-0.5-0.2-1.1,0-1.1,0c-2.8,1.5-2.4,3.8-2.4,3.8s0,0.1,0.1,0.1c0.3,0.5,1.2,0.2,1.2,0.2&#10;&#9;&#9;&#9;c2.1-0.7,2.7-2.3,2.7-2.3C302,274.5,301.7,274,301.3,273.8z" id="el_rvaI6vG_72G"/>
		<path d="M321.9,268.5L321.9,268.5c-2.8,1.6-2.4,3.8-2.4,3.8c0.2,0.6,1.3,0.3,1.3,0.3c0.1,0,0.2-0.1,0.3-0.1&#10;&#9;&#9;&#9;c1.8-0.8,2.4-2.2,2.4-2.2C324,267.7,321.9,268.5,321.9,268.5z" id="el_rah6mEu70jc"/>
	</g>
	<path d="M353.7,268.8c1,3.1,3.4,3.1,3.4,3.1c0.2,0,0.3-0.1,0.3-0.2c-1.1-1.4-2.1-2.8-3.1-4.3C353.5,267.6,353.7,268.8,353.7,268.8z&#10;&#9;&#9;" id="el_D-o7uvyDjIv"/>
	<path d="M327.9,249.9c7.6-0.6,14.7-3.2,19.6-7.1c2.3-1.8,3.9-3.8,5-5.9l-22.6-7.2l-18,18.4&#10;&#9;&#9;C316.6,249.7,322.2,250.4,327.9,249.9z" id="el_EvXURtiI1Cw"/>
	<path d="M347.6,242.8c-4.9,3.9-12,6.5-19.6,7.1c-5.7,0.5-11.3-0.2-16-1.9l-22.6,23.2v0.1c0,0-0.4,0.8-1.5,1.5&#10;&#9;&#9;L270.1,291c17.7,6.7,39.2,9.7,62,7.9c23-1.9,43.8-8.5,60.3-18.1c11-6.4,20-14.2,26.4-22.8l-7.1-2.3l-20.7-6.6l-10.9-3.5l-16.4-5.2&#10;&#9;&#9;c-0.5,0.1-1.6,0.1-2.7-0.6c0,0-0.2-0.2-0.4-0.4l-8-2.5C351.5,239,349.8,241,347.6,242.8z M309.9,259.2c0,0,2.1-0.8,1.6,1.9&#10;&#9;&#9;c0,0-0.6,1.6-2.7,2.3c0,0-1,0.3-1.3-0.3C307.5,263.1,307.1,260.7,309.9,259.2z M301.4,275.7c0,0-0.6,1.6-2.7,2.3&#10;&#9;&#9;c0,0-0.9,0.2-1.2-0.2c0,0,0-0.1-0.1-0.1c0,0-0.4-2.3,2.4-3.9c0,0,0.6-0.2,1.1,0S301.7,274.4,301.4,275.7z M318.2,261.5&#10;&#9;&#9;c-1.1,3-2.2,6-3.5,8.9c-1.3,2.9-2.7,5.8-4.2,8.6c-1.5,2.8-3.1,5.6-5,8.2c0.6-3.2,1.6-6.2,2.6-9.2c1.1-3,2.2-6,3.5-8.9&#10;&#9;&#9;c1.3-2.9,2.7-5.8,4.2-8.6c1.5-2.8,3.1-5.6,5-8.2C320.2,255.4,319.3,258.5,318.2,261.5z M320.9,272.4c-0.1,0-0.2,0.1-0.4,0.1&#10;&#9;&#9;c0,0-1,0.3-1.3-0.3c0,0-0.4-2.3,2.4-3.8c0,0,0,0,0.1,0c0,0,2.1-0.8,1.6,1.9C323.3,270.3,322.7,271.7,320.9,272.4z M328.9,262&#10;&#9;&#9;c-0.3,2.3-0.7,4.6-1.3,6.9c-0.5,2.3-1.2,4.5-2,6.7c-0.8,2.2-1.7,4.4-2.9,6.5c-0.1-2.4,0.1-4.8,0.4-7.1c0.3-2.3,0.7-4.6,1.3-6.9&#10;&#9;&#9;c0.5-2.3,1.2-4.5,2-6.7c0.8-2.2,1.7-4.4,2.9-6.5C329.4,257.3,329.2,259.7,328.9,262z M344.5,268.4c0,0-0.5,0-1.1-0.3&#10;&#9;&#9;c-0.8-0.3-1.7-1.1-2.3-2.8c0,0-0.2-1.3,0.8-1.5c0.3,0,0.7,0,1.3,0.3c0,0,1.5,0.9,1.8,3.1C345.1,267.2,345.2,268.3,344.5,268.4z&#10;&#9;&#9; M368.7,252.8c0,0,1.9-0.8,3.8,1.4c0,0,1.1,1.7-1.3,1.7c0,0-1.5-0.2-2.5-2C368.7,254,368.3,253.1,368.7,252.8z M359.6,243.9&#10;&#9;&#9;c0,0,0.1-0.1,0.2-0.2c0.4-0.3,1.6-1,3.5,0c0,0,1.3,0.9,0,1.7c-0.1,0.1-0.3,0.2-0.4,0.2c0,0-1.4,0.4-2.8-0.7&#10;&#9;&#9;C359.9,244.9,359.3,244.3,359.6,243.9z M357,248.3c1.8,1.5,3.5,3.1,5.2,4.7c1.6,1.7,3.2,3.4,4.7,5.3c1.5,1.8,2.9,3.8,4,5.9&#10;&#9;&#9;c-2.1-1.2-4-2.6-5.8-4.1c-1.8-1.4-3.5-3-5.1-4.6c-0.1,0.5-0.5,1-2.1,0.5c0,0-1.7-0.9-2.5-3.1c0,0-0.3-1.1,0.3-1.3&#10;&#9;&#9;c0,0,0.3,0,0.8,0.1c-0.4-0.5-0.9-1-1.3-1.6c-1.5-1.8-2.9-3.8-4-5.9C353.3,245.4,355.2,246.8,357,248.3z M356.5,264.7&#10;&#9;&#9;c1.8,2.6,3.5,5.3,5.1,8.1c1.6,2.8,3.1,5.6,4.3,8.6c-2.4-2.2-4.4-4.7-6.4-7.1c-0.7-0.9-1.4-1.7-2-2.6c-0.1,0.1-0.2,0.2-0.3,0.2&#10;&#9;&#9;c0,0-2.4,0-3.4-3.1c0,0-0.2-1.2,0.6-1.4c-0.2-0.3-0.4-0.5-0.5-0.8c-1.8-2.6-3.5-5.3-5.1-8.1c-1.6-2.8-3.1-5.6-4.3-8.6&#10;&#9;&#9;c2.4,2.2,4.4,4.7,6.4,7.1C352.8,259.6,354.7,262.1,356.5,264.7z" id="el_OD-ih4ZqwXE"/>
	<path d="M357.6,270.7c-0.3-2.2-1.8-3.1-1.8-3.1c-0.7-0.3-1.1-0.3-1.5-0.2c1,1.4,2,2.9,3.1,4.3&#10;&#9;&#9;C357.7,271.3,357.6,270.7,357.6,270.7z" id="el_FBbGC6UR3VB"/>
	<path d="M344.4,249.9c1.2,3,2.7,5.8,4.3,8.6c1.6,2.8,3.3,5.4,5.1,8.1c0.2,0.3,0.4,0.5,0.5,0.8c0.3-0.1,0.8-0.1,1.5,0.2&#10;&#9;&#9;c0,0,1.5,0.9,1.8,3.1c0,0,0.1,0.6-0.2,1c0.7,0.9,1.3,1.8,2,2.6c2,2.5,4.1,4.9,6.4,7.1c-1.2-3-2.7-5.8-4.3-8.6&#10;&#9;&#9;c-1.6-2.8-3.3-5.5-5.1-8.1c-1.8-2.6-3.7-5.2-5.7-7.7C348.8,254.6,346.8,252.2,344.4,249.9z" id="el_mSN5lJA_HE_"/>
	<path d="M359.6,254.2L359.6,254.2c-0.3-0.7-0.7-1.1-1.1-1.3c0.4,0.4,0.7,0.8,1.1,1.4&#10;&#9;&#9;C359.7,254.3,359.6,254.2,359.6,254.2z" id="el_8zzGrgEHK33"/>
	<path d="M356.4,251.7c0.6,0.1,1.4,0.5,2.1,1.3c0.3,0.2,0.7,0.6,1,1.2v0.1c0,0,0,0.1,0,0.2s0.1,0.1,0.1,0.2&#10;&#9;&#9;c0,0,0.2,0.5,0.1,0.9c1.6,1.6,3.3,3.2,5.1,4.6c1.8,1.5,3.7,2.9,5.8,4.1c-1.2-2.1-2.5-4.1-4-5.9c-1.5-1.9-3-3.6-4.7-5.3&#10;&#9;&#9;c-1.6-1.7-3.4-3.3-5.2-4.7c-1.8-1.5-3.7-2.9-5.8-4.1c1.2,2.1,2.5,4.1,4,5.9C355.6,250.6,356,251.2,356.4,251.7z" id="el_11R2VtsAcDq"/>
	<path d="M315.9,260.4c-1.5,2.8-2.9,5.7-4.2,8.6c-1.3,2.9-2.4,5.9-3.5,8.9s-2,6.1-2.6,9.2c1.9-2.6,3.5-5.4,5-8.2&#10;&#9;&#9;c1.5-2.8,2.9-5.7,4.2-8.6c1.3-2.9,2.4-5.9,3.5-8.9s2-6.1,2.6-9.2C319,254.9,317.4,257.6,315.9,260.4z" id="el_AfYbfxcSwDh"/>
	<path d="M326.4,261.4c-0.8,2.2-1.4,4.5-2,6.7c-0.5,2.3-1,4.6-1.3,6.9c-0.3,2.3-0.5,4.7-0.4,7.1&#10;&#9;&#9;c1.2-2.1,2.1-4.3,2.9-6.5s1.4-4.5,2-6.7c0.5-2.3,1-4.6,1.3-6.9c0.3-2.3,0.5-4.7,0.4-7.1C328.1,257,327.2,259.2,326.4,261.4z" id="el_4kjBkDCzDlg"/>
	<path d="M357.3,253.3c0.3,1.2,1.2,1.7,1.2,1.7c0.5,0.2,0.8,0.1,1,0c-0.7-0.7-1.4-1.5-2.1-2.2&#10;&#9;&#9;C357.3,253,357.3,253.3,357.3,253.3z" id="el_ozu40AOc09n"/>
	<path d="M359.5,255c-0.2,0.1-0.5,0.2-1,0c0,0-0.9-0.4-1.2-1.7c0,0-0.1-0.3,0.1-0.5c-0.3-0.4-0.6-0.8-0.9-1.1&#10;&#9;&#9;c-0.4-0.1-0.8-0.1-0.8-0.1c-0.6,0.1-0.3,1.3-0.3,1.3c0.8,2.3,2.5,3.1,2.5,3.1c1.6,0.6,2,0.1,2.1-0.5l-0.1-0.1&#10;&#9;&#9;C359.7,255.3,359.6,255.1,359.5,255z" id="el_4aidYgtBWik"/>
	<path d="M357.6,252.6c-0.1,0-0.2,0.1-0.2,0.2c0.7,0.8,1.4,1.5,2.1,2.2c0.2-0.2,0.2-0.4,0.2-0.6&#10;&#9;&#9;c-0.3-0.6-0.7-1.1-1.1-1.4c-0.3-0.2-0.5-0.3-0.7-0.3C357.7,252.6,357.6,252.6,357.6,252.6z" id="el_V_Hcl90t1fw"/>
	<path d="M357.6,252.6c0,0,0.1,0,0.3,0c0.2,0,0.4,0.1,0.7,0.3c-0.8-0.8-1.6-1.1-2.1-1.3c0.3,0.4,0.6,0.8,0.9,1.1&#10;&#9;&#9;C357.4,252.7,357.5,252.7,357.6,252.6z" id="el_basi6GXFRTh"/>
	<path d="M359.8,254.6c0-0.1-0.1-0.1-0.1-0.2c0,0.2,0,0.5-0.2,0.6c0.1,0.1,0.2,0.2,0.3,0.4l0.1,0.1&#10;&#9;&#9;C360,255.1,359.8,254.6,359.8,254.6z" id="el_rxQnQJ0oT4s"/>
</g></g></g>
</svg>