<svg version="1.1" id="el_dGfLq9HBf" xmlns="http://www.w3.org/2000/svg" xmlns:xlink="http://www.w3.org/1999/xlink" x="0px" y="0px" viewBox="0 0 576 576" style="enable-background:new 0 0 576 576;" xml:space="preserve"><style>@-webkit-keyframes kf_el_RmEOcu0ts-5_an_c1pqPhQ9g{0%{opacity: 1;}67.78%{opacity: 0;}100%{opacity: 0;}}@keyframes kf_el_RmEOcu0ts-5_an_c1pqPhQ9g{0%{opacity: 1;}67.78%{opacity: 0;}100%{opacity: 0;}}@-webkit-keyframes kf_el_jh9gJWiPXkM_an_RWQaLkV3M{41.11%{opacity: 0;}56.67%{opacity: 1;}0%{opacity: 0;}100%{opacity: 1;}}@keyframes kf_el_jh9gJWiPXkM_an_RWQaLkV3M{41.11%{opacity: 0;}56.67%{opacity: 1;}0%{opacity: 0;}100%{opacity: 1;}}@-webkit-keyframes kf_el_jh9gJWiPXkM_an_br-fC70ui{41.11%{-webkit-transform: translate(96.4014663696289px, 296.29998779296875px) rotate(0deg) translate(-96.4014663696289px, -296.29998779296875px);transform: translate(96.4014663696289px, 296.29998779296875px) rotate(0deg) translate(-96.4014663696289px, -296.29998779296875px);}0%{-webkit-transform: translate(96.4014663696289px, 296.29998779296875px) rotate(0deg) translate(-96.4014663696289px, -296.29998779296875px);transform: translate(96.4014663696289px, 296.29998779296875px) rotate(0deg) translate(-96.4014663696289px, -296.29998779296875px);}100%{-webkit-transform: translate(96.4014663696289px, 296.29998779296875px) rotate(0deg) translate(-96.4014663696289px, -296.29998779296875px);transform: translate(96.4014663696289px, 296.29998779296875px) rotate(0deg) translate(-96.4014663696289px, -296.29998779296875px);}}@keyframes kf_el_jh9gJWiPXkM_an_br-fC70ui{41.11%{-webkit-transform: translate(96.4014663696289px, 296.29998779296875px) rotate(0deg) translate(-96.4014663696289px, -296.29998779296875px);transform: translate(96.4014663696289px, 296.29998779296875px) rotate(0deg) translate(-96.4014663696289px, -296.29998779296875px);}0%{-webkit-transform: translate(96.4014663696289px, 296.29998779296875px) rotate(0deg) translate(-96.4014663696289px, -296.29998779296875px);transform: translate(96.4014663696289px, 296.29998779296875px) rotate(0deg) translate(-96.4014663696289px, -296.29998779296875px);}100%{-webkit-transform: translate(96.4014663696289px, 296.29998779296875px) rotate(0deg) translate(-96.4014663696289px, -296.29998779296875px);transform: translate(96.4014663696289px, 296.29998779296875px) rotate(0deg) translate(-96.4014663696289px, -296.29998779296875px);}}@-webkit-keyframes kf_el_GraKU_enNO0_an_efrOUSzn6{17.78%{opacity: 1;}60%{opacity: 0;}0%{opacity: 1;}100%{opacity: 0;}}@keyframes kf_el_GraKU_enNO0_an_efrOUSzn6{17.78%{opacity: 1;}60%{opacity: 0;}0%{opacity: 1;}100%{opacity: 0;}}@-webkit-keyframes kf_el_jh9gJWiPXkM_an_51KmIlhuH{41.11%{-webkit-transform: translate(96.4014663696289px, 296.29998779296875px) translate(-96.4014663696289px, -296.29998779296875px) translate(0px, 20px);transform: translate(96.4014663696289px, 296.29998779296875px) translate(-96.4014663696289px, -296.29998779296875px) translate(0px, 20px);}82.22%{-webkit-transform: translate(96.4014663696289px, 296.29998779296875px) translate(-96.4014663696289px, -296.29998779296875px) translate(0px, 50px);transform: translate(96.4014663696289px, 296.29998779296875px) translate(-96.4014663696289px, -296.29998779296875px) translate(0px, 50px);}0%{-webkit-transform: translate(96.4014663696289px, 296.29998779296875px) translate(-96.4014663696289px, -296.29998779296875px) translate(0px, 20px);transform: translate(96.4014663696289px, 296.29998779296875px) translate(-96.4014663696289px, -296.29998779296875px) translate(0px, 20px);}100%{-webkit-transform: translate(96.4014663696289px, 296.29998779296875px) translate(-96.4014663696289px, -296.29998779296875px) translate(0px, 50px);transform: translate(96.4014663696289px, 296.29998779296875px) translate(-96.4014663696289px, -296.29998779296875px) translate(0px, 50px);}}@keyframes kf_el_jh9gJWiPXkM_an_51KmIlhuH{41.11%{-webkit-transform: translate(96.4014663696289px, 296.29998779296875px) translate(-96.4014663696289px, -296.29998779296875px) translate(0px, 20px);transform: translate(96.4014663696289px, 296.29998779296875px) translate(-96.4014663696289px, -296.29998779296875px) translate(0px, 20px);}82.22%{-webkit-transform: translate(96.4014663696289px, 296.29998779296875px) translate(-96.4014663696289px, -296.29998779296875px) translate(0px, 50px);transform: translate(96.4014663696289px, 296.29998779296875px) translate(-96.4014663696289px, -296.29998779296875px) translate(0px, 50px);}0%{-webkit-transform: translate(96.4014663696289px, 296.29998779296875px) translate(-96.4014663696289px, -296.29998779296875px) translate(0px, 20px);transform: translate(96.4014663696289px, 296.29998779296875px) translate(-96.4014663696289px, -296.29998779296875px) translate(0px, 20px);}100%{-webkit-transform: translate(96.4014663696289px, 296.29998779296875px) translate(-96.4014663696289px, -296.29998779296875px) translate(0px, 50px);transform: translate(96.4014663696289px, 296.29998779296875px) translate(-96.4014663696289px, -296.29998779296875px) translate(0px, 50px);}}@-webkit-keyframes kf_el_FRofURCtDdZ_an_7lG_7E9ME{0%{-webkit-transform: translate(396.6000061035156px, 274.3000183105469px) rotate(0deg) translate(-396.6000061035156px, -274.3000183105469px);transform: translate(396.6000061035156px, 274.3000183105469px) rotate(0deg) translate(-396.6000061035156px, -274.3000183105469px);}27.78%{-webkit-transform: translate(396.6000061035156px, 274.3000183105469px) rotate(20deg) translate(-396.6000061035156px, -274.3000183105469px);transform: translate(396.6000061035156px, 274.3000183105469px) rotate(20deg) translate(-396.6000061035156px, -274.3000183105469px);}100%{-webkit-transform: translate(396.6000061035156px, 274.3000183105469px) rotate(20deg) translate(-396.6000061035156px, -274.3000183105469px);transform: translate(396.6000061035156px, 274.3000183105469px) rotate(20deg) translate(-396.6000061035156px, -274.3000183105469px);}}@keyframes kf_el_FRofURCtDdZ_an_7lG_7E9ME{0%{-webkit-transform: translate(396.6000061035156px, 274.3000183105469px) rotate(0deg) translate(-396.6000061035156px, -274.3000183105469px);transform: translate(396.6000061035156px, 274.3000183105469px) rotate(0deg) translate(-396.6000061035156px, -274.3000183105469px);}27.78%{-webkit-transform: translate(396.6000061035156px, 274.3000183105469px) rotate(20deg) translate(-396.6000061035156px, -274.3000183105469px);transform: translate(396.6000061035156px, 274.3000183105469px) rotate(20deg) translate(-396.6000061035156px, -274.3000183105469px);}100%{-webkit-transform: translate(396.6000061035156px, 274.3000183105469px) rotate(20deg) translate(-396.6000061035156px, -274.3000183105469px);transform: translate(396.6000061035156px, 274.3000183105469px) rotate(20deg) translate(-396.6000061035156px, -274.3000183105469px);}}@-webkit-keyframes kf_el_WQbezK718Ki_an_TtFosuhly{0%{-webkit-transform: translate(184.80335998535156px, 66.8321533203125px) rotate(0deg) translate(-184.80335998535156px, -66.8321533203125px);transform: translate(184.80335998535156px, 66.8321533203125px) rotate(0deg) translate(-184.80335998535156px, -66.8321533203125px);}10%{-webkit-transform: translate(184.80335998535156px, 66.8321533203125px) rotate(10deg) translate(-184.80335998535156px, -66.8321533203125px);transform: translate(184.80335998535156px, 66.8321533203125px) rotate(10deg) translate(-184.80335998535156px, -66.8321533203125px);}100%{-webkit-transform: translate(184.80335998535156px, 66.8321533203125px) rotate(10deg) translate(-184.80335998535156px, -66.8321533203125px);transform: translate(184.80335998535156px, 66.8321533203125px) rotate(10deg) translate(-184.80335998535156px, -66.8321533203125px);}}@keyframes kf_el_WQbezK718Ki_an_TtFosuhly{0%{-webkit-transform: translate(184.80335998535156px, 66.8321533203125px) rotate(0deg) translate(-184.80335998535156px, -66.8321533203125px);transform: translate(184.80335998535156px, 66.8321533203125px) rotate(0deg) translate(-184.80335998535156px, -66.8321533203125px);}10%{-webkit-transform: translate(184.80335998535156px, 66.8321533203125px) rotate(10deg) translate(-184.80335998535156px, -66.8321533203125px);transform: translate(184.80335998535156px, 66.8321533203125px) rotate(10deg) translate(-184.80335998535156px, -66.8321533203125px);}100%{-webkit-transform: translate(184.80335998535156px, 66.8321533203125px) rotate(10deg) translate(-184.80335998535156px, -66.8321533203125px);transform: translate(184.80335998535156px, 66.8321533203125px) rotate(10deg) translate(-184.80335998535156px, -66.8321533203125px);}}@-webkit-keyframes kf_el_FRofURCtDdZ_an_oHe-JTXgy{0%{opacity: 0;}15.56%{opacity: 0;}33.33%{opacity: 1;}64.44%{opacity: 0;}100%{opacity: 0;}}@keyframes kf_el_FRofURCtDdZ_an_oHe-JTXgy{0%{opacity: 0;}15.56%{opacity: 0;}33.33%{opacity: 1;}64.44%{opacity: 0;}100%{opacity: 0;}}@-webkit-keyframes kf_el_WQbezK718Ki_an_Ug_wRjrSs{0%{opacity: 1;}20%{opacity: 0;}51.11%{opacity: 0;}100%{opacity: 0;}}@keyframes kf_el_WQbezK718Ki_an_Ug_wRjrSs{0%{opacity: 1;}20%{opacity: 0;}51.11%{opacity: 0;}100%{opacity: 0;}}#el_dGfLq9HBf *{-webkit-animation-duration: 3s;animation-duration: 3s;-webkit-animation-iteration-count: infinite;animation-iteration-count: infinite;-webkit-animation-timing-function: cubic-bezier(0, 0, 1, 1);animation-timing-function: cubic-bezier(0, 0, 1, 1);}#el_A3thAtYsJF{fill: #9EB247;}#el_iGQEafU8yB{fill: #93AA33;}#el_RX_aIaPt-2{fill: #80973B;}#el_HyyghCf2DA{fill: #131213;}#el_Rf8aZAXfOM{fill: #131213;}#el_9ES3_uoRTv{fill: #91B23D;-webkit-transform: matrix(0.867, -0.4983, 0.4983, 0.867, -53.3492, 206.4449);transform: matrix(0.867, -0.4983, 0.4983, 0.867, -53.3492, 206.4449);}#el_gJbhKK8Hti{fill: #91B23D;}#el_-aTZlgjOh5{fill: #EBC478;}#el_XElZDP9PzX{fill: #E7D0AA;}#el_XGlvEwtOg-{fill: #E7D0AA;}#el_tlVN50UYma{fill: #E7D0AA;}#el_UFFUi85K0Gp{fill: #E7D0AA;}#el_gJj5XcOPMd2{fill: #E7D0AA;}#el_lbJfAjdEWzA{fill: #E7D0AA;}#el_NbE8IKnAtji{fill: #E7D0AA;}#el_7iLx1A2EOdv{fill: #E7D0AA;}#el_q7YFKKZDGcV{fill: #E7D0AA;}#el__o5Z9r0oR8l{fill: #E7D0AA;}#el_FALoMREv-0C{fill: #E7D0AA;}#el_VKAKgSCiN3e{fill: #E7D0AA;}#el_77z5E9aPZ4z{fill: #E7D0AA;}#el_80Eap0HEHxH{fill: #E7D0AA;}#el_bDOHYaXWB3e{fill: #131213;}#el_L6SC9vau1Dj{fill: #131213;}#el_8ECsFgjY3wP{fill: #131213;}#el_-Jyz7ZsMRMH{fill: #131213;}#el_b2RNB60xBER{fill: #131213;}#el_NQac43917Gj{fill: #131213;}#el_S5U7lv7iEQt{fill: #131213;}#el_fJiqpmg5LOU{fill: #131213;}#el_b4BKd--fTHU{fill: #131213;}#el_A2IlDgLjWtR{fill: #131213;}#el_Q7NPabLeadN{fill: #131213;}#el_HyVx7_X5Lb8{fill: #131213;}#el_Q7b_R2m2Jc3{fill: #131213;}#el_-4hH3Vk7SKN{fill: #131213;}#el_SbDgR2_E-eI{fill: #131213;}#el_Uxktyc3SFx6{fill: #131213;}#el_Z7XGKTSBuTb{fill: #131213;}#el_Jd3IxfaZ2cZ{fill: #131213;}#el_09-OIS13QBd{fill: #131213;}#el_g0MxmgpE89d{fill: #131213;}#el_z8GiBi8-vhh{fill: #131213;}#el_UYdUTTW9kdp{fill: #131213;}#el_gCza1AVa9YL{fill: #131213;}#el_FBpQrr79Pmq{fill: #131213;}#el__T6pH3Uow3a{fill: #131213;}#el_fbAXbVizEuu{fill: #131213;}#el_BiJLqUfgVy-{fill: #131213;}#el_WQDS7V2WPXp{fill: #131213;}#el_5mORz0Oyidd{fill: #131213;}#el_jwPTXuaE-9_{fill: #E7D0AA;}#el_JI4v3rC0nAz{fill: #E7D0AA;}#el_7y7dRu1mEM9{fill: #E7D0AA;}#el_TiTdJ3hVo2B{fill: #AC7631;}#el_Y6eXj_Sy93q{fill: #80973B;-webkit-transform: matrix(0.867, -0.4983, 0.4983, 0.867, -52.8492, 207.4572);transform: matrix(0.867, -0.4983, 0.4983, 0.867, -52.8492, 207.4572);}#el_4aeFBucZWgq{fill: #91B23D;}#el_GWOkL50bWtB{fill: #EBC478;}#el_E41hgmnqVJw{fill: #E7D0AA;}#el_rWnE5vb7BHe{fill: #E7D0AA;}#el_ea9a19OltkI{fill: #E7D0AA;}#el_hrhcFNP-tTd{fill: #E7D0AA;}#el_chvMYzRmtOd{fill: #E7D0AA;}#el_AoEPI5cNesi{fill: #E7D0AA;}#el_P1bulNIE-2S{fill: #E7D0AA;}#el_FpZTD0xCq3H{fill: #E7D0AA;}#el_zkdrUgE85Iy{fill: #E7D0AA;}#el_y94WacfJagn{fill: #E7D0AA;}#el_qhxG2vj6l9w{fill: #E7D0AA;}#el_SdsSMBNjdbt{fill: #E7D0AA;}#el_HIx2YdpPQ00{fill: #E7D0AA;}#el_t7KYfsfdCWr{fill: #E7D0AA;}#el_YTEvZPtksHT{fill: #E7D0AA;}#el_gFlrbHJmRCh{fill: #E7D0AA;}#el_bgEyzHJDoav{fill: #131213;}#el_U32wO1gI7Ll{fill: #131213;}#el_PDKDdU9hdkA{fill: #131213;}#el_ePfrXSGMuIg{fill: #131213;}#el_AovnG8h882x{fill: #131213;}#el_YN2ejHJgKHq{fill: #131213;}#el_vw97l07z-J3{fill: #131213;}#el_sQo1uaaKzi8{fill: #131213;}#el_jARHmrfuuKO{fill: #131213;}#el_p1Bc9YIOcZN{fill: #131213;}#el_LMbOiXFpJUf{fill: #131213;}#el_Z1oTSHz5H-y{fill: #131213;}#el_NldSAtzHJr6{fill: #131213;}#el_QNAeN1q4GSJ{fill: #131213;}#el_cdFJgHznFBS{fill: #131213;}#el_GGVPWdl0mhn{fill: #131213;}#el_IJYbNFreItS{fill: #131213;}#el__bmuzFNA194{fill: #131213;}#el_3amtAuAPxyZ{fill: #131213;}#el_AcvZG-9gB0O{fill: #131213;}#el_C_XZHTcp2J6{fill: #131213;}#el_nxHQC74lOvJ{fill: #131213;}#el_ApQjeeCYHIT{fill: #131213;}#el_mOnFEXy_ACl{fill: #131213;}#el_DJJguNaiMug{fill: #131213;}#el_PVkYqQr8Kg0{fill: #131213;}#el_mlUzoaIlje6{fill: #131213;}#el_GdF11e4szPz{fill: #131213;}#el_laZsTNFz1RJ{fill: #131213;}#el_Upuhz_BCzwe{fill: #131213;}#el_AZYV3FRUpqQ{fill: #131213;}#el_vVY4j__ATie{fill: #8C99A7;}#el_Png5NLsIyEX{fill: #8C99A7;}#el_CPKqUY4GVK9{fill: #8D8980;}#el_WjDMLgCpUlN{fill: #8D8980;}#el_7AZ9jXiPCbH{fill: #180D09;}#el_EIRQtP9-nUb{fill: #9EB247;}#el_vTWr_cT-02r{opacity: 0.6;}#el_pZNp69wmxo1{fill: #AC7631;}#el_5L2-3VF6Tqk{fill: #AC7631;}#el_exjELpxAkbu{opacity: 0.57;fill: #AC7631;enable-background: new;}#el_WQbezK718Ki{-webkit-animation-fill-mode: backwards;animation-fill-mode: backwards;opacity: 1;-webkit-animation-name: kf_el_WQbezK718Ki_an_Ug_wRjrSs;animation-name: kf_el_WQbezK718Ki_an_Ug_wRjrSs;-webkit-animation-timing-function: cubic-bezier(0, 0, 1, 1);animation-timing-function: cubic-bezier(0, 0, 1, 1);}#el_FRofURCtDdZ{-webkit-animation-fill-mode: backwards;animation-fill-mode: backwards;opacity: 0;-webkit-animation-name: kf_el_FRofURCtDdZ_an_oHe-JTXgy;animation-name: kf_el_FRofURCtDdZ_an_oHe-JTXgy;-webkit-animation-timing-function: cubic-bezier(0, 0, 1, 1);animation-timing-function: cubic-bezier(0, 0, 1, 1);}#el_WQbezK718Ki_an_TtFosuhly{-webkit-animation-fill-mode: backwards;animation-fill-mode: backwards;-webkit-transform: translate(184.80335998535156px, 66.8321533203125px) rotate(0deg) translate(-184.80335998535156px, -66.8321533203125px);transform: translate(184.80335998535156px, 66.8321533203125px) rotate(0deg) translate(-184.80335998535156px, -66.8321533203125px);-webkit-animation-name: kf_el_WQbezK718Ki_an_TtFosuhly;animation-name: kf_el_WQbezK718Ki_an_TtFosuhly;-webkit-animation-timing-function: cubic-bezier(0, 0, 1, 1);animation-timing-function: cubic-bezier(0, 0, 1, 1);}#el_FRofURCtDdZ_an_7lG_7E9ME{-webkit-animation-fill-mode: backwards;animation-fill-mode: backwards;-webkit-transform: translate(396.6000061035156px, 274.3000183105469px) rotate(0deg) translate(-396.6000061035156px, -274.3000183105469px);transform: translate(396.6000061035156px, 274.3000183105469px) rotate(0deg) translate(-396.6000061035156px, -274.3000183105469px);-webkit-animation-name: kf_el_FRofURCtDdZ_an_7lG_7E9ME;animation-name: kf_el_FRofURCtDdZ_an_7lG_7E9ME;-webkit-animation-timing-function: cubic-bezier(0, 0, 1, 1);animation-timing-function: cubic-bezier(0, 0, 1, 1);}#el_jh9gJWiPXkM_an_51KmIlhuH{-webkit-animation-fill-mode: backwards;animation-fill-mode: backwards;-webkit-transform: translate(96.4014663696289px, 296.29998779296875px) translate(-96.4014663696289px, -296.29998779296875px) translate(0px, 20px);transform: translate(96.4014663696289px, 296.29998779296875px) translate(-96.4014663696289px, -296.29998779296875px) translate(0px, 20px);-webkit-animation-name: kf_el_jh9gJWiPXkM_an_51KmIlhuH;animation-name: kf_el_jh9gJWiPXkM_an_51KmIlhuH;-webkit-animation-timing-function: cubic-bezier(0, 0, 1, 1);animation-timing-function: cubic-bezier(0, 0, 1, 1);}#el_GraKU_enNO0_an_9X2w3NcL5{-webkit-transform: translate(274.4641418457031px, 65.03091430664062px) translate(-274.4641418457031px, -65.03091430664062px) translate(0px, 0px);transform: translate(274.4641418457031px, 65.03091430664062px) translate(-274.4641418457031px, -65.03091430664062px) translate(0px, 0px);}#el_GraKU_enNO0{-webkit-animation-fill-mode: backwards;animation-fill-mode: backwards;opacity: 1;-webkit-animation-name: kf_el_GraKU_enNO0_an_efrOUSzn6;animation-name: kf_el_GraKU_enNO0_an_efrOUSzn6;-webkit-animation-timing-function: cubic-bezier(0, 0, 1, 1);animation-timing-function: cubic-bezier(0, 0, 1, 1);}#el_jh9gJWiPXkM_an_br-fC70ui{-webkit-animation-fill-mode: backwards;animation-fill-mode: backwards;-webkit-transform: translate(96.4014663696289px, 296.29998779296875px) rotate(0deg) translate(-96.4014663696289px, -296.29998779296875px);transform: translate(96.4014663696289px, 296.29998779296875px) rotate(0deg) translate(-96.4014663696289px, -296.29998779296875px);-webkit-animation-name: kf_el_jh9gJWiPXkM_an_br-fC70ui;animation-name: kf_el_jh9gJWiPXkM_an_br-fC70ui;-webkit-animation-timing-function: cubic-bezier(0, 0, 1, 1);animation-timing-function: cubic-bezier(0, 0, 1, 1);}#el_jh9gJWiPXkM{-webkit-animation-fill-mode: backwards;animation-fill-mode: backwards;opacity: 0;-webkit-animation-name: kf_el_jh9gJWiPXkM_an_RWQaLkV3M;animation-name: kf_el_jh9gJWiPXkM_an_RWQaLkV3M;-webkit-animation-timing-function: cubic-bezier(0, 0, 1, 1);animation-timing-function: cubic-bezier(0, 0, 1, 1);}#el_RmEOcu0ts-5{-webkit-animation-fill-mode: backwards;animation-fill-mode: backwards;opacity: 1;-webkit-animation-name: kf_el_RmEOcu0ts-5_an_c1pqPhQ9g;animation-name: kf_el_RmEOcu0ts-5_an_c1pqPhQ9g;-webkit-animation-timing-function: cubic-bezier(0, 0, 1, 1);animation-timing-function: cubic-bezier(0, 0, 1, 1);}</style>

<g id="el_8MSx9lbzNl">
	<path d="M512.4,102.6c-130.2-93.2-202,40.5-202,40.5s3.8,12.4,9.6,29.6c24-18.4,92.3-62.6,196.3-65.3&#10;&#9;&#9;C514,104.3,512.4,102.6,512.4,102.6z" id="el_A3thAtYsJF"/>
	<path d="M516.3,107.4c-104,2.7-172.3,46.9-196.3,65.3c10.7,31.8,28.3,79.8,41.4,95.3c15.2,17.9,82.5,7,110.6-10.3&#10;&#9;&#9;C571.7,196,530.2,126.1,516.3,107.4z" id="el_iGQEafU8yB"/>
	<path d="M344.4,237.3c5.9,13.3,11.8,24.6,17,30.8c15.2,17.9,82.5,7,110.6-10.3c48.6-30,63.6-62,64.7-89.1&#10;&#9;&#9;C492.4,214.9,387.1,232.1,344.4,237.3z" id="el_RX_aIaPt-2"/>
	<path d="M346.6,167.2c0,0-1.6-0.4-1.7-2.6c0,0,0.1-1.6,1.6-0.5c0,0,0.8,0.8,0.7,2.4C347.2,166.5,347,167.2,346.6,167.2&#10;&#9;&#9;z" id="el_HyyghCf2DA"/>
	<path d="M359.9,167.1c0,0-1.2-1.1-0.2-3.1c0,0,0.9-1.3,1.6,0.4c0,0,0.3,1.1-0.6,2.4&#10;&#9;&#9;C360.8,166.8,360.3,167.3,359.9,167.1z" id="el_Rf8aZAXfOM"/>
	<ellipse cx="360.1" cy="203.2" rx="51" ry="79.7" id="el_9ES3_uoRTv"/>
	<path d="M360.9,265.9c-15.3-7.5-30-22.1-40.3-40c-10.1-17.6-15.2-36.5-14.4-53.3c0.8-15.9,6.8-27.9,16.9-33.8&#10;&#9;&#9;c9.8-5.6,22.6-5,36.2,1.6c15.3,7.5,30,22.1,40.3,40c10.1,17.6,15.2,36.5,14.4,53.3c-0.8,15.9-6.8,27.9-16.9,33.8&#10;&#9;&#9;C387.4,273.1,374.5,272.5,360.9,265.9z" id="el_gJbhKK8Hti"/>
	<path d="M360.3,221c-4.4-2.1-8.5-6.3-11.5-11.4c-2.9-5-4.3-10.4-4.1-15.2c0.2-4.5,1.9-8,4.8-9.6&#10;&#9;&#9;c2.8-1.6,6.4-1.4,10.3,0.5c4.4,2.1,8.5,6.3,11.5,11.4c2.9,5,4.3,10.4,4.1,15.2c-0.2,4.5-1.9,8-4.8,9.6&#10;&#9;&#9;C367.9,223.1,364.2,222.9,360.3,221z" id="el_-aTZlgjOh5"/>
	<g id="el_ZPjmkRzoKa">
		<path d="M342.8,188.3c-1.6-1-3-2.2-4.4-3.4c-1.4-1.2-2.7-2.4-4-3.7c-1.3-1.3-2.5-2.6-3.7-4s-2.3-2.8-3.3-4.4&#10;&#9;&#9;&#9;c1.6,1,3,2.2,4.4,3.3c1.4,1.2,2.7,2.4,4,3.7c1.3,1.3,2.5,2.6,3.7,4C340.7,185.3,341.8,186.8,342.8,188.3z" id="el_XElZDP9PzX"/>
	</g>
	<g id="el_GjXdTm0ggX">
		<path d="M338.8,198.4c-1.9-0.1-3.7-0.4-5.4-0.7c-1.8-0.3-3.6-0.8-5.3-1.2c-1.7-0.5-3.5-1-5.2-1.7&#10;&#9;&#9;&#9;c-1.7-0.6-3.4-1.3-5-2.2c1.9,0.1,3.7,0.4,5.4,0.7c1.8,0.3,3.6,0.8,5.3,1.2c1.7,0.5,3.5,1,5.2,1.7S337.2,197.6,338.8,198.4z" id="el_XGlvEwtOg-"/>
	</g>
	<g id="el_cYMHLf20nk">
		<path d="M338.9,203.9c-1.8,0.5-3.6,0.8-5.4,1s-3.6,0.2-5.4,0.2s-3.6-0.1-5.4-0.3c-1.8-0.2-3.6-0.5-5.4-1&#10;&#9;&#9;&#9;c1.8-0.5,3.6-0.8,5.4-1s3.6-0.2,5.4-0.2s3.6,0.1,5.4,0.3S337.1,203.3,338.9,203.9z" id="el_tlVN50UYma"/>
	</g>
	<g id="el_PjvYZqbnaR8">
		<path d="M365.7,230.1c0.5,1.8,0.8,3.6,1,5.4s0.2,3.6,0.2,5.4s-0.1,3.6-0.3,5.4c-0.2,1.8-0.5,3.6-1,5.4&#10;&#9;&#9;&#9;c-0.5-1.8-0.8-3.6-1-5.4s-0.2-3.6-0.2-5.4s0.1-3.6,0.3-5.4C364.9,233.7,365.2,231.9,365.7,230.1z" id="el_UFFUi85K0Gp"/>
	</g>
	<g id="el_tRX_cdaGCIZ">
		<path d="M358.2,226.4c0.1,1.9-0.1,3.8-0.4,5.7c-0.3,1.8-0.6,3.7-1.1,5.5c-0.4,1.8-1,3.6-1.6,5.3&#10;&#9;&#9;&#9;c-0.6,1.8-1.3,3.5-2.3,5.2c-0.1-1.9,0.1-3.8,0.4-5.7c0.3-1.8,0.6-3.7,1.1-5.5c0.4-1.8,1-3.6,1.6-5.3&#10;&#9;&#9;&#9;C356.5,229.9,357.2,228.1,358.2,226.4z" id="el_gJj5XcOPMd2"/>
	</g>
	<g id="el_TTsZ-b9Ahd8">
		<path d="M371,228.6c1.8,1.7,3.4,3.6,5,5.5s3,3.9,4.4,5.9s2.7,4.1,3.9,6.2c1.2,2.1,2.4,4.3,3.3,6.7&#10;&#9;&#9;&#9;c-1.8-1.7-3.4-3.6-5-5.5s-3-3.9-4.4-5.9s-2.7-4.1-3.9-6.3C373.1,233.1,371.9,230.9,371,228.6z" id="el_lbJfAjdEWzA"/>
	</g>
	<g id="el_eYSqPBgBqH2">
		<path d="M376.2,224.2c1.7,0.9,3.1,2,4.5,3.2s2.7,2.4,4,3.7c1.3,1.3,2.5,2.6,3.6,4.1c1.1,1.4,2.2,2.9,3.1,4.6&#10;&#9;&#9;&#9;c-1.7-0.9-3.1-2-4.5-3.2s-2.7-2.4-4-3.7c-1.3-1.3-2.5-2.6-3.6-4.1C378.1,227.3,377.1,225.8,376.2,224.2z" id="el_NbE8IKnAtji"/>
	</g>
	<g id="el_PWPk3l24skl">
		<path d="M380.3,215.7c1.9,0.6,3.7,1.3,5.4,2.1c1.8,0.8,3.5,1.6,5.2,2.6c1.7,0.9,3.4,1.9,5,2.9s3.2,2.1,4.7,3.4&#10;&#9;&#9;&#9;c-1.9-0.6-3.7-1.3-5.4-2.1c-1.8-0.8-3.5-1.6-5.2-2.6c-1.7-0.9-3.4-1.9-5-2.9S381.8,217,380.3,215.7z" id="el_7iLx1A2EOdv"/>
	</g>
	<g id="el_E2ocu5A2dD-">
		<path d="M380.5,203.1c1.9,0,3.7,0.2,5.5,0.5s3.6,0.7,5.3,1.2c1.7,0.5,3.5,1,5.2,1.7s3.4,1.4,5,2.4&#10;&#9;&#9;&#9;c-1.9,0-3.7-0.2-5.5-0.5s-3.6-0.7-5.3-1.2c-1.7-0.5-3.5-1.1-5.2-1.7C383.7,204.9,382.1,204.1,380.5,203.1z" id="el_q7YFKKZDGcV"/>
	</g>
	<g id="el_nnKsGn13BSk">
		<path d="M376.3,197.6c1.7-0.7,3.4-1.4,5.1-1.9c1.7-0.6,3.5-1.1,5.2-1.5c1.8-0.4,3.5-0.9,5.3-1.2&#10;&#9;&#9;&#9;c1.8-0.4,3.6-0.7,5.4-0.8c-1.7,0.7-3.4,1.4-5.1,1.9c-1.7,0.6-3.5,1.1-5.2,1.5c-1.8,0.4-3.5,0.9-5.3,1.2&#10;&#9;&#9;&#9;C379.9,197.1,378.1,197.4,376.3,197.6z" id="el__o5Z9r0oR8l"/>
	</g>
	<g id="el_oBpd-ZhV3bz">
		<path d="M369.6,189.1c1.1-1.5,2.3-2.9,3.5-4.2c1.2-1.4,2.5-2.6,3.8-3.9s2.6-2.5,4-3.7s2.8-2.4,4.3-3.4&#10;&#9;&#9;&#9;c-1.1,1.5-2.3,2.9-3.5,4.2c-1.2,1.4-2.5,2.6-3.8,3.9s-2.6,2.5-4,3.7S371.1,188,369.6,189.1z" id="el_FALoMREv-0C"/>
	</g>
	<g id="el_rSkr14fI3EY">
		<path d="M362,180c0-1.9,0.2-3.7,0.5-5.5s0.7-3.6,1.2-5.3c0.5-1.7,1-3.5,1.7-5.2s1.4-3.4,2.4-5c0,1.9-0.2,3.7-0.5,5.5&#10;&#9;&#9;&#9;s-0.7,3.6-1.2,5.3c-0.5,1.7-1.1,3.5-1.7,5.2C363.7,176.7,363,178.4,362,180z" id="el_VKAKgSCiN3e"/>
	</g>
	<g id="el_2acqkb8pjRg">
		<path d="M356.5,180.1c-0.3-1.8-0.4-3.6-0.5-5.4s-0.1-3.6-0.1-5.4s0.1-3.6,0.2-5.4s0.3-3.6,0.6-5.4&#10;&#9;&#9;&#9;c0.3,1.8,0.4,3.6,0.5,5.4s0.1,3.6,0.1,5.4s-0.1,3.6-0.2,5.4C357,176.4,356.8,178.3,356.5,180.1z" id="el_77z5E9aPZ4z"/>
	</g>
	<g id="el_LTN7Cj7Q6Uu">
		<path d="M346.6,184.4c-1.3-2.2-2.4-4.6-3.4-6.9c-1-2.4-1.9-4.7-2.8-7.2c-0.8-2.4-1.6-4.9-2.2-7.3&#10;&#9;&#9;&#9;c-0.7-2.5-1.2-5-1.5-7.6c1.3,2.2,2.4,4.6,3.4,6.9c1,2.4,1.9,4.7,2.8,7.2c0.8,2.4,1.6,4.9,2.2,7.3&#10;&#9;&#9;&#9;C345.7,179.3,346.3,181.8,346.6,184.4z" id="el_80Eap0HEHxH"/>
	</g>
	<path d="M323.7,198.5c0,0,0.1-1.8,2.5-2.5c0,0,1.8-0.2,0.8,1.7c0,0-0.8,1.1-2.5,1.2C324.6,199,323.8,199,323.7,198.5z" id="el_bDOHYaXWB3e"/>
	<path d="M335.6,208.4c0,0,0.1-1.8,2.5-2.5c0,0,1.8-0.2,0.8,1.7c0,0-0.8,1.1-2.5,1.2&#10;&#9;&#9;C336.5,208.8,335.7,208.9,335.6,208.4z" id="el_L6SC9vau1Dj"/>
	<path d="M332.6,223.4c0,0,0.1-1.8,2.5-2.5c0,0,1.8-0.2,0.8,1.7c0,0-0.8,1.1-2.5,1.2&#10;&#9;&#9;C333.5,223.9,332.7,223.9,332.6,223.4z" id="el_8ECsFgjY3wP"/>
	<path d="M331,204.4c0,0,0.1-1.8,2.5-2.5c0,0,1.8-0.2,0.8,1.7c0,0-0.8,1.1-2.5,1.2C331.9,204.9,331.1,204.9,331,204.4z" id="el_-Jyz7ZsMRMH"/>
	<path d="M342.9,214.3c0,0,0.1-1.8,2.5-2.5c0,0,1.8-0.2,0.8,1.7c0,0-0.8,1.1-2.5,1.2C343.8,214.7,343,214.8,342.9,214.3&#10;&#9;&#9;z" id="el_b2RNB60xBER"/>
	<path d="M324.5,217.5c0,0,0.3-1.7,2.5-2c0,0,1.6-0.1,0.6,1.6c0,0-0.8,0.9-2.4,0.9C325.2,218,324.5,218,324.5,217.5z" id="el_NQac43917Gj"/>
	<path d="M346.2,227.3c0,0-0.5-1.8,1.7-3.1c0,0,1.6-0.7,1.3,1.4c0,0-0.4,1.3-2,1.9C347.2,227.5,346.4,227.8,346.2,227.3&#10;&#9;&#9;z" id="el_S5U7lv7iEQt"/>
	<path d="M360.6,233.1c0,0-0.5-1.8,1.7-3.1c0,0,1.6-0.7,1.3,1.4c0,0-0.4,1.3-2,1.9C361.6,233.3,360.8,233.5,360.6,233.1&#10;&#9;&#9;z" id="el_fJiqpmg5LOU"/>
	<path d="M362.3,248.3c0,0-0.5-1.8,1.7-3.1c0,0,1.6-0.7,1.3,1.4c0,0-0.4,1.3-2,1.9C363.3,248.5,362.5,248.8,362.3,248.3&#10;&#9;&#9;z" id="el_b4BKd--fTHU"/>
	<path d="M355,230.7c0,0-0.5-1.8,1.7-3.1c0,0,1.6-0.7,1.3,1.4c0,0-0.4,1.3-2,1.9C356,230.9,355.2,231.2,355,230.7z" id="el_A2IlDgLjWtR"/>
	<path d="M369.3,236.4c0,0-0.5-1.8,1.7-3.1c0,0,1.6-0.7,1.3,1.4c0,0-0.4,1.3-2,1.9C370.3,236.6,369.5,236.9,369.3,236.4&#10;&#9;&#9;z" id="el_Q7NPabLeadN"/>
	<path d="M371.1,251.7c0,0-0.5-1.8,1.7-3.1c0,0,1.6-0.7,1.3,1.4c0,0-0.4,1.3-2,1.9C372.1,251.9,371.3,252.1,371.1,251.7&#10;&#9;&#9;z" id="el_HyVx7_X5Lb8"/>
	<path d="M352.8,245.2c0,0-0.3-1.7,1.8-2.7c0,0,1.5-0.6,1.1,1.3c0,0-0.5,1.1-2,1.6C353.7,245.4,352.9,245.6,352.8,245.2&#10;&#9;&#9;z" id="el_Q7b_R2m2Jc3"/>
	<path d="M365.5,251.6c0,0-0.3-1.7,1.8-2.7c0,0,1.5-0.6,1.1,1.3c0,0-0.5,1.1-2,1.6C366.3,251.8,365.6,252,365.5,251.6z" id="el_-4hH3Vk7SKN"/>
	<path d="M387.2,231.5c0,0-1.5,1.1-3.5-0.4c0,0-1.3-1.2,0.8-1.7c0,0,1.3-0.1,2.5,1.1C387,230.5,387.6,231.1,387.2,231.5&#10;&#9;&#9;z" id="el_SbDgR2_E-eI"/>
	<path d="M378.9,178.9c0,0,0.8,1.7-1,3.4c0,0-1.4,1-1.5-1.1c0,0,0.1-1.3,1.6-2.3C377.9,179,378.6,178.5,378.9,178.9z" id="el_Uxktyc3SFx6"/>
	<path d="M377.2,169c0,0,0.8,1.7-1,3.4c0,0-1.4,1-1.5-1.1c0,0,0.1-1.3,1.6-2.3C376.1,169,376.9,168.6,377.2,169z" id="el_Z7XGKTSBuTb"/>
	<path d="M400.9,208.9c0,0-1.5,1.1-3.5-0.4c0,0-1.3-1.2,0.8-1.7c0,0,1.3-0.1,2.5,1.1&#10;&#9;&#9;C400.7,207.9,401.3,208.5,400.9,208.9z" id="el_Jd3IxfaZ2cZ"/>
	<path d="M387.2,222.1c0,0-1.5,1.1-3.5-0.4c0,0-1.3-1.2,0.8-1.7c0,0,1.3-0.1,2.5,1.1C387,221.1,387.6,221.8,387.2,222.1&#10;&#9;&#9;z" id="el_09-OIS13QBd"/>
	<path d="M387.3,206.7c0,0-1.5,1.1-3.5-0.4c0,0-1.3-1.2,0.8-1.7c0,0,1.3-0.1,2.5,1.1&#10;&#9;&#9;C387.1,205.7,387.7,206.3,387.3,206.7z" id="el_g0MxmgpE89d"/>
	<path d="M389.9,195.4c0,0-1.5,1.1-3.5-0.4c0,0-1.3-1.2,0.8-1.7c0,0,1.3-0.1,2.5,1.1C389.7,194.4,390.3,195,389.9,195.4&#10;&#9;&#9;z" id="el_z8GiBi8-vhh"/>
	<path d="M401.5,218.9c0,0-1.5,0.9-3.2-0.7c0,0-1.1-1.2,0.9-1.5c0,0,1.2,0,2.2,1.2C401.4,218,401.9,218.6,401.5,218.9z" id="el_UYdUTTW9kdp"/>
	<path d="M363.5,175c0,0-0.5-0.9,0.4-2c0,0,0.8-0.7,0.9,0.5c0,0,0,0.8-0.8,1.4C364.1,174.9,363.7,175.2,363.5,175z" id="el_gCza1AVa9YL"/>
	<path d="M329.7,181.6c0,0-1.6-0.4-1.7-2.6c0,0,0.1-1.6,1.6-0.5c0,0,0.8,0.8,0.7,2.4&#10;&#9;&#9;C330.3,180.9,330.2,181.7,329.7,181.6z" id="el_FBpQrr79Pmq"/>
	<path d="M340.3,172.7c0,0-1.6-0.4-1.7-2.6c0,0,0.1-1.6,1.6-0.5c0,0,0.8,0.8,0.7,2.4C340.8,172,340.7,172.7,340.3,172.7&#10;&#9;&#9;z" id="el__T6pH3Uow3a"/>
	<path d="M352.9,177.6c0,0-1.6-0.4-1.7-2.6c0,0,0.1-1.6,1.6-0.5c0,0,0.8,0.8,0.7,2.4&#10;&#9;&#9;C353.4,176.9,353.3,177.6,352.9,177.6z" id="el_fbAXbVizEuu"/>
	<path d="M339,179.1c0,0-1.6-0.4-1.7-2.6c0,0,0.1-1.6,1.6-0.5c0,0,0.8,0.8,0.7,2.4C339.5,178.4,339.4,179.1,339,179.1z" id="el_BiJLqUfgVy-"/>
	<path d="M346.4,183.8c0,0-1.4-0.5-1.4-2.5c0,0,0.2-1.4,1.5-0.3c0,0,0.7,0.8,0.4,2.2&#10;&#9;&#9;C346.9,183.2,346.8,183.9,346.4,183.8z" id="el_WQDS7V2WPXp"/>
	<path d="M356.7,176.5c0,0-1.4-0.5-1.4-2.5c0,0,0.2-1.4,1.5-0.3c0,0,0.7,0.8,0.4,2.2&#10;&#9;&#9;C357.3,175.9,357.1,176.6,356.7,176.5z" id="el_5mORz0Oyidd"/>
	<g id="el_BZDn5qTqAUf">
		<path d="M351.4,223.3c0.1,1.9-0.1,3.8-0.4,5.7c-0.3,1.8-0.6,3.7-1.1,5.5c-0.4,1.8-1,3.6-1.6,5.3&#10;&#9;&#9;&#9;c-0.6,1.8-1.3,3.5-2.3,5.2c-0.1-1.9,0.1-3.8,0.4-5.7c0.3-1.8,0.6-3.7,1.1-5.5c0.4-1.8,1-3.6,1.6-5.3&#10;&#9;&#9;&#9;C349.7,226.7,350.4,225,351.4,223.3z" id="el_jwPTXuaE-9_"/>
	</g>
	<g id="el____vkOz2Frc">
		<path d="M345.1,218c-0.7,1.9-1.7,3.6-2.7,5.2s-2.1,3.2-3.3,4.8c-1.2,1.5-2.4,3-3.7,4.4c-1.3,1.4-2.7,2.8-4.3,4&#10;&#9;&#9;&#9;c0.7-1.9,1.7-3.6,2.7-5.2s2.1-3.2,3.3-4.8c1.2-1.5,2.4-3,3.7-4.4C342.2,220.6,343.5,219.3,345.1,218z" id="el_JI4v3rC0nAz"/>
	</g>
	<g id="el_fgfaA6mwFHu">
		<path d="M338.1,210.2c-1.2,1.1-2.5,1.9-3.9,2.6c-1.3,0.7-2.7,1.4-4.1,1.9c-1.4,0.6-2.9,1-4.3,1.4&#10;&#9;&#9;&#9;c-1.5,0.4-3,0.7-4.6,0.8c1.2-1.1,2.5-1.9,3.9-2.6c1.3-0.7,2.7-1.4,4.1-1.9c1.4-0.6,2.9-1,4.3-1.4&#10;&#9;&#9;&#9;C335,210.6,336.5,210.3,338.1,210.2z" id="el_7y7dRu1mEM9"/>
	</g>
</g>
<g id="el_GraKU_enNO0">
	<path d="M479.2,261.5c-29.3,18.1-99.7,29.5-115.5,10.8c-21.2-25-53.3-130.5-53.3-130.5s75-139.6,211.1-42.3&#10;&#9;&#9;C521.4,99.5,600.7,186.3,479.2,261.5z" id="el_TiTdJ3hVo2B"/>
	
		<ellipse cx="362.2" cy="202.7" rx="53.3" ry="83.3" id="el_Y6eXj_Sy93q"/>
	<path d="M363.1,268.2c-16-7.8-31.3-23.1-42.1-41.8c-10.5-18.3-15.9-38.1-15-55.7c0.8-16.6,7.1-29.2,17.7-35.3&#10;&#9;&#9;c10.2-5.9,23.6-5.3,37.8,1.7c16,7.8,31.3,23.1,42.1,41.8c10.5,18.3,15.9,38.1,15,55.7c-0.8,16.6-7.1,29.2-17.7,35.3&#10;&#9;&#9;C390.7,275.8,377.3,275.2,363.1,268.2z" id="el_4aeFBucZWgq"/>
	<path d="M362.5,221.3c-4.6-2.2-8.9-6.6-12-11.9c-3-5.2-4.5-10.9-4.3-15.9c0.2-4.7,2-8.3,5-10c2.9-1.7,6.7-1.5,10.8,0.5&#10;&#9;&#9;c4.6,2.2,8.9,6.6,12,11.9c3,5.2,4.5,10.9,4.3,15.9c-0.2,4.7-2,8.3-5,10C370.4,223.5,366.5,223.3,362.5,221.3z" id="el_GWOkL50bWtB"/>
	<g id="el_NNaOjn514Rj">
		<path d="M344.1,187.2c-1.6-1.1-3.1-2.3-4.5-3.5s-2.8-2.5-4.1-3.9c-1.3-1.3-2.6-2.8-3.8-4.2c-1.2-1.5-2.4-3-3.4-4.6&#10;&#9;&#9;&#9;c1.6,1.1,3.1,2.3,4.5,3.5s2.8,2.5,4.1,3.9c1.3,1.3,2.6,2.8,3.8,4.2C341.9,184.1,343.1,185.6,344.1,187.2z" id="el_E41hgmnqVJw"/>
	</g>
	<g id="el_c8MNwhOQbJx">
		<path d="M340,197.7c-1.9-0.1-3.8-0.4-5.7-0.8c-1.9-0.4-3.7-0.8-5.5-1.3s-3.6-1.1-5.4-1.7c-1.8-0.6-3.6-1.4-5.3-2.3&#10;&#9;&#9;&#9;c1.9,0.1,3.8,0.4,5.7,0.8c1.9,0.4,3.7,0.8,5.5,1.3s3.6,1.1,5.4,1.7C336.5,196.1,338.3,196.8,340,197.7z" id="el_rWnE5vb7BHe"/>
	</g>
	<g id="el_nOItO3Aqhh9">
		<path d="M340.1,203.5c-1.9,0.5-3.8,0.8-5.7,1c-1.9,0.2-3.8,0.3-5.7,0.2c-1.9,0-3.8-0.1-5.7-0.3&#10;&#9;&#9;&#9;c-1.9-0.2-3.8-0.5-5.7-1.1c1.9-0.5,3.8-0.8,5.7-1c1.9-0.2,3.8-0.3,5.7-0.2c1.9,0,3.8,0.1,5.7,0.3&#10;&#9;&#9;&#9;C336.3,202.6,338.2,202.9,340.1,203.5z" id="el_ea9a19OltkI"/>
	</g>
	<g id="el_-2np_hhifmc">
		<path d="M368.1,230.8c0.5,1.9,0.8,3.8,1,5.7s0.3,3.8,0.2,5.7c0,1.9-0.1,3.8-0.3,5.7c-0.2,1.9-0.5,3.8-1.1,5.7&#10;&#9;&#9;&#9;c-0.5-1.9-0.8-3.8-1-5.7s-0.3-3.8-0.2-5.7c0-1.9,0.1-3.8,0.3-5.7C367.2,234.6,367.5,232.7,368.1,230.8z" id="el_hrhcFNP-tTd"/>
	</g>
	<g id="el_LQc4hUkv51J">
		<path d="M360.2,227c0.1,2-0.1,4-0.4,5.9s-0.7,3.8-1.1,5.7c-0.5,1.9-1,3.7-1.7,5.6c-0.7,1.8-1.4,3.7-2.4,5.4&#10;&#9;&#9;&#9;c-0.1-2,0.1-4,0.4-5.9s0.7-3.8,1.1-5.7c0.5-1.9,1-3.7,1.7-5.6C358.5,230.6,359.2,228.8,360.2,227z" id="el_chvMYzRmtOd"/>
	</g>
	<g id="el_Dnb-c9nKVR3">
		<path d="M373.6,229.3c1.9,1.8,3.6,3.8,5.2,5.8s3.1,4.1,4.6,6.2c1.4,2.1,2.8,4.3,4.1,6.5c1.3,2.2,2.5,4.5,3.5,7&#10;&#9;&#9;&#9;c-1.9-1.8-3.6-3.8-5.2-5.8s-3.1-4.1-4.6-6.2c-1.4-2.1-2.8-4.3-4.1-6.5C375.8,234,374.6,231.7,373.6,229.3z" id="el_AoEPI5cNesi"/>
	</g>
	<g id="el_LxqzeW74fNm">
		<path d="M353.7,221.5c-0.8,1.9-1.8,3.7-2.8,5.4c-1.1,1.7-2.2,3.4-3.4,5c-1.2,1.6-2.5,3.2-3.9,4.6&#10;&#9;&#9;&#9;c-1.4,1.5-2.8,2.9-4.5,4.2c0.8-1.9,1.8-3.7,2.8-5.4c1.1-1.7,2.2-3.4,3.4-5c1.2-1.6,2.5-3.2,3.9-4.6&#10;&#9;&#9;&#9;C350.6,224.2,352.1,222.8,353.7,221.5z" id="el_P1bulNIE-2S"/>
	</g>
	<g id="el_xF9IzBE1p2f">
		<path d="M346.4,213.4c-1.3,1.1-2.6,1.9-4,2.7s-2.8,1.4-4.3,2s-3,1.1-4.5,1.5c-1.6,0.4-3.1,0.7-4.8,0.8&#10;&#9;&#9;&#9;c1.3-1.1,2.6-2,4-2.7c1.4-0.8,2.8-1.4,4.3-2s3-1.1,4.5-1.5S344.7,213.4,346.4,213.4z" id="el_FpZTD0xCq3H"/>
	</g>
	<g id="el_30k5Hy41Fzl">
		<path d="M379,224.6c1.7,1,3.3,2.1,4.7,3.3c1.5,1.2,2.9,2.5,4.2,3.8c1.3,1.3,2.6,2.8,3.8,4.2c1.2,1.5,2.3,3,3.2,4.8&#10;&#9;&#9;&#9;c-1.7-1-3.3-2.1-4.7-3.3c-1.5-1.2-2.9-2.5-4.2-3.8c-1.3-1.4-2.6-2.8-3.8-4.3C381.1,227.9,379.9,226.4,379,224.6z" id="el_zkdrUgE85Iy"/>
	</g>
	<g id="el_5zjUJcmlyEg">
		<path d="M383.3,215.8c2,0.6,3.8,1.4,5.7,2.2c1.8,0.8,3.6,1.7,5.4,2.7c1.8,0.9,3.5,2,5.2,3.1s3.4,2.2,4.9,3.6&#10;&#9;&#9;&#9;c-2-0.6-3.8-1.3-5.7-2.2c-1.8-0.8-3.6-1.7-5.4-2.7s-3.5-2-5.2-3.1C386.6,218.3,384.9,217.1,383.3,215.8z" id="el_y94WacfJagn"/>
	</g>
	<g id="el_9hYF_JBssXV">
		<path d="M383.5,202.7c2,0,3.9,0.2,5.8,0.5s3.7,0.7,5.6,1.2c1.8,0.5,3.6,1.1,5.4,1.8s3.5,1.5,5.2,2.5&#10;&#9;&#9;&#9;c-2,0-3.9-0.2-5.8-0.5s-3.7-0.7-5.6-1.2c-1.8-0.5-3.6-1.1-5.4-1.8C386.9,204.5,385.2,203.7,383.5,202.7z" id="el_qhxG2vj6l9w"/>
	</g>
	<g id="el_2iqq5CNXizh">
		<path d="M379.2,196.9c1.8-0.8,3.5-1.4,5.4-2c1.8-0.6,3.6-1.1,5.5-1.6c1.8-0.5,3.7-0.9,5.5-1.3&#10;&#9;&#9;&#9;c1.9-0.4,3.7-0.7,5.6-0.9c-1.8,0.8-3.5,1.4-5.4,2c-1.8,0.6-3.6,1.1-5.5,1.6c-1.8,0.5-3.7,0.9-5.5,1.3&#10;&#9;&#9;&#9;C382.9,196.4,381.1,196.7,379.2,196.9z" id="el_SdsSMBNjdbt"/>
	</g>
	<g id="el_ZPK3GwPMVA8">
		<path d="M372.1,188c1.1-1.6,2.4-3,3.6-4.4c1.3-1.4,2.6-2.8,3.9-4.1c1.4-1.3,2.7-2.6,4.2-3.9c1.4-1.3,2.9-2.5,4.5-3.6&#10;&#9;&#9;&#9;c-1.1,1.6-2.4,3-3.6,4.4c-1.3,1.4-2.6,2.8-3.9,4.1c-1.4,1.3-2.7,2.6-4.2,3.9C375.1,185.7,373.7,186.9,372.1,188z" id="el_HIx2YdpPQ00"/>
	</g>
	<g id="el_3Wn_SuzQwnz">
		<path d="M364.2,178.5c0-2,0.2-3.9,0.5-5.8c0.3-1.9,0.7-3.7,1.2-5.6c0.5-1.8,1.1-3.6,1.8-5.4c0.7-1.8,1.5-3.5,2.5-5.2&#10;&#9;&#9;&#9;c0,2-0.2,3.9-0.5,5.8c-0.3,1.9-0.7,3.7-1.2,5.6c-0.5,1.8-1.1,3.6-1.8,5.4C366,175,365.2,176.8,364.2,178.5z" id="el_t7KYfsfdCWr"/>
	</g>
	<g id="el_vV7tx1nf4zC">
		<path d="M358.5,178.6c-0.3-1.9-0.4-3.8-0.5-5.7s-0.1-3.8-0.1-5.7s0.1-3.8,0.2-5.7s0.3-3.8,0.6-5.7&#10;&#9;&#9;&#9;c0.3,1.9,0.4,3.8,0.5,5.7s0.1,3.8,0.1,5.7s-0.1,3.8-0.2,5.7S358.8,176.7,358.5,178.6z" id="el_YTEvZPtksHT"/>
	</g>
	<g id="el_1MAzSMzw-29">
		<path d="M348.1,183.1c-1.4-2.3-2.5-4.8-3.6-7.2c-1.1-2.5-2-5-2.9-7.5s-1.7-5.1-2.3-7.7c-0.7-2.6-1.3-5.2-1.6-7.9&#10;&#9;&#9;&#9;c1.4,2.3,2.5,4.8,3.6,7.2c1.1,2.5,2,5,2.9,7.5s1.7,5.1,2.3,7.7C347.2,177.8,347.8,180.4,348.1,183.1z" id="el_gFlrbHJmRCh"/>
	</g>
	<path d="M324.2,197.8c0,0,0.1-1.9,2.7-2.6c0,0,1.8-0.2,0.9,1.8c0,0-0.8,1.2-2.6,1.3&#10;&#9;&#9;C325.1,198.3,324.3,198.3,324.2,197.8z" id="el_bgEyzHJDoav"/>
	<path d="M336.7,208.1c0,0,0.1-1.9,2.7-2.6c0,0,1.8-0.2,0.9,1.8c0,0-0.8,1.2-2.6,1.3&#10;&#9;&#9;C337.6,208.6,336.7,208.7,336.7,208.1z" id="el_U32wO1gI7Ll"/>
	<path d="M333.5,223.8c0,0,0.1-1.9,2.7-2.6c0,0,1.8-0.2,0.9,1.8c0,0-0.8,1.2-2.6,1.3&#10;&#9;&#9;C334.4,224.3,333.6,224.4,333.5,223.8z" id="el_PDKDdU9hdkA"/>
	<path d="M331.8,204c0,0,0.1-1.9,2.7-2.6c0,0,1.8-0.2,0.9,1.8c0,0-0.8,1.2-2.6,1.3C332.8,204.5,331.9,204.5,331.8,204z" id="el_ePfrXSGMuIg"/>
	<path d="M344.3,214.3c0,0,0.1-1.9,2.7-2.6c0,0,1.8-0.2,0.9,1.8c0,0-0.8,1.2-2.6,1.3&#10;&#9;&#9;C345.2,214.8,344.3,214.8,344.3,214.3z" id="el_AovnG8h882x"/>
	<path d="M325,217.7c0,0,0.3-1.7,2.6-2.1c0,0,1.7-0.1,0.6,1.7c0,0-0.8,1-2.5,1C325.8,218.2,325,218.2,325,217.7z" id="el_YN2ejHJgKHq"/>
	<path d="M347.7,228c0,0-0.5-1.9,1.7-3.3c0,0,1.7-0.8,1.4,1.4c0,0-0.4,1.3-2.1,2C348.8,228.1,347.9,228.4,347.7,228z" id="el_vw97l07z-J3"/>
	<path d="M362.7,233.9c0,0-0.5-1.9,1.7-3.3c0,0,1.7-0.8,1.4,1.4c0,0-0.4,1.3-2.1,2C363.8,234.1,362.9,234.4,362.7,233.9&#10;&#9;&#9;z" id="el_sQo1uaaKzi8"/>
	<path d="M364.6,249.9c0,0-0.5-1.9,1.7-3.3c0,0,1.7-0.8,1.4,1.4c0,0-0.4,1.3-2.1,2C365.6,250,364.8,250.3,364.6,249.9z" id="el_jARHmrfuuKO"/>
	<path d="M356.9,231.5c0,0-0.5-1.9,1.7-3.3c0,0,1.7-0.8,1.4,1.4c0,0-0.4,1.3-2.1,2C357.9,231.7,357.1,231.9,356.9,231.5&#10;&#9;&#9;z" id="el_p1Bc9YIOcZN"/>
	<path d="M371.9,237.5c0,0-0.5-1.9,1.7-3.3c0,0,1.7-0.8,1.4,1.4c0,0-0.4,1.3-2.1,2C372.9,237.6,372.1,237.9,371.9,237.5&#10;&#9;&#9;z" id="el_LMbOiXFpJUf"/>
	<path d="M373.7,253.4c0,0-0.5-1.9,1.7-3.3c0,0,1.7-0.8,1.4,1.4c0,0-0.4,1.3-2.1,2C374.7,253.6,373.9,253.9,373.7,253.4&#10;&#9;&#9;z" id="el_Z1oTSHz5H-y"/>
	<path d="M354.6,246.6c0,0-0.3-1.7,1.9-2.8c0,0,1.6-0.6,1.1,1.4c0,0-0.5,1.2-2.1,1.7&#10;&#9;&#9;C355.5,246.9,354.7,247.1,354.6,246.6z" id="el_NldSAtzHJr6"/>
	<path d="M367.8,253.3c0,0-0.3-1.7,1.9-2.8c0,0,1.6-0.6,1.1,1.4c0,0-0.5,1.2-2.1,1.7C368.7,253.6,368,253.7,367.8,253.3&#10;&#9;&#9;z" id="el_QNAeN1q4GSJ"/>
	<path d="M390.6,232.3c0,0-1.6,1.1-3.7-0.4c0,0-1.3-1.3,0.8-1.8c0,0,1.4-0.1,2.6,1.2&#10;&#9;&#9;C390.4,231.3,390.9,231.9,390.6,232.3z" id="el_cdFJgHznFBS"/>
	<path d="M381.8,177.4c0,0,0.8,1.7-1.1,3.5c0,0-1.5,1.1-1.6-1.1c0,0,0.1-1.4,1.6-2.4C380.8,177.4,381.5,177,381.8,177.4&#10;&#9;&#9;z" id="el_GGVPWdl0mhn"/>
	<path d="M380,167c0,0,0.8,1.7-1.1,3.5c0,0-1.5,1.1-1.6-1.1c0,0,0.1-1.4,1.6-2.4C379,167,379.7,166.6,380,167z" id="el_IJYbNFreItS"/>
	<path d="M404.9,208.7c0,0-1.6,1.1-3.7-0.4c0,0-1.3-1.3,0.8-1.8c0,0,1.4-0.1,2.6,1.2&#10;&#9;&#9;C404.7,207.6,405.2,208.3,404.9,208.7z" id="el__bmuzFNA194"/>
	<path d="M390.5,222.5c0,0-1.6,1.1-3.7-0.4c0,0-1.3-1.3,0.8-1.8c0,0,1.4-0.1,2.6,1.2&#10;&#9;&#9;C390.3,221.5,390.9,222.1,390.5,222.5z" id="el_3amtAuAPxyZ"/>
	<path d="M390.7,206.3c0,0-1.6,1.1-3.7-0.4c0,0-1.3-1.3,0.8-1.8c0,0,1.4-0.1,2.6,1.2C390.5,205.3,391,206,390.7,206.3z" id="el_AcvZG-9gB0O"/>
	<path d="M393.4,194.5c0,0-1.6,1.1-3.7-0.4c0,0-1.3-1.3,0.8-1.8c0,0,1.4-0.1,2.6,1.2&#10;&#9;&#9;C393.2,193.5,393.7,194.2,393.4,194.5z" id="el_C_XZHTcp2J6"/>
	<path d="M405.5,219.1c0,0-1.5,0.9-3.3-0.7c0,0-1.1-1.3,0.9-1.6c0,0,1.3,0,2.3,1.3C405.4,218.2,405.8,218.8,405.5,219.1&#10;&#9;&#9;z" id="el_nxHQC74lOvJ"/>
	<path d="M365.8,173.3c0,0-0.5-0.9,0.5-2.1c0,0,0.8-0.7,1,0.6c0,0,0,0.8-0.8,1.4C366.4,173.2,366,173.5,365.8,173.3z" id="el_ApQjeeCYHIT"/>
	<path d="M330.5,180.2c0,0-1.6-0.4-1.8-2.7c0,0,0.1-1.6,1.7-0.5c0,0,0.9,0.9,0.7,2.5&#10;&#9;&#9;C331.1,179.5,330.9,180.2,330.5,180.2z" id="el_mOnFEXy_ACl"/>
	<path d="M341.5,170.9c0,0-1.6-0.4-1.8-2.7c0,0,0.1-1.6,1.7-0.5c0,0,0.9,0.9,0.7,2.5C342.1,170.1,342,170.9,341.5,170.9&#10;&#9;&#9;z" id="el_DJJguNaiMug"/>
	<path d="M354.7,176c0,0-1.6-0.4-1.8-2.7c0,0,0.1-1.6,1.7-0.5c0,0,0.9,0.9,0.7,2.5C355.2,175.2,355.1,176,354.7,176z" id="el_PVkYqQr8Kg0"/>
	<path d="M340.2,177.6c0,0-1.6-0.4-1.8-2.7c0,0,0.1-1.6,1.7-0.5c0,0,0.9,0.9,0.7,2.5&#10;&#9;&#9;C340.7,176.8,340.6,177.6,340.2,177.6z" id="el_mlUzoaIlje6"/>
	<path d="M348.1,165.1c0,0-1.6-0.4-1.8-2.7c0,0,0.1-1.6,1.7-0.5c0,0,0.9,0.9,0.7,2.5&#10;&#9;&#9;C348.7,164.4,348.6,165.1,348.1,165.1z" id="el_GdF11e4szPz"/>
	<path d="M362.1,165c0,0-1.2-1.1-0.2-3.2c0,0,0.9-1.4,1.7,0.4c0,0,0.3,1.2-0.6,2.5C362.9,164.7,362.4,165.3,362.1,165z" id="el_laZsTNFz1RJ"/>
	<path d="M347.9,182.5c0,0-1.5-0.5-1.4-2.6c0,0,0.2-1.5,1.6-0.3c0,0,0.7,0.9,0.4,2.3&#10;&#9;&#9;C348.5,181.9,348.3,182.6,347.9,182.5z" id="el_Upuhz_BCzwe"/>
	<path d="M358.7,174.8c0,0-1.5-0.5-1.4-2.6c0,0,0.2-1.5,1.6-0.3c0,0,0.7,0.9,0.4,2.3&#10;&#9;&#9;C359.3,174.2,359.1,174.9,358.7,174.8z" id="el_AZYV3FRUpqQ"/>
	<path d="M332.6,235.1c0-3.3,0-6,0-6S332.6,231.8,332.6,235.1s0,6,0,6S332.6,238.4,332.6,235.1z" id="el_vVY4j__ATie"/>
</g>
<path d="M235.5,173.2" id="el_Png5NLsIyEX"/>
<g id="el_RmEOcu0ts-5">
	<path d="M304.7,186.4c-27.1,19.3-53.1,47.2-63.8,61.6l8.7,6.3l-5.2,3c0,0,40.2,16.6,88.2-16.9&#10;&#9;&#9;c-6.2-6.6-11.9-14.2-16.7-22.5C311,209.3,307.2,195.3,304.7,186.4z" id="el_CPKqUY4GVK9"/>
	<path d="M240.9,248c-0.5,0.7-1,1.3-1.4,2c-1.8,2.6-2.9,4.8-3.5,6.7c-7.1,25.3-85.6,92.7-89.9,96.2s-113.2,96-125,115.2&#10;&#9;&#9;c-11.8,19.1,8,28.7,8,28.7c2.3-1.9,5-5.1,7.9-9.9c15.8-26.3,185.9-197.1,188.3-201.6c2.5-4.5,19.1-28,19.1-28l5.2-3L240.9,248z" id="el_WjDMLgCpUlN"/>
	<path d="M21.1,468C33,448.9,141.9,356.3,146.2,352.8s82.8-70.9,89.9-96.2c0.5-1.9,1.7-4.1,3.5-6.7&#10;&#9;&#9;c0.4-0.6,0.9-1.3,1.4-2c10.7-14.4,36.7-42.3,63.8-61.6c-1.6-5.8-0.7-6.4-1.3-12c-27.8,16-56.4,40.3-68,69.6&#10;&#9;&#9;c7.4,18.2-73,86.9-73,86.9l-93.7,80C-5.1,465.7,9,483.5,9,483.5c3.5,4.3,9.7,21.7,20.1,13.2C29.1,496.7,9.3,487.2,21.1,468z" id="el_7AZ9jXiPCbH"/>
</g>
<g id="el_jh9gJWiPXkM_an_51KmIlhuH" data-animator-group="true" data-animator-type="0"><g id="el_jh9gJWiPXkM_an_br-fC70ui" data-animator-group="true" data-animator-type="1"><g id="el_jh9gJWiPXkM">
	<g id="el_ZTs3Y62HSKO">
		<path d="M568.7,376.9c-3.9-20.2-35.8-52.1-37.5-54.9c-1.7-2.8-21.3-23.5-21.3-23.5s0,11.8-7.3,19.6&#10;&#9;&#9;&#9;c-7.3,7.8-14,12.9-23.5,29.7c-9.5,16.8-25.2,21.8-41.4,13.4c-16.2-8.4-49.3-11.2-49.3-11.2l-2.8,30.2l-9.5-6.7&#10;&#9;&#9;&#9;c0,0-46.5,35.3-58.8,33.6c-12.3-1.7-41.4,2.2-41.4,2.2s5,28,7.3,33c2.2,5-8.4-3.9-10.6-7.3c-2.2-3.4-23.5-15.7-23.5-15.7&#10;&#9;&#9;&#9;s-11.8,6.7-11.8,10.1s-7.3,4.5-7.3,4.5l-15.8,14.6c0,0-3.4,11.2-7.3,15.7c-2.4,2.7-8.9,6.7-13.7,9.4&#10;&#9;&#9;&#9;c-5.8-31.2-22.2-60.3-22.2-60.3s-15.7-6.2-21.3-3.9c-5.6,2.2-27.4-2.2-27.4-2.2c9,21.3-24.8,109.7-25.2,112.5&#10;&#9;&#9;&#9;c-6.7,47,37,40.3,37,40.3s20.4-0.3,38.6-16.4c8.4-0.8,17.5-1.5,26.4-2c28.6-1.7,91.8,5.6,91.8,5.6s65-7.8,57.1-35.8h6.2l16.8,11.2&#10;&#9;&#9;&#9;c0,0,59.4-24.1,56.6-35.3c-2.8-11.2-41.4-55.4-41.4-55.4s0-3.4,30.8,0s46.5,0.4,52.1-1.5s17.4,3.7,17.4,3.7l12.3,8.4&#10;&#9;&#9;&#9;C498.7,442.4,572.6,397,568.7,376.9z" id="el_EIRQtP9-nUb"/>
		<g id="el_vTWr_cT-02r">
			<path d="M174.5,421.3c0,0,20.1,90.5,6,103.5c-14.1,13.1,5,6.1,5,6.1S216.7,489.2,174.5,421.3z" id="el_pZNp69wmxo1"/>
			<path d="M160.4,410.6c-18.1-4.9-37.1-9.3-37.1-9.3s-11,4.6-6,9.3c0,0,54.7,6.6,57.2,10.7&#10;&#9;&#9;&#9;&#9;C177,425.5,178.5,415.5,160.4,410.6z" id="el_5L2-3VF6Tqk"/>
		</g>
	</g>
	<path d="M553.7,368.4c-9-14-19-23-25.8-31.9c-6.7-9-13.7-40.2-13.7-40.2s-33.6,57.9-46.3,61.4&#10;&#9;&#9;c-2.9,0.8-5.5,2.7-7.7,5.2c-10.1-0.8-40.5-3.9-50.8-10.6c-12.4-8.1-21.1-3.2-21.1-3.2s-7.7,30.9-2.8,32.9c0,0,65.2,27.9,65.2,14.5&#10;&#9;&#9;c0-2.6,0.5-5.5,1.3-8.4l3.1,2.9c0,0,26.9-21,31.4-32.2c4.5-11.2,29.1-22.4,29.1-22.4s16.8,19,25.2,31.9&#10;&#9;&#9;C549.3,381.3,562.7,382.4,553.7,368.4z" id="el_exjELpxAkbu"/>
</g></g></g>
<g id="el_WQbezK718Ki_an_TtFosuhly" data-animator-group="true" data-animator-type="1"><path d="M287.3,87.6C267,63.4,231,59.8,206.4,79.7c-24.9,20.1-28.9,56.7-8.7,81.6l8.5-6.8c-16.2-20.4-12.9-50.1,7.4-66.4&#10;&#9;c20.2-16.3,49.6-13.3,66.2,6.4l-11.2,10.2l28.1,1.4l1.4-28.1L287.3,87.6z" id="el_WQbezK718Ki"/></g>
<g id="el_FRofURCtDdZ_an_7lG_7E9ME" data-animator-group="true" data-animator-type="1"><path d="M408.6,361.1c23.8,20.7,59.9,18.7,81.2-4.8c21.5-23.8,19.7-60.5-4.1-82l-7.3,8.1c19.1,17.6,20.5,47.4,3,66.8&#10;&#9;c-17.4,19.2-46.9,20.9-66.4,4l9.5-11.8l-27.9,3l3,27.9L408.6,361.1z" id="el_FRofURCtDdZ"/></g>
</svg>