<svg version="1.1" id="el_qJAsJo9C3" xmlns="http://www.w3.org/2000/svg" xmlns:xlink="http://www.w3.org/1999/xlink" x="0px" y="0px" viewBox="0 0 576 576" style="enable-background:new 0 0 576 576;" xml:space="preserve"><style>@-webkit-keyframes kf_el_XvxYNTJh4u_an__XUFZ2lj2{28.89%{-webkit-transform: translate(205.39999389648438px, 163.3000030517578px) rotate(20deg) translate(-205.39999389648438px, -163.3000030517578px);transform: translate(205.39999389648438px, 163.3000030517578px) rotate(20deg) translate(-205.39999389648438px, -163.3000030517578px);}45.56%{-webkit-transform: translate(205.39999389648438px, 163.3000030517578px) rotate(0deg) translate(-205.39999389648438px, -163.3000030517578px);transform: translate(205.39999389648438px, 163.3000030517578px) rotate(0deg) translate(-205.39999389648438px, -163.3000030517578px);}0%{-webkit-transform: translate(205.39999389648438px, 163.3000030517578px) rotate(20deg) translate(-205.39999389648438px, -163.3000030517578px);transform: translate(205.39999389648438px, 163.3000030517578px) rotate(20deg) translate(-205.39999389648438px, -163.3000030517578px);}100%{-webkit-transform: translate(205.39999389648438px, 163.3000030517578px) rotate(0deg) translate(-205.39999389648438px, -163.3000030517578px);transform: translate(205.39999389648438px, 163.3000030517578px) rotate(0deg) translate(-205.39999389648438px, -163.3000030517578px);}}@keyframes kf_el_XvxYNTJh4u_an__XUFZ2lj2{28.89%{-webkit-transform: translate(205.39999389648438px, 163.3000030517578px) rotate(20deg) translate(-205.39999389648438px, -163.3000030517578px);transform: translate(205.39999389648438px, 163.3000030517578px) rotate(20deg) translate(-205.39999389648438px, -163.3000030517578px);}45.56%{-webkit-transform: translate(205.39999389648438px, 163.3000030517578px) rotate(0deg) translate(-205.39999389648438px, -163.3000030517578px);transform: translate(205.39999389648438px, 163.3000030517578px) rotate(0deg) translate(-205.39999389648438px, -163.3000030517578px);}0%{-webkit-transform: translate(205.39999389648438px, 163.3000030517578px) rotate(20deg) translate(-205.39999389648438px, -163.3000030517578px);transform: translate(205.39999389648438px, 163.3000030517578px) rotate(20deg) translate(-205.39999389648438px, -163.3000030517578px);}100%{-webkit-transform: translate(205.39999389648438px, 163.3000030517578px) rotate(0deg) translate(-205.39999389648438px, -163.3000030517578px);transform: translate(205.39999389648438px, 163.3000030517578px) rotate(0deg) translate(-205.39999389648438px, -163.3000030517578px);}}@-webkit-keyframes kf_el_llYKT_8xv0g_an_dbhD3G6v3{32.22%{-webkit-transform: translate(240.60000610351562px, 260.6000061035156px) rotate(0deg) translate(-240.60000610351562px, -260.6000061035156px);transform: translate(240.60000610351562px, 260.6000061035156px) rotate(0deg) translate(-240.60000610351562px, -260.6000061035156px);}0%{-webkit-transform: translate(240.60000610351562px, 260.6000061035156px) rotate(0deg) translate(-240.60000610351562px, -260.6000061035156px);transform: translate(240.60000610351562px, 260.6000061035156px) rotate(0deg) translate(-240.60000610351562px, -260.6000061035156px);}100%{-webkit-transform: translate(240.60000610351562px, 260.6000061035156px) rotate(0deg) translate(-240.60000610351562px, -260.6000061035156px);transform: translate(240.60000610351562px, 260.6000061035156px) rotate(0deg) translate(-240.60000610351562px, -260.6000061035156px);}}@keyframes kf_el_llYKT_8xv0g_an_dbhD3G6v3{32.22%{-webkit-transform: translate(240.60000610351562px, 260.6000061035156px) rotate(0deg) translate(-240.60000610351562px, -260.6000061035156px);transform: translate(240.60000610351562px, 260.6000061035156px) rotate(0deg) translate(-240.60000610351562px, -260.6000061035156px);}0%{-webkit-transform: translate(240.60000610351562px, 260.6000061035156px) rotate(0deg) translate(-240.60000610351562px, -260.6000061035156px);transform: translate(240.60000610351562px, 260.6000061035156px) rotate(0deg) translate(-240.60000610351562px, -260.6000061035156px);}100%{-webkit-transform: translate(240.60000610351562px, 260.6000061035156px) rotate(0deg) translate(-240.60000610351562px, -260.6000061035156px);transform: translate(240.60000610351562px, 260.6000061035156px) rotate(0deg) translate(-240.60000610351562px, -260.6000061035156px);}}@-webkit-keyframes kf_el_2qzggBWtun__an_MBDSxhhmr{0%{-webkit-transform: translate(127.3001937866211px, 255.7143096923828px) rotate(20deg) translate(-127.3001937866211px, -255.7143096923828px);transform: translate(127.3001937866211px, 255.7143096923828px) rotate(20deg) translate(-127.3001937866211px, -255.7143096923828px);}16.67%{-webkit-transform: translate(127.3001937866211px, 255.7143096923828px) rotate(0deg) translate(-127.3001937866211px, -255.7143096923828px);transform: translate(127.3001937866211px, 255.7143096923828px) rotate(0deg) translate(-127.3001937866211px, -255.7143096923828px);}100%{-webkit-transform: translate(127.3001937866211px, 255.7143096923828px) rotate(0deg) translate(-127.3001937866211px, -255.7143096923828px);transform: translate(127.3001937866211px, 255.7143096923828px) rotate(0deg) translate(-127.3001937866211px, -255.7143096923828px);}}@keyframes kf_el_2qzggBWtun__an_MBDSxhhmr{0%{-webkit-transform: translate(127.3001937866211px, 255.7143096923828px) rotate(20deg) translate(-127.3001937866211px, -255.7143096923828px);transform: translate(127.3001937866211px, 255.7143096923828px) rotate(20deg) translate(-127.3001937866211px, -255.7143096923828px);}16.67%{-webkit-transform: translate(127.3001937866211px, 255.7143096923828px) rotate(0deg) translate(-127.3001937866211px, -255.7143096923828px);transform: translate(127.3001937866211px, 255.7143096923828px) rotate(0deg) translate(-127.3001937866211px, -255.7143096923828px);}100%{-webkit-transform: translate(127.3001937866211px, 255.7143096923828px) rotate(0deg) translate(-127.3001937866211px, -255.7143096923828px);transform: translate(127.3001937866211px, 255.7143096923828px) rotate(0deg) translate(-127.3001937866211px, -255.7143096923828px);}}@-webkit-keyframes kf_el_XvxYNTJh4u_an_F6w83V5l3{28.89%{-webkit-transform: translate(205.39999389648438px, 163.3000030517578px) translate(-205.39999389648438px, -163.3000030517578px) translate(0px, -400px);transform: translate(205.39999389648438px, 163.3000030517578px) translate(-205.39999389648438px, -163.3000030517578px) translate(0px, -400px);}45.56%{-webkit-transform: translate(205.39999389648438px, 163.3000030517578px) translate(-205.39999389648438px, -163.3000030517578px) translate(0px, 30px);transform: translate(205.39999389648438px, 163.3000030517578px) translate(-205.39999389648438px, -163.3000030517578px) translate(0px, 30px);}0%{-webkit-transform: translate(205.39999389648438px, 163.3000030517578px) translate(-205.39999389648438px, -163.3000030517578px) translate(0px, -400px);transform: translate(205.39999389648438px, 163.3000030517578px) translate(-205.39999389648438px, -163.3000030517578px) translate(0px, -400px);}100%{-webkit-transform: translate(205.39999389648438px, 163.3000030517578px) translate(-205.39999389648438px, -163.3000030517578px) translate(0px, 30px);transform: translate(205.39999389648438px, 163.3000030517578px) translate(-205.39999389648438px, -163.3000030517578px) translate(0px, 30px);}}@keyframes kf_el_XvxYNTJh4u_an_F6w83V5l3{28.89%{-webkit-transform: translate(205.39999389648438px, 163.3000030517578px) translate(-205.39999389648438px, -163.3000030517578px) translate(0px, -400px);transform: translate(205.39999389648438px, 163.3000030517578px) translate(-205.39999389648438px, -163.3000030517578px) translate(0px, -400px);}45.56%{-webkit-transform: translate(205.39999389648438px, 163.3000030517578px) translate(-205.39999389648438px, -163.3000030517578px) translate(0px, 30px);transform: translate(205.39999389648438px, 163.3000030517578px) translate(-205.39999389648438px, -163.3000030517578px) translate(0px, 30px);}0%{-webkit-transform: translate(205.39999389648438px, 163.3000030517578px) translate(-205.39999389648438px, -163.3000030517578px) translate(0px, -400px);transform: translate(205.39999389648438px, 163.3000030517578px) translate(-205.39999389648438px, -163.3000030517578px) translate(0px, -400px);}100%{-webkit-transform: translate(205.39999389648438px, 163.3000030517578px) translate(-205.39999389648438px, -163.3000030517578px) translate(0px, 30px);transform: translate(205.39999389648438px, 163.3000030517578px) translate(-205.39999389648438px, -163.3000030517578px) translate(0px, 30px);}}@-webkit-keyframes kf_el_llYKT_8xv0g_an_5AlAAIVK-{15.56%{-webkit-transform: translate(240.60000610351562px, 260.6000061035156px) translate(-240.60000610351562px, -260.6000061035156px) translate(0px, -400px);transform: translate(240.60000610351562px, 260.6000061035156px) translate(-240.60000610351562px, -260.6000061035156px) translate(0px, -400px);}32.22%{-webkit-transform: translate(240.60000610351562px, 260.6000061035156px) translate(-240.60000610351562px, -260.6000061035156px) translate(0px, 0px);transform: translate(240.60000610351562px, 260.6000061035156px) translate(-240.60000610351562px, -260.6000061035156px) translate(0px, 0px);}0%{-webkit-transform: translate(240.60000610351562px, 260.6000061035156px) translate(-240.60000610351562px, -260.6000061035156px) translate(0px, -400px);transform: translate(240.60000610351562px, 260.6000061035156px) translate(-240.60000610351562px, -260.6000061035156px) translate(0px, -400px);}100%{-webkit-transform: translate(240.60000610351562px, 260.6000061035156px) translate(-240.60000610351562px, -260.6000061035156px) translate(0px, 0px);transform: translate(240.60000610351562px, 260.6000061035156px) translate(-240.60000610351562px, -260.6000061035156px) translate(0px, 0px);}}@keyframes kf_el_llYKT_8xv0g_an_5AlAAIVK-{15.56%{-webkit-transform: translate(240.60000610351562px, 260.6000061035156px) translate(-240.60000610351562px, -260.6000061035156px) translate(0px, -400px);transform: translate(240.60000610351562px, 260.6000061035156px) translate(-240.60000610351562px, -260.6000061035156px) translate(0px, -400px);}32.22%{-webkit-transform: translate(240.60000610351562px, 260.6000061035156px) translate(-240.60000610351562px, -260.6000061035156px) translate(0px, 0px);transform: translate(240.60000610351562px, 260.6000061035156px) translate(-240.60000610351562px, -260.6000061035156px) translate(0px, 0px);}0%{-webkit-transform: translate(240.60000610351562px, 260.6000061035156px) translate(-240.60000610351562px, -260.6000061035156px) translate(0px, -400px);transform: translate(240.60000610351562px, 260.6000061035156px) translate(-240.60000610351562px, -260.6000061035156px) translate(0px, -400px);}100%{-webkit-transform: translate(240.60000610351562px, 260.6000061035156px) translate(-240.60000610351562px, -260.6000061035156px) translate(0px, 0px);transform: translate(240.60000610351562px, 260.6000061035156px) translate(-240.60000610351562px, -260.6000061035156px) translate(0px, 0px);}}@-webkit-keyframes kf_el_2qzggBWtun__an_23SY1yUBR{0%{-webkit-transform: translate(127.3001937866211px, 255.7143096923828px) translate(-127.3001937866211px, -255.7143096923828px) translate(0px, -400px);transform: translate(127.3001937866211px, 255.7143096923828px) translate(-127.3001937866211px, -255.7143096923828px) translate(0px, -400px);}16.67%{-webkit-transform: translate(127.3001937866211px, 255.7143096923828px) translate(-127.3001937866211px, -255.7143096923828px) translate(0px, 0px);transform: translate(127.3001937866211px, 255.7143096923828px) translate(-127.3001937866211px, -255.7143096923828px) translate(0px, 0px);}100%{-webkit-transform: translate(127.3001937866211px, 255.7143096923828px) translate(-127.3001937866211px, -255.7143096923828px) translate(0px, 0px);transform: translate(127.3001937866211px, 255.7143096923828px) translate(-127.3001937866211px, -255.7143096923828px) translate(0px, 0px);}}@keyframes kf_el_2qzggBWtun__an_23SY1yUBR{0%{-webkit-transform: translate(127.3001937866211px, 255.7143096923828px) translate(-127.3001937866211px, -255.7143096923828px) translate(0px, -400px);transform: translate(127.3001937866211px, 255.7143096923828px) translate(-127.3001937866211px, -255.7143096923828px) translate(0px, -400px);}16.67%{-webkit-transform: translate(127.3001937866211px, 255.7143096923828px) translate(-127.3001937866211px, -255.7143096923828px) translate(0px, 0px);transform: translate(127.3001937866211px, 255.7143096923828px) translate(-127.3001937866211px, -255.7143096923828px) translate(0px, 0px);}100%{-webkit-transform: translate(127.3001937866211px, 255.7143096923828px) translate(-127.3001937866211px, -255.7143096923828px) translate(0px, 0px);transform: translate(127.3001937866211px, 255.7143096923828px) translate(-127.3001937866211px, -255.7143096923828px) translate(0px, 0px);}}#el_qJAsJo9C3 *{-webkit-animation-duration: 3s;animation-duration: 3s;-webkit-animation-iteration-count: infinite;animation-iteration-count: infinite;-webkit-animation-timing-function: cubic-bezier(0, 0, 1, 1);animation-timing-function: cubic-bezier(0, 0, 1, 1);}#el_bKBD00_q53{fill: #EFEFEF;}#el_0pcketP8uz{fill: #F4F4F4;}#el_VvOrfvArcA{fill: #EAEAEA;}#el_iZaUf1lrbT{fill: #AABA4A;}#el_RLTXD4-R5U{fill: #9DBA42;}#el_4jTjtvm4AZ{fill: #80973B;}#el_SGr3m_OFzd{fill: #EBC478;}#el_MkVPMTg621{fill: #EACFA2;}#el_yND8DxgOsG{fill: #131213;}#el_KbetqoigJD{fill: #131213;}#el_lWiZaku8p2{fill: #131213;}#el_ixRhW3i0yU{fill: #131213;}#el_b3UiQe15nEy{fill: #131213;}#el_z99K7mmxWas{fill: #131213;}#el_l8xF2CGRQUz{fill: #131213;}#el_2fFctGXpr-k{fill: #131213;}#el_DthRG5bCKbF{fill: #131213;}#el_L0I-Y6c4s3k{fill: #131213;}#el_EDW4Wq21pTZ{fill: #131213;}#el_LPlYAKiO3hs{fill: #131213;}#el_MIXBSwh4udN{fill: #131213;}#el_CtQn9yyvKCo{fill: #131213;}#el_glgrKjrL3me{fill: #131213;}#el_7Z2gIVVKnbx{fill: #131213;}#el_eOY8XlxMeOh{fill: #131213;}#el_igu-BJ8ZQXO{fill: #131213;}#el_JSTTVVbWLMh{fill: #131213;}#el_sp7p-QsBiCV{fill: #131213;}#el_8NMKou2Ko7w{fill: #131213;}#el_LFrhmm2FNpq{fill: #131213;}#el_yaLxDuGM1Rw{fill: #AABA4A;}#el_M-1iuksgwl6{fill: #9DBA42;}#el_KN7PFZqw7dH{fill: #80973B;}#el_tDAioleko82{fill: #EBC478;}#el_lM7Q-jjENAS{fill: #EACFA2;}#el_zJISnZvapnp{fill: #131213;}#el_YKyIg8gOuKY{fill: #131213;}#el_ZuPF5S4lbFq{fill: #131213;}#el_-VLoN0m_oyX{fill: #131213;}#el_IyOj3VniQQA{fill: #131213;}#el_Og38snAIGdX{fill: #131213;}#el_VxOKf10uWB0{fill: #131213;}#el_UUgOsfTZ6Uo{fill: #131213;}#el_LO-KFCS5zSt{fill: #131213;}#el__7oktX35cXg{fill: #131213;}#el_ixFPrvlsZTo{fill: #131213;}#el_ncH5ZGqABwf{fill: #131213;}#el_K-nN9iSENsL{fill: #131213;}#el_gnXP1-rO3b4{fill: #131213;}#el_vBlsNWyooYH{fill: #131213;}#el_-yG0djxu9yK{fill: #131213;}#el_l2ntts9Q4sC{fill: #131213;}#el_1TYgBRnNugy{fill: #131213;}#el_TSJMskshvqr{fill: #131213;}#el_9trLpISYcuj{fill: #131213;}#el_vOKszMRHIOF{fill: #131213;}#el_9GwMm5tc9Ct{fill: #131213;}#el_BnblDSraZfY{fill: #AABA4A;}#el_ZBdxlKNEXU_{fill: #9DBA42;}#el_m3D2WetKGSz{fill: #80973B;}#el_3eDuAPYKqkd{fill: #EBC478;}#el_ABxL-t7Sg8c{fill: #EACFA2;}#el_7SJIxrYns9u{fill: #131213;}#el_VHqRuAF5Gn6{fill: #131213;}#el_bno2t3trdxm{fill: #131213;}#el_-EbEHBASSDj{fill: #131213;}#el_URvRgEWytLz{fill: #131213;}#el_1b1kq55Bve8{fill: #131213;}#el_0ysKcpUrFWF{fill: #131213;}#el_vur5ylvC75Q{fill: #131213;}#el_mCtIgaYyhB9{fill: #131213;}#el_IwDpDiZIHOK{fill: #131213;}#el_kTofZvFauAb{fill: #131213;}#el__k7aRL3dwLB{fill: #131213;}#el_8NVYjst1iPV{fill: #131213;}#el_fiT8Nq4uWK8{fill: #131213;}#el_xIR2dWFrxH5{fill: #131213;}#el_i4N-xUOg3Wx{fill: #131213;}#el_pZika9WW-vS{fill: #131213;}#el_GrtWunuVzyA{fill: #131213;}#el_TT_XFdSeSA-{fill: #131213;}#el_NXITUuetHjC{fill: #131213;}#el_exjrM2Y_BY5{fill: #131213;}#el_Yvu1fSyQ2iW{fill: #131213;}#el_2qzggBWtun__an_23SY1yUBR{-webkit-animation-fill-mode: backwards;animation-fill-mode: backwards;-webkit-transform: translate(127.3001937866211px, 255.7143096923828px) translate(-127.3001937866211px, -255.7143096923828px) translate(0px, -400px);transform: translate(127.3001937866211px, 255.7143096923828px) translate(-127.3001937866211px, -255.7143096923828px) translate(0px, -400px);-webkit-animation-name: kf_el_2qzggBWtun__an_23SY1yUBR;animation-name: kf_el_2qzggBWtun__an_23SY1yUBR;-webkit-animation-timing-function: cubic-bezier(0, 0, 1, 1);animation-timing-function: cubic-bezier(0, 0, 1, 1);}#el_llYKT_8xv0g_an_5AlAAIVK-{-webkit-animation-fill-mode: backwards;animation-fill-mode: backwards;-webkit-transform: translate(240.60000610351562px, 260.6000061035156px) translate(-240.60000610351562px, -260.6000061035156px) translate(0px, -400px);transform: translate(240.60000610351562px, 260.6000061035156px) translate(-240.60000610351562px, -260.6000061035156px) translate(0px, -400px);-webkit-animation-name: kf_el_llYKT_8xv0g_an_5AlAAIVK-;animation-name: kf_el_llYKT_8xv0g_an_5AlAAIVK-;-webkit-animation-timing-function: cubic-bezier(0, 0, 1, 1);animation-timing-function: cubic-bezier(0, 0, 1, 1);}#el_XvxYNTJh4u_an_F6w83V5l3{-webkit-animation-fill-mode: backwards;animation-fill-mode: backwards;-webkit-transform: translate(205.39999389648438px, 163.3000030517578px) translate(-205.39999389648438px, -163.3000030517578px) translate(0px, -400px);transform: translate(205.39999389648438px, 163.3000030517578px) translate(-205.39999389648438px, -163.3000030517578px) translate(0px, -400px);-webkit-animation-name: kf_el_XvxYNTJh4u_an_F6w83V5l3;animation-name: kf_el_XvxYNTJh4u_an_F6w83V5l3;-webkit-animation-timing-function: cubic-bezier(0, 0, 1, 1);animation-timing-function: cubic-bezier(0, 0, 1, 1);}#el_2qzggBWtun__an_MBDSxhhmr{-webkit-animation-fill-mode: backwards;animation-fill-mode: backwards;-webkit-transform: translate(127.3001937866211px, 255.7143096923828px) rotate(20deg) translate(-127.3001937866211px, -255.7143096923828px);transform: translate(127.3001937866211px, 255.7143096923828px) rotate(20deg) translate(-127.3001937866211px, -255.7143096923828px);-webkit-animation-name: kf_el_2qzggBWtun__an_MBDSxhhmr;animation-name: kf_el_2qzggBWtun__an_MBDSxhhmr;-webkit-animation-timing-function: cubic-bezier(0, 0, 1, 1);animation-timing-function: cubic-bezier(0, 0, 1, 1);}#el_llYKT_8xv0g_an_dbhD3G6v3{-webkit-animation-fill-mode: backwards;animation-fill-mode: backwards;-webkit-transform: translate(240.60000610351562px, 260.6000061035156px) rotate(0deg) translate(-240.60000610351562px, -260.6000061035156px);transform: translate(240.60000610351562px, 260.6000061035156px) rotate(0deg) translate(-240.60000610351562px, -260.6000061035156px);-webkit-animation-name: kf_el_llYKT_8xv0g_an_dbhD3G6v3;animation-name: kf_el_llYKT_8xv0g_an_dbhD3G6v3;-webkit-animation-timing-function: cubic-bezier(0, 0, 1, 1);animation-timing-function: cubic-bezier(0, 0, 1, 1);}#el_XvxYNTJh4u_an__XUFZ2lj2{-webkit-animation-fill-mode: backwards;animation-fill-mode: backwards;-webkit-transform: translate(205.39999389648438px, 163.3000030517578px) rotate(20deg) translate(-205.39999389648438px, -163.3000030517578px);transform: translate(205.39999389648438px, 163.3000030517578px) rotate(20deg) translate(-205.39999389648438px, -163.3000030517578px);-webkit-animation-name: kf_el_XvxYNTJh4u_an__XUFZ2lj2;animation-name: kf_el_XvxYNTJh4u_an__XUFZ2lj2;-webkit-animation-timing-function: cubic-bezier(0, 0, 1, 1);animation-timing-function: cubic-bezier(0, 0, 1, 1);}</style>

<g id="el_C7a0s78RPM">
	<ellipse cx="280.1" cy="340" rx="231.6" ry="76.3" id="el_bKBD00_q53"/>
	<ellipse cx="280.1" cy="335.2" rx="231.6" ry="76.3" id="el_0pcketP8uz"/>
	<ellipse cx="280.1" cy="327.7" rx="162.7" ry="53.6" id="el_VvOrfvArcA"/>
</g>
<g id="el_XvxYNTJh4u_an_F6w83V5l3" data-animator-group="true" data-animator-type="0"><g id="el_XvxYNTJh4u_an__XUFZ2lj2" data-animator-group="true" data-animator-type="1"><g id="el_XvxYNTJh4u">
	<path d="M358,163.3l20.1,72.2c0,0-42.9,63-116.9,48.8l-18.1-53.9L358,163.3z" id="el_iZaUf1lrbT"/>
	<path d="M205.4,227.2l37.7,3.1l18.1,53.9C261.2,284.2,219.7,283.4,205.4,227.2z" id="el_RLTXD4-R5U"/>
	<path d="M205.4,227.2c0,0,88.3-55.5,113.7-55.8l37.6-7.5l-113.6,66.3L205.4,227.2z" id="el_4jTjtvm4AZ"/>
	<path d="M229.8,229.2c0,0-0.9,15.3,18,15.3l114.7-64.6l-5.8-15.9l-17.4,3.4" id="el_SGr3m_OFzd"/>
	<polygon points="243.1,230.3 247.9,244.5 362.6,179.9 356.8,164 &#9;" id="el_MkVPMTg621"/>
	<g id="el__ZN7rMCJij">
		<path d="M259.4,229.5c0,0-0.1,0.7-1,0.8c0,0-0.7,0-0.2-0.7c0,0,0.3-0.4,1-0.4C259,229.4,259.4,229.3,259.4,229.5z" id="el_yND8DxgOsG"/>
		<path d="M264.2,230.4c0,0-0.4,0.5-1.3,0.2c0,0-0.6-0.3,0.1-0.7c0,0,0.5-0.2,1,0.1C264,230,264.3,230.2,264.2,230.4z" id="el_KbetqoigJD"/>
		<path d="M273.8,218.1c0,0,0.4-0.5,1.3-0.2c0,0,0.6,0.3-0.1,0.7c0,0-0.5,0.2-1-0.2&#10;&#9;&#9;&#9;C273.9,218.4,273.7,218.2,273.8,218.1z" id="el_lWiZaku8p2"/>
		<path d="M287.8,214.5c0,0-0.5,0.4-1.3,0c0,0-0.5-0.4,0.2-0.7c0,0,0.5-0.1,1,0.3C287.7,214.1,287.9,214.4,287.8,214.5z&#10;&#9;&#9;&#9;" id="el_ixRhW3i0yU"/>
		<path d="M299.1,207.5c0,0-0.1,0.7-1,0.9c0,0-0.7,0.1-0.3-0.6c0,0,0.3-0.4,0.9-0.5C298.7,207.4,299,207.4,299.1,207.5z&#10;&#9;&#9;&#9;" id="el_b3UiQe15nEy"/>
		<path d="M330.4,191.6c0,0-0.6,0.3-1.2-0.4c0,0-0.4-0.5,0.4-0.6c0,0,0.5,0.1,0.8,0.6&#10;&#9;&#9;&#9;C330.4,191.3,330.6,191.5,330.4,191.6z" id="el_z99K7mmxWas"/>
		<path d="M319.3,193.7c0,0-0.5,0.4-1.3,0c0,0-0.5-0.4,0.2-0.7c0,0,0.5-0.1,1,0.3C319.2,193.3,319.5,193.5,319.3,193.7z&#10;&#9;&#9;&#9;" id="el_l8xF2CGRQUz"/>
		<path d="M331.8,185.5c0,0-0.2,0.6-1.2,0.6c0,0-0.7-0.1-0.1-0.7c0,0,0.4-0.3,1-0.2&#10;&#9;&#9;&#9;C331.6,185.3,331.9,185.4,331.8,185.5z" id="el_2fFctGXpr-k"/>
		<path d="M338.8,183.5c0,0,0,0.7-0.9,0.9c0,0-0.7,0.1-0.3-0.6c0,0,0.3-0.4,0.9-0.5&#10;&#9;&#9;&#9;C338.5,183.4,338.8,183.3,338.8,183.5z" id="el_DthRG5bCKbF"/>
		<path d="M347.7,180.2c0,0-0.1,0.7-1,0.9c0,0-0.7,0.1-0.3-0.6c0,0,0.3-0.4,0.9-0.5C347.4,180,347.7,180,347.7,180.2z" id="el_L0I-Y6c4s3k"/>
		<path d="M343.6,183.5c0,0,0.5,0.4,0.2,1.3c0,0-0.3,0.6-0.7-0.1c0,0-0.2-0.5,0.2-1&#10;&#9;&#9;&#9;C343.2,183.7,343.4,183.4,343.6,183.5z" id="el_EDW4Wq21pTZ"/>
	</g>
	<g id="el_YDrhUtlPiXP">
		<path d="M329,176.1c0,0,0.1-0.7,1-0.8c0,0,0.7,0,0.2,0.7c0,0-0.3,0.4-1,0.4C329.4,176.3,329,176.3,329,176.1z" id="el_LPlYAKiO3hs"/>
		<path d="M324.2,175.3c0,0,0.4-0.5,1.3-0.2c0,0,0.6,0.3-0.1,0.7c0,0-0.5,0.2-1-0.1&#10;&#9;&#9;&#9;C324.4,175.7,324.1,175.5,324.2,175.3z" id="el_MIXBSwh4udN"/>
		<path d="M314.6,187.6c0,0-0.4,0.5-1.3,0.2c0,0-0.6-0.3,0.1-0.7c0,0,0.5-0.2,1,0.2&#10;&#9;&#9;&#9;C314.5,187.3,314.7,187.5,314.6,187.6z" id="el_CtQn9yyvKCo"/>
		<path d="M300.6,191.2c0,0,0.5-0.4,1.3,0c0,0,0.5,0.4-0.2,0.7c0,0-0.5,0.1-1-0.3C300.7,191.6,300.5,191.3,300.6,191.2z&#10;&#9;&#9;&#9;" id="el_glgrKjrL3me"/>
		<path d="M289.3,198.2c0,0,0.1-0.7,1-0.9c0,0,0.7-0.1,0.3,0.6c0,0-0.3,0.4-0.9,0.5&#10;&#9;&#9;&#9;C289.7,198.3,289.4,198.3,289.3,198.2z" id="el_7Z2gIVVKnbx"/>
		<path d="M258,214.1c0,0,0.6-0.3,1.2,0.4c0,0,0.4,0.5-0.4,0.6c0,0-0.5-0.1-0.8-0.6C258,214.4,257.8,214.2,258,214.1z" id="el_eOY8XlxMeOh"/>
		<path d="M269.1,212c0,0,0.5-0.4,1.3,0c0,0,0.5,0.4-0.2,0.7c0,0-0.5,0.1-1-0.3C269.2,212.4,268.9,212.2,269.1,212z" id="el_igu-BJ8ZQXO"/>
		<path d="M256.6,220.2c0,0,0.2-0.6,1.2-0.6c0,0,0.7,0.1,0.1,0.7c0,0-0.4,0.3-1,0.2&#10;&#9;&#9;&#9;C256.8,220.4,256.5,220.3,256.6,220.2z" id="el_JSTTVVbWLMh"/>
		<path d="M249.6,222.2c0,0,0-0.7,0.9-0.9c0,0,0.7-0.1,0.3,0.6c0,0-0.3,0.4-0.9,0.5&#10;&#9;&#9;&#9;C249.9,222.3,249.6,222.4,249.6,222.2z" id="el_sp7p-QsBiCV"/>
		<path d="M240.7,225.5c0,0,0.1-0.7,1-0.9c0,0,0.7-0.1,0.3,0.6c0,0-0.3,0.4-0.9,0.5C241,225.7,240.7,225.7,240.7,225.5z&#10;&#9;&#9;&#9;" id="el_8NMKou2Ko7w"/>
		<path d="M244.8,222.2c0,0-0.5-0.4-0.2-1.3c0,0,0.3-0.6,0.7,0.1c0,0,0.2,0.5-0.2,1C245.2,222,245,222.3,244.8,222.2z" id="el_LFrhmm2FNpq"/>
	</g>
</g></g></g>
<g id="el_llYKT_8xv0g_an_5AlAAIVK-" data-animator-group="true" data-animator-type="0"><g id="el_llYKT_8xv0g_an_dbhD3G6v3" data-animator-group="true" data-animator-type="1"><g id="el_llYKT_8xv0g">
	<path d="M399,260.6l12.5,73.9c0,0-49.3,58.2-121.3,36.4l-12.4-55.5L399,260.6z" id="el_yaLxDuGM1Rw"/>
	<path d="M240.6,308.2l37.2,7l12.4,55.5C290.1,370.7,248.9,365.6,240.6,308.2z" id="el_M-1iuksgwl6"/>
	<path d="M240.6,308.2c0,0,93.6-46,118.9-43.7l38.2-3.5l-119.9,54.1L240.6,308.2z" id="el_KN7PFZqw7dH"/>
	<path d="M264.6,312.8c0,0-2.5,15.1,16.3,17.1l120.9-52.3l-4.1-16.4l-17.6,1.6" id="el_tDAioleko82"/>
	<polygon points="277.8,315.3 281.1,329.9 401.8,277.5 397.7,261.2 &#9;" id="el_lM7Q-jjENAS"/>
	<g id="el_3vNFOvka8fZ">
		<path d="M294,316.2c0,0-0.2,0.7-1.1,0.7c0,0-0.7-0.1-0.1-0.7c0,0,0.3-0.4,1-0.3C293.6,315.9,294,316,294,316.2z" id="el_zJISnZvapnp"/>
		<path d="M298.7,317.5c0,0-0.4,0.5-1.3,0.1c0,0-0.6-0.4,0.2-0.7c0,0,0.5-0.2,1,0.2&#10;&#9;&#9;&#9;C298.6,317.1,298.8,317.3,298.7,317.5z" id="el_YKyIg8gOuKY"/>
		<path d="M309.6,306.3c0,0,0.4-0.5,1.3-0.1c0,0,0.6,0.4-0.2,0.7c0,0-0.5,0.2-1-0.3&#10;&#9;&#9;&#9;C309.6,306.6,309.4,306.4,309.6,306.3z" id="el_ZuPF5S4lbFq"/>
		<path d="M323.8,304.2c0,0-0.5,0.3-1.3-0.1c0,0-0.5-0.4,0.3-0.7c0,0,0.5-0.1,1,0.4&#10;&#9;&#9;&#9;C323.8,303.8,323.9,304.1,323.8,304.2z" id="el_-VLoN0m_oyX"/>
		<path d="M335.9,298.3c0,0-0.2,0.7-1.1,0.8c0,0-0.7,0-0.2-0.6c0,0,0.3-0.4,0.9-0.4&#10;&#9;&#9;&#9;C335.5,298.2,335.8,298.2,335.9,298.3z" id="el_IyOj3VniQQA"/>
		<path d="M368.6,285.9c0,0-0.6,0.2-1.2-0.5c0,0-0.3-0.5,0.5-0.6c0,0,0.5,0.1,0.7,0.7&#10;&#9;&#9;&#9;C368.7,285.6,368.8,285.8,368.6,285.9z" id="el_Og38snAIGdX"/>
		<path d="M357.4,286.8c0,0-0.5,0.3-1.3-0.1c0,0-0.5-0.4,0.3-0.7c0,0,0.5-0.1,1,0.4&#10;&#9;&#9;&#9;C357.3,286.4,357.6,286.6,357.4,286.8z" id="el_VxOKf10uWB0"/>
		<path d="M370.6,279.9c0,0-0.3,0.6-1.3,0.5c0,0-0.7-0.2,0-0.7c0,0,0.4-0.3,1-0.1C370.4,279.7,370.7,279.8,370.6,279.9z&#10;&#9;&#9;&#9;" id="el_UUgOsfTZ6Uo"/>
		<path d="M377.8,278.6c0,0-0.1,0.7-1,0.8c0,0-0.7,0-0.2-0.6c0,0,0.3-0.4,0.9-0.4C377.5,278.5,377.8,278.4,377.8,278.6z&#10;&#9;&#9;&#9;" id="el_LO-KFCS5zSt"/>
		<path d="M387,276.3c0,0-0.2,0.7-1.1,0.8c0,0-0.7,0-0.2-0.6c0,0,0.3-0.4,0.9-0.4C386.8,276.1,387.1,276.1,387,276.3z" id="el__7oktX35cXg"/>
		<path d="M382.5,279.2c0,0,0.5,0.4,0.1,1.3c0,0-0.4,0.6-0.7-0.2c0,0-0.2-0.5,0.3-1&#10;&#9;&#9;&#9;C382.1,279.3,382.3,279.1,382.5,279.2z" id="el_ixFPrvlsZTo"/>
	</g>
	<g id="el_HtlHidZwCZW">
		<path d="M368.8,270.3c0,0,0.2-0.7,1.1-0.7c0,0,0.7,0.1,0.1,0.7c0,0-0.3,0.4-1,0.3&#10;&#9;&#9;&#9;C369.2,270.6,368.8,270.5,368.8,270.3z" id="el_ncH5ZGqABwf"/>
		<path d="M364.1,269c0,0,0.4-0.5,1.3-0.1c0,0,0.6,0.4-0.2,0.7c0,0-0.5,0.2-1-0.2C364.3,269.4,364,269.1,364.1,269z" id="el_K-nN9iSENsL"/>
		<path d="M353.3,280.2c0,0-0.4,0.5-1.3,0.1c0,0-0.6-0.4,0.2-0.7c0,0,0.5-0.2,1,0.3&#10;&#9;&#9;&#9;C353.2,279.8,353.4,280.1,353.3,280.2z" id="el_gnXP1-rO3b4"/>
		<path d="M339,282.3c0,0,0.5-0.3,1.3,0.1c0,0,0.5,0.4-0.3,0.7c0,0-0.5,0.1-1-0.4C339.1,282.7,338.9,282.4,339,282.3z" id="el_vBlsNWyooYH"/>
		<path d="M327,288.1c0,0,0.2-0.7,1.1-0.8c0,0,0.7,0,0.2,0.6c0,0-0.3,0.4-0.9,0.4C327.4,288.3,327.1,288.2,327,288.1z" id="el_-yG0djxu9yK"/>
		<path d="M294.2,300.6c0,0,0.6-0.2,1.2,0.5c0,0,0.3,0.5-0.5,0.6c0,0-0.5-0.1-0.7-0.7&#10;&#9;&#9;&#9;C294.2,300.9,294,300.7,294.2,300.6z" id="el_l2ntts9Q4sC"/>
		<path d="M305.5,299.7c0,0,0.5-0.3,1.3,0.1c0,0,0.5,0.4-0.3,0.7c0,0-0.5,0.1-1-0.4&#10;&#9;&#9;&#9;C305.5,300.1,305.3,299.9,305.5,299.7z" id="el_1TYgBRnNugy"/>
		<path d="M292.2,306.6c0,0,0.3-0.6,1.3-0.5c0,0,0.7,0.2,0,0.7c0,0-0.4,0.3-1,0.1C292.4,306.8,292.1,306.6,292.2,306.6z&#10;&#9;&#9;&#9;" id="el_TSJMskshvqr"/>
		<path d="M285.1,307.9c0,0,0.1-0.7,1-0.8c0,0,0.7,0,0.2,0.6c0,0-0.3,0.4-0.9,0.4C285.4,308,285.1,308.1,285.1,307.9z" id="el_9trLpISYcuj"/>
		<path d="M275.8,310.2c0,0,0.2-0.7,1.1-0.8c0,0,0.7,0,0.2,0.6c0,0-0.3,0.4-0.9,0.4&#10;&#9;&#9;&#9;C276.1,310.4,275.8,310.4,275.8,310.2z" id="el_vOKszMRHIOF"/>
		<path d="M280.3,307.3c0,0-0.5-0.4-0.1-1.3c0,0,0.4-0.6,0.7,0.2c0,0,0.2,0.5-0.3,1&#10;&#9;&#9;&#9;C280.7,307.1,280.5,307.4,280.3,307.3z" id="el_9GwMm5tc9Ct"/>
	</g>
</g></g></g>
<g id="el_2qzggBWtun__an_23SY1yUBR" data-animator-group="true" data-animator-type="0"><g id="el_2qzggBWtun__an_MBDSxhhmr" data-animator-group="true" data-animator-type="1"><g id="el_2qzggBWtun_">
	<path d="M295.5,280.1l-20.2,72.1c0,0-69.4,31.7-125.3-18.7l12.4-55.5L295.5,280.1z" id="el_BnblDSraZfY"/>
	<path d="M131.9,255.8l30.7,22.2l-12.4,55.5C150.1,333.4,115,311.3,131.9,255.8z" id="el_ZBdxlKNEXU_"/>
	<path d="M131.9,255.8c0,0,104.3-1.8,126.2,11.1l36.1,13.1l-131.5-2.1L131.9,255.8z" id="el_m3D2WetKGSz"/>
	<path d="M151.7,270.1c0,0-8.7,12.6,7.5,22.4l131.6,4.1l3.2-16.6l-16.6-6.1" id="el_3eDuAPYKqkd"/>
	<polygon points="162.6,278 159.3,292.6 290.9,296.7 294.1,280.1 &#9;" id="el_ABxL-t7Sg8c"/>
	<g id="el_C2o-WKEniL2">
		<path d="M176.9,285.7c0,0-0.4,0.6-1.3,0.2c0,0-0.6-0.4,0.2-0.7c0,0,0.5-0.2,1.1,0.2&#10;&#9;&#9;&#9;C176.6,285.3,177,285.5,176.9,285.7z" id="el_7SJIxrYns9u"/>
		<path d="M180.5,288.9c0,0-0.6,0.2-1.2-0.5c0,0-0.4-0.6,0.4-0.6c0,0,0.5,0.1,0.8,0.6&#10;&#9;&#9;&#9;C180.6,288.5,180.7,288.8,180.5,288.9z" id="el_VHqRuAF5Gn6"/>
		<path d="M195.1,283.4c0,0,0.6-0.2,1.2,0.5c0,0,0.4,0.6-0.4,0.6c0,0-0.5-0.1-0.8-0.7&#10;&#9;&#9;&#9;C195.1,283.7,195,283.5,195.1,283.4z" id="el_bno2t3trdxm"/>
		<path d="M208.9,287.6c0,0-0.6,0.1-1.1-0.7c0,0-0.2-0.6,0.5-0.5c0,0,0.5,0.2,0.7,0.8&#10;&#9;&#9;&#9;C209.1,287.2,209.1,287.5,208.9,287.6z" id="el_-EbEHBASSDj"/>
		<path d="M222.3,287.4c0,0-0.4,0.6-1.3,0.3c0,0-0.7-0.3,0-0.7c0,0,0.5-0.2,1,0C222,287.1,222.3,287.3,222.3,287.4z" id="el_URvRgEWytLz"/>
		<path d="M257.3,290.1c0,0-0.7,0-0.8-1c0,0-0.1-0.6,0.7-0.3c0,0,0.4,0.3,0.4,0.9C257.4,289.8,257.5,290.1,257.3,290.1z&#10;&#9;&#9;&#9;" id="el_1b1kq55Bve8"/>
		<path d="M246.7,286.1c0,0-0.6,0.1-1.1-0.7c0,0-0.2-0.6,0.5-0.5c0,0,0.5,0.2,0.7,0.8C246.8,285.7,247,286,246.7,286.1z&#10;&#9;&#9;&#9;" id="el_0ysKcpUrFWF"/>
		<path d="M261.6,285.5c0,0-0.5,0.4-1.3-0.1c0,0-0.6-0.4,0.3-0.7c0,0,0.5-0.1,1,0.3&#10;&#9;&#9;&#9;C261.5,285.3,261.7,285.5,261.6,285.5z" id="el_vur5ylvC75Q"/>
		<path d="M268.6,287.4c0,0-0.4,0.6-1.2,0.3c0,0-0.7-0.3,0-0.7c0,0,0.5-0.2,1,0C268.4,287.2,268.7,287.2,268.6,287.4z" id="el_mCtIgaYyhB9"/>
		<path d="M278,289.3c0,0-0.4,0.6-1.3,0.3c0,0-0.7-0.3,0-0.7c0,0,0.5-0.2,1,0C277.9,288.9,278.1,289.1,278,289.3z" id="el_IwDpDiZIHOK"/>
		<path d="M272.7,289.9c0,0,0.2,0.6-0.5,1.2c0,0-0.6,0.4-0.6-0.4c0,0,0.1-0.5,0.7-0.8&#10;&#9;&#9;&#9;C272.3,289.9,272.6,289.8,272.7,289.9z" id="el_kTofZvFauAb"/>
	</g>
	<g id="el_p3qL9hJRP8A">
		<path d="M264.1,276.1c0,0,0.4-0.6,1.3-0.2c0,0,0.6,0.4-0.2,0.7c0,0-0.5,0.2-1.1-0.2&#10;&#9;&#9;&#9;C264.3,276.5,264,276.2,264.1,276.1z" id="el__k7aRL3dwLB"/>
		<path d="M260.4,272.8c0,0,0.6-0.2,1.2,0.5c0,0,0.4,0.6-0.4,0.6c0,0-0.5-0.1-0.8-0.6&#10;&#9;&#9;&#9;C260.4,273.3,260.2,273,260.4,272.8z" id="el_8NVYjst1iPV"/>
		<path d="M245.8,278.4c0,0-0.6,0.2-1.2-0.5c0,0-0.4-0.6,0.4-0.6c0,0,0.5,0.1,0.8,0.7&#10;&#9;&#9;&#9;C245.9,278.1,246,278.3,245.8,278.4z" id="el_fiT8Nq4uWK8"/>
		<path d="M232,274.2c0,0,0.6-0.1,1.1,0.7c0,0,0.2,0.6-0.5,0.5c0,0-0.5-0.2-0.7-0.8C231.9,274.6,231.9,274.2,232,274.2z&#10;&#9;&#9;&#9;" id="el_xIR2dWFrxH5"/>
		<path d="M218.6,274.4c0,0,0.4-0.6,1.3-0.3c0,0,0.7,0.3,0,0.7c0,0-0.5,0.2-1,0C218.9,274.7,218.7,274.5,218.6,274.4z" id="el_i4N-xUOg3Wx"/>
		<path d="M183.7,271.7c0,0,0.7,0,0.8,1c0,0,0.1,0.6-0.7,0.3c0,0-0.4-0.3-0.4-0.9C183.5,272,183.5,271.7,183.7,271.7z" id="el_pZika9WW-vS"/>
		<path d="M194.2,275.7c0,0,0.6-0.1,1.1,0.7c0,0,0.2,0.6-0.5,0.5c0,0-0.5-0.2-0.7-0.8&#10;&#9;&#9;&#9;C194.1,276.1,194,275.8,194.2,275.7z" id="el_GrtWunuVzyA"/>
		<path d="M179.4,276.3c0,0,0.5-0.4,1.3,0.1c0,0,0.6,0.4-0.3,0.7c0,0-0.5,0.1-1-0.3&#10;&#9;&#9;&#9;C179.4,276.5,179.2,276.3,179.4,276.3z" id="el_TT_XFdSeSA-"/>
		<path d="M172.3,274.4c0,0,0.4-0.6,1.2-0.3c0,0,0.7,0.3,0,0.7c0,0-0.5,0.2-1,0C172.5,274.6,172.2,274.6,172.3,274.4z" id="el_NXITUuetHjC"/>
		<path d="M163,272.5c0,0,0.4-0.6,1.3-0.3c0,0,0.7,0.3,0,0.7c0,0-0.5,0.2-1,0C163.1,272.9,162.9,272.7,163,272.5z" id="el_exjrM2Y_BY5"/>
		<path d="M168.3,271.9c0,0-0.2-0.6,0.5-1.2c0,0,0.6-0.4,0.6,0.4c0,0-0.1,0.5-0.7,0.8&#10;&#9;&#9;&#9;C168.7,271.9,168.4,272,168.3,271.9z" id="el_Yvu1fSyQ2iW"/>
	</g>
</g></g></g>
</svg>