<svg version="1.1" id="el_EBPtpB9MS" xmlns="http://www.w3.org/2000/svg" xmlns:xlink="http://www.w3.org/1999/xlink" x="0px" y="0px" viewBox="0 0 576 576" style="enable-background:new 0 0 576 576;" xml:space="preserve"><style>@-webkit-keyframes kf_el_1_neooE7QuP_an_nc1PvLQ4g{51.67%{-webkit-transform: translate(253.90000915527344px, 301.221435546875px) translate(-253.90000915527344px, -301.221435546875px) translate(0px, 0px);transform: translate(253.90000915527344px, 301.221435546875px) translate(-253.90000915527344px, -301.221435546875px) translate(0px, 0px);}73.33%{-webkit-transform: translate(253.90000915527344px, 301.221435546875px) translate(-253.90000915527344px, -301.221435546875px) translate(-1000px, 0px);transform: translate(253.90000915527344px, 301.221435546875px) translate(-253.90000915527344px, -301.221435546875px) translate(-1000px, 0px);}0%{-webkit-transform: translate(253.90000915527344px, 301.221435546875px) translate(-253.90000915527344px, -301.221435546875px) translate(0px, 0px);transform: translate(253.90000915527344px, 301.221435546875px) translate(-253.90000915527344px, -301.221435546875px) translate(0px, 0px);}100%{-webkit-transform: translate(253.90000915527344px, 301.221435546875px) translate(-253.90000915527344px, -301.221435546875px) translate(-1000px, 0px);transform: translate(253.90000915527344px, 301.221435546875px) translate(-253.90000915527344px, -301.221435546875px) translate(-1000px, 0px);}}@keyframes kf_el_1_neooE7QuP_an_nc1PvLQ4g{51.67%{-webkit-transform: translate(253.90000915527344px, 301.221435546875px) translate(-253.90000915527344px, -301.221435546875px) translate(0px, 0px);transform: translate(253.90000915527344px, 301.221435546875px) translate(-253.90000915527344px, -301.221435546875px) translate(0px, 0px);}73.33%{-webkit-transform: translate(253.90000915527344px, 301.221435546875px) translate(-253.90000915527344px, -301.221435546875px) translate(-1000px, 0px);transform: translate(253.90000915527344px, 301.221435546875px) translate(-253.90000915527344px, -301.221435546875px) translate(-1000px, 0px);}0%{-webkit-transform: translate(253.90000915527344px, 301.221435546875px) translate(-253.90000915527344px, -301.221435546875px) translate(0px, 0px);transform: translate(253.90000915527344px, 301.221435546875px) translate(-253.90000915527344px, -301.221435546875px) translate(0px, 0px);}100%{-webkit-transform: translate(253.90000915527344px, 301.221435546875px) translate(-253.90000915527344px, -301.221435546875px) translate(-1000px, 0px);transform: translate(253.90000915527344px, 301.221435546875px) translate(-253.90000915527344px, -301.221435546875px) translate(-1000px, 0px);}}@-webkit-keyframes kf_el_NexNnNbi7o6_an_J-vWnM_UV{0%{-webkit-transform: translate(11.005250930786133px, 150.61456298828125px) translate(-11.005250930786133px, -150.61456298828125px) translate(0px, 0px);transform: translate(11.005250930786133px, 150.61456298828125px) translate(-11.005250930786133px, -150.61456298828125px) translate(0px, 0px);}50%{-webkit-transform: translate(11.005250930786133px, 150.61456298828125px) translate(-11.005250930786133px, -150.61456298828125px) translate(0px, 500px);transform: translate(11.005250930786133px, 150.61456298828125px) translate(-11.005250930786133px, -150.61456298828125px) translate(0px, 500px);}100%{-webkit-transform: translate(11.005250930786133px, 150.61456298828125px) translate(-11.005250930786133px, -150.61456298828125px) translate(0px, 500px);transform: translate(11.005250930786133px, 150.61456298828125px) translate(-11.005250930786133px, -150.61456298828125px) translate(0px, 500px);}}@keyframes kf_el_NexNnNbi7o6_an_J-vWnM_UV{0%{-webkit-transform: translate(11.005250930786133px, 150.61456298828125px) translate(-11.005250930786133px, -150.61456298828125px) translate(0px, 0px);transform: translate(11.005250930786133px, 150.61456298828125px) translate(-11.005250930786133px, -150.61456298828125px) translate(0px, 0px);}50%{-webkit-transform: translate(11.005250930786133px, 150.61456298828125px) translate(-11.005250930786133px, -150.61456298828125px) translate(0px, 500px);transform: translate(11.005250930786133px, 150.61456298828125px) translate(-11.005250930786133px, -150.61456298828125px) translate(0px, 500px);}100%{-webkit-transform: translate(11.005250930786133px, 150.61456298828125px) translate(-11.005250930786133px, -150.61456298828125px) translate(0px, 500px);transform: translate(11.005250930786133px, 150.61456298828125px) translate(-11.005250930786133px, -150.61456298828125px) translate(0px, 500px);}}#el_EBPtpB9MS *{-webkit-animation-duration: 2s;animation-duration: 2s;-webkit-animation-iteration-count: infinite;animation-iteration-count: infinite;-webkit-animation-timing-function: cubic-bezier(0, 0, 1, 1);animation-timing-function: cubic-bezier(0, 0, 1, 1);}#el_7lp87GbeSJ{fill: #AC7631;}#el_Wd_vEf2GnM{fill: #80973B;-webkit-transform: matrix(0.5597, -0.8287, 0.8287, 0.5597, -122.9509, 449.3949);transform: matrix(0.5597, -0.8287, 0.8287, 0.5597, -122.9509, 449.3949);}#el_b8heDeQTjD{fill: #91B23D;}#el_dKzP6wdqYm{fill: #EBC478;}#el_Hw83gDkU5y{fill: #E7D0AA;}#el_FLmgW7zgp7{fill: #E7D0AA;}#el_g26ZZIeg9l{fill: #E7D0AA;}#el_K3cqGsqzD8{fill: #E7D0AA;}#el_uPwit-uBlD{fill: #E7D0AA;}#el_CWJM7ZU_D1G{fill: #E7D0AA;}#el_lMKMPSQVMWg{fill: #E7D0AA;}#el_d3nlZI9A3S-{fill: #E7D0AA;}#el_dZOWrbHEcpL{fill: #E7D0AA;}#el_9T9nJ_47tqO{fill: #E7D0AA;}#el_7n8rIriHHL9{fill: #E7D0AA;}#el_7cl8GJx5AhK{fill: #E7D0AA;}#el_IeLYLbUHin8{fill: #E7D0AA;}#el_2jrZyK_QFYa{fill: #E7D0AA;}#el_36cfeqKadrJ{fill: #131213;}#el_kxPBdpvAY-2{fill: #131213;}#el_kGtVYlgvx5a{fill: #131213;}#el__0IXoNe3ZvY{fill: #131213;}#el_sFP1Uu39mEm{fill: #131213;}#el_85AB26vvms5{fill: #131213;}#el_SMTqVHLh9qo{fill: #131213;}#el_xTlDGSQageY{fill: #131213;}#el_PPJCoC5dO9b{fill: #131213;}#el_hIeN1FIUjFX{fill: #131213;}#el_37tWFFLIEiY{fill: #131213;}#el_N4N3fa2DypZ{fill: #131213;}#el_VE4BuNLy7Tk{fill: #131213;}#el_zkCQatPVwIO{fill: #131213;}#el_s1_NfmyUxxI{fill: #131213;}#el_ISgQ2AyJPA1{fill: #131213;}#el_OY8Gn-GQst1{fill: #131213;}#el_oWGX5PXs9jO{fill: #131213;}#el_ETyLkN8_FcB{fill: #131213;}#el_xRuLy2W5OlE{fill: #131213;}#el_JyXzneeO1PY{fill: #131213;}#el_akC5RJ0Cko_{fill: #131213;}#el_6_Qqd_lO6ja{fill: #131213;}#el_we1X0DAMOVv{fill: #131213;}#el_ZjT1n5Q0sbN{fill: #131213;}#el_QwBb7FiExnl{fill: #131213;}#el_bEcLNHSCVoV{fill: #131213;}#el_nv08OiUvnB2{fill: #131213;}#el_DU0DkGKBzLA{fill: #131213;}#el_QLtzeELLxLC{fill: #131213;}#el_UW-vOILWECB{fill: #131213;}#el_mMmvG0rpet2{fill: #AC7631;}#el_9VRlf4ANCv0{fill: #91B23D;}#el_d8jpO5qMA8Z{fill: #C1B4BE;}#el_FNSOm6Zx-ha{fill: #E2D2DD;}#el_65FdOSsI1aV{fill: #29353F;}#el_UJzcX5dAaGL{fill: #374757;}#el_Udp5jGd6nPq{fill: #E7D0AA;}#el_UaStHCuvHNX{fill: #E7D0AA;}#el_2xnsaS_7YI1{fill: #131213;}#el_XgDusXcQ9DX{fill: #131213;}#el__0A6FErak4o{fill: #58402E;}#el_9I2HDYPurdK{fill: #58402E;}#el_hFImnIVqlJI{fill: #AC7631;}#el_NexNnNbi7o6_an_J-vWnM_UV{-webkit-animation-fill-mode: backwards;animation-fill-mode: backwards;-webkit-transform: translate(11.005250930786133px, 150.61456298828125px) translate(-11.005250930786133px, -150.61456298828125px) translate(0px, 0px);transform: translate(11.005250930786133px, 150.61456298828125px) translate(-11.005250930786133px, -150.61456298828125px) translate(0px, 0px);-webkit-animation-name: kf_el_NexNnNbi7o6_an_J-vWnM_UV;animation-name: kf_el_NexNnNbi7o6_an_J-vWnM_UV;-webkit-animation-timing-function: cubic-bezier(0, 0, 1, 1);animation-timing-function: cubic-bezier(0, 0, 1, 1);}#el_1_neooE7QuP_an_nc1PvLQ4g{-webkit-animation-fill-mode: backwards;animation-fill-mode: backwards;-webkit-transform: translate(253.90000915527344px, 301.221435546875px) translate(-253.90000915527344px, -301.221435546875px) translate(0px, 0px);transform: translate(253.90000915527344px, 301.221435546875px) translate(-253.90000915527344px, -301.221435546875px) translate(0px, 0px);-webkit-animation-name: kf_el_1_neooE7QuP_an_nc1PvLQ4g;animation-name: kf_el_1_neooE7QuP_an_nc1PvLQ4g;-webkit-animation-timing-function: cubic-bezier(0, 0, 1, 1);animation-timing-function: cubic-bezier(0, 0, 1, 1);}</style>

<path d="M514.1,342.1c-21.4,34-89.3,82-115.5,70.5c-35-15.3-122.7-109.4-122.7-109.4s7-184.7,199.4-152.5&#10;&#9;C475.3,150.7,602.9,201.1,514.1,342.1z" id="el_7lp87GbeSJ"/>
<ellipse cx="361.4" cy="340.4" rx="62.2" ry="97.1" id="el_Wd_vEf2GnM"/>
<path d="M395.9,408.7c-20.7,0-44.6-8.1-65.5-22.2c-20.5-13.8-36.2-31.8-44.3-50.6c-7.7-17.8-7.5-34.2,0.4-46&#10;&#9;c7.7-11.4,22.1-17.6,40.5-17.6c20.7,0,44.6,8.1,65.5,22.2c20.5,13.8,36.2,31.8,44.3,50.6c7.7,17.8,7.5,34.2-0.4,46&#10;&#9;C428.7,402.4,414.3,408.7,395.9,408.7z" id="el_b8heDeQTjD"/>
<path d="M371.2,359.9c-5.9,0-12.7-2.3-18.7-6.3c-5.8-3.9-10.3-9.1-12.6-14.4c-2.2-5.1-2.1-9.7,0.1-13.1&#10;&#9;c2.2-3.2,6.3-5,11.5-5c5.9,0,12.7,2.3,18.7,6.3c5.8,3.9,10.3,9.1,12.6,14.4c2.2,5.1,2.1,9.7-0.1,13.1&#10;&#9;C380.6,358.1,376.5,359.9,371.2,359.9z" id="el_dKzP6wdqYm"/>
<g id="el_J7df4OrhPW">
	<path d="M334.5,333.5c-2.2-0.3-4.4-0.8-6.6-1.3c-2.1-0.6-4.3-1.2-6.3-2c-2.1-0.7-4.1-1.5-6.2-2.4c-2-0.9-4-1.9-6-3.1&#10;&#9;&#9;c2.2,0.3,4.4,0.8,6.6,1.3c2.1,0.6,4.3,1.2,6.3,2c2.1,0.7,4.1,1.5,6.2,2.4S332.6,332.3,334.5,333.5z" id="el_Hw83gDkU5y"/>
</g>
<g id="el_Xz-auoW2vK">
	<path d="M335.6,346.7c-2.1,0.9-4.2,1.5-6.3,2.1c-2.1,0.6-4.3,1.1-6.5,1.5s-4.4,0.7-6.6,1c-2.2,0.2-4.4,0.4-6.7,0.3&#10;&#9;&#9;c2.1-0.9,4.2-1.5,6.3-2.1c2.1-0.6,4.3-1.1,6.5-1.5s4.4-0.7,6.6-1C331.1,346.8,333.3,346.6,335.6,346.7z" id="el_FLmgW7zgp7"/>
</g>
<g id="el_b7uHqscACp">
	<path d="M338.6,352.6c-1.7,1.5-3.6,2.8-5.4,4c-1.9,1.2-3.8,2.2-5.8,3.2s-4,1.8-6.1,2.6c-2.1,0.7-4.2,1.4-6.5,1.8&#10;&#9;&#9;c1.7-1.5,3.6-2.8,5.4-4c1.9-1.2,3.8-2.2,5.8-3.2s4-1.8,6.1-2.6C334.2,353.6,336.4,353,338.6,352.6z" id="el_g26ZZIeg9l"/>
</g>
<g id="el_puYLEDRJTL">
	<path d="M382,366.9c1.5,1.7,2.8,3.6,4,5.4c1.2,1.9,2.2,3.8,3.2,5.8s1.8,4,2.6,6.1c0.7,2.1,1.4,4.2,1.8,6.5&#10;&#9;&#9;c-1.5-1.7-2.8-3.6-4-5.4c-1.2-1.9-2.2-3.8-3.2-5.8s-1.8-4-2.6-6.1C383,371.3,382.3,369.2,382,366.9z" id="el_K3cqGsqzD8"/>
</g>
<g id="el_deuZU_uRjy">
	<path d="M371.8,366.9c1.1,2.1,1.9,4.2,2.6,6.4c0.7,2.2,1.3,4.4,1.8,6.6s0.9,4.4,1.1,6.7c0.2,2.3,0.4,4.5,0.2,6.9&#10;&#9;&#9;c-1.1-2.1-1.9-4.2-2.6-6.4c-0.7-2.2-1.3-4.4-1.8-6.6s-0.9-4.5-1.1-6.7C371.8,371.6,371.7,369.3,371.8,366.9z" id="el_uPwit-uBlD"/>
</g>
<g id="el_KSt3RmHjE3">
	<path d="M386.9,362.5c2.9,0.9,5.7,2.1,8.4,3.4c2.7,1.3,5.4,2.7,8,4.1c2.6,1.5,5.2,3,7.6,4.7c2.5,1.7,4.9,3.5,7.2,5.5&#10;&#9;&#9;c-2.9-0.9-5.7-2.1-8.4-3.4c-2.7-1.3-5.4-2.7-8-4.1c-2.6-1.5-5.2-3-7.6-4.7C391.6,366.3,389.2,364.5,386.9,362.5z" id="el_CWJM7ZU_D1G"/>
</g>
<g id="el_pJBQsafByRG">
	<path d="M390.2,354.8c2.3,0.1,4.5,0.5,6.7,1s4.3,1.1,6.4,1.9c2.1,0.7,4.1,1.6,6.1,2.5c2,1,4,2,5.8,3.3&#10;&#9;&#9;c-2.3-0.1-4.5-0.5-6.7-1s-4.3-1.1-6.4-1.9c-2.1-0.7-4.1-1.6-6.1-2.5C394.1,357.2,392.1,356.2,390.2,354.8z" id="el_lMKMPSQVMWg"/>
</g>
<g id="el_kCLv1Nudz1i">
	<path d="M390.2,343.4c2.4-0.4,4.7-0.6,7.1-0.6c2.4-0.1,4.7-0.1,7,0s4.7,0.3,7,0.5c2.3,0.3,4.7,0.6,7,1.2&#10;&#9;&#9;c-2.4,0.4-4.7,0.6-7.1,0.6c-2.4,0.1-4.7,0.1-7,0s-4.7-0.3-7-0.5C394.9,344.3,392.6,344,390.2,343.4z" id="el_d3nlZI9A3S-"/>
</g>
<g id="el_oUNmh0_fL3B">
	<path d="M383.7,329.5c2.1-1,4.2-1.8,6.3-2.4c2.1-0.6,4.3-1.1,6.5-1.6c2.2-0.4,4.4-0.7,6.6-0.9c2.2-0.2,4.4-0.3,6.7,0&#10;&#9;&#9;c-2.1,1-4.2,1.8-6.3,2.4c-2.1,0.6-4.3,1.1-6.5,1.6c-2.2,0.4-4.4,0.7-6.6,0.9C388.2,329.7,386,329.8,383.7,329.5z" id="el_dZOWrbHEcpL"/>
</g>
<g id="el_aqPYk_ZsmVi">
	<path d="M376.2,325.7c1.4-1.7,3-3.3,4.6-4.8s3.2-3,4.9-4.5c1.7-1.4,3.4-2.8,5.2-4.2c1.8-1.3,3.6-2.6,5.5-3.8&#10;&#9;&#9;c-1.4,1.7-3,3.3-4.6,4.8s-3.2,3-4.9,4.5c-1.7,1.4-3.4,2.8-5.2,4.2C379.9,323.2,378.1,324.5,376.2,325.7z" id="el_9T9nJ_47tqO"/>
</g>
<g id="el_xlJHaORXWRa">
	<path d="M364.2,320c0.4-2.2,0.9-4.4,1.6-6.5c0.6-2.1,1.3-4.2,2-6.3c0.7-2.1,1.5-4.2,2.4-6.2s1.8-4.1,2.8-6&#10;&#9;&#9;c-0.4,2.2-0.9,4.4-1.5,6.5s-1.3,4.2-2,6.3c-0.7,2.1-1.5,4.2-2.4,6.2S365.3,318.1,364.2,320z" id="el_7n8rIriHHL9"/>
</g>
<g id="el_J1r2QVP2p83">
	<path d="M351.1,314.1c-1-2.1-1.8-4.2-2.4-6.3c-0.6-2.1-1.1-4.3-1.6-6.5c-0.4-2.2-0.7-4.4-0.9-6.6&#10;&#9;&#9;c-0.2-2.2-0.3-4.4,0-6.7c1,2.1,1.8,4.2,2.4,6.3c0.6,2.1,1.1,4.3,1.6,6.5c0.4,2.2,0.7,4.4,0.9,6.6&#10;&#9;&#9;C351.2,309.5,351.3,311.8,351.1,314.1z" id="el_7cl8GJx5AhK"/>
</g>
<g id="el_5ZudxnDf6O4">
	<path d="M345.1,317.1c-1.3-1.8-2.4-3.7-3.5-5.7c-1.1-1.9-2.1-3.9-3-5.9s-1.9-4-2.7-6.1c-0.8-2-1.6-4.1-2.3-6.3&#10;&#9;&#9;c1.3,1.8,2.4,3.7,3.5,5.7c1.1,1.9,2.1,3.9,3,5.9s1.9,4,2.7,6.1C343.7,312.9,344.5,315,345.1,317.1z" id="el_IeLYLbUHin8"/>
</g>
<g id="el_SySB2fklVq8">
	<path d="M336.6,327.2c-2.7-1.7-5.1-3.7-7.5-5.7s-4.6-4.2-6.8-6.4c-2.2-2.2-4.3-4.5-6.4-6.8c-2-2.4-4-4.8-5.7-7.5&#10;&#9;&#9;c2.7,1.7,5.1,3.7,7.5,5.7s4.6,4.2,6.8,6.4c2.2,2.2,4.3,4.5,6.4,6.8C332.9,322.1,334.8,324.5,336.6,327.2z" id="el_2jrZyK_QFYa"/>
</g>
<path d="M319.1,354.8c0,0-0.9-2.1,1.5-4.1c0,0,1.8-1.2,1.8,1.4c0,0-0.2,1.6-2.1,2.7&#10;&#9;C320.3,354.9,319.4,355.4,319.1,354.8z" id="el_36cfeqKadrJ"/>
<path d="M337.4,359.3c0,0-0.9-2.1,1.5-4.1c0,0,1.8-1.2,1.8,1.4c0,0-0.2,1.6-2.1,2.7&#10;&#9;C338.7,359.3,337.7,359.8,337.4,359.3z" id="el_kxPBdpvAY-2"/>
<path d="M342.2,377.3c0,0-0.9-2.1,1.5-4.1c0,0,1.8-1.2,1.8,1.4c0,0-0.2,1.6-2.1,2.7&#10;&#9;C343.4,377.4,342.5,377.9,342.2,377.3z" id="el_kGtVYlgvx5a"/>
<path d="M330.2,357.4c0,0-0.9-2.1,1.5-4.1c0,0,1.8-1.2,1.8,1.4c0,0-0.2,1.6-2.1,2.7&#10;&#9;C331.5,357.4,330.6,357.9,330.2,357.4z" id="el__0IXoNe3ZvY"/>
<path d="M348.6,361.8c0,0-0.9-2.1,1.5-4.1c0,0,1.8-1.2,1.8,1.4c0,0-0.2,1.6-2.1,2.7&#10;&#9;C349.8,361.9,348.9,362.3,348.6,361.8z" id="el_sFP1Uu39mEm"/>
<path d="M330.1,375.2c0,0-0.6-2,1.7-3.6c0,0,1.8-0.9,1.5,1.4c0,0-0.4,1.5-2.1,2.3C331.2,375.4,330.3,375.7,330.1,375.2z&#10;&#9;" id="el_85AB26vvms5"/>
<path d="M359.2,374.4c0,0-1.4-1.7,0.2-4.3c0,0,1.4-1.7,2.2,0.8c0,0,0.3,1.6-1.1,3.2C360.4,374,359.6,374.7,359.2,374.4z&#10;&#9;" id="el_SMTqVHLh9qo"/>
<path d="M378,372.9c0,0-1.4-1.7,0.2-4.3c0,0,1.4-1.7,2.2,0.8c0,0,0.3,1.6-1.1,3.2C379.1,372.6,378.4,373.3,378,372.9z" id="el_xTlDGSQageY"/>
<path d="M388,388.7c0,0-1.4-1.7,0.2-4.3c0,0,1.4-1.7,2.2,0.8c0,0,0.3,1.6-1.1,3.2C389.2,388.3,388.5,389.1,388,388.7z" id="el_PPJCoC5dO9b"/>
<path d="M370.6,373.3c0,0-1.4-1.7,0.2-4.3c0,0,1.4-1.7,2.2,0.8c0,0,0.3,1.6-1.1,3.2C371.7,373,371,373.7,370.6,373.3z" id="el_hIeN1FIUjFX"/>
<path d="M389.3,371.9c0,0-1.4-1.7,0.2-4.3c0,0,1.4-1.7,2.2,0.8c0,0,0.3,1.6-1.1,3.2&#10;&#9;C390.5,371.6,389.8,372.3,389.3,371.9z" id="el_37tWFFLIEiY"/>
<path d="M399.4,387.7c0,0-1.4-1.7,0.2-4.3c0,0,1.4-1.7,2.2,0.8c0,0,0.3,1.6-1.1,3.2&#10;&#9;C400.6,387.3,399.9,388.1,399.4,387.7z" id="el_N4N3fa2DypZ"/>
<path d="M375.9,390.4c0,0-1.2-1.7,0.5-3.9c0,0,1.4-1.4,1.9,0.9c0,0,0.1,1.5-1.3,2.8C377,390.2,376.3,390.8,375.9,390.4z&#10;&#9;" id="el_VE4BuNLy7Tk"/>
<path d="M393.2,390.6c0,0-1.2-1.7,0.5-3.9c0,0,1.4-1.4,1.9,0.9c0,0,0.1,1.5-1.3,2.8C394.3,390.4,393.6,391,393.2,390.6z&#10;&#9;" id="el_zkCQatPVwIO"/>
<path d="M406.3,356.9c0,0-1.1,2-4.1,1.4c0,0-2.1-0.7-0.1-2.3c0,0,1.4-0.8,3.4-0.1C405.5,356,406.5,356.4,406.3,356.9z" id="el_s1_NfmyUxxI"/>
<path d="M369,303.9c0,0,1.8,1.4,0.7,4.3c0,0-1,1.9-2.3-0.4c0,0-0.6-1.5,0.5-3.3C367.9,304.5,368.4,303.6,369,303.9z" id="el_ISgQ2AyJPA1"/>
<path d="M361.8,293.9c0,0,1.8,1.4,0.7,4.3c0,0-1,1.9-2.3-0.4c0,0-0.6-1.5,0.5-3.3C360.7,294.5,361.2,293.6,361.8,293.9z&#10;&#9;" id="el_OY8Gn-GQst1"/>
<path d="M409.1,324.8c0,0-1.1,2-4.1,1.4c0,0-2.1-0.7-0.1-2.3c0,0,1.4-0.8,3.4-0.1C408.4,323.9,409.3,324.3,409.1,324.8z&#10;&#9;" id="el_oWGX5PXs9jO"/>
<path d="M401.2,346.7c0,0-1.1,2-4.1,1.4c0,0-2.1-0.7-0.1-2.3c0,0,1.4-0.8,3.4-0.1C400.5,345.7,401.4,346.1,401.2,346.7z&#10;&#9;" id="el_ETyLkN8_FcB"/>
<path d="M393.1,329.7c0,0-1.1,2-4.1,1.4c0,0-2.1-0.7-0.1-2.3c0,0,1.4-0.8,3.4-0.1C392.3,328.7,393.3,329.1,393.1,329.7z&#10;&#9;" id="el_xRuLy2W5OlE"/>
<path d="M389.8,316c0,0-1.1,2-4.1,1.4c0,0-2.1-0.7-0.1-2.3c0,0,1.4-0.8,3.4-0.1C389.1,315,390,315.4,389.8,316z" id="el_JyXzneeO1PY"/>
<path d="M415.1,335.5c0,0-1.1,1.7-3.8,1c0,0-1.8-0.8,0.1-2.1c0,0,1.4-0.6,3.1,0.2C414.5,334.6,415.4,335,415.1,335.5z" id="el_akC5RJ0Cko_"/>
<path d="M350,307.8c0,0-1.1-0.7-0.6-2.4c0,0,0.5-1.1,1.3,0.1c0,0,0.4,0.8-0.1,1.9C350.6,307.4,350.4,307.9,350,307.8z" id="el_6_Qqd_lO6ja"/>
<path d="M316.6,333.2c0,0-1.9,0.4-3.3-1.9c0,0-0.7-1.8,1.5-1.4c0,0,1.4,0.5,2,2.2C316.9,332.1,317.1,333,316.6,333.2z" id="el_we1X0DAMOVv"/>
<path d="M323.4,317.7c0,0-1.9,0.4-3.3-1.9c0,0-0.7-1.8,1.5-1.4c0,0,1.4,0.5,2,2.2C323.6,316.7,323.9,317.5,323.4,317.7z&#10;&#9;" id="el_ZjT1n5Q0sbN"/>
<path d="M339.8,316.4c0,0-1.9,0.4-3.3-1.9c0,0-0.7-1.8,1.5-1.4c0,0,1.4,0.5,2,2.2C340,315.3,340.3,316.2,339.8,316.4z" id="el_QwBb7FiExnl"/>
<path d="M325.4,325.5c0,0-1.9,0.4-3.3-1.9c0,0-0.7-1.8,1.5-1.4c0,0,1.4,0.5,2,2.2C325.7,324.4,325.9,325.3,325.4,325.5z&#10;&#9;" id="el_bEcLNHSCVoV"/>
<path d="M327.4,308.3c0,0-1.9,0.4-3.3-1.9c0,0-0.7-1.8,1.5-1.4c0,0,1.4,0.5,2,2.2C327.6,307.3,327.9,308.1,327.4,308.3z&#10;&#9;" id="el_nv08OiUvnB2"/>
<path d="M341.9,301.1c0,0-1.9-0.6-1.9-3.3c0,0,0.2-1.9,2-0.5c0,0,1,1.1,0.7,2.9C342.7,300.3,342.5,301.2,341.9,301.1z" id="el_DU0DkGKBzLA"/>
<path d="M336,326.7c0,0-1.8,0.2-2.8-2c0,0-0.5-1.7,1.5-1.1c0,0,1.2,0.5,1.7,2.2C336.3,325.7,336.5,326.5,336,326.7z" id="el_QLtzeELLxLC"/>
<path d="M343.4,313.1c0,0-1.8,0.2-2.8-2c0,0-0.5-1.7,1.5-1.1c0,0,1.2,0.5,1.7,2.2C343.7,312.1,343.9,312.9,343.4,313.1z&#10;&#9;" id="el_UW-vOILWECB"/>
<g id="el_jcdTTpCl3rL">
	<path d="M447.3,147.9c0,0,95.7,11.6,98.7,95.3c0,0,21.3-32.3-9-80.2c-3.8-6.1-9.6-10.7-16.4-13&#10;&#9;&#9;C502.1,143.9,464.4,139.8,447.3,147.9z" id="el_mMmvG0rpet2"/>
	<path d="M445.8,148.4c0,0,94.4,15,97.4,98.7c0,0,24.8-26.4-5.5-74.3c-3.8-6.1-9.6-10.7-16.4-13&#10;&#9;&#9;C502.8,153.7,462.9,140.3,445.8,148.4z" id="el_9VRlf4ANCv0"/>
</g>
<g id="el_NexNnNbi7o6_an_J-vWnM_UV" data-animator-group="true" data-animator-type="0"><g id="el_NexNnNbi7o6">
	<polygon points="172.9,234.6 517,388.8 174.1,223.2 &#9;" id="el_d8jpO5qMA8Z"/>
	<path d="M192.3,277c0,0,249.1,129.4,324.7,111.8L172.9,234.6L192.3,277z" id="el_FNSOm6Zx-ha"/>
	<path d="M60.3,154.4c0,0-59.7-17.6-45.9,23.1c0,0,18.2,21.3,34.5,12s125.7,46,125.7,46l-0.4-12.2L60.3,154.4z" id="el_65FdOSsI1aV"/>
	<path d="M52.6,165.1c8.5,2.7,130.7,75.5,122,70.3l6.1,16.3c0,0-119.8-56.7-141.9-54.1c0,0-35.9-8.8-26.1-27&#10;&#9;&#9;S42.9,162.3,52.6,165.1z" id="el_UJzcX5dAaGL"/>
</g></g>
<g id="el_BG52UwAqFQh">
	<path d="M347.2,365.7c-0.7,2.2-1.7,4.2-2.7,6.2c-1.1,2-2.2,3.8-3.5,5.7c-1.2,1.8-2.6,3.6-4,5.3c-1.4,1.7-3,3.3-4.7,4.8&#10;&#9;&#9;c0.7-2.2,1.7-4.2,2.7-6.2c1.1-2,2.2-3.8,3.5-5.7c1.2-1.8,2.6-3.6,4-5.3C343.9,368.8,345.4,367.2,347.2,365.7z" id="el_Udp5jGd6nPq"/>
</g>
<g id="el_kd3iVSli7f2">
	<path d="M360.2,368.1c0.2,2.2,0.2,4.4,0.2,6.7c0,2.2-0.2,4.4-0.3,6.6c-0.2,2.2-0.4,4.4-0.7,6.6&#10;&#9;&#9;c-0.3,2.2-0.7,4.4-1.2,6.6c-0.2-2.2-0.2-4.4-0.2-6.7c0-2.2,0.2-4.4,0.3-6.6c0.2-2.2,0.4-4.4,0.7-6.6S359.7,370.3,360.2,368.1z" id="el_UaStHCuvHNX"/>
</g>
<path d="M351.8,384.4c0,0-0.9-2.1,1.5-4.1c0,0,1.8-1.2,1.8,1.4c0,0-0.2,1.6-2.1,2.7C353.1,384.5,352.1,385,351.8,384.4z&#10;&#9;" id="el_2xnsaS_7YI1"/>
<path d="M345,385.3c0,0-0.6-2,1.7-3.6c0,0,1.8-0.9,1.5,1.4c0,0-0.4,1.5-2.1,2.3C346.1,385.5,345.3,385.8,345,385.3z" id="el_XgDusXcQ9DX"/>
<g id="el_1_neooE7QuP_an_nc1PvLQ4g" data-animator-group="true" data-animator-type="0"><g id="el_1_neooE7QuP">
	<g id="el_-aDGhCCKwlu">
		<g id="el_xPvf7Xu-Pk3">
			<path d="M313.6,438.4c0,0-8.9,8.4-7,18.7c0,0-17.9-24.6-17.6-27.7s0.4-4.8,0.4-4.8L313.6,438.4z" id="el__0A6FErak4o"/>
			<path d="M270.1,405.4c0,0-5.7,10.9-16.2,11.7c0,0,28.5,10.6,31.4,9.6s4.6-1.6,4.6-1.6L270.1,405.4z" id="el_9I2HDYPurdK"/>
		</g>
	</g>
	<path d="M410.5,429.2c-37.4,26.3-70.8,27.2-115.2-2.8c-44.4-30-45.5-59.7-35.9-99.7c8.1-33.4,61-33.4,105.4-3.3&#10;&#9;&#9;S438.6,409.4,410.5,429.2z" id="el_hFImnIVqlJI"/>
</g></g>
</svg>