<svg version="1.1" id="el_O8BjrrsjF" xmlns="http://www.w3.org/2000/svg" xmlns:xlink="http://www.w3.org/1999/xlink" x="0px" y="0px" viewBox="0 0 576 576" style="enable-background:new 0 0 576 576;" xml:space="preserve"><style>@-webkit-keyframes kf_el_VjKtS7P4tS_an_43dFh2l0s{74.44%{-webkit-transform: translate(352.1660461425781px, 69.9000015258789px) translate(-352.1660461425781px, -69.9000015258789px) translate(0px, 0px);transform: translate(352.1660461425781px, 69.9000015258789px) translate(-352.1660461425781px, -69.9000015258789px) translate(0px, 0px);}90%{-webkit-transform: translate(352.1660461425781px, 69.9000015258789px) translate(-352.1660461425781px, -69.9000015258789px) translate(0px, 100px);transform: translate(352.1660461425781px, 69.9000015258789px) translate(-352.1660461425781px, -69.9000015258789px) translate(0px, 100px);}0%{-webkit-transform: translate(352.1660461425781px, 69.9000015258789px) translate(-352.1660461425781px, -69.9000015258789px) translate(0px, 0px);transform: translate(352.1660461425781px, 69.9000015258789px) translate(-352.1660461425781px, -69.9000015258789px) translate(0px, 0px);}100%{-webkit-transform: translate(352.1660461425781px, 69.9000015258789px) translate(-352.1660461425781px, -69.9000015258789px) translate(0px, 100px);transform: translate(352.1660461425781px, 69.9000015258789px) translate(-352.1660461425781px, -69.9000015258789px) translate(0px, 100px);}}@keyframes kf_el_VjKtS7P4tS_an_43dFh2l0s{74.44%{-webkit-transform: translate(352.1660461425781px, 69.9000015258789px) translate(-352.1660461425781px, -69.9000015258789px) translate(0px, 0px);transform: translate(352.1660461425781px, 69.9000015258789px) translate(-352.1660461425781px, -69.9000015258789px) translate(0px, 0px);}90%{-webkit-transform: translate(352.1660461425781px, 69.9000015258789px) translate(-352.1660461425781px, -69.9000015258789px) translate(0px, 100px);transform: translate(352.1660461425781px, 69.9000015258789px) translate(-352.1660461425781px, -69.9000015258789px) translate(0px, 100px);}0%{-webkit-transform: translate(352.1660461425781px, 69.9000015258789px) translate(-352.1660461425781px, -69.9000015258789px) translate(0px, 0px);transform: translate(352.1660461425781px, 69.9000015258789px) translate(-352.1660461425781px, -69.9000015258789px) translate(0px, 0px);}100%{-webkit-transform: translate(352.1660461425781px, 69.9000015258789px) translate(-352.1660461425781px, -69.9000015258789px) translate(0px, 100px);transform: translate(352.1660461425781px, 69.9000015258789px) translate(-352.1660461425781px, -69.9000015258789px) translate(0px, 100px);}}@-webkit-keyframes kf_el_se8yETlw0wk_an_QQgNTFACG{48.89%{-webkit-transform: translate(262.120849609375px, 173.90000915527344px) translate(-262.120849609375px, -173.90000915527344px) translate(0px, 0px);transform: translate(262.120849609375px, 173.90000915527344px) translate(-262.120849609375px, -173.90000915527344px) translate(0px, 0px);}60%{-webkit-transform: translate(262.120849609375px, 173.90000915527344px) translate(-262.120849609375px, -173.90000915527344px) translate(-20px, 0px);transform: translate(262.120849609375px, 173.90000915527344px) translate(-262.120849609375px, -173.90000915527344px) translate(-20px, 0px);}0%{-webkit-transform: translate(262.120849609375px, 173.90000915527344px) translate(-262.120849609375px, -173.90000915527344px) translate(0px, 0px);transform: translate(262.120849609375px, 173.90000915527344px) translate(-262.120849609375px, -173.90000915527344px) translate(0px, 0px);}100%{-webkit-transform: translate(262.120849609375px, 173.90000915527344px) translate(-262.120849609375px, -173.90000915527344px) translate(-20px, 0px);transform: translate(262.120849609375px, 173.90000915527344px) translate(-262.120849609375px, -173.90000915527344px) translate(-20px, 0px);}}@keyframes kf_el_se8yETlw0wk_an_QQgNTFACG{48.89%{-webkit-transform: translate(262.120849609375px, 173.90000915527344px) translate(-262.120849609375px, -173.90000915527344px) translate(0px, 0px);transform: translate(262.120849609375px, 173.90000915527344px) translate(-262.120849609375px, -173.90000915527344px) translate(0px, 0px);}60%{-webkit-transform: translate(262.120849609375px, 173.90000915527344px) translate(-262.120849609375px, -173.90000915527344px) translate(-20px, 0px);transform: translate(262.120849609375px, 173.90000915527344px) translate(-262.120849609375px, -173.90000915527344px) translate(-20px, 0px);}0%{-webkit-transform: translate(262.120849609375px, 173.90000915527344px) translate(-262.120849609375px, -173.90000915527344px) translate(0px, 0px);transform: translate(262.120849609375px, 173.90000915527344px) translate(-262.120849609375px, -173.90000915527344px) translate(0px, 0px);}100%{-webkit-transform: translate(262.120849609375px, 173.90000915527344px) translate(-262.120849609375px, -173.90000915527344px) translate(-20px, 0px);transform: translate(262.120849609375px, 173.90000915527344px) translate(-262.120849609375px, -173.90000915527344px) translate(-20px, 0px);}}@-webkit-keyframes kf_el_7pL0V88g5KC_an_QEKCwWtoo{16.67%{-webkit-transform: translate(395.7410888671875px, 149.60000610351562px) translate(-395.7410888671875px, -149.60000610351562px) translate(0px, 0px);transform: translate(395.7410888671875px, 149.60000610351562px) translate(-395.7410888671875px, -149.60000610351562px) translate(0px, 0px);}25.56%{-webkit-transform: translate(395.7410888671875px, 149.60000610351562px) translate(-395.7410888671875px, -149.60000610351562px) translate(20px, 0px);transform: translate(395.7410888671875px, 149.60000610351562px) translate(-395.7410888671875px, -149.60000610351562px) translate(20px, 0px);}0%{-webkit-transform: translate(395.7410888671875px, 149.60000610351562px) translate(-395.7410888671875px, -149.60000610351562px) translate(0px, 0px);transform: translate(395.7410888671875px, 149.60000610351562px) translate(-395.7410888671875px, -149.60000610351562px) translate(0px, 0px);}100%{-webkit-transform: translate(395.7410888671875px, 149.60000610351562px) translate(-395.7410888671875px, -149.60000610351562px) translate(20px, 0px);transform: translate(395.7410888671875px, 149.60000610351562px) translate(-395.7410888671875px, -149.60000610351562px) translate(20px, 0px);}}@keyframes kf_el_7pL0V88g5KC_an_QEKCwWtoo{16.67%{-webkit-transform: translate(395.7410888671875px, 149.60000610351562px) translate(-395.7410888671875px, -149.60000610351562px) translate(0px, 0px);transform: translate(395.7410888671875px, 149.60000610351562px) translate(-395.7410888671875px, -149.60000610351562px) translate(0px, 0px);}25.56%{-webkit-transform: translate(395.7410888671875px, 149.60000610351562px) translate(-395.7410888671875px, -149.60000610351562px) translate(20px, 0px);transform: translate(395.7410888671875px, 149.60000610351562px) translate(-395.7410888671875px, -149.60000610351562px) translate(20px, 0px);}0%{-webkit-transform: translate(395.7410888671875px, 149.60000610351562px) translate(-395.7410888671875px, -149.60000610351562px) translate(0px, 0px);transform: translate(395.7410888671875px, 149.60000610351562px) translate(-395.7410888671875px, -149.60000610351562px) translate(0px, 0px);}100%{-webkit-transform: translate(395.7410888671875px, 149.60000610351562px) translate(-395.7410888671875px, -149.60000610351562px) translate(20px, 0px);transform: translate(395.7410888671875px, 149.60000610351562px) translate(-395.7410888671875px, -149.60000610351562px) translate(20px, 0px);}}@-webkit-keyframes kf_el_oKQozif8EyM_an_3Fy75lRn4{0%{opacity: 1;}16.67%{opacity: 0;}100%{opacity: 0;}}@keyframes kf_el_oKQozif8EyM_an_3Fy75lRn4{0%{opacity: 1;}16.67%{opacity: 0;}100%{opacity: 0;}}@-webkit-keyframes kf_el_7pL0V88g5KC_an_jTxL4gjDb{0%{opacity: 0;}16.67%{opacity: 1;}38.89%{opacity: 0;}100%{opacity: 0;}}@keyframes kf_el_7pL0V88g5KC_an_jTxL4gjDb{0%{opacity: 0;}16.67%{opacity: 1;}38.89%{opacity: 0;}100%{opacity: 0;}}@-webkit-keyframes kf_el_se8yETlw0wk_an_qNieHpjp_{0%{opacity: 0;}38.89%{opacity: 0;}48.89%{opacity: 1;}66.67%{opacity: 0;}100%{opacity: 0;}}@keyframes kf_el_se8yETlw0wk_an_qNieHpjp_{0%{opacity: 0;}38.89%{opacity: 0;}48.89%{opacity: 1;}66.67%{opacity: 0;}100%{opacity: 0;}}#el_O8BjrrsjF *{-webkit-animation-duration: 3s;animation-duration: 3s;-webkit-animation-iteration-count: infinite;animation-iteration-count: infinite;-webkit-animation-timing-function: cubic-bezier(0, 0, 1, 1);animation-timing-function: cubic-bezier(0, 0, 1, 1);}#el_xnhi9ZqkOp{fill: none;stroke: #80973B;stroke-width: 1.0861;stroke-miterlimit: 10;}#el_adXS-CogNb{fill: #6D8418;}#el_doEnZKKKa9{fill: #74931D;}#el_kV66MHl69q{fill: #697C22;}#el_pXPUV6E1Fu{fill: #719119;}#el_yns7aixVr4{fill: #7E991C;}#el_QIS9yCD6P2{fill: #6C7C0E;}#el_794zo2d8-U{fill: #EBC478;}#el_KtT5s8noYc{fill: #EFD8B6;}#el_2iVr_z6AtD{fill: #070707;}#el_-dRkDLSDGA{fill: #070707;}#el_gEThEwtn8p{fill: #070707;}#el_cA6aN0zTD4{fill: #070707;}#el_NnSfxU6ADem{fill: #070707;}#el_vDsevwEurx2{fill: #070707;}#el_SZeLeae8XQv{fill: #070707;}#el_S43H6cvW4t-{fill: #070707;}#el_lpy4-X7Ep47{fill: #070707;}#el_piqPWZ4xfIx{fill: #070707;}#el_Msr5jmxeSKD{fill: #070707;}#el_DcI_d4NsozB{fill: #070707;}#el_haUH5JMK5zN{fill: #070707;}#el_T7RajS2mOEa{fill: #070707;}#el_CeYta4ZVPka{fill: #070707;}#el_0uWMRGGbiRD{fill: #070707;}#el_TzhZDx5M1dx{fill: #070707;}#el_o50IV57OBUw{fill: #070707;}#el_kDgVKr2dmVN{fill: #070707;}#el_J4q0pWjdOS5{fill: #070707;}#el_cFdq_Va5eXE{fill: #070707;}#el_MqFyFSWpUcm{fill: #070707;}#el_aGxIBmBYRvT{fill: #070707;}#el_E3HscNeE5SK{fill: #070707;}#el_K3uMOASoKAY{fill: #719119;}#el_g3QLVJlTPyT{fill: #80973B;}#el_O42OJ2z0Q4E{fill: #9EB247;}#el_zjPdMHWkjaV{fill: #93AA33;}#el_DAt_sxk-AgY{fill: #80973B;}#el_LHSNLs5s7b0{fill: #AC7631;}#el_HUK3CU-thww{fill: #C1B4BE;}#el_yzx2lHJ6jFG{fill: #E2D2DD;}#el_CX4339kOFJZ{fill: #374757;}#el_sMJveWZmfBE{fill: #AC7631;}#el_lBEH3HMDyi8{fill: #C1B4BE;}#el_M_DX--B_dWw{fill: #E2D2DD;}#el_feZFc4ebeTK{fill: #374757;}#el_0GxRP2G6GhS{fill: #9EB247;}#el_9tZ1HR0pVgF{fill: #93AA33;}#el_hHJQUQsGEiF{fill: #93AA33;}#el_NeHeHNtNw6y{fill: #80973B;}#el_gMFkMrfh5hs{fill: #80973B;}#el_nIOxzL6-8ec{fill: #91B23D;}#el_cEVX5pIXDR3{fill: #91B23D;}#el_of0G0HnYt8Z{fill: #91B23D;}#el_DJD7YMyE7uq{fill: #91B23D;}#el_WEVhC1bZhAM{fill: #91B23D;}#el_rbAy-7URUxQ{fill: #91B23D;}#el_2Yoa1guTw4b{fill: #91B23D;}#el_B61BkHg5_AK{fill: #91B23D;}#el_fQjN1o7V5j7{fill: #91B23D;}#el_L6MBUhII1Z3{fill: #91B23D;}#el_t8QYfcMpEvW{fill: #91B23D;}#el_VQOoKech1Og{fill: #91B23D;}#el_CwFoHNbvJq4{fill: #91B23D;}#el_V91cMSy0QIp{fill: #EBC478;}#el_uO2U2szsJXo{fill: #E7D0AA;}#el_YYI8rcibixD{fill: #E7D0AA;}#el_7fObZ7LKOLX{fill: #E7D0AA;}#el_fxHUYWQoY9J{fill: #E7D0AA;}#el_mK1QaqEPbmh{fill: #E7D0AA;}#el_ae464am13KW{fill: #E7D0AA;}#el_MEX9tnTvVu5{fill: #E7D0AA;}#el_bZ52FXu514Y{fill: #E7D0AA;}#el_NdVXBZ0I2aC{fill: #E7D0AA;}#el_c1wKr2jEF7O{fill: #E7D0AA;}#el_UeGIZYNykPj{fill: #E7D0AA;}#el_Y4JVzpXobqj{fill: #E7D0AA;}#el_2OLWed_KNKN{fill: #E7D0AA;}#el_JgU-024Spqb{fill: #E7D0AA;}#el__dJQGHmCZYW{fill: #E7D0AA;}#el_Cg-UatXuTGf{fill: #E7D0AA;}#el_1EnoU0SqnUy{fill: #E7D0AA;}#el_LphsRldsUr3{fill: #E7D0AA;}#el_VUXbg_ab-cr{fill: #E7D0AA;}#el_0zIGlL98W5p{fill: #E7D0AA;}#el_e_zrQjovMyQ{fill: #E7D0AA;}#el_XLJC7TXZBgk{fill: #E7D0AA;}#el_kDkQXmiLQ4M{fill: #E7D0AA;}#el_Y6PQdEr3zQM{fill: #E7D0AA;}#el_TlbZj4IoED0{fill: #E7D0AA;}#el_8bWtar2B2Az{fill: #E7D0AA;}#el__ftTnuBMb8U{fill: #E7D0AA;}#el_zjme1dh0i5o{fill: #E7D0AA;}#el_YqFTHaEmOZg{fill: #E7D0AA;}#el_rA3_2nWHGGv{fill: #131213;}#el_AoCM6TNLGTz{fill: #131213;}#el_9tLJA9C6thA{fill: #131213;}#el_yyDZ31ftdkf{fill: #131213;}#el__mLt8sEJJn1{fill: #131213;}#el__M4q82rHi-5{fill: #131213;}#el_vppXYTNhla3{fill: #131213;}#el_ZepK-pbdiLe{fill: #131213;}#el_jJZgQZx7TX8{fill: #131213;}#el_j2nYPw4tE1H{fill: #131213;}#el_gmrOr-TJzAd{fill: #131213;}#el_UmqcEDvedLv{fill: #131213;}#el_JphGPT15TRI{fill: #131213;}#el_LghDrQ17HbZ{fill: #131213;}#el_2F_Y4yd74si{fill: #131213;}#el_uOwOHsnhLZ-{fill: #131213;}#el_79O0k-PTtJ9{fill: #131213;}#el_IPtPwUYyRiq{fill: #131213;}#el_uTWOB2XZUww{fill: #131213;}#el_MNxnVGvEq8W{fill: #131213;}#el_5206KHI1olo{fill: #131213;}#el_R1-rJATUQuH{fill: #131213;}#el_sq4HWIIfuXg{fill: #131213;}#el_uxHwSVCoTyC{fill: #131213;}#el_jBztDxU2_4j{fill: #131213;}#el_lViw0wwLB5o{fill: #131213;}#el_Jwvrw9aG2PB{fill: #131213;}#el_VsadB5nVPbP{fill: #131213;}#el_E7KBJePdKzt{fill: #131213;}#el_4n6t9mJOhno{fill: #131213;}#el_caN-KrIs1WF{fill: #131213;}#el_thiD5qqWgik{fill: #131213;}#el_d1ikUgTzthV{fill: #131213;}#el_UE9z-MZigS4{fill: #131213;}#el_4PJTp1WzoN9{fill: #131213;}#el_EsrQ_0WkqDE{fill: #131213;}#el_ECwizGFXtg2{fill: #131213;}#el_Un9mKXqZCq-{fill: #131213;}#el_QlLSullund4{fill: #131213;}#el_QzeU8K1RCoR{fill: #131213;}#el_e5--PsfWW6B{fill: #131213;}#el_3e1lk3VXRPH{fill: #131213;}#el_XTLtzcaVErO{fill: #131213;}#el_JPOYUGX0Fw-{fill: #131213;}#el_5uK17hpbTG3{fill: #131213;}#el_6R5BvQtyVrn{fill: #131213;}#el_WlyQCV3VSk-{fill: #131213;}#el_z4LhrVkO7nk{fill: #131213;}#el_wLNETz-ZSmD{fill: #131213;}#el_596YHYr8oJj{fill: #131213;}#el_W6iYqAAEXJz{fill: #131213;}#el_W6Xnu_t0rL8{fill: #131213;}#el_8cC1fwkMTaC{fill: #131213;}#el_Isun3wIOukq{fill: #131213;}#el_T-j6e3hAYI6{fill: #E7D0AA;}#el_HdMGJj0H87T{fill: #E7D0AA;}#el_gxKyU924ie7{fill: #E7D0AA;}#el_KkWZQMocE_Y{fill: #E7D0AA;}#el_pgEABwD1s9i{fill: #E7D0AA;}#el_Px0GXt7Vkic{fill: #E7D0AA;}#el_fQYOm-XvI1Y{fill: #E7D0AA;}#el_8loXT9fMI7u{fill: #E7D0AA;}#el_hBtMbOSMHV7{fill: #E7D0AA;}#el_yv3BW7vg9Mj{fill: #AC7631;}#el_YDX2XHdbT1Q{fill: #C1B4BE;}#el_yDj8BL-uex1{fill: #E2D2DD;}#el_sNy4XMuFaCy{fill: #374757;}#el_se8yETlw0wk{-webkit-animation-fill-mode: backwards;animation-fill-mode: backwards;opacity: 0;-webkit-animation-name: kf_el_se8yETlw0wk_an_qNieHpjp_;animation-name: kf_el_se8yETlw0wk_an_qNieHpjp_;-webkit-animation-timing-function: cubic-bezier(0, 0, 1, 1);animation-timing-function: cubic-bezier(0, 0, 1, 1);}#el_7pL0V88g5KC{-webkit-animation-fill-mode: backwards;animation-fill-mode: backwards;opacity: 0;-webkit-animation-name: kf_el_7pL0V88g5KC_an_jTxL4gjDb;animation-name: kf_el_7pL0V88g5KC_an_jTxL4gjDb;-webkit-animation-timing-function: cubic-bezier(0, 0, 1, 1);animation-timing-function: cubic-bezier(0, 0, 1, 1);}#el_oKQozif8EyM{-webkit-animation-fill-mode: backwards;animation-fill-mode: backwards;opacity: 1;-webkit-animation-name: kf_el_oKQozif8EyM_an_3Fy75lRn4;animation-name: kf_el_oKQozif8EyM_an_3Fy75lRn4;-webkit-animation-timing-function: cubic-bezier(0, 0, 1, 1);animation-timing-function: cubic-bezier(0, 0, 1, 1);}#el_7pL0V88g5KC_an_QEKCwWtoo{-webkit-animation-fill-mode: backwards;animation-fill-mode: backwards;-webkit-transform: translate(395.7410888671875px, 149.60000610351562px) translate(-395.7410888671875px, -149.60000610351562px) translate(0px, 0px);transform: translate(395.7410888671875px, 149.60000610351562px) translate(-395.7410888671875px, -149.60000610351562px) translate(0px, 0px);-webkit-animation-name: kf_el_7pL0V88g5KC_an_QEKCwWtoo;animation-name: kf_el_7pL0V88g5KC_an_QEKCwWtoo;-webkit-animation-timing-function: cubic-bezier(0, 0, 1, 1);animation-timing-function: cubic-bezier(0, 0, 1, 1);}#el_se8yETlw0wk_an_QQgNTFACG{-webkit-animation-fill-mode: backwards;animation-fill-mode: backwards;-webkit-transform: translate(262.120849609375px, 173.90000915527344px) translate(-262.120849609375px, -173.90000915527344px) translate(0px, 0px);transform: translate(262.120849609375px, 173.90000915527344px) translate(-262.120849609375px, -173.90000915527344px) translate(0px, 0px);-webkit-animation-name: kf_el_se8yETlw0wk_an_QQgNTFACG;animation-name: kf_el_se8yETlw0wk_an_QQgNTFACG;-webkit-animation-timing-function: cubic-bezier(0, 0, 1, 1);animation-timing-function: cubic-bezier(0, 0, 1, 1);}#el_VjKtS7P4tS_an_43dFh2l0s{-webkit-animation-fill-mode: backwards;animation-fill-mode: backwards;-webkit-transform: translate(352.1660461425781px, 69.9000015258789px) translate(-352.1660461425781px, -69.9000015258789px) translate(0px, 0px);transform: translate(352.1660461425781px, 69.9000015258789px) translate(-352.1660461425781px, -69.9000015258789px) translate(0px, 0px);-webkit-animation-name: kf_el_VjKtS7P4tS_an_43dFh2l0s;animation-name: kf_el_VjKtS7P4tS_an_43dFh2l0s;-webkit-animation-timing-function: cubic-bezier(0, 0, 1, 1);animation-timing-function: cubic-bezier(0, 0, 1, 1);}</style>

<g id="el_VjKtS7P4tS_an_43dFh2l0s" data-animator-group="true" data-animator-type="0"><g id="el_VjKtS7P4tS">
	<g id="el_oUZHOu-2BY">
		<path d="M353.7,163.5" id="el_xnhi9ZqkOp"/>
		<polygon points="393.3,131.9 466.7,100.6 483.8,156.4 446.2,165.9 &#9;&#9;" id="el_adXS-CogNb"/>
		<polygon points="363.5,113.6 419.7,152.4 352.2,166.9 &#9;&#9;" id="el_doEnZKKKa9"/>
		<polygon points="478.7,171.1 413.2,199.9 398.4,135.4 &#9;&#9;" id="el_kV66MHl69q"/>
		<path d="M537.3,154.2l2.4,20.9c0.8,7.2-2.8,14.1-9.1,17.5L494.5,212l-42.6-58.5L537.3,154.2z" id="el_pXPUV6E1Fu"/>
		<polygon points="423.2,154.4 389.5,69.9 363.5,113.6 &#9;&#9;" id="el_yns7aixVr4"/>
		<polygon points="451.8,163.8 534.3,123 537.5,153.9 &#9;&#9;" id="el_QIS9yCD6P2"/>
		<polygon points="390.5,131.9 441.1,131.5 447.4,147.3 473.7,154.4 481.3,164.4 463.7,167.5 429,170.1 416.8,144.3 &#10;&#9;&#9;&#9;397.8,139.2 &#9;&#9;" id="el_794zo2d8-U"/>
		<polygon points="423.2,139.2 435.5,139.1 441.3,153.5 464.3,159.7 462.6,160.1 434.1,162.2 &#9;&#9;" id="el_KtT5s8noYc"/>
		<path d="M398.6,139.7c-0.2,0.7-2.2,0.9-3.7,0.6s-2.5-1.2-2.3-1.9c0.2-0.7,1.5-1.1,3-0.7&#10;&#9;&#9;&#9;C397,137.9,398.8,139,398.6,139.7z" id="el_2iVr_z6AtD"/>
		<path d="M393.6,132.6c-0.2,0.8-2.4,1-3.9,0.6c-1.5-0.3-2.6-1.3-2.4-2.1s1.6-1.1,3.2-0.8&#10;&#9;&#9;&#9;C392,130.7,393.8,131.8,393.6,132.6z" id="el_-dRkDLSDGA"/>
		<path d="M404,133.1c-0.4,0.7-2.6,0.4-4-0.3c-1.4-0.7-2.2-1.8-1.8-2.5s1.9-0.8,3.3-0.1&#10;&#9;&#9;&#9;C402.9,130.9,404.4,132.3,404,133.1z" id="el_gEThEwtn8p"/>
		<path d="M416.6,133.7c-0.6,0.6-2.6-0.1-3.8-1c-1.2-0.9-1.8-2.2-1.2-2.8s2-0.4,3.2,0.6&#10;&#9;&#9;&#9;C416,131.4,417.1,133.1,416.6,133.7z" id="el_cA6aN0zTD4"/>
		<path d="M419.7,152.4c0.1,0.8-1.8,1.5-3.3,1.7c-1.5,0.1-2.8-0.4-2.8-1.1s1.1-1.5,2.5-1.6&#10;&#9;&#9;&#9;C417.6,151.2,419.6,151.6,419.7,152.4z" id="el_NnSfxU6ADem"/>
		<path d="M461.1,167.6c0.8,0.2,1,2.1,0.6,3.4c-0.4,1.3-1.3,2.3-2.1,2.1c-0.8-0.2-1.1-1.4-0.8-2.8&#10;&#9;&#9;&#9;S460.3,167.5,461.1,167.6z" id="el_vDsevwEurx2"/>
		<path d="M464.6,165.1c0.7-0.3,2.2,1,2.8,2.3c0.6,1.3,0.6,2.5-0.2,2.9s-1.9-0.4-2.5-1.7&#10;&#9;&#9;&#9;C464,167.3,463.8,165.5,464.6,165.1z" id="el_SZeLeae8XQv"/>
		<path d="M471.5,166c0.7-0.3,2.2,1,2.8,2.3c0.6,1.3,0.6,2.5-0.2,2.9c-0.7,0.3-1.9-0.4-2.5-1.7&#10;&#9;&#9;&#9;C471,168.2,470.8,166.3,471.5,166z" id="el_S43H6cvW4t-"/>
		<path d="M473.6,163.9c0.3-0.7,2.4-0.6,3.7,0c1.4,0.5,2.2,1.6,1.9,2.3c-0.3,0.7-1.7,0.8-3.1,0.3&#10;&#9;&#9;&#9;C474.8,165.9,473.3,164.6,473.6,163.9z" id="el_lpy4-X7Ep47"/>
		<path d="M427,158.3c0,0.8-2,1.4-3.5,1.3s-2.7-0.7-2.7-1.4s1.2-1.4,2.8-1.3C425.1,156.8,427,157.5,427,158.3z" id="el_piqPWZ4xfIx"/>
		<path d="M429.9,164.4c0.5,0.7-0.8,2.3-2,3.2c-1.3,0.9-2.8,1-3.3,0.4s0.1-1.9,1.4-2.8&#10;&#9;&#9;&#9;C427.3,164.3,429.4,163.7,429.9,164.4z" id="el_Msr5jmxeSKD"/>
		<path d="M442.4,167.5c0.7,0.3,0.5,2-0.1,3.1c-0.6,1.1-1.6,1.8-2.2,1.5s-0.7-1.4-0.2-2.5&#10;&#9;&#9;&#9;C440.5,168.4,441.7,167.2,442.4,167.5z" id="el_DcI_d4NsozB"/>
		<path d="M435.6,167c0.8,0.1,1.1,2,0.9,3.4s-1.1,2.4-1.9,2.3c-0.8-0.1-1.3-1.4-1-2.7S434.8,166.9,435.6,167z" id="el_haUH5JMK5zN"/>
		<path d="M422.7,161.4c0.2,0.8-1.6,1.9-3.2,2.2c-1.5,0.3-3,0-3.2-0.8s0.9-1.7,2.4-2.1&#10;&#9;&#9;&#9;C420.4,160.4,422.5,160.6,422.7,161.4z" id="el_T7RajS2mOEa"/>
		<path d="M421.6,131c0.4-0.2,0.2-1.3-0.2-2.1c-0.4-0.7-1.2-1.1-1.6-0.9s-0.4,1,0,1.7&#10;&#9;&#9;&#9;C420.3,130.4,421.2,131.2,421.6,131z" id="el_CeYta4ZVPka"/>
		<path d="M443.8,142.4c0.6,0.5,2.4-0.3,3.5-1.3c1.1-1,1.5-2.2,0.9-2.8s-1.9-0.2-3,0.8&#10;&#9;&#9;&#9;C444.2,140.1,443.2,141.8,443.8,142.4z" id="el_0uWMRGGbiRD"/>
		<path d="M440.2,133.9c0.6,0.5,2.4-0.3,3.5-1.3c1.1-1,1.5-2.2,0.9-2.8c-0.6-0.5-1.9-0.2-3,0.8&#10;&#9;&#9;&#9;C440.5,131.6,439.6,133.3,440.2,133.9z" id="el_TzhZDx5M1dx"/>
		<path d="M436.3,131.9c0.8,0,1.4-1.9,1.3-3.3c-0.1-1.4-0.8-2.5-1.7-2.4c-0.8,0-1.4,1.2-1.3,2.6&#10;&#9;&#9;&#9;C434.7,130.2,435.5,132,436.3,131.9z" id="el_o50IV57OBUw"/>
		<path d="M428.3,132.6c0.8,0,1.4-1.9,1.3-3.3c-0.1-1.4-0.8-2.5-1.7-2.4s-1.4,1.2-1.3,2.6&#10;&#9;&#9;&#9;C426.7,130.9,427.5,132.7,428.3,132.6z" id="el_kDgVKr2dmVN"/>
		<path d="M460.1,148.9c0.9,0,1.6-1.9,1.6-3.4s-0.7-2.7-1.6-2.7c-0.9,0-1.6,1.2-1.6,2.7S459.3,148.9,460.1,148.9z" id="el_J4q0pWjdOS5"/>
		<path d="M470.1,156.6c0.6,0.3,2-0.8,2.6-1.9c0.6-1.1,0.7-2.2,0-2.5c-0.6-0.3-1.7,0.3-2.3,1.3&#10;&#9;&#9;&#9;C469.8,154.6,469.5,156.2,470.1,156.6z" id="el_cFdq_Va5eXE"/>
		<path d="M465.8,151.7c0.6,0.5,2.4-0.3,3.5-1.3c1.1-1,1.4-2.2,0.9-2.8c-0.6-0.5-1.9-0.2-3,0.8S465.2,151.1,465.8,151.7&#10;&#9;&#9;&#9;z" id="el_MqFyFSWpUcm"/>
		<path d="M453.4,145.2c0.8-0.3,0.7-2.3,0.1-3.7c-0.6-1.4-1.7-2.2-2.5-1.9c-0.8,0.3-1,1.7-0.4,3&#10;&#9;&#9;&#9;C451.1,144,452.6,145.5,453.4,145.2z" id="el_aGxIBmBYRvT"/>
		<path d="M416,147.1c-0.2,0.8-2.4,1-3.9,0.6c-1.5-0.3-2.6-1.3-2.4-2.1s1.6-1.1,3.2-0.8&#10;&#9;&#9;&#9;C414.4,145.2,416.2,146.3,416,147.1z" id="el_E3HscNeE5SK"/>
		<polygon points="539.8,177.7 533.5,201.6 518.1,181.4 &#9;&#9;" id="el_K3uMOASoKAY"/>
	</g>
	<g id="el_8fBfZCx5RD1">
		<path d="M375.1,166.5C375.1,166.5,375.1,166.5,375.1,166.5" id="el_g3QLVJlTPyT"/>
		<g id="el_pBKUgzj157G">
			<path d="M488.8,204l-8.3-13.1c-12.1,22.6-28.2,46.5-49.8,70.2c3.7,0.5,5.9,0.5,5.9,0.5c53.1-9.9,81.9-33.6,96.9-60&#10;&#9;&#9;&#9;&#9;l-12.6-23.8L488.8,204z" id="el_O42OJ2z0Q4E"/>
			<path d="M468.1,171.1l-50.8,19l-13.7-38.6l-7.9,2.4c-12.6,27.4-21.5,55.9-20.5,80.7c18.9,19.7,44.4,25,55.7,26.5&#10;&#9;&#9;&#9;&#9;c21.6-23.7,37.7-47.6,49.8-70.2L468.1,171.1z" id="el_zjPdMHWkjaV"/>
			<path d="M395.7,153.8l-43.5,13.1c-0.7,32.4,9.5,53.7,22.9,67.7C374.1,209.8,383.1,181.2,395.7,153.8z" id="el_DAt_sxk-AgY"/>
		</g>
	</g>
</g></g>
<g id="el_7pL0V88g5KC_an_QEKCwWtoo" data-animator-group="true" data-animator-type="0"><g id="el_7pL0V88g5KC">
	<path d="M436.4,348.6" id="el_LHSNLs5s7b0"/>
	<g id="el_LZhSwjoDacN">
		<g id="el_jVObrEmIfSw">
			<path d="M416.4,381c-2.6,0.1-34.7-207.1-13.4-231.4l22.9,46.6l51.3,175.2L416.4,381z" id="el_HUK3CU-thww"/>
			<path d="M419.3,380.5c0,0-34.1-205.8-15.4-230l30.4,62l49.7,164.4L419.3,380.5z" id="el_yzx2lHJ6jFG"/>
		</g>
		<path d="M416.3,380.3c0,0,13.2,140.5,19.6,144.1s10.4,31.1,40.5,2.6c10.7-14.5,5.8-18.3,5.8-18.3&#10;&#9;&#9;&#9;s-14.9-1.8-15.8-15.2s0.1-52.1,0.1-52.1s-4-28.3-7.1-37.6s-1.9-21.6,0.2-25.6C461.7,374.3,416.3,380.3,416.3,380.3z" id="el_CX4339kOFJZ"/>
	</g>
</g></g>
<g id="el_se8yETlw0wk_an_QQgNTFACG" data-animator-group="true" data-animator-type="0"><g id="el_se8yETlw0wk">
	<path d="M391.5,324.2" id="el_sMJveWZmfBE"/>
	<g id="el_TcT18MjeiSr">
		<g id="el_SbcGQ2DKYDk">
			<path d="M391.1,362.2c2.1,1.5,140.1-156.4,135.1-188.3L482,201L344.9,321.5L391.1,362.2z" id="el_lBEH3HMDyi8"/>
			<path d="M389,360.3c0,0,138.9-155.7,136.1-186.1l-58.8,36.1l-130,112.3L389,360.3z" id="el_M_DX--B_dWw"/>
		</g>
		<path d="M391.6,361.7c0,0-86.4,111.7-93.7,111.3c-7.3-0.4-25.4,20.7-35.6-19.5c-1.3-18,4.9-18.6,4.9-18.6&#10;&#9;&#9;&#9;s13.5,6.4,21.5-4.4c7.9-10.8,27.7-44.1,27.7-44.1s18.5-21.8,26.1-27.9c7.5-6.2,13.1-17.2,13.5-21.7S391.6,361.7,391.6,361.7z" id="el_feZFc4ebeTK"/>
	</g>
</g></g>
<g id="el_5u9xB545-yG">
	<path d="M543.5,93.1c0.5,4.1,0.4,8.1-0.6,12.1c-3.8,15.5-18.9,26.4-39,30.5c-5.2,15.7-12.4,33.3-22.3,51.8l8.3,13.1&#10;&#9;&#9;l32.1-26.2l12.6,23.8C560.1,153.1,545.5,99.9,543.5,93.1z" id="el_0GxRP2G6GhS"/>
	<path d="M457.3,134.2c-16.4-4.1-30.8-11.3-41.6-20.2c-6.7,11.6-13.3,23.9-19.1,36.5l7.9-2.4l13.7,38.6l50.8-19&#10;&#9;&#9;l12.5,19.8c9.9-18.5,17.1-36.1,22.3-51.8C490,138.6,473.9,138.3,457.3,134.2z" id="el_9tZ1HR0pVgF"/>
	<path d="M402.6,54.8C402.6,54.8,402.6,54.8,402.6,54.8c-2.2,1.9-4.5,4-6.8,6.4C398.1,58.8,400.3,56.7,402.6,54.8z" id="el_hHJQUQsGEiF"/>
	<path d="M357.5,127.9c4.2-19.7,20.9-48.8,38.3-66.7C378.5,79.1,361.7,108.2,357.5,127.9c-2.9,13.2-4.2,25.1-4.5,35.7&#10;&#9;&#9;l0.1,0C353.4,152.9,354.7,141.1,357.5,127.9z" id="el_NeHeHNtNw6y"/>
	<path d="M353.1,163.6l43.5-13.1c5.8-12.6,12.4-24.9,19.1-36.5c-16-13.1-24.3-29.8-20.5-45.4c1.3-5.2,3.8-9.8,7.4-13.8&#10;&#9;&#9;c-2.2,1.9-4.5,4.1-6.8,6.4c-17.3,18-34,47-38.3,66.7C354.7,141.1,353.4,152.9,353.1,163.6z" id="el_gMFkMrfh5hs"/>
	<path d="M423.5,44.9c1.2,0.1,2.4,0.2,3.7,0.4c15-4.9,33.9-5.2,52.3-0.6c18.8,4.7,35.2,13.6,46.2,25.3&#10;&#9;&#9;c6,6.3,9.9,12.9,11.7,19.5c3.7,1.8,5.8,2.9,5.8,2.9s0.1,0.3,0.2,0.7c-3-22.5-28.2-44.9-62.7-53.5c-32.7-8.1-63.8-1.4-78.2,15.1&#10;&#9;&#9;C410.1,48.4,417.4,44.6,423.5,44.9z" id="el_nIOxzL6-8ec"/>
	<path d="M537.5,89.5c1.4,4.9,1.5,9.8,0.3,14.5c-2.6,10.4-11.5,18.9-25,23.9c-2.3,0.8-4.6,1.5-7.1,2.1&#10;&#9;&#9;c-0.6,1.9-1.2,3.8-1.8,5.8c20.1-4.2,35.2-15,39-30.5c1-4,1.2-8.1,0.6-12.1c-0.1-0.5-0.2-0.7-0.2-0.7S541.1,91.3,537.5,89.5z" id="el_cEVX5pIXDR3"/>
	<path d="M423.5,45c1.1,0.1,2.4,0.2,3.7,0.4c0,0,0.1,0,0.1,0C425.9,45.2,424.7,45,423.5,45c-6.1-0.4-13.4,3.4-20.9,9.7&#10;&#9;&#9;c0,0,0,0,0,0C410,48.4,417.3,44.6,423.5,45z" id="el_of0G0HnYt8Z"/>
	<path d="M458.6,129.2c-15.6-3.9-29.6-10.7-40.2-19.7c-0.9,1.5-1.8,3-2.7,4.5c10.8,8.9,25.2,16.1,41.6,20.2&#10;&#9;&#9;c16.6,4.1,32.7,4.4,46.5,1.6c0.6-2,1.3-3.9,1.8-5.8C491.6,133.5,474.9,133.2,458.6,129.2z" id="el_DJD7YMyE7uq"/>
	<path d="M412.3,103.8c-10.5-11.1-14.7-23.1-12.1-34c2.6-10.4,11.5-18.9,25-23.9c0.6-0.2,1.2-0.4,1.8-0.6&#10;&#9;&#9;c-1.3-0.2-2.5-0.3-3.7-0.4c-6.2-0.4-13.4,3.4-20.9,9.8c-3.5,4.1-6.1,8.7-7.4,13.8c-3.9,15.6,4.5,32.3,20.5,45.4&#10;&#9;&#9;c0.9-1.5,1.8-3,2.7-4.5C416.2,107.7,414.2,105.8,412.3,103.8z" id="el_WEVhC1bZhAM"/>
	<path d="M449.6,49.6c0.9,0.8,1.7,1.7,2.5,2.6c4.5,1.6,9.1,3.3,13.9,5.2c-0.1-0.4-0.2-0.9-0.2-1.3&#10;&#9;&#9;c-0.3-1.8-0.5-3.6-0.6-5.5c-0.1-1.8-0.1-3.7,0.1-5.6c0.8,1.7,1.3,3.5,1.8,5.3c0.5,1.8,0.8,3.6,1.1,5.4c0.1,0.9,0.3,1.8,0.4,2.7&#10;&#9;&#9;c3.6,1.4,7.3,2.9,10.9,4.5c0,0,0-0.1,0-0.1c0.4-1.4,0.8-2.8,1.4-4.1c0.3-0.8,0.6-1.5,1-2.2c-0.3,0.1-0.7-0.1-0.9-1&#10;&#9;&#9;c0,0-0.1-1.2,0.9-2.3c0,0,0.5-0.5,0.9-0.2c0,0,0.3,0.4,0.4,1.2c0.6-1.1,1.3-2.1,2.2-3.1c-0.1,1.5-0.4,3-0.8,4.4&#10;&#9;&#9;c-0.4,1.4-0.8,2.8-1.4,4.1c-0.6,1.3-1.2,2.7-1.9,3.9c0,0-0.1,0.1-0.1,0.1c1.9,0.8,3.7,1.6,5.6,2.4c0.7-0.8,1.4-1.6,2.2-2.4&#10;&#9;&#9;c1.2-1.2,2.5-2.4,3.8-3.5c1.3-1.1,2.7-2.2,4.3-3.1c-0.8,1.6-1.9,3-2.9,4.4c-1.1,1.4-2.2,2.7-3.4,3.9c-0.5,0.6-1.1,1.1-1.7,1.6&#10;&#9;&#9;c1.9,0.8,3.8,1.7,5.7,2.5c0.1,0,0.1-0.1,0.2-0.1c1.5-0.9,3-1.7,4.6-2.5c1.6-0.8,3.1-1.5,4.8-2c-1.3,1.2-2.7,2.3-4.1,3.3&#10;&#9;&#9;c-1.1,0.8-2.3,1.5-3.4,2.3c7.1,3.2,13.8,6.3,19.9,9.1c8.8,4.1,16.2,7.7,20.9,10.1c-1.8-6.5-5.7-13.2-11.7-19.5&#10;&#9;&#9;c-11.1-11.7-27.5-20.7-46.2-25.3c-18.4-4.6-37.3-4.3-52.3,0.6c6.2,0.9,14.2,3.2,23,6.2C450,50.9,449.8,50.2,449.6,49.6z&#10;&#9;&#9; M496.3,68.3c0,0-1,1.4-1.7-0.5c0,0-0.3-1.3,0.8-2.5c0,0,0.5-0.6,0.9-0.3C496.3,64.9,497.5,66.2,496.3,68.3z M472.3,54.9&#10;&#9;&#9;c0,0,0.5-0.6,0.9-0.3c0,0,1.2,1.3,0,3.4c0,0-1,1.4-1.7-0.5C471.6,57.4,471.3,56.2,472.3,54.9z" id="el_rbAy-7URUxQ"/>
	<path d="M513.4,99.6c1.4,0.8,2.7,1.7,4.1,2.7c-1.5-0.3-2.9-0.8-4.3-1.3c-1.7,8.4-4.1,18.2-7.4,28.9&#10;&#9;&#9;c2.5-0.6,4.8-1.3,7.1-2.1c13.6-5,22.5-13.4,25-23.9c1.2-4.7,1-9.6-0.3-14.5c-4.8-2.3-12.1-5.9-20.9-10.1&#10;&#9;&#9;C515.9,84.7,515,91.5,513.4,99.6z" id="el_2Yoa1guTw4b"/>
	<path d="M510.4,100.1c-2.3-0.9-4.5-1.8-6.7-2.8c-2.2-1-4.4-2.1-6.5-3.3c-1.1-0.6-2.2-1.2-3.2-1.9&#10;&#9;&#9;c-0.2,0.1-0.3,0.1-0.6,0.2c0,0-1-0.1-1.8-1.2c0,0-0.3-0.4-0.1-0.7c-0.2-0.1-0.3-0.2-0.5-0.3c0.2,0.1,0.4,0.1,0.7,0.2&#10;&#9;&#9;c0.3-0.1,1.3-0.3,2.4,0.7c1.4,0.4,2.7,0.9,4,1.4c1.9,0.7,3.8,1.5,5.6,2.3c-0.1-0.1-0.2-0.2-0.3-0.3c0,0-0.4-0.6-0.1-0.9&#10;&#9;&#9;c0,0,1.3-0.8,2.9,0.5c0,0,1,1.1-0.7,1.4c0,0,0,0-0.1,0c2,0.9,4,2,6,3c0.7,0.4,1.5,0.8,2.2,1.3c1.6-8.1,2.6-15,3.2-20.2&#10;&#9;&#9;c-6.1-2.9-12.8-6-19.9-9.1c-0.3,0.2-0.6,0.4-0.9,0.6c-1.5,0.9-3,1.7-4.6,2.5c-1.6,0.8-3.1,1.5-4.8,2c1.3-1.2,2.7-2.3,4.1-3.3&#10;&#9;&#9;c1.4-1,2.8-1.9,4.2-2.7c-1.9-0.8-3.8-1.7-5.7-2.5c-0.3,0.3-0.7,0.6-1.1,0.9c0,0.5-0.2,1-0.5,1.6c0,0-0.8,1-1.4,0&#10;&#9;&#9;c-1.1,0.9-2.2,1.7-3.5,2.4c0.8-1.6,1.9-3,2.9-4.4c0.4-0.5,0.8-1,1.3-1.5c-1.9-0.8-3.7-1.6-5.6-2.4c-0.7,1.2-1.5,2.4-2.4,3.5&#10;&#9;&#9;c0.1-1.5,0.4-2.9,0.7-4.3c-3.7-1.5-7.3-3-10.9-4.5c0.1,0.9,0.2,1.9,0.2,2.8c0.1,1.8,0.1,3.7-0.1,5.6c-0.8-1.7-1.3-3.5-1.8-5.3&#10;&#9;&#9;c-0.4-1.4-0.7-2.7-0.9-4.1c-4.8-1.9-9.4-3.6-13.9-5.2c0,0,0.1,0.1,0.1,0.1c1.2,0.4,2.5,0.9,3.8,1.3c-0.4,0.6-0.9,1.2-1.3,1.8&#10;&#9;&#9;c0.6,0.8,1.2,1.7,1.7,2.5c0.9,1.5,1.8,3,2.6,4.6c0.8,1.6,1.5,3.2,2,5c-1.4-1.2-2.5-2.6-3.6-4c-1.1-1.4-2.1-2.9-3.1-4.4&#10;&#9;&#9;c-0.4-0.6-0.8-1.2-1.1-1.9c-1,1.3-2,2.7-3,4.1c0.7,1.2,1.5,2.5,2.1,3.8c0.1,0.3,0.3,0.5,0.4,0.8c0-0.1,0-0.2,0.1-0.3&#10;&#9;&#9;c0,0,0.3-0.7,0.8-0.6c0,0,1.5,0.9,1,3.2c0,0-0.2,0.6-0.6,0.7c0.1,0.4,0.3,0.8,0.4,1.1c-1.4-1.2-2.5-2.6-3.6-4&#10;&#9;&#9;c-0.7-0.9-1.4-1.8-2-2.7c-1.4,1.9-2.8,3.9-4.2,6c0.9,1.1,1.7,2.2,2.4,3.5c-1.2-0.6-2.3-1.4-3.3-2.1c-0.8,1.1-1.5,2.2-2.3,3.4&#10;&#9;&#9;c0,0.1,0,0.2,0,0.3c0,0-0.2,0.6-0.7,0.7c-0.2,0.3-0.4,0.6-0.6,0.9c1.5,0.4,3.1,0.9,4.6,1.5c-1.9,0.1-3.7,0-5.5-0.1&#10;&#9;&#9;c-1.2,1.8-2.5,3.7-3.8,5.6c1.2,0,2.5,0.1,3.7,0.2c1.7,0.2,3.5,0.4,5.2,0.9c-1.7,0.5-3.5,0.8-5.2,1c-1.2,0.1-2.4,0.2-3.6,0.3&#10;&#9;&#9;c0,0.2-0.1,0.6-0.3,1c0,0-0.8,1-2.5,1c0,0-0.1,0-0.2,0c-4.5,6.9-9.2,14.3-13.8,22.1c10.6,8.9,24.6,15.8,40.2,19.7&#10;&#9;&#9;c16.3,4.1,33.1,4.3,47.1,0.8c3.3-10.7,5.7-20.5,7.4-28.9C512.2,100.8,511.3,100.4,510.4,100.1z M491.4,98.8c0,0,1.3-0.8,2.9,0.5&#10;&#9;&#9;c0,0,1,1.1-0.7,1.4c0,0-1.1,0-2.1-1.1C491.5,99.7,491.1,99.1,491.4,98.8z M501.7,90.2c0,0-1.1,0-2.1-1.1c0,0-0.4-0.6-0.1-0.9&#10;&#9;&#9;c0,0,1.3-0.8,2.9,0.5C502.5,88.8,503.5,89.9,501.7,90.2z M503.9,80.2c0,0,1.3-0.8,2.9,0.5c0,0,1,1.1-0.7,1.4c0,0-1.1,0-2.1-1.1&#10;&#9;&#9;C504.1,81.1,503.6,80.5,503.9,80.2z M495.9,84c1.7-0.2,3.5-0.2,5.2-0.3c1.7,0,3.5,0,5.2,0.1c1.7,0.1,3.5,0.3,5.2,0.6&#10;&#9;&#9;c-1.7,0.4-3.5,0.6-5.2,0.8c-1.7,0.2-3.5,0.2-5.2,0.3c-1.7,0-3.5,0-5.2-0.1c-1.7-0.1-3.5-0.3-5.2-0.6&#10;&#9;&#9;C492.4,84.4,494.1,84.2,495.9,84z M480.7,66.9c0,0,0.5-0.6,0.9-0.3c0,0,1.2,1.3,0,3.4c0,0-1,1.4-1.7-0.5&#10;&#9;&#9;C479.9,69.4,479.7,68.2,480.7,66.9z M471.8,68c0,0,0.5-0.6,0.9-0.3c0,0,1.2,1.3,0,3.4c0,0-1,1.4-1.7-0.5&#10;&#9;&#9;C471,70.6,470.8,69.3,471.8,68z M460.8,64.6c0,0-0.6-1.1,0-2.7c0,0,0.3-0.7,0.8-0.6c0,0,1.5,0.9,1,3.2&#10;&#9;&#9;C462.6,64.6,462.1,66.2,460.8,64.6z M447.3,68c0,0,0.3-0.7,0.8-0.6c0,0,1.5,0.9,1,3.2c0,0-0.6,1.6-1.8,0&#10;&#9;&#9;C447.4,70.7,446.8,69.6,447.3,68z M440.7,90.9c0,0,1.7-0.1,0.7,1.7c0,0-0.8,1-2.5,1c0,0-0.8,0-0.8-0.5&#10;&#9;&#9;C438.1,93,438.3,91.3,440.7,90.9z M433.9,104.8c0,0-0.8,0.8-2.3,0.7c0,0-0.7-0.1-0.7-0.5c0,0,0.4-1.6,2.6-1.7&#10;&#9;&#9;C433.4,103.3,435,103.3,433.9,104.8z M431.5,98.3c-1.8,0.4-3.6,0.8-5.5,1c1.6-0.9,3.3-1.7,5-2.4c1.7-0.7,3.4-1.3,5.2-1.9&#10;&#9;&#9;c1.8-0.5,3.5-1.1,5.3-1.5c1.8-0.4,3.6-0.8,5.5-1c-1.6,0.9-3.3,1.7-5,2.4c-1.7,0.7-3.4,1.3-5.2,1.9&#10;&#9;&#9;C435.1,97.3,433.3,97.8,431.5,98.3z M447.3,107.3c-1.5,0.9-3,1.7-4.6,2.4c-0.3,0.2-0.7,0.3-1,0.5c-0.1,0.2-0.1,0.4-0.3,0.6&#10;&#9;&#9;c0,0-0.8,1-2.5,1c0,0-0.6,0-0.8-0.3c-0.1,0-0.3,0.1-0.4,0.1c0.1-0.1,0.3-0.3,0.4-0.4c0.1-0.3,0.5-1.5,2.1-1.9&#10;&#9;&#9;c0.5-0.4,1-0.8,1.5-1.1c1.4-1.1,2.8-2,4.3-2.9c0.9-0.5,1.8-1,2.8-1.5c-0.1-0.1-0.2-0.2-0.2-0.3c0,0,0.3-1.7,2.6-2.1&#10;&#9;&#9;c0,0,1.1,0,1,0.9c1.1-0.4,2.2-0.8,3.4-1.2c-1.2,1.3-2.6,2.4-4,3.5C450.2,105.5,448.8,106.4,447.3,107.3z M460.1,106.5&#10;&#9;&#9;c-0.7,1.4-1.4,2.7-2.1,4.1c0.3,0.2,0.6,0.6,0,1.5c0,0-0.4,0.5-1.3,0.8c-0.5,0.9-1.1,1.8-1.6,2.7c-0.9,1.5-1.9,2.9-3,4.3&#10;&#9;&#9;c0.6-1.6,1.3-3.2,2.1-4.8c0.3-0.7,0.7-1.4,1-2.1c-0.2-0.1-0.4-0.2-0.4-0.4c0,0,0.2-1.2,1.6-1.8c0.1-0.1,0.1-0.2,0.2-0.3&#10;&#9;&#9;c0.9-1.5,1.7-3,2.7-4.5c0.9-1.5,1.9-2.9,3-4.3C461.6,103.4,460.8,105,460.1,106.5z M474,115.1c0,0-0.2,0.8-0.7,0.7c0,0,0,0,0,0&#10;&#9;&#9;c0,0.8,0,1.6-0.1,2.5c-0.1,1.7-0.2,3.5-0.5,5.2c-0.3-1.7-0.5-3.5-0.6-5.2c-0.1-1.3-0.1-2.6-0.2-3.9c-0.2-0.4-0.3-0.9-0.3-1.5&#10;&#9;&#9;c0,0,0.1-0.3,0.2-0.6c0-1.5,0-2.9,0.1-4.4c0.1-1.7,0.2-3.5,0.5-5.2c0.3,1.7,0.5,3.5,0.6,5.2c0.1,1.5,0.2,3,0.2,4.5&#10;&#9;&#9;c0.1,0,0.1,0.1,0.2,0.1C473.4,112.5,474.3,113.5,474,115.1z M481.9,120.5c0,0-0.2,0.8-0.7,0.7c0,0-1.7-0.6-1.6-2.9&#10;&#9;&#9;c0,0,0.2-1.7,1.8-0.4C481.4,117.9,482.2,118.9,481.9,120.5z M481.5,98.6c-4.3,1.6-10,1.7-15.4,0.4c-5.3-1.3-10-3.9-13.2-7.2&#10;&#9;&#9;c-3-3.1-4.2-6.6-3.4-9.7c0.7-3,3.3-5.4,7.1-6.8c4.3-1.6,10-1.7,15.4-0.4c5.3,1.3,10,3.9,13.2,7.2c3,3.1,4.2,6.6,3.4,9.7&#10;&#9;&#9;C487.9,94.8,485.4,97.2,481.5,98.6z M490.9,117.4c-1.1-1.4-2-2.8-2.9-4.3c-0.7-1.2-1.3-2.4-1.9-3.6c0,0,0-0.1-0.1-0.2&#10;&#9;&#9;c-0.1-0.3-0.3-0.5-0.4-0.8c-0.7-1.6-1.4-3.2-1.8-4.9c1.3,1.2,2.4,2.6,3.5,4c1.1,1.4,2,2.8,2.9,4.3c0.9,1.5,1.7,3,2.4,4.6&#10;&#9;&#9;c0.7,1.6,1.4,3.2,1.8,4.9C493.1,120.2,491.9,118.8,490.9,117.4z M494.9,113.4c0,0-1-0.5-1.3-2c0,0-0.1-0.7,0.3-0.8&#10;&#9;&#9;c0,0,1.5-0.1,2.3,1.9C496.3,112.5,496.6,114,494.9,113.4z M498.1,111c-1.3-1.1-2.6-2.3-3.8-3.5c-1.1-1.1-2.2-2.2-3.3-3.4&#10;&#9;&#9;c-0.4-0.1-0.9-0.4-1.3-1c0,0-0.2-0.3-0.2-0.6c-0.8-0.9-1.5-1.8-2.2-2.7c1.1,0.7,2.1,1.5,3,2.4c0.5,0,1.2,0.1,1.9,0.9&#10;&#9;&#9;c0,0,0.4,0.5,0.1,0.9c1,0.9,1.9,1.7,2.9,2.6c1.2,1.2,2.5,2.4,3.6,3.7c1.2,1.3,2.3,2.6,3.3,4C500.7,113.2,499.4,112.1,498.1,111z&#10;&#9;&#9; M504.9,103.3c0,0-1.1,0-2.1-1.1c0,0-0.4-0.6-0.1-0.9c0,0,1.3-0.8,2.9,0.5C505.6,101.9,506.7,103,504.9,103.3z" id="el_B61BkHg5_AK"/>
	<path d="M450.2,51.5c-8.8-3-16.8-5.3-23-6.2c0,0-0.1,0-0.1,0C433.4,46.3,441.4,48.6,450.2,51.5&#10;&#9;&#9;C450.3,51.6,450.3,51.6,450.2,51.5z" id="el_fQjN1o7V5j7"/>
	<path d="M454.6,55.4c0.5-0.6,0.9-1.2,1.3-1.8c-1.3-0.5-2.5-0.9-3.8-1.3c0.4,0.4,0.7,0.9,1.1,1.3&#10;&#9;&#9;C453.7,54.2,454.1,54.8,454.6,55.4z" id="el_L6MBUhII1Z3"/>
	<path d="M400.3,69.9c-2.7,10.8,1.6,22.9,12.1,34c1.9,2,3.9,3.9,6,5.7c4.6-7.8,9.3-15.2,13.8-22.1&#10;&#9;&#9;c-0.2,0-0.6-0.2-0.6-0.5c0,0,0.1-0.8,0.9-1.4c-1.4,0-2.7-0.1-4.1-0.2c-1.7-0.2-3.5-0.4-5.2-0.9c1.7-0.5,3.5-0.8,5.2-1&#10;&#9;&#9;c1.7-0.2,3.5-0.3,5.2-0.3c0.5,0,1,0,1.5,0c1.3-1.9,2.5-3.8,3.8-5.6c-0.5,0-1.1-0.1-1.6-0.1c-2.3-0.2-4.7-0.5-7-0.9&#10;&#9;&#9;c-2.3-0.4-4.6-0.9-6.9-1.4c-2.3-0.6-4.6-1.2-6.8-2.1c2.4-0.1,4.8,0,7.1,0.2c2.3,0.2,4.7,0.5,7,0.9c2.3,0.4,4.6,0.9,6.9,1.4&#10;&#9;&#9;c0.7,0.2,1.5,0.4,2.2,0.6c0.2-0.3,0.4-0.6,0.6-0.9c-0.3,0.1-0.6-0.1-1.1-0.7c0,0-0.6-1.1,0-2.7c0,0,0.3-0.7,0.8-0.6&#10;&#9;&#9;c0,0,1.4,0.8,1.1,2.9c0.8-1.1,1.6-2.3,2.3-3.4c-0.3-0.3-0.7-0.5-1-0.8c-1.4-1.1-2.7-2.2-3.9-3.4c-1.2-1.2-2.4-2.5-3.5-3.8&#10;&#9;&#9;c-0.7-0.8-1.4-1.7-2-2.6c0,0.4,0,0.9-0.1,1.4c0,0-0.6,1.4-1.6-0.1c0,0-0.5-1.1,0.2-2.4c0,0,0.3-0.4,0.6-0.5c0,0,0-0.1-0.1-0.1&#10;&#9;&#9;c0.1,0,0.1,0.1,0.2,0.1c0,0,0,0,0.1,0c0,0,0,0,0.1,0.1c1.1,0.6,2.2,1.3,3.2,2.1c0-0.4,0-1,0.2-1.6c0,0,0.3-0.7,0.8-0.6&#10;&#9;&#9;c0,0,1.5,0.9,1,3.2c0,0-0.1,0.2-0.2,0.4c1,0.8,2,1.7,2.9,2.6c1.2,1.2,2.4,2.5,3.5,3.8c0.2,0.3,0.4,0.5,0.7,0.8&#10;&#9;&#9;c1.5-2.1,2.9-4.1,4.2-6c-0.4-0.5-0.7-1.1-1.1-1.6c-0.9-1.4-1.7-2.8-2.4-4.2c-0.3,0.1-0.7,0.1-1.1-0.7c0,0-0.3-0.8,0-1.8&#10;&#9;&#9;c-0.4-0.9-0.8-1.9-1.1-2.9c0.7,0.6,1.3,1.2,1.8,1.8c0.1,0,0.1,0,0.2,0c0,0,0.5,0.3,0.7,1c0.3,0.4,0.6,0.7,0.9,1.1&#10;&#9;&#9;c1.1,1.4,2.1,2.9,3.1,4.4c0.2,0.3,0.3,0.6,0.5,0.9c1-1.4,2-2.8,3-4.1c-0.5-0.9-1-1.8-1.5-2.8c-0.5-1-0.9-2-1.3-3&#10;&#9;&#9;c-8.9-3-16.9-5.3-23.1-6.2c-0.6,0.2-1.2,0.4-1.8,0.6C411.8,51,402.9,59.4,400.3,69.9z M427.6,63c0,0,0.3-0.7,0.8-0.6&#10;&#9;&#9;c0,0,1.5,0.9,1,3.2c0,0-0.6,1.6-1.8,0C427.6,65.6,427,64.5,427.6,63z" id="el_t8QYfcMpEvW"/>
	<path d="M502.7,101.4c-0.3,0.3,0.1,0.9,0.1,0.9c0.9,1.1,2.1,1.1,2.1,1.1c1.8-0.3,0.7-1.4,0.7-1.4&#10;&#9;&#9;C504,100.6,502.7,101.4,502.7,101.4z" id="el_VQOoKech1Og"/>
	<path d="M494,110.6c-0.4,0.1-0.3,0.8-0.3,0.8c0.3,1.4,1.3,2,1.3,2c1.7,0.6,1.3-0.9,1.3-0.9&#10;&#9;&#9;C495.5,110.5,494,110.6,494,110.6z" id="el_CwFoHNbvJq4"/>
	<path d="M488.6,91.8c0.8-3.1-0.5-6.5-3.4-9.7c-3.1-3.3-7.8-5.9-13.2-7.2c-5.5-1.4-11.1-1.2-15.4,0.4&#10;&#9;&#9;c-3.9,1.4-6.4,3.8-7.1,6.8c-0.8,3.1,0.5,6.5,3.4,9.7c3.1,3.3,7.8,5.9,13.2,7.2c5.5,1.4,11.1,1.2,15.4-0.4&#10;&#9;&#9;C485.4,97.2,487.9,94.8,488.6,91.8z" id="el_V91cMSy0QIp"/>
	<path d="M501.1,85.6c1.7,0,3.5-0.1,5.2-0.3c1.7-0.2,3.5-0.4,5.2-0.8c-1.7-0.4-3.5-0.5-5.2-0.6&#10;&#9;&#9;c-1.7-0.1-3.5-0.1-5.2-0.1c-1.7,0-3.5,0.1-5.2,0.3c-1.7,0.2-3.5,0.4-5.2,0.8c1.7,0.4,3.5,0.5,5.2,0.6&#10;&#9;&#9;C497.6,85.6,499.3,85.6,501.1,85.6z" id="el_uO2U2szsJXo"/>
	<path d="M500.1,68c1.4-1,2.8-2.1,4.1-3.3c-1.7,0.6-3.3,1.3-4.8,2c-1.6,0.8-3.1,1.6-4.6,2.5c-0.1,0-0.1,0.1-0.2,0.1&#10;&#9;&#9;c0.7,0.3,1.4,0.6,2,0.9C497.8,69.6,499,68.8,500.1,68z" id="el_YYI8rcibixD"/>
	<path d="M486.4,75.4c1.7-0.6,3.3-1.3,4.8-2c1.6-0.8,3.1-1.6,4.6-2.5c0.3-0.2,0.6-0.4,0.9-0.6c-0.7-0.3-1.3-0.6-2-0.9&#10;&#9;&#9;c-1.4,0.9-2.8,1.8-4.2,2.7C489,73.1,487.7,74.2,486.4,75.4z" id="el_7fObZ7LKOLX"/>
	<path d="M487.4,66.1c0,0,0.1,0.1,0.2,0.2c0.5,0.2,0.9,0.4,1.4,0.6c0.6-0.5,1.1-1.1,1.7-1.6c1.2-1.2,2.4-2.5,3.4-3.9&#10;&#9;&#9;c1.1-1.4,2.1-2.8,2.9-4.4c-1.6,0.9-3,1.9-4.3,3.1c-1.3,1.1-2.6,2.3-3.8,3.5c-0.7,0.8-1.5,1.6-2.2,2.4c0.1,0,0.1,0.1,0.2,0.1&#10;&#9;&#9;C487.1,66,487.3,66,487.4,66.1z" id="el_fxHUYWQoY9J"/>
	<path d="M482.5,71.8c1.2-0.7,2.4-1.5,3.5-2.4c-0.1-0.1-0.2-0.3-0.3-0.6c0,0-0.3-1.3,0.8-2.5c0,0,0.2-0.2,0.5-0.3&#10;&#9;&#9;c-0.1,0-0.1-0.1-0.2-0.1c-0.4,0.5-0.9,1-1.3,1.5C484.4,68.8,483.4,70.3,482.5,71.8z" id="el_mK1QaqEPbmh"/>
	<path d="M487.9,67.8c0.4-0.3,0.7-0.6,1.1-0.9c-0.5-0.2-0.9-0.4-1.4-0.6C487.7,66.6,488,67.1,487.9,67.8z" id="el_ae464am13KW"/>
	<path d="M444.4,69.5c-0.3,0.4-0.6,0.9-0.9,1.3c1.1,0.8,2.2,1.5,3.3,2.1C446.1,71.7,445.3,70.6,444.4,69.5z" id="el_MEX9tnTvVu5"/>
	<path d="M443.7,68.7c-1.1-1.3-2.3-2.6-3.5-3.8c-0.9-0.9-1.9-1.8-2.9-2.6c-0.3,0.3-0.8,0.6-1.6-0.4&#10;&#9;&#9;c0,0-0.2-0.4-0.3-1.1c-1-0.8-2.1-1.5-3.2-2.1c0.2,0.2,0.7,0.7,0.8,1.5c0.6,0.9,1.3,1.8,2,2.6c1.1,1.3,2.3,2.6,3.5,3.8&#10;&#9;&#9;c1.2,1.2,2.5,2.4,3.9,3.4c0.3,0.3,0.7,0.5,1,0.8c0.3-0.5,0.6-0.9,0.9-1.3C444.2,69.2,443.9,68.9,443.7,68.7z" id="el_bZ52FXu514Y"/>
	<path d="M432.1,58.6c-0.1,0-0.1-0.1-0.2-0.1c0,0,0,0.1,0.1,0.1C432,58.5,432,58.6,432.1,58.6z" id="el_NdVXBZ0I2aC"/>
	<path d="M454.3,70.2c-0.1-0.4-0.2-0.8-0.4-1.1c-0.3,0.1-0.7,0-1.2-0.7c0,0-0.5-1-0.1-2.4c-0.1-0.3-0.3-0.5-0.4-0.8&#10;&#9;&#9;c-0.6-1.3-1.4-2.5-2.1-3.8c-0.5,0.7-1,1.4-1.5,2.1c0.6,0.9,1.3,1.8,2,2.7C451.7,67.6,452.9,69,454.3,70.2z" id="el_c1wKr2jEF7O"/>
	<path d="M444.7,54.1c-0.6-0.6-1.2-1.3-1.8-1.8c0.3,1,0.7,2,1.1,2.9c0.1-0.2,0.1-0.4,0.2-0.6&#10;&#9;&#9;C444.2,54.5,444.4,54.1,444.7,54.1z" id="el_UeGIZYNykPj"/>
	<path d="M449.6,60.6c-0.9-1.5-2-3-3.1-4.4c-0.3-0.4-0.6-0.7-0.9-1.1c0.2,0.5,0.2,1.1,0,2c0,0-0.2,0.4-0.5,0.5&#10;&#9;&#9;c0.7,1.5,1.5,2.9,2.4,4.2c0.3,0.6,0.7,1.1,1.1,1.6c0.5-0.7,1-1.4,1.5-2.1C449.9,61.1,449.8,60.9,449.6,60.6z" id="el_Y4JVzpXobqj"/>
	<path d="M444.3,77.6c-1.5-0.6-3-1.1-4.6-1.5c-0.3,0.5-0.6,0.9-1,1.4C440.7,77.6,442.5,77.7,444.3,77.6z" id="el_2OLWed_KNKN"/>
	<path d="M437.6,75.5c-2.3-0.6-4.6-1-6.9-1.4c-2.3-0.4-4.6-0.7-7-0.9c-2.3-0.2-4.7-0.3-7.1-0.2&#10;&#9;&#9;c2.2,0.9,4.5,1.5,6.8,2.1c2.3,0.6,4.6,1,6.9,1.4c2.3,0.4,4.6,0.7,7,0.9c0.5,0,1.1,0.1,1.6,0.1c0.3-0.5,0.6-0.9,1-1.4&#10;&#9;&#9;C439.1,75.9,438.3,75.7,437.6,75.5z" id="el_JgU-024Spqb"/>
	<path d="M434.2,84.7c0,0,0.9,0,1,0.7c1.2-0.1,2.4-0.1,3.6-0.3c1.7-0.2,3.5-0.5,5.2-1c-1.7-0.5-3.5-0.7-5.2-0.9&#10;&#9;&#9;c-1.2-0.1-2.5-0.2-3.7-0.2c-0.4,0.6-0.8,1.2-1.2,1.8C434,84.8,434.1,84.7,434.2,84.7z" id="el__dJQGHmCZYW"/>
	<path d="M435.1,83c-0.5,0-1,0-1.5,0c-1.7,0-3.5,0.1-5.2,0.3c-1.7,0.2-3.5,0.5-5.2,1c1.7,0.5,3.5,0.7,5.2,0.9&#10;&#9;&#9;c1.4,0.1,2.7,0.2,4.1,0.2c0.3-0.3,0.8-0.5,1.4-0.6C434.3,84.2,434.7,83.6,435.1,83z" id="el_Cg-UatXuTGf"/>
	<path d="M447,92.5c-1.9,0.2-3.7,0.6-5.5,1c-1.8,0.4-3.6,1-5.3,1.5c-1.7,0.6-3.5,1.2-5.2,1.9c-1.7,0.7-3.4,1.4-5,2.4&#10;&#9;&#9;c1.9-0.2,3.7-0.6,5.5-1c1.8-0.4,3.6-1,5.3-1.5c1.7-0.6,3.5-1.2,5.2-1.9C443.7,94.2,445.4,93.4,447,92.5z" id="el_1EnoU0SqnUy"/>
	<path d="M438.1,111.2c-0.1,0.1-0.3,0.3-0.4,0.4c0.1,0,0.3-0.1,0.4-0.1C438.1,111.4,438.1,111.3,438.1,111.2&#10;&#9;&#9;C438.1,111.2,438.1,111.2,438.1,111.2z" id="el_LphsRldsUr3"/>
	<path d="M455.6,100.9c-1.2,0.3-2.3,0.7-3.4,1.2c0,0.2-0.1,0.5-0.3,0.8c0,0-0.8,1-2.5,1c0,0-0.4,0-0.6-0.2&#10;&#9;&#9;c-0.9,0.5-1.9,1-2.8,1.5c-1.5,0.9-2.9,1.8-4.3,2.9c-0.5,0.4-1,0.8-1.5,1.1c0.2,0,0.3-0.1,0.5-0.1c0,0,1.3,0,0.9,1.1&#10;&#9;&#9;c0.3-0.1,0.7-0.3,1-0.5c1.6-0.7,3.1-1.5,4.6-2.4c1.5-0.9,2.9-1.8,4.3-2.9C453,103.4,454.4,102.3,455.6,100.9z" id="el_VUXbg_ab-cr"/>
	<path d="M455.1,113c-0.4,0.7-0.7,1.4-1,2.1c-0.8,1.6-1.5,3.1-2.1,4.8c1.1-1.4,2.1-2.8,3-4.3c0.6-0.9,1.1-1.8,1.6-2.7&#10;&#9;&#9;c-0.3,0.1-0.7,0.2-1.1,0.2C455.5,113.1,455.3,113.1,455.1,113z" id="el_0zIGlL98W5p"/>
	<path d="M456.5,110.5c-0.1,0.1-0.1,0.2-0.2,0.3c0.3-0.1,0.6-0.2,1-0.3c0,0,0.4,0,0.7,0.1c0.7-1.3,1.4-2.7,2.1-4.1&#10;&#9;&#9;c0.8-1.6,1.5-3.1,2.1-4.8c-1.1,1.4-2.1,2.8-3,4.3C458.2,107.5,457.3,109,456.5,110.5z" id="el_e_zrQjovMyQ"/>
	<path d="M471.9,114.4c0,1.3,0.1,2.6,0.2,3.9c0.1,1.7,0.3,3.5,0.6,5.2c0.3-1.7,0.4-3.5,0.5-5.2c0-0.8,0.1-1.6,0.1-2.5&#10;&#9;&#9;C473.1,115.8,472.4,115.4,471.9,114.4z" id="el_XLJC7TXZBgk"/>
	<path d="M473.3,112.4c0-1.5-0.1-3-0.2-4.5c-0.1-1.7-0.3-3.5-0.6-5.2c-0.3,1.7-0.4,3.5-0.5,5.2&#10;&#9;&#9;c-0.1,1.5-0.1,2.9-0.1,4.4C472.1,112,472.5,111.8,473.3,112.4z" id="el_kDkQXmiLQ4M"/>
	<path d="M490.1,111.8c-0.9-1.5-1.8-2.9-2.9-4.3c-1-1.4-2.2-2.7-3.5-4c0.5,1.7,1.1,3.4,1.8,4.9&#10;&#9;&#9;c0.1,0.3,0.3,0.6,0.4,0.8c-0.1-0.2-0.2-0.6-0.2-1c0,0,0.1-0.5,0.3-0.4c0,0,1,0.2,1.1,1.6c0,0-0.1,1-1,0.3c0,0-0.1-0.1-0.2-0.3&#10;&#9;&#9;c0.6,1.2,1.2,2.4,1.9,3.6c0.9,1.5,1.8,2.9,2.9,4.3c1,1.4,2.2,2.7,3.5,4c-0.4-1.7-1.1-3.4-1.8-4.9&#10;&#9;&#9;C491.8,114.9,491,113.3,490.1,111.8z" id="el_Y6PQdEr3zQM"/>
	<path d="M490.3,102.1c-1-0.8-2-1.6-3-2.4c0.7,0.9,1.4,1.8,2.2,2.7c0-0.1,0-0.2,0.1-0.2&#10;&#9;&#9;C489.6,102.2,489.9,102.1,490.3,102.1z" id="el_TlbZj4IoED0"/>
	<path d="M495.2,106.5c-0.9-0.9-1.9-1.8-2.9-2.6c-0.1,0.2-0.4,0.3-0.9,0.4c0,0-0.2,0-0.5-0.1c1.1,1.2,2.2,2.3,3.3,3.4&#10;&#9;&#9;c1.2,1.2,2.5,2.4,3.8,3.5c1.3,1.1,2.7,2.2,4.1,3.2c-1-1.4-2.2-2.7-3.3-4C497.7,108.9,496.4,107.7,495.2,106.5z" id="el_8bWtar2B2Az"/>
	<path d="M517.4,102.3c-1.3-1-2.7-1.9-4.1-2.7c-0.1,0.5-0.2,0.9-0.3,1.4C514.5,101.5,515.9,102,517.4,102.3z" id="el__ftTnuBMb8U"/>
	<path d="M491.6,90.2c-0.2-0.1-0.4-0.1-0.7-0.2c0.1,0.1,0.3,0.2,0.5,0.3c0,0,0-0.1,0.1-0.1&#10;&#9;&#9;C491.4,90.2,491.5,90.2,491.6,90.2z" id="el_zjme1dh0i5o"/>
	<path d="M505.2,95.3c-0.2,0-1-0.1-1.7-0.8c-1.9-0.8-3.7-1.6-5.6-2.3c-1.3-0.5-2.7-1-4-1.4c0,0,0.1,0.1,0.1,0.1&#10;&#9;&#9;c0,0,0.6,0.7-0.2,1.1c1.1,0.7,2.1,1.3,3.2,1.9c2.1,1.2,4.3,2.3,6.5,3.3c2.2,1,4.5,2,6.7,2.8c0.9,0.3,1.8,0.7,2.7,1&#10;&#9;&#9;c0.1-0.5,0.2-1,0.3-1.4c-0.7-0.4-1.4-0.9-2.2-1.3C509.2,97.3,507.3,96.3,505.2,95.3z" id="el_YqFTHaEmOZg"/>
	<path d="M495.4,65.2c-1,1.3-0.8,2.5-0.8,2.5c0.7,1.9,1.7,0.5,1.7,0.5c1.2-2.1,0-3.4,0-3.4&#10;&#9;&#9;C495.9,64.6,495.4,65.2,495.4,65.2z" id="el_rA3_2nWHGGv"/>
	<path d="M481.6,70c1.2-2.1,0-3.4,0-3.4c-0.4-0.3-0.9,0.3-0.9,0.3c-1,1.3-0.8,2.5-0.8,2.5&#10;&#9;&#9;C480.6,71.3,481.6,70,481.6,70z" id="el_AoCM6TNLGTz"/>
	<path d="M473.3,58c1.2-2.1,0-3.4,0-3.4c-0.4-0.3-0.9,0.3-0.9,0.3c-1,1.3-0.8,2.5-0.8,2.5&#10;&#9;&#9;C472.2,59.3,473.3,58,473.3,58z" id="el_9tLJA9C6thA"/>
	<path d="M486,69.5c0.7,1,1.4,0,1.4,0c0.3-0.6,0.5-1.1,0.5-1.6c-0.4,0.3-0.7,0.6-1.1,0.9C486.6,69,486.3,69.3,486,69.5&#10;&#9;&#9;z" id="el_yyDZ31ftdkf"/>
	<path d="M487.4,66.1c-0.1-0.1-0.3-0.1-0.4,0c0.2,0.1,0.4,0.2,0.6,0.3C487.5,66.1,487.4,66.1,487.4,66.1z" id="el__mLt8sEJJn1"/>
	<path d="M487.6,66.3c-0.2-0.1-0.4-0.2-0.6-0.3c-0.3,0.1-0.5,0.3-0.5,0.3c-1,1.3-0.8,2.5-0.8,2.5&#10;&#9;&#9;c0.1,0.2,0.2,0.4,0.3,0.6c0.3-0.2,0.6-0.5,0.8-0.7c0.4-0.3,0.7-0.6,1.1-0.9C488,67.1,487.7,66.6,487.6,66.3z" id="el__M4q82rHi-5"/>
	<path d="M472.7,71.1c1.2-2.1,0-3.4,0-3.4c-0.4-0.3-0.9,0.3-0.9,0.3c-1,1.3-0.8,2.5-0.8,2.5&#10;&#9;&#9;C471.7,72.5,472.7,71.1,472.7,71.1z" id="el_vppXYTNhla3"/>
	<path d="M483.1,54.1c0-0.7-0.4-1.2-0.4-1.2c-0.3-0.3-0.9,0.2-0.9,0.2c-1.1,1.1-0.9,2.3-0.9,2.3c0.2,0.9,0.6,1.1,0.9,1&#10;&#9;&#9;c0.3-0.6,0.6-1.1,0.9-1.7C482.8,54.4,483,54.3,483.1,54.1z" id="el_ZepK-pbdiLe"/>
	<path d="M462.6,64.6c0.5-2.3-1-3.2-1-3.2c-0.4-0.2-0.8,0.6-0.8,0.6c-0.6,1.5,0,2.7,0,2.7&#10;&#9;&#9;C462.1,66.2,462.6,64.6,462.6,64.6z" id="el_jJZgQZx7TX8"/>
	<path d="M449.2,70.7c0.5-2.3-1-3.2-1-3.2c-0.4-0.2-0.8,0.6-0.8,0.6c-0.6,1.5,0,2.7,0,2.7&#10;&#9;&#9;C448.6,72.3,449.2,70.7,449.2,70.7z" id="el_j2nYPw4tE1H"/>
	<path d="M437.3,62.2c0.2-0.2,0.2-0.4,0.2-0.4c0.5-2.3-1-3.2-1-3.2c-0.4-0.2-0.8,0.6-0.8,0.6c-0.2,0.6-0.3,1.2-0.2,1.6&#10;&#9;&#9;c0.3,0.2,0.6,0.4,0.8,0.6C436.6,61.7,437,62,437.3,62.2z" id="el_gmrOr-TJzAd"/>
	<path d="M437.3,62.2c-0.3-0.3-0.7-0.6-1-0.8c-0.3-0.2-0.6-0.4-0.8-0.6c0.1,0.7,0.3,1.1,0.3,1.1&#10;&#9;&#9;C436.5,62.8,437,62.6,437.3,62.2z" id="el_UmqcEDvedLv"/>
	<path d="M454.5,68.4c0.5-2.3-1-3.2-1-3.2c-0.4-0.2-0.8,0.6-0.8,0.6c0,0.1-0.1,0.2-0.1,0.3c0.5,1,0.9,2,1.3,3.1&#10;&#9;&#9;C454.3,69,454.5,68.4,454.5,68.4z" id="el_JphGPT15TRI"/>
	<path d="M452.7,68.4c0.5,0.6,0.9,0.8,1.2,0.7c-0.4-1.1-0.8-2.1-1.3-3.1C452.2,67.4,452.7,68.4,452.7,68.4z" id="el_LghDrQ17HbZ"/>
	<path d="M441.1,74.5c0-0.1,0-0.2,0-0.3c-0.2,0.3-0.5,0.7-0.7,1C440.9,75.1,441.1,74.5,441.1,74.5z" id="el_2F_Y4yd74si"/>
	<path d="M440,71.3c-0.4-0.2-0.8,0.6-0.8,0.6c-0.6,1.5,0,2.7,0,2.7c0.5,0.6,0.8,0.8,1.1,0.7c0.2-0.3,0.5-0.7,0.7-1&#10;&#9;&#9;C441.4,72.1,440,71.3,440,71.3z" id="el_uOwOHsnhLZ-"/>
	<path d="M429.4,65.6c0.5-2.3-1-3.2-1-3.2c-0.4-0.2-0.8,0.6-0.8,0.6c-0.6,1.5,0,2.7,0,2.7&#10;&#9;&#9;C428.9,67.2,429.4,65.6,429.4,65.6z" id="el_79O0k-PTtJ9"/>
	<path d="M444.9,54.1c-0.1,0-0.1,0-0.2,0c0.3,0.4,0.6,0.7,0.9,1.1C445.4,54.4,444.9,54.1,444.9,54.1z" id="el_IPtPwUYyRiq"/>
	<path d="M444,55.1c-0.3,1.1,0,1.8,0,1.8c0.5,0.7,0.9,0.8,1.1,0.7c-0.1-0.1-0.2-0.3-0.2-0.4&#10;&#9;&#9;C444.6,56.5,444.3,55.8,444,55.1z" id="el_uTWOB2XZUww"/>
	<path d="M445.6,57.1c0.3-0.8,0.2-1.5,0-2c-0.3-0.4-0.6-0.7-0.9-1.1c-0.3,0.1-0.5,0.5-0.5,0.5&#10;&#9;&#9;c-0.1,0.2-0.2,0.4-0.2,0.6c0.3,0.7,0.6,1.4,1,2.1c0.1,0.1,0.1,0.3,0.2,0.4C445.5,57.5,445.6,57.1,445.6,57.1z" id="el_MNxnVGvEq8W"/>
	<path d="M432.2,58.6C432.1,58.6,432.1,58.6,432.2,58.6C432.1,58.6,432.2,58.6,432.2,58.6&#10;&#9;&#9;C432.2,58.6,432.2,58.6,432.2,58.6z" id="el_5206KHI1olo"/>
	<path d="M431.4,59c-0.7,1.4-0.2,2.4-0.2,2.4c1,1.6,1.6,0.1,1.6,0.1c0.2-0.6,0.2-1,0.1-1.4c-0.4-0.5-0.7-1.1-1-1.6&#10;&#9;&#9;C431.6,58.6,431.4,59,431.4,59z" id="el_R1-rJATUQuH"/>
	<path d="M432.2,58.6c-0.1,0-0.1-0.1-0.1-0.1c0,0-0.1,0-0.1,0c0.3,0.6,0.7,1.1,1,1.6C432.9,59.3,432.4,58.8,432.2,58.6&#10;&#9;&#9;z" id="el_sq4HWIIfuXg"/>
	<path d="M434.9,86.4c0.3-0.4,0.4-0.8,0.3-1c-0.5,0-1.1,0.1-1.6,0.1c0,0-0.1,0-0.1,0c-0.4,0.6-0.8,1.3-1.3,1.9&#10;&#9;&#9;c0.1,0,0.2,0,0.2,0C434,87.4,434.9,86.4,434.9,86.4z" id="el_uxHwSVCoTyC"/>
	<path d="M432.5,85.4c-0.8,0.6-0.9,1.4-0.9,1.4c0,0.3,0.4,0.4,0.6,0.5c0.4-0.6,0.8-1.3,1.3-1.9&#10;&#9;&#9;C433.2,85.5,432.8,85.4,432.5,85.4z" id="el_jBztDxU2_4j"/>
	<path d="M434.2,84.7c-0.1,0-0.2,0.1-0.3,0.1c-0.1,0.2-0.3,0.4-0.4,0.6c0,0,0.1,0,0.1,0c0.5,0,1.1,0,1.6-0.1&#10;&#9;&#9;C435.1,84.7,434.2,84.7,434.2,84.7z" id="el_lViw0wwLB5o"/>
	<path d="M433.9,84.8c-0.6,0.1-1,0.4-1.4,0.6c0.3,0,0.6,0,0.9,0C433.6,85.2,433.8,85,433.9,84.8z" id="el_Jwvrw9aG2PB"/>
	<path d="M471.9,112.3c-0.2,0.3-0.2,0.6-0.2,0.6c0,0.6,0.1,1.1,0.3,1.5c0-0.4,0-0.9,0-1.3&#10;&#9;&#9;C471.9,112.8,471.9,112.6,471.9,112.3z" id="el_VsadB5nVPbP"/>
	<path d="M473.3,112.4c0,0.2,0,0.4,0,0.7c0,0.9,0,1.8,0,2.7c0,0,0,0,0,0c0.5,0.1,0.7-0.7,0.7-0.7&#10;&#9;&#9;c0.3-1.6-0.5-2.6-0.5-2.6C473.4,112.5,473.3,112.4,473.3,112.4z" id="el_E7KBJePdKzt"/>
	<path d="M473.3,112.4c-0.7-0.6-1.1-0.4-1.4-0.1c0,0.3,0,0.5,0,0.8c0,0.4,0,0.9,0,1.3c0.4,1,1.2,1.4,1.3,1.4&#10;&#9;&#9;c0-0.9,0-1.8,0-2.7C473.3,112.9,473.3,112.6,473.3,112.4z" id="el_4n6t9mJOhno"/>
	<path d="M479.6,118.3c0,2.4,1.6,2.9,1.6,2.9c0.5,0.1,0.7-0.7,0.7-0.7c0.3-1.6-0.5-2.6-0.5-2.6&#10;&#9;&#9;C479.9,116.6,479.6,118.3,479.6,118.3z" id="el_caN-KrIs1WF"/>
	<path d="M440.3,109.2c-1.6,0.5-2,1.6-2.1,1.9C438.8,110.5,439.5,109.8,440.3,109.2z" id="el_thiD5qqWgik"/>
	<path d="M438.9,111.8c1.6,0,2.5-1,2.5-1c0.1-0.2,0.2-0.4,0.3-0.6c-1.1,0.5-2.3,0.9-3.5,1.3&#10;&#9;&#9;C438.4,111.7,438.9,111.8,438.9,111.8z" id="el_d1ikUgTzthV"/>
	<path d="M440.7,109.1c-0.2,0-0.3,0.1-0.5,0.1c-0.7,0.6-1.4,1.2-2.1,1.9c0,0.1,0,0.1,0,0.1c0,0.1,0,0.1,0.1,0.2&#10;&#9;&#9;c1.2-0.3,2.4-0.8,3.5-1.3C442,109.1,440.7,109.1,440.7,109.1z" id="el_UE9z-MZigS4"/>
	<path d="M438.9,93.6c1.6,0,2.5-1,2.5-1c1-1.7-0.7-1.7-0.7-1.7c-2.4,0.4-2.6,2.1-2.6,2.1&#10;&#9;&#9;C438.1,93.5,438.9,93.6,438.9,93.6z" id="el_4PJTp1WzoN9"/>
	<path d="M452.2,102.1c0.2-0.9-1-0.9-1-0.9c-2.4,0.4-2.6,2.1-2.6,2.1c0,0.1,0.1,0.3,0.2,0.3c0.6-0.3,1.2-0.6,1.8-0.9&#10;&#9;&#9;C451.2,102.5,451.7,102.3,452.2,102.1z" id="el_EsrQ_0WkqDE"/>
	<path d="M451.9,102.9c0.2-0.3,0.3-0.6,0.3-0.8c-0.5,0.2-1.1,0.4-1.6,0.7c-0.6,0.3-1.2,0.6-1.8,0.9&#10;&#9;&#9;c0.2,0.2,0.6,0.2,0.6,0.2C451.1,103.9,451.9,102.9,451.9,102.9z" id="el_ECwizGFXtg2"/>
	<path d="M454.7,112.6c0,0.2,0.2,0.4,0.4,0.4c0.4-0.8,0.8-1.5,1.2-2.3C454.9,111.4,454.7,112.6,454.7,112.6z" id="el_Un9mKXqZCq-"/>
	<path d="M456.6,112.9c0.9-0.3,1.3-0.8,1.3-0.8c0.6-0.9,0.3-1.3,0-1.5c-0.1,0.2-0.2,0.4-0.3,0.5&#10;&#9;&#9;C457.3,111.7,457,112.3,456.6,112.9z" id="el_QlLSullund4"/>
	<path d="M457.3,110.4c-0.4,0.1-0.7,0.2-1,0.3c-0.4,0.8-0.8,1.5-1.2,2.3c0.2,0.1,0.4,0.1,0.4,0.1&#10;&#9;&#9;c0.4,0,0.8-0.1,1.1-0.2c0.4-0.6,0.7-1.2,1-1.8c0.1-0.2,0.2-0.4,0.3-0.5C457.7,110.4,457.3,110.4,457.3,110.4z" id="el_QzeU8K1RCoR"/>
	<path d="M433.4,103.3c-2.2,0.2-2.6,1.7-2.6,1.7c0,0.4,0.7,0.5,0.7,0.5c1.5,0.1,2.3-0.7,2.3-0.7&#10;&#9;&#9;C435,103.3,433.4,103.3,433.4,103.3z" id="el_e5--PsfWW6B"/>
	<path d="M486.1,109.5c0-0.1,0-0.1-0.1-0.2C486,109.4,486.1,109.4,486.1,109.5z" id="el_3e1lk3VXRPH"/>
	<path d="M487.3,109.5c-0.1-1.4-1.1-1.6-1.1-1.6c-0.3,0-0.3,0.4-0.3,0.4c0,0.4,0.1,0.8,0.2,1c0,0.1,0,0.1,0.1,0.2&#10;&#9;&#9;c0.1,0.2,0.2,0.3,0.2,0.3C487.2,110.4,487.3,109.5,487.3,109.5z" id="el_XTLtzcaVErO"/>
	<path d="M506.1,82.2c1.8-0.3,0.7-1.4,0.7-1.4c-1.6-1.4-2.9-0.5-2.9-0.5c-0.3,0.3,0.1,0.9,0.1,0.9&#10;&#9;&#9;C505,82.2,506.1,82.2,506.1,82.2z" id="el_JPOYUGX0Fw-"/>
	<path d="M505.2,95.3C505.3,95.3,505.3,95.3,505.2,95.3c1.8-0.3,0.8-1.4,0.8-1.4c-1.6-1.4-2.9-0.5-2.9-0.5&#10;&#9;&#9;c-0.3,0.3,0.1,0.9,0.1,0.9c0.1,0.1,0.2,0.2,0.3,0.3c0.4,0.2,0.8,0.3,1.1,0.5C504.9,95.2,505,95.2,505.2,95.3z" id="el_5uK17hpbTG3"/>
	<path d="M505.2,95.3c-0.2-0.1-0.4-0.2-0.6-0.3c-0.4-0.2-0.8-0.3-1.1-0.5C504.3,95.2,505,95.3,505.2,95.3z" id="el_6R5BvQtyVrn"/>
	<path d="M493.6,100.8c1.8-0.3,0.7-1.4,0.7-1.4c-1.6-1.4-2.9-0.5-2.9-0.5c-0.3,0.3,0.1,0.9,0.1,0.9&#10;&#9;&#9;C492.5,100.8,493.6,100.8,493.6,100.8z" id="el_WlyQCV3VSk-"/>
	<path d="M499.5,88.3c-0.3,0.3,0.1,0.9,0.1,0.9c0.9,1.1,2.1,1.1,2.1,1.1c1.8-0.3,0.7-1.4,0.7-1.4&#10;&#9;&#9;C500.8,87.4,499.5,88.3,499.5,88.3z" id="el_z4LhrVkO7nk"/>
	<path d="M491.6,90.2c0.8,0.2,1.6,0.4,2.4,0.7C492.8,89.9,491.9,90.1,491.6,90.2z" id="el_wLNETz-ZSmD"/>
	<path d="M491.5,91c0.8,1.1,1.8,1.2,1.8,1.2c0.3,0,0.5-0.1,0.6-0.2c-0.9-0.5-1.7-1.1-2.5-1.7&#10;&#9;&#9;C491.2,90.6,491.5,91,491.5,91z" id="el_596YHYr8oJj"/>
	<path d="M494.1,91c0,0-0.1-0.1-0.1-0.1c-0.8-0.2-1.6-0.5-2.4-0.7c-0.1,0-0.1,0.1-0.1,0.1c0,0-0.1,0.1-0.1,0.1&#10;&#9;&#9;c0.8,0.6,1.7,1.2,2.5,1.7C494.6,91.7,494.1,91,494.1,91z" id="el_W6iYqAAEXJz"/>
	<path d="M489.5,102.4c0,0.3,0.2,0.6,0.2,0.6c0.4,0.6,0.9,0.9,1.3,1c-0.1-0.1-0.2-0.2-0.3-0.3&#10;&#9;&#9;C490.3,103.3,489.9,102.9,489.5,102.4z" id="el_W6Xnu_t0rL8"/>
	<path d="M492.4,103.8c0.3-0.4-0.1-0.9-0.1-0.9c-0.7-0.7-1.4-0.9-1.9-0.9c0.4,0.3,0.7,0.6,1.1,0.9&#10;&#9;&#9;C491.7,103.2,492,103.5,492.4,103.8z" id="el_8cC1fwkMTaC"/>
	<path d="M492.4,103.8c-0.3-0.3-0.6-0.6-1-0.9c-0.3-0.3-0.7-0.6-1.1-0.9c-0.4,0-0.7,0.1-0.7,0.1&#10;&#9;&#9;c-0.1,0.1-0.1,0.1-0.1,0.2c0.4,0.4,0.8,0.9,1.1,1.3c0.1,0.1,0.2,0.2,0.3,0.3c0.3,0.1,0.5,0.1,0.5,0.1&#10;&#9;&#9;C492,104.1,492.2,104,492.4,103.8z" id="el_Isun3wIOukq"/>
	<path d="M449.6,49.6c0.2,0.7,0.4,1.3,0.7,2c0.6,0.2,1.2,0.4,1.8,0.6C451.3,51.3,450.5,50.4,449.6,49.6z" id="el_T-j6e3hAYI6"/>
	<path d="M452.1,52.2c-0.6-0.2-1.2-0.4-1.8-0.6c0,0,0,0,0,0.1C450.9,51.8,451.5,52,452.1,52.2&#10;&#9;&#9;C452.1,52.2,452.1,52.2,452.1,52.2z" id="el_HdMGJj0H87T"/>
	<path d="M457.3,63.6c1.1,1.4,2.3,2.8,3.6,4c-0.5-1.8-1.2-3.4-2-5c-0.8-1.6-1.7-3.1-2.6-4.6c-0.5-0.9-1.1-1.7-1.7-2.5&#10;&#9;&#9;c-0.5,0.6-1,1.3-1.5,2c0.4,0.6,0.7,1.3,1.1,1.9C455.2,60.7,456.2,62.2,457.3,63.6z" id="el_gxKyU924ie7"/>
	<path d="M453.2,53.6c-0.3-0.4-0.7-0.9-1.1-1.3c-0.6-0.2-1.2-0.4-1.9-0.6c0.4,1,0.8,2,1.3,3c0.5,0.9,1,1.9,1.5,2.8&#10;&#9;&#9;c0.5-0.7,1-1.3,1.5-2C454.1,54.8,453.7,54.2,453.2,53.6z" id="el_KkWZQMocE_Y"/>
	<path d="M468.2,55.7c-0.3-1.8-0.7-3.6-1.1-5.4c-0.5-1.8-1-3.6-1.8-5.3c-0.2,1.9-0.2,3.8-0.1,5.6&#10;&#9;&#9;c0.1,1.8,0.3,3.7,0.6,5.5c0.1,0.4,0.2,0.9,0.2,1.3c0.8,0.3,1.7,0.7,2.5,1C468.4,57.5,468.3,56.6,468.2,55.7z" id="el_pgEABwD1s9i"/>
	<path d="M468.7,66.8c0.2-1.9,0.2-3.8,0.1-5.6c-0.1-0.9-0.1-1.9-0.2-2.8c-0.8-0.3-1.7-0.7-2.5-1&#10;&#9;&#9;c0.3,1.4,0.5,2.8,0.9,4.1C467.4,63.2,467.9,65,468.7,66.8z" id="el_Px0GXt7Vkic"/>
	<path d="M481.2,63.4c0.7-1.3,1.3-2.6,1.9-3.9c0.5-1.3,1-2.7,1.4-4.1c0.4-1.4,0.7-2.9,0.8-4.4c-0.9,1-1.6,2-2.2,3.1&#10;&#9;&#9;c0,0.5-0.1,1.2-0.6,1.9c0,0-0.3,0.3-0.6,0.4c-0.4,0.7-0.7,1.5-1,2.2c-0.5,1.3-1,2.7-1.4,4.1c0,0,0,0.1,0,0.1&#10;&#9;&#9;c0.6,0.2,1.1,0.5,1.7,0.7C481.2,63.5,481.2,63.5,481.2,63.4z" id="el_fQYOm-XvI1Y"/>
	<path d="M481.1,63.5c-0.6-0.2-1.1-0.5-1.7-0.7c-0.4,1.4-0.7,2.8-0.7,4.3C479.7,66,480.5,64.8,481.1,63.5z" id="el_8loXT9fMI7u"/>
	<path d="M482.4,56c0.5-0.7,0.6-1.4,0.6-1.9c-0.1,0.2-0.2,0.4-0.3,0.6c-0.3,0.6-0.6,1.1-0.9,1.7&#10;&#9;&#9;C482.2,56.3,482.4,56,482.4,56z" id="el_hBtMbOSMHV7"/>
</g>
<g id="el_oKQozif8EyM">
	<path d="M198.8,136.6" id="el_yv3BW7vg9Mj"/>
	<g id="el_yj7q4bxnezI">
		<g id="el_25gnpCgq0zW">
			<path d="M171.8,109.9c0.4-2.5,209.5,13,228.4,39.2l-50.5,11.8l-182.3,10.5L171.8,109.9z" id="el_YDX2XHdbT1Q"/>
			<path d="M171.6,112.7c0,0,208.2,13.3,227.5,36.9l-67.2,15.6l-171.4,11.3L171.6,112.7z" id="el_yDj8BL-uex1"/>
		</g>
		<path d="M172.5,109.9c0,0-139.9-18.8-144.8-13.5s-32.6,3.1-11.7,38.9c11.7,13.7,16.5,9.8,16.5,9.8s5.1-14.1,18.3-12&#10;&#9;&#9;&#9;s50.7,11.9,50.7,11.9s28.5,2.5,38.2,1.6s21.4,3.1,24.8,6S172.5,109.9,172.5,109.9z" id="el_sNy4XMuFaCy"/>
	</g>
</g>
</svg>