<svg version="1.1" id="el_X7l0nT0QG" xmlns="http://www.w3.org/2000/svg" xmlns:xlink="http://www.w3.org/1999/xlink" x="0px" y="0px" viewBox="0 0 576 576" style="enable-background:new 0 0 576 576;" xml:space="preserve"><style>@-webkit-keyframes kf_el_-pHWo5AZrM_an_0YlP22IOz{42.22%{-webkit-transform: translate(273.70123291015625px, 163.8000030517578px) translate(-273.70123291015625px, -163.8000030517578px) translate(0px, -1000px);transform: translate(273.70123291015625px, 163.8000030517578px) translate(-273.70123291015625px, -163.8000030517578px) translate(0px, -1000px);}60%{-webkit-transform: translate(273.70123291015625px, 163.8000030517578px) translate(-273.70123291015625px, -163.8000030517578px) translate(0px, 0px);transform: translate(273.70123291015625px, 163.8000030517578px) translate(-273.70123291015625px, -163.8000030517578px) translate(0px, 0px);}0%{-webkit-transform: translate(273.70123291015625px, 163.8000030517578px) translate(-273.70123291015625px, -163.8000030517578px) translate(0px, -1000px);transform: translate(273.70123291015625px, 163.8000030517578px) translate(-273.70123291015625px, -163.8000030517578px) translate(0px, -1000px);}100%{-webkit-transform: translate(273.70123291015625px, 163.8000030517578px) translate(-273.70123291015625px, -163.8000030517578px) translate(0px, 0px);transform: translate(273.70123291015625px, 163.8000030517578px) translate(-273.70123291015625px, -163.8000030517578px) translate(0px, 0px);}}@keyframes kf_el_-pHWo5AZrM_an_0YlP22IOz{42.22%{-webkit-transform: translate(273.70123291015625px, 163.8000030517578px) translate(-273.70123291015625px, -163.8000030517578px) translate(0px, -1000px);transform: translate(273.70123291015625px, 163.8000030517578px) translate(-273.70123291015625px, -163.8000030517578px) translate(0px, -1000px);}60%{-webkit-transform: translate(273.70123291015625px, 163.8000030517578px) translate(-273.70123291015625px, -163.8000030517578px) translate(0px, 0px);transform: translate(273.70123291015625px, 163.8000030517578px) translate(-273.70123291015625px, -163.8000030517578px) translate(0px, 0px);}0%{-webkit-transform: translate(273.70123291015625px, 163.8000030517578px) translate(-273.70123291015625px, -163.8000030517578px) translate(0px, -1000px);transform: translate(273.70123291015625px, 163.8000030517578px) translate(-273.70123291015625px, -163.8000030517578px) translate(0px, -1000px);}100%{-webkit-transform: translate(273.70123291015625px, 163.8000030517578px) translate(-273.70123291015625px, -163.8000030517578px) translate(0px, 0px);transform: translate(273.70123291015625px, 163.8000030517578px) translate(-273.70123291015625px, -163.8000030517578px) translate(0px, 0px);}}@-webkit-keyframes kf_el_gWHDXeRhRky_an_ROVrq0U8t{0%{-webkit-transform: translate(91.10124206542969px, 219.5px) translate(-91.10124206542969px, -219.5px) translate(0px, -1000px);transform: translate(91.10124206542969px, 219.5px) translate(-91.10124206542969px, -219.5px) translate(0px, -1000px);}33.33%{-webkit-transform: translate(91.10124206542969px, 219.5px) translate(-91.10124206542969px, -219.5px) translate(0px, 0px);transform: translate(91.10124206542969px, 219.5px) translate(-91.10124206542969px, -219.5px) translate(0px, 0px);}100%{-webkit-transform: translate(91.10124206542969px, 219.5px) translate(-91.10124206542969px, -219.5px) translate(0px, 0px);transform: translate(91.10124206542969px, 219.5px) translate(-91.10124206542969px, -219.5px) translate(0px, 0px);}}@keyframes kf_el_gWHDXeRhRky_an_ROVrq0U8t{0%{-webkit-transform: translate(91.10124206542969px, 219.5px) translate(-91.10124206542969px, -219.5px) translate(0px, -1000px);transform: translate(91.10124206542969px, 219.5px) translate(-91.10124206542969px, -219.5px) translate(0px, -1000px);}33.33%{-webkit-transform: translate(91.10124206542969px, 219.5px) translate(-91.10124206542969px, -219.5px) translate(0px, 0px);transform: translate(91.10124206542969px, 219.5px) translate(-91.10124206542969px, -219.5px) translate(0px, 0px);}100%{-webkit-transform: translate(91.10124206542969px, 219.5px) translate(-91.10124206542969px, -219.5px) translate(0px, 0px);transform: translate(91.10124206542969px, 219.5px) translate(-91.10124206542969px, -219.5px) translate(0px, 0px);}}#el_X7l0nT0QG *{-webkit-animation-duration: 3s;animation-duration: 3s;-webkit-animation-iteration-count: infinite;animation-iteration-count: infinite;-webkit-animation-timing-function: cubic-bezier(0, 0, 1, 1);animation-timing-function: cubic-bezier(0, 0, 1, 1);}#el_QC6zCDupHo{fill: #EFEFEF;}#el_5_doXJzywj{fill: #F4F4F4;}#el_mmPR2IKKOz{fill: #EAEAEA;}#el_XSsifeYE5R{fill: #6D8418;}#el_RNyEUoppFM{fill: #91B23D;}#el_EwQKsEgsUp{fill: #93AA33;}#el_uQk_TkAwMQ{fill: #9EB247;}#el_OD0sOBsiHw{fill: #80973B;}#el_Tzm6Lvy0oR{fill: #74931D;}#el_Au58vXvaIL{fill: #697C22;}#el_8xVaDVolZX{fill: #719119;}#el_oqlwwpFmRa{fill: #7E991C;}#el_KNbchWviZv{fill: #6C7C0E;}#el__h_lxQrp39C{fill: #EBC478;}#el_7u3hhp6zyVL{fill: #EFD8B6;}#el_w3xEWRyZZJ6{fill: #070707;}#el_aAPG-7TaNUB{fill: #070707;}#el_Rifvul4f6_6{fill: #070707;}#el_KpQHDuYvqUs{fill: #070707;}#el_gUJaVwC8UgC{fill: #070707;}#el_ZlF4xDp3F8O{fill: #070707;}#el_YrnnqK6JwhO{fill: #070707;}#el_HYHMkfn9b_6{fill: #070707;}#el_y6u6eeCe3Je{fill: #070707;}#el_fiQSbdI5iX5{fill: #070707;}#el_MzZcTmi85p2{fill: #070707;}#el_n189Gg_nsBY{fill: #070707;}#el_BbluhGWdpK3{fill: #070707;}#el_nx7wpYexRLB{fill: #070707;}#el_0jLBPKlP6QX{fill: #070707;}#el_yDXKmbwGk-4{fill: #070707;}#el_85ipExx1qCZ{fill: #070707;}#el_7IevLkxwJ6R{fill: #070707;}#el_FJBPN7qOU8m{fill: #070707;}#el_lsISkzl4k7h{fill: #070707;}#el_2G_jKNjyF8W{fill: #070707;}#el_Iqrz9ND4SK7{fill: #070707;}#el_NsAROYSRi6Y{fill: #070707;}#el_scza1y48TfZ{fill: #070707;}#el_a2jxeAgw2Ra{fill: #6D8418;}#el_B3VySnRPQkB{fill: #91B23D;}#el_Lpm0Mt4uZch{fill: #93AA33;}#el_GTL6kd2U68x{fill: #9EB247;}#el_mGNxd1vf2si{fill: #80973B;}#el_6AipsObyu1x{fill: #74931D;}#el_Cv80uACEAcT{fill: #697C22;}#el_EFrh4-0dLju{fill: #719119;}#el_VaXAazRSE9P{fill: #7E991C;}#el_jC_E7E-MT0_{fill: #6C7C0E;}#el_MbzQcV66YZq{fill: #EBC478;}#el_41Lkqujytla{fill: #EFD8B6;}#el_MGwaxajFTba{fill: #070707;}#el_BGl8MdEWQJ3{fill: #070707;}#el_2f2gTrXLME6{fill: #070707;}#el_F56-ZGUzjd_{fill: #070707;}#el_mXkEkl39VEc{fill: #070707;}#el_tMSfLNKN_AZ{fill: #070707;}#el_8_QieT5BMLM{fill: #070707;}#el_TM-bd-t_HyY{fill: #070707;}#el_ITGyZFt8jjA{fill: #070707;}#el_5U6Dt5Ej__2{fill: #070707;}#el_Y8oYf9HZ7dA{fill: #070707;}#el_iKyJL5RCIFc{fill: #070707;}#el_Y0qhI0P7g2c{fill: #070707;}#el_Ilg-aqH1gHf{fill: #070707;}#el_5JNhGXBEdFP{fill: #070707;}#el_l4iqmTmRXx2{fill: #070707;}#el_evbeO_ehhZL{fill: #070707;}#el_-A99i6XdW-x{fill: #070707;}#el_7XNkbwev9Yi{fill: #070707;}#el_p0cGz1OMSRU{fill: #070707;}#el_8BiACDuAW-b{fill: #070707;}#el_SxjVkj5xZ-E{fill: #070707;}#el_HnWffSyHi2M{fill: #070707;}#el_7Fr04xq6DJK{fill: #070707;}#el_gWHDXeRhRky_an_ROVrq0U8t{-webkit-animation-fill-mode: backwards;animation-fill-mode: backwards;-webkit-transform: translate(91.10124206542969px, 219.5px) translate(-91.10124206542969px, -219.5px) translate(0px, -1000px);transform: translate(91.10124206542969px, 219.5px) translate(-91.10124206542969px, -219.5px) translate(0px, -1000px);-webkit-animation-name: kf_el_gWHDXeRhRky_an_ROVrq0U8t;animation-name: kf_el_gWHDXeRhRky_an_ROVrq0U8t;-webkit-animation-timing-function: cubic-bezier(0, 0, 1, 1);animation-timing-function: cubic-bezier(0, 0, 1, 1);}#el_-pHWo5AZrM_an_0YlP22IOz{-webkit-animation-fill-mode: backwards;animation-fill-mode: backwards;-webkit-transform: translate(273.70123291015625px, 163.8000030517578px) translate(-273.70123291015625px, -163.8000030517578px) translate(0px, -1000px);transform: translate(273.70123291015625px, 163.8000030517578px) translate(-273.70123291015625px, -163.8000030517578px) translate(0px, -1000px);-webkit-animation-name: kf_el_-pHWo5AZrM_an_0YlP22IOz;animation-name: kf_el_-pHWo5AZrM_an_0YlP22IOz;-webkit-animation-timing-function: cubic-bezier(0, 0, 1, 1);animation-timing-function: cubic-bezier(0, 0, 1, 1);}</style>

<g id="el_M97r6rIoWX">
	<ellipse cx="288" cy="379.6" rx="251.5" ry="82.9" id="el_QC6zCDupHo"/>
	<ellipse cx="288" cy="374.4" rx="251.5" ry="82.9" id="el_5_doXJzywj"/>
	<ellipse cx="288" cy="366.2" rx="176.8" ry="58.2" id="el_mmPR2IKKOz"/>
</g>
<g id="el_-pHWo5AZrM_an_0YlP22IOz" data-animator-group="true" data-animator-type="0"><g id="el_-pHWo5AZrM">
	<polygon points="330.3,218.7 393.6,163.8 428,218.7 393.6,239.7 &#9;" id="el_XSsifeYE5R"/>
	<path d="M301.6,266.6l-19.1-66.4c0,0-26.6,36.2,12.7,129.9c0,0,3.6,4.4,10.3,7.9L301.6,266.6z" id="el_RNyEUoppFM"/>
	<path d="M336.6,220.9l-35,45.7l4,71.5c0,0,41.3,24.2,72.7,20.7v-73.1L336.6,220.9z" id="el_EwQKsEgsUp"/>
	<path d="M402.7,232.5l-31.4,53.3c0,0,3.6,71.9,7.2,73.9c3.6,2,52.5-4.4,52.5-4.4s12.7-59.2,10.3-63.2&#10;&#9;&#9;S405.9,232.1,402.7,232.5z" id="el_uQk_TkAwMQ"/>
	<path d="M458.2,209.3l-15.8,80.4l-12.3,65.9c0,0,37.8-17.4,37.4-25.4c-0.4-7.9,8.7-82.7,7.6-87.4&#10;&#9;&#9;c-1.2-4.8-5-40.2-5-40.2L458.2,209.3z" id="el_OD0sOBsiHw"/>
	<polygon points="282.5,200.2 344.2,211.3 301.6,266.6 &#9;" id="el_Tzm6Lvy0oR"/>
	<polygon points="404.1,235.7 371.3,285.7 336.6,220.9 &#9;" id="el_Au58vXvaIL"/>
	<polygon points="469.9,201.5 457.9,211.8 441.6,294.4 402.7,233.6 &#9;" id="el_8xVaDVolZX"/>
	<polygon points="357.6,225.1 299.4,165 281,203 &#9;" id="el_oqlwwpFmRa"/>
	<polygon points="400.1,237.7 455.8,171.1 470.1,202.6 &#9;" id="el_KNbchWviZv"/>
	<polygon points="327.6,219.5 377.8,204.4 389,219.5 417.4,219.5 428,228 411.5,236.4 377.8,249.2 357.6,225.1 &#10;&#9;&#9;337.1,225.1 &#9;" id="el__h_lxQrp39C"/>
	<polygon points="362.4,217.8 374.6,214.1 384.8,227.9 409.7,227.9 408,228.7 380.4,239.3 &#9;" id="el_7u3hhp6zyVL"/>
	<path d="M338.1,225.5c0,0.8-1.9,1.6-3.5,1.7s-2.8-0.6-2.9-1.4s1.2-1.6,2.7-1.7C336,224,338,224.6,338.1,225.5z" id="el_w3xEWRyZZJ6"/>
	<path d="M330.9,219.3c0,0.9-2.1,1.7-3.7,1.8c-1.6,0.1-3-0.6-3.1-1.5c0-0.9,1.3-1.7,2.9-1.8&#10;&#9;&#9;C328.7,217.7,330.8,218.4,330.9,219.3z" id="el_aAPG-7TaNUB"/>
	<path d="M341.4,216.8c-0.2,0.9-2.4,1.2-4,0.9s-2.8-1.3-2.6-2.2c0.2-0.9,1.6-1.4,3.2-1&#10;&#9;&#9;C339.6,214.8,341.5,215.9,341.4,216.8z" id="el_Rifvul4f6_6"/>
	<path d="M354.1,213.8c-0.4,0.8-2.6,0.7-4.1,0s-2.4-1.9-2.1-2.7c0.4-0.8,1.9-1,3.4-0.3S354.4,213,354.1,213.8z" id="el_KpQHDuYvqUs"/>
	<path d="M363,232.9c0.3,0.8-1.3,2.2-2.7,2.7s-2.9,0.4-3.2-0.4c-0.3-0.8,0.6-1.9,2-2.5&#10;&#9;&#9;C360.6,232.3,362.7,232.1,363,232.9z" id="el_gUJaVwC8UgC"/>
	<path d="M409,237.3c0.8,0,1.6,1.9,1.7,3.5c0.1,1.5-0.6,2.8-1.4,2.9c-0.8,0-1.6-1.2-1.6-2.7S408.1,237.3,409,237.3z" id="el_ZlF4xDp3F8O"/>
	<path d="M411.6,233.6c0.6-0.6,2.5,0.5,3.5,1.6c1,1.2,1.3,2.5,0.7,3.1c-0.6,0.6-2,0.1-3-1.1&#10;&#9;&#9;C411.8,236.1,411,234.2,411.6,233.6z" id="el_YrnnqK6JwhO"/>
	<path d="M418.8,232.5c0.6-0.6,2.5,0.5,3.5,1.6c1,1.2,1.3,2.5,0.7,3.1c-0.6,0.6-2,0.1-3-1.1&#10;&#9;&#9;C419,235,418.2,233.1,418.8,232.5z" id="el_HYHMkfn9b_6"/>
	<path d="M420.2,229.7c0.1-0.8,2.2-1.3,3.7-1.1c1.5,0.2,2.7,1,2.6,1.9s-1.4,1.4-3,1.2&#10;&#9;&#9;C422,231.5,420.1,230.6,420.2,229.7z" id="el_y6u6eeCe3Je"/>
	<path d="M372.1,237.1c0.2,0.8-1.5,2-3,2.4c-1.5,0.4-2.9,0.1-3.1-0.8c-0.2-0.8,0.8-1.8,2.3-2.2&#10;&#9;&#9;C369.7,236.1,371.9,236.3,372.1,237.1z" id="el_fiQSbdI5iX5"/>
	<path d="M376.9,242.8c0.7,0.6,0,2.7-1,4c-1,1.3-2.4,1.9-3.1,1.3s-0.5-2.1,0.6-3.4&#10;&#9;&#9;C374.3,243.5,376.2,242.2,376.9,242.8z" id="el_MzZcTmi85p2"/>
	<path d="M390.3,242.5c0.7,0.1,1.1,2,0.8,3.3c-0.2,1.3-1,2.3-1.7,2.2c-0.7-0.1-1.2-1.3-0.9-2.7&#10;&#9;&#9;S389.5,242.4,390.3,242.5z" id="el_n189Gg_nsBY"/>
	<path d="M383.4,244c0.9-0.1,1.8,1.8,1.9,3.4c0.2,1.6-0.4,2.9-1.2,3s-1.7-1.1-1.9-2.6&#10;&#9;&#9;C382.1,246.2,382.6,244.1,383.4,244z" id="el_BbluhGWdpK3"/>
	<path d="M368.9,241.7c0.4,0.8-1,2.5-2.5,3.3c-1.4,0.8-3,0.8-3.4,0.1c-0.4-0.8,0.3-2.1,1.8-2.9&#10;&#9;&#9;C366.2,241.3,368.4,240.9,368.9,241.7z" id="el_nx7wpYexRLB"/>
	<path d="M358.2,209.4c0.4-0.4-0.2-1.5-0.9-2.1c-0.7-0.6-1.5-0.9-1.9-0.5s-0.1,1.2,0.6,1.8&#10;&#9;&#9;C356.7,209.3,357.9,209.8,358.2,209.4z" id="el_0jLBPKlP6QX"/>
	<path d="M383.9,215.3c0.7,0.4,2.3-1,3.1-2.4c0.8-1.4,0.8-2.8,0-3.2s-2,0.3-2.7,1.7&#10;&#9;&#9;C383.5,212.7,383.1,214.8,383.9,215.3z" id="el_yDXKmbwGk-4"/>
	<path d="M377.6,207.2c0.7,0.4,2.3-1,3.1-2.4c0.8-1.4,0.8-2.8,0-3.2s-2,0.3-2.7,1.7&#10;&#9;&#9;C377.2,204.7,376.8,206.8,377.6,207.2z" id="el_85ipExx1qCZ"/>
	<path d="M373.1,206.2c0.8-0.3,0.8-2.4,0.3-3.9c-0.5-1.5-1.6-2.4-2.4-2.1s-1,1.7-0.5,3.2&#10;&#9;&#9;C371,204.9,372.3,206.5,373.1,206.2z" id="el_7IevLkxwJ6R"/>
	<path d="M365.4,209.3c0.8-0.3,0.8-2.4,0.3-3.9s-1.6-2.4-2.4-2.1s-1,1.7-0.5,3.2C363.3,207.9,364.6,209.6,365.4,209.3z&#10;&#9;&#9;" id="el_FJBPN7qOU8m"/>
	<path d="M402.1,217.5c0.9-0.3,1-2.5,0.5-4.1c-0.5-1.6-1.5-2.7-2.4-2.4c-0.9,0.3-1.2,1.7-0.8,3.3&#10;&#9;&#9;C400,215.9,401.3,217.8,402.1,217.5z" id="el_lsISkzl4k7h"/>
	<path d="M414.4,222.8c0.7,0.2,1.7-1.4,2-2.8c0.3-1.3,0-2.5-0.8-2.7c-0.7-0.2-1.6,0.8-1.9,2.1&#10;&#9;&#9;C413.5,220.8,413.7,222.6,414.4,222.8z" id="el_2G_jKNjyF8W"/>
	<path d="M408.6,218.8c0.8,0.4,2.3-1,3.1-2.4s0.7-2.8,0-3.2c-0.8-0.4-2,0.4-2.7,1.7&#10;&#9;&#9;C408.2,216.3,407.9,218.4,408.6,218.8z" id="el_Iqrz9ND4SK7"/>
	<path d="M394.3,215.5c0.7-0.6,0-2.7-1-4c-1-1.3-2.4-1.9-3.1-1.3c-0.7,0.6-0.5,2.1,0.6,3.4&#10;&#9;&#9;C391.7,214.8,393.5,216.1,394.3,215.5z" id="el_NsAROYSRi6Y"/>
	<path d="M357.7,228.3c0,0.9-2.1,1.7-3.7,1.8c-1.6,0.1-3-0.6-3.1-1.5c0-0.9,1.3-1.7,2.9-1.8&#10;&#9;&#9;C355.5,226.8,357.7,227.4,357.7,228.3z" id="el_scza1y48TfZ"/>
</g></g>
<g id="el_gWHDXeRhRky_an_ROVrq0U8t" data-animator-group="true" data-animator-type="0"><g id="el_gWHDXeRhRky">
	<polygon points="147.7,274.3 211,219.5 245.3,274.3 211,295.4 &#9;" id="el_a2jxeAgw2Ra"/>
	<path d="M119,322.3l-19.1-66.4c0,0-26.6,36.2,12.7,129.9c0,0,3.6,4.4,10.3,7.9L119,322.3z" id="el_B3VySnRPQkB"/>
	<path d="M153.9,276.6l-35,45.7l4,71.5c0,0,41.3,24.2,72.7,20.7v-73.1L153.9,276.6z" id="el_Lpm0Mt4uZch"/>
	<path d="M220.1,288.1l-31.4,53.3c0,0,3.6,71.9,7.2,73.9s52.5-4.4,52.5-4.4s12.7-59.2,10.3-63.2&#10;&#9;&#9;S223.3,287.7,220.1,288.1z" id="el_GTL6kd2U68x"/>
	<path d="M275.6,265l-15.8,80.4l-12.3,65.9c0,0,37.8-17.4,37.4-25.4s8.7-82.7,7.6-87.4c-1.2-4.8-5-40.2-5-40.2&#10;&#9;&#9;L275.6,265z" id="el_mGNxd1vf2si"/>
	<polygon points="99.9,255.9 161.6,266.9 119,322.3 &#9;" id="el_6AipsObyu1x"/>
	<polygon points="221.5,291.4 188.7,341.4 153.9,276.6 &#9;" id="el_Cv80uACEAcT"/>
	<polygon points="287.2,257.1 275.3,267.5 258.9,350 220.1,289.3 &#9;" id="el_EFrh4-0dLju"/>
	<polygon points="174.9,280.7 116.8,220.7 98.4,258.7 &#9;" id="el_VaXAazRSE9P"/>
	<polygon points="217.5,293.4 273.2,226.8 287.4,258.3 &#9;" id="el_jC_E7E-MT0_"/>
	<polygon points="145,275.2 195.2,260.1 206.4,275.2 234.7,275.2 245.3,283.6 228.8,292.1 195.2,304.9 174.9,280.7 &#10;&#9;&#9;154.4,280.8 &#9;" id="el_MbzQcV66YZq"/>
	<polygon points="179.8,273.5 191.9,269.8 202.2,283.6 227,283.6 225.4,284.4 197.8,294.9 &#9;" id="el_41Lkqujytla"/>
	<path d="M155.4,281.1c0,0.8-1.9,1.6-3.5,1.7c-1.5,0.1-2.8-0.6-2.9-1.4c0-0.8,1.2-1.6,2.7-1.7&#10;&#9;&#9;C153.3,279.7,155.4,280.3,155.4,281.1z" id="el_MGwaxajFTba"/>
	<path d="M148.2,274.9c0,0.9-2.1,1.7-3.7,1.8c-1.6,0.1-3-0.6-3.1-1.5c0-0.9,1.3-1.7,2.9-1.8&#10;&#9;&#9;C146,273.4,148.2,274,148.2,274.9z" id="el_BGl8MdEWQJ3"/>
	<path d="M158.7,272.4c-0.2,0.9-2.4,1.2-4,0.9c-1.6-0.3-2.8-1.3-2.6-2.2c0.2-0.9,1.6-1.4,3.2-1&#10;&#9;&#9;C157,270.4,158.9,271.5,158.7,272.4z" id="el_2f2gTrXLME6"/>
	<path d="M171.4,269.5c-0.4,0.8-2.6,0.7-4.1,0c-1.5-0.7-2.4-1.9-2.1-2.7c0.4-0.8,1.9-1,3.4-0.3&#10;&#9;&#9;C170.1,267.1,171.8,268.7,171.4,269.5z" id="el_F56-ZGUzjd_"/>
	<path d="M180.3,288.6c0.3,0.8-1.3,2.2-2.7,2.7c-1.4,0.6-2.9,0.4-3.2-0.4c-0.3-0.8,0.6-1.9,2-2.5&#10;&#9;&#9;C177.9,287.9,180,287.8,180.3,288.6z" id="el_mXkEkl39VEc"/>
	<path d="M226.3,292.9c0.8,0,1.6,1.9,1.7,3.5c0.1,1.5-0.6,2.8-1.4,2.9c-0.8,0-1.6-1.2-1.6-2.7&#10;&#9;&#9;C224.9,295,225.5,293,226.3,292.9z" id="el_tMSfLNKN_AZ"/>
	<path d="M229,289.3c0.6-0.6,2.5,0.5,3.5,1.6c1,1.2,1.3,2.5,0.7,3.1s-2,0.1-3-1.1C229.1,291.8,228.3,289.8,229,289.3z" id="el_8_QieT5BMLM"/>
	<path d="M236.2,288.2c0.6-0.6,2.5,0.5,3.5,1.6c1,1.2,1.3,2.5,0.7,3.1s-2,0.1-3-1.1&#10;&#9;&#9;C236.3,290.7,235.5,288.7,236.2,288.2z" id="el_TM-bd-t_HyY"/>
	<path d="M237.5,285.4c0.1-0.8,2.2-1.3,3.7-1.1c1.5,0.2,2.7,1,2.6,1.9c-0.1,0.8-1.4,1.4-3,1.2&#10;&#9;&#9;C239.3,287.1,237.4,286.2,237.5,285.4z" id="el_ITGyZFt8jjA"/>
	<path d="M189.5,292.8c0.2,0.8-1.5,2-3,2.4s-2.9,0.1-3.1-0.8s0.8-1.8,2.3-2.2S189.2,291.9,189.5,292.8z" id="el_5U6Dt5Ej__2"/>
	<path d="M194.3,298.5c0.7,0.6,0,2.7-1,4c-1,1.3-2.4,1.9-3.1,1.3c-0.7-0.6-0.5-2.1,0.6-3.4&#10;&#9;&#9;C191.7,299.1,193.6,297.9,194.3,298.5z" id="el_Y8oYf9HZ7dA"/>
	<path d="M207.6,298.2c0.7,0.1,1.1,2,0.8,3.3s-1,2.3-1.7,2.2c-0.7-0.1-1.2-1.3-0.9-2.7&#10;&#9;&#9;C206,299.7,206.9,298.1,207.6,298.2z" id="el_iKyJL5RCIFc"/>
	<path d="M200.8,299.7c0.9-0.1,1.8,1.8,1.9,3.4c0.2,1.6-0.4,2.9-1.2,3c-0.9,0.1-1.7-1.1-1.9-2.6&#10;&#9;&#9;C199.4,301.8,199.9,299.8,200.8,299.7z" id="el_Y0qhI0P7g2c"/>
	<path d="M186.2,297.4c0.4,0.8-1,2.5-2.5,3.3c-1.4,0.8-3,0.8-3.4,0.1c-0.4-0.8,0.3-2.1,1.8-2.9&#10;&#9;&#9;C183.5,297,185.8,296.6,186.2,297.4z" id="el_Ilg-aqH1gHf"/>
	<path d="M175.6,265.1c0.4-0.4-0.2-1.5-0.9-2.1c-0.7-0.6-1.5-0.9-1.9-0.5c-0.4,0.4-0.1,1.2,0.6,1.8&#10;&#9;&#9;C174.1,264.9,175.2,265.5,175.6,265.1z" id="el_5JNhGXBEdFP"/>
	<path d="M201.2,270.9c0.7,0.4,2.3-1,3.1-2.4c0.8-1.4,0.8-2.8,0-3.2c-0.7-0.4-2,0.3-2.7,1.7&#10;&#9;&#9;C200.9,268.4,200.5,270.5,201.2,270.9z" id="el_l4iqmTmRXx2"/>
	<path d="M195,262.9c0.7,0.4,2.3-1,3.1-2.4s0.8-2.8,0-3.2c-0.7-0.4-2,0.3-2.7,1.7C194.6,260.3,194.2,262.4,195,262.9z" id="el_evbeO_ehhZL"/>
	<path d="M190.5,261.9c0.8-0.3,0.8-2.4,0.3-3.9c-0.5-1.5-1.6-2.4-2.4-2.1c-0.8,0.3-1,1.7-0.5,3.2&#10;&#9;&#9;C188.3,260.5,189.7,262.2,190.5,261.9z" id="el_-A99i6XdW-x"/>
	<path d="M182.8,265c0.8-0.3,0.8-2.4,0.3-3.9c-0.5-1.5-1.6-2.4-2.4-2.1c-0.8,0.3-1,1.7-0.5,3.2&#10;&#9;&#9;C180.6,263.6,182,265.2,182.8,265z" id="el_7XNkbwev9Yi"/>
	<path d="M219.5,273.2c0.9-0.3,1-2.5,0.5-4.1c-0.5-1.6-1.5-2.7-2.4-2.4c-0.9,0.3-1.2,1.7-0.8,3.3&#10;&#9;&#9;S218.6,273.4,219.5,273.2z" id="el_p0cGz1OMSRU"/>
	<path d="M231.8,278.5c0.7,0.2,1.7-1.4,2-2.8c0.3-1.3,0-2.5-0.8-2.7s-1.6,0.8-1.9,2.1&#10;&#9;&#9;C230.9,276.4,231.1,278.3,231.8,278.5z" id="el_8BiACDuAW-b"/>
	<path d="M226,274.5c0.8,0.4,2.3-1,3.1-2.4s0.7-2.8,0-3.2c-0.8-0.4-2,0.4-2.7,1.7S225.2,274.1,226,274.5z" id="el_SxjVkj5xZ-E"/>
	<path d="M211.6,271.1c0.7-0.6,0-2.7-1-4c-1-1.3-2.4-1.9-3.1-1.3s-0.5,2.1,0.6,3.4C209,270.5,210.9,271.7,211.6,271.1z&#10;&#9;&#9;" id="el_HnWffSyHi2M"/>
	<path d="M175.1,284c0,0.9-2.1,1.7-3.7,1.8c-1.6,0.1-3-0.6-3.1-1.5c0-0.9,1.3-1.7,2.9-1.8&#10;&#9;&#9;C172.9,282.4,175,283.1,175.1,284z" id="el_7Fr04xq6DJK"/>
</g></g>
</svg>