<?xml version="1.0" encoding="utf-8"?>
<!-- Generator: Adobe Illustrator 22.1.0, SVG Export Plug-In . SVG Version: 6.00 Build 0)  -->
<svg version="1.1" id="Layer_1" xmlns="http://www.w3.org/2000/svg" xmlns:xlink="http://www.w3.org/1999/xlink" x="0px" y="0px"
	 viewBox="0 0 208 134" style="enable-background:new 0 0 208 134;" xml:space="preserve">
<style type="text/css">
	.st0{fill:#F9D4AF;}
	.st1{fill:#E8B343;}
	.st2{fill:#F4C141;}
	.st3{fill:none;}
</style>
<path class="st0" d="M169.5,14.9h-131c-8.7,0-15.8,6.8-15.8,15.2v73.7c0,8.4,7.1,15.2,15.8,15.2h131c8.7,0,15.8-6.8,15.8-15.2V30.1
	C185.2,21.8,178.2,14.9,169.5,14.9z M45.5,81.2c0,3.6-3,6.5-6.7,6.5l0,0c-3.7,0-6.7-2.9-6.7-6.5V55c0-3.6,3-6.5,6.7-6.5l0,0
	c3.7,0,6.7,2.9,6.7,6.5V81.2z"/>
<path class="st1" d="M83.9,205.9c0-0.3,0-0.5-0.1-0.8c0,0.3,0,0.6,0.1,1C84,206,84,205.9,83.9,205.9z"/>
<path class="st1" d="M83.6,209.7c0,0.1,0.1,0.2,0.1,0.3c0,0,0-0.1,0-0.1C83.6,209.8,83.6,209.7,83.6,209.7z"/>
<path class="st2" d="M83.8,210.5c-0.1-0.2-0.1-0.4-0.1-0.5C83.7,210.2,83.8,210.3,83.8,210.5z"/>
<path class="st2" d="M88.1,219.3c-0.2-0.2-0.5-0.6-0.8-1.3C87.5,218.4,87.8,218.8,88.1,219.3z"/>
<line class="st3" x1="100.5" y1="234.7" x2="100.5" y2="235.9"/>
<line class="st3" x1="100.7" y1="224.6" x2="100.7" y2="226.3"/>
</svg>
