<?xml version="1.0" encoding="utf-8"?>
<!-- Generator: Adobe Illustrator 22.1.0, SVG Export Plug-In . SVG Version: 6.00 Build 0)  -->
<svg version="1.1" id="Layer_1" xmlns="http://www.w3.org/2000/svg" xmlns:xlink="http://www.w3.org/1999/xlink" x="0px" y="0px"
	 viewBox="0 0 208 134" style="enable-background:new 0 0 208 134;" xml:space="preserve">
<style type="text/css">
	.st0{fill:#FFDF99;}
	.st1{fill:#E8B343;}
	.st2{fill:#F4C141;}
	.st3{fill:none;}
	.st4{fill:#FFED9F;}
	.st5{fill:#834E40;}
</style>
<ellipse class="st0" cx="104.7" cy="68.2" rx="6.1" ry="21.5"/>
<path class="st1" d="M83.9,205.9c0-0.3,0-0.5-0.1-0.8c0,0.3,0,0.6,0.1,1C84,206,84,205.9,83.9,205.9z"/>
<path class="st1" d="M83.6,209.7c0,0.1,0.1,0.2,0.1,0.3v-0.1C83.6,209.8,83.6,209.7,83.6,209.7z"/>
<path class="st2" d="M83.8,210.5c-0.1-0.2-0.1-0.4-0.1-0.5C83.7,210.2,83.8,210.3,83.8,210.5z"/>
<path class="st2" d="M88.1,219.3c-0.2-0.2-0.5-0.6-0.8-1.3C87.5,218.4,87.8,218.8,88.1,219.3z"/>
<line class="st3" x1="100.5" y1="234.7" x2="100.5" y2="235.9"/>
<line class="st3" x1="100.7" y1="224.6" x2="100.7" y2="226.3"/>
<line class="st3" x1="100.5" y1="89.7" x2="100.5" y2="90.9"/>
<line class="st3" x1="100.7" y1="79.6" x2="100.7" y2="81.3"/>
<g>
	<path class="st1" d="M107.7,90.9c-0.9,0.2-1.6,0.2-2,0.2c-0.2,0-0.4,0-0.6,0.1c-1.3,0.2-2.8-0.5-4.4-1.5l0.1-8.4l0,0
		c0.9,0.1,1.9,0.2,2.8,0.1c1.2-0.1,2.4-0.4,3.6-0.8L107.7,90.9z"/>
	<path class="st1" d="M104.4,47.1c-0.7-0.1-2.5,0.1-2.8-1.1c0,0,0.2,0.1,0,0c0.9,0.2,1,0.2,1.5,0.3c0.2,0.1,0.5,0.1,0.7,0.2
		c0.3,0.1,0.5,0.1,0.8,0.1c0.4,0,0.8,0.1,1.2,0.1c0.1,0,0.1,0,0.2,0c-0.1,0.1,0.1,0.5-0.1,0.5l-0.2,0.1c-0.2,0.1,0,0.2-0.1,0.1
		c0,0-0.3,0-0.7-0.1C104.8,47.4,104.4,47.1,104.4,47.1z"/>
	<path class="st4" d="M103.6,64.3c-1.8-0.8-2.8-0.4-1.7-2.4c0,0,2.8-1.9,3.4,0C105.4,61.9,105.5,65.1,103.6,64.3z"/>
	<path class="st2" d="M107.3,80.6c-1.3,0.4-2.5,0.7-3.6,0.8c-0.9,0.1-1.9,0-2.8-0.1l0.7-35.3c0.2,0,0.4,0.1,0.6,0.2
		c0.7,0.2,1.4,0.4,1.9,0.6c0.1,0,0.1,0,0.2,0.1h0.1h0.1c0.3,0.1,0.5,0.2,0.5,0.2c0.1,0.1,0.3,0.1,0.5,0l0,0c0.2,0,0.4,0,0.5-0.2l0,0
		c0,0,0,0,0.1,0l0.1,3c-2.7,2.1-1.1,8.6-1.1,8.6c0.4,0.9,0.9,1.6,1.5,2.1l0,0L107.3,80.6z"/>
	<path class="st4" d="M106.5,60.5c-0.6-0.5-1.1-1.2-1.5-2.1c0,0-1.5-6.5,1.1-8.6L106.5,60.5z"/>
	<path class="st4" d="M103.6,64.3c-1.8-0.8-2.8-0.4-1.7-2.4c0,0,2.8-1.9,3.4,0C105.4,61.9,105.5,65.1,103.6,64.3z"/>
	<path class="st5" d="M106.4,42.3c0,0-0.5,3.4-0.5,4.3c0,0.1,0,0.2-0.1,0.2l0,0c-0.1,0.1-0.3,0.2-0.5,0.2l0,0c-0.3,0-0.7-0.1-1-0.2
		c-0.1,0-0.1,0-0.1,0c-0.3-0.1-0.5-0.2-0.5-0.2s0,0,0-0.1c-0.1-0.3,0.3-1.8-0.7-2.5l1.4-1.8L106.4,42.3L106.4,42.3z"/>
	<line class="st3" x1="106" y1="46.9" x2="106" y2="46.6"/>
</g>
</svg>
