<?xml version="1.0" encoding="utf-8"?>
<!-- Generator: Adobe Illustrator 22.1.0, SVG Export Plug-In . SVG Version: 6.00 Build 0)  -->
<svg version="1.1" id="Promegranade" xmlns="http://www.w3.org/2000/svg" xmlns:xlink="http://www.w3.org/1999/xlink" x="0px"
	 y="0px" viewBox="0 0 674 338.6" style="enable-background:new 0 0 674 338.6;" xml:space="preserve">
<style type="text/css">
	.st0{fill:#EFEFEF;}
	.st1{fill:#F4F4F4;}
	.st2{fill:#EAEAEA;}
	.st3{fill:#6D8418;}
	.st4{fill:#91B23D;}
	.st5{fill:#93AA33;}
	.st6{fill:#9EB247;}
	.st7{fill:#80973B;}
	.st8{fill:#74931D;}
	.st9{fill:#697C22;}
	.st10{fill:#719119;}
	.st11{fill:#7E991C;}
	.st12{fill:#6C7C0E;}
	.st13{fill:#EBC478;}
	.st14{fill:#EFD8B6;}
	.st15{fill:#070707;}
</style>
<g id="Plate_2_">
	<ellipse class="st0" cx="337.2" cy="218.4" rx="336.1" ry="110.8"/>
	<ellipse class="st1" cx="337.2" cy="211.4" rx="336.1" ry="110.8"/>
	<ellipse class="st2" cx="337.2" cy="200.5" rx="236.3" ry="77.8"/>
</g>
<g>
	<polygon class="st3" points="377.8,74.6 444,17.2 479.9,74.6 444,96.5 	"/>
	<path class="st4" d="M347.9,124.6l-20-69.4c0,0-27.8,37.8,13.3,135.7c0,0,3.8,4.6,10.8,8.3L347.9,124.6z"/>
	<path class="st5" d="M384.4,76.9l-36.6,47.7l4.2,74.7c0,0,43.1,25.3,75.9,21.6v-76.4L384.4,76.9z"/>
	<path class="st6" d="M453.5,89l-32.8,55.7c0,0,3.8,75.1,7.5,77.2c3.8,2.1,54.8-4.6,54.8-4.6s13.3-61.8,10.8-66S456.8,88.6,453.5,89
		z"/>
	<path class="st7" d="M511.4,64.8l-16.5,84l-12.8,68.8c0,0,39.5-18.2,39.1-26.5c-0.4-8.3,9.1-86.4,7.9-91.3c-1.3-5-5.2-42-5.2-42
		L511.4,64.8z"/>
	<polygon class="st8" points="327.9,55.3 392.4,66.9 347.9,124.6 	"/>
	<polygon class="st9" points="454.9,92.3 420.7,144.6 384.4,76.9 	"/>
	<polygon class="st10" points="523.7,56.6 511.1,67.4 494.1,153.7 453.5,90.1 	"/>
	<polygon class="st11" points="406.4,81.3 345.6,18.5 326.3,58.2 	"/>
	<polygon class="st12" points="450.7,94.4 508.9,24.9 523.9,57.8 	"/>
	<polygon class="st13" points="375,75.4 427.5,59.6 439.2,75.4 468.8,75.4 479.9,84.3 462.7,93.1 427.5,106.4 406.4,81.3 
		384.9,81.3 	"/>
	<polygon class="st14" points="411.4,73.6 424.1,69.8 434.8,84.2 460.8,84.2 459,85 430.2,96.1 	"/>
	<path class="st15" d="M386,81.7c0,0.8-2,1.7-3.7,1.8c-1.7,0.1-2.9-0.6-3-1.5s1.3-1.7,2.8-1.8C383.8,80.1,385.9,80.7,386,81.7z"/>
	<path class="st15" d="M378.5,75.2c0,0.9-2.2,1.8-3.9,1.9c-1.7,0.1-3.1-0.6-3.2-1.6c0-0.9,1.4-1.8,3-1.9
		C376.2,73.5,378.4,74.3,378.5,75.2z"/>
	<path class="st15" d="M389.4,72.6c-0.2,0.9-2.5,1.3-4.2,0.9c-1.7-0.3-2.9-1.4-2.7-2.3c0.2-0.9,1.7-1.5,3.3-1
		C387.6,70.5,389.5,71.7,389.4,72.6z"/>
	<path class="st15" d="M402.7,69.5c-0.4,0.8-2.7,0.7-4.3,0s-2.5-2-2.2-2.8c0.4-0.8,2-1,3.6-0.3C401.3,67.1,403,68.6,402.7,69.5z"/>
	<path class="st15" d="M412,89.4c0.3,0.8-1.4,2.3-2.8,2.8c-1.5,0.5-3,0.4-3.3-0.4c-0.3-0.8,0.6-2,2.1-2.6
		C409.5,88.8,411.7,88.6,412,89.4z"/>
	<path class="st15" d="M460,94c0.8,0,1.7,2,1.8,3.7c0.1,1.6-0.6,2.9-1.5,3c-0.8,0-1.7-1.3-1.7-2.8S459.1,94,460,94z"/>
	<path class="st15" d="M462.8,90.1c0.6-0.6,2.6,0.5,3.7,1.7c1,1.3,1.4,2.6,0.7,3.2c-0.6,0.6-2.1,0.1-3.1-1.1
		C463,92.8,462.1,90.8,462.8,90.1z"/>
	<path class="st15" d="M470.3,89c0.6-0.6,2.6,0.5,3.7,1.7c1,1.3,1.4,2.6,0.7,3.2c-0.6,0.6-2.1,0.1-3.1-1.1
		C470.5,91.6,469.7,89.6,470.3,89z"/>
	<path class="st15" d="M471.7,86.1c0.1-0.8,2.3-1.4,3.9-1.1c1.6,0.2,2.8,1,2.7,2c-0.1,0.9-1.5,1.5-3.1,1.3
		C473.6,88,471.6,87,471.7,86.1z"/>
	<path class="st15" d="M421.5,93.8c0.2,0.8-1.6,2.1-3.1,2.5c-1.6,0.4-3,0.1-3.2-0.8c-0.2-0.8,0.8-1.9,2.4-2.3
		C419,92.8,421.3,93,421.5,93.8z"/>
	<path class="st15" d="M426.5,99.8c0.7,0.6,0,2.8-1,4.2c-1,1.4-2.5,2-3.2,1.4s-0.5-2.2,0.6-3.6C423.8,100.5,425.8,99.1,426.5,99.8z"
		/>
	<path class="st15" d="M440.5,99.4c0.7,0.1,1.1,2.1,0.8,3.4c-0.2,1.4-1,2.4-1.8,2.3c-0.7-0.1-1.3-1.4-0.9-2.8
		C438.9,100.9,439.7,99.3,440.5,99.4z"/>
	<path class="st15" d="M433.3,101c0.9-0.1,1.9,1.9,2,3.6c0.2,1.7-0.4,3-1.3,3.1c-0.8,0.1-1.8-1.1-2-2.7
		C431.9,103.3,432.5,101.1,433.3,101z"/>
	<path class="st15" d="M418.2,98.6c0.4,0.8-1,2.6-2.6,3.4c-1.5,0.8-3.1,0.8-3.6,0.1c-0.4-0.8,0.3-2.2,1.9-3
		C415.3,98.2,417.6,97.8,418.2,98.6z"/>
	<path class="st15" d="M407,64.9c0.4-0.4-0.2-1.6-0.9-2.2c-0.7-0.6-1.6-0.9-2-0.5s-0.1,1.3,0.6,1.9C405.4,64.8,406.7,65.3,407,64.9z
		"/>
	<path class="st15" d="M433.8,71c0.7,0.4,2.4-1,3.2-2.5c0.8-1.5,0.8-2.9,0-3.3s-2.1,0.3-2.8,1.8C433.4,68.3,433,70.5,433.8,71z"/>
	<path class="st15" d="M427.2,62.6c0.7,0.4,2.4-1,3.2-2.5c0.8-1.5,0.8-2.9,0-3.3c-0.8-0.4-2.1,0.3-2.8,1.8
		C426.8,60,426.4,62.2,427.2,62.6z"/>
	<path class="st15" d="M422.5,61.5c0.8-0.3,0.8-2.5,0.3-4.1c-0.5-1.6-1.7-2.5-2.5-2.2c-0.8,0.3-1,1.8-0.5,3.3
		C420.3,60.2,421.7,61.8,422.5,61.5z"/>
	<path class="st15" d="M414.5,64.8c0.8-0.3,0.8-2.5,0.3-4.1c-0.5-1.6-1.7-2.5-2.5-2.2s-1,1.8-0.5,3.3
		C412.3,63.3,413.7,65.1,414.5,64.8z"/>
	<path class="st15" d="M452.8,73.3c0.9-0.3,1-2.6,0.5-4.3c-0.5-1.7-1.6-2.8-2.5-2.5c-0.9,0.3-1.3,1.8-0.8,3.4
		C450.6,71.7,452,73.6,452.8,73.3z"/>
	<path class="st15" d="M465.7,78.9c0.7,0.2,1.8-1.5,2.1-2.9c0.3-1.4,0-2.6-0.8-2.8c-0.7-0.2-1.7,0.8-2,2.2
		C464.7,76.8,464.9,78.7,465.7,78.9z"/>
	<path class="st15" d="M459.6,74.7c0.8,0.4,2.4-1,3.2-2.5c0.8-1.5,0.7-2.9,0-3.3c-0.8-0.4-2.1,0.4-2.8,1.8
		C459.2,72.1,458.9,74.3,459.6,74.7z"/>
	<path class="st15" d="M444.7,71.2c0.7-0.6,0-2.8-1-4.2c-1-1.4-2.5-2-3.2-1.4c-0.7,0.6-0.5,2.2,0.6,3.6
		C442,70.5,443.9,71.9,444.7,71.2z"/>
	<path class="st15" d="M406.5,84.6c0,0.9-2.2,1.8-3.9,1.9c-1.7,0.1-3.1-0.6-3.2-1.6c0-0.9,1.4-1.8,3-1.9
		C404.2,83,406.5,83.7,406.5,84.6z"/>
</g>
<g>
	<polygon class="st3" points="187.1,132.7 253.2,75.4 289.1,132.7 253.2,154.7 	"/>
	<path class="st4" d="M157.1,182.8l-20-69.4c0,0-27.8,37.8,13.3,135.7c0,0,3.8,4.6,10.8,8.3L157.1,182.8z"/>
	<path class="st5" d="M193.6,135.1L157,182.8l4.2,74.7c0,0,43.1,25.3,75.9,21.6v-76.4L193.6,135.1z"/>
	<path class="st6" d="M262.7,147.1l-32.8,55.7c0,0,3.8,75.1,7.5,77.2s54.8-4.6,54.8-4.6s13.3-61.8,10.8-66
		C300.5,205.1,266.1,146.7,262.7,147.1z"/>
	<path class="st7" d="M320.7,122.9l-16.5,84l-12.8,68.8c0,0,39.5-18.2,39.1-26.5c-0.4-8.4,9.1-86.4,7.9-91.3c-1.3-5-5.2-42-5.2-42
		L320.7,122.9z"/>
	<polygon class="st8" points="137.2,113.4 201.6,124.9 157.1,182.8 	"/>
	<polygon class="st9" points="264.2,150.5 229.9,202.7 193.6,135.1 	"/>
	<polygon class="st10" points="332.8,114.7 320.4,125.6 303.3,211.7 262.7,148.3 	"/>
	<polygon class="st11" points="215.5,139.3 154.8,76.7 135.6,116.4 	"/>
	<polygon class="st12" points="260,152.6 318.2,83 333,115.9 	"/>
	<polygon class="st13" points="184.3,133.6 236.7,117.8 248.4,133.6 278,133.6 289.1,142.4 271.8,151.2 236.7,164.6 215.5,139.3 
		194.1,139.4 	"/>
	<polygon class="st14" points="220.6,131.8 233.3,128 244,142.4 269.9,142.4 268.3,143.2 239.4,154.2 	"/>
	<path class="st15" d="M195.2,139.8c0,0.8-2,1.7-3.7,1.8c-1.6,0.1-2.9-0.6-3-1.5c0-0.8,1.3-1.7,2.8-1.8
		C193,138.3,195.2,138.9,195.2,139.8z"/>
	<path class="st15" d="M187.6,133.3c0,0.9-2.2,1.8-3.9,1.9c-1.7,0.1-3.1-0.6-3.2-1.6c0-0.9,1.4-1.8,3-1.9
		C185.3,131.7,187.6,132.3,187.6,133.3z"/>
	<path class="st15" d="M198.6,130.7c-0.2,0.9-2.5,1.3-4.2,0.9c-1.7-0.3-2.9-1.4-2.7-2.3c0.2-0.9,1.7-1.5,3.3-1
		C196.8,128.6,198.8,129.7,198.6,130.7z"/>
	<path class="st15" d="M211.9,127.6c-0.4,0.8-2.7,0.7-4.3,0s-2.5-2-2.2-2.8c0.4-0.8,2-1,3.6-0.3
		C210.5,125.1,212.3,126.8,211.9,127.6z"/>
	<path class="st15" d="M221.2,147.6c0.3,0.8-1.4,2.3-2.8,2.8c-1.5,0.6-3,0.4-3.3-0.4c-0.3-0.8,0.6-2,2.1-2.6
		C218.7,146.9,220.8,146.8,221.2,147.6z"/>
	<path class="st15" d="M269.2,152.1c0.8,0,1.7,2,1.8,3.7c0.1,1.6-0.6,2.9-1.5,3c-0.8,0-1.7-1.3-1.7-2.8
		C267.7,154.3,268.4,152.2,269.2,152.1z"/>
	<path class="st15" d="M272,148.3c0.6-0.6,2.6,0.5,3.7,1.7c1,1.3,1.4,2.6,0.7,3.2s-2.1,0.1-3.1-1.1
		C272.1,150.9,271.3,148.8,272,148.3z"/>
	<path class="st15" d="M279.5,147.2c0.6-0.6,2.6,0.5,3.7,1.7c1,1.3,1.4,2.6,0.7,3.2c-0.6,0.6-2.1,0.1-3.1-1.1
		C279.7,149.8,278.8,147.7,279.5,147.2z"/>
	<path class="st15" d="M280.9,144.3c0.1-0.8,2.3-1.4,3.9-1.1c1.6,0.2,2.8,1,2.7,2c-0.1,0.8-1.5,1.5-3.1,1.3
		C282.8,146,280.8,145.1,280.9,144.3z"/>
	<path class="st15" d="M230.8,152c0.2,0.8-1.6,2.1-3.1,2.5c-1.6,0.4-3,0.1-3.2-0.8s0.8-1.9,2.4-2.3C228.4,150.9,230.5,151,230.8,152
		z"/>
	<path class="st15" d="M235.8,157.9c0.7,0.6,0,2.8-1,4.2s-2.5,2-3.2,1.4c-0.7-0.6-0.5-2.2,0.6-3.6
		C233.1,158.6,235.1,157.3,235.8,157.9z"/>
	<path class="st15" d="M249.7,157.6c0.7,0.1,1.1,2.1,0.8,3.4s-1,2.4-1.8,2.3c-0.7-0.1-1.3-1.4-0.9-2.8
		C248,159.2,248.9,157.5,249.7,157.6z"/>
	<path class="st15" d="M242.6,159.2c0.9-0.1,1.9,1.9,2,3.6c0.2,1.7-0.4,3-1.3,3.1c-0.9,0.1-1.8-1.1-2-2.7
		C241.1,161.4,241.6,159.3,242.6,159.2z"/>
	<path class="st15" d="M227.3,156.8c0.4,0.8-1,2.6-2.6,3.4c-1.5,0.8-3.1,0.8-3.6,0.1c-0.4-0.8,0.3-2.2,1.9-3
		C224.5,156.4,226.9,155.9,227.3,156.8z"/>
	<path class="st15" d="M216.3,123c0.4-0.4-0.2-1.6-0.9-2.2c-0.7-0.6-1.6-0.9-2-0.5c-0.4,0.4-0.1,1.3,0.6,1.9
		C214.7,122.8,215.8,123.5,216.3,123z"/>
	<path class="st15" d="M243,129.1c0.7,0.4,2.4-1,3.2-2.5c0.8-1.5,0.8-2.9,0-3.3c-0.7-0.4-2.1,0.3-2.8,1.8
		C242.7,126.5,242.3,128.7,243,129.1z"/>
	<path class="st15" d="M236.5,120.7c0.7,0.4,2.4-1,3.2-2.5c0.8-1.5,0.8-2.9,0-3.3c-0.7-0.4-2.1,0.3-2.8,1.8
		C236.1,118,235.7,120.2,236.5,120.7z"/>
	<path class="st15" d="M231.8,119.7c0.8-0.3,0.8-2.5,0.3-4.1c-0.5-1.6-1.7-2.5-2.5-2.2c-0.8,0.3-1,1.8-0.5,3.3
		C229.5,118.2,231,120,231.8,119.7z"/>
	<path class="st15" d="M223.8,122.9c0.8-0.3,0.8-2.5,0.3-4.1c-0.5-1.6-1.7-2.5-2.5-2.2c-0.8,0.3-1,1.8-0.5,3.3
		C221.5,121.5,222.9,123.2,223.8,122.9z"/>
	<path class="st15" d="M262.1,131.5c0.9-0.3,1-2.6,0.5-4.3s-1.6-2.8-2.5-2.5c-0.9,0.3-1.3,1.8-0.8,3.4
		C259.7,129.8,261.2,131.7,262.1,131.5z"/>
	<path class="st15" d="M275,137c0.7,0.2,1.8-1.5,2.1-2.9c0.3-1.4,0-2.6-0.8-2.8c-0.8-0.2-1.7,0.8-2,2.2
		C274,134.9,274.2,136.8,275,137z"/>
	<path class="st15" d="M268.9,132.9c0.8,0.4,2.4-1,3.2-2.5c0.8-1.5,0.7-2.9,0-3.3c-0.8-0.4-2.1,0.4-2.8,1.8
		C268.6,130.2,268.1,132.4,268.9,132.9z"/>
	<path class="st15" d="M253.9,129.3c0.7-0.6,0-2.8-1-4.2s-2.5-2-3.2-1.4c-0.7,0.6-0.5,2.2,0.6,3.6
		C251.1,128.7,253.1,129.9,253.9,129.3z"/>
	<path class="st15" d="M215.7,142.8c0,0.9-2.2,1.8-3.9,1.9c-1.7,0.1-3.1-0.6-3.2-1.6c0-0.9,1.4-1.8,3-1.9
		C213.4,141.1,215.6,141.8,215.7,142.8z"/>
</g>
</svg>
