<?xml version="1.0" encoding="utf-8"?>
<!-- Generator: Adobe Illustrator 22.1.0, SVG Export Plug-In . SVG Version: 6.00 Build 0)  -->
<svg version="1.1" id="Layer_1" xmlns="http://www.w3.org/2000/svg" xmlns:xlink="http://www.w3.org/1999/xlink" x="0px" y="0px"
	 viewBox="0 0 139.6 80.8" style="enable-background:new 0 0 139.6 80.8;" xml:space="preserve">
<style type="text/css">
	.st0{fill:#6D8418;}
	.st1{fill:#91B23D;}
	.st2{fill:#93AA33;}
	.st3{fill:#9EB247;}
	.st4{fill:#80973B;}
	.st5{fill:#74931D;}
	.st6{fill:#697C22;}
	.st7{fill:#719119;}
	.st8{fill:#7E991C;}
	.st9{fill:#6C7C0E;}
	.st10{fill:#EBC478;}
	.st11{fill:#EFD8B6;}
	.st12{fill:#070707;}
</style>
<g>
	<polygon class="st0" points="84.9,19.6 105.2,2 116.3,19.6 105.2,26.3 	"/>
	<path class="st1" d="M75.7,35l-6.1-21.3c0,0-8.5,11.6,4.1,41.7c0,0,1.2,1.4,3.3,2.5L75.7,35z"/>
	<path class="st2" d="M86.9,20.3L75.7,35L77,57.9c0,0,13.2,7.8,23.3,6.6V41.1L86.9,20.3z"/>
	<path class="st3" d="M108.2,24L98.1,41.1c0,0,1.2,23.1,2.3,23.7c1.2,0.6,16.8-1.4,16.8-1.4s4.1-19,3.3-20.3
		C119.8,41.9,109.2,23.9,108.2,24z"/>
	<path class="st4" d="M126,16.6l-5.1,25.8l-3.9,21.1c0,0,12.1-5.6,12-8.1c-0.1-2.5,2.8-26.5,2.4-28c-0.4-1.5-1.6-12.9-1.6-12.9
		L126,16.6z"/>
	<polygon class="st5" points="69.6,13.7 89.4,17.2 75.7,35 	"/>
	<polygon class="st6" points="108.6,25.1 98.1,41.1 86.9,20.3 	"/>
	<polygon class="st7" points="129.7,14.1 125.9,17.4 120.6,43.9 108.2,24.4 	"/>
	<polygon class="st8" points="93.7,21.7 75,2.4 69.1,14.6 	"/>
	<polygon class="st9" points="107.3,25.7 125.2,4.3 129.8,14.4 	"/>
	<polygon class="st10" points="84.1,19.9 100.2,15 103.8,19.9 112.9,19.9 116.3,22.6 111,25.3 100.2,29.4 93.7,21.7 87.1,21.7 	"/>
	<polygon class="st11" points="95.2,19.3 99.1,18.1 102.4,22.6 110.4,22.6 109.9,22.8 101,26.2 	"/>
	<path class="st12" d="M87.4,21.8c0,0.3-0.6,0.5-1.1,0.5c-0.5,0-0.9-0.2-0.9-0.4c0-0.3,0.4-0.5,0.9-0.5
		C86.8,21.3,87.4,21.5,87.4,21.8z"/>
	<path class="st12" d="M85.1,19.8c0,0.3-0.7,0.5-1.2,0.6s-1-0.2-1-0.5c0-0.3,0.4-0.5,0.9-0.6C84.4,19.3,85.1,19.5,85.1,19.8z"/>
	<path class="st12" d="M88.5,19c-0.1,0.3-0.8,0.4-1.3,0.3c-0.5-0.1-0.9-0.4-0.8-0.7c0.1-0.3,0.5-0.4,1-0.3
		C87.9,18.4,88.5,18.7,88.5,19z"/>
	<path class="st12" d="M92.6,18c-0.1,0.3-0.8,0.2-1.3,0s-0.8-0.6-0.7-0.9c0.1-0.3,0.6-0.3,1.1-0.1C92.1,17.3,92.7,17.8,92.6,18z"/>
	<path class="st12" d="M95.4,24.2c0.1,0.3-0.4,0.7-0.9,0.9s-0.9,0.1-1-0.1c-0.1-0.3,0.2-0.6,0.6-0.8C94.6,24,95.3,23.9,95.4,24.2z"
		/>
	<path class="st12" d="M110.2,25.6c0.3,0,0.5,0.6,0.5,1.1c0,0.5-0.2,0.9-0.4,0.9c-0.3,0-0.5-0.4-0.5-0.9
		C109.8,26.3,109.9,25.6,110.2,25.6z"/>
	<path class="st12" d="M111,24.4c0.2-0.2,0.8,0.2,1.1,0.5c0.3,0.4,0.4,0.8,0.2,1c-0.2,0.2-0.6,0-1-0.4
		C111.1,25.2,110.8,24.6,111,24.4z"/>
	<path class="st12" d="M113.3,24c0.2-0.2,0.8,0.2,1.1,0.5c0.3,0.4,0.4,0.8,0.2,1c-0.2,0.2-0.6,0-1-0.4
		C113.4,24.8,113.1,24.2,113.3,24z"/>
	<path class="st12" d="M113.8,23.1c0-0.3,0.7-0.4,1.2-0.4c0.5,0.1,0.9,0.3,0.8,0.6s-0.4,0.4-1,0.4C114.3,23.7,113.7,23.4,113.8,23.1
		z"/>
	<path class="st12" d="M98.3,25.5c0.1,0.3-0.5,0.6-1,0.8c-0.5,0.1-0.9,0-1-0.3c-0.1-0.3,0.3-0.6,0.7-0.7
		C97.6,25.2,98.3,25.3,98.3,25.5z"/>
	<path class="st12" d="M99.9,27.3c0.2,0.2,0,0.9-0.3,1.3c-0.3,0.4-0.8,0.6-1,0.4c-0.2-0.2-0.2-0.7,0.2-1.1
		C99,27.6,99.6,27.1,99.9,27.3z"/>
	<path class="st12" d="M104.2,27.2c0.2,0,0.4,0.6,0.3,1.1c-0.1,0.4-0.3,0.7-0.5,0.7s-0.4-0.4-0.3-0.9
		C103.7,27.7,103.9,27.2,104.2,27.2z"/>
	<path class="st12" d="M102,27.7c0.3,0,0.6,0.6,0.6,1.1c0.1,0.5-0.1,0.9-0.4,1c-0.3,0-0.5-0.4-0.6-0.8
		C101.5,28.4,101.7,27.8,102,27.7z"/>
	<path class="st12" d="M97.3,27c0.1,0.3-0.3,0.8-0.8,1.1c-0.4,0.3-1,0.3-1.1,0c-0.1-0.3,0.1-0.7,0.6-0.9
		C96.4,26.9,97.1,26.7,97.3,27z"/>
	<path class="st12" d="M93.9,16.6c0.1-0.1-0.1-0.5-0.3-0.7c-0.2-0.2-0.5-0.3-0.6-0.2c-0.1,0.1,0,0.4,0.2,0.6
		C93.4,16.6,93.8,16.8,93.9,16.6z"/>
	<path class="st12" d="M102.1,18.5c0.2,0.1,0.7-0.3,1-0.8c0.3-0.4,0.3-0.9,0-1c-0.3-0.1-0.6,0.1-0.9,0.5
		C102,17.7,101.9,18.4,102.1,18.5z"/>
	<path class="st12" d="M100.1,15.9c0.2,0.1,0.7-0.3,1-0.8c0.3-0.4,0.3-0.9,0-1c-0.3-0.1-0.6,0.1-0.9,0.5
		C100,15.1,99.8,15.8,100.1,15.9z"/>
	<path class="st12" d="M98.7,15.6c0.3-0.1,0.3-0.8,0.1-1.3c-0.2-0.5-0.5-0.8-0.8-0.7c-0.3,0.1-0.3,0.5-0.2,1
		C98,15.2,98.4,15.7,98.7,15.6z"/>
	<path class="st12" d="M96.2,16.6c0.3-0.1,0.3-0.8,0.1-1.3c-0.2-0.5-0.5-0.8-0.8-0.7c-0.3,0.1-0.3,0.5-0.2,1
		C95.5,16.1,95.9,16.7,96.2,16.6z"/>
	<path class="st12" d="M108,19.2c0.3-0.1,0.3-0.8,0.2-1.3c-0.2-0.5-0.5-0.9-0.8-0.8c-0.3,0.1-0.4,0.5-0.3,1.1
		C107.3,18.7,107.7,19.3,108,19.2z"/>
	<path class="st12" d="M111.9,20.9c0.2,0.1,0.5-0.4,0.6-0.9c0.1-0.4,0-0.8-0.3-0.9c-0.2-0.1-0.5,0.3-0.6,0.7
		C111.6,20.3,111.7,20.9,111.9,20.9z"/>
	<path class="st12" d="M110,19.6c0.3,0.1,0.7-0.3,1-0.8c0.3-0.4,0.2-0.9,0-1c-0.3-0.1-0.6,0.1-0.9,0.5
		C109.9,18.8,109.8,19.5,110,19.6z"/>
	<path class="st12" d="M105.5,18.6c0.2-0.2,0-0.9-0.3-1.3s-0.8-0.6-1-0.4c-0.2,0.2-0.2,0.7,0.2,1.1
		C104.6,18.4,105.2,18.8,105.5,18.6z"/>
	<path class="st12" d="M93.7,22.7c0,0.3-0.7,0.5-1.2,0.6c-0.5,0-1-0.2-1-0.5c0-0.3,0.4-0.5,0.9-0.6C93,22.2,93.7,22.4,93.7,22.7z"/>
</g>
<g>
	<polygon class="st0" points="26.4,34.4 46.7,16.9 57.7,34.4 46.7,41.2 	"/>
	<path class="st1" d="M17.1,49.8L11,28.5c0,0-8.5,11.6,4.1,41.7c0,0,1.2,1.4,3.3,2.5L17.1,49.8z"/>
	<path class="st2" d="M28.3,35.2L17.1,49.8l1.3,22.9c0,0,13.2,7.8,23.3,6.6V56L28.3,35.2z"/>
	<path class="st3" d="M49.6,38.9L39.5,56c0,0,1.2,23.1,2.3,23.7c1.2,0.6,16.8-1.4,16.8-1.4s4.1-19,3.3-20.3S50.6,38.7,49.6,38.9z"/>
	<path class="st4" d="M67.4,31.5l-5.1,25.8l-3.9,21.1c0,0,12.1-5.6,12-8.1c-0.1-2.6,2.8-26.5,2.4-28c-0.4-1.5-1.6-12.9-1.6-12.9
		L67.4,31.5z"/>
	<polygon class="st5" points="11,28.5 30.8,32.1 17.1,49.8 	"/>
	<polygon class="st6" points="50,39.9 39.5,56 28.3,35.2 	"/>
	<polygon class="st7" points="71.1,28.9 67.3,32.3 62,58.7 49.6,39.3 	"/>
	<polygon class="st8" points="35.1,36.5 16.4,17.3 10.5,29.4 	"/>
	<polygon class="st9" points="48.7,40.6 66.6,19.2 71.2,29.3 	"/>
	<polygon class="st10" points="25.5,34.7 41.6,29.9 45.2,34.7 54.3,34.7 57.7,37.4 52.4,40.2 41.6,44.3 35.1,36.5 28.5,36.5 	"/>
	<polygon class="st11" points="36.6,34.2 40.5,33 43.8,37.4 51.8,37.4 51.3,37.7 42.4,41.1 	"/>
	<path class="st12" d="M28.8,36.6c0,0.3-0.6,0.5-1.1,0.5c-0.5,0-0.9-0.2-0.9-0.4c0-0.3,0.4-0.5,0.9-0.5
		C28.1,36.2,28.8,36.4,28.8,36.6z"/>
	<path class="st12" d="M26.5,34.6c0,0.3-0.7,0.5-1.2,0.6c-0.5,0-1-0.2-1-0.5c0-0.3,0.4-0.5,0.9-0.6C25.8,34.2,26.5,34.3,26.5,34.6z"
		/>
	<path class="st12" d="M29.9,33.8c-0.1,0.3-0.8,0.4-1.3,0.3c-0.5-0.1-0.9-0.4-0.8-0.7c0.1-0.3,0.5-0.4,1-0.3
		C29.3,33.2,29.9,33.5,29.9,33.8z"/>
	<path class="st12" d="M34,32.9c-0.1,0.3-0.8,0.2-1.3,0c-0.5-0.2-0.8-0.6-0.7-0.9c0.1-0.3,0.6-0.3,1.1-0.1
		C33.5,32.1,34.1,32.6,34,32.9z"/>
	<path class="st12" d="M36.8,39c0.1,0.3-0.4,0.7-0.9,0.9c-0.4,0.2-0.9,0.1-1-0.1c-0.1-0.3,0.2-0.6,0.6-0.8
		C36,38.8,36.7,38.8,36.8,39z"/>
	<path class="st12" d="M51.6,40.4c0.3,0,0.5,0.6,0.5,1.1c0,0.5-0.2,0.9-0.4,0.9c-0.3,0-0.5-0.4-0.5-0.9
		C51.1,41.1,51.3,40.4,51.6,40.4z"/>
	<path class="st12" d="M52.4,39.3c0.2-0.2,0.8,0.2,1.1,0.5c0.3,0.4,0.4,0.8,0.2,1c-0.2,0.2-0.6,0-1-0.4
		C52.5,40.1,52.2,39.4,52.4,39.3z"/>
	<path class="st12" d="M54.7,38.9c0.2-0.2,0.8,0.2,1.1,0.5c0.3,0.4,0.4,0.8,0.2,1c-0.2,0.2-0.6,0-1-0.4
		C54.8,39.7,54.5,39.1,54.7,38.9z"/>
	<path class="st12" d="M55.2,38c0-0.3,0.7-0.4,1.2-0.4c0.5,0.1,0.9,0.3,0.8,0.6c0,0.3-0.4,0.4-1,0.4C55.7,38.6,55.1,38.3,55.2,38z"
		/>
	<path class="st12" d="M39.8,40.4c0.1,0.3-0.5,0.6-1,0.8c-0.5,0.1-0.9,0-1-0.3c-0.1-0.3,0.3-0.6,0.7-0.7
		C39,40.1,39.7,40.1,39.8,40.4z"/>
	<path class="st12" d="M41.3,42.2c0.2,0.2,0,0.9-0.3,1.3c-0.3,0.4-0.8,0.6-1,0.4c-0.2-0.2-0.2-0.7,0.2-1.1
		C40.5,42.4,41.1,42,41.3,42.2z"/>
	<path class="st12" d="M45.6,42.1c0.2,0,0.4,0.6,0.3,1.1c-0.1,0.4-0.3,0.7-0.5,0.7c-0.2,0-0.4-0.4-0.3-0.9
		C45.1,42.6,45.3,42.1,45.6,42.1z"/>
	<path class="st12" d="M43.4,42.6c0.3,0,0.6,0.6,0.6,1.1c0.1,0.5-0.1,0.9-0.4,1c-0.3,0-0.5-0.4-0.6-0.8
		C42.9,43.3,43.1,42.6,43.4,42.6z"/>
	<path class="st12" d="M38.7,41.9c0.1,0.3-0.3,0.8-0.8,1.1c-0.4,0.3-1,0.3-1.1,0c-0.1-0.3,0.1-0.7,0.6-0.9
		C37.8,41.7,38.6,41.6,38.7,41.9z"/>
	<path class="st12" d="M35.3,31.5c0.1-0.1-0.1-0.5-0.3-0.7s-0.5-0.3-0.6-0.2c-0.1,0.1,0,0.4,0.2,0.6C34.8,31.4,35.2,31.6,35.3,31.5z
		"/>
	<path class="st12" d="M43.5,33.4c0.2,0.1,0.7-0.3,1-0.8c0.3-0.4,0.3-0.9,0-1c-0.2-0.1-0.6,0.1-0.9,0.5
		C43.4,32.6,43.3,33.2,43.5,33.4z"/>
	<path class="st12" d="M41.5,30.8c0.2,0.1,0.7-0.3,1-0.8c0.3-0.4,0.3-0.9,0-1c-0.2-0.1-0.6,0.1-0.9,0.5C41.4,30,41.3,30.6,41.5,30.8
		z"/>
	<path class="st12" d="M40.1,30.5c0.3-0.1,0.3-0.8,0.1-1.3c-0.2-0.5-0.5-0.8-0.8-0.7c-0.3,0.1-0.3,0.5-0.2,1
		C39.4,30,39.8,30.6,40.1,30.5z"/>
	<path class="st12" d="M37.6,31.5c0.3-0.1,0.3-0.8,0.1-1.3c-0.2-0.5-0.5-0.8-0.8-0.7c-0.3,0.1-0.3,0.5-0.2,1
		C36.9,31,37.4,31.5,37.6,31.5z"/>
	<path class="st12" d="M49.4,34.1c0.3-0.1,0.3-0.8,0.2-1.3s-0.5-0.9-0.8-0.8c-0.3,0.1-0.4,0.5-0.3,1.1
		C48.6,33.6,49.1,34.2,49.4,34.1z"/>
	<path class="st12" d="M53.3,35.8c0.2,0.1,0.5-0.4,0.6-0.9c0.1-0.4,0-0.8-0.3-0.9c-0.3-0.1-0.5,0.3-0.6,0.7
		C53,35.1,53.1,35.7,53.3,35.8z"/>
	<path class="st12" d="M51.5,34.5c0.3,0.1,0.7-0.3,1-0.8c0.3-0.4,0.2-0.9,0-1c-0.3-0.1-0.6,0.1-0.9,0.5
		C51.4,33.7,51.2,34.4,51.5,34.5z"/>
	<path class="st12" d="M46.8,33.4c0.2-0.2,0-0.9-0.3-1.3c-0.3-0.4-0.8-0.6-1-0.4s-0.2,0.7,0.2,1.1C46,33.2,46.6,33.6,46.8,33.4z"/>
	<path class="st12" d="M35.1,37.6c0,0.3-0.7,0.5-1.2,0.6c-0.5,0-1-0.2-1-0.5c0-0.3,0.4-0.5,0.9-0.6C34.4,37,35.1,37.3,35.1,37.6z"/>
</g>
</svg>
