<?xml version="1.0" encoding="utf-8"?>
<!-- Generator: Adobe Illustrator 22.1.0, SVG Export Plug-In . SVG Version: 6.00 Build 0)  -->
<svg version="1.1" id="Layer_1" xmlns="http://www.w3.org/2000/svg" xmlns:xlink="http://www.w3.org/1999/xlink" x="0px" y="0px"
	 viewBox="0 0 139.6 80.8" style="enable-background:new 0 0 139.6 80.8;" xml:space="preserve">
<style type="text/css">
	.st0{fill:#AABA4A;}
	.st1{fill:#9DBA42;}
	.st2{fill:#80973B;}
	.st3{fill:#EBC478;}
	.st4{fill:#EACFA2;}
	.st5{fill:#131213;}
</style>
<g>
	<path class="st0" d="M84,6.5l4.6,37c0,0-25.7,27.9-61.1,15.5l-5-27.8L84,6.5z"/>
	<path class="st1" d="M4.2,26.8l18.3,4.3l5,27.8C27.5,58.9,7.1,55.5,4.2,26.8z"/>
	<path class="st2" d="M4.2,26.8c0,0,47.5-20.9,60-19.1l19.1-0.9L22.6,31.1L4.2,26.8z"/>
	<path class="st3" d="M16.1,29.6c0,0-1.6,7.5,7.7,8.8L85,15l-1.7-8.2l-8.8,0.4"/>
	<polygon class="st4" points="22.5,31.1 23.9,38.4 85,15 83.3,6.8 	"/>
	<g>
		<path class="st5" d="M27.2,36.8c0,0-0.1,0.3-0.5,0.3c0,0-0.3,0,0-0.4c0,0,0.2-0.2,0.5-0.1C27,36.7,27.2,36.7,27.2,36.8z"/>
		<path class="st5" d="M27.1,38.1c0,0,0,0.4-0.4,0.5c0,0-0.3,0.1-0.2-0.3c0,0,0.1-0.2,0.4-0.2C26.9,38,27.1,38,27.1,38.1z"/>
		<path class="st5" d="M30.6,35.7c0,0,0,0.4-0.4,0.5c0,0-0.3,0.1-0.2-0.3c0,0,0.1-0.2,0.4-0.2C30.5,35.6,30.6,35.6,30.6,35.7z"/>
		<path class="st5" d="M28.7,35.7c0,0,0,0.4-0.4,0.5c0,0-0.3,0.1-0.2-0.3c0,0,0.1-0.2,0.4-0.2C28.5,35.6,28.7,35.6,28.7,35.7z"/>
		<path class="st5" d="M38.3,32.4c0,0-0.3,0.2-0.6-0.2c0,0-0.2-0.3,0.2-0.3c0,0,0.2,0,0.4,0.3C38.3,32.2,38.3,32.3,38.3,32.4z"/>
		<path class="st5" d="M29.5,37.6c0,0-0.2,0.2-0.7,0c0,0-0.3-0.2,0.1-0.3c0,0,0.3-0.1,0.5,0.1C29.4,37.4,29.6,37.5,29.5,37.6z"/>
		<path class="st5" d="M32.8,33.6c0,0-0.2,0.2-0.7,0c0,0-0.3-0.2,0.1-0.3c0,0,0.3-0.1,0.5,0.1C32.8,33.4,32.9,33.5,32.8,33.6z"/>
		<path class="st5" d="M37.8,33.4c0,0-0.2,0.2-0.7,0c0,0-0.3-0.2,0.1-0.3c0,0,0.3-0.1,0.5,0.1C37.7,33.3,37.9,33.3,37.8,33.4z"/>
		<path class="st5" d="M35,33.9c0,0,0,0.4-0.5,0.5c0,0-0.3,0.1-0.2-0.3c0,0,0.1-0.2,0.4-0.2C34.9,33.8,35,33.8,35,33.9z"/>
		<path class="st5" d="M33,35.6c0,0,0.3,0.2,0.1,0.7c0,0-0.1,0.3-0.3,0c0,0-0.1-0.2,0.1-0.5C32.9,35.7,32.9,35.6,33,35.6z"/>
		<path class="st5" d="M35.1,32.2c0,0,0.2-0.2,0.7,0c0,0,0.3,0.2-0.1,0.3c0,0-0.3,0.1-0.5-0.2C35.2,32.4,35.1,32.3,35.1,32.2z"/>
		<path class="st5" d="M40.1,30.3c0,0-0.1,0.3-0.6,0.2c0,0-0.3-0.1,0-0.4c0,0,0.2-0.1,0.5,0C40,30.2,40.2,30.2,40.1,30.3z"/>
		<path class="st5" d="M39.8,31.6c0,0,0,0.3-0.5,0.4c0,0-0.4,0-0.1-0.3c0,0,0.2-0.2,0.5-0.2C39.6,31.5,39.8,31.5,39.8,31.6z"/>
		<path class="st5" d="M43.7,29.8c0,0,0,0.3-0.5,0.4c0,0-0.4,0-0.1-0.3c0,0,0.2-0.2,0.5-0.2C43.5,29.7,43.7,29.7,43.7,29.8z"/>
		<path class="st5" d="M41.8,29.5c0,0,0,0.3-0.5,0.4c0,0-0.4,0-0.1-0.3c0,0,0.2-0.2,0.5-0.2C41.6,29.4,41.8,29.4,41.8,29.5z"/>
		<path class="st5" d="M51.8,28c0,0-0.3,0.1-0.6-0.3c0,0-0.2-0.3,0.2-0.3c0,0,0.2,0.1,0.4,0.4C51.9,27.8,51.9,27.9,51.8,28z"/>
		<path class="st5" d="M42.3,31.5c0,0-0.3,0.2-0.6-0.1c0,0-0.2-0.2,0.1-0.3c0,0,0.3,0,0.5,0.2C42.3,31.3,42.3,31.4,42.3,31.5z"/>
		<path class="st5" d="M46.3,28.2c0,0-0.3,0.2-0.6-0.1c0,0-0.2-0.2,0.1-0.3c0,0,0.3,0,0.5,0.2C46.3,28,46.3,28.1,46.3,28.2z"/>
		<path class="st5" d="M51.1,28.9c0,0-0.3,0.2-0.6-0.1c0,0-0.2-0.2,0.1-0.3c0,0,0.3,0,0.5,0.2C51.1,28.7,51.2,28.8,51.1,28.9z"/>
		<path class="st5" d="M48.4,28.8c0,0-0.1,0.3-0.6,0.4c0,0-0.4,0-0.1-0.3c0,0,0.2-0.2,0.5-0.2C48.2,28.8,48.3,28.8,48.4,28.8z"/>
		<path class="st5" d="M46,30.2c0,0,0.2,0.2,0,0.7c0,0-0.2,0.3-0.3-0.1c0,0-0.1-0.3,0.2-0.5C45.9,30.2,46,30.2,46,30.2z"/>
		<path class="st5" d="M48.8,27.2c0,0,0.3-0.2,0.6,0.1c0,0,0.2,0.2-0.1,0.3c0,0-0.3,0-0.5-0.2C48.8,27.4,48.7,27.3,48.8,27.2z"/>
		<path class="st5" d="M53.2,25.7c0,0-0.1,0.3-0.6,0.2c0,0-0.3-0.1,0-0.4c0,0,0.2-0.1,0.5,0C53.1,25.6,53.3,25.6,53.2,25.7z"/>
		<path class="st5" d="M52.9,27c0,0,0,0.3-0.5,0.4c0,0-0.4,0-0.1-0.3c0,0,0.2-0.2,0.5-0.2C52.7,26.9,52.9,26.9,52.9,27z"/>
		<path class="st5" d="M56.8,25.2c0,0,0,0.3-0.5,0.4c0,0-0.4,0-0.1-0.3c0,0,0.2-0.2,0.5-0.2C56.7,25.1,56.8,25.1,56.8,25.2z"/>
		<path class="st5" d="M54.9,24.9c0,0,0,0.3-0.5,0.4c0,0-0.4,0-0.1-0.3c0,0,0.2-0.2,0.5-0.2C54.7,24.8,54.9,24.8,54.9,24.9z"/>
		<path class="st5" d="M64.9,23.3c0,0-0.3,0.1-0.6-0.3c0,0-0.2-0.3,0.2-0.3c0,0,0.2,0.1,0.4,0.4C65,23.2,65.1,23.3,64.9,23.3z"/>
		<path class="st5" d="M55.4,26.9c0,0-0.3,0.2-0.6-0.1c0,0-0.2-0.2,0.1-0.3c0,0,0.3,0,0.5,0.2C55.3,26.7,55.5,26.8,55.4,26.9z"/>
		<path class="st5" d="M59.3,23.6c0,0-0.3,0.2-0.6-0.1c0,0-0.2-0.2,0.1-0.3c0,0,0.3,0,0.5,0.2C59.3,23.3,59.5,23.5,59.3,23.6z"/>
		<path class="st5" d="M64.3,24.3c0,0-0.3,0.2-0.6-0.1c0,0-0.2-0.2,0.1-0.3c0,0,0.3,0,0.5,0.2C64.2,24.1,64.3,24.2,64.3,24.3z"/>
		<path class="st5" d="M61.5,24.3c0,0-0.1,0.3-0.6,0.4c0,0-0.4,0-0.1-0.3c0,0,0.2-0.2,0.5-0.2C61.3,24.1,61.5,24.2,61.5,24.3z"/>
		<path class="st5" d="M59.2,25.6c0,0,0.2,0.2,0,0.7c0,0-0.2,0.3-0.3-0.1c0,0-0.1-0.3,0.2-0.5C59,25.7,59.1,25.5,59.2,25.6z"/>
		<path class="st5" d="M61.9,22.7c0,0,0.3-0.2,0.6,0.1c0,0,0.2,0.2-0.1,0.3c0,0-0.3,0-0.5-0.2C61.9,22.8,61.8,22.7,61.9,22.7z"/>
		<path class="st5" d="M66.1,20.4c0,0-0.1,0.3-0.6,0.2c0,0-0.3-0.1,0-0.4c0,0,0.2-0.1,0.5,0C66,20.3,66.1,20.4,66.1,20.4z"/>
		<path class="st5" d="M65.7,21.7c0,0,0,0.3-0.5,0.4c0,0-0.4,0-0.1-0.3c0,0,0.2-0.2,0.5-0.2C65.6,21.6,65.7,21.6,65.7,21.7z"/>
		<path class="st5" d="M69.6,19.9c0,0,0,0.3-0.5,0.4c0,0-0.4,0-0.1-0.3c0,0,0.2-0.2,0.5-0.2C69.5,19.9,69.7,19.8,69.6,19.9z"/>
		<path class="st5" d="M67.7,19.6c0,0,0,0.3-0.5,0.4c0,0-0.4,0-0.1-0.3c0,0,0.2-0.2,0.5-0.2C67.6,19.5,67.7,19.5,67.7,19.6z"/>
		<path class="st5" d="M77.8,18.1c0,0-0.3,0.1-0.6-0.3c0,0-0.2-0.3,0.2-0.3c0,0,0.2,0.1,0.4,0.4C77.8,17.9,77.9,18,77.8,18.1z"/>
		<path class="st5" d="M68.2,21.6c0,0-0.3,0.2-0.6-0.1c0,0-0.2-0.2,0.1-0.3c0,0,0.3,0,0.5,0.2C68.2,21.4,68.3,21.6,68.2,21.6z"/>
		<path class="st5" d="M72.2,18.3c0,0-0.3,0.2-0.6-0.1c0,0-0.2-0.2,0.1-0.3c0,0,0.3,0,0.5,0.2C72.2,18.1,72.2,18.2,72.2,18.3z"/>
		<path class="st5" d="M77.1,19c0,0-0.3,0.2-0.6-0.1c0,0-0.2-0.2,0.1-0.3c0,0,0.3,0,0.5,0.2C77.1,18.8,77.2,18.9,77.1,19z"/>
		<path class="st5" d="M74.3,19c0,0-0.1,0.3-0.6,0.4c0,0-0.4,0-0.1-0.3c0,0,0.2-0.2,0.5-0.2C74.2,18.9,74.3,18.9,74.3,19z"/>
		<path class="st5" d="M72,20.3c0,0,0.2,0.2,0,0.7c0,0-0.2,0.3-0.3-0.1c0,0-0.1-0.3,0.2-0.5C71.8,20.4,71.9,20.3,72,20.3z"/>
		<path class="st5" d="M74.7,17.4c0,0,0.3-0.2,0.6,0.1c0,0,0.2,0.2-0.1,0.3c0,0-0.3,0-0.5-0.2C74.8,17.5,74.6,17.4,74.7,17.4z"/>
		<path class="st5" d="M80.5,16.5c0,0-0.3,0.1-0.6-0.3c0,0-0.2-0.3,0.2-0.3c0,0,0.2,0.1,0.4,0.4C80.6,16.4,80.6,16.5,80.5,16.5z"/>
		<path class="st5" d="M79.8,17.4c0,0-0.3,0.2-0.6-0.1c0,0-0.2-0.2,0.1-0.3c0,0,0.3,0,0.5,0.2C79.8,17.3,79.9,17.4,79.8,17.4z"/>
		<path class="st5" d="M77.4,15.8c0,0,0.3-0.2,0.6,0.1c0,0,0.2,0.2-0.1,0.3c0,0-0.3,0-0.5-0.2C77.4,16,77.4,15.9,77.4,15.8z"/>
	</g>
	<g>
		<path class="st5" d="M21.1,27.4c0,0-0.1,0.3-0.5,0.3c0,0-0.3,0-0.1-0.3c0,0,0.2-0.2,0.5-0.1C20.9,27.3,21.1,27.3,21.1,27.4z"/>
		<path class="st5" d="M21,28.6c0,0,0,0.3-0.4,0.4c0,0-0.3,0.1-0.2-0.3c0,0,0.1-0.2,0.4-0.2C20.8,28.5,21,28.5,21,28.6z"/>
		<path class="st5" d="M24.3,26.3c0,0,0,0.3-0.4,0.4c0,0-0.3,0.1-0.2-0.3c0,0,0.1-0.2,0.4-0.2C24.1,26.3,24.3,26.3,24.3,26.3z"/>
		<path class="st5" d="M22.5,26.4c0,0,0,0.3-0.4,0.4c0,0-0.3,0.1-0.2-0.3c0,0,0.1-0.2,0.4-0.2C22.3,26.3,22.4,26.3,22.5,26.4z"/>
		<path class="st5" d="M31.5,23.3c0,0-0.3,0.2-0.6-0.2c0,0-0.2-0.2,0.2-0.3c0,0,0.2,0,0.4,0.3C31.5,23.2,31.5,23.3,31.5,23.3z"/>
		<path class="st5" d="M23.2,28.1c0,0-0.2,0.2-0.6,0c0,0-0.3-0.2,0.1-0.3c0,0,0.2-0.1,0.5,0.1C23.2,27.9,23.3,28,23.2,28.1z"/>
		<path class="st5" d="M26.4,24.4c0,0-0.2,0.2-0.6,0c0,0-0.3-0.2,0.1-0.3c0,0,0.2-0.1,0.5,0.1C26.3,24.3,26.4,24.3,26.4,24.4z"/>
		<path class="st5" d="M31,24.3c0,0-0.2,0.2-0.6,0c0,0-0.3-0.2,0.1-0.3c0,0,0.2-0.1,0.5,0.1C30.9,24.1,31.1,24.2,31,24.3z"/>
		<path class="st5" d="M28.4,24.7c0,0,0,0.3-0.4,0.4c0,0-0.3,0.1-0.2-0.3c0,0,0.1-0.2,0.4-0.2C28.2,24.6,28.4,24.6,28.4,24.7z"/>
		<path class="st5" d="M26.5,26.3c0,0,0.3,0.2,0.1,0.6c0,0-0.1,0.3-0.3,0c0,0-0.1-0.2,0.1-0.5C26.3,26.4,26.4,26.3,26.5,26.3z"/>
		<path class="st5" d="M28.5,23.2c0,0,0.2-0.2,0.6,0c0,0,0.3,0.2-0.1,0.3c0,0-0.2,0.1-0.5-0.2C28.6,23.3,28.4,23.2,28.5,23.2z"/>
		<path class="st5" d="M33.2,21.4c0,0-0.1,0.3-0.6,0.2c0,0-0.3-0.1,0-0.3c0,0,0.2-0.1,0.5,0C33.1,21.3,33.2,21.3,33.2,21.4z"/>
		<path class="st5" d="M32.8,22.6c0,0,0,0.3-0.5,0.4c0,0-0.3,0-0.1-0.3c0,0,0.2-0.2,0.5-0.2C32.7,22.5,32.9,22.5,32.8,22.6z"/>
		<path class="st5" d="M36.5,21c0,0,0,0.3-0.5,0.4c0,0-0.3,0-0.1-0.3c0,0,0.2-0.2,0.5-0.2C36.4,20.9,36.6,20.9,36.5,21z"/>
		<path class="st5" d="M34.7,20.7c0,0,0,0.3-0.5,0.4c0,0-0.3,0-0.1-0.3c0,0,0.2-0.2,0.5-0.2C34.6,20.6,34.7,20.6,34.7,20.7z"/>
		<path class="st5" d="M44.2,19.3c0,0-0.3,0.1-0.6-0.3c0,0-0.2-0.3,0.2-0.2c0,0,0.2,0.1,0.4,0.4C44.2,19.1,44.2,19.3,44.2,19.3z"/>
		<path class="st5" d="M35.2,22.5c0,0-0.3,0.2-0.6-0.1c0,0-0.2-0.2,0.1-0.3c0,0,0.3,0,0.4,0.2C35.1,22.3,35.3,22.5,35.2,22.5z"/>
		<path class="st5" d="M38.9,19.4c0,0-0.3,0.2-0.6-0.1c0,0-0.2-0.2,0.1-0.3c0,0,0.3,0,0.4,0.2C38.9,19.3,39,19.4,38.9,19.4z"/>
		<path class="st5" d="M43.5,20.2c0,0-0.3,0.2-0.6-0.1c0,0-0.2-0.2,0.1-0.3c0,0,0.3,0,0.4,0.2C43.5,20,43.6,20.1,43.5,20.2z"/>
		<path class="st5" d="M40.9,20.1c0,0,0,0.3-0.5,0.3c0,0-0.3,0-0.1-0.3c0,0,0.2-0.2,0.5-0.1C40.8,20,40.9,20,40.9,20.1z"/>
		<path class="st5" d="M38.8,21.3c0,0,0.2,0.2,0,0.6c0,0-0.2,0.2-0.3-0.1c0,0,0-0.2,0.2-0.5C38.5,21.4,38.7,21.3,38.8,21.3z"/>
		<path class="st5" d="M41.3,18.6c0,0,0.3-0.2,0.6,0.1c0,0,0.2,0.2-0.1,0.3c0,0-0.3,0-0.4-0.2C41.3,18.7,41.2,18.6,41.3,18.6z"/>
		<path class="st5" d="M45.5,17.2c0,0-0.1,0.3-0.6,0.2c0,0-0.3-0.1,0-0.3c0,0,0.2-0.1,0.5,0C45.3,17,45.5,17.1,45.5,17.2z"/>
		<path class="st5" d="M45.1,18.4c0,0,0,0.3-0.5,0.4c0,0-0.3,0-0.1-0.3c0,0,0.2-0.2,0.5-0.2C45,18.3,45.2,18.3,45.1,18.4z"/>
		<path class="st5" d="M48.8,16.7c0,0,0,0.3-0.5,0.4c0,0-0.3,0-0.1-0.3c0,0,0.2-0.2,0.5-0.2C48.7,16.6,48.8,16.6,48.8,16.7z"/>
		<path class="st5" d="M47,16.4c0,0,0,0.3-0.5,0.4c0,0-0.3,0-0.1-0.3c0,0,0.2-0.2,0.5-0.2C46.9,16.3,47,16.3,47,16.4z"/>
		<path class="st5" d="M56.5,15.1c0,0-0.3,0.1-0.6-0.3c0,0-0.2-0.3,0.2-0.2c0,0,0.2,0.1,0.4,0.4C56.5,14.9,56.5,15,56.5,15.1z"/>
		<path class="st5" d="M47.5,18.3c0,0-0.3,0.2-0.6-0.1c0,0-0.2-0.2,0.1-0.3c0,0,0.3,0,0.4,0.2C47.4,18.1,47.5,18.2,47.5,18.3z"/>
		<path class="st5" d="M51.2,15.2c0,0-0.3,0.2-0.6-0.1c0,0-0.2-0.2,0.1-0.3c0,0,0.3,0,0.4,0.2C51.2,15,51.3,15.1,51.2,15.2z"/>
		<path class="st5" d="M55.8,15.9c0,0-0.3,0.2-0.6-0.1c0,0-0.2-0.2,0.1-0.3c0,0,0.3,0,0.4,0.2C55.8,15.7,55.9,15.8,55.8,15.9z"/>
		<path class="st5" d="M53.2,15.9c0,0,0,0.3-0.5,0.3c0,0-0.3,0-0.1-0.3c0,0,0.2-0.2,0.5-0.1C53.1,15.7,53.2,15.8,53.2,15.9z"/>
		<path class="st5" d="M51,17.1c0,0,0.2,0.2,0,0.6c0,0-0.2,0.2-0.3-0.1c0,0,0-0.2,0.2-0.5C50.8,17.2,51,17,51,17.1z"/>
		<path class="st5" d="M53.6,14.3c0,0,0.3-0.2,0.6,0.1c0,0,0.2,0.2-0.1,0.3c0,0-0.3,0-0.4-0.2C53.6,14.5,53.5,14.4,53.6,14.3z"/>
		<path class="st5" d="M57.5,12.3c0,0-0.1,0.3-0.6,0.2c0,0-0.3-0.1,0-0.3c0,0,0.2-0.1,0.5,0C57.4,12.2,57.5,12.2,57.5,12.3z"/>
		<path class="st5" d="M57.2,13.5c0,0,0,0.3-0.5,0.4c0,0-0.3,0-0.1-0.3c0,0,0.2-0.2,0.5-0.2C57.1,13.4,57.2,13.5,57.2,13.5z"/>
		<path class="st5" d="M60.9,11.9c0,0,0,0.3-0.5,0.4c0,0-0.3,0-0.1-0.3c0,0,0.2-0.2,0.5-0.2C60.7,11.8,60.9,11.8,60.9,11.9z"/>
		<path class="st5" d="M59.1,11.6c0,0,0,0.3-0.5,0.4c0,0-0.3,0-0.1-0.3c0,0,0.2-0.2,0.5-0.2C58.9,11.5,59.1,11.5,59.1,11.6z"/>
		<path class="st5" d="M68.5,10.2c0,0-0.3,0.1-0.6-0.3c0,0-0.2-0.3,0.2-0.2c0,0,0.2,0.1,0.4,0.4C68.5,10,68.6,10.2,68.5,10.2z"/>
		<path class="st5" d="M59.5,13.4c0,0-0.3,0.2-0.6-0.1c0,0-0.2-0.2,0.1-0.3c0,0,0.3,0,0.4,0.2C59.5,13.3,59.6,13.4,59.5,13.4z"/>
		<path class="st5" d="M63.3,10.3c0,0-0.3,0.2-0.6-0.1c0,0-0.2-0.2,0.1-0.3c0,0,0.3,0,0.4,0.2C63.2,10.2,63.3,10.3,63.3,10.3z"/>
		<path class="st5" d="M67.8,11c0,0-0.3,0.2-0.6-0.1c0,0-0.2-0.2,0.1-0.3c0,0,0.3,0,0.4,0.2C67.8,10.9,67.9,11,67.8,11z"/>
		<path class="st5" d="M65.2,11c0,0,0,0.3-0.5,0.3c0,0-0.3,0-0.1-0.3c0,0,0.2-0.2,0.5-0.1C65.1,10.9,65.2,10.9,65.2,11z"/>
		<path class="st5" d="M63,12.3c0,0,0.2,0.2,0,0.6c0,0-0.2,0.2-0.3-0.1c0,0,0-0.2,0.2-0.5C62.9,12.3,63,12.2,63,12.3z"/>
		<path class="st5" d="M65.6,9.5c0,0,0.3-0.2,0.6,0.1c0,0,0.2,0.2-0.1,0.3c0,0-0.3,0-0.4-0.2C65.6,9.7,65.5,9.6,65.6,9.5z"/>
		<path class="st5" d="M71,8.7c0,0-0.3,0.1-0.6-0.3c0,0-0.2-0.3,0.2-0.2c0,0,0.2,0.1,0.4,0.4C71.1,8.6,71.1,8.7,71,8.7z"/>
		<path class="st5" d="M70.4,9.6c0,0-0.3,0.2-0.6-0.1c0,0-0.2-0.2,0.1-0.3c0,0,0.3,0,0.4,0.2C70.4,9.4,70.5,9.6,70.4,9.6z"/>
		<path class="st5" d="M68.1,8c0,0,0.3-0.2,0.6,0.1c0,0,0.2,0.2-0.1,0.3c0,0-0.3,0-0.4-0.2C68.2,8.2,68.1,8.1,68.1,8z"/>
	</g>
</g>
<g>
	<path class="st0" d="M111.6,4.3l23.3,29.1c0,0-7.4,37.2-44,45.1L72.1,57.4L111.6,4.3z"/>
	<path class="st1" d="M54.2,63.3l17.9-6l18.8,21.1C90.9,78.6,71.7,86.2,54.2,63.3z"/>
	<path class="st2" d="M54.2,63.3c0,0,29.6-42.6,41.2-47.7l15.8-10.7l-39,52.5L54.2,63.3z"/>
	<path class="st3" d="M65.8,59.5c0,0,2.6,7.2,11.2,3.4L116.9,11l-5.8-6.1l-7.3,4.9"/>
	<polygon class="st4" points="72.1,57.4 77,62.9 116.9,11 111.2,4.9 	"/>
	<g>
		<path class="st5" d="M79,59.8c0,0,0.1,0.3-0.3,0.6c0,0-0.3,0.2-0.3-0.2c0,0,0.1-0.2,0.4-0.4C78.9,59.8,79,59.7,79,59.8z"/>
		<path class="st5" d="M79.7,61c0,0,0.2,0.3-0.1,0.6c0,0-0.2,0.2-0.3-0.1c0,0,0-0.3,0.2-0.5C79.5,61,79.6,60.9,79.7,61z"/>
		<path class="st5" d="M81.4,57c0,0,0.2,0.3-0.1,0.6c0,0-0.2,0.2-0.3-0.1c0,0,0-0.3,0.2-0.5C81.2,57,81.3,57,81.4,57z"/>
		<path class="st5" d="M79.7,58.1c0,0,0.2,0.3-0.1,0.6c0,0-0.2,0.2-0.3-0.1c0,0,0-0.3,0.2-0.5C79.6,58.1,79.7,58,79.7,58.1z"/>
		<path class="st5" d="M86.2,50.2c0,0-0.2,0.3-0.6,0.2c0,0-0.3-0.1,0-0.4c0,0,0.2-0.1,0.5,0C86.1,50.1,86.2,50.2,86.2,50.2z"/>
		<path class="st5" d="M81.4,59.2c0,0-0.1,0.3-0.6,0.4c0,0-0.3,0-0.1-0.3c0,0,0.2-0.2,0.5-0.1C81.3,59.1,81.4,59.1,81.4,59.2z"/>
		<path class="st5" d="M82.2,54.1c0,0-0.1,0.3-0.6,0.4c0,0-0.3,0-0.1-0.3c0,0,0.2-0.2,0.5-0.1C82,54,82.2,54,82.2,54.1z"/>
		<path class="st5" d="M86.3,51.4c0,0-0.1,0.3-0.6,0.4c0,0-0.3,0-0.1-0.3c0,0,0.2-0.2,0.5-0.1C86.2,51.3,86.3,51.3,86.3,51.4z"/>
		<path class="st5" d="M84.2,53.2c0,0,0.2,0.3-0.1,0.6c0,0-0.2,0.2-0.3-0.2c0,0,0-0.3,0.3-0.5C84,53.2,84.1,53.1,84.2,53.2z"/>
		<path class="st5" d="M83.4,55.7c0,0,0.3,0,0.4,0.5c0,0,0,0.3-0.3,0.2c0,0-0.2-0.1-0.2-0.5C83.3,55.9,83.3,55.8,83.4,55.7z"/>
		<path class="st5" d="M83.4,51.7c0,0,0.1-0.3,0.6-0.4c0,0,0.3,0,0.1,0.3c0,0-0.2,0.2-0.5,0.1C83.6,51.9,83.4,51.8,83.4,51.7z"/>
		<path class="st5" d="M86.7,47.5c0,0,0,0.4-0.4,0.5c0,0-0.3,0.1-0.2-0.3c0,0,0.1-0.2,0.4-0.3C86.5,47.4,86.7,47.4,86.7,47.5z"/>
		<path class="st5" d="M87.1,48.8c0,0,0.1,0.3-0.2,0.6c0,0-0.3,0.2-0.3-0.2c0,0,0-0.2,0.3-0.4C86.9,48.8,87,48.7,87.1,48.8z"/>
		<path class="st5" d="M89.5,45.2c0,0,0.1,0.3-0.2,0.6c0,0-0.3,0.2-0.3-0.2c0,0,0-0.2,0.3-0.4C89.3,45.2,89.4,45.1,89.5,45.2z"/>
		<path class="st5" d="M87.7,45.9c0,0,0.1,0.3-0.2,0.6c0,0-0.3,0.2-0.3-0.2c0,0,0-0.2,0.3-0.4C87.5,45.9,87.6,45.9,87.7,45.9z"/>
		<path class="st5" d="M95.4,39.4c0,0-0.2,0.3-0.7,0.1c0,0-0.3-0.2,0.1-0.3c0,0,0.3-0.1,0.5,0.1C95.4,39.2,95.5,39.3,95.4,39.4z"/>
		<path class="st5" d="M89.1,47.4c0,0-0.1,0.3-0.6,0.3c0,0-0.3-0.1,0-0.4c0,0,0.2-0.1,0.5,0C89,47.2,89.1,47.3,89.1,47.4z"/>
		<path class="st5" d="M90.8,42.5c0,0-0.1,0.3-0.6,0.3c0,0-0.3-0.1,0-0.4c0,0,0.2-0.1,0.5,0C90.6,42.4,90.8,42.4,90.8,42.5z"/>
		<path class="st5" d="M95.3,40.6c0,0-0.1,0.3-0.6,0.3c0,0-0.3-0.1,0-0.4c0,0,0.2-0.1,0.5,0C95.2,40.4,95.3,40.5,95.3,40.6z"/>
		<path class="st5" d="M92.9,42c0,0,0.1,0.3-0.2,0.6c0,0-0.3,0.2-0.3-0.2c0,0,0-0.2,0.4-0.4C92.8,41.9,92.9,41.9,92.9,42z"/>
		<path class="st5" d="M91.7,44.3c0,0,0.3,0.1,0.3,0.5c0,0,0,0.3-0.4,0c0,0-0.2-0.2-0.1-0.5C91.6,44.5,91.6,44.3,91.7,44.3z"/>
		<path class="st5" d="M92.4,40.4c0,0,0.1-0.3,0.6-0.3c0,0,0.3,0.1,0,0.4c0,0-0.2,0.1-0.5,0C92.6,40.5,92.4,40.5,92.4,40.4z"/>
		<path class="st5" d="M95.5,36.8c0,0,0,0.4-0.4,0.5c0,0-0.3,0.1-0.2-0.3c0,0,0.1-0.2,0.4-0.3C95.3,36.7,95.4,36.6,95.5,36.8z"/>
		<path class="st5" d="M95.8,38c0,0,0.1,0.3-0.2,0.6c0,0-0.3,0.2-0.3-0.2c0,0,0-0.2,0.3-0.4C95.6,38,95.8,37.9,95.8,38z"/>
		<path class="st5" d="M98.3,34.4c0,0,0.1,0.3-0.2,0.6c0,0-0.3,0.2-0.3-0.2c0,0,0-0.2,0.3-0.4C98.1,34.4,98.2,34.4,98.3,34.4z"/>
		<path class="st5" d="M96.4,35.2c0,0,0.1,0.3-0.2,0.6c0,0-0.3,0.2-0.3-0.2c0,0,0-0.2,0.3-0.4C96.2,35.2,96.4,35.1,96.4,35.2z"/>
		<path class="st5" d="M104.2,28.6c0,0-0.2,0.3-0.7,0.1c0,0-0.3-0.2,0.1-0.3c0,0,0.3-0.1,0.5,0.1C104.1,28.4,104.3,28.6,104.2,28.6z
			"/>
		<path class="st5" d="M97.9,36.6c0,0-0.1,0.3-0.6,0.3c0,0-0.3-0.1,0-0.4c0,0,0.2-0.1,0.5,0C97.8,36.5,97.9,36.5,97.9,36.6z"/>
		<path class="st5" d="M99.5,31.7c0,0-0.1,0.3-0.6,0.3c0,0-0.3-0.1,0-0.4c0,0,0.2-0.1,0.5,0C99.4,31.5,99.6,31.6,99.5,31.7z"/>
		<path class="st5" d="M104.1,29.7c0,0-0.1,0.3-0.6,0.3c0,0-0.3-0.1,0-0.4c0,0,0.2-0.1,0.5,0C104,29.6,104.1,29.7,104.1,29.7z"/>
		<path class="st5" d="M101.7,31.2c0,0,0.1,0.3-0.2,0.6c0,0-0.3,0.2-0.3-0.2c0,0,0-0.2,0.4-0.4C101.5,31.2,101.6,31.1,101.7,31.2z"
			/>
		<path class="st5" d="M100.4,33.5c0,0,0.3,0.1,0.3,0.5c0,0,0,0.3-0.4,0c0,0-0.2-0.2-0.1-0.5C100.3,33.7,100.3,33.5,100.4,33.5z"/>
		<path class="st5" d="M101.2,29.6c0,0,0.1-0.3,0.6-0.3c0,0,0.3,0.1,0,0.4c0,0-0.2,0.1-0.5,0C101.3,29.7,101.2,29.7,101.2,29.6z"/>
		<path class="st5" d="M103.6,25.5c0,0,0,0.4-0.4,0.5c0,0-0.3,0.1-0.2-0.3c0,0,0.1-0.2,0.4-0.3C103.4,25.5,103.6,25.4,103.6,25.5z"
			/>
		<path class="st5" d="M104,26.8c0,0,0.1,0.3-0.2,0.6c0,0-0.3,0.2-0.3-0.2c0,0,0-0.2,0.3-0.4C103.8,26.8,104,26.7,104,26.8z"/>
		<path class="st5" d="M106.4,23.2c0,0,0.1,0.3-0.2,0.6c0,0-0.3,0.2-0.3-0.2c0,0,0-0.2,0.3-0.4C106.2,23.2,106.4,23.2,106.4,23.2z"
			/>
		<path class="st5" d="M104.6,24c0,0,0.1,0.3-0.2,0.6c0,0-0.3,0.2-0.3-0.2c0,0,0-0.2,0.3-0.4C104.5,24,104.6,23.9,104.6,24z"/>
		<path class="st5" d="M112.4,17.4c0,0-0.2,0.3-0.7,0.1c0,0-0.3-0.2,0.1-0.3c0,0,0.3-0.1,0.5,0.1C112.3,17.2,112.4,17.3,112.4,17.4z
			"/>
		<path class="st5" d="M106.1,25.4c0,0-0.1,0.3-0.6,0.3c0,0-0.3-0.1,0-0.4c0,0,0.2-0.1,0.5,0C105.9,25.3,106.1,25.3,106.1,25.4z"/>
		<path class="st5" d="M107.7,20.5c0,0-0.1,0.3-0.6,0.3c0,0-0.3-0.1,0-0.4c0,0,0.2-0.1,0.5,0C107.6,20.3,107.8,20.4,107.7,20.5z"/>
		<path class="st5" d="M112.3,18.5c0,0-0.1,0.3-0.6,0.3c0,0-0.3-0.1,0-0.4c0,0,0.2-0.1,0.5,0C112.1,18.4,112.3,18.4,112.3,18.5z"/>
		<path class="st5" d="M109.9,20c0,0,0.1,0.3-0.2,0.6c0,0-0.3,0.2-0.3-0.2c0,0,0-0.2,0.4-0.4C109.7,20,109.9,19.9,109.9,20z"/>
		<path class="st5" d="M108.6,22.3c0,0,0.3,0.1,0.3,0.5c0,0,0,0.3-0.4,0c0,0-0.2-0.2-0.1-0.5C108.5,22.5,108.5,22.3,108.6,22.3z"/>
		<path class="st5" d="M109.4,18.4c0,0,0.1-0.3,0.6-0.3c0,0,0.3,0.1,0,0.4c0,0-0.2,0.1-0.5,0C109.5,18.5,109.4,18.5,109.4,18.4z"/>
		<path class="st5" d="M113.9,14.6c0,0-0.2,0.3-0.7,0.1c0,0-0.3-0.2,0.1-0.3c0,0,0.3-0.1,0.5,0.1C113.8,14.5,113.9,14.5,113.9,14.6z
			"/>
		<path class="st5" d="M113.8,15.8c0,0-0.1,0.3-0.6,0.3c0,0-0.3-0.1,0-0.4c0,0,0.2-0.1,0.5,0C113.6,15.6,113.8,15.7,113.8,15.8z"/>
		<path class="st5" d="M110.9,15.6c0,0,0.1-0.3,0.6-0.3c0,0,0.3,0.1,0,0.4c0,0-0.2,0.1-0.5,0C111,15.7,110.8,15.7,110.9,15.6z"/>
	</g>
	<g>
		<path class="st5" d="M68.9,55c0,0,0.1,0.3-0.3,0.6c0,0-0.3,0.1-0.2-0.2c0,0,0.1-0.2,0.4-0.4C68.7,55,68.9,54.9,68.9,55z"/>
		<path class="st5" d="M69.5,56.1c0,0,0.2,0.3-0.1,0.6c0,0-0.2,0.2-0.3-0.1c0,0,0-0.3,0.2-0.4C69.3,56.1,69.4,56,69.5,56.1z"/>
		<path class="st5" d="M71.1,52.4c0,0,0.2,0.3-0.1,0.6c0,0-0.2,0.2-0.3-0.1c0,0,0-0.3,0.2-0.4C70.9,52.4,71,52.3,71.1,52.4z"/>
		<path class="st5" d="M69.5,53.4c0,0,0.2,0.3-0.1,0.6c0,0-0.2,0.2-0.3-0.1c0,0,0-0.3,0.2-0.4C69.4,53.4,69.5,53.3,69.5,53.4z"/>
		<path class="st5" d="M75.6,46.1c0,0-0.2,0.3-0.6,0.2c0,0-0.3-0.1,0-0.3c0,0,0.2-0.1,0.5,0C75.6,45.9,75.7,46,75.6,46.1z"/>
		<path class="st5" d="M71.1,54.5c0,0-0.1,0.3-0.5,0.3c0,0-0.3,0-0.1-0.3c0,0,0.2-0.2,0.5-0.1C71,54.4,71.2,54.4,71.1,54.5z"/>
		<path class="st5" d="M71.8,49.7c0,0-0.1,0.3-0.5,0.3c0,0-0.3,0-0.1-0.3c0,0,0.2-0.2,0.5-0.1C71.7,49.6,71.8,49.6,71.8,49.7z"/>
		<path class="st5" d="M75.7,47.2c0,0-0.1,0.3-0.5,0.3c0,0-0.3,0-0.1-0.3c0,0,0.2-0.2,0.5-0.1C75.6,47.1,75.8,47.1,75.7,47.2z"/>
		<path class="st5" d="M73.8,48.9c0,0,0.2,0.3-0.1,0.6c0,0-0.2,0.2-0.3-0.2c0,0,0-0.3,0.3-0.4C73.6,48.9,73.7,48.8,73.8,48.9z"/>
		<path class="st5" d="M73,51.3c0,0,0.3,0,0.4,0.5c0,0,0,0.3-0.3,0.1c0,0-0.2-0.1-0.2-0.4C72.9,51.4,72.9,51.2,73,51.3z"/>
		<path class="st5" d="M73,47.5c0,0,0.1-0.3,0.5-0.3c0,0,0.3,0,0.1,0.3c0,0-0.2,0.2-0.5,0.1C73.2,47.6,73,47.6,73,47.5z"/>
		<path class="st5" d="M76.1,43.6c0,0,0,0.3-0.4,0.5c0,0-0.3,0.1-0.2-0.3c0,0,0.1-0.2,0.4-0.3C75.9,43.5,76.1,43.5,76.1,43.6z"/>
		<path class="st5" d="M76.4,44.8c0,0,0.1,0.3-0.2,0.6c0,0-0.3,0.2-0.3-0.2c0,0,0-0.2,0.3-0.4C76.3,44.7,76.4,44.7,76.4,44.8z"/>
		<path class="st5" d="M78.7,41.4c0,0,0.1,0.3-0.2,0.6c0,0-0.3,0.2-0.3-0.2c0,0,0-0.2,0.3-0.4C78.6,41.4,78.7,41.4,78.7,41.4z"/>
		<path class="st5" d="M77,42.1c0,0,0.1,0.3-0.2,0.6c0,0-0.3,0.2-0.3-0.2c0,0,0-0.2,0.3-0.4C76.9,42.1,77,42,77,42.1z"/>
		<path class="st5" d="M84.4,36c0,0-0.2,0.2-0.6,0.1c0,0-0.3-0.2,0.1-0.3c0,0,0.2-0.1,0.5,0.1C84.3,35.8,84.4,35.9,84.4,36z"/>
		<path class="st5" d="M78.4,43.4c0,0-0.1,0.3-0.6,0.2c0,0-0.3-0.1,0-0.3c0,0,0.2-0.1,0.5,0C78.3,43.3,78.4,43.4,78.4,43.4z"/>
		<path class="st5" d="M79.9,38.9c0,0-0.1,0.3-0.6,0.2c0,0-0.3-0.1,0-0.3c0,0,0.2-0.1,0.5,0C79.9,38.7,80,38.8,79.9,38.9z"/>
		<path class="st5" d="M84.3,37.1c0,0-0.1,0.3-0.6,0.2c0,0-0.3-0.1,0-0.3c0,0,0.2-0.1,0.5,0C84.1,37,84.3,37,84.3,37.1z"/>
		<path class="st5" d="M82,38.4c0,0,0.1,0.3-0.2,0.6c0,0-0.3,0.2-0.3-0.2c0,0,0-0.2,0.3-0.4C81.8,38.4,82,38.3,82,38.4z"/>
		<path class="st5" d="M80.8,40.6c0,0,0.3,0.1,0.3,0.5c0,0,0,0.3-0.3,0.1c0,0-0.2-0.2-0.1-0.5C80.7,40.7,80.7,40.6,80.8,40.6z"/>
		<path class="st5" d="M81.5,36.9c0,0,0.1-0.3,0.6-0.2c0,0,0.3,0.1,0,0.3c0,0-0.2,0.1-0.5,0C81.7,37.1,81.5,37,81.5,36.9z"/>
		<path class="st5" d="M84.4,33.5c0,0,0,0.3-0.4,0.5c0,0-0.3,0.1-0.2-0.3c0,0,0.1-0.2,0.4-0.3C84.2,33.5,84.3,33.5,84.4,33.5z"/>
		<path class="st5" d="M84.7,34.7c0,0,0.1,0.3-0.2,0.6c0,0-0.3,0.2-0.3-0.2c0,0,0-0.2,0.3-0.4C84.5,34.7,84.7,34.6,84.7,34.7z"/>
		<path class="st5" d="M87,31.4c0,0,0.1,0.3-0.2,0.6c0,0-0.3,0.2-0.3-0.2c0,0,0-0.2,0.3-0.4C86.8,31.4,86.9,31.3,87,31.4z"/>
		<path class="st5" d="M85.3,32c0,0,0.1,0.3-0.2,0.6c0,0-0.3,0.2-0.3-0.2c0,0,0-0.2,0.3-0.4C85.1,32.1,85.2,32,85.3,32z"/>
		<path class="st5" d="M92.6,25.9c0,0-0.2,0.2-0.6,0.1c0,0-0.3-0.2,0.1-0.3c0,0,0.2-0.1,0.5,0.1C92.5,25.8,92.7,25.9,92.6,25.9z"/>
		<path class="st5" d="M86.6,33.4c0,0-0.1,0.3-0.6,0.2c0,0-0.3-0.1,0-0.3c0,0,0.2-0.1,0.5,0C86.6,33.3,86.6,33.3,86.6,33.4z"/>
		<path class="st5" d="M88.2,28.8c0,0-0.1,0.3-0.6,0.2c0,0-0.3-0.1,0-0.3c0,0,0.2-0.1,0.5,0C88.1,28.7,88.3,28.7,88.2,28.8z"/>
		<path class="st5" d="M92.5,27c0,0-0.1,0.3-0.6,0.2c0,0-0.3-0.1,0-0.3c0,0,0.2-0.1,0.5,0C92.4,26.9,92.5,26.9,92.5,27z"/>
		<path class="st5" d="M90.3,28.4c0,0,0.1,0.3-0.2,0.6c0,0-0.3,0.2-0.3-0.2c0,0,0-0.2,0.3-0.4C90.1,28.4,90.2,28.3,90.3,28.4z"/>
		<path class="st5" d="M89,30.6c0,0,0.3,0.1,0.3,0.5c0,0,0,0.3-0.3,0.1c0,0-0.2-0.2-0.1-0.5C88.9,30.7,89,30.6,89,30.6z"/>
		<path class="st5" d="M89.8,26.9c0,0,0.1-0.3,0.6-0.2c0,0,0.3,0.1,0,0.3c0,0-0.2,0.1-0.5,0C89.9,27,89.8,27,89.8,26.9z"/>
		<path class="st5" d="M92.1,23.1c0,0,0,0.3-0.4,0.5c0,0-0.3,0.1-0.2-0.3c0,0,0.1-0.2,0.4-0.3C91.9,23,92,23,92.1,23.1z"/>
		<path class="st5" d="M92.5,24.3c0,0,0.1,0.3-0.2,0.6c0,0-0.3,0.2-0.3-0.2c0,0,0-0.2,0.3-0.4C92.2,24.3,92.4,24.2,92.5,24.3z"/>
		<path class="st5" d="M94.7,21c0,0,0.1,0.3-0.2,0.6c0,0-0.3,0.2-0.3-0.2c0,0,0-0.2,0.3-0.4C94.5,20.9,94.7,20.9,94.7,21z"/>
		<path class="st5" d="M93,21.6c0,0,0.1,0.3-0.2,0.6c0,0-0.3,0.2-0.3-0.2c0,0,0-0.2,0.3-0.4C92.8,21.6,93,21.6,93,21.6z"/>
		<path class="st5" d="M100.3,15.5c0,0-0.2,0.2-0.6,0.1c0,0-0.3-0.2,0.1-0.3c0,0,0.2-0.1,0.5,0.1C100.2,15.4,100.4,15.5,100.3,15.5z
			"/>
		<path class="st5" d="M94.4,23c0,0-0.1,0.3-0.6,0.2c0,0-0.3-0.1,0-0.3c0,0,0.2-0.1,0.5,0C94.3,22.9,94.4,22.9,94.4,23z"/>
		<path class="st5" d="M95.9,18.4c0,0-0.1,0.3-0.6,0.2c0,0-0.3-0.1,0-0.3c0,0,0.2-0.1,0.5,0C95.8,18.3,96,18.3,95.9,18.4z"/>
		<path class="st5" d="M100.2,16.6c0,0-0.1,0.3-0.6,0.2c0,0-0.3-0.1,0-0.3c0,0,0.2-0.1,0.5,0C100.1,16.5,100.2,16.5,100.2,16.6z"/>
		<path class="st5" d="M98,17.9c0,0,0.1,0.3-0.2,0.6c0,0-0.3,0.2-0.3-0.2c0,0,0-0.2,0.3-0.4C97.8,17.9,97.9,17.9,98,17.9z"/>
		<path class="st5" d="M96.8,20.2c0,0,0.3,0.1,0.3,0.5c0,0,0,0.3-0.3,0.1c0,0-0.2-0.2-0.1-0.5C96.6,20.2,96.7,20.1,96.8,20.2z"/>
		<path class="st5" d="M97.5,16.4c0,0,0.1-0.3,0.6-0.2c0,0,0.3,0.1,0,0.3c0,0-0.2,0.1-0.5,0C97.6,16.6,97.5,16.5,97.5,16.4z"/>
		<path class="st5" d="M101.7,13c0,0-0.2,0.2-0.6,0.1c0,0-0.3-0.2,0.1-0.3c0,0,0.2-0.1,0.5,0.1C101.7,12.8,101.8,12.9,101.7,13z"/>
		<path class="st5" d="M101.6,14c0,0-0.1,0.3-0.6,0.2c0,0-0.3-0.1,0-0.3c0,0,0.2-0.1,0.5,0C101.5,13.9,101.6,14,101.6,14z"/>
		<path class="st5" d="M98.9,13.9c0,0,0.1-0.3,0.6-0.2c0,0,0.3,0.1,0,0.3c0,0-0.2,0.1-0.5,0C99,14,98.9,14,98.9,13.9z"/>
	</g>
</g>
</svg>
