<?xml version="1.0" encoding="utf-8"?>
<!-- Generator: Adobe Illustrator 22.1.0, SVG Export Plug-In . SVG Version: 6.00 Build 0)  -->
<svg version="1.1" id="Promegranade" xmlns="http://www.w3.org/2000/svg" xmlns:xlink="http://www.w3.org/1999/xlink" x="0px"
	 y="0px" viewBox="0 0 674 338.6" style="enable-background:new 0 0 674 338.6;" xml:space="preserve">
<style type="text/css">
	.st0{fill:#EFEFEF;}
	.st1{fill:#F4F4F4;}
	.st2{fill:#EAEAEA;}
	.st3{fill:#AABA4A;}
	.st4{fill:#9DBA42;}
	.st5{fill:#80973B;}
	.st6{fill:#EBC478;}
	.st7{fill:#EACFA2;}
	.st8{fill:#131213;}
</style>
<g id="Plate_2_">
	<ellipse class="st0" cx="337.2" cy="218.4" rx="336.1" ry="110.8"/>
	<ellipse class="st1" cx="337.2" cy="211.4" rx="336.1" ry="110.8"/>
	<ellipse class="st2" cx="337.2" cy="200.5" rx="236.3" ry="77.8"/>
</g>
<g>
	<path class="st3" d="M267.8,77l21.1,78c0,0-46.8,67.6-126.4,51.8l-19.1-58.3L267.8,77z"/>
	<path class="st4" d="M102.8,144.7l40.7,3.7l19.1,58.3C162.5,206.6,117.8,205.4,102.8,144.7z"/>
	<path class="st5" d="M102.8,144.7c0,0,95.7-59.2,123.1-59.3l40.7-7.8l-123.1,70.7L102.8,144.7z"/>
	<path class="st6" d="M129.1,147.1c0,0-1.1,16.5,19.3,16.6l124.3-68.8l-6.1-17.2l-18.8,3.6"/>
	<polygon class="st7" points="143.4,148.4 148.5,163.7 272.7,94.9 266.5,77.7 	"/>
	<g>
		<path class="st8" d="M155.2,159.2c0,0-0.1,0.8-1.1,0.9c0,0-0.8,0-0.2-0.8c0,0,0.3-0.4,1.1-0.4
			C154.8,158.9,155.2,158.9,155.2,159.2z"/>
		<path class="st8" d="M155.3,162.1c0,0,0.1,0.8-0.8,1.2c0,0-0.6,0.2-0.4-0.5c0,0,0.2-0.5,0.9-0.6
			C155,161.8,155.3,161.8,155.3,162.1z"/>
		<path class="st8" d="M162.2,155.7c0,0,0.1,0.8-0.8,1.2c0,0-0.6,0.2-0.4-0.5c0,0,0.2-0.5,0.9-0.6
			C161.8,155.6,162.1,155.5,162.2,155.7z"/>
		<path class="st8" d="M158,156.3c0,0,0.1,0.8-0.8,1.2c0,0-0.6,0.2-0.4-0.5c0,0,0.2-0.5,0.9-0.6C157.7,156.2,158,156.1,158,156.3z"
			/>
		<path class="st8" d="M177.6,146.3c0,0-0.6,0.4-1.4-0.2c0,0-0.5-0.5,0.3-0.6c0,0,0.5,0,1,0.4C177.6,145.9,177.7,146.2,177.6,146.3z
			"/>
		<path class="st8" d="M160.4,160.1c0,0-0.4,0.5-1.4,0.2c0,0-0.6-0.3,0.1-0.8c0,0,0.5-0.2,1.1,0.1
			C160.1,159.7,160.5,159.9,160.4,160.1z"/>
		<path class="st8" d="M166.3,150.5c0,0-0.4,0.5-1.4,0.2c0,0-0.6-0.3,0.1-0.8c0,0,0.5-0.2,1.1,0.1
			C166.1,150.2,166.4,150.3,166.3,150.5z"/>
		<path class="st8" d="M176.9,148.7c0,0-0.4,0.5-1.4,0.2c0,0-0.6-0.3,0.1-0.8c0,0,0.5-0.2,1.1,0.1
			C176.7,148.4,177,148.5,176.9,148.7z"/>
		<path class="st8" d="M171,150.5c0,0,0.1,0.8-0.9,1.2c0,0-0.6,0.2-0.4-0.6c0,0,0.2-0.5,0.9-0.6C170.7,150.4,171,150.3,171,150.5z"
			/>
		<path class="st8" d="M167.3,154.8c0,0,0.6,0.3,0.4,1.4c0,0-0.2,0.6-0.8,0c0,0-0.2-0.4,0-1.1C166.9,155.1,167.1,154.8,167.3,154.8z
			"/>
		<path class="st8" d="M170.8,147c0,0,0.4-0.5,1.4-0.2c0,0,0.6,0.3-0.1,0.8c0,0-0.5,0.2-1.1-0.2C170.9,147.3,170.7,147.1,170.8,147z
			"/>
		<path class="st8" d="M181,141.4c0,0-0.2,0.6-1.3,0.6c0,0-0.8-0.1-0.1-0.8c0,0,0.4-0.3,1.1-0.2C180.6,141,181,141.1,181,141.4z"/>
		<path class="st8" d="M180.6,144.2c0,0,0,0.8-1,1c0,0-0.8,0.1-0.3-0.6c0,0,0.3-0.4,1-0.5C180.2,143.9,180.5,143.9,180.6,144.2z"/>
		<path class="st8" d="M188.5,139.2c0,0,0,0.8-1,1c0,0-0.8,0.1-0.3-0.6c0,0,0.3-0.4,1-0.5C188.1,139,188.5,139,188.5,139.2z"/>
		<path class="st8" d="M184.3,139.1c0,0,0,0.8-1,1c0,0-0.8,0.1-0.3-0.6c0,0,0.3-0.4,1-0.5C183.9,138.9,184.3,138.9,184.3,139.1z"/>
		<path class="st8" d="M205.3,132.7c0,0-0.6,0.3-1.3-0.4c0,0-0.4-0.5,0.4-0.6c0,0,0.5,0.1,0.9,0.6
			C205.3,132.3,205.6,132.6,205.3,132.7z"/>
		<path class="st8" d="M185.9,143.2c0,0-0.5,0.4-1.4,0c0,0-0.5-0.4,0.2-0.8c0,0,0.5-0.1,1.1,0.3C185.8,142.8,186,143.1,185.9,143.2z
			"/>
		<path class="st8" d="M193.5,134.9c0,0-0.5,0.4-1.4,0c0,0-0.5-0.4,0.2-0.8c0,0,0.5-0.1,1.1,0.3
			C193.4,134.4,193.6,134.7,193.5,134.9z"/>
		<path class="st8" d="M204.2,134.9c0,0-0.5,0.4-1.4,0c0,0-0.5-0.4,0.2-0.8c0,0,0.5-0.1,1.1,0.3
			C204.1,134.6,204.3,134.8,204.2,134.9z"/>
		<path class="st8" d="M198.2,135.6c0,0-0.1,0.8-1.1,1c0,0-0.8,0.1-0.3-0.6c0,0,0.3-0.4,1-0.5C197.8,135.5,198.1,135.5,198.2,135.6z
			"/>
		<path class="st8" d="M193.6,139.3c0,0,0.5,0.4,0.2,1.4c0,0-0.3,0.6-0.8-0.1c0,0-0.2-0.5,0.2-1.1
			C193.3,139.4,193.5,139.2,193.6,139.3z"/>
		<path class="st8" d="M198.6,132.1c0,0,0.5-0.4,1.4,0c0,0,0.5,0.4-0.2,0.8c0,0-0.5,0.1-1.1-0.3
			C198.7,132.5,198.4,132.3,198.6,132.1z"/>
		<path class="st8" d="M207.6,127.4c0,0-0.2,0.6-1.3,0.6c0,0-0.8-0.1-0.1-0.8c0,0,0.4-0.3,1.1-0.2
			C207.4,127.2,207.7,127.2,207.6,127.4z"/>
		<path class="st8" d="M207.3,130.2c0,0,0,0.8-1,1c0,0-0.8,0.1-0.3-0.6c0,0,0.3-0.4,1-0.5C207,130.1,207.3,130.1,207.3,130.2z"/>
		<path class="st8" d="M215.3,125.3c0,0,0,0.8-1,1c0,0-0.8,0.1-0.3-0.6c0,0,0.3-0.4,1-0.5C214.8,125.1,215.2,125.1,215.3,125.3z"/>
		<path class="st8" d="M211,125.2c0,0,0,0.8-1,1c0,0-0.8,0.1-0.3-0.6c0,0,0.3-0.4,1-0.5C210.6,125,211,125,211,125.2z"/>
		<path class="st8" d="M232.1,118.8c0,0-0.6,0.3-1.3-0.4c0,0-0.4-0.5,0.4-0.6c0,0,0.5,0.1,0.9,0.6
			C232.1,118.5,232.3,118.7,232.1,118.8z"/>
		<path class="st8" d="M212.6,129.3c0,0-0.5,0.4-1.4,0c0,0-0.5-0.4,0.2-0.8c0,0,0.5-0.1,1.1,0.3
			C212.5,128.9,212.8,129.2,212.6,129.3z"/>
		<path class="st8" d="M220.1,121c0,0-0.5,0.4-1.4,0c0,0-0.5-0.4,0.2-0.8c0,0,0.5-0.1,1.1,0.3C220,120.5,220.3,120.7,220.1,121z"/>
		<path class="st8" d="M230.9,121.1c0,0-0.5,0.4-1.4,0c0,0-0.5-0.4,0.2-0.8c0,0,0.5-0.1,1.1,0.3C230.8,120.6,231,120.9,230.9,121.1z
			"/>
		<path class="st8" d="M224.9,121.8c0,0-0.1,0.8-1.1,1c0,0-0.8,0.1-0.3-0.6c0,0,0.3-0.4,1-0.5C224.5,121.6,224.9,121.6,224.9,121.8z
			"/>
		<path class="st8" d="M220.3,125.4c0,0,0.5,0.4,0.2,1.4c0,0-0.3,0.6-0.8-0.1c0,0-0.2-0.5,0.2-1.1
			C220,125.6,220.1,125.3,220.3,125.4z"/>
		<path class="st8" d="M225.3,118.3c0,0,0.5-0.4,1.4,0c0,0,0.5,0.4-0.2,0.8c0,0-0.5,0.1-1.1-0.3
			C225.4,118.6,225.1,118.4,225.3,118.3z"/>
		<path class="st8" d="M233.6,112.2c0,0-0.2,0.6-1.3,0.6c0,0-0.8-0.1-0.1-0.8c0,0,0.4-0.3,1.1-0.2
			C233.4,112,233.7,112.1,233.6,112.2z"/>
		<path class="st8" d="M233.3,115.1c0,0,0,0.8-1,1c0,0-0.8,0.1-0.3-0.6c0,0,0.3-0.4,1-0.5C233,114.9,233.3,114.9,233.3,115.1z"/>
		<path class="st8" d="M241.2,110.1c0,0,0,0.8-1,1c0,0-0.8,0.1-0.3-0.6c0,0,0.3-0.4,1-0.5C240.8,110,241.2,109.9,241.2,110.1z"/>
		<path class="st8" d="M237,110c0,0,0,0.8-1,1c0,0-0.8,0.1-0.3-0.6c0,0,0.3-0.4,1-0.5C236.6,109.9,237,109.7,237,110z"/>
		<path class="st8" d="M258.1,103.6c0,0-0.6,0.3-1.3-0.4c0,0-0.4-0.5,0.4-0.6c0,0,0.5,0.1,0.9,0.6
			C258.1,103.3,258.2,103.5,258.1,103.6z"/>
		<path class="st8" d="M238.6,114.1c0,0-0.5,0.4-1.4,0c0,0-0.5-0.4,0.2-0.8c0,0,0.5-0.1,1.1,0.3C238.5,113.7,238.7,114,238.6,114.1z
			"/>
		<path class="st8" d="M246.1,105.8c0,0-0.5,0.4-1.4,0c0,0-0.5-0.4,0.2-0.8c0,0,0.5-0.1,1.1,0.3C246,105.3,246.2,105.6,246.1,105.8z
			"/>
		<path class="st8" d="M256.9,105.9c0,0-0.5,0.4-1.4,0c0,0-0.5-0.4,0.2-0.8c0,0,0.5-0.1,1.1,0.3C256.8,105.4,257,105.6,256.9,105.9z
			"/>
		<path class="st8" d="M250.9,106.6c0,0-0.1,0.8-1.1,1c0,0-0.8,0.1-0.3-0.6c0,0,0.3-0.4,1-0.5C250.5,106.4,250.9,106.4,250.9,106.6z
			"/>
		<path class="st8" d="M246.3,110.2c0,0,0.5,0.4,0.2,1.4c0,0-0.3,0.6-0.8-0.1c0,0-0.2-0.5,0.2-1.1
			C245.9,110.4,246.1,110.1,246.3,110.2z"/>
		<path class="st8" d="M251.3,103.1c0,0,0.5-0.4,1.4,0c0,0,0.5,0.4-0.2,0.8c0,0-0.5,0.1-1.1-0.3
			C251.4,103.4,251.1,103.2,251.3,103.1z"/>
		<path class="st8" d="M263.5,99.4c0,0-0.6,0.3-1.3-0.4c0,0-0.4-0.5,0.4-0.6c0,0,0.5,0.1,0.9,0.6C263.5,99.1,263.6,99.3,263.5,99.4z
			"/>
		<path class="st8" d="M262.2,101.5c0,0-0.5,0.4-1.4,0c0,0-0.5-0.4,0.2-0.8c0,0,0.5-0.1,1.1,0.3
			C262.1,101.2,262.4,101.4,262.2,101.5z"/>
		<path class="st8" d="M256.6,98.9c0,0,0.5-0.4,1.4,0c0,0,0.5,0.4-0.2,0.8c0,0-0.5,0.1-1.1-0.3C256.7,99.2,256.5,99,256.6,98.9z"/>
	</g>
	<g>
		<path class="st8" d="M139.1,140.8c0,0-0.1,0.6-1.1,0.9c0,0-0.6,0-0.2-0.6c0,0,0.3-0.4,1-0.3C138.8,140.6,139.1,140.6,139.1,140.8z
			"/>
		<path class="st8" d="M139.3,143.5c0,0,0.1,0.6-0.8,1.1c0,0-0.6,0.2-0.4-0.5c0,0,0.2-0.4,0.9-0.6
			C138.9,143.4,139.2,143.3,139.3,143.5z"/>
		<path class="st8" d="M145.7,137.6c0,0,0.1,0.6-0.8,1.1c0,0-0.6,0.2-0.4-0.5c0,0,0.2-0.4,0.9-0.6
			C145.4,137.5,145.7,137.5,145.7,137.6z"/>
		<path class="st8" d="M141.8,138.2c0,0,0.1,0.6-0.8,1.1c0,0-0.6,0.2-0.4-0.5c0,0,0.2-0.4,0.9-0.6
			C141.5,138.1,141.7,138,141.8,138.2z"/>
		<path class="st8" d="M160.3,128.9c0,0-0.5,0.4-1.3-0.2c0,0-0.4-0.4,0.3-0.6c0,0,0.5,0,1,0.4C160.1,128.6,160.4,128.8,160.3,128.9z
			"/>
		<path class="st8" d="M144,141.8c0,0-0.4,0.5-1.3,0.2c0,0-0.6-0.3,0.1-0.6c0,0,0.4-0.2,1.1,0.1C143.9,141.4,144.1,141.6,144,141.8z
			"/>
		<path class="st8" d="M149.6,132.8c0,0-0.4,0.5-1.3,0.2c0,0-0.6-0.3,0.1-0.6c0,0,0.4-0.2,1.1,0.1
			C149.4,132.5,149.7,132.6,149.6,132.8z"/>
		<path class="st8" d="M159.5,131.1c0,0-0.4,0.5-1.3,0.2c0,0-0.6-0.3,0.1-0.6c0,0,0.4-0.2,1.1,0.1
			C159.3,130.8,159.6,131,159.5,131.1z"/>
		<path class="st8" d="M154.1,132.8c0,0,0.1,0.6-0.8,1.1c0,0-0.6,0.2-0.4-0.5c0,0,0.2-0.4,0.9-0.6
			C153.7,132.7,154,132.6,154.1,132.8z"/>
		<path class="st8" d="M150.4,136.9c0,0,0.6,0.3,0.4,1.3c0,0-0.2,0.6-0.8,0c0,0-0.2-0.4,0-1.1C150.1,137.1,150.3,136.8,150.4,136.9z
			"/>
		<path class="st8" d="M153.8,129.5c0,0,0.4-0.5,1.3-0.2c0,0,0.6,0.3-0.1,0.6c0,0-0.4,0.2-1.1-0.2
			C154,129.8,153.7,129.6,153.8,129.5z"/>
		<path class="st8" d="M163.3,124.3c0,0-0.2,0.6-1.2,0.6c0,0-0.6-0.1-0.1-0.6c0,0,0.4-0.3,1.1-0.2
			C163.1,124.1,163.3,124.1,163.3,124.3z"/>
		<path class="st8" d="M163,127c0,0,0,0.6-1,1c0,0-0.6,0.1-0.3-0.6c0,0,0.3-0.4,1-0.5C162.6,126.8,163,126.8,163,127z"/>
		<path class="st8" d="M170.4,122.4c0,0,0,0.6-1,1c0,0-0.6,0.1-0.3-0.6c0,0,0.3-0.4,1-0.5C170.1,122.2,170.4,122.2,170.4,122.4z"/>
		<path class="st8" d="M166.4,122.3c0,0,0,0.6-1,1c0,0-0.6,0.1-0.3-0.6c0,0,0.3-0.4,1-0.5C166.1,122,166.4,122,166.4,122.3z"/>
		<path class="st8" d="M186.3,116.4c0,0-0.6,0.3-1.3-0.4c0,0-0.4-0.5,0.4-0.5c0,0,0.5,0.1,0.9,0.6
			C186.3,116,186.4,116.3,186.3,116.4z"/>
		<path class="st8" d="M168,126c0,0-0.5,0.4-1.3,0c0,0-0.5-0.4,0.2-0.6c0,0,0.5-0.1,1,0.3C167.8,125.7,168.1,125.9,168,126z"/>
		<path class="st8" d="M175,118.3c0,0-0.5,0.4-1.3,0c0,0-0.5-0.4,0.2-0.6c0,0,0.5-0.1,1,0.3C174.9,117.9,175.1,118.2,175,118.3z"/>
		<path class="st8" d="M185.2,118.5c0,0-0.5,0.4-1.3,0c0,0-0.5-0.4,0.2-0.6c0,0,0.5-0.1,1,0.3C185.1,118.1,185.3,118.3,185.2,118.5z
			"/>
		<path class="st8" d="M179.5,119.1c0,0,0,0.6-1,0.9c0,0-0.6,0.1-0.3-0.6c0,0,0.3-0.4,1-0.4C179.1,118.9,179.5,118.9,179.5,119.1z"
			/>
		<path class="st8" d="M175.2,122.5c0,0,0.5,0.4,0.2,1.3c0,0-0.3,0.5-0.6-0.1c0,0-0.1-0.4,0.2-1.1
			C174.8,122.6,175,122.4,175.2,122.5z"/>
		<path class="st8" d="M179.8,115.8c0,0,0.5-0.4,1.3,0c0,0,0.5,0.4-0.2,0.6c0,0-0.5,0.1-1-0.3C179.9,116.1,179.7,115.9,179.8,115.8z
			"/>
		<path class="st8" d="M188.4,111.5c0,0-0.2,0.6-1.2,0.6c0,0-0.6-0.1-0.1-0.6c0,0,0.4-0.3,1.1-0.2
			C188.1,111.3,188.4,111.4,188.4,111.5z"/>
		<path class="st8" d="M188.1,114.2c0,0,0,0.6-1,1c0,0-0.6,0.1-0.3-0.6c0,0,0.3-0.4,1-0.5C187.8,114,188.1,114,188.1,114.2z"/>
		<path class="st8" d="M195.5,109.5c0,0,0,0.6-1,1c0,0-0.6,0.1-0.3-0.6c0,0,0.3-0.4,1-0.5C195.1,109.3,195.4,109.3,195.5,109.5z"/>
		<path class="st8" d="M191.5,109.4c0,0,0,0.6-1,1c0,0-0.6,0.1-0.3-0.6c0,0,0.3-0.4,1-0.5C191.2,109.2,191.5,109.2,191.5,109.4z"/>
		<path class="st8" d="M211.4,103.6c0,0-0.6,0.3-1.3-0.4c0,0-0.4-0.5,0.4-0.5c0,0,0.5,0.1,0.9,0.6
			C211.4,103.2,211.5,103.5,211.4,103.6z"/>
		<path class="st8" d="M193,113.3c0,0-0.5,0.4-1.3,0c0,0-0.5-0.4,0.2-0.6c0,0,0.5-0.1,1,0.3C192.9,112.9,193.2,113.1,193,113.3z"/>
		<path class="st8" d="M200.2,105.4c0,0-0.5,0.4-1.3,0c0,0-0.5-0.4,0.2-0.6c0,0,0.5-0.1,1,0.3C200,105.1,200.3,105.3,200.2,105.4z"
			/>
		<path class="st8" d="M210.2,105.6c0,0-0.5,0.4-1.3,0c0,0-0.5-0.4,0.2-0.6c0,0,0.5-0.1,1,0.3C210.1,105.2,210.3,105.4,210.2,105.6z
			"/>
		<path class="st8" d="M204.6,106.3c0,0,0,0.6-1,0.9c0,0-0.6,0.1-0.3-0.6c0,0,0.3-0.4,1-0.4C204.3,106.1,204.6,106.1,204.6,106.3z"
			/>
		<path class="st8" d="M200.3,109.6c0,0,0.5,0.4,0.2,1.3c0,0-0.3,0.5-0.6-0.1c0,0-0.1-0.4,0.2-1.1
			C200,109.9,200.2,109.5,200.3,109.6z"/>
		<path class="st8" d="M204.9,102.9c0,0,0.5-0.4,1.3,0c0,0,0.5,0.4-0.2,0.6c0,0-0.5,0.1-1-0.3C205,103.4,204.8,103.1,204.9,102.9z"
			/>
		<path class="st8" d="M212.8,97.4c0,0-0.2,0.6-1.2,0.6c0,0-0.6-0.1-0.1-0.6c0,0,0.4-0.3,1.1-0.2C212.5,97.1,212.8,97.2,212.8,97.4z
			"/>
		<path class="st8" d="M212.5,100c0,0,0,0.6-1,1c0,0-0.6,0.1-0.3-0.6c0,0,0.3-0.4,1-0.5C212.1,99.9,212.5,99.9,212.5,100z"/>
		<path class="st8" d="M219.9,95.5c0,0,0,0.6-1,1c0,0-0.6,0.1-0.3-0.6c0,0,0.3-0.4,1-0.5C219.5,95.3,219.8,95.3,219.9,95.5z"/>
		<path class="st8" d="M215.9,95.3c0,0,0,0.6-1,1c0,0-0.6,0.1-0.3-0.6c0,0,0.3-0.4,1-0.5C215.6,95.2,215.9,95.2,215.9,95.3z"/>
		<path class="st8" d="M235.8,89.6c0,0-0.6,0.3-1.3-0.4c0,0-0.4-0.5,0.4-0.5c0,0,0.5,0.1,0.9,0.6C235.8,89.1,235.9,89.5,235.8,89.6z
			"/>
		<path class="st8" d="M217.4,99.2c0,0-0.5,0.4-1.3,0c0,0-0.5-0.4,0.2-0.6c0,0,0.5-0.1,1,0.3C217.3,98.9,217.5,99.1,217.4,99.2z"/>
		<path class="st8" d="M224.5,91.4c0,0-0.5,0.4-1.3,0c0,0-0.5-0.4,0.2-0.6c0,0,0.5-0.1,1,0.3C224.3,91.1,224.7,91.3,224.5,91.4z"/>
		<path class="st8" d="M234.6,91.5c0,0-0.5,0.4-1.3,0c0,0-0.5-0.4,0.2-0.6c0,0,0.5-0.1,1,0.3C234.5,91.2,234.7,91.4,234.6,91.5z"/>
		<path class="st8" d="M229,92.3c0,0,0,0.6-1,0.9c0,0-0.6,0.1-0.3-0.6c0,0,0.3-0.4,1-0.4C228.6,92.1,229,92.1,229,92.3z"/>
		<path class="st8" d="M224.7,95.6c0,0,0.5,0.4,0.2,1.3c0,0-0.3,0.5-0.6-0.1c0,0-0.1-0.4,0.2-1.1C224.3,95.7,224.5,95.5,224.7,95.6z
			"/>
		<path class="st8" d="M229.3,88.9c0,0,0.5-0.4,1.3,0c0,0,0.5,0.4-0.2,0.6c0,0-0.5,0.1-1-0.3C229.4,89.2,229.2,89,229.3,88.9z"/>
		<path class="st8" d="M240.7,85.6c0,0-0.6,0.3-1.3-0.4c0,0-0.4-0.5,0.4-0.5c0,0,0.5,0.1,0.9,0.6C240.7,85.3,240.9,85.5,240.7,85.6z
			"/>
		<path class="st8" d="M239.7,87.6c0,0-0.5,0.4-1.3,0c0,0-0.5-0.4,0.2-0.6c0,0,0.5-0.1,1,0.3C239.5,87.3,239.8,87.5,239.7,87.6z"/>
		<path class="st8" d="M234.3,84.9c0,0,0.5-0.4,1.3,0c0,0,0.5,0.4-0.2,0.6c0,0-0.5,0.1-1-0.3C234.5,85.4,234.1,85.2,234.3,84.9z"/>
	</g>
</g>
<g>
	<path class="st3" d="M352.3,32.4l58.8,55.3c0,0-4.5,82.1-80.7,110.2l-46.7-39.6L352.3,32.4z"/>
	<path class="st4" d="M247,176.5l36.6-18.2l46.7,39.7C330.4,198.1,291.5,220.4,247,176.5z"/>
	<path class="st5" d="M247,176.5c0,0,50.6-100.5,73.9-114.9l30.6-27.8l-67.9,124.6L247,176.5z"/>
	<path class="st6" d="M270.7,164.8c0,0,7.8,14.7,25.1,4l69.9-123.6l-14.2-11.3l-14.1,12.8"/>
	<polygon class="st7" points="283.7,158.4 295.9,168.8 365.8,45.1 351.5,33.8 	"/>
	<g>
		<path class="st8" d="M299.2,161.4c0,0,0.3,0.6-0.4,1.3c0,0-0.6,0.4-0.6-0.4c0,0,0.1-0.5,0.6-0.9
			C298.9,161.4,299.1,161.3,299.2,161.4z"/>
		<path class="st8" d="M300.9,163.8c0,0,0.4,0.5-0.1,1.4c0,0-0.4,0.5-0.8-0.2c0,0-0.1-0.5,0.3-1.1
			C300.5,163.9,300.7,163.6,300.9,163.8z"/>
		<path class="st8" d="M303.4,154.7c0,0,0.4,0.5-0.1,1.4c0,0-0.4,0.5-0.8-0.2c0,0-0.1-0.5,0.3-1.1
			C303.1,154.8,303.3,154.6,303.4,154.7z"/>
		<path class="st8" d="M300.2,157.5c0,0,0.4,0.5-0.1,1.4c0,0-0.4,0.5-0.8-0.2c0,0-0.1-0.5,0.3-1.1
			C299.8,157.6,300.1,157.4,300.2,157.5z"/>
		<path class="st8" d="M311.7,138.7c0,0-0.3,0.6-1.3,0.5c0,0-0.6-0.2-0.1-0.8c0,0,0.4-0.3,1.1-0.1
			C311.4,138.4,311.7,138.5,311.7,138.7z"/>
		<path class="st8" d="M304.2,159.5c0,0-0.1,0.8-1.1,1c0,0-0.8,0-0.3-0.6c0,0,0.3-0.4,1-0.4C303.8,159.3,304.2,159.3,304.2,159.5z"
			/>
		<path class="st8" d="M304.2,148.3c0,0-0.1,0.8-1.1,1c0,0-0.8,0-0.3-0.6c0,0,0.3-0.4,1-0.4C303.8,148,304.2,148,304.2,148.3z"/>
		<path class="st8" d="M312.2,141.1c0,0-0.1,0.8-1.1,1c0,0-0.8,0-0.3-0.6c0,0,0.3-0.4,1-0.4C311.9,140.9,312.2,140.9,312.2,141.1z"
			/>
		<path class="st8" d="M308.3,145.7c0,0,0.4,0.5-0.1,1.4c0,0-0.4,0.5-0.6-0.3c0,0-0.1-0.5,0.4-1.1
			C307.9,145.8,308.2,145.6,308.3,145.7z"/>
		<path class="st8" d="M307.3,151.4c0,0,0.8,0,1.1,1c0,0,0.1,0.6-0.6,0.4c0,0-0.4-0.2-0.5-1C307.2,151.8,307.1,151.5,307.3,151.4z"
			/>
		<path class="st8" d="M306.2,142.8c0,0,0.1-0.8,1.1-1c0,0,0.8,0,0.3,0.6c0,0-0.3,0.4-1.1,0.4C306.5,143,306.2,143,306.2,142.8z"/>
		<path class="st8" d="M311.9,132.7c0,0,0.1,0.8-0.8,1.2c0,0-0.6,0.3-0.5-0.5c0,0,0.2-0.5,0.9-0.8
			C311.5,132.6,311.8,132.5,311.9,132.7z"/>
		<path class="st8" d="M313.1,135.3c0,0,0.3,0.6-0.3,1.4c0,0-0.5,0.4-0.6-0.4c0,0,0-0.5,0.5-1C312.7,135.3,313,135.2,313.1,135.3z"
			/>
		<path class="st8" d="M317.2,126.9c0,0,0.3,0.6-0.3,1.4c0,0-0.5,0.4-0.6-0.4c0,0,0-0.5,0.5-1C316.8,127,317.1,126.8,317.2,126.9z"
			/>
		<path class="st8" d="M313.5,129.1c0,0,0.3,0.6-0.3,1.4c0,0-0.5,0.4-0.6-0.4c0,0,0-0.5,0.5-1C313.1,129.1,313.4,128.9,313.5,129.1z
			"/>
		<path class="st8" d="M328.2,112.7c0,0-0.4,0.6-1.4,0.3c0,0-0.6-0.3,0.1-0.8c0,0,0.5-0.2,1.1,0.1
			C328,112.2,328.3,112.4,328.2,112.7z"/>
		<path class="st8" d="M317.1,131.8c0,0-0.2,0.8-1.2,0.8c0,0-0.8-0.1-0.1-0.8c0,0,0.4-0.3,1.1-0.2
			C316.8,131.4,317.1,131.5,317.1,131.8z"/>
		<path class="st8" d="M319.2,120.6c0,0-0.2,0.8-1.2,0.8c0,0-0.8-0.1-0.1-0.8c0,0,0.4-0.3,1.1-0.2
			C318.8,120.4,319.2,120.4,319.2,120.6z"/>
		<path class="st8" d="M328.3,115.1c0,0-0.2,0.8-1.2,0.8c0,0-0.8-0.1-0.1-0.8c0,0,0.4-0.3,1.1-0.2
			C328,114.8,328.3,114.9,328.3,115.1z"/>
		<path class="st8" d="M323.6,118.9c0,0,0.3,0.6-0.3,1.4c0,0-0.5,0.4-0.6-0.4c0,0,0-0.5,0.6-1C323.3,118.9,323.5,118.7,323.6,118.9z
			"/>
		<path class="st8" d="M321.6,124.3c0,0,0.8,0.1,0.9,1.1c0,0,0,0.8-0.8,0.2c0,0-0.4-0.3-0.4-1.1
			C321.4,124.7,321.4,124.3,321.6,124.3z"/>
		<path class="st8" d="M322.1,115.7c0,0,0.2-0.8,1.2-0.8c0,0,0.8,0.1,0.1,0.8c0,0-0.4,0.3-1.1,0.2
			C322.4,115.9,322.1,115.9,322.1,115.7z"/>
		<path class="st8" d="M327.5,106.9c0,0,0.1,0.8-0.8,1.2c0,0-0.6,0.3-0.5-0.5c0,0,0.2-0.5,0.9-0.8
			C327,106.8,327.4,106.7,327.5,106.9z"/>
		<path class="st8" d="M328.6,109.5c0,0,0.3,0.6-0.3,1.4c0,0-0.5,0.4-0.6-0.4c0,0,0-0.5,0.5-1C328.2,109.5,328.4,109.3,328.6,109.5z
			"/>
		<path class="st8" d="M332.7,101.1c0,0,0.3,0.6-0.3,1.4c0,0-0.5,0.4-0.6-0.4c0,0,0-0.5,0.5-1C332.3,101.1,332.6,101,332.7,101.1z"
			/>
		<path class="st8" d="M329.1,103.3c0,0,0.3,0.6-0.3,1.4c0,0-0.5,0.4-0.6-0.4c0,0,0-0.5,0.5-1C328.6,103.3,329,103.1,329.1,103.3z"
			/>
		<path class="st8" d="M343.7,86.8c0,0-0.4,0.6-1.4,0.3c0,0-0.6-0.3,0.1-0.8c0,0,0.5-0.2,1.1,0.1C343.5,86.4,343.9,86.7,343.7,86.8z
			"/>
		<path class="st8" d="M332.6,105.9c0,0-0.2,0.8-1.2,0.8c0,0-0.8-0.1-0.1-0.8c0,0,0.4-0.3,1.1-0.2
			C332.3,105.6,332.6,105.8,332.6,105.9z"/>
		<path class="st8" d="M334.7,94.9c0,0-0.2,0.8-1.2,0.8c0,0-0.8-0.1-0.1-0.8c0,0,0.4-0.3,1.1-0.2C334.4,94.5,334.7,94.6,334.7,94.9z
			"/>
		<path class="st8" d="M343.9,89.2c0,0-0.2,0.8-1.2,0.8c0,0-0.8-0.1-0.1-0.8c0,0,0.4-0.3,1.1-0.2C343.5,89,343.9,89.1,343.9,89.2z"
			/>
		<path class="st8" d="M339.1,93.1c0,0,0.3,0.6-0.3,1.4c0,0-0.5,0.4-0.6-0.4c0,0,0-0.5,0.6-1C338.7,93.1,339,92.9,339.1,93.1z"/>
		<path class="st8" d="M337.2,98.5c0,0,0.8,0.1,0.9,1.1c0,0,0,0.8-0.8,0.2c0,0-0.4-0.3-0.4-1.1C337,98.9,337,98.5,337.2,98.5z"/>
		<path class="st8" d="M337.6,89.8c0,0,0.2-0.8,1.2-0.8c0,0,0.8,0.1,0.1,0.8c0,0-0.4,0.3-1.1,0.2C337.9,90.1,337.6,90,337.6,89.8z"
			/>
		<path class="st8" d="M341.6,80.4c0,0,0.1,0.8-0.8,1.2c0,0-0.6,0.3-0.5-0.5c0,0,0.2-0.5,0.9-0.8C341.2,80.3,341.5,80.2,341.6,80.4z
			"/>
		<path class="st8" d="M342.8,83c0,0,0.3,0.6-0.3,1.4c0,0-0.5,0.4-0.6-0.4c0,0,0-0.5,0.5-1C342.3,83,342.7,82.8,342.8,83z"/>
		<path class="st8" d="M346.9,74.6c0,0,0.3,0.6-0.3,1.4c0,0-0.5,0.4-0.6-0.4c0,0,0-0.5,0.5-1C346.4,74.6,346.8,74.5,346.9,74.6z"/>
		<path class="st8" d="M343.2,76.7c0,0,0.3,0.6-0.3,1.4c0,0-0.5,0.4-0.6-0.4c0,0,0-0.5,0.5-1C342.9,76.7,343.1,76.5,343.2,76.7z"/>
		<path class="st8" d="M357.9,60.2c0,0-0.4,0.6-1.4,0.3c0,0-0.6-0.3,0.1-0.8c0,0,0.5-0.2,1.1,0.1C357.7,59.9,358,60,357.9,60.2z"/>
		<path class="st8" d="M346.8,79.3c0,0-0.2,0.8-1.2,0.8c0,0-0.8-0.1-0.1-0.8c0,0,0.4-0.3,1.1-0.2C346.4,79.1,346.8,79.2,346.8,79.3z
			"/>
		<path class="st8" d="M348.8,68.3c0,0-0.2,0.8-1.2,0.8c0,0-0.8-0.1-0.1-0.8c0,0,0.4-0.3,1.1-0.2C348.6,68,348.9,68.1,348.8,68.3z"
			/>
		<path class="st8" d="M358,62.7c0,0-0.2,0.8-1.2,0.8c0,0-0.8-0.1-0.1-0.8c0,0,0.4-0.3,1.1-0.2C357.7,62.5,358.1,62.5,358,62.7z"/>
		<path class="st8" d="M353.3,66.5c0,0,0.3,0.6-0.3,1.4c0,0-0.5,0.4-0.6-0.4c0,0,0-0.5,0.6-1C352.9,66.6,353.2,66.4,353.3,66.5z"/>
		<path class="st8" d="M351.3,72c0,0,0.8,0.1,0.9,1.1c0,0,0,0.8-0.8,0.2c0,0-0.4-0.3-0.4-1.1C351.1,72.3,351.1,72,351.3,72z"/>
		<path class="st8" d="M351.7,63.3c0,0,0.2-0.8,1.2-0.8c0,0,0.8,0.1,0.1,0.8c0,0-0.4,0.3-1.1,0.2C352.1,63.6,351.7,63.5,351.7,63.3z
			"/>
		<path class="st8" d="M360.3,53.9c0,0-0.4,0.6-1.4,0.3c0,0-0.6-0.3,0.1-0.8c0,0,0.5-0.2,1.1,0.1C360,53.5,360.4,53.7,360.3,53.9z"
			/>
		<path class="st8" d="M360.4,56.3c0,0-0.2,0.8-1.2,0.8c0,0-0.8-0.1-0.1-0.8c0,0,0.4-0.3,1.1-0.2C360,56,360.4,56.1,360.4,56.3z"/>
		<path class="st8" d="M354.1,56.9c0,0,0.2-0.8,1.2-0.8c0,0,0.8,0.1,0.1,0.8c0,0-0.4,0.3-1.1,0.2C354.4,57.1,354.1,57.1,354.1,56.9z
			"/>
	</g>
	<g>
		<path class="st8" d="M276,154.2c0,0,0.3,0.6-0.4,1.3c0,0-0.5,0.3-0.5-0.4c0,0,0.1-0.5,0.6-0.9C275.6,154.2,275.9,154.1,276,154.2z
			"/>
		<path class="st8" d="M277.5,156.3c0,0,0.4,0.5-0.1,1.3c0,0-0.4,0.5-0.6-0.2c0,0-0.1-0.5,0.3-1
			C277.2,156.5,277.4,156.2,277.5,156.3z"/>
		<path class="st8" d="M279.9,148c0,0,0.4,0.5-0.1,1.3c0,0-0.4,0.5-0.6-0.2c0,0-0.1-0.5,0.3-1C279.6,148,279.8,147.8,279.9,148z"/>
		<path class="st8" d="M276.9,150.5c0,0,0.4,0.5-0.1,1.3c0,0-0.4,0.5-0.6-0.2c0,0-0.1-0.5,0.3-1
			C276.5,150.6,276.8,150.4,276.9,150.5z"/>
		<path class="st8" d="M287.8,133c0,0-0.3,0.6-1.2,0.5c0,0-0.6-0.1-0.1-0.6c0,0,0.4-0.3,1.1-0.1C287.5,132.7,287.8,132.8,287.8,133z
			"/>
		<path class="st8" d="M280.6,152.4c0,0-0.1,0.6-1,0.9c0,0-0.6,0-0.3-0.6c0,0,0.3-0.4,1-0.4C280.3,152.2,280.6,152.2,280.6,152.4z"
			/>
		<path class="st8" d="M280.6,141.9c0,0-0.1,0.6-1,0.9c0,0-0.6,0-0.3-0.6c0,0,0.3-0.4,1-0.4C280.3,141.7,280.6,141.7,280.6,141.9z"
			/>
		<path class="st8" d="M288.3,135.3c0,0-0.1,0.6-1,0.9c0,0-0.6,0-0.3-0.6c0,0,0.3-0.4,1-0.4C288,135.1,288.3,135.1,288.3,135.3z"/>
		<path class="st8" d="M284.5,139.5c0,0,0.4,0.5-0.1,1.3c0,0-0.4,0.5-0.6-0.3c0,0-0.1-0.5,0.4-1
			C284.2,139.6,284.4,139.4,284.5,139.5z"/>
		<path class="st8" d="M283.6,144.9c0,0,0.6,0,1,0.9c0,0,0.1,0.6-0.6,0.3c0,0-0.4-0.2-0.5-0.9C283.4,145.2,283.4,144.9,283.6,144.9z
			"/>
		<path class="st8" d="M282.6,136.8c0,0,0.1-0.6,1.1-0.9c0,0,0.6,0,0.3,0.6c0,0-0.3,0.4-1,0.4C282.9,137,282.6,137,282.6,136.8z"/>
		<path class="st8" d="M288,127.4c0,0,0.1,0.6-0.6,1.2c0,0-0.6,0.2-0.4-0.5c0,0,0.2-0.4,0.8-0.8C287.5,127.3,287.9,127.3,288,127.4z
			"/>
		<path class="st8" d="M289.1,129.9c0,0,0.3,0.6-0.3,1.3c0,0-0.5,0.4-0.6-0.3c0,0,0-0.5,0.5-0.9
			C288.7,129.9,288.9,129.7,289.1,129.9z"/>
		<path class="st8" d="M292.9,122c0,0,0.3,0.6-0.3,1.3c0,0-0.5,0.4-0.6-0.3c0,0,0-0.5,0.5-0.9C292.6,122,292.8,121.9,292.9,122z"/>
		<path class="st8" d="M289.5,124c0,0,0.3,0.6-0.3,1.3c0,0-0.5,0.4-0.6-0.3c0,0,0-0.5,0.5-0.9C289.2,124.1,289.4,123.9,289.5,124z"
			/>
		<path class="st8" d="M303.4,108.7c0,0-0.4,0.5-1.3,0.3c0,0-0.6-0.3,0.1-0.6c0,0,0.4-0.2,1.1,0.1
			C303.2,108.3,303.5,108.6,303.4,108.7z"/>
		<path class="st8" d="M292.8,126.5c0,0-0.2,0.6-1.2,0.6c0,0-0.6-0.1-0.1-0.6c0,0,0.4-0.3,1.1-0.2
			C292.6,126.3,292.8,126.4,292.8,126.5z"/>
		<path class="st8" d="M294.8,116.2c0,0-0.2,0.6-1.2,0.6c0,0-0.6-0.1-0.1-0.6c0,0,0.4-0.3,1.1-0.2
			C294.6,115.9,294.9,116,294.8,116.2z"/>
		<path class="st8" d="M303.5,111c0,0-0.2,0.6-1.2,0.6c0,0-0.6-0.1-0.1-0.6c0,0,0.4-0.3,1.1-0.2C303.2,110.8,303.5,110.8,303.5,111z
			"/>
		<path class="st8" d="M299.1,114.6c0,0,0.3,0.6-0.3,1.3c0,0-0.5,0.4-0.6-0.4c0,0,0-0.5,0.5-0.9C298.7,114.6,299,114.4,299.1,114.6z
			"/>
		<path class="st8" d="M297.1,119.7c0,0,0.6,0.1,0.9,1.1c0,0,0,0.6-0.6,0.2c0,0-0.4-0.3-0.4-1C296.9,120,296.9,119.7,297.1,119.7z"
			/>
		<path class="st8" d="M297.6,111.6c0,0,0.2-0.6,1.2-0.6c0,0,0.6,0.1,0.1,0.6c0,0-0.4,0.3-1.1,0.2
			C297.9,111.8,297.6,111.7,297.6,111.6z"/>
		<path class="st8" d="M302.6,103.4c0,0,0.1,0.6-0.6,1.2c0,0-0.6,0.2-0.4-0.5c0,0,0.2-0.4,0.8-0.8
			C302.2,103.4,302.5,103.3,302.6,103.4z"/>
		<path class="st8" d="M303.7,105.9c0,0,0.3,0.6-0.3,1.3c0,0-0.5,0.4-0.6-0.3c0,0,0-0.5,0.5-0.9
			C303.4,105.9,303.6,105.6,303.7,105.9z"/>
		<path class="st8" d="M307.6,98c0,0,0.3,0.6-0.3,1.3c0,0-0.5,0.4-0.6-0.3c0,0,0-0.5,0.5-0.9C307.3,98,307.5,97.9,307.6,98z"/>
		<path class="st8" d="M304.2,99.9c0,0,0.3,0.6-0.3,1.3c0,0-0.5,0.4-0.6-0.3c0,0,0-0.5,0.5-0.9C303.8,100,304.1,99.8,304.2,99.9z"/>
		<path class="st8" d="M318.1,84.6c0,0-0.4,0.5-1.3,0.3c0,0-0.6-0.3,0.1-0.6c0,0,0.4-0.2,1.1,0.1C317.9,84.3,318.2,84.5,318.1,84.6z
			"/>
		<path class="st8" d="M307.5,102.5c0,0-0.2,0.6-1.2,0.6c0,0-0.6-0.1-0.1-0.6c0,0,0.4-0.3,1.1-0.2
			C307.3,102.2,307.5,102.3,307.5,102.5z"/>
		<path class="st8" d="M309.4,92.2c0,0-0.2,0.6-1.2,0.6c0,0-0.6-0.1-0.1-0.6c0,0,0.4-0.3,1.1-0.2C309.2,91.8,309.6,91.9,309.4,92.2z
			"/>
		<path class="st8" d="M318.2,87c0,0-0.2,0.6-1.2,0.6c0,0-0.6-0.1-0.1-0.6c0,0,0.4-0.3,1.1-0.2C317.9,86.8,318.2,86.8,318.2,87z"/>
		<path class="st8" d="M313.8,90.5c0,0,0.3,0.6-0.3,1.3c0,0-0.5,0.4-0.6-0.4c0,0,0-0.5,0.5-0.9C313.3,90.5,313.5,90.3,313.8,90.5z"
			/>
		<path class="st8" d="M311.8,95.6c0,0,0.6,0.1,0.9,1.1c0,0,0,0.6-0.6,0.2c0,0-0.4-0.3-0.4-1C311.6,95.9,311.6,95.6,311.8,95.6z"/>
		<path class="st8" d="M312.2,87.5c0,0,0.2-0.6,1.2-0.6c0,0,0.6,0.1,0.1,0.6c0,0-0.4,0.3-1.1,0.2C312.6,87.7,312.2,87.6,312.2,87.5z
			"/>
		<path class="st8" d="M316,78.7c0,0,0.1,0.6-0.6,1.2c0,0-0.6,0.2-0.4-0.5c0,0,0.2-0.4,0.8-0.8C315.7,78.6,315.9,78.5,316,78.7z"/>
		<path class="st8" d="M317.2,81.1c0,0,0.3,0.6-0.3,1.3c0,0-0.5,0.4-0.6-0.3c0,0,0-0.5,0.5-0.9C316.8,81.2,317.1,80.9,317.2,81.1z"
			/>
		<path class="st8" d="M321.1,73.3c0,0,0.3,0.6-0.3,1.3c0,0-0.5,0.4-0.6-0.3c0,0,0-0.5,0.5-0.9C320.7,73.3,321,73.2,321.1,73.3z"/>
		<path class="st8" d="M317.6,75.2c0,0,0.3,0.6-0.3,1.3c0,0-0.5,0.4-0.6-0.3c0,0,0-0.5,0.5-0.9C317.2,75.2,317.5,75.1,317.6,75.2z"
			/>
		<path class="st8" d="M331.5,59.9c0,0-0.4,0.5-1.3,0.3c0,0-0.6-0.3,0.1-0.6c0,0,0.4-0.2,1.1,0.1C331.2,59.6,331.6,59.8,331.5,59.9z
			"/>
		<path class="st8" d="M321,77.7c0,0-0.2,0.6-1.2,0.6c0,0-0.6-0.1-0.1-0.6c0,0,0.4-0.3,1.1-0.2C320.7,77.5,321,77.6,321,77.7z"/>
		<path class="st8" d="M322.9,67.5c0,0-0.2,0.6-1.2,0.6c0,0-0.6-0.1-0.1-0.6c0,0,0.4-0.3,1.1-0.2C322.6,67.1,322.9,67.2,322.9,67.5z
			"/>
		<path class="st8" d="M331.6,62.3c0,0-0.2,0.6-1.2,0.6c0,0-0.6-0.1-0.1-0.6c0,0,0.4-0.3,1.1-0.2C331.3,62,331.6,62.1,331.6,62.3z"
			/>
		<path class="st8" d="M327.1,65.7c0,0,0.3,0.6-0.3,1.3c0,0-0.5,0.4-0.6-0.4c0,0,0-0.5,0.5-0.9C326.7,65.8,327,65.6,327.1,65.7z"/>
		<path class="st8" d="M325.2,70.9c0,0,0.6,0.1,0.9,1.1c0,0,0,0.6-0.6,0.2c0,0-0.4-0.3-0.4-1C325,71.1,325.1,70.9,325.2,70.9z"/>
		<path class="st8" d="M325.6,62.7c0,0,0.2-0.6,1.2-0.6c0,0,0.6,0.1,0.1,0.6c0,0-0.4,0.3-1.1,0.2C325.9,63,325.6,62.9,325.6,62.7z"
			/>
		<path class="st8" d="M333.7,54c0,0-0.4,0.5-1.3,0.3c0,0-0.6-0.3,0.1-0.6c0,0,0.4-0.2,1.1,0.1C333.5,53.7,333.8,53.8,333.7,54z"/>
		<path class="st8" d="M333.8,56.2c0,0-0.2,0.6-1.2,0.6c0,0-0.6-0.1-0.1-0.6c0,0,0.4-0.3,1.1-0.2C333.5,56,333.8,56.1,333.8,56.2z"
			/>
		<path class="st8" d="M327.9,56.8c0,0,0.2-0.6,1.2-0.6c0,0,0.6,0.1,0.1,0.6c0,0-0.4,0.3-1.1,0.2C328.2,57,327.9,57,327.9,56.8z"/>
	</g>
</g>
<g>
	<path class="st3" d="M383,91.4l37.2,71.6c0,0-31.3,76.1-112.5,77.5l-31.1-52.9L383,91.4z"/>
	<path class="st4" d="M236.1,192.8l40.6-5.1l31.1,52.9C307.7,240.6,263.7,248.9,236.1,192.8z"/>
	<path class="st5" d="M236.1,192.8c0,0,80.9-78.2,107.7-84.1l38.1-16.2l-105.2,95.3L236.1,192.8z"/>
	<path class="st6" d="M262.4,189.5c0,0,2.5,16.4,22.4,12.1l106.8-93.6l-9.7-15.4l-17.6,7.4"/>
	<polygon class="st7" points="276.7,187.7 284.8,201.5 391.5,107.9 381.8,92.5 	"/>
	<g>
		<path class="st8" d="M290.4,195.7c0,0,0,0.8-0.9,1.1c0,0-0.6,0.2-0.4-0.6c0,0,0.2-0.4,1-0.6C290,195.6,290.4,195.6,290.4,195.7z"
			/>
		<path class="st8" d="M291.2,198.5c0,0,0.2,0.6-0.5,1.3c0,0-0.6,0.3-0.5-0.4c0,0,0.1-0.5,0.6-0.9
			C290.8,198.4,291.1,198.3,291.2,198.5z"/>
		<path class="st8" d="M296.5,190.9c0,0,0.2,0.6-0.5,1.3c0,0-0.6,0.3-0.5-0.4c0,0,0.1-0.5,0.6-0.9
			C296.2,190.9,296.4,190.7,296.5,190.9z"/>
		<path class="st8" d="M292.6,192.4c0,0,0.2,0.6-0.5,1.3c0,0-0.6,0.3-0.5-0.4c0,0,0.1-0.5,0.6-0.9
			C292.2,192.4,292.5,192.2,292.6,192.4z"/>
		<path class="st8" d="M309.7,178.5c0,0-0.5,0.5-1.4,0.1c0,0-0.6-0.4,0.2-0.8c0,0,0.5-0.1,1.1,0.2
			C309.4,178,309.8,178.2,309.7,178.5z"/>
		<path class="st8" d="M295.6,195.5c0,0-0.3,0.6-1.3,0.5c0,0-0.6-0.2,0-0.8c0,0,0.4-0.3,1.1-0.1
			C295.4,195.3,295.7,195.4,295.6,195.5z"/>
		<path class="st8" d="M299.4,184.9c0,0-0.3,0.6-1.3,0.5c0,0-0.6-0.2,0-0.8c0,0,0.4-0.3,1.1-0.1
			C299.2,184.6,299.5,184.7,299.4,184.9z"/>
		<path class="st8" d="M309.3,180.8c0,0-0.3,0.6-1.3,0.5c0,0-0.6-0.2,0-0.8c0,0,0.4-0.3,1.1-0.1
			C309.1,180.6,309.4,180.7,309.3,180.8z"/>
		<path class="st8" d="M304.2,183.9c0,0,0.2,0.6-0.5,1.3c0,0-0.6,0.3-0.5-0.5c0,0,0.1-0.5,0.8-0.9
			C303.7,183.9,304.1,183.7,304.2,183.9z"/>
		<path class="st8" d="M301.2,188.9c0,0,0.6,0.2,0.6,1.2c0,0-0.1,0.8-0.8,0.1c0,0-0.3-0.4-0.2-1.1
			C301,189.2,301.1,188.9,301.2,188.9z"/>
		<path class="st8" d="M303.1,180.5c0,0,0.3-0.6,1.3-0.5c0,0,0.6,0.2,0,0.8c0,0-0.4,0.3-1.1,0.1
			C303.4,180.7,303.1,180.6,303.1,180.5z"/>
		<path class="st8" d="M311.8,172.9c0,0-0.1,0.8-1.1,1c0,0-0.8,0-0.3-0.6c0,0,0.3-0.4,1-0.4C311.5,172.6,311.8,172.6,311.8,172.9z"
			/>
		<path class="st8" d="M312,175.7c0,0,0.1,0.8-0.8,1.2c0,0-0.6,0.2-0.5-0.5c0,0,0.2-0.5,0.9-0.8C311.7,175.5,312,175.4,312,175.7z"
			/>
		<path class="st8" d="M318.7,169.1c0,0,0.1,0.8-0.8,1.2c0,0-0.6,0.2-0.5-0.5c0,0,0.2-0.5,0.9-0.8
			C318.3,169.1,318.6,169,318.7,169.1z"/>
		<path class="st8" d="M314.6,169.9c0,0,0.1,0.8-0.8,1.2c0,0-0.6,0.2-0.5-0.5c0,0,0.2-0.5,0.9-0.8
			C314.2,169.8,314.5,169.7,314.6,169.9z"/>
		<path class="st8" d="M333.8,159.3c0,0-0.6,0.4-1.4-0.1c0,0-0.5-0.5,0.3-0.6c0,0,0.5,0,1,0.4C333.7,158.8,334,159,333.8,159.3z"/>
		<path class="st8" d="M317,173.6c0,0-0.4,0.5-1.4,0.3c0,0-0.6-0.3,0.1-0.8c0,0,0.5-0.2,1.1,0.1C316.9,173.3,317.1,173.4,317,173.6z
			"/>
		<path class="st8" d="M322.6,163.8c0,0-0.4,0.5-1.4,0.3c0,0-0.6-0.3,0.1-0.8c0,0,0.5-0.2,1.1,0.1
			C322.5,163.5,322.7,163.7,322.6,163.8z"/>
		<path class="st8" d="M333.2,161.6c0,0-0.4,0.5-1.4,0.3c0,0-0.6-0.3,0.1-0.8c0,0,0.5-0.2,1.1,0.1
			C333,161.3,333.2,161.4,333.2,161.6z"/>
		<path class="st8" d="M327.5,163.7c0,0,0.1,0.8-0.8,1.2c0,0-0.6,0.2-0.4-0.6c0,0,0.2-0.5,0.9-0.6
			C327,163.6,327.4,163.5,327.5,163.7z"/>
		<path class="st8" d="M323.8,168.1c0,0,0.6,0.3,0.4,1.3c0,0-0.2,0.6-0.8,0c0,0-0.3-0.4,0-1.1C323.5,168.4,323.6,168.1,323.8,168.1z
			"/>
		<path class="st8" d="M327,160.1c0,0,0.4-0.5,1.4-0.2c0,0,0.6,0.3-0.1,0.8c0,0-0.5,0.2-1.1-0.1C327.2,160.4,326.9,160.2,327,160.1z
			"/>
		<path class="st8" d="M335,153.5c0,0-0.1,0.8-1.1,1c0,0-0.8,0-0.3-0.6c0,0,0.3-0.4,1-0.4C334.6,153.4,334.9,153.4,335,153.5z"/>
		<path class="st8" d="M335.2,156.5c0,0,0.1,0.8-0.8,1.2c0,0-0.6,0.2-0.5-0.5c0,0,0.2-0.5,0.9-0.8
			C334.8,156.3,335.2,156.2,335.2,156.5z"/>
		<path class="st8" d="M341.9,149.9c0,0,0.1,0.8-0.8,1.2c0,0-0.6,0.2-0.5-0.5c0,0,0.2-0.5,0.9-0.8
			C341.5,149.8,341.8,149.7,341.9,149.9z"/>
		<path class="st8" d="M337.7,150.6c0,0,0.1,0.8-0.8,1.2c0,0-0.6,0.2-0.5-0.5c0,0,0.2-0.5,0.9-0.8
			C337.4,150.5,337.7,150.5,337.7,150.6z"/>
		<path class="st8" d="M357,140c0,0-0.6,0.4-1.4-0.1c0,0-0.5-0.5,0.3-0.6c0,0,0.5,0,1,0.4C356.9,139.6,357.1,139.8,357,140z"/>
		<path class="st8" d="M340.2,154.3c0,0-0.4,0.5-1.4,0.3c0,0-0.6-0.3,0.1-0.8c0,0,0.5-0.2,1.1,0.1C340,154,340.3,154.2,340.2,154.3z
			"/>
		<path class="st8" d="M345.8,144.6c0,0-0.4,0.5-1.4,0.3c0,0-0.6-0.3,0.1-0.8c0,0,0.5-0.2,1.1,0.1
			C345.6,144.3,345.9,144.4,345.8,144.6z"/>
		<path class="st8" d="M356.3,142.3c0,0-0.4,0.5-1.4,0.3c0,0-0.6-0.3,0.1-0.8c0,0,0.5-0.2,1.1,0.1C356,142,356.4,142.2,356.3,142.3z
			"/>
		<path class="st8" d="M350.7,144.4c0,0,0.1,0.8-0.8,1.2c0,0-0.6,0.2-0.4-0.6c0,0,0.2-0.5,0.9-0.6
			C350.2,144.3,350.5,144.2,350.7,144.4z"/>
		<path class="st8" d="M346.9,148.9c0,0,0.6,0.3,0.4,1.3c0,0-0.2,0.6-0.8,0c0,0-0.3-0.4,0-1.1C346.6,149.1,346.8,148.8,346.9,148.9z
			"/>
		<path class="st8" d="M350.2,140.8c0,0,0.4-0.5,1.4-0.2c0,0,0.6,0.3-0.1,0.8c0,0-0.5,0.2-1.1-0.1
			C350.4,141.1,350.1,141,350.2,140.8z"/>
		<path class="st8" d="M357.1,133.3c0,0-0.1,0.8-1.1,1c0,0-0.8,0-0.3-0.6c0,0,0.3-0.4,1-0.4C356.8,133,357.1,133,357.1,133.3z"/>
		<path class="st8" d="M357.3,136.1c0,0,0.1,0.8-0.8,1.2c0,0-0.6,0.2-0.5-0.5c0,0,0.2-0.5,0.9-0.8C357,136,357.3,135.9,357.3,136.1z
			"/>
		<path class="st8" d="M364,129.5c0,0,0.1,0.8-0.8,1.2c0,0-0.6,0.2-0.5-0.5c0,0,0.2-0.5,0.9-0.8C363.6,129.4,363.9,129.3,364,129.5z
			"/>
		<path class="st8" d="M359.9,130.2c0,0,0.1,0.8-0.8,1.2c0,0-0.6,0.2-0.5-0.5c0,0,0.2-0.5,0.9-0.8
			C359.5,130.1,359.8,130.1,359.9,130.2z"/>
		<path class="st8" d="M379.1,119.6c0,0-0.6,0.4-1.4-0.1c0,0-0.5-0.5,0.3-0.6c0,0,0.5,0,1,0.4C379.1,119.2,379.3,119.5,379.1,119.6z
			"/>
		<path class="st8" d="M362.3,134c0,0-0.4,0.5-1.4,0.3c0,0-0.6-0.3,0.1-0.8c0,0,0.5-0.2,1.1,0.1C362.2,133.6,362.4,133.8,362.3,134z
			"/>
		<path class="st8" d="M367.9,124.2c0,0-0.4,0.5-1.4,0.3c0,0-0.6-0.3,0.1-0.8c0,0,0.5-0.2,1.1,0.1C367.8,123.9,368,124,367.9,124.2z
			"/>
		<path class="st8" d="M378.5,121.9c0,0-0.4,0.5-1.4,0.3c0,0-0.6-0.3,0.1-0.8c0,0,0.5-0.2,1.1,0.1
			C378.3,121.6,378.5,121.8,378.5,121.9z"/>
		<path class="st8" d="M372.8,124c0,0,0.1,0.8-0.8,1.2c0,0-0.6,0.2-0.4-0.6c0,0,0.2-0.5,0.9-0.6C372.3,123.9,372.7,123.8,372.8,124z
			"/>
		<path class="st8" d="M369.1,128.5c0,0,0.6,0.3,0.4,1.3c0,0-0.2,0.6-0.8,0c0,0-0.3-0.4,0-1.1C368.8,128.7,368.9,128.4,369.1,128.5z
			"/>
		<path class="st8" d="M372.3,120.4c0,0,0.4-0.5,1.4-0.2c0,0,0.6,0.3-0.1,0.8c0,0-0.5,0.2-1.1-0.1
			C372.6,120.7,372.2,120.6,372.3,120.4z"/>
		<path class="st8" d="M383.6,114.3c0,0-0.6,0.4-1.4-0.1c0,0-0.5-0.5,0.3-0.6c0,0,0.5,0,1,0.4C383.4,114,383.7,114.2,383.6,114.3z"
			/>
		<path class="st8" d="M382.8,116.8c0,0-0.4,0.5-1.4,0.3c0,0-0.6-0.3,0.1-0.8c0,0,0.5-0.2,1.1,0.1
			C382.6,116.3,382.9,116.5,382.8,116.8z"/>
		<path class="st8" d="M376.7,115.1c0,0,0.4-0.5,1.4-0.2c0,0,0.6,0.3-0.1,0.8c0,0-0.5,0.2-1.1-0.1
			C376.9,115.6,376.7,115.4,376.7,115.1z"/>
	</g>
	<g>
		<path class="st8" d="M270.8,181.3c0,0,0,0.6-0.9,1.1c0,0-0.6,0.1-0.4-0.5c0,0,0.2-0.4,0.9-0.5
			C270.5,181.2,270.8,181.1,270.8,181.3z"/>
		<path class="st8" d="M271.6,183.9c0,0,0.2,0.6-0.5,1.2c0,0-0.5,0.3-0.5-0.4c0,0,0.1-0.5,0.6-0.8
			C271.1,183.7,271.5,183.6,271.6,183.9z"/>
		<path class="st8" d="M276.7,176.7c0,0,0.2,0.6-0.5,1.2c0,0-0.5,0.3-0.5-0.4c0,0,0.1-0.5,0.6-0.8
			C276.2,176.6,276.5,176.5,276.7,176.7z"/>
		<path class="st8" d="M272.9,178.1c0,0,0.2,0.6-0.5,1.2c0,0-0.5,0.3-0.5-0.4c0,0,0.1-0.5,0.6-0.8
			C272.6,178,272.8,177.9,272.9,178.1z"/>
		<path class="st8" d="M288.9,165.2c0,0-0.4,0.5-1.3,0.1c0,0-0.5-0.3,0.2-0.6c0,0,0.5-0.1,1.1,0.2
			C288.7,164.8,289.1,165,288.9,165.2z"/>
		<path class="st8" d="M275.8,181.1c0,0-0.3,0.6-1.3,0.4c0,0-0.6-0.2,0-0.8c0,0,0.4-0.2,1.1-0.1
			C275.6,180.8,275.9,180.9,275.8,181.1z"/>
		<path class="st8" d="M279.3,171.2c0,0-0.3,0.6-1.3,0.4c0,0-0.6-0.2,0-0.8c0,0,0.4-0.2,1.1-0.1C279,170.9,279.3,171,279.3,171.2z"
			/>
		<path class="st8" d="M288.6,167.5c0,0-0.3,0.6-1.3,0.4c0,0-0.6-0.2,0-0.8c0,0,0.4-0.2,1.1-0.1
			C288.4,167.1,288.7,167.2,288.6,167.5z"/>
		<path class="st8" d="M283.8,170.3c0,0,0.2,0.6-0.5,1.2c0,0-0.5,0.3-0.5-0.4c0,0,0.1-0.5,0.6-0.8
			C283.3,170.2,283.7,170,283.8,170.3z"/>
		<path class="st8" d="M281.1,175c0,0,0.6,0.2,0.6,1.2c0,0-0.1,0.6-0.6,0.1c0,0-0.3-0.4-0.2-1C280.9,175.2,280.9,174.9,281.1,175z"
			/>
		<path class="st8" d="M282.8,167c0,0,0.3-0.6,1.3-0.4c0,0,0.6,0.2,0,0.8c0,0-0.4,0.2-1.1,0.1C283,167.4,282.7,167.2,282.8,167z"/>
		<path class="st8" d="M290.9,160c0,0-0.1,0.6-1,0.9c0,0-0.6,0-0.3-0.6c0,0,0.3-0.4,1-0.4C290.6,159.8,290.9,159.8,290.9,160z"/>
		<path class="st8" d="M291.2,162.6c0,0,0.1,0.6-0.8,1.1c0,0-0.6,0.2-0.4-0.5c0,0,0.2-0.4,0.8-0.6
			C290.9,162.5,291.1,162.4,291.2,162.6z"/>
		<path class="st8" d="M297.5,156.6c0,0,0.1,0.6-0.8,1.1c0,0-0.6,0.2-0.4-0.5c0,0,0.2-0.4,0.8-0.6
			C297,156.5,297.4,156.3,297.5,156.6z"/>
		<path class="st8" d="M293.6,157.2c0,0,0.1,0.6-0.8,1.1c0,0-0.6,0.2-0.4-0.5c0,0,0.2-0.4,0.8-0.6
			C293.2,157.1,293.5,157.1,293.6,157.2z"/>
		<path class="st8" d="M311.7,147.4c0,0-0.5,0.4-1.3-0.1c0,0-0.5-0.4,0.3-0.6c0,0,0.5,0,1,0.4C311.6,147,311.8,147.2,311.7,147.4z"
			/>
		<path class="st8" d="M295.9,160.7c0,0-0.4,0.5-1.3,0.2c0,0-0.6-0.3,0.1-0.6c0,0,0.4-0.2,1.1,0.1
			C295.7,160.3,296,160.6,295.9,160.7z"/>
		<path class="st8" d="M301.1,151.6c0,0-0.4,0.5-1.3,0.2c0,0-0.6-0.3,0.1-0.6c0,0,0.4-0.2,1.1,0.1
			C300.9,151.3,301.2,151.4,301.1,151.6z"/>
		<path class="st8" d="M311.1,149.6c0,0-0.4,0.5-1.3,0.2c0,0-0.6-0.3,0.1-0.6c0,0,0.4-0.2,1.1,0.1
			C310.8,149.2,311.1,149.4,311.1,149.6z"/>
		<path class="st8" d="M305.7,151.5c0,0,0.1,0.6-0.8,1.1c0,0-0.6,0.2-0.4-0.5c0,0,0.2-0.4,0.9-0.6
			C305.3,151.4,305.6,151.3,305.7,151.5z"/>
		<path class="st8" d="M302.2,155.6c0,0,0.6,0.3,0.4,1.3c0,0-0.2,0.6-0.8,0c0,0-0.2-0.4,0-1.1C301.9,155.8,302,155.6,302.2,155.6z"
			/>
		<path class="st8" d="M305.2,148.1c0,0,0.4-0.5,1.3-0.2c0,0,0.6,0.3-0.1,0.6c0,0-0.4,0.2-1.1-0.1
			C305.5,148.5,305.2,148.3,305.2,148.1z"/>
		<path class="st8" d="M312.7,142.1c0,0-0.1,0.6-1,0.9c0,0-0.6,0-0.3-0.6c0,0,0.3-0.4,1-0.4C312.4,141.9,312.7,141.9,312.7,142.1z"
			/>
		<path class="st8" d="M313,144.7c0,0,0.1,0.6-0.8,1.1c0,0-0.6,0.2-0.4-0.5c0,0,0.2-0.4,0.8-0.6C312.6,144.7,312.9,144.6,313,144.7z
			"/>
		<path class="st8" d="M319.3,138.7c0,0,0.1,0.6-0.8,1.1c0,0-0.6,0.2-0.4-0.5c0,0,0.2-0.4,0.8-0.6
			C318.8,138.5,319.2,138.4,319.3,138.7z"/>
		<path class="st8" d="M315.4,139.4c0,0,0.1,0.6-0.8,1.1c0,0-0.6,0.2-0.4-0.5c0,0,0.2-0.4,0.8-0.6
			C314.9,139.3,315.3,139.2,315.4,139.4z"/>
		<path class="st8" d="M333.5,129.5c0,0-0.5,0.4-1.3-0.1c0,0-0.5-0.4,0.3-0.6c0,0,0.5,0,1,0.4C333.4,129.2,333.6,129.4,333.5,129.5z
			"/>
		<path class="st8" d="M317.6,142.9c0,0-0.4,0.5-1.3,0.2c0,0-0.6-0.3,0.1-0.6c0,0,0.4-0.2,1.1,0.1
			C317.5,142.5,317.8,142.6,317.6,142.9z"/>
		<path class="st8" d="M322.9,133.7c0,0-0.4,0.5-1.3,0.2c0,0-0.6-0.3,0.1-0.6c0,0,0.4-0.2,1.1,0.1
			C322.7,133.4,323,133.6,322.9,133.7z"/>
		<path class="st8" d="M332.9,131.8c0,0-0.4,0.5-1.3,0.2c0,0-0.6-0.3,0.1-0.6c0,0,0.4-0.2,1.1,0.1
			C332.6,131.4,332.9,131.5,332.9,131.8z"/>
		<path class="st8" d="M327.5,133.6c0,0,0.1,0.6-0.8,1.1c0,0-0.6,0.2-0.4-0.5c0,0,0.2-0.4,0.9-0.6
			C327,133.5,327.4,133.4,327.5,133.6z"/>
		<path class="st8" d="M324,137.8c0,0,0.6,0.3,0.4,1.3c0,0-0.2,0.6-0.8,0c0,0-0.2-0.4,0-1.1C323.7,138,323.8,137.7,324,137.8z"/>
		<path class="st8" d="M327,130.2c0,0,0.4-0.5,1.3-0.2c0,0,0.6,0.3-0.1,0.6c0,0-0.4,0.2-1.1-0.1C327.2,130.6,326.9,130.5,327,130.2z
			"/>
		<path class="st8" d="M333.5,123.1c0,0-0.1,0.6-1,0.9c0,0-0.6,0-0.3-0.6c0,0,0.3-0.4,1-0.4C333.2,123,333.5,123,333.5,123.1z"/>
		<path class="st8" d="M333.8,125.8c0,0,0.1,0.6-0.8,1.1c0,0-0.6,0.2-0.4-0.5c0,0,0.2-0.4,0.8-0.6
			C333.5,125.7,333.7,125.6,333.8,125.8z"/>
		<path class="st8" d="M340.1,119.8c0,0,0.1,0.6-0.8,1.1c0,0-0.6,0.2-0.4-0.5c0,0,0.2-0.4,0.8-0.6
			C339.6,119.7,340,119.6,340.1,119.8z"/>
		<path class="st8" d="M336.2,120.4c0,0,0.1,0.6-0.8,1.1c0,0-0.6,0.2-0.4-0.5c0,0,0.2-0.4,0.8-0.6
			C335.8,120.3,336.1,120.3,336.2,120.4z"/>
		<path class="st8" d="M354.3,110.6c0,0-0.5,0.4-1.3-0.1c0,0-0.5-0.4,0.3-0.6c0,0,0.5,0,1,0.4C354.2,110.2,354.4,110.4,354.3,110.6z
			"/>
		<path class="st8" d="M338.5,123.9c0,0-0.4,0.5-1.3,0.2c0,0-0.6-0.3,0.1-0.6c0,0,0.4-0.2,1.1,0.1
			C338.4,123.6,338.6,123.8,338.5,123.9z"/>
		<path class="st8" d="M343.7,114.8c0,0-0.4,0.5-1.3,0.2c0,0-0.6-0.3,0.1-0.6c0,0,0.4-0.2,1.1,0.1
			C343.5,114.5,343.9,114.6,343.7,114.8z"/>
		<path class="st8" d="M353.7,112.8c0,0-0.4,0.5-1.3,0.2c0,0-0.6-0.3,0.1-0.6c0,0,0.4-0.2,1.1,0.1
			C353.5,112.4,353.7,112.7,353.7,112.8z"/>
		<path class="st8" d="M348.3,114.7c0,0,0.1,0.6-0.8,1.1c0,0-0.6,0.2-0.4-0.5c0,0,0.2-0.4,0.9-0.6
			C348,114.6,348.2,114.5,348.3,114.7z"/>
		<path class="st8" d="M344.8,118.8c0,0,0.6,0.3,0.4,1.3c0,0-0.2,0.6-0.8,0c0,0-0.2-0.4,0-1.1C344.5,119,344.6,118.8,344.8,118.8z"
			/>
		<path class="st8" d="M347.8,111.4c0,0,0.4-0.5,1.3-0.2c0,0,0.6,0.3-0.1,0.6c0,0-0.4,0.2-1.1-0.1
			C348.1,111.7,347.8,111.5,347.8,111.4z"/>
		<path class="st8" d="M358.4,105.6c0,0-0.5,0.4-1.3-0.1c0,0-0.5-0.4,0.3-0.6c0,0,0.5,0,1,0.4C358.3,105.3,358.5,105.5,358.4,105.6z
			"/>
		<path class="st8" d="M357.8,107.9c0,0-0.4,0.5-1.3,0.2c0,0-0.6-0.3,0.1-0.6c0,0,0.4-0.2,1.1,0.1
			C357.6,107.6,357.8,107.7,357.8,107.9z"/>
		<path class="st8" d="M351.9,106.4c0,0,0.4-0.5,1.3-0.2c0,0,0.6,0.3-0.1,0.6c0,0-0.4,0.2-1.1-0.1
			C352.2,106.7,351.8,106.6,351.9,106.4z"/>
	</g>
</g>
<g>
	<path class="st3" d="M535.8,113.8l13.3,79.7c0,0-53.3,62.6-131,38.8l-13.2-59.9L535.8,113.8z"/>
	<path class="st4" d="M364.8,164.9l40.1,7.7l13.2,59.9C418.1,232.4,373.6,226.7,364.8,164.9z"/>
	<path class="st5" d="M364.8,164.9c0,0,101.2-49.4,128.4-46.7l41.3-3.7l-129.4,58L364.8,164.9z"/>
	<path class="st6" d="M390.8,169.8c0,0-2.7,16.4,17.6,18.4l130.4-56.1l-4.4-17.7l-19,1.6"/>
	<polygon class="st7" points="404.9,172.5 408.4,188.3 538.8,132.2 534.4,114.5 	"/>
	<g>
		<path class="st8" d="M415.5,184.4c0,0-0.2,0.8-1.2,0.8c0,0-0.8,0-0.2-0.8c0,0,0.4-0.3,1.1-0.3
			C415.2,184.2,415.5,184.3,415.5,184.4z"/>
		<path class="st8" d="M415.4,187.3c0,0,0,0.8-0.9,1.1c0,0-0.6,0.2-0.4-0.6c0,0,0.2-0.4,1-0.6C414.9,187.1,415.3,187.1,415.4,187.3z
			"/>
		<path class="st8" d="M422.8,181.7c0,0,0,0.8-0.9,1.1c0,0-0.6,0.2-0.4-0.6c0,0,0.2-0.4,1-0.6C422.4,181.5,422.8,181.5,422.8,181.7z
			"/>
		<path class="st8" d="M418.6,181.9c0,0,0,0.8-0.9,1.1c0,0-0.6,0.2-0.4-0.6c0,0,0.2-0.4,1-0.6C418.2,181.8,418.6,181.7,418.6,181.9z
			"/>
		<path class="st8" d="M439.1,173.9c0,0-0.6,0.3-1.4-0.3c0,0-0.4-0.5,0.4-0.6c0,0,0.5,0,1,0.5C439.1,173.5,439.3,173.8,439.1,173.9z
			"/>
		<path class="st8" d="M420.6,185.9c0,0-0.5,0.5-1.4,0.1c0,0-0.5-0.4,0.2-0.8c0,0,0.5-0.1,1.1,0.3
			C420.4,185.5,420.7,185.7,420.6,185.9z"/>
		<path class="st8" d="M427.5,177c0,0-0.5,0.5-1.4,0.1c0,0-0.5-0.4,0.2-0.8c0,0,0.5-0.1,1.1,0.3C427.2,176.6,427.6,176.8,427.5,177z
			"/>
		<path class="st8" d="M438.1,176.2c0,0-0.5,0.5-1.4,0.1c0,0-0.5-0.4,0.2-0.8c0,0,0.5-0.1,1.1,0.3
			C437.9,175.8,438.2,176,438.1,176.2z"/>
		<path class="st8" d="M432.2,177.4c0,0,0,0.8-1,1.1c0,0-0.6,0.1-0.4-0.6c0,0,0.3-0.4,1-0.5C431.8,177.3,432.1,177.3,432.2,177.4z"
			/>
		<path class="st8" d="M427.9,181.4c0,0,0.6,0.4,0.3,1.4c0,0-0.3,0.6-0.8-0.1c0,0-0.2-0.5,0.1-1.1
			C427.6,181.6,427.8,181.3,427.9,181.4z"/>
		<path class="st8" d="M432.3,173.8c0,0,0.5-0.5,1.4-0.1c0,0,0.5,0.4-0.2,0.8c0,0-0.5,0.1-1.1-0.3
			C432.4,174.3,432.2,174,432.3,173.8z"/>
		<path class="st8" d="M442.9,169.3c0,0-0.3,0.6-1.3,0.5c0,0-0.6-0.2-0.1-0.8c0,0,0.4-0.3,1.1-0.1C442.7,169,443,169.1,442.9,169.3z
			"/>
		<path class="st8" d="M442.3,172.1c0,0-0.1,0.8-1.1,0.9c0,0-0.8,0-0.3-0.6c0,0,0.3-0.4,1.1-0.4
			C441.9,171.9,442.2,171.9,442.3,172.1z"/>
		<path class="st8" d="M450.7,167.9c0,0-0.1,0.8-1.1,0.9c0,0-0.8,0-0.3-0.6c0,0,0.3-0.4,1.1-0.4
			C450.3,167.7,450.7,167.7,450.7,167.9z"/>
		<path class="st8" d="M446.4,167.4c0,0-0.1,0.8-1.1,0.9c0,0-0.8,0-0.3-0.6c0,0,0.3-0.4,1.1-0.4
			C446.1,167.1,446.4,167.1,446.4,167.4z"/>
		<path class="st8" d="M468.1,163.1c0,0-0.6,0.2-1.3-0.5c0,0-0.3-0.6,0.5-0.5c0,0,0.5,0.1,0.9,0.8
			C468.1,162.7,468.2,163,468.1,163.1z"/>
		<path class="st8" d="M447.6,171.7c0,0-0.6,0.4-1.4-0.2c0,0-0.5-0.5,0.3-0.6c0,0,0.5,0,1,0.4C447.5,171.2,447.7,171.4,447.6,171.7z
			"/>
		<path class="st8" d="M456,164c0,0-0.6,0.4-1.4-0.2c0,0-0.5-0.5,0.3-0.6c0,0,0.5,0,1,0.4C455.9,163.7,456.2,163.9,456,164z"/>
		<path class="st8" d="M466.6,165.2c0,0-0.6,0.4-1.4-0.2c0,0-0.5-0.5,0.3-0.6c0,0,0.5,0,1,0.4C466.6,164.8,466.8,165.1,466.6,165.2z
			"/>
		<path class="st8" d="M460.6,165.4c0,0-0.1,0.8-1.1,0.9c0,0-0.8,0-0.2-0.8c0,0,0.3-0.4,1.1-0.4
			C460.3,165.1,460.6,165.2,460.6,165.4z"/>
		<path class="st8" d="M455.7,168.5c0,0,0.5,0.5,0,1.4c0,0-0.4,0.5-0.8-0.2c0,0-0.1-0.5,0.3-1.1
			C455.3,168.6,455.6,168.3,455.7,168.5z"/>
		<path class="st8" d="M461.3,161.8c0,0,0.6-0.4,1.4,0.2c0,0,0.5,0.5-0.3,0.6c0,0-0.5,0-1-0.4C461.4,162.3,461.2,162,461.3,161.8z"
			/>
		<path class="st8" d="M470.8,158.1c0,0-0.3,0.6-1.3,0.5c0,0-0.6-0.2-0.1-0.8c0,0,0.4-0.3,1.1-0.1
			C470.6,157.9,470.9,158,470.8,158.1z"/>
		<path class="st8" d="M470.3,160.9c0,0-0.1,0.8-1.1,0.9c0,0-0.8,0-0.3-0.6c0,0,0.3-0.4,1.1-0.4C470,160.7,470.3,160.7,470.3,160.9z
			"/>
		<path class="st8" d="M478.6,156.7c0,0-0.1,0.8-1.1,0.9c0,0-0.8,0-0.3-0.6c0,0,0.3-0.4,1.1-0.4
			C478.3,156.5,478.6,156.6,478.6,156.7z"/>
		<path class="st8" d="M474.4,156.2c0,0-0.1,0.8-1.1,0.9c0,0-0.8,0-0.3-0.6c0,0,0.3-0.4,1.1-0.4C474.1,156,474.4,156,474.4,156.2z"
			/>
		<path class="st8" d="M496.1,152c0,0-0.6,0.2-1.3-0.5c0,0-0.3-0.6,0.5-0.5c0,0,0.5,0.1,0.9,0.8C496.1,151.6,496.2,151.9,496.1,152z
			"/>
		<path class="st8" d="M475.6,160.4c0,0-0.6,0.4-1.4-0.2c0,0-0.5-0.5,0.3-0.6c0,0,0.5,0,1,0.4C475.6,160,475.8,160.3,475.6,160.4z"
			/>
		<path class="st8" d="M484,152.9c0,0-0.6,0.4-1.4-0.2c0,0-0.5-0.5,0.3-0.6c0,0,0.5,0,1,0.4C483.9,152.5,484.1,152.8,484,152.9z"/>
		<path class="st8" d="M494.7,154.1c0,0-0.6,0.4-1.4-0.2c0,0-0.5-0.5,0.3-0.6c0,0,0.5,0,1,0.4C494.6,153.7,494.8,153.9,494.7,154.1z
			"/>
		<path class="st8" d="M488.6,154.2c0,0-0.1,0.8-1.1,0.9c0,0-0.8,0-0.2-0.8c0,0,0.3-0.4,1.1-0.4C488.3,154,488.6,154,488.6,154.2z"
			/>
		<path class="st8" d="M483.7,157.3c0,0,0.5,0.5,0,1.4c0,0-0.4,0.5-0.8-0.2c0,0-0.1-0.5,0.3-1.1
			C483.3,157.4,483.6,157.2,483.7,157.3z"/>
		<path class="st8" d="M489.3,150.7c0,0,0.6-0.4,1.4,0.2c0,0,0.5,0.5-0.3,0.6c0,0-0.5,0-1-0.4C489.4,151.1,489.2,150.8,489.3,150.7z
			"/>
		<path class="st8" d="M498.2,145.6c0,0-0.3,0.6-1.3,0.5c0,0-0.6-0.2-0.1-0.8c0,0,0.4-0.3,1.1-0.1
			C498,145.2,498.3,145.3,498.2,145.6z"/>
		<path class="st8" d="M497.7,148.4c0,0-0.1,0.8-1.1,0.9c0,0-0.8,0-0.3-0.6c0,0,0.3-0.4,1.1-0.4
			C497.3,148.1,497.6,148.1,497.7,148.4z"/>
		<path class="st8" d="M506,144.2c0,0-0.1,0.8-1.1,0.9c0,0-0.8,0-0.3-0.6c0,0,0.3-0.4,1.1-0.4C505.7,143.9,506,143.9,506,144.2z"/>
		<path class="st8" d="M501.8,143.6c0,0-0.1,0.8-1.1,0.9c0,0-0.8,0-0.3-0.6c0,0,0.3-0.4,1.1-0.4
			C501.5,143.4,501.8,143.5,501.8,143.6z"/>
		<path class="st8" d="M523.5,139.4c0,0-0.6,0.2-1.3-0.5c0,0-0.3-0.6,0.5-0.5c0,0,0.5,0.1,0.9,0.8
			C523.5,139.1,523.6,139.3,523.5,139.4z"/>
		<path class="st8" d="M503,147.9c0,0-0.6,0.4-1.4-0.2c0,0-0.5-0.5,0.3-0.6c0,0,0.5,0,1,0.4C502.9,147.5,503.1,147.8,503,147.9z"/>
		<path class="st8" d="M511.4,140.4c0,0-0.6,0.4-1.4-0.2c0,0-0.5-0.5,0.3-0.6c0,0,0.5,0,1,0.4C511.3,140,511.5,140.2,511.4,140.4z"
			/>
		<path class="st8" d="M522,141.5c0,0-0.6,0.4-1.4-0.2c0,0-0.5-0.5,0.3-0.6c0,0,0.5,0,1,0.4C522,141.1,522.2,141.4,522,141.5z"/>
		<path class="st8" d="M515.9,141.7c0,0-0.1,0.8-1.1,0.9c0,0-0.8,0-0.2-0.8c0,0,0.3-0.4,1.1-0.4
			C515.6,141.5,515.9,141.5,515.9,141.7z"/>
		<path class="st8" d="M511.1,144.8c0,0,0.5,0.5,0,1.4c0,0-0.4,0.5-0.8-0.2c0,0-0.1-0.5,0.3-1.1C510.6,144.9,511,144.7,511.1,144.8z
			"/>
		<path class="st8" d="M516.7,138.1c0,0,0.6-0.4,1.4,0.2c0,0,0.5,0.5-0.3,0.6c0,0-0.5,0-1-0.4C516.8,138.5,516.6,138.3,516.7,138.1z
			"/>
		<path class="st8" d="M529.2,135.7c0,0-0.6,0.2-1.3-0.5c0,0-0.3-0.6,0.5-0.5c0,0,0.5,0.1,0.9,0.8
			C529.2,135.4,529.4,135.6,529.2,135.7z"/>
		<path class="st8" d="M527.8,137.8c0,0-0.6,0.4-1.4-0.2c0,0-0.5-0.5,0.3-0.6c0,0,0.5,0,1,0.4C527.7,137.5,527.9,137.7,527.8,137.8z
			"/>
		<path class="st8" d="M522.5,134.4c0,0,0.6-0.4,1.4,0.2c0,0,0.5,0.5-0.3,0.6c0,0-0.5,0-1-0.4C522.5,134.9,522.3,134.7,522.5,134.4z
			"/>
	</g>
	<g>
		<path class="st8" d="M401.4,164.7c0,0-0.2,0.6-1.1,0.8c0,0-0.6,0-0.2-0.6c0,0,0.3-0.3,1-0.3C401,164.3,401.4,164.4,401.4,164.7z"
			/>
		<path class="st8" d="M401.2,167.2c0,0,0,0.6-0.9,1c0,0-0.6,0.1-0.4-0.6c0,0,0.2-0.4,0.9-0.5C400.9,167.1,401.2,167.1,401.2,167.2z
			"/>
		<path class="st8" d="M408.3,162.1c0,0,0,0.6-0.9,1c0,0-0.6,0.1-0.4-0.6c0,0,0.2-0.4,0.9-0.5C407.8,162,408.1,161.8,408.3,162.1z"
			/>
		<path class="st8" d="M404.3,162.3c0,0,0,0.6-0.9,1c0,0-0.6,0.1-0.4-0.6c0,0,0.2-0.4,0.9-0.5C403.9,162.1,404.3,162.1,404.3,162.3z
			"/>
		<path class="st8" d="M423.5,154.8c0,0-0.6,0.3-1.3-0.3c0,0-0.4-0.5,0.3-0.6c0,0,0.5,0,0.9,0.5
			C423.5,154.5,423.7,154.7,423.5,154.8z"/>
		<path class="st8" d="M406.1,165.9c0,0-0.4,0.5-1.3,0.1c0,0-0.5-0.3,0.2-0.6c0,0,0.5-0.1,1,0.2C406,165.6,406.2,165.8,406.1,165.9z
			"/>
		<path class="st8" d="M412.5,157.6c0,0-0.4,0.5-1.3,0.1c0,0-0.5-0.3,0.2-0.6c0,0,0.5-0.1,1,0.2
			C412.4,157.3,412.6,157.5,412.5,157.6z"/>
		<path class="st8" d="M422.6,157c0,0-0.4,0.5-1.3,0.1c0,0-0.5-0.3,0.2-0.6c0,0,0.5-0.1,1,0.2C422.4,156.7,422.7,156.9,422.6,157z"
			/>
		<path class="st8" d="M417,158.2c0,0,0,0.6-0.9,1c0,0-0.6,0.1-0.3-0.6c0,0,0.2-0.4,0.9-0.5C416.7,158,417,158,417,158.2z"/>
		<path class="st8" d="M413,161.8c0,0,0.5,0.4,0.3,1.3c0,0-0.3,0.6-0.8-0.1c0,0-0.2-0.4,0.1-1.1C412.7,162,412.9,161.7,413,161.8z"
			/>
		<path class="st8" d="M417.1,154.7c0,0,0.4-0.5,1.3-0.1c0,0,0.5,0.4-0.2,0.6c0,0-0.5,0.1-1-0.2C417.2,155.2,417,154.9,417.1,154.7z
			"/>
		<path class="st8" d="M427,150.5c0,0-0.3,0.6-1.2,0.5c0,0-0.6-0.2-0.1-0.8c0,0,0.4-0.3,1.1-0.1C426.8,150.3,427.1,150.4,427,150.5z
			"/>
		<path class="st8" d="M426.5,153.2c0,0-0.1,0.6-1,0.9c0,0-0.6,0-0.3-0.6c0,0,0.3-0.4,1-0.4C426.2,153,426.5,153,426.5,153.2z"/>
		<path class="st8" d="M434.3,149.3c0,0-0.1,0.6-1,0.9c0,0-0.6,0-0.3-0.6c0,0,0.3-0.4,1-0.4C433.9,149.1,434.3,149.1,434.3,149.3z"
			/>
		<path class="st8" d="M430.4,148.8c0,0-0.1,0.6-1,0.9c0,0-0.6,0-0.3-0.6c0,0,0.3-0.4,1-0.4C430,148.6,430.4,148.6,430.4,148.8z"/>
		<path class="st8" d="M450.7,145c0,0-0.6,0.2-1.2-0.5c0,0-0.3-0.5,0.4-0.5c0,0,0.5,0.1,0.8,0.6C450.8,144.6,450.9,144.9,450.7,145z
			"/>
		<path class="st8" d="M431.6,152.8c0,0-0.5,0.4-1.3-0.2c0,0-0.5-0.4,0.3-0.6c0,0,0.5,0,1,0.4C431.5,152.5,431.7,152.7,431.6,152.8z
			"/>
		<path class="st8" d="M439.3,145.8c0,0-0.5,0.4-1.3-0.2c0,0-0.5-0.4,0.3-0.6c0,0,0.5,0,1,0.4C439.2,145.3,439.4,145.7,439.3,145.8z
			"/>
		<path class="st8" d="M449.4,147c0,0-0.5,0.4-1.3-0.2c0,0-0.5-0.4,0.3-0.6c0,0,0.5,0,1,0.4C449.2,146.5,449.5,146.7,449.4,147z"/>
		<path class="st8" d="M443.6,147.1c0,0-0.1,0.6-1.1,0.8c0,0-0.6,0-0.2-0.6c0,0,0.3-0.4,1-0.3C443.3,146.9,443.6,146.9,443.6,147.1z
			"/>
		<path class="st8" d="M439.1,149.9c0,0,0.4,0.5,0,1.3c0,0-0.4,0.5-0.6-0.2c0,0-0.1-0.5,0.3-1C438.8,150.1,438.9,149.8,439.1,149.9z
			"/>
		<path class="st8" d="M444.3,143.7c0,0,0.5-0.4,1.3,0.2c0,0,0.4,0.4-0.3,0.6c0,0-0.5,0-1-0.4C444.4,144.2,444.2,143.8,444.3,143.7z
			"/>
		<path class="st8" d="M453.2,140.3c0,0-0.3,0.6-1.2,0.5c0,0-0.6-0.2-0.1-0.8c0,0,0.4-0.3,1.1-0.1
			C453,140.1,453.3,140.2,453.2,140.3z"/>
		<path class="st8" d="M452.7,143c0,0-0.1,0.6-1,0.9c0,0-0.6,0-0.3-0.6c0,0,0.3-0.4,1-0.4C452.4,142.8,452.7,142.8,452.7,143z"/>
		<path class="st8" d="M460.6,139.1c0,0-0.1,0.6-1,0.9c0,0-0.6,0-0.3-0.6c0,0,0.3-0.4,1-0.4C460.3,138.9,460.6,138.9,460.6,139.1z"
			/>
		<path class="st8" d="M456.6,138.5c0,0-0.1,0.6-1,0.9c0,0-0.6,0-0.3-0.6c0,0,0.3-0.4,1-0.4C456.3,138.3,456.6,138.3,456.6,138.5z"
			/>
		<path class="st8" d="M476.9,134.8c0,0-0.6,0.2-1.2-0.5c0,0-0.3-0.5,0.4-0.5c0,0,0.5,0.1,0.8,0.6
			C477,134.3,477.1,134.7,476.9,134.8z"/>
		<path class="st8" d="M457.8,142.5c0,0-0.5,0.4-1.3-0.2c0,0-0.5-0.4,0.3-0.6c0,0,0.5,0,1,0.4C457.7,142.2,457.9,142.4,457.8,142.5z
			"/>
		<path class="st8" d="M465.5,135.5c0,0-0.5,0.4-1.3-0.2c0,0-0.5-0.4,0.3-0.6c0,0,0.5,0,1,0.4C465.5,135.1,465.6,135.4,465.5,135.5z
			"/>
		<path class="st8" d="M475.6,136.6c0,0-0.5,0.4-1.3-0.2c0,0-0.5-0.4,0.3-0.6c0,0,0.5,0,1,0.4C475.6,136.3,475.7,136.5,475.6,136.6z
			"/>
		<path class="st8" d="M470,136.8c0,0-0.1,0.6-1.1,0.8c0,0-0.6,0-0.2-0.6c0,0,0.3-0.4,1-0.3C469.6,136.5,470,136.6,470,136.8z"/>
		<path class="st8" d="M465.3,139.6c0,0,0.4,0.5,0,1.3c0,0-0.4,0.5-0.6-0.2c0,0-0.1-0.5,0.3-1C465,139.7,465.2,139.5,465.3,139.6z"
			/>
		<path class="st8" d="M470.6,133.5c0,0,0.5-0.4,1.3,0.2c0,0,0.4,0.4-0.3,0.6c0,0-0.5,0-1-0.4C470.6,133.8,470.4,133.6,470.6,133.5z
			"/>
		<path class="st8" d="M478.9,128.7c0,0-0.3,0.6-1.2,0.5c0,0-0.6-0.2-0.1-0.8c0,0,0.4-0.3,1.1-0.1
			C478.7,128.5,479,128.6,478.9,128.7z"/>
		<path class="st8" d="M478.4,131.3c0,0-0.1,0.6-1,0.9c0,0-0.6,0-0.3-0.6c0,0,0.3-0.4,1-0.4C478.1,131.1,478.4,131.2,478.4,131.3z"
			/>
		<path class="st8" d="M486.3,127.5c0,0-0.1,0.6-1,0.9c0,0-0.6,0-0.3-0.6c0,0,0.3-0.4,1-0.4C485.9,127.3,486.1,127.3,486.3,127.5z"
			/>
		<path class="st8" d="M482.3,127c0,0-0.1,0.6-1,0.9c0,0-0.6,0-0.3-0.6c0,0,0.3-0.4,1-0.4C481.9,126.8,482.3,126.8,482.3,127z"/>
		<path class="st8" d="M502.5,123.2c0,0-0.6,0.2-1.2-0.5c0,0-0.3-0.5,0.4-0.5c0,0,0.5,0.1,0.8,0.6
			C502.6,122.8,502.8,123.1,502.5,123.2z"/>
		<path class="st8" d="M483.4,131c0,0-0.5,0.4-1.3-0.2c0,0-0.5-0.4,0.3-0.6c0,0,0.5,0,1,0.4C483.3,130.6,483.6,130.9,483.4,131z"/>
		<path class="st8" d="M491.2,124c0,0-0.5,0.4-1.3-0.2c0,0-0.5-0.4,0.3-0.6c0,0,0.5,0,1,0.4C491.1,123.6,491.3,123.8,491.2,124z"/>
		<path class="st8" d="M501.2,125.1c0,0-0.5,0.4-1.3-0.2c0,0-0.5-0.4,0.3-0.6c0,0,0.5,0,1,0.4C501.1,124.7,501.4,125,501.2,125.1z"
			/>
		<path class="st8" d="M495.5,125.2c0,0-0.1,0.6-1.1,0.8c0,0-0.6,0-0.2-0.6c0,0,0.3-0.4,1-0.3C495.2,125,495.5,125.1,495.5,125.2z"
			/>
		<path class="st8" d="M491,128.1c0,0,0.4,0.5,0,1.3c0,0-0.4,0.5-0.6-0.2c0,0-0.1-0.5,0.3-1C490.7,128.2,490.9,128,491,128.1z"/>
		<path class="st8" d="M496.2,121.9c0,0,0.5-0.4,1.3,0.2c0,0,0.4,0.4-0.3,0.6c0,0-0.5,0-1-0.4C496.3,122.3,496.1,122,496.2,121.9z"
			/>
		<path class="st8" d="M507.9,119.8c0,0-0.6,0.2-1.2-0.5c0,0-0.3-0.5,0.4-0.5c0,0,0.5,0.1,0.8,0.6
			C508,119.5,508.1,119.7,507.9,119.8z"/>
		<path class="st8" d="M506.6,121.7c0,0-0.5,0.4-1.3-0.2c0,0-0.5-0.4,0.3-0.6c0,0,0.5,0,1,0.4C506.5,121.3,506.7,121.6,506.6,121.7z
			"/>
		<path class="st8" d="M501.7,118.5c0,0,0.5-0.4,1.3,0.2c0,0,0.4,0.4-0.3,0.6c0,0-0.5,0-1-0.4C501.7,118.9,501.5,118.7,501.7,118.5z
			"/>
	</g>
</g>
</svg>
