<?xml version="1.0" encoding="utf-8"?>
<!-- Generator: Adobe Illustrator 22.1.0, SVG Export Plug-In . SVG Version: 6.00 Build 0)  -->
<svg version="1.1" id="Layer_1" xmlns="http://www.w3.org/2000/svg" xmlns:xlink="http://www.w3.org/1999/xlink" x="0px" y="0px"
	 viewBox="0 0 208 134" style="enable-background:new 0 0 208 134;" xml:space="preserve">
<style type="text/css">
	.st0{fill:#E8B343;}
	.st1{fill:#F4C141;}
	.st2{fill:none;}
	.st3{fill:#B7AA99;}
	.st4{fill:#A0968A;}
	.st5{fill:#374757;}
</style>
<path class="st0" d="M83.9,205.9c0-0.3,0-0.5-0.1-0.8c0,0.3,0,0.6,0.1,1C84,206,84,205.9,83.9,205.9z"/>
<path class="st0" d="M83.6,209.7c0,0.1,0.1,0.2,0.1,0.3c0,0,0-0.1,0-0.1C83.6,209.8,83.6,209.7,83.6,209.7z"/>
<path class="st1" d="M83.8,210.5c-0.1-0.2-0.1-0.4-0.1-0.5C83.7,210.2,83.8,210.3,83.8,210.5z"/>
<path class="st1" d="M88.1,219.3c-0.2-0.2-0.5-0.6-0.8-1.3C87.5,218.4,87.8,218.8,88.1,219.3z"/>
<line class="st2" x1="100.5" y1="234.7" x2="100.5" y2="235.9"/>
<line class="st2" x1="100.7" y1="224.6" x2="100.7" y2="226.3"/>
<g>
	<g>
		<g>
			<g>
				<polygon class="st3" points="106.3,19 105.6,90.2 109.1,90.6 				"/>
			</g>
			<g>
				<polygon class="st4" points="106.6,19.7 109.1,43.9 110.5,90.9 108.5,90.6 				"/>
			</g>
		</g>
	</g>
	<path class="st5" d="M108.1,124.3l-0.9-0.1c-1.3-0.1-2.4-1.3-2.4-2.6l0.3-38.1c0-1.3,1.1-2.3,2.4-2.2l0.9,0.1
		c1.3,0.1,2.4,1.3,2.4,2.6l-0.3,38.1C110.5,123.5,109.4,124.4,108.1,124.3z"/>
</g>
</svg>
