<?xml version="1.0" encoding="utf-8"?>
<!-- Generator: Adobe Illustrator 22.1.0, SVG Export Plug-In . SVG Version: 6.00 Build 0)  -->
<svg version="1.1" id="Layer_1" xmlns="http://www.w3.org/2000/svg" xmlns:xlink="http://www.w3.org/1999/xlink" x="0px" y="0px"
	 viewBox="0 0 208 134" style="enable-background:new 0 0 208 134;" xml:space="preserve">
<style type="text/css">
	.st0{fill:#E8B343;}
	.st1{fill:#F4C141;}
	.st2{fill:none;}
	.st3{fill:#FFED9F;}
</style>
<path class="st0" d="M83.9,205.9c0-0.3,0-0.5-0.1-0.8c0,0.3,0,0.6,0.1,1C84,206,84,205.9,83.9,205.9z"/>
<path class="st0" d="M83.6,209.7c0,0.1,0.1,0.2,0.1,0.3c0,0,0-0.1,0-0.1C83.6,209.8,83.6,209.7,83.6,209.7z"/>
<path class="st1" d="M83.8,210.5c-0.1-0.2-0.1-0.4-0.1-0.5C83.7,210.2,83.8,210.3,83.8,210.5z"/>
<path class="st1" d="M88.1,219.3c-0.2-0.2-0.5-0.6-0.8-1.3C87.5,218.4,87.8,218.8,88.1,219.3z"/>
<line class="st2" x1="100.5" y1="234.7" x2="100.5" y2="235.9"/>
<line class="st2" x1="100.7" y1="224.6" x2="100.7" y2="226.3"/>
<path class="st0" d="M83.9,60.9c0-0.3,0-0.5-0.1-0.8c0,0.3,0,0.6,0.1,1C84,61,84,60.9,83.9,60.9z"/>
<path class="st0" d="M83.6,64.7c0,0.1,0.1,0.2,0.1,0.3c0,0,0-0.1,0-0.1C83.6,64.8,83.6,64.7,83.6,64.7z"/>
<path class="st1" d="M83.8,65.5c-0.1-0.2-0.1-0.4-0.1-0.5C83.7,65.2,83.8,65.3,83.8,65.5z"/>
<path class="st1" d="M88.1,74.3c-0.2-0.2-0.5-0.6-0.8-1.3C87.5,73.4,87.8,73.8,88.1,74.3z"/>
<g>
	<path class="st0" d="M121.6,79.5c-3.4,8.4-10.6,10.8-14.3,11.5l-0.4-10.3c6.4-1.9,13.4-6.7,14.4-8.4c1.2-2.1,1.7-10.8,1.7-10.8
		C125.2,70.1,121.6,79.5,121.6,79.5z"/>
	<path class="st1" d="M122.9,61.4c0,0-0.5,8.8-1.7,10.8c-1,1.7-8,6.5-14.4,8.4l-0.8-20.1c3.1,2.5,8.7,0.6,8.7,0.6
		C118.5,56.1,113,51,113,51c-3.9-2.2-6.1-2.2-7.4-1.2l-0.1-3c1.9,0.3,3.6,0.7,5,1.2c3.1,1.4,5.8,3.3,7.9,5.1c0,0,0.1,0,0.1,0.1
		c1.1,1.1,2,2.3,2.7,3.6c0,0,0,0.1,0,0.1c0.2,0.3,0.3,0.6,0.4,0.9c0.1,0.2,0.2,0.4,0.3,0.6c0.1,0.3,0.3,0.6,0.4,0.9
		c0.1,0.2,0.2,0.5,0.2,0.7c0.1,0.3,0.2,0.5,0.2,0.7c0,0.1,0.1,0.2,0.1,0.3C122.9,61.3,122.9,61.4,122.9,61.4z"/>
	<path class="st1" d="M121.2,56.9c-0.7-1.3-1.6-2.5-2.7-3.6C119.6,54.2,120.5,55.5,121.2,56.9z"/>
	<path class="st3" d="M114.8,61.2c0,0-5.6,1.9-8.7-0.6v0l-0.4-10.7c1.3-1,3.5-1.1,7.4,1.2C113,51,118.5,56.1,114.8,61.2z"/>
</g>
</svg>
