<?xml version="1.0" encoding="utf-8"?>
<!-- Generator: Adobe Illustrator 22.1.0, SVG Export Plug-In . SVG Version: 6.00 Build 0)  -->
<svg version="1.1" id="Layer_1" xmlns="http://www.w3.org/2000/svg" xmlns:xlink="http://www.w3.org/1999/xlink" x="0px" y="0px"
	 viewBox="0 0 208 134" style="enable-background:new 0 0 208 134;" xml:space="preserve">
<style type="text/css">
	.st0{fill:#E8B343;}
	.st1{fill:#F4C141;}
	.st2{fill:none;}
</style>
<path class="st0" d="M83.9,205.9c0-0.3,0-0.5-0.1-0.8c0,0.3,0,0.6,0.1,1C84,206,84,205.9,83.9,205.9z"/>
<path class="st0" d="M83.6,209.7c0,0.1,0.1,0.2,0.1,0.3c0,0,0-0.1,0-0.1C83.6,209.8,83.6,209.7,83.6,209.7z"/>
<path class="st1" d="M83.8,210.5c-0.1-0.2-0.1-0.4-0.1-0.5C83.7,210.2,83.8,210.3,83.8,210.5z"/>
<path class="st1" d="M88.1,219.3c-0.2-0.2-0.5-0.6-0.8-1.3C87.5,218.4,87.8,218.8,88.1,219.3z"/>
<line class="st2" x1="100.5" y1="234.7" x2="100.5" y2="235.9"/>
<line class="st2" x1="100.7" y1="224.6" x2="100.7" y2="226.3"/>
<path class="st0" d="M83.9,60.9c0-0.3,0-0.5-0.1-0.8c0,0.3,0,0.6,0.1,1C84,61,84,60.9,83.9,60.9z"/>
<path class="st0" d="M83.6,64.7c0,0.1,0.1,0.2,0.1,0.3c0,0,0-0.1,0-0.1C83.6,64.8,83.6,64.7,83.6,64.7z"/>
<path class="st1" d="M83.8,65.5c-0.1-0.2-0.1-0.4-0.1-0.5C83.7,65.2,83.8,65.3,83.8,65.5z"/>
<path class="st1" d="M88.1,74.3c-0.2-0.2-0.5-0.6-0.8-1.3C87.5,73.4,87.8,73.8,88.1,74.3z"/>
<line class="st2" x1="100.5" y1="89.7" x2="100.5" y2="90.9"/>
<line class="st2" x1="100.7" y1="79.6" x2="100.7" y2="81.3"/>
<g>
	<path class="st0" d="M100.8,81.4l-0.1,8.4c-2.3-1.5-4.7-3.9-5.9-5.2c-0.5-0.5-0.9-1.1-1.3-1.7c-0.9-1.7-3.6-5.9-5.3-8.5
		C89.2,75.2,94.7,80.4,100.8,81.4z"/>
	<path class="st1" d="M101.5,46.1l-0.7,35.3c0,0,0,0,0,0c-6.1-1-11.6-6.2-12.6-7c0,0,0,0,0,0c-0.3-0.5-0.6-0.9-0.8-1.3
		c0,0,0-0.1-0.1-0.1c-1.1-2.1-2.9-5.9-3.4-7.4c0-0.2-0.1-0.3-0.1-0.5c0,0,0,0,0,0c0-0.1-0.1-0.2-0.1-0.3c0-0.1,0-0.2-0.1-0.3
		c-0.1-0.4-0.2-0.7-0.2-1.1c0-0.1,0-0.2,0-0.3c0-0.2-0.1-0.5-0.1-0.8c0,0,0-0.1,0-0.1c0-0.3-0.1-0.7-0.1-1c-0.2-4.1,1-7.2,2.5-9.4
		c0.2-0.3,0.4-0.6,0.6-0.8c0.1-0.1,0.2-0.2,0.2-0.3c0.1-0.2,0.3-0.3,0.4-0.5c0.1-0.1,0.2-0.3,0.4-0.4c0,0,0,0,0.1,0
		c0.9-0.9,1.8-1.6,2.6-2.2c0,0,0.1,0,0.1,0c0,0,0.1,0,0.1,0c3.7-2.5,7.9-2,9.5-1.8c0.3,0,0.7,0.1,1.1,0.2
		C101,46,101.3,46,101.5,46.1z"/>
</g>
</svg>
