<svg version="1.1" xmlns="http://www.w3.org/2000/svg" xmlns:xlink="http://www.w3.org/1999/xlink" x="0px" y="0px" viewBox="0 0 208 135" style="enable-background:new 0 0 208 135;" xml:space="preserve" id="el_v27viz0-k"><style>@-webkit-keyframes kf_el_gxGdUxhIMPn_an_rLWBFEqO6{0%{opacity: 0;}82.08%{opacity: 0;}85.42%{opacity: 1;}100%{opacity: 1;}}@keyframes kf_el_gxGdUxhIMPn_an_rLWBFEqO6{0%{opacity: 0;}82.08%{opacity: 0;}85.42%{opacity: 1;}100%{opacity: 1;}}@-webkit-keyframes kf_el_op5Gmgxaedj_an_kkKDssEQk{0%{opacity: 0;}54.58%{opacity: 0;}62.92%{opacity: 1;}100%{opacity: 1;}}@keyframes kf_el_op5Gmgxaedj_an_kkKDssEQk{0%{opacity: 0;}54.58%{opacity: 0;}62.92%{opacity: 1;}100%{opacity: 1;}}@-webkit-keyframes kf_el_yDkZxuqEW3a_an_LMJHp3ou6{0%{opacity: 0;}27.50%{opacity: 0;}33.75%{opacity: 1;}100%{opacity: 1;}}@keyframes kf_el_yDkZxuqEW3a_an_LMJHp3ou6{0%{opacity: 0;}27.50%{opacity: 0;}33.75%{opacity: 1;}100%{opacity: 1;}}@-webkit-keyframes kf_el_ZsIEF9Tq1mH_an_9Dd4rryMk{0%{-webkit-transform: translate(90.63622283935547px, 60.70000076293945px) translate(-90.63622283935547px, -60.70000076293945px) translate(0px, 0px);transform: translate(90.63622283935547px, 60.70000076293945px) translate(-90.63622283935547px, -60.70000076293945px) translate(0px, 0px);}12.50%{-webkit-transform: translate(90.63622283935547px, 60.70000076293945px) translate(-90.63622283935547px, -60.70000076293945px) translate(-4px, 10px);transform: translate(90.63622283935547px, 60.70000076293945px) translate(-90.63622283935547px, -60.70000076293945px) translate(-4px, 10px);}18.75%{-webkit-transform: translate(90.63622283935547px, 60.70000076293945px) translate(-90.63622283935547px, -60.70000076293945px) translate(18px, -20px);transform: translate(90.63622283935547px, 60.70000076293945px) translate(-90.63622283935547px, -60.70000076293945px) translate(18px, -20px);}37.92%{-webkit-transform: translate(90.63622283935547px, 60.70000076293945px) translate(-90.63622283935547px, -60.70000076293945px) translate(3px, 20px);transform: translate(90.63622283935547px, 60.70000076293945px) translate(-90.63622283935547px, -60.70000076293945px) translate(3px, 20px);}43.75%{-webkit-transform: translate(90.63622283935547px, 60.70000076293945px) translate(-90.63622283935547px, -60.70000076293945px) translate(28px, -20px);transform: translate(90.63622283935547px, 60.70000076293945px) translate(-90.63622283935547px, -60.70000076293945px) translate(28px, -20px);}62.50%{-webkit-transform: translate(90.63622283935547px, 60.70000076293945px) translate(-90.63622283935547px, -60.70000076293945px) translate(14px, 17px);transform: translate(90.63622283935547px, 60.70000076293945px) translate(-90.63622283935547px, -60.70000076293945px) translate(14px, 17px);}68.75%{-webkit-transform: translate(90.63622283935547px, 60.70000076293945px) translate(-90.63622283935547px, -60.70000076293945px) translate(35px, -10px);transform: translate(90.63622283935547px, 60.70000076293945px) translate(-90.63622283935547px, -60.70000076293945px) translate(35px, -10px);}81.67%{-webkit-transform: translate(90.63622283935547px, 60.70000076293945px) translate(-90.63622283935547px, -60.70000076293945px) translate(28px, 10px);transform: translate(90.63622283935547px, 60.70000076293945px) translate(-90.63622283935547px, -60.70000076293945px) translate(28px, 10px);}100%{-webkit-transform: translate(90.63622283935547px, 60.70000076293945px) translate(-90.63622283935547px, -60.70000076293945px) translate(28px, 10px);transform: translate(90.63622283935547px, 60.70000076293945px) translate(-90.63622283935547px, -60.70000076293945px) translate(28px, 10px);}}@keyframes kf_el_ZsIEF9Tq1mH_an_9Dd4rryMk{0%{-webkit-transform: translate(90.63622283935547px, 60.70000076293945px) translate(-90.63622283935547px, -60.70000076293945px) translate(0px, 0px);transform: translate(90.63622283935547px, 60.70000076293945px) translate(-90.63622283935547px, -60.70000076293945px) translate(0px, 0px);}12.50%{-webkit-transform: translate(90.63622283935547px, 60.70000076293945px) translate(-90.63622283935547px, -60.70000076293945px) translate(-4px, 10px);transform: translate(90.63622283935547px, 60.70000076293945px) translate(-90.63622283935547px, -60.70000076293945px) translate(-4px, 10px);}18.75%{-webkit-transform: translate(90.63622283935547px, 60.70000076293945px) translate(-90.63622283935547px, -60.70000076293945px) translate(18px, -20px);transform: translate(90.63622283935547px, 60.70000076293945px) translate(-90.63622283935547px, -60.70000076293945px) translate(18px, -20px);}37.92%{-webkit-transform: translate(90.63622283935547px, 60.70000076293945px) translate(-90.63622283935547px, -60.70000076293945px) translate(3px, 20px);transform: translate(90.63622283935547px, 60.70000076293945px) translate(-90.63622283935547px, -60.70000076293945px) translate(3px, 20px);}43.75%{-webkit-transform: translate(90.63622283935547px, 60.70000076293945px) translate(-90.63622283935547px, -60.70000076293945px) translate(28px, -20px);transform: translate(90.63622283935547px, 60.70000076293945px) translate(-90.63622283935547px, -60.70000076293945px) translate(28px, -20px);}62.50%{-webkit-transform: translate(90.63622283935547px, 60.70000076293945px) translate(-90.63622283935547px, -60.70000076293945px) translate(14px, 17px);transform: translate(90.63622283935547px, 60.70000076293945px) translate(-90.63622283935547px, -60.70000076293945px) translate(14px, 17px);}68.75%{-webkit-transform: translate(90.63622283935547px, 60.70000076293945px) translate(-90.63622283935547px, -60.70000076293945px) translate(35px, -10px);transform: translate(90.63622283935547px, 60.70000076293945px) translate(-90.63622283935547px, -60.70000076293945px) translate(35px, -10px);}81.67%{-webkit-transform: translate(90.63622283935547px, 60.70000076293945px) translate(-90.63622283935547px, -60.70000076293945px) translate(28px, 10px);transform: translate(90.63622283935547px, 60.70000076293945px) translate(-90.63622283935547px, -60.70000076293945px) translate(28px, 10px);}100%{-webkit-transform: translate(90.63622283935547px, 60.70000076293945px) translate(-90.63622283935547px, -60.70000076293945px) translate(28px, 10px);transform: translate(90.63622283935547px, 60.70000076293945px) translate(-90.63622283935547px, -60.70000076293945px) translate(28px, 10px);}}#el_v27viz0-k *{-webkit-animation-duration: 8s;animation-duration: 8s;-webkit-animation-iteration-count: infinite;animation-iteration-count: infinite;-webkit-animation-timing-function: cubic-bezier(0, 0, 1, 1);animation-timing-function: cubic-bezier(0, 0, 1, 1);}#el_i2YqKehUmI{fill: #F9D4AF;}#el_9pou9zv74q{fill: #E8B343;}#el_9r2k5pW4rk{fill: #E8B343;}#el_08fUBJZdyJ{fill: #F4C141;}#el_nZHcjYGTzU{fill: #F4C141;}#el_JcmlRakwfR{fill: none;}#el_ZM4AqyOA5Q{fill: none;}#el_PoHhI35EJQ{fill: #FBBE03;}#el_3GabKYxFy4{fill: #FFAA02;}#el_RAi0oohy9Vv{fill: #E46109;}#el_Rl9wQY-vh-6{fill: #E46109;}#el__9rtStVFcZ5{fill: #E46109;}#el_X3fvjivHHzO{fill: #B7AA99;}#el_jYwyBeLS0FK{fill: #A0968A;}#el_E-EdvYuxSJy{fill: #374757;}#el_EBjuF_5HDCI{fill: #E46109;}#el_47YrVr958Sk{fill: #E46109;}#el_kOOQHPxOnWf{fill: #E46109;}#el_ZsIEF9Tq1mH_an_9Dd4rryMk{-webkit-animation-fill-mode: backwards;animation-fill-mode: backwards;-webkit-transform: translate(90.63622283935547px, 60.70000076293945px) translate(-90.63622283935547px, -60.70000076293945px) translate(0px, 0px);transform: translate(90.63622283935547px, 60.70000076293945px) translate(-90.63622283935547px, -60.70000076293945px) translate(0px, 0px);-webkit-animation-name: kf_el_ZsIEF9Tq1mH_an_9Dd4rryMk;animation-name: kf_el_ZsIEF9Tq1mH_an_9Dd4rryMk;-webkit-animation-timing-function: cubic-bezier(0, 0, 1, 1);animation-timing-function: cubic-bezier(0, 0, 1, 1);}#el_yDkZxuqEW3a{-webkit-animation-fill-mode: backwards;animation-fill-mode: backwards;opacity: 0;-webkit-animation-name: kf_el_yDkZxuqEW3a_an_LMJHp3ou6;animation-name: kf_el_yDkZxuqEW3a_an_LMJHp3ou6;-webkit-animation-timing-function: cubic-bezier(0, 0, 1, 1);animation-timing-function: cubic-bezier(0, 0, 1, 1);}#el_op5Gmgxaedj{-webkit-animation-fill-mode: backwards;animation-fill-mode: backwards;opacity: 0;-webkit-animation-name: kf_el_op5Gmgxaedj_an_kkKDssEQk;animation-name: kf_el_op5Gmgxaedj_an_kkKDssEQk;-webkit-animation-timing-function: cubic-bezier(0, 0, 1, 1);animation-timing-function: cubic-bezier(0, 0, 1, 1);}#el_gxGdUxhIMPn{-webkit-animation-fill-mode: backwards;animation-fill-mode: backwards;opacity: 0;-webkit-animation-name: kf_el_gxGdUxhIMPn_an_rLWBFEqO6;animation-name: kf_el_gxGdUxhIMPn_an_rLWBFEqO6;-webkit-animation-timing-function: cubic-bezier(0, 0, 1, 1);animation-timing-function: cubic-bezier(0, 0, 1, 1);}</style>

<g id="el_yfCBHWno6n">
	<g id="el_oOYD8iL4Va">
		<path d="M169.8,15H37c-8.8,0-16,6.9-16,15.4v74.8c0,8.5,7.2,15.4,16,15.4h132.8c8.8,0,16-6.9,16-15.4V30.4&#10;&#9;&#9;&#9;C185.8,21.9,178.6,15,169.8,15z M44.1,82.2c0,3.6-3.1,6.6-6.8,6.6l0,0c-3.7,0-6.8-3-6.8-6.6V55.6c0-3.6,3.1-6.6,6.8-6.6l0,0&#10;&#9;&#9;&#9;c3.7,0,6.8,3,6.8,6.6V82.2z" id="el_i2YqKehUmI"/>
		<path d="M83.9,61.9c0-0.3,0-0.5-0.1-0.8c0,0.3,0,0.6,0.1,1C84,62,84,61.9,83.9,61.9z" id="el_9pou9zv74q"/>
		<path d="M83.6,65.7c0,0.1,0.1,0.2,0.1,0.3c0,0,0-0.1,0-0.1C83.6,65.8,83.6,65.7,83.6,65.7z" id="el_9r2k5pW4rk"/>
		<path d="M83.8,66.5c-0.1-0.2-0.1-0.4-0.1-0.5C83.7,66.2,83.8,66.3,83.8,66.5z" id="el_08fUBJZdyJ"/>
		<path d="M88.1,75.3c-0.2-0.2-0.5-0.6-0.8-1.3C87.5,74.4,87.8,74.8,88.1,75.3z" id="el_nZHcjYGTzU"/>
		<line x1="100.5" y1="90.7" x2="100.5" y2="91.9" id="el_JcmlRakwfR"/>
		<line x1="100.7" y1="80.6" x2="100.7" y2="82.3" id="el_ZM4AqyOA5Q"/>
		
		<g id="el_OF4KZRdqN8">
			<path d="M101.1,92c-4,0-9.6-2.6-11.8-3.7c-3.4-1.7-7.5-4.3-9.2-6.5c-0.3-0.4-3.3-4-5.9-9.2&#10;&#9;&#9;&#9;&#9;c-3.7-7.3-4.9-14.4-3.7-20.5c1.6-7.8,7.2-14.1,16.6-18.8l0.1-0.1l0.2,0c0.2,0,5.4-1.1,12.1-1.1c7.3,0,17.3,1.3,24,7.3&#10;&#9;&#9;&#9;&#9;c12.1,10.9,13.3,19.7,13.3,20l0,0l0,0c0,0.2,0.3,4.9-1,10.3c-1.7,7.4-5.5,12.5-11,15l0,0l0,0c-0.7,0.3-17.7,7.1-23.6,7.2&#10;&#9;&#9;&#9;&#9;C101.2,91.9,101.1,92,101.1,92z" id="el_PoHhI35EJQ"/>
			<path d="M81.1,81c0,0-25.9-30.5,6.6-46.7c0,0,23.1-4.8,35,5.9s12.9,19.3,12.9,19.3s1.2,18.5-11.2,24&#10;&#9;&#9;&#9;&#9;c0,0-17.4,7-23.2,7.1S83.7,84.5,81.1,81z" id="el_3GabKYxFy4"/>
			<g id="el_C7Bs-TObiI">
				<path d="M89.7,35.7c-1.2,2.5-2.4,4.9-3.7,7.4l-3.8,7.3l-3.9,7.2c-1.3,2.4-2.7,4.8-4.1,7.2c1.2-2.5,2.4-4.9,3.7-7.4&#10;&#9;&#9;&#9;&#9;&#9;l3.8-7.3l3.9-7.2C86.9,40.5,88.3,38.1,89.7,35.7z" id="el_RAi0oohy9Vv"/>
			</g>
			<g id="el_jVPhru42S6f">
				<path d="M98.8,35.3c-1.5,3.4-3,6.9-4.6,10.3l-4.7,10.2l-4.9,10.1c-1.7,3.4-3.3,6.7-5.1,10c1.5-3.4,3-6.9,4.6-10.3&#10;&#9;&#9;&#9;&#9;&#9;l4.7-10.2l4.9-10.1C95.4,42,97.1,38.6,98.8,35.3z" id="el_Rl9wQY-vh-6"/>
			</g>
			<g id="el_W6vMH1EhC5x">
				<path d="M107.4,35.3c-1.6,4.1-3.2,8.2-4.8,12.3l-5,12.2l-5.2,12.1c-1.8,4-3.5,8.1-5.4,12.1&#10;&#9;&#9;&#9;&#9;&#9;c1.6-4.1,3.2-8.2,4.8-12.3l5-12.2l5.2-12.1C103.8,43.3,105.5,39.3,107.4,35.3z" id="el__9rtStVFcZ5"/>
			</g>
		</g>
	</g>
</g>
<g id="el_ZsIEF9Tq1mH_an_9Dd4rryMk" data-animator-group="true" data-animator-type="0"><g id="el_ZsIEF9Tq1mH">
	<g id="el_14Ot7Fcinqy">
		<g id="el_NvvP7Df9Va_">
			<polygon points="92.6,80.8 92.6,80.9 96.7,78.4 96.3,60.7 94,67.7 94.3,79.7 &#9;&#9;&#9;" id="el_X3fvjivHHzO"/>
			<polygon points="92.6,80.8 94.3,79.7 94,67.7 92.2,73.4 &#9;&#9;&#9;" id="el_jYwyBeLS0FK"/>
		</g>
		<path d="M96.8,77.2c0,0,1.2,19.8,0.5,20.4c-0.8,0.5-0.6,3.8-5.3,0.8c-1.8-1.6-1.3-2-1.3-2s2-0.5,1.8-2.1s-1-8.8-1-8.8&#10;&#9;&#9;&#9;s-0.1-3.5,0.1-4.7c0.2-1.2-0.2-2.7-0.6-3.1C90.6,77.2,96.8,77.2,96.8,77.2z" id="el_E-EdvYuxSJy"/>
	</g>
</g></g>
<g id="el_yDkZxuqEW3a">
	<g id="el_OgqEZcYsBw1">
		<path d="M116.5,36.8c-1.6,4.3-3.2,8.6-4.9,12.8l-5.1,12.8l-5.2,12.7c-1.8,4.2-3.6,8.4-5.4,12.6&#10;&#9;&#9;&#9;c1.6-4.3,3.2-8.6,4.9-12.8l5.1-12.8l5.2-12.7C112.8,45.2,114.6,41,116.5,36.8z" id="el_EBjuF_5HDCI"/>
	</g>
</g>
<g id="el_op5Gmgxaedj">
	<g id="el_BHB2PRWpdIB">
		<path d="M123.8,43.3c-1.3,3.8-2.7,7.7-4.1,11.5l-4.2,11.4l-4.4,11.4c-1.5,3.8-3,7.5-4.6,11.3&#10;&#9;&#9;&#9;c1.3-3.8,2.7-7.7,4.1-11.5l4.2-11.4l4.4-11.4C120.7,50.8,122.2,47,123.8,43.3z" id="el_47YrVr958Sk"/>
	</g>
</g>
<g id="el_gxGdUxhIMPn">
	<g id="el_T3JQFf0iLfD">
		<path d="M131.3,51c-0.9,2.9-1.9,5.9-2.9,8.8l-3,8.7l-3.2,8.7c-1.1,2.9-2.2,5.8-3.3,8.6c0.9-2.9,1.9-5.9,2.9-8.8l3-8.7&#10;&#9;&#9;&#9;l3.2-8.7C129.1,56.8,130.2,53.9,131.3,51z" id="el_kOOQHPxOnWf"/>
	</g>
</g>
</svg>