<?xml version="1.0" encoding="utf-8"?>
<!-- Generator: Adobe Illustrator 22.1.0, SVG Export Plug-In . SVG Version: 6.00 Build 0)  -->
<svg version="1.1" id="Layer_1" xmlns="http://www.w3.org/2000/svg" xmlns:xlink="http://www.w3.org/1999/xlink" x="0px" y="0px"
	 viewBox="0 0 139.6 80.8" style="enable-background:new 0 0 139.6 80.8;" xml:space="preserve">
<style type="text/css">
	.st0{fill:#DBCE8A;}
	.st1{fill:#CEC089;}
	.st2{fill:#F2E4A7;}
	.st3{fill:#B2A87B;}
	.st4{fill:#C9BC87;}
</style>
<g>
	<path class="st0" d="M3.4,14.9c2.4-0.7,5.5-1.4,8.9-1.9c19.6-3,53.5-2.7,77.9-2.1c16.8,0.5,29.1,1.1,29.1,1.1
		C108,18.9,91,28.8,68.3,31.4c-4.8,0.6-9.9,0.8-15.2,0.6c-5-0.2-10.1-0.8-15.5-1.8C24.1,27.6,12.6,22,3.4,14.9z"/>
	<path class="st1" d="M12.3,13c19.6-3,53.5-2.7,77.9-2.1c-2.2,9.9-8.6,18-21.9,20.5c-4.3,0.8-9.4,1-15.2,0.6c-1.6-0.1-3.3-0.3-5-0.6
		C29.7,28.8,18.6,21.7,12.3,13z"/>
</g>
<g>
	<path class="st2" d="M69.4,38.2c1.3-0.2,3-0.3,4.9-0.3c10.6-0.1,28.5,2.6,41.3,4.7c8.8,1.5,15.3,2.8,15.3,2.8
		c-6.5,2.8-16.2,6.7-28.4,6.4c-2.6-0.1-5.3-0.3-8.1-0.8c-2.6-0.5-5.3-1.2-8.1-2.1C79.4,46.5,73.7,42.6,69.4,38.2z"/>
	<path class="st0" d="M74.2,37.8c10.6-0.1,28.5,2.6,41.3,4.7c-1.9,5.1-5.9,8.9-13.1,9.2c-2.3,0.1-5-0.1-8.1-0.8
		c-0.8-0.2-1.7-0.4-2.6-0.7C82.2,47.5,76.9,42.9,74.2,37.8z"/>
</g>
<g>
	<path class="st0" d="M51.6,72.8c-19.6-4-36.7-8.6-39.2-9.2c-0.3-0.9-0.5-1.8-0.5-2.7c0-3,1.4-6.6,3.6-9.9
		c5.7,1.5,17.9,4.7,31.7,7.6c0.4,5.8,2,11.2,4.1,13.9C51.4,72.6,51.5,72.7,51.6,72.8z"/>
	<path class="st0" d="M91.8,72.5c1.2-2.4,2.2-5.3,2.6-8.3c3.7-0.2,6.9-0.6,9.5-1.4c2.4,5.5,3.3,11,2.7,15.5
		c-4.8,0.9-11.4,0.8-19,0.2C89.1,77.1,90.6,75,91.8,72.5z"/>
	<path class="st3" d="M91.8,72.5c-1.2,2.5-2.7,4.6-4.2,6c-11-1-24-3.2-36-5.7c-0.1-0.1-0.2-0.2-0.3-0.3c-2.1-2.8-3.7-8.1-4.1-13.9
		c16,3.3,34.2,6.2,47.1,5.6C94,67.2,93,70,91.8,72.5z"/>
</g>
<g>
	<path class="st2" d="M122.9,21.4c0.1,1.2,0.1,2.5-0.2,3.6c-18.5,13.1-64.7,24-76.2,26.6c-8.1-1.6-13.8-4.1-16.7-7.2
		c2.6-0.4,20.2-3.6,39.7-8.3c12.1-2.9,24.9-6.4,35.3-10.2c7.2-2.6,13.3-5.4,17.2-8.3C122.6,18.9,122.8,20.2,122.9,21.4z"/>
	<path class="st4" d="M69.6,36.1c12.1-2.9,24.9-6.4,35.3-10.2c-0.8,2-1.9,3.3-3,3.5C101.9,29.4,80.1,41,69.6,36.1z"/>
</g>
</svg>
