<?xml version="1.0" encoding="utf-8"?>
<!-- Generator: Adobe Illustrator 22.1.0, SVG Export Plug-In . SVG Version: 6.00 Build 0)  -->
<svg version="1.1" id="Layer_1" xmlns="http://www.w3.org/2000/svg" xmlns:xlink="http://www.w3.org/1999/xlink" x="0px" y="0px"
	 viewBox="0 0 139.6 80.8" style="enable-background:new 0 0 139.6 80.8;" xml:space="preserve">
<style type="text/css">
	.st0{fill:#182221;}
	.st1{fill:#CEC18A;}
	.st2{fill:#ADA274;}
	.st3{fill:#E8D997;}
	.st4{fill:#C1B47E;}
	.st5{fill:#DBCE8A;}
</style>
<g>
	<path class="st0" d="M49.3,47c0,0,0.2-0.1,0.4-0.2c-0.3-0.7-0.6-1.4-1-2.2C48.8,45.4,49,46.1,49.3,47z"/>
	<g>
		
			<rect x="12" y="18.4" transform="matrix(1 -1.189655e-03 1.189655e-03 1 -4.944185e-02 3.976700e-02)" class="st1" width="42.8" height="46.4"/>
		<polygon class="st2" points="86.4,45.8 54.8,64.8 54.7,18.3 81.6,6 		"/>
		<polygon class="st3" points="12,18.4 33.4,6.1 81.6,6 54.7,18.3 		"/>
	</g>
	<g>
		
			<rect x="71.9" y="23.4" transform="matrix(0.9992 -3.903995e-02 3.903995e-02 0.9992 -1.6253 3.5543)" class="st4" width="36.5" height="40"/>
		<polygon class="st1" points="135.6,45.3 109.2,62.7 107.7,22.7 130.2,11.2 		"/>
		<polygon class="st5" points="71.2,24.1 89,12.8 130.2,11.2 107.7,22.7 		"/>
	</g>
	<g>
		
			<rect x="37.8" y="47.9" transform="matrix(2.925903e-02 -0.9996 0.9996 2.925903e-02 -10.4554 113.1112)" class="st1" width="30.4" height="28"/>
		<polygon class="st4" points="87.6,65.7 66.6,77.6 67.5,47.1 85.3,39.6 		"/>
		<polygon class="st5" points="39.4,46.3 53.7,38.7 85.3,39.6 67.5,47.1 		"/>
	</g>
</g>
</svg>
