<?xml version="1.0" encoding="utf-8"?>
<!-- Generator: Adobe Illustrator 22.1.0, SVG Export Plug-In . SVG Version: 6.00 Build 0)  -->
<svg version="1.1" id="Layer_1" xmlns="http://www.w3.org/2000/svg" xmlns:xlink="http://www.w3.org/1999/xlink" x="0px" y="0px"
	 viewBox="0 0 492.1 196.7" style="enable-background:new 0 0 492.1 196.7;" xml:space="preserve">
<style type="text/css">
	.st0{fill:#EFEFEF;}
	.st1{fill:#F4F4F4;}
	.st2{fill:#EAEAEA;}
	.st3{fill:#182221;}
	.st4{fill:#1F2D0A;}
	.st5{fill:#7A7823;}
	.st6{fill:#DBCE8A;}
	.st7{fill:#C1B47E;}
	.st8{fill:#CEC18A;}
	.st9{fill:#ADA274;}
	.st10{fill:#D1C593;}
</style>
<g id="Layer_1_1_">
	<g id="Plate">
		<ellipse class="st0" cx="246" cy="115.6" rx="246" ry="81"/>
		<ellipse class="st1" cx="246" cy="110.5" rx="246" ry="81"/>
		<ellipse class="st2" cx="246" cy="102.5" rx="172.9" ry="56.9"/>
	</g>
</g>
<path class="st3" d="M55.6,97.3c0,0,0.1-0.1,0.3-0.2c-0.2-0.5-0.5-1.1-0.7-1.6C55.2,96,55.3,96.6,55.6,97.3z"/>
<path class="st3" d="M58.5,92.7c0.7-3.2,1-1.5,0.1-3.5c-0.9-2-0.5-2.6-1.1-7.3c-0.5-4.8-2.4-0.9-3,0.2c-0.7,1,0.7,3.4,0.7,7.7
	c0,2.9-0.2,4.4-0.2,5.6c0.2,0.5,0.5,1.1,0.7,1.6C56.5,96.6,58.1,95.3,58.5,92.7z"/>
<g id="AVo">
	<path class="st4" d="M147.7,126.3c0.4-0.1,0.7-0.1,1.1-0.1c0.3-0.4,0.6-0.6,0.9-0.7c1-0.2,3.7-1.2,3.3,0.3c0.7-0.1,1.2-0.2,2-0.6
		c2-0.9,0.3-0.5,3.5,0.1c2,0.4,3.3,1.5,4,2.3c7.5-1.7,14.4-3.8,20.5-6.2c-0.7-0.7-1.5-1.8-2.9-3.2c-3.1-3.1-5.8-3.8-6-4.9
		c-0.2-1.2-1.7-5.2,2-2.3c3.7,2.9,3.8,3.5,5.9,4.4c2,0.8,0.6-0.1,2.4,2.6c0.5,0.9,0.9,1.7,1.1,2.5c4.4-1.8,8.4-3.6,11.9-5.4
		c-2.8-2.4-5-3.2-5.2-4.2c-0.2-1.2-1.7-5.2,2-2.3c3.7,2.9,3.8,3.5,5.9,4.4c0.4,0.1,0.6,0.2,0.8,0.3c6.3-3.5,10.3-6.6,11.3-8.3
		c1.3-2,4.9-5.9,8.7-10.8c-1-0.9-1.8-2.1-4-4.3c-2-2-3.7-2.9-4.8-3.7c-2.7,2-5.7,3.8-9,5.6c-0.9,2.3-2.6,3.2-2.6,3.2
		c-0.2-0.6-0.4-1.1-0.4-1.6c-2.1,1-4.3,2.1-6.6,3c0.3,0.1,0.9,0.3,1.9,0.5c3.2,0.7,4.6,3,4.6,3c-2,0.9-3,0.2-7.4,0.2
		s-6.8,1.4-7.7,0.7c-0.3-0.2-0.7-0.4-1.2-0.7c-1.5,0.5-3,1-4.6,1.5c1.1,1,1.6,1.4,2.9,1.9c2,0.8,0.6-0.1,2.4,2.6
		c1.8,2.7,1.1,5.4,1.1,5.4c-2-0.8-2.3-2-5.4-5.1c-2-2-3.7-2.9-4.9-3.7c-4.4,1.2-9.1,2.3-14.1,3.3c-2.8,0.5-5.5,1-8.2,1.5
		c0.2,0.3,0.4,0.7,0.7,1.2c1.8,2.7,1.1,5.4,1.1,5.4c-2-0.8-2.3-2-5.4-5.1c-0.2-0.2-0.5-0.5-0.8-0.7c-4.4,0.6-8.6,1-12.6,1.3l0,0
		c-0.7,3.2-3,4.6-3,4.6c-0.6-1.5-0.4-2.4-0.3-4.4c-18.8,0.9-33-1.6-43.6-5.4c-0.9,1.5-2.1,2.2-2.1,2.2c-0.5-1.1-0.5-1.9-0.4-3.2
		c-17.4-6.8-24.6-16.8-26.6-18.5c-1.8-1.6-5.5-14.6-0.9-30.4c-2.5,3.8-11.9,20.5-3.5,40.8c-0.1-1.2,0.2-2.7,0.2-5.6
		c-0.1-4.4-1.4-6.8-0.7-7.7c0.7-1,2.5-4.9,3-0.2c0.5,4.8,0.2,5.2,1.1,7.3c0.9,2,0.5,0.3-0.1,3.5c-0.5,2.6-2.1,3.9-2.7,4.4
		c1.2,2.5,2.6,5.1,4.3,7.6c2.1,3.1,4.8,6.2,8.2,9.1c0.6-0.7,1.1-1.3,1.5-2c-1.3-0.9-3-2.1,0.7-2.5c0.4-0.1,0.7-0.1,1.1-0.1
		c0.3-0.4,0.6-0.6,0.9-0.7c1-0.2,3.7-1.2,3.3,0.3c0.7-0.1,1.2-0.2,2-0.6c2-0.9,0.3-0.5,3.5,0.1c3.2,0.7,4.6,3,4.6,3
		c-2,0.9-3,0.2-7.4,0.2c-2.1,0-3.8,0.4-5.1,0.6c-1.5,1.8-2.1,2.4-2.7,3.5c5.2,4,11.8,7.7,20.1,10.5c-0.4-1.5-1.2-4.4,2.1-1.8
		c2.8,2.2,3.5,3.1,4.6,3.7c8,2,17.5,3.2,28.4,3.3c-1-0.6-1.6-1.1-1.7-1.6c-0.2-1.2-1.7-5.2,2-2.3c3,2.4,3.7,3.2,4.9,3.9
		c1.1,0,2.2-0.1,3.3-0.1c3.8-0.2,7.6-0.5,11.2-0.9c0.5-0.6,1-1.2,1.3-1.7C145.6,128,143.9,126.8,147.7,126.3z M165.7,108.1
		c0.5,4.8,0.2,5.2,1.1,7.3c0.9,2,0.5,0.3-0.1,3.5c-0.6,3.2-3,4.6-3,4.6c-0.9-2-0.2-3-0.2-7.4s-1.4-6.8-0.7-7.7
		C163.3,107.3,165.1,103.4,165.7,108.1z M112,125.5c-2-1.9-3.7-2.9-4.8-3.7c-2.4,0.4-3.8,1-4.6,0.5c-1-0.7-4.9-2.5-0.2-3
		c1.3-0.2,2.4-0.2,3.2-0.3c-0.3-1.4-0.2-2.8,2.4-0.7c0.2,0.1,0.3,0.2,0.5,0.4c0.4-0.1,0.7-0.2,1.2-0.4c2-0.9,0.3-0.5,3.5,0.1
		c3.2,0.6,4.6,3,4.6,3c-1.7,0.7-2.7,0.4-5.7,0.2c0.5,0.4,1,0.7,1.8,1c2,0.8,0.6-0.1,2.4,2.6c1.8,2.7,1.1,5.4,1.1,5.4
		C115.4,129.8,115.2,128.7,112,125.5z M124.6,119.3c-4.4,0.1-6.8,1.4-7.7,0.7c-1-0.7-4.9-2.5-0.2-3c4.8-0.5,5.2-0.2,7.3-1.1
		c2-0.9,0.3-0.5,3.5,0.1c3.2,0.7,4.6,3,4.6,3C130,119.9,129,119.3,124.6,119.3z"/>
	<path class="st4" d="M218.7,87.1c2,0.8,0.6-0.1,2.4,2.6c0.6,0.9,0.9,1.8,1.1,2.6c5.6-7.9,10.8-17.8,7.9-26.8
		c-0.1-0.4-0.3-0.7-0.5-1c-2.4,6.7-7.2,13.5-14.8,19.6C216.7,85.9,217.1,86.4,218.7,87.1z"/>
	<path class="st4" d="M150.6,129.3c-0.2,0.2-0.4,0.5-0.6,0.7c2.6-0.4,5.1-0.8,7.6-1.3c-0.5,0-1.2-0.1-2,0
		C153.5,128.7,151.8,129,150.6,129.3z"/>
	<path class="st3" d="M72.6,108.7c-0.3,0.1-0.6,0.3-0.9,0.7c2.2-0.2,3.3-0.2,4.2-0.4C76.3,107.5,73.5,108.5,72.6,108.7z"/>
	<path class="st3" d="M73.5,112.4c-1.3,0.2-2.2,0.5-2.7,0.1c-0.2-0.1-0.5-0.3-0.9-0.5c-0.4,0.6-0.9,1.3-1.5,2c0.8,0.7,1.6,1.3,2.4,2
		C71.3,114.8,71.9,114.2,73.5,112.4z"/>
	<path class="st3" d="M70.6,109.5c-3.7,0.4-2.1,1.6-0.7,2.5c0.8-1.1,1.3-2,1.8-2.6C71.3,109.4,71,109.4,70.6,109.5z"/>
	<path class="st3" d="M74.9,110.7c-0.5,0.7-1,1.2-1.4,1.7c1.3-0.2,2.9-0.6,5.1-0.6c4.4-0.1,5.4,0.6,7.4-0.2c0,0-1.4-2.4-4.6-3
		c-3.2-0.7-1.5-1-3.5-0.1c-0.8,0.3-1.3,0.5-2,0.6C75.8,109.3,75.5,109.9,74.9,110.7z"/>
	<path class="st3" d="M73.5,112.4c0.4-0.5,0.9-1,1.4-1.7c0.6-0.8,0.9-1.3,1-1.7c-0.9,0.1-2,0.2-4.2,0.4c-0.5,0.6-1,1.5-1.8,2.6
		c0.4,0.2,0.7,0.4,0.9,0.5C71.3,112.9,72.2,112.7,73.5,112.4z"/>
	<path class="st3" d="M86.6,106.7c0,0,1.2-0.7,2.1-2.2c-0.9-0.3-1.7-0.6-2.5-0.9C86.1,104.7,86.1,105.6,86.6,106.7z"/>
	<path class="st3" d="M93,124.6c-3.3-2.6-2.5,0.2-2.1,1.8c2.1,0.7,4.4,1.3,6.8,2C96.6,127.7,95.8,126.8,93,124.6z"/>
	<path class="st3" d="M105.6,119c-0.8,0.1-1.8,0.1-3.2,0.3c-4.7,0.5-0.9,2.4,0.2,3c0.7,0.5,2.2-0.1,4.6-0.5
		c-0.7-0.5-1.2-0.9-1.2-1.3C105.9,120.2,105.7,119.6,105.6,119z"/>
	<path class="st3" d="M117.8,121.4c0,0-1.3-2.4-4.6-3c-3.2-0.6-1.5-1-3.5-0.1c-0.4,0.2-0.9,0.3-1.2,0.4c1.9,1.5,2.8,2.4,3.5,3
		C115,121.7,116.1,122.1,117.8,121.4z"/>
	<path class="st3" d="M126.3,127.7c-3.7-2.9-2.3,1.1-2,2.3c0.1,0.5,0.7,1,1.7,1.6c1.7,0,3.4,0,5.1-0.1
		C130,130.9,129.3,130.1,126.3,127.7z"/>
	<path class="st3" d="M149.7,125.5c-0.3,0.1-0.6,0.3-0.9,0.7c2.2-0.2,3.3-0.2,4.2-0.4C153.4,124.4,150.6,125.4,149.7,125.5z"/>
	<path class="st3" d="M150.6,129.3c-1.3,0.2-2.2,0.5-2.7,0.1c-0.2-0.1-0.5-0.3-0.9-0.5c-0.4,0.5-0.8,1.1-1.3,1.7
		c1.5-0.2,2.9-0.4,4.3-0.5C150.2,129.8,150.3,129.5,150.6,129.3z"/>
	<path class="st3" d="M116.3,125.3c-1.8-2.7-0.4-1.8-2.4-2.6c-0.8-0.3-1.3-0.6-1.8-1c-0.5,0-1,0-1.6,0c-1.2,0-2.3,0.1-3.2,0.2
		c1.1,0.7,2.9,1.8,4.8,3.7c3.1,3.1,3.4,4.3,5.4,5.1C117.4,130.7,118.2,128,116.3,125.3z"/>
	<path class="st3" d="M108.5,118.7c-0.2-0.1-0.3-0.2-0.5-0.4c-2.6-2.1-2.7-0.7-2.4,0.7C106.9,119,107.7,118.9,108.5,118.7z"/>
	<path class="st3" d="M112.1,121.6c-0.8-0.6-1.6-1.4-3.5-3c-0.8,0.2-1.5,0.2-2.9,0.4c0.1,0.6,0.3,1.2,0.4,1.5
		c0.1,0.5,0.5,0.9,1.2,1.3c0.9-0.1,2-0.2,3.2-0.2C111,121.6,111.6,121.6,112.1,121.6z"/>
	<path class="st3" d="M147.7,126.3c-3.7,0.4-2.1,1.6-0.7,2.5c0.8-1.1,1.3-2,1.8-2.6C148.4,126.3,148.1,126.3,147.7,126.3z"/>
	<path class="st3" d="M158.5,125.4c-3.2-0.7-1.5-1-3.5-0.1c-0.8,0.3-1.3,0.5-2,0.6c-0.1,0.4-0.4,0.9-1,1.7c-0.5,0.7-1,1.2-1.4,1.7
		c1.3-0.2,2.9-0.6,5.1-0.6c0.7,0,1.3,0,2,0c1.6-0.3,3.3-0.7,4.9-1C161.8,126.9,160.5,125.8,158.5,125.4z"/>
	<path class="st3" d="M153,125.9c-0.9,0.1-2,0.2-4.2,0.4c-0.5,0.6-1,1.5-1.8,2.6c0.4,0.2,0.7,0.4,0.9,0.5c0.5,0.4,1.4,0.1,2.7-0.1
		c0.4-0.5,0.9-1,1.4-1.7C152.6,126.8,152.9,126.2,153,125.9z"/>
	<path class="st3" d="M163.4,116.1c0.1,4.4-0.6,5.4,0.2,7.4c0,0,2.4-1.4,3-4.6c0.6-3.2,1-1.5,0.1-3.5c-0.9-2-0.5-2.6-1.1-7.3
		c-0.5-4.8-2.4-0.9-3,0.2C162,109.3,163.4,111.7,163.4,116.1z"/>
	<path class="st3" d="M184.3,118.1c-1.8-2.7-0.4-1.8-2.4-2.6c-2-0.8-2.2-1.4-5.9-4.4c-3.7-2.9-2.3,1.1-2,2.3c0.2,1.2,2.9,1.9,6,4.9
		c1.4,1.4,2.3,2.4,2.9,3.2c0.9-0.3,1.6-0.6,2.4-1C185.3,119.8,185,118.9,184.3,118.1z"/>
	<path class="st3" d="M127.5,116c-3.2-0.7-1.5-1-3.5-0.1c-2,0.9-2.6,0.5-7.3,1.1c-4.8,0.5-0.9,2.4,0.2,3c1,0.7,3.4-0.7,7.7-0.7
		c4.4-0.1,5.4,0.6,7.4-0.2C132,119.1,130.7,116.7,127.5,116z"/>
	<path class="st3" d="M132.7,114.2c0,0,2.4-1.4,3-4.6l0,0c-1.1,0.1-2.3,0.1-3.4,0.2C132.2,111.8,132,112.7,132.7,114.2z"/>
	<path class="st3" d="M154.5,114.1c0,0,0.7-2.6-1.1-5.4c-0.3-0.5-0.5-0.9-0.7-1.2c-1.5,0.2-3,0.5-4.4,0.7c0.2,0.2,0.5,0.5,0.8,0.7
		C152.2,112.1,152.4,113.2,154.5,114.1z"/>
	<path class="st3" d="M194.1,108.7c-3.7-2.9-2.3,1.1-2,2.3c0.2,1.1,2.4,1.8,5.2,4.2c1.2-0.6,2.4-1.2,3.5-1.8
		c-0.2-0.1-0.4-0.2-0.8-0.3C198,112.2,197.9,111.6,194.1,108.7z"/>
	<path class="st3" d="M185.2,111.6c0,0,0.7-2.6-1.1-5.4c-1.8-2.7-0.4-1.8-2.4-2.6c-1.3-0.5-1.8-0.9-2.9-1.9
		c-1.2,0.4-2.5,0.7-3.8,1.1c1.1,0.8,2.9,1.8,4.9,3.7C182.9,109.6,183.2,110.8,185.2,111.6z"/>
	<path class="st3" d="M192.4,100.3c4.4-0.1,5.4,0.6,7.4-0.2c0,0-1.4-2.4-4.6-3c-1-0.2-1.6-0.4-1.9-0.5c-3.1,1.3-6.5,2.6-10,3.7
		c0.5,0.3,1,0.5,1.2,0.7C185.7,101.7,188,100.3,192.4,100.3z"/>
	<path class="st3" d="M200.4,95.1c0,0,1.7-1,2.6-3.2c-1,0.5-2,1-3,1.6C200.1,94,200.2,94.5,200.4,95.1z"/>
	<path class="st3" d="M220.9,94.2c0.5-0.6,0.9-1.3,1.4-1.9c-0.2-0.8-0.5-1.7-1.1-2.6c-1.8-2.7-0.4-1.8-2.4-2.6c-1.6-0.7-2-1.2-4-2.9
		c-0.9,0.7-1.8,1.4-2.7,2.1c1.1,0.8,2.9,1.8,4.8,3.7C219.1,92.1,219.8,93.4,220.9,94.2z"/>
	<path class="st5" d="M229.5,64.6c4.6-13,0.2-26-9.8-35c0,0-42.9-46.9-109.1-22.5C80.2,18.3,66.2,35,60.2,50c-0.5,1.3-1,2.7-1.4,4
		c-0.1,0.2-0.1,0.5-0.2,0.7c-4.6,15.7-0.9,28.8,0.9,30.4c3.7,3.2,26,36,101.3,21.1C203.1,97.8,223.7,81.2,229.5,64.6z M219.6,73.6
		c0,0-54,32.4-90.5,28.2c-36.5-4.2-58.6-15-62.3-26.1c-1.9-5.8-0.9-14.2,2.2-21.9c2.8-7.1,7.4-13.7,13-16.9
		c11.8-6.9,38.4-33.2,83.1-28c36.3,4.2,59.7,32.7,58.9,52.7C223.9,66.1,222.5,70.3,219.6,73.6z"/>
</g>
<path class="st6" d="M224.1,61.5c-0.2,4.6-1.6,8.8-4.4,12.1c0,0-54,32.4-90.5,28.2c-36.6-4.2-58.6-15-62.3-26.1
	c-1.9-5.8-0.9-14.2,2.2-21.9c2.8-7.1,7.4-13.7,13-16.9c11.8-6.9,38.4-33.2,83.1-28C201.5,13,224.8,41.5,224.1,61.5z"/>
<path id="Seed_1_" class="st7" d="M188.5,70.1c0,0-38.8,14.7-54.2,3.8c-5.3-3.7-11.3-13-14.7-23.5c-6.4-20.2-2.8-44.7,35.7-42.1
	c38,2.6,44.9,27.9,42.3,45.4C196.2,63.1,192,70.1,188.5,70.1z"/>
<g>
	<rect x="250.2" y="76.4" class="st8" width="27.2" height="29.5"/>
	<polygon class="st8" points="297.4,93.8 277.3,105.9 277.3,76.4 294.4,68.6 	"/>
	<polygon class="st6" points="250.2,76.4 263.8,68.6 294.4,68.6 277.3,76.4 	"/>
</g>
<g>
	<rect x="309.1" y="74" class="st8" width="18.8" height="20.4"/>
	<polygon class="st7" points="341.7,86 327.8,94.3 327.8,74 339.6,68.6 	"/>
	<polygon class="st6" points="309.1,74 318.5,68.6 339.6,68.6 327.8,74 	"/>
</g>
<g>
	<rect x="255.8" y="109.1" class="st8" width="23.8" height="25.9"/>
	<polygon class="st7" points="297.3,124.5 279.6,135 279.6,109.1 294.6,102.3 	"/>
	<polygon class="st6" points="255.8,109.1 267.7,102.3 294.6,102.3 279.6,109.1 	"/>
</g>
<g>
	
		<rect x="233.6" y="75.7" transform="matrix(0.8534 -0.5212 0.5212 0.8534 -9.6891 140.1383)" class="st8" width="21.4" height="23.2"/>
	<polygon class="st7" points="268.1,75.3 259.5,91.6 247.4,71.8 255.6,59.5 	"/>
	<polygon class="st6" points="229.1,83 235.1,72.1 255.6,59.5 247.4,71.8 	"/>
</g>
<g>
	
		<rect x="205.5" y="118.2" transform="matrix(1 -1.189655e-03 1.189655e-03 1 -0.1616 0.2639)" class="st8" width="32.6" height="35.4"/>
	<polygon class="st6" points="262.2,139.1 238.1,153.6 238.1,118.2 258.5,108.8 	"/>
	<polygon class="st9" points="205.4,118.2 221.7,108.8 258.5,108.8 238.1,118.2 	"/>
</g>
<g>
	
		<rect x="326.8" y="108.5" transform="matrix(5.155040e-02 -0.9987 0.9987 5.155040e-02 199.4221 462.4029)" class="st8" width="32.6" height="35.4"/>
	<polygon class="st6" points="348.5,86 361.7,110.8 326.3,109 318,88.1 	"/>
	<polygon class="st9" points="324.6,141.6 316.1,124.8 318,88.1 326.3,109 	"/>
</g>
<g>
	
		<rect x="280.9" y="71.4" transform="matrix(0.8524 -0.5228 0.5228 0.8524 -1.8031 169.0664)" class="st7" width="35.4" height="32.6"/>
	<polygon class="st8" points="317,123.9 292,110.9 322.2,92.4 341,104.9 	"/>
	<polygon class="st6" points="305.2,64.6 321.7,73.6 341,104.9 322.2,92.4 	"/>
</g>
<g>
	
		<rect x="239.5" y="112.7" transform="matrix(0.7698 -0.6383 0.6383 0.7698 -24.3526 193.3414)" class="st7" width="32.6" height="35.4"/>
	<polygon class="st8" points="289,107.1 279.7,133.7 257.1,106.4 266.9,86.1 	"/>
	<polygon class="st6" points="232,127.2 238.6,109.6 266.9,86.1 257.1,106.4 	"/>
</g>
<g>
	
		<rect x="276.8" y="124.8" transform="matrix(0.9996 -2.671492e-02 2.671492e-02 0.9996 -3.5629 7.7499)" class="st8" width="22.8" height="24.8"/>
	<polygon class="st7" points="316.6,138.7 300,149.3 299.3,124.5 313.5,117.6 	"/>
	<polygon class="st6" points="276.5,125.1 287.8,118.3 313.5,117.6 299.3,124.5 	"/>
</g>
<g>
	
		<rect x="266.9" y="61.2" transform="matrix(0.5633 -0.8262 0.8262 0.5633 62.1888 261.5257)" class="st7" width="23.2" height="21.4"/>
	<polygon class="st10" points="299.2,88.6 280.8,87.5 293.9,68.4 308.4,70.8 	"/>
	<polygon class="st6" points="276.2,56.3 288.5,57.3 308.4,70.8 293.9,68.4 	"/>
</g>
<g>
	
		<rect x="313.2" y="121.7" transform="matrix(0.657 -0.7539 0.7539 0.657 11.0178 289.0193)" class="st8" width="19.8" height="21.5"/>
	<polygon class="st8" points="340.7,115.2 337.7,132 321.5,117.9 325.4,104.8 	"/>
	<polygon class="st6" points="308.5,132.8 310.7,121.6 325.4,104.8 321.5,117.9 	"/>
</g>
<g>
	<rect x="285.8" y="54.2" class="st8" width="13.4" height="14.5"/>
	<polygon class="st7" points="309,62.8 299.1,68.7 299.1,54.2 307.5,50.4 	"/>
	<polygon class="st6" points="285.8,54.2 292.5,50.4 307.5,50.4 299.1,54.2 	"/>
</g>
</svg>
