<svg version="1.1" id="el_mvQ59VGSw" xmlns="http://www.w3.org/2000/svg" xmlns:xlink="http://www.w3.org/1999/xlink" x="0px" y="0px" viewBox="0 0 576 576" style="enable-background:new 0 0 576 576;" xml:space="preserve"><style>@-webkit-keyframes kf_el_FqS9kgLYjTU_an_BToLLwoxs{65.56%{opacity: 0;}93.33%{opacity: 1;}0%{opacity: 0;}100%{opacity: 1;}}@keyframes kf_el_FqS9kgLYjTU_an_BToLLwoxs{65.56%{opacity: 0;}93.33%{opacity: 1;}0%{opacity: 0;}100%{opacity: 1;}}@-webkit-keyframes kf_el_CijkAK78v3_an_MSyfmGLzb{25.56%{opacity: 0;}52.22%{opacity: 1;}0%{opacity: 0;}100%{opacity: 1;}}@keyframes kf_el_CijkAK78v3_an_MSyfmGLzb{25.56%{opacity: 0;}52.22%{opacity: 1;}0%{opacity: 0;}100%{opacity: 1;}}@-webkit-keyframes kf_el_4Lz41yI_IlV_an_-Qg1Qpyhy{0%{opacity: 0;}25.56%{opacity: 1;}100%{opacity: 1;}}@keyframes kf_el_4Lz41yI_IlV_an_-Qg1Qpyhy{0%{opacity: 0;}25.56%{opacity: 1;}100%{opacity: 1;}}@-webkit-keyframes kf_el_tl_zqAOybre_an_RqbIcszNf{0%{-webkit-transform: translate(200.9102325439453px, 123.55511474609375px) translate(-200.9102325439453px, -123.55511474609375px) translate(0px, 0px);transform: translate(200.9102325439453px, 123.55511474609375px) translate(-200.9102325439453px, -123.55511474609375px) translate(0px, 0px);}16.67%{-webkit-transform: translate(200.9102325439453px, 123.55511474609375px) translate(-200.9102325439453px, -123.55511474609375px) translate(46px, -25px);transform: translate(200.9102325439453px, 123.55511474609375px) translate(-200.9102325439453px, -123.55511474609375px) translate(46px, -25px);}36.67%{-webkit-transform: translate(200.9102325439453px, 123.55511474609375px) translate(-200.9102325439453px, -123.55511474609375px) translate(60px, 5px);transform: translate(200.9102325439453px, 123.55511474609375px) translate(-200.9102325439453px, -123.55511474609375px) translate(60px, 5px);}48.89%{-webkit-transform: translate(200.9102325439453px, 123.55511474609375px) translate(-200.9102325439453px, -123.55511474609375px) translate(90px, -15px);transform: translate(200.9102325439453px, 123.55511474609375px) translate(-200.9102325439453px, -123.55511474609375px) translate(90px, -15px);}62.22%{-webkit-transform: translate(200.9102325439453px, 123.55511474609375px) translate(-200.9102325439453px, -123.55511474609375px) translate(100px, 13px);transform: translate(200.9102325439453px, 123.55511474609375px) translate(-200.9102325439453px, -123.55511474609375px) translate(100px, 13px);}80%{-webkit-transform: translate(200.9102325439453px, 123.55511474609375px) translate(-200.9102325439453px, -123.55511474609375px) translate(150px, -15px);transform: translate(200.9102325439453px, 123.55511474609375px) translate(-200.9102325439453px, -123.55511474609375px) translate(150px, -15px);}100%{-webkit-transform: translate(200.9102325439453px, 123.55511474609375px) translate(-200.9102325439453px, -123.55511474609375px) translate(150px, -15px);transform: translate(200.9102325439453px, 123.55511474609375px) translate(-200.9102325439453px, -123.55511474609375px) translate(150px, -15px);}}@keyframes kf_el_tl_zqAOybre_an_RqbIcszNf{0%{-webkit-transform: translate(200.9102325439453px, 123.55511474609375px) translate(-200.9102325439453px, -123.55511474609375px) translate(0px, 0px);transform: translate(200.9102325439453px, 123.55511474609375px) translate(-200.9102325439453px, -123.55511474609375px) translate(0px, 0px);}16.67%{-webkit-transform: translate(200.9102325439453px, 123.55511474609375px) translate(-200.9102325439453px, -123.55511474609375px) translate(46px, -25px);transform: translate(200.9102325439453px, 123.55511474609375px) translate(-200.9102325439453px, -123.55511474609375px) translate(46px, -25px);}36.67%{-webkit-transform: translate(200.9102325439453px, 123.55511474609375px) translate(-200.9102325439453px, -123.55511474609375px) translate(60px, 5px);transform: translate(200.9102325439453px, 123.55511474609375px) translate(-200.9102325439453px, -123.55511474609375px) translate(60px, 5px);}48.89%{-webkit-transform: translate(200.9102325439453px, 123.55511474609375px) translate(-200.9102325439453px, -123.55511474609375px) translate(90px, -15px);transform: translate(200.9102325439453px, 123.55511474609375px) translate(-200.9102325439453px, -123.55511474609375px) translate(90px, -15px);}62.22%{-webkit-transform: translate(200.9102325439453px, 123.55511474609375px) translate(-200.9102325439453px, -123.55511474609375px) translate(100px, 13px);transform: translate(200.9102325439453px, 123.55511474609375px) translate(-200.9102325439453px, -123.55511474609375px) translate(100px, 13px);}80%{-webkit-transform: translate(200.9102325439453px, 123.55511474609375px) translate(-200.9102325439453px, -123.55511474609375px) translate(150px, -15px);transform: translate(200.9102325439453px, 123.55511474609375px) translate(-200.9102325439453px, -123.55511474609375px) translate(150px, -15px);}100%{-webkit-transform: translate(200.9102325439453px, 123.55511474609375px) translate(-200.9102325439453px, -123.55511474609375px) translate(150px, -15px);transform: translate(200.9102325439453px, 123.55511474609375px) translate(-200.9102325439453px, -123.55511474609375px) translate(150px, -15px);}}#el_mvQ59VGSw *{-webkit-animation-duration: 3s;animation-duration: 3s;-webkit-animation-iteration-count: infinite;animation-iteration-count: infinite;-webkit-animation-timing-function: cubic-bezier(0, 0, 1, 1);animation-timing-function: cubic-bezier(0, 0, 1, 1);}#el_wgZCLjmORk{fill: #FED711;}#el_3uDJ8QmvZq{fill: #FFCB05;}#el_jJh49U_V8-{fill: #E9B021;-webkit-transform: matrix(0.0208, -0.9998, 0.9998, 0.0208, -68.7808, 614.7942);transform: matrix(0.0208, -0.9998, 0.9998, 0.0208, -68.7808, 614.7942);}#el_IDniY88F2J{fill: #E88A24;}#el_XG4vjIEsRJ{fill: #E88A24;}#el_O2GExo2Vl0{fill: #E88A24;}#el_sWPruFuvIt{fill: #E88A24;}#el_D7quuQ5bEtl{fill: #E88A24;}#el_1iD-ffIe0am{fill: #E88A24;}#el_Ut6haHyC5ug{fill: #E88A24;}#el_17r9oGM1pkA{fill: #C1B4BE;}#el_cyiq5gBhAeY{fill: #E2D2DD;}#el_fkvBQu1d6Cn{fill: #384858;}#el_tl_zqAOybre_an_RqbIcszNf{-webkit-animation-fill-mode: backwards;animation-fill-mode: backwards;-webkit-transform: translate(200.9102325439453px, 123.55511474609375px) translate(-200.9102325439453px, -123.55511474609375px) translate(0px, 0px);transform: translate(200.9102325439453px, 123.55511474609375px) translate(-200.9102325439453px, -123.55511474609375px) translate(0px, 0px);-webkit-animation-name: kf_el_tl_zqAOybre_an_RqbIcszNf;animation-name: kf_el_tl_zqAOybre_an_RqbIcszNf;-webkit-animation-timing-function: cubic-bezier(0, 0, 1, 1);animation-timing-function: cubic-bezier(0, 0, 1, 1);}#el_4Lz41yI_IlV{-webkit-animation-fill-mode: backwards;animation-fill-mode: backwards;opacity: 0;-webkit-animation-name: kf_el_4Lz41yI_IlV_an_-Qg1Qpyhy;animation-name: kf_el_4Lz41yI_IlV_an_-Qg1Qpyhy;-webkit-animation-timing-function: cubic-bezier(0, 0, 1, 1);animation-timing-function: cubic-bezier(0, 0, 1, 1);}#el_CijkAK78v3{-webkit-animation-fill-mode: backwards;animation-fill-mode: backwards;opacity: 0;-webkit-animation-name: kf_el_CijkAK78v3_an_MSyfmGLzb;animation-name: kf_el_CijkAK78v3_an_MSyfmGLzb;-webkit-animation-timing-function: cubic-bezier(0, 0, 1, 1);animation-timing-function: cubic-bezier(0, 0, 1, 1);}#el_FqS9kgLYjTU{-webkit-animation-fill-mode: backwards;animation-fill-mode: backwards;opacity: 0;-webkit-animation-name: kf_el_FqS9kgLYjTU_an_BToLLwoxs;animation-name: kf_el_FqS9kgLYjTU_an_BToLLwoxs;-webkit-animation-timing-function: cubic-bezier(0, 0, 1, 1);animation-timing-function: cubic-bezier(0, 0, 1, 1);}</style>

<g id="el_94uCT15wJW">
	<g id="el_051WU83LO6">
		<path d="M106.37,336.06l335.73,3.29c0,0,13.72,50.59-55.69,88.42c0,0-46,37.83-167.87,20.47&#10;&#9;&#9;&#9;C218.55,448.24,112.42,455.1,106.37,336.06z" id="el_wgZCLjmORk"/>
		<path d="M140.67,421.12c0,0,220.31,19.19,242.26-5.79c0,0,62.11-41.35,56.31-76.08c0,0,31.49-0.15,4.15,52.72&#10;&#9;&#9;&#9;c0,0-38.56,54.48-146,64.16C297.39,456.12,179.59,459.15,140.67,421.12z" id="el_3uDJ8QmvZq"/>
		
			<ellipse cx="279.47" cy="342.51" rx="39.13" ry="173.06" id="el_jJh49U_V8-"/>
	</g>
	<g id="el_9LRdakY0ZP">
		<g id="el_VBtrBPIXrU">
			<path d="M121.26,346.54c11.83,0.37,23.66,0.93,35.48,1.39l35.47,1.7c23.64,1.14,47.27,2.5,70.9,3.87&#10;&#9;&#9;&#9;&#9;c23.63,1.44,47.25,2.88,70.86,4.55l35.42,2.51c11.8,0.94,23.61,1.79,35.4,2.82c-11.83-0.37-23.66-0.93-35.48-1.39l-35.47-1.7&#10;&#9;&#9;&#9;&#9;c-23.64-1.14-47.27-2.5-70.9-3.87c-23.63-1.44-47.25-2.88-70.86-4.55l-35.42-2.51C144.86,348.41,133.05,347.57,121.26,346.54z" id="el_IDniY88F2J"/>
		</g>
		<g id="el__e3ZJEdD42">
			<path d="M134.21,324.25c11.83,0.37,23.66,0.93,35.48,1.39l35.47,1.7c23.64,1.14,47.27,2.5,70.9,3.87&#10;&#9;&#9;&#9;&#9;c23.63,1.44,47.25,2.88,70.86,4.55l35.42,2.51c11.8,0.94,23.61,1.79,35.4,2.82c-11.83-0.37-23.66-0.93-35.48-1.39L346.8,338&#10;&#9;&#9;&#9;&#9;c-23.64-1.14-47.27-2.5-70.9-3.87c-23.63-1.44-47.25-2.88-70.86-4.55l-35.42-2.51C157.81,326.12,146,325.28,134.21,324.25z" id="el_XG4vjIEsRJ"/>
		</g>
		<g id="el_v2GLBL1LRp">
			<path d="M185.21,310.35c8.83,0.37,17.64,0.9,26.47,1.35l26.45,1.6c17.63,1.07,35.25,2.33,52.87,3.59&#10;&#9;&#9;&#9;&#9;c17.61,1.32,35.23,2.64,52.83,4.15l26.4,2.27c8.79,0.85,17.59,1.61,26.38,2.53c-8.83-0.37-17.64-0.9-26.47-1.35l-26.45-1.6&#10;&#9;&#9;&#9;&#9;c-17.63-1.07-35.25-2.33-52.87-3.6c-17.61-1.32-35.23-2.64-52.83-4.16l-26.4-2.27C202.8,312.03,194,311.27,185.21,310.35z" id="el_O2GExo2Vl0"/>
		</g>
	</g>
</g>
<g id="el_AjFBi-ra7d">
	<path d="M232.25,306.96c-3.51,2.16-7.07,4.23-10.61,6.34l-10.69,6.19c-7.13,4.13-14.31,8.15-21.5,12.16&#10;&#9;&#9;c-7.21,3.98-14.41,7.97-21.68,11.84l-10.9,5.8c-3.66,1.88-7.3,3.82-10.99,5.66c3.51-2.16,7.07-4.23,10.61-6.34l10.69-6.2&#10;&#9;&#9;c7.13-4.13,14.31-8.15,21.5-12.16c7.21-3.98,14.41-7.96,21.68-11.84l10.9-5.81C224.93,310.73,228.57,308.8,232.25,306.96z" id="el_sWPruFuvIt"/>
</g>
<g id="el_CijkAK78v3">
	<path d="M341.9,313.31c-3.73,2.42-7.52,4.75-11.28,7.12l-11.36,6.98c-7.58,4.65-15.22,9.2-22.86,13.74&#10;&#9;&#9;c-7.66,4.51-15.32,9.02-23.04,13.43l-11.59,6.6c-3.89,2.15-7.75,4.35-11.67,6.46c3.73-2.42,7.52-4.75,11.28-7.12l11.36-6.98&#10;&#9;&#9;c7.58-4.65,15.22-9.2,22.86-13.74c7.66-4.51,15.32-9.02,23.04-13.43l11.59-6.6C334.12,317.62,337.99,315.42,341.9,313.31z" id="el_D7quuQ5bEtl"/>
</g>
<g id="el_FqS9kgLYjTU">
	<path d="M396.6,316.57c-4.03,2.54-8.11,4.99-12.16,7.49l-12.25,7.33c-8.17,4.89-16.41,9.65-24.65,14.42&#10;&#9;&#9;c-8.26,4.73-16.52,9.46-24.85,14.06l-12.5,6.91c-4.2,2.25-8.36,4.55-12.59,6.75c4.03-2.55,8.11-4.99,12.16-7.49l12.25-7.33&#10;&#9;&#9;c8.17-4.88,16.41-9.65,24.65-14.41c8.26-4.73,16.52-9.45,24.85-14.06l12.5-6.91C388.21,321.08,392.37,318.78,396.6,316.57z" id="el_1iD-ffIe0am"/>
</g>
<g id="el_4Lz41yI_IlV">
	<path d="M289.79,306.85c-8.04,4.99-16.15,9.86-24.32,14.62c-8.16,4.78-16.38,9.44-24.62,14.09&#10;&#9;&#9;c-8.25,4.61-16.52,9.19-24.85,13.67c-8.31,4.5-16.7,8.88-25.15,13.13c8.04-5,16.14-9.87,24.32-14.62&#10;&#9;&#9;c8.16-4.78,16.38-9.44,24.62-14.08c8.26-4.61,16.52-9.19,24.85-13.66C272.96,315.49,281.34,311.11,289.79,306.85z" id="el_Ut6haHyC5ug"/>
</g>
<g id="el_tl_zqAOybre_an_RqbIcszNf" data-animator-group="true" data-animator-type="0"><g id="el_tl_zqAOybre">
	<g id="el_A3nkpTAkrv9">
		<path d="M299.83,210.64c-1.53-1.43-102.53,118.1-98.82,145.23l32.44-18.64l100.43-88.41L299.83,210.64z" id="el_17r9oGM1pkA"/>
		<path d="M301.42,212.41c0,0-101.7,117.61-99.53,143.28l43.11-24.87l95.19-82.19L301.42,212.41z" id="el_cyiq5gBhAeY"/>
	</g>
	<path d="M299.45,211.01c0,0,63.19-85.56,68.54-84.59c5.35,0.97,18.6-15.02,26.17,19.52c1,15.14-3.54,15.1-3.54,15.1&#10;&#9;&#9;s-9.96-6.62-15.76,1.7c-5.8,8.32-20.28,34.34-20.28,34.34s-13.57,16.52-19.1,21c-5.52,4.48-9.59,13.22-9.88,16.91&#10;&#9;&#9;C325.33,238.69,299.45,211.01,299.45,211.01z" id="el_fkvBQu1d6Cn"/>
</g></g>
</svg>