<svg version="1.1" id="el_2QKPKTUpQ" xmlns="http://www.w3.org/2000/svg" xmlns:xlink="http://www.w3.org/1999/xlink" x="0px" y="0px" viewBox="0 0 576 576" style="enable-background:new 0 0 576 576;" xml:space="preserve"><style>@-webkit-keyframes kf_el_gBuaztUGEv5_an_zOmsBhgfv{5.56%{-webkit-transform: translate(373.79998779296875px, 306.6000061035156px) scale(0.7, 0.7) translate(-373.79998779296875px, -306.6000061035156px);transform: translate(373.79998779296875px, 306.6000061035156px) scale(0.7, 0.7) translate(-373.79998779296875px, -306.6000061035156px);}35.56%{-webkit-transform: translate(373.79998779296875px, 306.6000061035156px) scale(0.7, 0.7) translate(-373.79998779296875px, -306.6000061035156px);transform: translate(373.79998779296875px, 306.6000061035156px) scale(0.7, 0.7) translate(-373.79998779296875px, -306.6000061035156px);}0%{-webkit-transform: translate(373.79998779296875px, 306.6000061035156px) scale(0.7, 0.7) translate(-373.79998779296875px, -306.6000061035156px);transform: translate(373.79998779296875px, 306.6000061035156px) scale(0.7, 0.7) translate(-373.79998779296875px, -306.6000061035156px);}100%{-webkit-transform: translate(373.79998779296875px, 306.6000061035156px) scale(0.7, 0.7) translate(-373.79998779296875px, -306.6000061035156px);transform: translate(373.79998779296875px, 306.6000061035156px) scale(0.7, 0.7) translate(-373.79998779296875px, -306.6000061035156px);}}@keyframes kf_el_gBuaztUGEv5_an_zOmsBhgfv{5.56%{-webkit-transform: translate(373.79998779296875px, 306.6000061035156px) scale(0.7, 0.7) translate(-373.79998779296875px, -306.6000061035156px);transform: translate(373.79998779296875px, 306.6000061035156px) scale(0.7, 0.7) translate(-373.79998779296875px, -306.6000061035156px);}35.56%{-webkit-transform: translate(373.79998779296875px, 306.6000061035156px) scale(0.7, 0.7) translate(-373.79998779296875px, -306.6000061035156px);transform: translate(373.79998779296875px, 306.6000061035156px) scale(0.7, 0.7) translate(-373.79998779296875px, -306.6000061035156px);}0%{-webkit-transform: translate(373.79998779296875px, 306.6000061035156px) scale(0.7, 0.7) translate(-373.79998779296875px, -306.6000061035156px);transform: translate(373.79998779296875px, 306.6000061035156px) scale(0.7, 0.7) translate(-373.79998779296875px, -306.6000061035156px);}100%{-webkit-transform: translate(373.79998779296875px, 306.6000061035156px) scale(0.7, 0.7) translate(-373.79998779296875px, -306.6000061035156px);transform: translate(373.79998779296875px, 306.6000061035156px) scale(0.7, 0.7) translate(-373.79998779296875px, -306.6000061035156px);}}@-webkit-keyframes kf_el_gBuaztUGEv5_an_3z40LhUip{5.56%{opacity: 1;}22.22%{opacity: 0;}35.56%{opacity: 1;}50%{opacity: 0;}0%{opacity: 1;}100%{opacity: 0;}}@keyframes kf_el_gBuaztUGEv5_an_3z40LhUip{5.56%{opacity: 1;}22.22%{opacity: 0;}35.56%{opacity: 1;}50%{opacity: 0;}0%{opacity: 1;}100%{opacity: 0;}}@-webkit-keyframes kf_el_gBuaztUGEv5_an_7RDIMAF77{5.56%{-webkit-transform: translate(373.79998779296875px, 306.6000061035156px) rotate(0deg) translate(-373.79998779296875px, -306.6000061035156px);transform: translate(373.79998779296875px, 306.6000061035156px) rotate(0deg) translate(-373.79998779296875px, -306.6000061035156px);}22.22%{-webkit-transform: translate(373.79998779296875px, 306.6000061035156px) rotate(30deg) translate(-373.79998779296875px, -306.6000061035156px);transform: translate(373.79998779296875px, 306.6000061035156px) rotate(30deg) translate(-373.79998779296875px, -306.6000061035156px);}35.56%{-webkit-transform: translate(373.79998779296875px, 306.6000061035156px) rotate(0deg) translate(-373.79998779296875px, -306.6000061035156px);transform: translate(373.79998779296875px, 306.6000061035156px) rotate(0deg) translate(-373.79998779296875px, -306.6000061035156px);}50%{-webkit-transform: translate(373.79998779296875px, 306.6000061035156px) rotate(30deg) translate(-373.79998779296875px, -306.6000061035156px);transform: translate(373.79998779296875px, 306.6000061035156px) rotate(30deg) translate(-373.79998779296875px, -306.6000061035156px);}0%{-webkit-transform: translate(373.79998779296875px, 306.6000061035156px) rotate(0deg) translate(-373.79998779296875px, -306.6000061035156px);transform: translate(373.79998779296875px, 306.6000061035156px) rotate(0deg) translate(-373.79998779296875px, -306.6000061035156px);}100%{-webkit-transform: translate(373.79998779296875px, 306.6000061035156px) rotate(30deg) translate(-373.79998779296875px, -306.6000061035156px);transform: translate(373.79998779296875px, 306.6000061035156px) rotate(30deg) translate(-373.79998779296875px, -306.6000061035156px);}}@keyframes kf_el_gBuaztUGEv5_an_7RDIMAF77{5.56%{-webkit-transform: translate(373.79998779296875px, 306.6000061035156px) rotate(0deg) translate(-373.79998779296875px, -306.6000061035156px);transform: translate(373.79998779296875px, 306.6000061035156px) rotate(0deg) translate(-373.79998779296875px, -306.6000061035156px);}22.22%{-webkit-transform: translate(373.79998779296875px, 306.6000061035156px) rotate(30deg) translate(-373.79998779296875px, -306.6000061035156px);transform: translate(373.79998779296875px, 306.6000061035156px) rotate(30deg) translate(-373.79998779296875px, -306.6000061035156px);}35.56%{-webkit-transform: translate(373.79998779296875px, 306.6000061035156px) rotate(0deg) translate(-373.79998779296875px, -306.6000061035156px);transform: translate(373.79998779296875px, 306.6000061035156px) rotate(0deg) translate(-373.79998779296875px, -306.6000061035156px);}50%{-webkit-transform: translate(373.79998779296875px, 306.6000061035156px) rotate(30deg) translate(-373.79998779296875px, -306.6000061035156px);transform: translate(373.79998779296875px, 306.6000061035156px) rotate(30deg) translate(-373.79998779296875px, -306.6000061035156px);}0%{-webkit-transform: translate(373.79998779296875px, 306.6000061035156px) rotate(0deg) translate(-373.79998779296875px, -306.6000061035156px);transform: translate(373.79998779296875px, 306.6000061035156px) rotate(0deg) translate(-373.79998779296875px, -306.6000061035156px);}100%{-webkit-transform: translate(373.79998779296875px, 306.6000061035156px) rotate(30deg) translate(-373.79998779296875px, -306.6000061035156px);transform: translate(373.79998779296875px, 306.6000061035156px) rotate(30deg) translate(-373.79998779296875px, -306.6000061035156px);}}@-webkit-keyframes kf_el_gBuaztUGEv5_an_ZdzOSBt0G{5.56%{-webkit-transform: translate(373.79998779296875px, 306.6000061035156px) translate(-373.79998779296875px, -306.6000061035156px) translate(30px, 0px);transform: translate(373.79998779296875px, 306.6000061035156px) translate(-373.79998779296875px, -306.6000061035156px) translate(30px, 0px);}22.22%{-webkit-transform: translate(373.79998779296875px, 306.6000061035156px) translate(-373.79998779296875px, -306.6000061035156px) translate(0px, -60px);transform: translate(373.79998779296875px, 306.6000061035156px) translate(-373.79998779296875px, -306.6000061035156px) translate(0px, -60px);}35.56%{-webkit-transform: translate(373.79998779296875px, 306.6000061035156px) translate(-373.79998779296875px, -306.6000061035156px) translate(30px, 0px);transform: translate(373.79998779296875px, 306.6000061035156px) translate(-373.79998779296875px, -306.6000061035156px) translate(30px, 0px);}50%{-webkit-transform: translate(373.79998779296875px, 306.6000061035156px) translate(-373.79998779296875px, -306.6000061035156px) translate(0px, -60px);transform: translate(373.79998779296875px, 306.6000061035156px) translate(-373.79998779296875px, -306.6000061035156px) translate(0px, -60px);}0%{-webkit-transform: translate(373.79998779296875px, 306.6000061035156px) translate(-373.79998779296875px, -306.6000061035156px) translate(30px, 0px);transform: translate(373.79998779296875px, 306.6000061035156px) translate(-373.79998779296875px, -306.6000061035156px) translate(30px, 0px);}100%{-webkit-transform: translate(373.79998779296875px, 306.6000061035156px) translate(-373.79998779296875px, -306.6000061035156px) translate(0px, -60px);transform: translate(373.79998779296875px, 306.6000061035156px) translate(-373.79998779296875px, -306.6000061035156px) translate(0px, -60px);}}@keyframes kf_el_gBuaztUGEv5_an_ZdzOSBt0G{5.56%{-webkit-transform: translate(373.79998779296875px, 306.6000061035156px) translate(-373.79998779296875px, -306.6000061035156px) translate(30px, 0px);transform: translate(373.79998779296875px, 306.6000061035156px) translate(-373.79998779296875px, -306.6000061035156px) translate(30px, 0px);}22.22%{-webkit-transform: translate(373.79998779296875px, 306.6000061035156px) translate(-373.79998779296875px, -306.6000061035156px) translate(0px, -60px);transform: translate(373.79998779296875px, 306.6000061035156px) translate(-373.79998779296875px, -306.6000061035156px) translate(0px, -60px);}35.56%{-webkit-transform: translate(373.79998779296875px, 306.6000061035156px) translate(-373.79998779296875px, -306.6000061035156px) translate(30px, 0px);transform: translate(373.79998779296875px, 306.6000061035156px) translate(-373.79998779296875px, -306.6000061035156px) translate(30px, 0px);}50%{-webkit-transform: translate(373.79998779296875px, 306.6000061035156px) translate(-373.79998779296875px, -306.6000061035156px) translate(0px, -60px);transform: translate(373.79998779296875px, 306.6000061035156px) translate(-373.79998779296875px, -306.6000061035156px) translate(0px, -60px);}0%{-webkit-transform: translate(373.79998779296875px, 306.6000061035156px) translate(-373.79998779296875px, -306.6000061035156px) translate(30px, 0px);transform: translate(373.79998779296875px, 306.6000061035156px) translate(-373.79998779296875px, -306.6000061035156px) translate(30px, 0px);}100%{-webkit-transform: translate(373.79998779296875px, 306.6000061035156px) translate(-373.79998779296875px, -306.6000061035156px) translate(0px, -60px);transform: translate(373.79998779296875px, 306.6000061035156px) translate(-373.79998779296875px, -306.6000061035156px) translate(0px, -60px);}}@-webkit-keyframes kf_el_rqMI8Fs6arD_an_Vt4JOqs1q{5.56%{-webkit-transform: translate(23.400007247924805px, 306.6000061035156px) scale(0.7, 0.7) translate(-23.400007247924805px, -306.6000061035156px);transform: translate(23.400007247924805px, 306.6000061035156px) scale(0.7, 0.7) translate(-23.400007247924805px, -306.6000061035156px);}35.56%{-webkit-transform: translate(23.400007247924805px, 306.6000061035156px) scale(0.7, 0.7) translate(-23.400007247924805px, -306.6000061035156px);transform: translate(23.400007247924805px, 306.6000061035156px) scale(0.7, 0.7) translate(-23.400007247924805px, -306.6000061035156px);}0%{-webkit-transform: translate(23.400007247924805px, 306.6000061035156px) scale(0.7, 0.7) translate(-23.400007247924805px, -306.6000061035156px);transform: translate(23.400007247924805px, 306.6000061035156px) scale(0.7, 0.7) translate(-23.400007247924805px, -306.6000061035156px);}100%{-webkit-transform: translate(23.400007247924805px, 306.6000061035156px) scale(0.7, 0.7) translate(-23.400007247924805px, -306.6000061035156px);transform: translate(23.400007247924805px, 306.6000061035156px) scale(0.7, 0.7) translate(-23.400007247924805px, -306.6000061035156px);}}@keyframes kf_el_rqMI8Fs6arD_an_Vt4JOqs1q{5.56%{-webkit-transform: translate(23.400007247924805px, 306.6000061035156px) scale(0.7, 0.7) translate(-23.400007247924805px, -306.6000061035156px);transform: translate(23.400007247924805px, 306.6000061035156px) scale(0.7, 0.7) translate(-23.400007247924805px, -306.6000061035156px);}35.56%{-webkit-transform: translate(23.400007247924805px, 306.6000061035156px) scale(0.7, 0.7) translate(-23.400007247924805px, -306.6000061035156px);transform: translate(23.400007247924805px, 306.6000061035156px) scale(0.7, 0.7) translate(-23.400007247924805px, -306.6000061035156px);}0%{-webkit-transform: translate(23.400007247924805px, 306.6000061035156px) scale(0.7, 0.7) translate(-23.400007247924805px, -306.6000061035156px);transform: translate(23.400007247924805px, 306.6000061035156px) scale(0.7, 0.7) translate(-23.400007247924805px, -306.6000061035156px);}100%{-webkit-transform: translate(23.400007247924805px, 306.6000061035156px) scale(0.7, 0.7) translate(-23.400007247924805px, -306.6000061035156px);transform: translate(23.400007247924805px, 306.6000061035156px) scale(0.7, 0.7) translate(-23.400007247924805px, -306.6000061035156px);}}@-webkit-keyframes kf_el_rqMI8Fs6arD_an_N-O-jOTkb{5.56%{opacity: 1;}22.22%{opacity: 0;}35.56%{opacity: 1;}50%{opacity: 0;}0%{opacity: 1;}100%{opacity: 0;}}@keyframes kf_el_rqMI8Fs6arD_an_N-O-jOTkb{5.56%{opacity: 1;}22.22%{opacity: 0;}35.56%{opacity: 1;}50%{opacity: 0;}0%{opacity: 1;}100%{opacity: 0;}}@-webkit-keyframes kf_el_rqMI8Fs6arD_an_hGlvjbm-h{5.56%{-webkit-transform: translate(23.400007247924805px, 306.6000061035156px) rotate(0deg) translate(-23.400007247924805px, -306.6000061035156px);transform: translate(23.400007247924805px, 306.6000061035156px) rotate(0deg) translate(-23.400007247924805px, -306.6000061035156px);}22.22%{-webkit-transform: translate(23.400007247924805px, 306.6000061035156px) rotate(-30deg) translate(-23.400007247924805px, -306.6000061035156px);transform: translate(23.400007247924805px, 306.6000061035156px) rotate(-30deg) translate(-23.400007247924805px, -306.6000061035156px);}35.56%{-webkit-transform: translate(23.400007247924805px, 306.6000061035156px) rotate(0deg) translate(-23.400007247924805px, -306.6000061035156px);transform: translate(23.400007247924805px, 306.6000061035156px) rotate(0deg) translate(-23.400007247924805px, -306.6000061035156px);}50%{-webkit-transform: translate(23.400007247924805px, 306.6000061035156px) rotate(-30deg) translate(-23.400007247924805px, -306.6000061035156px);transform: translate(23.400007247924805px, 306.6000061035156px) rotate(-30deg) translate(-23.400007247924805px, -306.6000061035156px);}0%{-webkit-transform: translate(23.400007247924805px, 306.6000061035156px) rotate(0deg) translate(-23.400007247924805px, -306.6000061035156px);transform: translate(23.400007247924805px, 306.6000061035156px) rotate(0deg) translate(-23.400007247924805px, -306.6000061035156px);}100%{-webkit-transform: translate(23.400007247924805px, 306.6000061035156px) rotate(-30deg) translate(-23.400007247924805px, -306.6000061035156px);transform: translate(23.400007247924805px, 306.6000061035156px) rotate(-30deg) translate(-23.400007247924805px, -306.6000061035156px);}}@keyframes kf_el_rqMI8Fs6arD_an_hGlvjbm-h{5.56%{-webkit-transform: translate(23.400007247924805px, 306.6000061035156px) rotate(0deg) translate(-23.400007247924805px, -306.6000061035156px);transform: translate(23.400007247924805px, 306.6000061035156px) rotate(0deg) translate(-23.400007247924805px, -306.6000061035156px);}22.22%{-webkit-transform: translate(23.400007247924805px, 306.6000061035156px) rotate(-30deg) translate(-23.400007247924805px, -306.6000061035156px);transform: translate(23.400007247924805px, 306.6000061035156px) rotate(-30deg) translate(-23.400007247924805px, -306.6000061035156px);}35.56%{-webkit-transform: translate(23.400007247924805px, 306.6000061035156px) rotate(0deg) translate(-23.400007247924805px, -306.6000061035156px);transform: translate(23.400007247924805px, 306.6000061035156px) rotate(0deg) translate(-23.400007247924805px, -306.6000061035156px);}50%{-webkit-transform: translate(23.400007247924805px, 306.6000061035156px) rotate(-30deg) translate(-23.400007247924805px, -306.6000061035156px);transform: translate(23.400007247924805px, 306.6000061035156px) rotate(-30deg) translate(-23.400007247924805px, -306.6000061035156px);}0%{-webkit-transform: translate(23.400007247924805px, 306.6000061035156px) rotate(0deg) translate(-23.400007247924805px, -306.6000061035156px);transform: translate(23.400007247924805px, 306.6000061035156px) rotate(0deg) translate(-23.400007247924805px, -306.6000061035156px);}100%{-webkit-transform: translate(23.400007247924805px, 306.6000061035156px) rotate(-30deg) translate(-23.400007247924805px, -306.6000061035156px);transform: translate(23.400007247924805px, 306.6000061035156px) rotate(-30deg) translate(-23.400007247924805px, -306.6000061035156px);}}@-webkit-keyframes kf_el_rqMI8Fs6arD_an_i23u4Byr0{5.56%{-webkit-transform: translate(23.400007247924805px, 306.6000061035156px) translate(-23.400007247924805px, -306.6000061035156px) translate(50px, 0px);transform: translate(23.400007247924805px, 306.6000061035156px) translate(-23.400007247924805px, -306.6000061035156px) translate(50px, 0px);}22.22%{-webkit-transform: translate(23.400007247924805px, 306.6000061035156px) translate(-23.400007247924805px, -306.6000061035156px) translate(30px, 0px);transform: translate(23.400007247924805px, 306.6000061035156px) translate(-23.400007247924805px, -306.6000061035156px) translate(30px, 0px);}35.56%{-webkit-transform: translate(23.400007247924805px, 306.6000061035156px) translate(-23.400007247924805px, -306.6000061035156px) translate(50px, 0px);transform: translate(23.400007247924805px, 306.6000061035156px) translate(-23.400007247924805px, -306.6000061035156px) translate(50px, 0px);}50%{-webkit-transform: translate(23.400007247924805px, 306.6000061035156px) translate(-23.400007247924805px, -306.6000061035156px) translate(30px, 0px);transform: translate(23.400007247924805px, 306.6000061035156px) translate(-23.400007247924805px, -306.6000061035156px) translate(30px, 0px);}0%{-webkit-transform: translate(23.400007247924805px, 306.6000061035156px) translate(-23.400007247924805px, -306.6000061035156px) translate(50px, 0px);transform: translate(23.400007247924805px, 306.6000061035156px) translate(-23.400007247924805px, -306.6000061035156px) translate(50px, 0px);}100%{-webkit-transform: translate(23.400007247924805px, 306.6000061035156px) translate(-23.400007247924805px, -306.6000061035156px) translate(30px, 0px);transform: translate(23.400007247924805px, 306.6000061035156px) translate(-23.400007247924805px, -306.6000061035156px) translate(30px, 0px);}}@keyframes kf_el_rqMI8Fs6arD_an_i23u4Byr0{5.56%{-webkit-transform: translate(23.400007247924805px, 306.6000061035156px) translate(-23.400007247924805px, -306.6000061035156px) translate(50px, 0px);transform: translate(23.400007247924805px, 306.6000061035156px) translate(-23.400007247924805px, -306.6000061035156px) translate(50px, 0px);}22.22%{-webkit-transform: translate(23.400007247924805px, 306.6000061035156px) translate(-23.400007247924805px, -306.6000061035156px) translate(30px, 0px);transform: translate(23.400007247924805px, 306.6000061035156px) translate(-23.400007247924805px, -306.6000061035156px) translate(30px, 0px);}35.56%{-webkit-transform: translate(23.400007247924805px, 306.6000061035156px) translate(-23.400007247924805px, -306.6000061035156px) translate(50px, 0px);transform: translate(23.400007247924805px, 306.6000061035156px) translate(-23.400007247924805px, -306.6000061035156px) translate(50px, 0px);}50%{-webkit-transform: translate(23.400007247924805px, 306.6000061035156px) translate(-23.400007247924805px, -306.6000061035156px) translate(30px, 0px);transform: translate(23.400007247924805px, 306.6000061035156px) translate(-23.400007247924805px, -306.6000061035156px) translate(30px, 0px);}0%{-webkit-transform: translate(23.400007247924805px, 306.6000061035156px) translate(-23.400007247924805px, -306.6000061035156px) translate(50px, 0px);transform: translate(23.400007247924805px, 306.6000061035156px) translate(-23.400007247924805px, -306.6000061035156px) translate(50px, 0px);}100%{-webkit-transform: translate(23.400007247924805px, 306.6000061035156px) translate(-23.400007247924805px, -306.6000061035156px) translate(30px, 0px);transform: translate(23.400007247924805px, 306.6000061035156px) translate(-23.400007247924805px, -306.6000061035156px) translate(30px, 0px);}}@-webkit-keyframes kf_el_aVsC-L6gkGS_an_r1doqhBgF{55.56%{opacity: 1;}67.78%{opacity: 0;}0%{opacity: 1;}100%{opacity: 0;}}@keyframes kf_el_aVsC-L6gkGS_an_r1doqhBgF{55.56%{opacity: 1;}67.78%{opacity: 0;}0%{opacity: 1;}100%{opacity: 0;}}@-webkit-keyframes kf_el_Hqgf9N3p_8_an_XcWboZ0uw{55.56%{opacity: 0;}67.78%{opacity: 1;}0%{opacity: 0;}100%{opacity: 1;}}@keyframes kf_el_Hqgf9N3p_8_an_XcWboZ0uw{55.56%{opacity: 0;}67.78%{opacity: 1;}0%{opacity: 0;}100%{opacity: 1;}}#el_2QKPKTUpQ *{-webkit-animation-duration: 3s;animation-duration: 3s;-webkit-animation-iteration-count: infinite;animation-iteration-count: infinite;-webkit-animation-timing-function: cubic-bezier(0, 0, 1, 1);animation-timing-function: cubic-bezier(0, 0, 1, 1);}#el_va3OLdQ1vB{opacity: 0.9;fill: #BAAB52;}#el_cGvIEOxaJY{fill: #FAD77D;}#el_u2GYZjNkZq{fill: #FCE012;}#el_2RVAs7DXXK{fill: #F2D216;}#el_omOc7SXIJr{fill: #F7D719;}#el_jsxLG0R4By{fill: #FCE012;}#el_gjogyqqD-z{fill: #F7BD06;}#el__7iXlrfZEH{fill: #F2D216;}#el_42dzUsIzXs{fill: #FFD715;}#el_enIKG32KNk{fill: #FFCA02;}#el_OUP4DVTXk8{fill: #FFD715;}#el_vqRHHTzhLm8{fill: #FFCA02;}#el_XA7M7avLjIL{fill: #F7B703;}#el_FR8woxr_gJH{fill: #FFCA02;}#el_J_gi6Mp73uE{fill: #FFD715;}#el_7uyWoDZs2Hl{fill: #FCE012;}#el_oMEHbzjq9CE{fill: #FFCA02;}#el_5Sx4XOH7RHb{fill: #FFD715;}#el_hCb1zWVNfP4{fill: #FCE012;}#el_3U3p2QV1B74{fill: #FFD715;}#el_-37lDPPzPEl{fill: #FFCA02;}#el__jlP_ing_OJ{fill: #F7BD06;}#el_ii-2447eF-X{fill: #FFCA02;}#el_ZqFvaltwcZ4{fill: #F4D645;}#el_lB0AThK43hN{fill: #FCE012;}#el_7OoDvzbBwu6{fill: #FCE012;}#el_1XFcOkfIyj_{fill: #FED906;}#el_Rs0oliINksb{fill: #FED906;}#el_XyNq_hJcJkP{fill: #FFCA02;}#el_qqUgmNUzKcF{fill: #FCE012;}#el_W6O0oLUNDY0{fill: #FFCA02;}#el_xPe_Ttx_DJ0{fill: #FCE012;}#el_XY3rv9DVfPT{fill: #FED906;}#el_KEZC-4-rLak{fill: #FFCA02;}#el_uSo4i2gijho{fill: #FED906;}#el_CvnInjpKF7p{fill: #FCE012;}#el_yktn63p8dDq{fill: #FFCA02;}#el_9mLB4DVWn97{fill: #F2D216;}#el_acEs7REHYq_{fill: #FCE012;}#el_XFdVY8Ric2m{fill: #F7BD06;}#el_5hbFH51iiYV{fill: #F7BD06;}#el_aZfIineNtR4{fill: #FED906;}#el_-0KZ3Qfrz-h{fill: #FFD715;}#el_nwrwGaT5LAp{fill: #FFCA02;}#el_Y8q0CjYlYn_{opacity: 0.9;fill: #C6B958;}#el_qfas51RnC-O{fill: #FFD715;}#el_Dua-HP6LDJx{fill: #FFCA02;}#el_WtxjSTrKVeL{fill: #EAAF0A;-webkit-transform: matrix(2.079721e-02, -0.9998, 0.9998, 2.079721e-02, 118.6267, 486.6964);transform: matrix(2.079721e-02, -0.9998, 0.9998, 2.079721e-02, 118.6267, 486.6964);}#el_FAIxBdUBFKj{fill: #E8890C;}#el_dAxSIVaGWww{fill: #E8890C;}#el_uuK8nDYvXeP{fill: #E8890C;}#el_ZQaz-fvDVBN{fill: #E8890C;}#el_8-MWOfX4yQT{fill: #E8890C;}#el_iLt-W45ZFeu{fill: #E8890C;}#el_oqpyk3KApXK{fill: #E8890C;}#el_rqMI8Fs6arD{fill: #3D3D3D;-webkit-animation-fill-mode: backwards;animation-fill-mode: backwards;opacity: 1;-webkit-animation-name: kf_el_rqMI8Fs6arD_an_N-O-jOTkb;animation-name: kf_el_rqMI8Fs6arD_an_N-O-jOTkb;-webkit-animation-timing-function: cubic-bezier(0, 0, 1, 1);animation-timing-function: cubic-bezier(0, 0, 1, 1);}#el_gBuaztUGEv5{fill: #3D3D3D;-webkit-animation-fill-mode: backwards;animation-fill-mode: backwards;opacity: 1;-webkit-animation-name: kf_el_gBuaztUGEv5_an_3z40LhUip;animation-name: kf_el_gBuaztUGEv5_an_3z40LhUip;-webkit-animation-timing-function: cubic-bezier(0, 0, 1, 1);animation-timing-function: cubic-bezier(0, 0, 1, 1);}#el_Hqgf9N3p_8{-webkit-animation-fill-mode: backwards;animation-fill-mode: backwards;opacity: 0;-webkit-animation-name: kf_el_Hqgf9N3p_8_an_XcWboZ0uw;animation-name: kf_el_Hqgf9N3p_8_an_XcWboZ0uw;-webkit-animation-timing-function: cubic-bezier(0, 0, 1, 1);animation-timing-function: cubic-bezier(0, 0, 1, 1);}#el_aVsC-L6gkGS{-webkit-animation-fill-mode: backwards;animation-fill-mode: backwards;opacity: 1;-webkit-animation-name: kf_el_aVsC-L6gkGS_an_r1doqhBgF;animation-name: kf_el_aVsC-L6gkGS_an_r1doqhBgF;-webkit-animation-timing-function: cubic-bezier(0, 0, 1, 1);animation-timing-function: cubic-bezier(0, 0, 1, 1);}#el_rqMI8Fs6arD_an_i23u4Byr0{-webkit-animation-fill-mode: backwards;animation-fill-mode: backwards;-webkit-transform: translate(23.400007247924805px, 306.6000061035156px) translate(-23.400007247924805px, -306.6000061035156px) translate(50px, 0px);transform: translate(23.400007247924805px, 306.6000061035156px) translate(-23.400007247924805px, -306.6000061035156px) translate(50px, 0px);-webkit-animation-name: kf_el_rqMI8Fs6arD_an_i23u4Byr0;animation-name: kf_el_rqMI8Fs6arD_an_i23u4Byr0;-webkit-animation-timing-function: cubic-bezier(0, 0, 1, 1);animation-timing-function: cubic-bezier(0, 0, 1, 1);}#el_rqMI8Fs6arD_an_hGlvjbm-h{-webkit-animation-fill-mode: backwards;animation-fill-mode: backwards;-webkit-transform: translate(23.400007247924805px, 306.6000061035156px) rotate(0deg) translate(-23.400007247924805px, -306.6000061035156px);transform: translate(23.400007247924805px, 306.6000061035156px) rotate(0deg) translate(-23.400007247924805px, -306.6000061035156px);-webkit-animation-name: kf_el_rqMI8Fs6arD_an_hGlvjbm-h;animation-name: kf_el_rqMI8Fs6arD_an_hGlvjbm-h;-webkit-animation-timing-function: cubic-bezier(0, 0, 1, 1);animation-timing-function: cubic-bezier(0, 0, 1, 1);}#el_rqMI8Fs6arD_an_Vt4JOqs1q{-webkit-animation-fill-mode: backwards;animation-fill-mode: backwards;-webkit-transform: translate(23.400007247924805px, 306.6000061035156px) scale(0.7, 0.7) translate(-23.400007247924805px, -306.6000061035156px);transform: translate(23.400007247924805px, 306.6000061035156px) scale(0.7, 0.7) translate(-23.400007247924805px, -306.6000061035156px);-webkit-animation-name: kf_el_rqMI8Fs6arD_an_Vt4JOqs1q;animation-name: kf_el_rqMI8Fs6arD_an_Vt4JOqs1q;-webkit-animation-timing-function: cubic-bezier(0, 0, 1, 1);animation-timing-function: cubic-bezier(0, 0, 1, 1);}#el_gBuaztUGEv5_an_ZdzOSBt0G{-webkit-animation-fill-mode: backwards;animation-fill-mode: backwards;-webkit-transform: translate(373.79998779296875px, 306.6000061035156px) translate(-373.79998779296875px, -306.6000061035156px) translate(30px, 0px);transform: translate(373.79998779296875px, 306.6000061035156px) translate(-373.79998779296875px, -306.6000061035156px) translate(30px, 0px);-webkit-animation-name: kf_el_gBuaztUGEv5_an_ZdzOSBt0G;animation-name: kf_el_gBuaztUGEv5_an_ZdzOSBt0G;-webkit-animation-timing-function: cubic-bezier(0, 0, 1, 1);animation-timing-function: cubic-bezier(0, 0, 1, 1);}#el_gBuaztUGEv5_an_7RDIMAF77{-webkit-animation-fill-mode: backwards;animation-fill-mode: backwards;-webkit-transform: translate(373.79998779296875px, 306.6000061035156px) rotate(0deg) translate(-373.79998779296875px, -306.6000061035156px);transform: translate(373.79998779296875px, 306.6000061035156px) rotate(0deg) translate(-373.79998779296875px, -306.6000061035156px);-webkit-animation-name: kf_el_gBuaztUGEv5_an_7RDIMAF77;animation-name: kf_el_gBuaztUGEv5_an_7RDIMAF77;-webkit-animation-timing-function: cubic-bezier(0, 0, 1, 1);animation-timing-function: cubic-bezier(0, 0, 1, 1);}#el_gBuaztUGEv5_an_zOmsBhgfv{-webkit-animation-fill-mode: backwards;animation-fill-mode: backwards;-webkit-transform: translate(373.79998779296875px, 306.6000061035156px) scale(0.7, 0.7) translate(-373.79998779296875px, -306.6000061035156px);transform: translate(373.79998779296875px, 306.6000061035156px) scale(0.7, 0.7) translate(-373.79998779296875px, -306.6000061035156px);-webkit-animation-name: kf_el_gBuaztUGEv5_an_zOmsBhgfv;animation-name: kf_el_gBuaztUGEv5_an_zOmsBhgfv;-webkit-animation-timing-function: cubic-bezier(0, 0, 1, 1);animation-timing-function: cubic-bezier(0, 0, 1, 1);}</style>

<g id="el_Hqgf9N3p_8">
	<path d="M58.3,377.4c0,0,22,34.6,162.9,47.7c0,0,169.7,7.3,221-5.8c0,0,81.2-10,81.7-61.3
		c0.5-51.3-161.3-147.7-161.3-147.7L82.4,273.2l-26.2,57.1L58.3,377.4z" id="el_va3OLdQ1vB"/>
	<path d="M58.3,374.2c0,0,22,34.6,162.9,47.7c0,0,169.7,7.3,221-5.8c0,0,81.2-10,81.7-61.3
		c0.5-51.3-161.3-147.7-161.3-147.7L82.4,269.9L56.3,327L58.3,374.2z" id="el_cGvIEOxaJY"/>
	<path d="M58.3,367.9c0,0,22,34.6,162.9,47.7c0,0,169.7,7.3,221-5.8c0,0,81.2-10,81.7-61.3
		c0.5-51.3-161.3-147.7-161.3-147.7L82.4,263.7l-26.2,57.1L58.3,367.9z" id="el_u2GYZjNkZq"/>
	<polygon points="424,234.2 454.1,258.9 423.5,257.9 	" id="el_2RVAs7DXXK"/>
	<g id="el_3_kjtWWDX-">
		<polygon points="206.6,146.8 269.4,151 317.1,146.8 251.7,143.1 		" id="el_omOc7SXIJr"/>
		<polygon points="206.6,228 277.8,232.1 273.6,151 206.6,146.8 		" id="el_jsxLG0R4By"/>
		<polygon points="317.1,146.8 329.1,183.4 309.7,232.1 277.8,232.1 273.6,151 		" id="el_gjogyqqD-z"/>
	</g>
	<g id="el_ZCtqnwrNjh">
		<polygon points="320.2,167.8 268.9,275.7 366.3,294.5 401.9,215.9 		" id="el__7iXlrfZEH"/>
		<polygon points="439.6,209.1 367.3,161 320.2,167.8 401.9,215.9 		" id="el_42dzUsIzXs"/>
		<polygon points="401.9,215.9 439.6,209.1 420.7,279.7 366.3,294.5 		" id="el_enIKG32KNk"/>
	</g>
	<g id="el_0h1Te9ctAo">
		<polygon points="366.3,291.1 414.1,259.3 469.1,328.7 434.4,355.3 		" id="el_OUP4DVTXk8"/>
		<polygon points="512.3,319.4 463.8,251.8 414.1,259.3 469.1,328.7 		" id="el_vqRHHTzhLm8"/>
		<polygon points="434.4,355.3 489.4,343.7 512.3,319.4 469.1,328.7 		" id="el_XA7M7avLjIL"/>
	</g>
	<g id="el_yp2Wqw41cKk">
		<polygon points="149,293.5 149,215.2 115.6,202.6 71.2,266.2 		" id="el_FR8woxr_gJH"/>
		<path d="M61.2,285.9l10-19.6l77.8,27.2v4.2c0,0-56.4,4-56.8,9.5C91.8,312.7,61.2,285.9,61.2,285.9z" id="el_J_gi6Mp73uE"/>
	</g>
	<g id="el_iYTmxQrAX9u">
		<polygon points="117.5,223.8 163.1,168.2 230.7,179.8 192.4,230.6 		" id="el_7uyWoDZs2Hl"/>
		<polygon points="227.8,307.2 251.7,217 230.7,179.8 192.4,230.6 		" id="el_oMEHbzjq9CE"/>
		<path d="M143.7,299.8c0,0,65.7,2.6,84.1,7.4l-35.4-76.6l-74.9-6.8L143.7,299.8z" id="el_5Sx4XOH7RHb"/>
	</g>
	<g id="el_p_dj8dkGnjT">
		<g id="el_qGOz5NHJk6n">
			<polygon points="226.5,246.3 277.8,190.3 365.2,243.2 319.1,291.4 			" id="el_hCb1zWVNfP4"/>
			<polygon points="226.5,311.6 315.7,343.2 319.1,291.4 226.5,246.3 			" id="el_3U3p2QV1B74"/>
			<polygon points="365.2,243.2 365.2,283.7 365.2,318 315.5,345.8 319.1,291.4 			" id="el_-37lDPPzPEl"/>
		</g>
		<polygon points="315.5,345.8 365.2,311.7 365.2,277.5 		" id="el__jlP_ing_OJ"/>
	</g>
	<g id="el_4Vbbakwx8cH">
		<path d="M106.6,387.7l-10.5-70.2L76.9,328l14.8,55.9C91.8,383.9,98.2,386.4,106.6,387.7z" id="el_ii-2447eF-X"/>
		<polygon points="91.8,383.9 66.8,374.5 56,331.5 76.9,328 		" id="el_ZqFvaltwcZ4"/>
		<polygon points="68.2,324.6 96.1,317.6 76.9,328 56,331.5 		" id="el_lB0AThK43hN"/>
	</g>
	<path d="M290.2,359.2l-30.6,56.9c0,0,91.8,5.7,100.4,1.4l14.4-26.2L290.2,359.2z" id="el_7OoDvzbBwu6"/>
	<path d="M301.7,336.5c0,0,68.8,40.4,72.8,46.3v8.4l-84.2-33L301.7,336.5z" id="el_1XFcOkfIyj_"/>
	<g id="el_T_PI-LjBsEl">
		<path d="M383.3,386.9L360,417.5c0.1,0.5,47.9-1.4,52.6-4.9L383.3,386.9z" id="el_Rs0oliINksb"/>
		<polygon points="377.6,384.7 360,417.5 382.3,388 		" id="el_XyNq_hJcJkP"/>
	</g>
	<g id="el_i2DuCd_Rn03">
		<polygon points="72.9,287.1 52.1,308.9 98.2,310.5 105.1,305.7 		" id="el_qqUgmNUzKcF"/>
		<polygon points="52.1,327.3 98.2,317.4 98.2,310.5 52.1,308.9 		" id="el_W6O0oLUNDY0"/>
	</g>
	<g id="el_heDOMq6rLlq">
		<path d="M162.6,403.3l-4.5-75.2L81.6,316L92,388.3C92,388.3,136.7,409,162.6,403.3z" id="el_xPe_Ttx_DJ0"/>
		<path d="M138.1,296.4L81.6,316l76.5,12.1l48.5-25.7C206.6,302.4,164.7,293.9,138.1,296.4z" id="el_XY3rv9DVfPT"/>
		<polygon points="162.6,403.3 194.7,378.7 206.6,302.4 158,328.1 		" id="el_KEZC-4-rLak"/>
	</g>
	<g id="el_TjszHYCpZwT">
		<path d="M175.5,329.6l97.4,25.3l27.9-16.5c0,0-81.4-45.2-88.3-39.1C205.5,305.5,175.5,329.6,175.5,329.6z" id="el_uSo4i2gijho"/>
		<path d="M160.5,405.1c0,0,95.3,12.3,99.2,11.1l13.3-61.3l-97.4-25.3L160.5,405.1z" id="el_CvnInjpKF7p"/>
		<polygon points="300.8,338.4 259.6,416.2 272.9,354.9 		" id="el_yktn63p8dDq"/>
	</g>
	<g id="el_dRkxgxj4kDh">
		<polygon points="435,320.4 484.2,315.5 484.3,401.8 424.5,385.1 		" id="el_9mLB4DVWn97"/>
		<polygon points="457.1,314.5 435,320.4 484.2,315.5 515,308.1 		" id="el_acEs7REHYq_"/>
		<path d="M484.3,401.8c0,0,24-13.6,36.2-41.3l-2.6-53.4l-33.8,8.4L484.3,401.8z" id="el_XFdVY8Ric2m"/>
	</g>
	<polygon points="436.8,347 453,347 391.7,390.7 386.2,381.5 426.8,347 	" id="el_5hbFH51iiYV"/>
	<path d="M391.7,391.7l61.3-43.6l30.6,48.8c2.4,4.1-57,24.1-71.1,16.8L391.7,391.7z" id="el_aZfIineNtR4"/>
	<g id="el_bAiqNEBs3xG">
		<polygon points="317.1,344.6 387.9,393 402.9,381.5 338.8,320.8 		" id="el_-0KZ3Qfrz-h"/>
		<polygon points="393,280.7 449.2,334.9 402.9,381.5 338.8,320.8 		" id="el_nwrwGaT5LAp"/>
	</g>
	<path d="M90.7,311.8c5.6-3.5,11.7-6.1,17.8-8.2l2.3-0.8c0.8-0.2,1.6-0.5,2.3-0.7l4.7-1.3c3.1-0.8,6.3-1.5,9.5-2.2
		l9.6-1.6l9.6-1.1c1.6-0.2,3.2-0.3,4.8-0.4l4.8-0.3l4.8-0.2l4.8,0c3.2,0,6.5,0,9.7,0.1l9.7,0.6c1.6,0.1,3.2,0.2,4.8,0.3l4.8,0.6
		l9.6,1.2c1.6,0.2,3.2,0.5,4.8,0.8l4.8,0.8l9.6,1.7l19,4.4l0.1,0l0.2,0.1c7.9,3.1,15.7,6.4,23.4,9.8c7.7,3.5,15.4,7.1,23,10.9
		c7.6,3.7,15.2,7.6,22.7,11.7c7.5,4.1,14.9,8.3,22.3,12.7c14.6,8.9,29,18.4,42.7,28.9c1.7,1.3,3.4,2.7,5.1,4c1.7,1.4,3.4,2.7,5,4.1
		l5,4.2l4.9,4.4c1.6,1.4,3.2,3,4.8,4.5l2.4,2.3l2.3,2.4c2.7,2.9,3.4,3.4,4.5,4.8l4.4,4.9c-12.5-12.1-26.1-22.8-40.1-32.5
		c-7-4.9-14.2-9.5-21.4-14c-7.2-4.5-14.5-8.8-21.9-12.9c-14.7-8.4-29.8-16-44.9-23.4c-7.6-3.7-15.2-7.2-22.9-10.6
		c-7.7-3.4-15.4-6.8-23.1-9.9l0.3,0.1l-18.7-4.5l-9.4-1.9l-4.7-0.9c-1.6-0.3-3.1-0.7-4.7-0.9l-9.5-1.4l-4.7-0.7
		c-1.6-0.2-3.2-0.3-4.8-0.5l-9.5-0.9c-3.2-0.2-6.4-0.3-9.5-0.5l-4.8-0.2l-4.8,0l-4.8,0c-1.6,0-3.2,0-4.8,0.1l-9.5,0.6l-9.5,1
		c-3.1,0.5-6.3,1-9.5,1.6l-4.7,1c-0.8,0.2-1.6,0.3-2.4,0.5l-2.3,0.6C102.7,306.9,96.6,308.9,90.7,311.8z" id="el_Y8q0CjYlYn_"/>
</g>
<g id="el_aVsC-L6gkGS">
	<path d="M70.9,174l459.5,4.5c0,0,18.8,69.2-76.2,121c0,0-63,51.8-229.8,28C224.4,327.5,79.1,336.9,70.9,174z" id="el_qfas51RnC-O"/>
	<path d="M117.8,290.4c0,0,301.5,26.3,331.6-7.9c0,0,85-56.6,77.1-104.1c0,0,43.1-0.2,5.7,72.2
		c0,0-52.8,74.6-199.8,87.8C332.3,338.3,171.1,342.4,117.8,290.4z" id="el_Dua-HP6LDJx"/>
	
		<ellipse cx="307.8" cy="182.8" rx="53.6" ry="236.9" id="el_WtxjSTrKVeL"/>
	<g id="el_m5xody7nooT">
		<path d="M91.2,188.3l12.1,0.4l12.1,0.5l24.3,1c16.2,0.7,32.4,1.5,48.5,2.3c16.2,0.8,32.4,1.7,48.5,2.5l48.5,2.8
			l48.5,3c16.2,1.1,32.3,2.1,48.5,3.2c16.2,1.1,32.3,2.3,48.5,3.5l24.2,1.9l12.1,0.9l12.1,1l-12.1-0.4l-12.1-0.5l-24.3-1
			c-16.2-0.7-32.4-1.5-48.5-2.3c-16.2-0.8-32.4-1.7-48.5-2.5l-48.5-2.8l-48.5-3c-16.2-1.1-32.3-2.1-48.5-3.2
			c-16.2-1.1-32.3-2.3-48.5-3.5l-24.2-1.9l-12.1-0.9L91.2,188.3z" id="el_FAIxBdUBFKj"/>
	</g>
	<g id="el_kxZ68YhN7WR">
		<path d="M109,157.8l12.1,0.4l12.1,0.5l24.3,1c16.2,0.7,32.4,1.5,48.5,2.3c16.2,0.8,32.4,1.7,48.5,2.5l48.5,2.8
			l48.5,3c16.2,1.1,32.3,2.1,48.5,3.2c16.2,1.1,32.3,2.3,48.5,3.5l24.2,1.9l12.1,0.9l12.1,1l-12.1-0.4l-12.1-0.5l-24.3-1
			c-16.2-0.7-32.4-1.5-48.5-2.3c-16.2-0.8-32.4-1.7-48.5-2.5l-48.5-2.8l-48.5-3c-16.2-1.1-32.3-2.1-48.5-3.2
			c-16.2-1.1-32.3-2.3-48.5-3.5l-24.2-1.9l-12.1-0.9L109,157.8z" id="el_dAxSIVaGWww"/>
	</g>
	<g id="el_nEUzT3xcdH4">
		<path d="M178.8,138.8c12.1,0.5,24.1,1.2,36.2,1.8c12.1,0.7,24.1,1.4,36.2,2.2c12.1,0.7,24.1,1.6,36.2,2.4l36.2,2.6
			l36.2,2.7c12,1,24.1,1.9,36.1,2.9c12,1,24.1,2.1,36.1,3.1c12,1.2,24.1,2.2,36.1,3.5c-12.1-0.5-24.1-1.2-36.2-1.8
			c-12.1-0.7-24.1-1.4-36.2-2.2c-12.1-0.7-24.1-1.6-36.2-2.4l-36.2-2.6l-36.2-2.7c-12-1-24.1-1.9-36.1-2.9c-12-1-24.1-2.1-36.1-3.1
			C202.8,141.1,190.8,140,178.8,138.8z" id="el_uuK8nDYvXeP"/>
	</g>
	<g id="el_PQgvGrD9dOl">
		<path d="M243.2,134.1c-9.6,5.8-19.4,11.6-29.1,17.2c-9.8,5.6-19.6,11.1-29.4,16.6c-9.9,5.5-19.7,10.9-29.7,16.2
			c-9.9,5.3-19.9,10.6-30,15.7c9.6-5.8,19.4-11.6,29.1-17.2c9.8-5.6,19.6-11.1,29.4-16.6c9.9-5.5,19.7-10.9,29.7-16.2
			C223.1,144.5,233.1,139.2,243.2,134.1z" id="el_ZQaz-fvDVBN"/>
	</g>
	<g id="el_1Lgcm81kUCD">
		<path d="M316.7,135.4c-5.4,3.4-10.9,6.7-16.3,10.1l-16.4,9.8c-10.9,6.6-22,13-33,19.4c-11.1,6.4-22.1,12.7-33.3,18.9
			l-16.7,9.3c-5.6,3-11.2,6.1-16.9,9.1c5.4-3.4,10.9-6.7,16.3-10.1l16.4-9.8c10.9-6.6,22-13,33-19.4c11.1-6.3,22.1-12.7,33.3-18.9
			l16.7-9.3C305.4,141.5,311,138.4,316.7,135.4z" id="el_8-MWOfX4yQT"/>
	</g>
	<g id="el_6zRG-qlH-Zd">
		<path d="M393.2,142.8c-10.3,6.6-20.6,13-31,19.3c-10.4,6.3-20.8,12.6-31.3,18.8c-10.5,6.2-21,12.3-31.5,18.4
			c-10.5,6.1-21.2,12-31.8,17.9c10.3-6.6,20.6-13,31-19.3c10.4-6.3,20.8-12.6,31.3-18.8c10.5-6.2,21-12.3,31.5-18.4
			C371.9,154.6,382.6,148.7,393.2,142.8z" id="el_iLt-W45ZFeu"/>
	</g>
	<g id="el_6tKEOQKqX21">
		<path d="M468.1,147.3c-5.5,3.5-11.1,6.8-16.6,10.3l-16.8,10c-11.2,6.7-22.5,13.2-33.7,19.7
			c-11.3,6.5-22.6,12.9-34,19.3l-17.1,9.5c-5.7,3.1-11.4,6.2-17.2,9.2c5.5-3.5,11.1-6.8,16.6-10.3l16.8-10
			c11.2-6.7,22.5-13.2,33.7-19.7c11.3-6.5,22.6-12.9,34-19.2l17.1-9.5C456.6,153.4,462.3,150.3,468.1,147.3z" id="el_oqpyk3KApXK"/>
	</g>
</g>
<g id="el_rqMI8Fs6arD_an_i23u4Byr0" data-animator-group="true" data-animator-type="0"><g id="el_rqMI8Fs6arD_an_hGlvjbm-h" data-animator-group="true" data-animator-type="1"><g id="el_rqMI8Fs6arD_an_Vt4JOqs1q" data-animator-group="true" data-animator-type="2"><path id="el_rqMI8Fs6arD" d="M129.4,378.2c-10.7-1.6-21.1-3.1-31.8-4.6c17.7-22.4,35.2-44.6,52.9-67
	c10.5,26.5,21,52.8,31.6,79.3c-10.9-1.6-21.7-3.2-32.5-4.7c-0.4,2.1-0.7,4.1-1.2,6.1c-2.8,13.3-8.7,25.2-17,36
	c-8.5,11.1-18.9,20.2-30.4,28.1c-14.5,10-30.2,17.7-46.7,24c-8.3,3.1-16.7,5.9-25.3,8.1c-0.3,0.1-0.6,0.1-1,0.2
	c-1.5-6.6-3.1-13.2-4.6-19.8c2.7-0.8,5.3-1.5,7.8-2.2c19.1-5.9,37.3-13.6,54.2-24.4c10.1-6.4,19.3-13.9,27.1-23.1
	c7.3-8.6,12.8-18.3,15.5-29.3C128.6,382.5,129,380.4,129.4,378.2z"/></g></g></g>
<g id="el_gBuaztUGEv5_an_ZdzOSBt0G" data-animator-group="true" data-animator-type="0"><g id="el_gBuaztUGEv5_an_7RDIMAF77" data-animator-group="true" data-animator-type="1"><g id="el_gBuaztUGEv5_an_zOmsBhgfv" data-animator-group="true" data-animator-type="2"><path id="el_gBuaztUGEv5" d="M426.5,378.2c10.7-1.6,21.1-3.1,31.8-4.6c-17.7-22.4-35.2-44.6-52.9-67
	c-10.5,26.5-21,52.8-31.6,79.3c10.9-1.6,21.7-3.2,32.5-4.7c0.4,2.1,0.7,4.1,1.2,6.1c2.8,13.3,8.7,25.2,17,36
	c8.5,11.1,18.9,20.2,30.4,28.1c14.5,10,30.2,17.7,46.7,24c8.3,3.1,16.7,5.9,25.3,8.1c0.3,0.1,0.6,0.1,1,0.2
	c1.5-6.6,3.1-13.2,4.6-19.8c-2.7-0.8-5.3-1.5-7.8-2.2c-19.1-5.9-37.3-13.6-54.2-24.4c-10.1-6.4-19.3-13.9-27.1-23.1
	c-7.3-8.6-12.8-18.3-15.5-29.3C427.3,382.5,426.9,380.4,426.5,378.2z"/></g></g></g>
</svg>