<svg version="1.1" id="el_vpLfyA7uj" xmlns="http://www.w3.org/2000/svg" xmlns:xlink="http://www.w3.org/1999/xlink" x="0px" y="0px" viewBox="0 0 576 576" style="enable-background:new 0 0 576 576;" xml:space="preserve"><style>@-webkit-keyframes kf_el_arPwx6im6w7_an_-scmBZAD3{0%{-webkit-transform: translate(132.86077880859375px, 30.29071044921875px) translate(-132.86077880859375px, -30.29071044921875px) translate(0px, 0px);transform: translate(132.86077880859375px, 30.29071044921875px) translate(-132.86077880859375px, -30.29071044921875px) translate(0px, 0px);}63.49%{-webkit-transform: translate(132.86077880859375px, 30.29071044921875px) translate(-132.86077880859375px, -30.29071044921875px) translate(50px, 70px);transform: translate(132.86077880859375px, 30.29071044921875px) translate(-132.86077880859375px, -30.29071044921875px) translate(50px, 70px);}100%{-webkit-transform: translate(132.86077880859375px, 30.29071044921875px) translate(-132.86077880859375px, -30.29071044921875px) translate(50px, 70px);transform: translate(132.86077880859375px, 30.29071044921875px) translate(-132.86077880859375px, -30.29071044921875px) translate(50px, 70px);}}@keyframes kf_el_arPwx6im6w7_an_-scmBZAD3{0%{-webkit-transform: translate(132.86077880859375px, 30.29071044921875px) translate(-132.86077880859375px, -30.29071044921875px) translate(0px, 0px);transform: translate(132.86077880859375px, 30.29071044921875px) translate(-132.86077880859375px, -30.29071044921875px) translate(0px, 0px);}63.49%{-webkit-transform: translate(132.86077880859375px, 30.29071044921875px) translate(-132.86077880859375px, -30.29071044921875px) translate(50px, 70px);transform: translate(132.86077880859375px, 30.29071044921875px) translate(-132.86077880859375px, -30.29071044921875px) translate(50px, 70px);}100%{-webkit-transform: translate(132.86077880859375px, 30.29071044921875px) translate(-132.86077880859375px, -30.29071044921875px) translate(50px, 70px);transform: translate(132.86077880859375px, 30.29071044921875px) translate(-132.86077880859375px, -30.29071044921875px) translate(50px, 70px);}}#el_vpLfyA7uj *{-webkit-animation-duration: 2.1s;animation-duration: 2.1s;-webkit-animation-iteration-count: infinite;animation-iteration-count: infinite;-webkit-animation-timing-function: cubic-bezier(0, 0, 1, 1);animation-timing-function: cubic-bezier(0, 0, 1, 1);}#el_IKcKu1AnKJ{fill: #DBF4D7;}#el_WyzGpOOjBl{fill: #215A2D;}#el_TfTqsth72v{fill: #DBF4D7;}#el__iuYQqWVIn{fill: #DBF4D7;}#el_cYK7GHUk3I{fill: #DBF4D7;}#el_yLm5qDDhIn{fill: #DBF4D7;}#el_xvA6cwwsNv{fill: #DBF4D7;}#el_LUX9V_WhL0{fill: #E02214;}#el_x1Wj4HSLug{fill: #DB1C03;}#el_X9vzH_SvLe{fill: #E56C5C;}#el_-G1Y1C7-6k{fill: #E05B41;}#el_chJnaKdp4j{fill: #E05B41;}#el_ZraF-AAmQY{fill: #E05B41;}#el_Vr2GCTvrfC{fill: #E05B41;}#el_KldxQ3Euoo1{fill: #E56C5C;}#el_6Rj4nvCQxyz{fill: #E05B41;}#el_khCngFqdhCg{fill: #E56C5C;}#el_b2px09RWt73{fill: #E05B41;}#el_NakqutEEDh0{fill: #E56C5C;}#el_Vcp0zi59WY8{fill: #E05B41;}#el_RHW0QrifWZq{fill: #374757;}#el_dgCX01L5nUO{fill: #E2D2DD;}#el_U4Z0TUrQf6s{fill: #C1B4BE;}#el_cEhfaJKwmSl{fill: #E2D2DD;}#el_SB9msJdN_ko{fill: #C1B4BE;}#el_yts6wGxy3gs{fill: #E56C5C;}#el_ETSAeCby9Iw{fill: #E05B41;}#el_bJkc3-q_O-l{fill: #E05B41;}#el_LdMqW5lyhaM{fill: #E05B41;}#el_arPwx6im6w7_an_-scmBZAD3{-webkit-animation-fill-mode: backwards;animation-fill-mode: backwards;-webkit-transform: translate(132.86077880859375px, 30.29071044921875px) translate(-132.86077880859375px, -30.29071044921875px) translate(0px, 0px);transform: translate(132.86077880859375px, 30.29071044921875px) translate(-132.86077880859375px, -30.29071044921875px) translate(0px, 0px);-webkit-animation-name: kf_el_arPwx6im6w7_an_-scmBZAD3;animation-name: kf_el_arPwx6im6w7_an_-scmBZAD3;-webkit-animation-timing-function: cubic-bezier(0, 0, 1, 1);animation-timing-function: cubic-bezier(0, 0, 1, 1);}</style>

<path d="M282.4,467.5c-125.3,0-227.1-89.2-227.1-198.9v-1.5l482.3-31.4l0.5,2.6c8,43.4-5.3,87.4-38.6,127.4&#10;&#9;C449.6,425.6,360.3,467.5,282.4,467.5z" id="el_IKcKu1AnKJ"/>
<path d="M282.4,470.7c-125.3,0-227.1-90.5-227.1-201.6v-1.5l482.3-31.8l0.5,2.7c8,44-5.3,88.6-38.6,129.1&#10;&#9;C449.6,428.2,360.3,470.7,282.4,470.7z" id="el_WyzGpOOjBl"/>
<path d="M536.3,237.4c0.1,0.4,0.2,0.9,0.3,1.3c22.5,121.7-130,227.2-254.1,227.2c-124.6,0-225.5-88.3-225.5-197.3&#10;&#9;l2.2-0.1l4-0.3l471.5-30.7L536.3,237.4z" id="el_TfTqsth72v"/>
<path d="M56,267.2c46.2-31.4,223-37.8,281.1-39.9c8.4-0.3,14-0.5,16.1-0.7c17.1-1.4,34.9-2.1,53.1-2.1&#10;&#9;c72.1,0,128.1,11.2,128.6,11.3l-0.2,3.2L56.9,270.5L56,267.2z" id="el__iuYQqWVIn"/>
<path d="M353.3,228.3c-16.4,1.3-243.7,4.5-296.4,40.3l477.7-31.1C534.5,237.5,450.4,220.3,353.3,228.3z" id="el_cYK7GHUk3I"/>
<path d="M56,267.2c46.2-31.4,223-37.8,281.1-39.9c8.4-0.3,14-0.5,16.1-0.7c17.1-1.4,34.9-2.1,53.1-2.1&#10;&#9;c72.1,0,128.1,11.2,128.6,11.3l-0.2,3.2L56,267.8L56,267.2z" id="el_yLm5qDDhIn"/>
<path d="M353.3,228.3c-16.4,1.3-243.7,4.5-296.4,40.3l477.7-31.1C534.5,237.5,450.4,220.3,353.3,228.3z" id="el_xvA6cwwsNv"/>
<g id="el_W2m8ls8hjI">
	<path d="M278.7,451.7c-53.1,0-104.8-20-145.5-56.2c-38.9-34.6-63.7-81.2-68.1-127.7l-0.2-1.7l461.8-20.2l0,0&#10;&#9;&#9;c3.1,42.6-19.7,83.7-40.1,108.3C438.8,411.6,353.3,451.7,278.7,451.7z" id="el_LUX9V_WhL0"/>
	<path d="M65,267c46.4-31.5,226-34.9,284.3-36.4c9.7-0.3,16.1-0.4,18.4-0.6c18.1-1.5,34.8,0,52.2,0&#10;&#9;&#9;c65.1,0,106.5,15.8,106.8,15.9l0.1,1.6L69.3,266L65,267z" id="el_x1Wj4HSLug"/>
</g>
<path d="M139.1,328.7l0,0.6c0.3-0.2,0.7-0.4,1-0.6L139.1,328.7z" id="el_X9vzH_SvLe"/>
<polygon points="139.1,329.3 139.1,329.3 139.1,329.3 " id="el_-G1Y1C7-6k"/>
<path d="M139.9,260l0.3-0.3L75.6,262c-0.5,0.3-1,0.6-1.5,0.9l0,0l4.2-0.9L139.9,260z" id="el_chJnaKdp4j"/>
<polygon points="183.3,258.2 183,258.5 221.4,257.2 221.7,256.8 " id="el_ZraF-AAmQY"/>
<polygon points="140.2,259.7 139.9,260 183,258.5 183.3,258.2 " id="el_Vr2GCTvrfC"/>
<path d="M122.1,300.9c-0.1,0-0.2,0-0.3,0c-0.3,1.1-1.4,5.1-3.4,8.1C120.9,305.6,122.1,300.9,122.1,300.9z" id="el_7f8EWBH2-6L"/>
<path d="M113.5,303.7c-3.5,1.7-6.5,3.9-5.3,6.2C107.3,307.7,110.1,305.4,113.5,303.7z" id="el_F6dfs13nqbd"/>
<path d="M121.9,300.6c-1.4,0.2-5.2,1.4-8.4,3.1c3.1-1.5,6.7-2.5,8.3-2.8C121.9,300.7,121.9,300.6,121.9,300.6z" id="el_vZacS7cFFSQ"/>
<path d="M110,311.6c-0.9-0.6-1.5-1.2-1.8-1.8c0.3,0.7,0.9,1.3,2,2c3.6,2.1,6.3,0.1,8.2-2.8C116.4,311.9,113.6,313.9,110,311.6z" id="el_SU43o9qkmfv"/>
<g id="el_GnxFsy0KFiE">
	<path d="M139.9,260l-61.6,2.1l-4.2,0.9l0.1,0.8c3,45.9,26.1,92.5,63.4,127.7c0,0,0.1,0.1,0.1,0.1L139.9,260L139.9,260z&#10;&#9;&#9; M110.2,311.8c-1.1-0.6-1.7-1.3-2-2c-1.2-2.3,1.8-4.5,5.3-6.2c3.2-1.6,7-2.8,8.4-3.1c0,0,0,0.1-0.1,0.3c0.1,0,0.2,0,0.3,0&#10;&#9;&#9;c0,0-1.3,4.7-3.7,8.1C116.5,311.9,113.8,313.9,110.2,311.8z M120.7,341.7c-8-4.7,8.3-10.6,11.7-11.2&#10;&#9;&#9;C132.4,330.5,128.7,346.4,120.7,341.7z" id="el_KldxQ3Euoo1"/>
	<path d="M161.5,240.6c-37,4.6-69,11.5-85.9,21.4l64.6-2.3L161.5,240.6z" id="el_6Rj4nvCQxyz"/>
	<path d="M110,311.6c3.6,2.3,6.4,0.3,8.4-2.6c2-3,3.1-7,3.4-8.1c-1.6,0.3-5.2,1.3-8.3,2.8c-3.4,1.7-6.3,4-5.3,6.2&#10;&#9;&#9;C108.5,310.5,109.1,311.1,110,311.6z" id="el_a--ybPFiNhh"/>
	<path d="M120.7,341.7c8,4.7,11.7-11.2,11.7-11.2C129,331,112.7,336.9,120.7,341.7z" id="el_uo833p34-xT"/>
</g>
<g id="el_50kJm5VP19x">
	<path d="M184.4,258.5l-43,1.5l0,0l-2.3,131.5c13.5,12.8,28.5,23.7,44.3,32.5V259.7L184.4,258.5z M168.5,337.7&#10;&#9;&#9;c0,0-3.7,15.9-11.7,11.2C148.7,344.1,165.1,338.2,168.5,337.7z M160.9,377c-8-4.7,8.3-10.6,11.7-11.2&#10;&#9;&#9;C172.6,365.8,168.9,381.7,160.9,377z" id="el_khCngFqdhCg"/>
	<path d="M184.8,258.2l20.4-21.9c-14.4,1.2-28.6,2.6-42.1,4.3l-21.3,19.1L184.8,258.2z" id="el_b2px09RWt73"/>
	<path d="M168.5,337.7c-3.4,0.6-19.7,6.4-11.7,11.2C164.8,353.6,168.5,337.7,168.5,337.7z" id="el_eKCVNp94up4"/>
	<path d="M160.9,377c8,4.7,11.7-11.2,11.7-11.2C169.2,366.3,152.8,372.2,160.9,377z" id="el_zgtLv9CDvys"/>
</g>
<g id="el_WOBqcNaN3aE">
	<path d="M225.8,257.2l-38.4,1.3l-1,1.1V424c12.5,6.9,25.5,12.6,39,16.9V257.8L225.8,257.2z M195.6,392.6&#10;&#9;&#9;c-8.8-3.1,6.1-12,9.4-13.2C204.9,379.4,204.4,395.7,195.6,392.6z M214.3,413.2c-8.8-3.1,6.1-12,9.4-13.2&#10;&#9;&#9;C223.6,400,223.1,416.4,214.3,413.2z" id="el_NakqutEEDh0"/>
	<path d="M226.1,256.8l19-23c-12.3,0.7-24.7,1.5-37,2.5l-20.4,21.9L226.1,256.8z" id="el_Vcp0zi59WY8"/>
	<path d="M195.6,392.6c8.8,3.1,9.4-13.2,9.4-13.2C201.7,380.6,186.8,389.5,195.6,392.6z" id="el_IIKLo7wf7TT"/>
	<path d="M214.3,413.2c8.8,3.1,9.4-13.2,9.4-13.2C220.4,401.2,205.5,410.1,214.3,413.2z" id="el_c1bvQTIHkUN"/>
</g>
<g id="el_arPwx6im6w7_an_-scmBZAD3" data-animator-group="true" data-animator-type="0"><g id="el_arPwx6im6w7">
	<path d="M214.8,205.8L319.1,35.4c0,0,32.4-18.2,37.4,14.1s-16.9,27.7-16.9,27.7s-16.2,9.8-22.3,24.4&#10;&#9;&#9;s-16.9,37.2-22.9,44.5c-6,7.3-34.5,38.5-37.7,44.8C253.6,197.4,214.8,205.8,214.8,205.8z" id="el_RHW0QrifWZq"/>
	<path d="M220.6,284.9L293,176.1c0,0-10.6-18.8-19.9-32c-5.8-8.2-11-14.3-12.8-12.4c-4.8,5-86.3,131.3-85.9,140.3&#10;&#9;&#9;L220.6,284.9z" id="el_dgCX01L5nUO"/>
	<path d="M260.3,131.7l4,1.5l-85.7,140l-6.4-2.5C172.2,270.7,247.2,140.8,260.3,131.7z" id="el_U4Z0TUrQf6s"/>
	<path d="M178.7,273.2c0,0-44.5,77.9-45.7,98.6c0,0,41.6-32.3,48-38.3c6.4-5.9,39.7-48.6,39.7-48.6" id="el_cEhfaJKwmSl"/>
	<path d="M132.9,371.8c0,0,10.4-51.9,39.3-101.1l7,1.6C179.2,272.3,131.3,363.2,132.9,371.8z" id="el_SB9msJdN_ko"/>
</g></g>
<g id="el_khI9LbYsCVh">
	<path d="M534.3,246.4l0-0.6l-305.4,9.7l-0.5,0.5L228,439.2c18.8,6.1,38.3,9.5,58.2,10.2&#10;&#9;&#9;c73.4,2.3,158.8-34.5,207.6-89.6C514.8,336.2,536.1,288.4,534.3,246.4z M248.5,408.7c-9.1,2-1.2-13.4,0.9-16.2&#10;&#9;&#9;C249.4,392.6,257.6,406.7,248.5,408.7z M275,427.4c-9.1,2-1.2-13.4,0.9-16.2C275.9,411.2,284.1,425.3,275,427.4z M311.4,415.5&#10;&#9;&#9;c-9.1,2-1.2-13.4,0.9-16.2C312.3,399.4,320.5,413.5,311.4,415.5z M347.7,411.9c-9.1-2.2-0.7-16.2-0.7-16.2&#10;&#9;&#9;C349.1,398.5,356.8,414,347.7,411.9z M370.2,388.6c-9.1-2.2-0.7-16.2-0.7-16.2C371.6,375.2,379.3,390.8,370.2,388.6z M401.7,391.8&#10;&#9;&#9;c-8.8,3-9.2-13.3-9.2-13.3C395.7,379.7,410.5,388.8,401.7,391.8z M420.6,371.4c-8.8,3-9.2-13.3-9.2-13.3&#10;&#9;&#9;C414.6,359.3,429.5,368.4,420.6,371.4z M452.6,356.1c-8.1,4.6-11.6-11.3-11.6-11.3C444.4,345.4,460.7,351.5,452.6,356.1z M457,328&#10;&#9;&#9;c-8.1,4.6-11.6-11.3-11.6-11.3C448.8,317.3,465.1,323.4,457,328z M491.7,321.3c-8.1,4.6-11.6-11.3-11.6-11.3&#10;&#9;&#9;C483.5,310.6,499.8,316.7,491.7,321.3z M502.6,291.6c-3.6,2.1-6.3,0-8.2-2.9c-2.4-3.5-3.6-8.2-3.6-8.2c0.1,0,0.2,0,0.3,0&#10;&#9;&#9;c0-0.2-0.1-0.3-0.1-0.3c1.4,0.3,5.1,1.5,8.4,3.2c3.5,1.7,6.4,4,5.2,6.2C504.3,290.3,503.7,291,502.6,291.6z" id="el_yts6wGxy3gs"/>
	<path d="M534.3,244.8c-0.4-0.1-36.5-13.9-100.6-15.9c-17.1-0.5-34.8-0.4-52.7,0.5c-2.3,0.1-8.6,0.1-18.1,0&#10;&#9;&#9;c-23.7-0.1-67.7,0.2-114.6,2.6l-19,22.9L534.3,244.8z" id="el_ETSAeCby9Iw"/>
	<polygon points="534.3,245.8 534.3,244.8 534.3,245.8 &#9;" id="el_bJkc3-q_O-l"/>
	<polygon points="228.9,255.5 534.3,245.8 534.3,244.8 229.3,255.1 &#9;" id="el_LdMqW5lyhaM"/>
	<path d="M248.5,408.7c9.1-2,0.9-16.2,0.9-16.2C247.3,395.3,239.4,410.8,248.5,408.7z" id="el_lyFzHidfIoS"/>
	<path d="M275,427.4c9.1-2,0.9-16.2,0.9-16.2C273.8,413.9,265.9,429.4,275,427.4z" id="el_GEiQj0GsfqU"/>
	<path d="M490.8,280.5c0,0,1.2,4.7,3.6,8.2c-2-3.1-3-7.1-3.3-8.1C491,280.6,490.9,280.5,490.8,280.5z" id="el_C4N49_a-L0e"/>
	<path d="M499.4,283.4c3.4,1.8,6.2,4,5.2,6.2C505.8,287.4,502.9,285.1,499.4,283.4z" id="el_ZaHJtlnxP5R"/>
	<path d="M502.7,291.4c-3.6,2.2-6.4,0.2-8.4-2.7c1.9,2.9,4.6,5,8.2,2.9c1.1-0.6,1.7-1.3,2-1.9C504.3,290.3,503.7,290.8,502.7,291.4z&#10;&#9;&#9;" id="el_dECDz1IetcI"/>
	<path d="M491,280.3c0,0,0,0.1,0.1,0.3c1.6,0.3,5.2,1.4,8.3,2.9C496.1,281.8,492.4,280.5,491,280.3z" id="el_LC0VaRSnCP4"/>
	<path d="M499.4,283.4c-3.1-1.5-6.7-2.6-8.3-2.9c0.3,1.1,1.3,5.1,3.3,8.1c2,2.9,4.8,4.9,8.4,2.7c0.9-0.6,1.5-1.2,1.8-1.8&#10;&#9;&#9;C505.6,287.5,502.7,285.2,499.4,283.4z" id="el_6dp4rHQt9Lz"/>
	<path d="M480.2,310c0,0,3.5,16,11.6,11.3C499.8,316.7,483.5,310.6,480.2,310z" id="el_6GinhIaheyZ"/>
	<path d="M445.4,316.7c0,0,3.5,16,11.6,11.3C465.1,323.4,448.8,317.3,445.4,316.7z" id="el_HraeMKc917X"/>
	<path d="M441,344.8c0,0,3.5,16,11.6,11.3C460.7,351.5,444.4,345.4,441,344.8z" id="el_pnX5uC7w-CR"/>
	<path d="M411.4,358.1c0,0,0.4,16.3,9.2,13.3C429.5,368.4,414.6,359.3,411.4,358.1z" id="el_3hKyQxtcgA9"/>
	<path d="M392.5,378.5c0,0,0.4,16.3,9.2,13.3C410.5,388.8,395.7,379.7,392.5,378.5z" id="el_S2WHuyfd5gj"/>
	<path d="M370.2,388.6c9.1,2.2,1.4-13.4-0.7-16.2C369.6,372.4,361.2,386.4,370.2,388.6z" id="el_ba0IE-mKwvr"/>
	<path d="M347.7,411.9c9.1,2.2,1.4-13.4-0.7-16.2C347,395.7,338.6,409.7,347.7,411.9z" id="el_or0Umzms9t1"/>
	<path d="M311.4,415.5c9.1-2,0.9-16.2,0.9-16.2C310.2,402.1,302.3,417.6,311.4,415.5z" id="el_kK6sinkYCIn"/>
</g>
</svg>