<svg version="1.1" id="el_vZTExHL3U" xmlns="http://www.w3.org/2000/svg" xmlns:xlink="http://www.w3.org/1999/xlink" x="0px" y="0px" viewBox="0 0 576 576" style="enable-background:new 0 0 576 576;" xml:space="preserve"><style>@-webkit-keyframes kf_el_psgSieK4qtd_an_s1ysRbCjL{21.11%{-webkit-transform: translate(164.4595947265625px, 309.79998779296875px) rotate(0deg) translate(-164.4595947265625px, -309.79998779296875px);transform: translate(164.4595947265625px, 309.79998779296875px) rotate(0deg) translate(-164.4595947265625px, -309.79998779296875px);}0%{-webkit-transform: translate(164.4595947265625px, 309.79998779296875px) rotate(0deg) translate(-164.4595947265625px, -309.79998779296875px);transform: translate(164.4595947265625px, 309.79998779296875px) rotate(0deg) translate(-164.4595947265625px, -309.79998779296875px);}100%{-webkit-transform: translate(164.4595947265625px, 309.79998779296875px) rotate(0deg) translate(-164.4595947265625px, -309.79998779296875px);transform: translate(164.4595947265625px, 309.79998779296875px) rotate(0deg) translate(-164.4595947265625px, -309.79998779296875px);}}@keyframes kf_el_psgSieK4qtd_an_s1ysRbCjL{21.11%{-webkit-transform: translate(164.4595947265625px, 309.79998779296875px) rotate(0deg) translate(-164.4595947265625px, -309.79998779296875px);transform: translate(164.4595947265625px, 309.79998779296875px) rotate(0deg) translate(-164.4595947265625px, -309.79998779296875px);}0%{-webkit-transform: translate(164.4595947265625px, 309.79998779296875px) rotate(0deg) translate(-164.4595947265625px, -309.79998779296875px);transform: translate(164.4595947265625px, 309.79998779296875px) rotate(0deg) translate(-164.4595947265625px, -309.79998779296875px);}100%{-webkit-transform: translate(164.4595947265625px, 309.79998779296875px) rotate(0deg) translate(-164.4595947265625px, -309.79998779296875px);transform: translate(164.4595947265625px, 309.79998779296875px) rotate(0deg) translate(-164.4595947265625px, -309.79998779296875px);}}@-webkit-keyframes kf_el_psgSieK4qtd_an_SfhKw9NSV{21.11%{-webkit-transform: translate(164.4595947265625px, 309.79998779296875px) translate(-164.4595947265625px, -309.79998779296875px) translate(0px, 0px);transform: translate(164.4595947265625px, 309.79998779296875px) translate(-164.4595947265625px, -309.79998779296875px) translate(0px, 0px);}47.78%{-webkit-transform: translate(164.4595947265625px, 309.79998779296875px) translate(-164.4595947265625px, -309.79998779296875px) translate(0px, 300px);transform: translate(164.4595947265625px, 309.79998779296875px) translate(-164.4595947265625px, -309.79998779296875px) translate(0px, 300px);}0%{-webkit-transform: translate(164.4595947265625px, 309.79998779296875px) translate(-164.4595947265625px, -309.79998779296875px) translate(0px, 0px);transform: translate(164.4595947265625px, 309.79998779296875px) translate(-164.4595947265625px, -309.79998779296875px) translate(0px, 0px);}100%{-webkit-transform: translate(164.4595947265625px, 309.79998779296875px) translate(-164.4595947265625px, -309.79998779296875px) translate(0px, 300px);transform: translate(164.4595947265625px, 309.79998779296875px) translate(-164.4595947265625px, -309.79998779296875px) translate(0px, 300px);}}@keyframes kf_el_psgSieK4qtd_an_SfhKw9NSV{21.11%{-webkit-transform: translate(164.4595947265625px, 309.79998779296875px) translate(-164.4595947265625px, -309.79998779296875px) translate(0px, 0px);transform: translate(164.4595947265625px, 309.79998779296875px) translate(-164.4595947265625px, -309.79998779296875px) translate(0px, 0px);}47.78%{-webkit-transform: translate(164.4595947265625px, 309.79998779296875px) translate(-164.4595947265625px, -309.79998779296875px) translate(0px, 300px);transform: translate(164.4595947265625px, 309.79998779296875px) translate(-164.4595947265625px, -309.79998779296875px) translate(0px, 300px);}0%{-webkit-transform: translate(164.4595947265625px, 309.79998779296875px) translate(-164.4595947265625px, -309.79998779296875px) translate(0px, 0px);transform: translate(164.4595947265625px, 309.79998779296875px) translate(-164.4595947265625px, -309.79998779296875px) translate(0px, 0px);}100%{-webkit-transform: translate(164.4595947265625px, 309.79998779296875px) translate(-164.4595947265625px, -309.79998779296875px) translate(0px, 300px);transform: translate(164.4595947265625px, 309.79998779296875px) translate(-164.4595947265625px, -309.79998779296875px) translate(0px, 300px);}}@-webkit-keyframes kf_el_saRCBQ0s8xu_an_NOGdBu7IS{0%{-webkit-transform: translate(8.306999206542969px, 73.48703002929688px) translate(-8.306999206542969px, -73.48703002929688px) translate(0px, 0px);transform: translate(8.306999206542969px, 73.48703002929688px) translate(-8.306999206542969px, -73.48703002929688px) translate(0px, 0px);}4.44%{-webkit-transform: translate(8.306999206542969px, 73.48703002929688px) translate(-8.306999206542969px, -73.48703002929688px) translate(-20px, 56px);transform: translate(8.306999206542969px, 73.48703002929688px) translate(-8.306999206542969px, -73.48703002929688px) translate(-20px, 56px);}18.89%{-webkit-transform: translate(8.306999206542969px, 73.48703002929688px) translate(-8.306999206542969px, -73.48703002929688px) translate(20px, 105px);transform: translate(8.306999206542969px, 73.48703002929688px) translate(-8.306999206542969px, -73.48703002929688px) translate(20px, 105px);}33.33%{-webkit-transform: translate(8.306999206542969px, 73.48703002929688px) translate(-8.306999206542969px, -73.48703002929688px) translate(0px, 158px);transform: translate(8.306999206542969px, 73.48703002929688px) translate(-8.306999206542969px, -73.48703002929688px) translate(0px, 158px);}57.78%{-webkit-transform: translate(8.306999206542969px, 73.48703002929688px) translate(-8.306999206542969px, -73.48703002929688px) translate(0px, 1000px);transform: translate(8.306999206542969px, 73.48703002929688px) translate(-8.306999206542969px, -73.48703002929688px) translate(0px, 1000px);}100%{-webkit-transform: translate(8.306999206542969px, 73.48703002929688px) translate(-8.306999206542969px, -73.48703002929688px) translate(0px, 1000px);transform: translate(8.306999206542969px, 73.48703002929688px) translate(-8.306999206542969px, -73.48703002929688px) translate(0px, 1000px);}}@keyframes kf_el_saRCBQ0s8xu_an_NOGdBu7IS{0%{-webkit-transform: translate(8.306999206542969px, 73.48703002929688px) translate(-8.306999206542969px, -73.48703002929688px) translate(0px, 0px);transform: translate(8.306999206542969px, 73.48703002929688px) translate(-8.306999206542969px, -73.48703002929688px) translate(0px, 0px);}4.44%{-webkit-transform: translate(8.306999206542969px, 73.48703002929688px) translate(-8.306999206542969px, -73.48703002929688px) translate(-20px, 56px);transform: translate(8.306999206542969px, 73.48703002929688px) translate(-8.306999206542969px, -73.48703002929688px) translate(-20px, 56px);}18.89%{-webkit-transform: translate(8.306999206542969px, 73.48703002929688px) translate(-8.306999206542969px, -73.48703002929688px) translate(20px, 105px);transform: translate(8.306999206542969px, 73.48703002929688px) translate(-8.306999206542969px, -73.48703002929688px) translate(20px, 105px);}33.33%{-webkit-transform: translate(8.306999206542969px, 73.48703002929688px) translate(-8.306999206542969px, -73.48703002929688px) translate(0px, 158px);transform: translate(8.306999206542969px, 73.48703002929688px) translate(-8.306999206542969px, -73.48703002929688px) translate(0px, 158px);}57.78%{-webkit-transform: translate(8.306999206542969px, 73.48703002929688px) translate(-8.306999206542969px, -73.48703002929688px) translate(0px, 1000px);transform: translate(8.306999206542969px, 73.48703002929688px) translate(-8.306999206542969px, -73.48703002929688px) translate(0px, 1000px);}100%{-webkit-transform: translate(8.306999206542969px, 73.48703002929688px) translate(-8.306999206542969px, -73.48703002929688px) translate(0px, 1000px);transform: translate(8.306999206542969px, 73.48703002929688px) translate(-8.306999206542969px, -73.48703002929688px) translate(0px, 1000px);}}#el_vZTExHL3U *{-webkit-animation-duration: 3s;animation-duration: 3s;-webkit-animation-iteration-count: infinite;animation-iteration-count: infinite;-webkit-animation-timing-function: cubic-bezier(0, 0, 1, 1);animation-timing-function: cubic-bezier(0, 0, 1, 1);}#el_SF-UabLhYL{fill: #499442;}#el_bxgG_yeJnu{fill: #499442;}#el_mCYjtXOp1l{fill: #215A2D;}#el_UaleqCCc42{fill: #215A2D;}#el_foR-F4N6hU{fill: #499442;}#el_CtKjVS_C1P{fill: #499442;}#el_zT9YhzbuA_{fill: #215A2D;}#el__LxKh0ZNWT{fill: #DBF4D7;}#el_OlITDNk3h0{fill: #DBF4D7;}#el_xmQJZ2Yahp{fill: #DBF4D7;}#el_wkElQGGt6T{fill: #DBF4D7;}#el_uOHd8ANOdN{fill: #DBF4D7;}#el_bNV5A4VrkM{fill: #DBF4D7;}#el_TEdz5txI4-{fill: #DBF4D7;}#el_ErVQpOjP6x{fill: #DBF4D7;}#el_p69Ar0FWUuG{fill: #DD6A3C;}#el_ugodlKSnCIr{fill: #DD6A3C;}#el_RoT2VLEjOG9{fill: #DD6A3C;}#el_LtLxXCoYyX6{fill: #DD6A3C;}#el_ink6u3eLSg4{fill: #DD6A3C;}#el_qn0VZedjRkU{fill: #DD6A3C;}#el_E2RxyRa2G5n{fill: #DD6A3C;}#el_aa2cTXXxBJo{fill: #DD6A3C;}#el_1_1mRRpHgFM{fill: #DBF4D7;}#el_5wuRddGpf4b{fill: #DD6A3C;}#el_RjA1mXMC2_M{fill: #C1B4BE;}#el_Ma5iddQ6OVQ{fill: #E2D2DD;}#el_IQ8sUSbxLNq{fill: #374757;}#el_Qw6DofZ4CEm{fill: #499442;}#el_-HsaGXXJPnV{fill: #499442;}#el_Q_xsmZMW8ug{fill: #215A2D;}#el_sbN-JFO2MJp{fill: #215A2D;}#el_nBg88rALy9O{fill: #499442;}#el_GbBE3cDOuz_{fill: #499442;}#el_OQc0aVZczYm{fill: #215A2D;}#el_saRCBQ0s8xu_an_NOGdBu7IS{-webkit-animation-fill-mode: backwards;animation-fill-mode: backwards;-webkit-transform: translate(8.306999206542969px, 73.48703002929688px) translate(-8.306999206542969px, -73.48703002929688px) translate(0px, 0px);transform: translate(8.306999206542969px, 73.48703002929688px) translate(-8.306999206542969px, -73.48703002929688px) translate(0px, 0px);-webkit-animation-name: kf_el_saRCBQ0s8xu_an_NOGdBu7IS;animation-name: kf_el_saRCBQ0s8xu_an_NOGdBu7IS;-webkit-animation-timing-function: cubic-bezier(0, 0, 1, 1);animation-timing-function: cubic-bezier(0, 0, 1, 1);}#el_psgSieK4qtd_an_SfhKw9NSV{-webkit-transform: translate(164.4595947265625px, 309.79998779296875px) translate(-164.4595947265625px, -309.79998779296875px) translate(0px, 0px);transform: translate(164.4595947265625px, 309.79998779296875px) translate(-164.4595947265625px, -309.79998779296875px) translate(0px, 0px);-webkit-animation-fill-mode: backwards;animation-fill-mode: backwards;-webkit-animation-name: kf_el_psgSieK4qtd_an_SfhKw9NSV;animation-name: kf_el_psgSieK4qtd_an_SfhKw9NSV;-webkit-animation-timing-function: cubic-bezier(0, 0, 1, 1);animation-timing-function: cubic-bezier(0, 0, 1, 1);}#el_psgSieK4qtd_an_s1ysRbCjL{-webkit-transform: translate(164.4595947265625px, 309.79998779296875px) rotate(0deg) translate(-164.4595947265625px, -309.79998779296875px);transform: translate(164.4595947265625px, 309.79998779296875px) rotate(0deg) translate(-164.4595947265625px, -309.79998779296875px);-webkit-animation-fill-mode: backwards;animation-fill-mode: backwards;-webkit-animation-name: kf_el_psgSieK4qtd_an_s1ysRbCjL;animation-name: kf_el_psgSieK4qtd_an_s1ysRbCjL;-webkit-animation-timing-function: cubic-bezier(0, 0, 1, 1);animation-timing-function: cubic-bezier(0, 0, 1, 1);}</style>

<path d="M178.8,302.1c2.6-0.5,5.3,1.1,8.2,4.3c33.8-43.7,98.7-73.3,173.3-73.3c74.7,0,139.8,29.7,173.5,73.5&#10;&#9;c0.7-8.1,1.5-15.7,2.3-22.7c-33-63.4-99.3-106.8-175.8-106.8c-84.3,0-156.2,52.6-184.8,126.8C176.4,303,177.6,302.3,178.8,302.1z" id="el_SF-UabLhYL"/>
<path d="M360.2,517.4c-51.6,0-98.5-14.2-133.8-37.3c-0.1,16.6-2.4,27.4-7.9,28.4c-2.6,0.5-5.8-1.4-9.2-5.1&#10;&#9;c0,0,0,0.1,0,0.1c36.3,42.7,90.5,69.9,151,69.9c76.3,0,142.5-43.1,175.6-106.3c-1.1-7.3-2-14.8-2.8-22.2&#10;&#9;C499.1,488.1,434.4,517.4,360.2,517.4z" id="el_bxgG_yeJnu"/>
<path d="M360.2,458c-53.2,0-101.5-8.8-137.1-23c2.1,17.1,3.4,32.7,3.3,45.1c35.2,23.2,82.2,37.3,133.8,37.3&#10;&#9;c74.2,0,138.9-29.3,172.8-72.6c-0.9-9.2-1.6-18.4-2.1-27.6C496.5,441.6,432.9,458,360.2,458z" id="el_mCYjtXOp1l"/>
<path d="M360.2,292.5c73.2,0,137.2,16.6,171.4,41.3c0.6-9.5,1.3-18.6,2-27.2c-33.7-43.8-98.8-73.5-173.5-73.5&#10;&#9;c-74.6,0-139.5,29.6-173.3,73.3c3.8,4.3,7.8,11.6,11.6,21.1C234.5,306.3,293.5,292.5,360.2,292.5z" id="el_UaleqCCc42"/>
<path d="M360.2,346.1c72.4,0,135.7,5.7,170.2,14.2c0.3-9.1,0.7-18,1.2-26.5c-34.3-24.7-98.2-41.3-171.4-41.3&#10;&#9;c-66.7,0-125.7,13.8-161.6,34.9c3.3,8.2,6.6,18.1,9.7,29.1C244.6,350.2,299.2,346.1,360.2,346.1z" id="el_foR-F4N6hU"/>
<path d="M360.2,404.4c-56.3,0-107.1-3.5-143.2-9c0.2,1.2,0.4,2.4,0.7,3.6c2.2,12.3,4,24.4,5.4,35.9&#10;&#9;c35.6,14.3,83.9,23,137.1,23c72.7,0,136.3-16.4,170.7-40.8c-0.5-9-0.7-18.1-0.8-27C495.5,398.7,432.4,404.4,360.2,404.4z" id="el_CtKjVS_C1P"/>
<path d="M208.3,356.6c3.2,11.8,6.2,24.9,8.8,38.8c36.1,5.6,86.9,9,143.2,9c72.2,0,135.3-5.7,169.9-14.2&#10;&#9;c-0.1-10.1,0-20.1,0.3-29.8c-34.5-8.5-97.8-14.2-170.2-14.2C299.2,346.1,244.6,350.2,208.3,356.6z" id="el_zT9YhzbuA_"/>
<path d="M196.4,470.1c-6.8-17.2-12.9-40.1-17.2-64.4c-4.3-24.3-6.3-47.9-5.7-66.4c0.6-20.4,4-26.8,5.3-28.6&#10;&#9;c-1.2-2.3-2.4-4.5-3.5-6.5c0-0.1,0.1-0.1,0.1-0.2c-9.6,9.7-11.4,53.4-2.8,102.9c7.6,43.1,24,82.6,36.7,96.4c0.3-3.1,0.5-6.1,0.7-9.1&#10;&#9;C206.3,489.8,201.2,482.1,196.4,470.1z" id="el__LxKh0ZNWT"/>
<path d="M178.8,310.7c0-0.1,0.1-0.1,0.1-0.2c0.5,0.3,1.6,1.1,3,2.8c1.6-2.3,3.2-4.7,5-6.9c-2.8-3.2-5.6-4.7-8.2-4.3&#10;&#9;c-1.2,0.2-2.4,0.9-3.4,1.9c0,0.1-0.1,0.1-0.1,0.2C176.5,306.3,177.6,308.5,178.8,310.7z" id="el_OlITDNk3h0"/>
<path d="M218.5,508.4c5.5-1,7.9-11.8,7.9-28.4c-3.4-2.2-6.7-4.6-9.9-7c-0.5,16.7-0.9,24.5-1.9,25.8&#10;&#9;c-0.6-0.4-2.4-1.8-4.7-4.7c-0.2,3-0.5,6-0.7,9.1C212.7,507,215.9,508.9,218.5,508.4z" id="el_xmQJZ2Yahp"/>
<path d="M223.1,434.9c-2.7-1.1-5.2-2.2-7.8-3.3c1.2,12.7,1.7,24.6,1.4,34.9c-0.1,2.3-0.1,4.5-0.2,6.5&#10;&#9;c3.2,2.4,6.5,4.7,9.9,7C226.5,467.6,225.3,452,223.1,434.9z" id="el_wkElQGGt6T"/>
<path d="M198.6,327.5c-3.9-9.5-7.8-16.8-11.6-21.1c-1.8,2.3-3.4,4.6-5,6.9c2.4,2.8,5.9,8.1,10.2,18.2&#10;&#9;C194.2,330.1,196.4,328.8,198.6,327.5z" id="el_uOHd8ANOdN"/>
<path d="M201.3,357.9c2.2-0.4,4.5-0.9,6.9-1.3c-3-11-6.3-20.9-9.7-29.1c-2.2,1.3-4.4,2.7-6.5,4c0.6,1.3,1.1,2.7,1.7,4.2&#10;&#9;C196.5,342.4,199,349.8,201.3,357.9z" id="el_bNV5A4VrkM"/>
<path d="M217,395.4c-2.4-0.4-4.8-0.8-7.1-1.1c0.4,2,0.7,3.9,1.1,5.9c1.9,10.8,3.3,21.4,4.3,31.5&#10;&#9;c2.5,1.1,5.1,2.2,7.8,3.3c-1.4-11.5-3.3-23.7-5.4-35.9C217.5,397.8,217.2,396.6,217,395.4z" id="el_TEdz5txI4-"/>
<path d="M201.3,357.9c3.3,11.2,6.2,23.5,8.6,36.4c2.3,0.4,4.6,0.8,7.1,1.1c-2.5-13.9-5.5-27-8.8-38.8&#10;&#9;C205.9,357,203.6,357.4,201.3,357.9z" id="el_ErVQpOjP6x"/>
<path d="M210.1,429.2c-0.9-12.8-2.4-24.7-4.3-35.7c-2.2-12.7-4.9-24.3-8-34.9c-2.7-9.2-5.6-17.5-8.6-25.1&#10;&#9;c-2.7-6.9-5.5-13.1-8.3-18.7c-0.7-1.4-1.4-2.8-2.1-4.1c-1.3,1.7-4.7,8.2-5.3,28.6c-0.6,18.5,1.5,42.1,5.7,66.4&#10;&#9;c4.3,24.3,10.4,47.2,17.2,64.4c4.7,12,9.9,19.7,13.6,24.1c0.6-8.8,1-17.2,1.2-25.4C211.4,454.8,211,441.6,210.1,429.2z" id="el_p69Ar0FWUuG"/>
<path d="M182,313.3c-1.4-1.7-2.5-2.4-3-2.8c0,0.1-0.1,0.1-0.1,0.2c0.7,1.3,1.4,2.7,2.1,4.1&#10;&#9;C181.2,314.3,181.6,313.8,182,313.3z" id="el_ugodlKSnCIr"/>
<path d="M210,494.2c2.4,2.8,4.1,4.3,4.7,4.7c1-1.3,1.4-9.2,1.9-25.8c-1.8-1.4-3.7-2.8-5.4-4.3&#10;&#9;C211,477,210.6,485.5,210,494.2z" id="el_RoT2VLEjOG9"/>
<path d="M215.4,431.6c-1.8-0.8-3.5-1.6-5.2-2.4c0.9,12.4,1.3,25.6,1,39.6c1.8,1.4,3.6,2.9,5.4,4.3&#10;&#9;c0.1-2,0.1-4.2,0.2-6.5C217.1,456.3,216.6,444.4,215.4,431.6z" id="el_LtLxXCoYyX6"/>
<path d="M189.2,333.5c0.9-0.7,1.9-1.3,2.9-2c-4.3-10.1-7.8-15.4-10.2-18.2c-0.3,0.5-0.7,1-1,1.5&#10;&#9;C183.7,320.4,186.5,326.7,189.2,333.5z" id="el_ink6u3eLSg4"/>
<path d="M193.9,335.7c-0.6-1.5-1.2-2.9-1.7-4.2c-1,0.7-2,1.3-2.9,2c3,7.6,5.9,15.9,8.6,25.1c1.2-0.2,2.4-0.5,3.6-0.7&#10;&#9;C199,349.8,196.5,342.4,193.9,335.7z" id="el_qn0VZedjRkU"/>
<path d="M210,394.2c-1.4-0.2-2.8-0.5-4.2-0.7c1.9,11.1,3.4,23,4.3,35.7c1.7,0.8,3.5,1.6,5.2,2.4&#10;&#9;c-1-10.1-2.4-20.7-4.3-31.5C210.7,398.2,210.3,396.2,210,394.2z" id="el_E2RxyRa2G5n"/>
<path d="M201.3,357.9c-1.2,0.2-2.4,0.5-3.6,0.7c3.1,10.5,5.8,22.2,8,34.9c1.4,0.3,2.8,0.5,4.2,0.7&#10;&#9;C207.5,381.4,204.6,369,201.3,357.9z" id="el_aa2cTXXxBJo"/>
<path d="M536,284c0,0,34.6,68.5-0.2,183C535.8,467,508.2,386.4,536,284z" id="el_1_1mRRpHgFM"/>
<path d="M546.9,464.4C546.9,464.4,546.9,464.4,546.9,464.4z M536.5,433.3c-6.6-27.1-11.6-69.8,1.7-119.5&#10;&#9;c2,6,4,12.9,5.5,20.7C548,356.9,549.6,390.8,536.5,433.3z" id="el_5wuRddGpf4b"/>
<g id="el_saRCBQ0s8xu_an_NOGdBu7IS" data-animator-group="true" data-animator-type="0"><g id="el_saRCBQ0s8xu">
	<g id="el_vm0KN5xhSVO">
		<path d="M151.3,211c2.4-2.1,152.9,186.1,146,227.8l-49.1-30.1l-151-140.3L151.3,211z" id="el_RjA1mXMC2_M"/>
		<path d="M148.7,213.6c0,0,151.6,185.3,147.2,224.8l-65.2-40.2L87.5,267.8L148.7,213.6z" id="el_Ma5iddQ6OVQ"/>
	</g>
	<path d="M151.8,211.5c0,0-93.7-134.3-102-133.1c-8.3,1.3-28-24-41.1,29c-2.1,23.3,4.9,23.4,4.9,23.4s15.6-9.7,24.2,3.3&#10;&#9;&#9;s29.8,53.8,29.8,53.8s20.2,26,28.5,33.1s14.2,20.8,14.5,26.5C110.8,253,151.8,211.5,151.8,211.5z" id="el_IQ8sUSbxLNq"/>
</g></g>
<g id="el_psgSieK4qtd_an_SfhKw9NSV" data-animator-group="true" data-animator-type="0"><g id="el_psgSieK4qtd_an_s1ysRbCjL" data-animator-group="true" data-animator-type="1"><g id="el_psgSieK4qtd">
	<path d="M175.5,309.8c-7.8,22.3-11.7,46.4-10.9,71.4c-0.7-21.6,5.4-42.3,16.9-61C179.4,316.4,177.4,313,175.5,309.8z" id="el_Qw6DofZ4CEm"/>
	<path d="M164.6,381.2c1.5,48.9,20.6,93,51,126.7c0.7-12.1,1-23.6,0.8-34.6C185.2,449.1,165.7,417,164.6,381.2z" id="el_-HsaGXXJPnV"/>
	<path d="M190.3,338.6c-2.9-6.8-5.9-12.9-8.9-18.4c-11.4,18.7-17.5,39.4-16.9,61C164.1,365.9,173.5,351.4,190.3,338.6z" id="el_Q_xsmZMW8ug"/>
	<path d="M216.4,473.2c-0.2-14-1-27.2-2.3-39.6c-30.3-13.6-49-31.8-49.6-52.5C165.7,417,185.2,449.1,216.4,473.2z" id="el_sbN-JFO2MJp"/>
	<path d="M199.7,363.4c-2.9-9.1-6.1-17.3-9.3-24.8c-16.8,12.8-26.2,27.3-25.7,42.6C164.4,375,177.4,368.8,199.7,363.4z" id="el_nBg88rALy9O"/>
	<path d="M214.2,433.6c-1.3-12.7-3.2-24.6-5.5-35.6c-27.4-4.1-43.9-10-44.1-16.9C165.2,401.8,183.9,420.1,214.2,433.6z" id="el_GbBE3cDOuz_"/>
	<path d="M208.7,398c-2.6-12.7-5.7-24.2-9.1-34.6c-22.3,5.4-35.3,11.6-35.1,17.8C164.8,388.1,181.3,393.9,208.7,398z" id="el_OQc0aVZczYm"/>
</g></g></g>
</svg>