<svg version="1.1" id="el_s3mWxXG4V" xmlns="http://www.w3.org/2000/svg" xmlns:xlink="http://www.w3.org/1999/xlink" x="0px" y="0px" viewBox="0 0 576 576" style="enable-background:new 0 0 576 576;" xml:space="preserve"><style>@-webkit-keyframes kf_el_bwNekdgyR_F_an_NtakpQjTr{0%{opacity: 0;}50%{opacity: 0;}88.89%{opacity: 1;}100%{opacity: 1;}}@keyframes kf_el_bwNekdgyR_F_an_NtakpQjTr{0%{opacity: 0;}50%{opacity: 0;}88.89%{opacity: 1;}100%{opacity: 1;}}@-webkit-keyframes kf_el_qp_xNkqoQ2c_an_7lvC1Htph{0%{opacity: 0;}22.22%{opacity: 1;}100%{opacity: 1;}}@keyframes kf_el_qp_xNkqoQ2c_an_7lvC1Htph{0%{opacity: 0;}22.22%{opacity: 1;}100%{opacity: 1;}}@-webkit-keyframes kf_el_6wAFjXwFFne_an_ltnLBCnuV{0%{-webkit-transform: translate(156.39999389648438px, 98.29988098144531px) translate(-156.39999389648438px, -98.29988098144531px) translate(0px, 0px);transform: translate(156.39999389648438px, 98.29988098144531px) translate(-156.39999389648438px, -98.29988098144531px) translate(0px, 0px);}22.22%{-webkit-transform: translate(156.39999389648438px, 98.29988098144531px) translate(-156.39999389648438px, -98.29988098144531px) translate(200px, 340px);transform: translate(156.39999389648438px, 98.29988098144531px) translate(-156.39999389648438px, -98.29988098144531px) translate(200px, 340px);}50%{-webkit-transform: translate(156.39999389648438px, 98.29988098144531px) translate(-156.39999389648438px, -98.29988098144531px) translate(80px, -10px);transform: translate(156.39999389648438px, 98.29988098144531px) translate(-156.39999389648438px, -98.29988098144531px) translate(80px, -10px);}88.89%{-webkit-transform: translate(156.39999389648438px, 98.29988098144531px) translate(-156.39999389648438px, -98.29988098144531px) translate(210px, 200px);transform: translate(156.39999389648438px, 98.29988098144531px) translate(-156.39999389648438px, -98.29988098144531px) translate(210px, 200px);}100%{-webkit-transform: translate(156.39999389648438px, 98.29988098144531px) translate(-156.39999389648438px, -98.29988098144531px) translate(210px, 200px);transform: translate(156.39999389648438px, 98.29988098144531px) translate(-156.39999389648438px, -98.29988098144531px) translate(210px, 200px);}}@keyframes kf_el_6wAFjXwFFne_an_ltnLBCnuV{0%{-webkit-transform: translate(156.39999389648438px, 98.29988098144531px) translate(-156.39999389648438px, -98.29988098144531px) translate(0px, 0px);transform: translate(156.39999389648438px, 98.29988098144531px) translate(-156.39999389648438px, -98.29988098144531px) translate(0px, 0px);}22.22%{-webkit-transform: translate(156.39999389648438px, 98.29988098144531px) translate(-156.39999389648438px, -98.29988098144531px) translate(200px, 340px);transform: translate(156.39999389648438px, 98.29988098144531px) translate(-156.39999389648438px, -98.29988098144531px) translate(200px, 340px);}50%{-webkit-transform: translate(156.39999389648438px, 98.29988098144531px) translate(-156.39999389648438px, -98.29988098144531px) translate(80px, -10px);transform: translate(156.39999389648438px, 98.29988098144531px) translate(-156.39999389648438px, -98.29988098144531px) translate(80px, -10px);}88.89%{-webkit-transform: translate(156.39999389648438px, 98.29988098144531px) translate(-156.39999389648438px, -98.29988098144531px) translate(210px, 200px);transform: translate(156.39999389648438px, 98.29988098144531px) translate(-156.39999389648438px, -98.29988098144531px) translate(210px, 200px);}100%{-webkit-transform: translate(156.39999389648438px, 98.29988098144531px) translate(-156.39999389648438px, -98.29988098144531px) translate(210px, 200px);transform: translate(156.39999389648438px, 98.29988098144531px) translate(-156.39999389648438px, -98.29988098144531px) translate(210px, 200px);}}#el_s3mWxXG4V *{-webkit-animation-duration: 3s;animation-duration: 3s;-webkit-animation-iteration-count: infinite;animation-iteration-count: infinite;-webkit-animation-timing-function: cubic-bezier(0, 0, 1, 1);animation-timing-function: cubic-bezier(0, 0, 1, 1);}#el_MOnoNnL1Ud{fill: #DBF4D7;}#el_x9Qvh74p2S{fill: #215A2D;}#el_GMP_VYE6yX{fill: #DBF4D7;}#el_Iv7vOMmGGv{fill: #DBF4D7;}#el_uPGQXyYRmL{fill: #DBF4D7;}#el_JobB8bb-2H{fill: #DBF4D7;}#el_1sg19t2kCk{fill: #DBF4D7;}#el_WwJKqFaMT4{fill: #E02214;}#el_O2scxvyyQG{fill: #DB1C03;}#el_RBFX0H6yV9{fill: #E56C5C;}#el_J1dAIr763V{fill: #E05B41;}#el_yiSkKplmhP{fill: #E05B41;}#el_cNpqQZSQ5R{fill: #E05B41;}#el_8y_Jc2CMBf{fill: #E05B41;}#el_mZ9qwCUlYcn{fill: #E56C5C;}#el_xnJfKB6YCxO{fill: #E05B41;}#el_9Vq1_cs8gl3{fill: #E56C5C;}#el_f4gE9FhMDNj{fill: #E05B41;}#el_dT9C69mI9fl{fill: #E56C5C;}#el_NV22aegB7-V{fill: #E05B41;}#el_Nj3GDtb5eU_{fill: #E56C5C;}#el_7-i9f1OaNR2{fill: #E05B41;}#el_oELSJhX5Fol{fill: #E05B41;}#el_ZP0GNFT8tBh{fill: #E05B41;}#el_eXO1ONeM1-h{fill: #DBF4D7;}#el_jLpV-EK6wto{fill: #DBF4D7;}#el_58sUPBBkxQb{fill: #DBF4D7;}#el_bkWrUPjr-U1{fill: #E02214;}#el_CQIvVwj29mW{fill: none;stroke: #E02214;stroke-width: 1.1648;stroke-miterlimit: 10;}#el_IsbrYWyaCsH{fill: none;stroke: #E02214;stroke-width: 1.1648;stroke-miterlimit: 10;}#el_GOKgjytz_nE{fill: none;stroke: #E02214;stroke-width: 1.1648;stroke-miterlimit: 10;}#el_NB7cB4HgY5d{fill: none;stroke: #E02214;stroke-width: 1.1648;stroke-miterlimit: 10;}#el_PayFNhfFIKS{fill: #E02214;}#el_J-3gxmKaS8c{fill: #E02214;}#el_MK-AcZqKbtu{fill: #374757;}#el_TIOVLnszaMB{fill: #E2D2DD;}#el_3E-pOwde7do{fill: #C1B4BE;}#el_RlK0Tw5zPyE{fill: #E2D2DD;}#el_1B-7WbmGWrY{fill: #C1B4BE;}#el_6wAFjXwFFne_an_ltnLBCnuV{-webkit-animation-fill-mode: backwards;animation-fill-mode: backwards;-webkit-transform: translate(156.39999389648438px, 98.29988098144531px) translate(-156.39999389648438px, -98.29988098144531px) translate(0px, 0px);transform: translate(156.39999389648438px, 98.29988098144531px) translate(-156.39999389648438px, -98.29988098144531px) translate(0px, 0px);-webkit-animation-name: kf_el_6wAFjXwFFne_an_ltnLBCnuV;animation-name: kf_el_6wAFjXwFFne_an_ltnLBCnuV;-webkit-animation-timing-function: cubic-bezier(0, 0, 1, 1);animation-timing-function: cubic-bezier(0, 0, 1, 1);}#el_qp_xNkqoQ2c{-webkit-animation-fill-mode: backwards;animation-fill-mode: backwards;opacity: 0;-webkit-animation-name: kf_el_qp_xNkqoQ2c_an_7lvC1Htph;animation-name: kf_el_qp_xNkqoQ2c_an_7lvC1Htph;-webkit-animation-timing-function: cubic-bezier(0, 0, 1, 1);animation-timing-function: cubic-bezier(0, 0, 1, 1);}#el_bwNekdgyR_F{-webkit-animation-fill-mode: backwards;animation-fill-mode: backwards;opacity: 0;-webkit-animation-name: kf_el_bwNekdgyR_F_an_NtakpQjTr;animation-name: kf_el_bwNekdgyR_F_an_NtakpQjTr;-webkit-animation-timing-function: cubic-bezier(0, 0, 1, 1);animation-timing-function: cubic-bezier(0, 0, 1, 1);}</style>

<path d="M432,218.3c68.2,128.9,31.9,282.5-81,342.2l-1.5,0.8L54.3,81.9l2.4-2c40.3-31.9,92.9-42.1,152.2-29.6&#10;&#9;C297.8,69,389.6,138.1,432,218.3z" id="el_MOnoNnL1Ud"/>
<path d="M435.3,216.6c68.2,128.9,30.6,283.1-83.8,343.7l-1.6,0.8L54.3,81.9l2.5-2c40.9-32.2,94.1-42.7,154-30.6&#10;&#9;C300.5,67.6,392.8,136.4,435.3,216.6z" id="el_x9Qvh74p2S"/>
<path d="M56.8,82.3c0.4-0.3,0.8-0.7,1.2-1c113-89.4,304.7,10,372.3,137.8c67.9,128.2,31.9,280.3-80.3,339.7l-1.3-2.2&#10;&#9;l-2.4-3.9L57.8,84.1L56.8,82.3z" id="el_GMP_VYE6yX"/>
<path d="M349.2,560.5C291.7,530,188.8,351.5,155,292.9c-4.9-8.5-8.2-14.2-9.5-16.2c-10.7-16.8-21.2-34.8-31.1-53.5&#10;&#9;C75.2,148.9,56.2,85.2,56.1,84.6l3.4-1.5l292.7,474.7L349.2,560.5z" id="el_Iv7vOMmGGv"/>
<path d="M147.1,275.7c10.3,16.2,137.4,248.4,203,283.2L57.8,84.1C57.8,84.1,86.1,180.1,147.1,275.7z" id="el_uPGQXyYRmL"/>
<path d="M349.2,560.5C291.7,530,188.8,351.5,155,292.9c-4.9-8.5-8.2-14.2-9.5-16.2c-10.7-16.8-21.2-34.8-31.1-53.5&#10;&#9;C75.2,148.9,56.2,85.2,56.1,84.6l3.4-1.5l290.3,477.2L349.2,560.5z" id="el_JobB8bb-2H"/>
<path d="M147.1,275.7c10.3,16.2,137.4,248.4,203,283.2L57.8,84.1C57.8,84.1,86.1,180.1,147.1,275.7z" id="el_1sg19t2kCk"/>
<g id="el_lY4L-3pKIA">
	<path d="M417.8,230.7c28.9,54.7,36.5,118.8,21.4,180.4C424.7,470,390.3,521,344.9,550.8l-1.6,1.1L70.8,87.5l0,0&#10;&#9;&#9;c42.1-26.4,96.9-25.4,133.4-17.7C289.3,87.7,377.2,153.9,417.8,230.7z" id="el_WwJKqFaMT4"/>
	<path d="M344.1,551.3c-57.7-30.6-159-213.7-192.4-272.9c-5.5-9.8-9.2-16.4-10.7-18.6c-11.4-17.8-19-35.8-28.4-53.7&#10;&#9;&#9;C77.2,139.2,70.9,88,70.8,87.5l1.6-0.9l268.3,460.9L344.1,551.3z" id="el_O2scxvyyQG"/>
</g>
<path d="M367.2,441.5l0.6-0.4c-0.4-0.2-0.8-0.5-1.2-0.7L367.2,441.5z" id="el_RBFX0H6yV9"/>
<polygon points="367.8,441.2 367.8,441.2 367.8,441.2 " id="el_J1dAIr763V"/>
<path d="M296,478.1l-0.4-0.2l37.6,65.3c0.6,0.4,1.2,0.7,1.8,1.1l0,0l-3.2-3.9L296,478.1z" id="el_yiSkKplmhP"/>
<polygon points="270.5,434.4 271.1,434.5 248.8,395.7 248.2,395.6 " id="el_cNpqQZSQ5R"/>
<polygon points="295.6,477.9 296,478.1 271.1,434.5 270.5,434.4 " id="el_8y_Jc2CMBf"/>
<path d="M347.8,474.1c0.1,0.1,0.1,0.2,0.2,0.3c1.3-0.3,6-1.3,10.2-0.9C353.3,472.8,347.8,474.1,347.8,474.1z" id="el_t0mFVf_8LAo"/>
<path d="M355.4,481.4c3.6,2.7,7.5,4.6,9.2,2.1C362.9,485.7,359,484,355.4,481.4z" id="el_TVz88aDySyp"/>
<path d="M347.7,474.5c1,1.3,4.3,4.5,7.7,7c-3.2-2.4-6.2-5.5-7.4-7.1C347.8,474.4,347.7,474.5,347.7,474.5z" id="el_YL6IxgjUycB"/>
<path d="M365.5,480.7c-0.1,1.3-0.4,2.2-0.8,2.9c0.5-0.7,0.9-1.7,0.9-3.1c0.2-4.9-3.3-6.6-7.3-7C362.3,474,365.9,475.8,365.5,480.7z" id="el_3NyG42LbE06"/>
<g id="el_-scl0heMgsO">
	<path d="M296,478.1l35.7,62.3l3.2,3.9l0.8-0.5c45.6-28.1,81-77.3,96.9-134.8c0,0,0-0.1,0-0.1L296,478.1L296,478.1z&#10;&#9;&#9; M365.6,480.4c-0.1,1.5-0.4,2.5-0.9,3.1c-1.7,2.5-5.6,0.6-9.2-2.1c-3.5-2.4-6.7-5.6-7.7-7c0,0,0.1,0,0.3-0.1&#10;&#9;&#9;c-0.1-0.1-0.1-0.2-0.2-0.3c0,0,5.5-1.3,10.4-0.7C362.2,473.9,365.8,475.6,365.6,480.4z M390.6,453.4c-0.5,10.9-15.5-2.8-17.9-6&#10;&#9;&#9;C372.7,447.4,391.1,442.5,390.6,453.4z" id="el_mZ9qwCUlYcn"/>
	<path d="M264.3,466.4c24.9,35.5,49.4,64.8,68.9,76.8l-37.6-65.3L264.3,466.4z" id="el_xnJfKB6YCxO"/>
	<path d="M365.5,480.7c0.4-4.9-3.2-6.7-7.3-7.2c-4.2-0.4-8.9,0.6-10.2,0.9c1.2,1.5,4.2,4.6,7.4,7.1c3.6,2.6,7.5,4.3,9.2,2.1&#10;&#9;&#9;C365.1,482.9,365.4,482,365.5,480.7z" id="el_4bv-HlitsYx"/>
	<path d="M390.6,453.4c0.5-10.9-17.9-6-17.9-6C375.1,450.6,390.1,464.2,390.6,453.4z" id="el_IkqKH9DzGvV"/>
</g>
<g id="el_W1zJ5xwZQhU">
	<path d="M270.3,433l25,43.5l0,0l136.6-69.3c5.8-20.9,8.9-42.2,9.3-63.3L272,433.5L270.3,433z M360.4,406.3&#10;&#9;&#9;c0,0,18.4-4.9,17.9,6C377.8,423.2,362.8,409.5,360.4,406.3z M405,392.8c-0.5,10.9-15.5-2.8-17.9-6&#10;&#9;&#9;C387.1,386.8,405.5,381.9,405,392.8z" id="el_9Vq1_cs8gl3"/>
	<path d="M269.7,432.9l-33.6-9c9,14.2,18.2,28,27.3,41l31.3,11.5L269.7,432.9z" id="el_f4gE9FhMDNj"/>
	<path d="M360.4,406.3c2.4,3.2,17.4,16.8,17.9,6C378.8,401.4,360.4,406.3,360.4,406.3z" id="el_YXwVnMYjAPm"/>
	<path d="M405,392.8c0.5-10.9-17.9-6-17.9-6C389.6,390,404.5,403.6,405,392.8z" id="el_Qy_Sr1du35h"/>
</g>
<g id="el_B_0zdeZW_IF">
	<path d="M246.4,391.2l22.3,38.8l1.7,0.5l169.2-89.5c0.4-16.6-0.9-33.2-3.8-49.4l-188.6,99.8L246.4,391.2z M402.3,348.5&#10;&#9;&#9;c1.6,10.8-15.7,0.2-18.7-2.5C383.6,346.1,400.7,337.8,402.3,348.5z M413.3,318c1.6,10.8-15.7,0.2-18.7-2.5&#10;&#9;&#9;C394.6,315.6,411.7,307.3,413.3,318z" id="el_dT9C69mI9fl"/>
	<path d="M245.8,391l-34-7c7.4,12.3,15,24.6,22.7,36.8l33.6,9L245.8,391z" id="el_NV22aegB7-V"/>
	<path d="M402.3,348.5c-1.6-10.8-18.7-2.5-18.7-2.5C386.5,348.7,403.8,359.3,402.3,348.5z" id="el_zxVtwU6xXh3"/>
	<path d="M413.3,318c-1.6-10.8-18.7-2.5-18.7-2.5C397.6,318.2,414.8,328.8,413.3,318z" id="el_dlvDLx4TEc6"/>
</g>
<g id="el_CrRpNglFdfM">
	<path d="M67.2,79.4l-0.7,0.4l176.4,309.1l0.8,0.2l188.8-99.4c-4-22.6-11.1-44.7-21.2-65.5&#10;&#9;&#9;c-37.6-76.9-122.1-144.7-205.3-165C170.2,50.6,109.5,54.7,67.2,79.4z M390,285.2c7,8.3-13.2,8.5-17.1,7.9&#10;&#9;&#9;C372.9,293.1,383,276.9,390,285.2z M394.8,247.8c7,8.3-13.2,8.5-17.1,7.9C377.6,255.7,387.7,239.6,394.8,247.8z M362.7,216.8&#10;&#9;&#9;c7,8.3-13.2,8.5-17.1,7.9C345.6,224.6,355.7,208.5,362.7,216.8z M339.2,181.4c2.7,10.5-16.3,9.5-16.3,9.5&#10;&#9;&#9;C324.7,187.3,336.5,170.9,339.2,181.4z M302.9,170.9c2.7,10.5-16.3,9.5-16.3,9.5C288.4,176.8,300.2,160.3,302.9,170.9z&#10;&#9;&#9; M289.1,136.8c7.9,7.4-8.7,16.7-8.7,16.7C279.9,149.5,281.2,129.3,289.1,136.8z M257.8,128.4c7.9,7.4-8.7,16.7-8.7,16.7&#10;&#9;&#9;C248.6,141.1,249.9,120.9,257.8,128.4z M224.7,103.8c9.2,5.8-5.4,18.1-5.4,18.1C218.1,118.1,215.5,98,224.7,103.8z M193.3,114.5&#10;&#9;&#9;c9.2,5.8-5.4,18.1-5.4,18.1C186.8,128.8,184.1,108.7,193.3,114.5z M167.5,82.5c9.2,5.8-5.4,18.1-5.4,18.1&#10;&#9;&#9;C160.9,96.7,158.3,76.7,167.5,82.5z M131,87.5c4.1,2.6,3.5,6.5,1.5,10c-2.3,4.3-6.5,8.1-6.5,8.1c0-0.1-0.1-0.2-0.1-0.3&#10;&#9;&#9;c-0.2,0.1-0.3,0.2-0.3,0.2c-0.5-1.6-1.3-6.1-1.3-10.3c-0.2-4.6,0.6-8.8,3.6-8.8C128.7,86.4,129.8,86.7,131,87.5z" id="el_Nj3GDtb5eU_"/>
	<path d="M65.6,80.3c0.1,0.4,5.6,45.2,38.5,112.2c8.8,17.9,18.6,36.1,29.3,54c1.4,2.3,4.8,8.8,9.9,18.7&#10;&#9;&#9;c12.8,24.5,37.1,69.7,65.1,116.6l34,7.1L65.6,80.3z" id="el_7-i9f1OaNR2"/>
	<polygon points="66.5,79.7 65.6,80.3 66.5,79.8 &#9;" id="el_oELSJhX5Fol"/>
	<polygon points="242.9,388.9 66.5,79.8 65.6,80.3 242.3,388.8 &#9;" id="el_ZP0GNFT8tBh"/>
	<path d="M390,285.2c-7-8.3-17.1,7.9-17.1,7.9C376.8,293.8,397.1,293.5,390,285.2z" id="el_WPiJ_BqRWMc"/>
	<path d="M394.8,247.8c-7-8.3-17.1,7.9-17.1,7.9C381.6,256.4,401.8,256.1,394.8,247.8z" id="el_5ky-5oVfR8m"/>
	<path d="M126,105.6c0,0,4.2-3.8,6.5-8.1c-2.1,3.7-5.6,7-6.6,7.8C125.9,105.4,126,105.6,126,105.6z" id="el_Ih3IbjWnwIi"/>
	<path d="M124.3,95.2c0-4.5,0.8-8.6,3.6-8.8C124.9,86.4,124.2,90.7,124.3,95.2z" id="el_1TrXFAUpIUf"/>
	<path d="M130.7,87.4c4.3,2.5,3.7,6.5,1.8,10.1c2-3.5,2.6-7.4-1.5-10c-1.2-0.8-2.3-1.1-3.1-1C128.7,86.5,129.6,86.7,130.7,87.4z" id="el_mHcgUdf_K5Y"/>
	<path d="M125.6,105.6c0,0,0.1-0.1,0.3-0.2c-0.6-1.8-1.4-6.1-1.6-10.1C124.4,99.5,125.1,104,125.6,105.6z" id="el_4l4UtT6S08e"/>
	<path d="M124.3,95.2c0.1,4,1,8.3,1.6,10.1c1-0.9,4.5-4.1,6.6-7.8c1.9-3.6,2.5-7.6-1.8-10.1c-1.1-0.7-2-0.9-2.8-0.9&#10;&#9;&#9;C125.1,86.6,124.3,90.8,124.3,95.2z" id="el_HJ9VofoME_M"/>
	<path d="M162.1,100.5c0,0,14.5-12.3,5.4-18.1C158.3,76.7,160.9,96.7,162.1,100.5z" id="el_KMBvHTPnBJp"/>
	<path d="M188,132.6c0,0,14.5-12.3,5.4-18.1S186.8,128.8,188,132.6z" id="el_2kGMlH13z3l"/>
	<path d="M219.3,121.9c0,0,14.5-12.3,5.4-18.1C215.5,98,218.1,118.1,219.3,121.9z" id="el_CwdSFkYufRD"/>
	<path d="M249.1,145.1c0,0,16.6-9.3,8.7-16.7C249.9,120.9,248.6,141.1,249.1,145.1z" id="el_qG2c1BLzzXT"/>
	<path d="M280.4,153.5c0,0,16.6-9.3,8.7-16.7S279.9,149.5,280.4,153.5z" id="el_r0a3-7hScmi"/>
	<path d="M302.9,170.9c-2.7-10.5-14.6,5.9-16.3,9.5C286.7,180.4,305.7,181.4,302.9,170.9z" id="el_TfrNE482_5q"/>
	<path d="M339.2,181.4c-2.7-10.5-14.6,5.9-16.3,9.5C322.9,190.9,341.9,191.9,339.2,181.4z" id="el_lyphERWhnGW"/>
	<path d="M362.7,216.8c-7-8.3-17.1,7.9-17.1,7.9C349.5,225.3,369.8,225,362.7,216.8z" id="el_oUj3GY-q__O"/>
</g>
<path d="M466,240.5l0.2,0.2c0,0.2-0.1,0.4-0.1,0.5l0.9-1l-1.2-1.3c0,0,0,0,0,0l0.9,1L466,240.5z" id="el_eXO1ONeM1-h"/>
<polygon points="466.2,240.7 466,240.5 466,240.5 " id="el_jLpV-EK6wto"/>
<polygon points="466,240.5 465.8,240.2 465.7,240.3 466,240.5 " id="el_58sUPBBkxQb"/>
<g id="el_98TolgCbiW-">
	<path d="M411.2,224.3c-16.3,9.2-32.6,18.1-49,27c-8.2,4.4-16.4,8.9-24.7,13.2c-8.2,4.4-16.5,8.8-24.7,13.1&#10;&#9;&#9;c-8.3,4.3-16.5,8.7-24.8,13c-8.3,4.3-16.5,8.6-24.9,12.8c-16.6,8.5-33.2,16.9-49.9,25.2l-0.1,0.1l-0.1,0l-16,3l-8,1.5l-8,1.4l7.9-2&#10;&#9;&#9;l7.9-1.9l15.8-3.8l-0.2,0.1c16.4-8.9,32.8-17.8,49.3-26.5c8.2-4.4,16.5-8.7,24.7-13.1c8.2-4.4,16.5-8.6,24.8-12.9&#10;&#9;&#9;c8.3-4.3,16.6-8.6,24.9-12.8c8.3-4.3,16.6-8.5,24.9-12.7C377.7,240.6,394.4,232.4,411.2,224.3z" id="el_bkWrUPjr-U1"/>
</g>
<polyline points="372.9,173.9 173.9,263.2 143.2,265.1 " id="el_CQIvVwj29mW"/>
<polyline points="335,132.6 144.3,212.8 114,212.1 " id="el_IsbrYWyaCsH"/>
<polyline points="280.3,90.9 114,158 90.6,158 " id="el_GOKgjytz_nE"/>
<polyline points="211.8,65.1 88.1,113.5 73.2,109.1 " id="el_NB7cB4HgY5d"/>
<g id="el_qp_xNkqoQ2c">
	<path d="M131,57.9c11,17.9,21.8,35.9,32.7,53.8l32.4,54c21.6,36,43,72.2,64.3,108.3l31.9,54.3&#10;&#9;&#9;c10.6,18.1,21.2,36.2,31.7,54.4l31.6,54.5c10.4,18.2,20.9,36.4,31.3,54.7c-11-17.9-21.8-35.9-32.7-53.8l-32.4-54&#10;&#9;&#9;c-10.8-18-21.5-36.1-32.3-54.1l-32.1-54.2c-21.3-36.2-42.6-72.4-63.6-108.7l-31.6-54.5C151.8,94.4,141.3,76.2,131,57.9z" id="el_PayFNhfFIKS"/>
</g>
<g id="el_bwNekdgyR_F">
	<path d="M218,65.1c9.2,14.1,18.3,28.2,27.5,42.3l27.1,42.5c18.1,28.3,36,56.8,53.8,85.3l26.7,42.8&#10;&#9;&#9;c8.8,14.3,17.7,28.6,26.5,42.9l26.3,43c8.7,14.4,17.4,28.8,26,43.2c-9.2-14-18.3-28.2-27.5-42.3l-27.1-42.5&#10;&#9;&#9;c-9.1-14.2-18-28.4-27-42.6l-26.8-42.7c-17.8-28.5-35.6-57.1-53.1-85.8l-26.3-43C235.4,93.9,226.6,79.5,218,65.1z" id="el_J-3gxmKaS8c"/>
</g>
<g id="el_6wAFjXwFFne_an_ltnLBCnuV" data-animator-group="true" data-animator-type="0"><g id="el_6wAFjXwFFne">
	<path d="M337.8,230.4l181.9,159.7c0,0,15.1,42.4-24.6,41.8c-39.7-0.6-29.6-26-29.6-26s-8.4-21.4-24.6-31.6&#10;&#9;&#9;c-16.2-10.2-40.9-27.9-48.5-36.5c-7.5-8.6-38.9-49.2-45.7-54.3C339.8,278.5,337.8,230.4,337.8,230.4z" id="el_MK-AcZqKbtu"/>
	<path d="M242,221l115.1,109c0,0,24.6-8.8,42.3-17.1c11-5.2,19.3-10.2,17.4-12.8c-5-6.8-139-130.2-149.8-131.5L242,221z&#10;&#9;&#9;" id="el_TIOVLnszaMB"/>
	<path d="M416.8,300.1l-2.6,4.5L264.7,173.3l4.4-7.1C269.1,166.2,408.7,282.5,416.8,300.1z" id="el_3E-pOwde7do"/>
	<path d="M264.7,173.3c0,0-83.8-69.2-108.3-75c0,0,30.1,56.3,35.8,65.2C198,172.4,242,221,242,221" id="el_RlK0Tw5zPyE"/>
	<path d="M156.4,98.3c0,0,59.9,23.1,112.7,67.8l-3.4,8C265.7,174.2,167,98.2,156.4,98.3z" id="el_1B-7WbmGWrY"/>
</g></g>
</svg>