<svg version="1.1" id="el_1LhGIyko8" xmlns="http://www.w3.org/2000/svg" xmlns:xlink="http://www.w3.org/1999/xlink" x="0px" y="0px" viewBox="0 0 576 576" style="enable-background:new 0 0 576 576;" xml:space="preserve"><style>@-webkit-keyframes kf_el_T_aUoEqElFC_an_TERoXpjqr{0%{-webkit-transform: translate(149.39999389648438px, 29.940692901611328px) translate(-149.39999389648438px, -29.940692901611328px) translate(0px, 0px);transform: translate(149.39999389648438px, 29.940692901611328px) translate(-149.39999389648438px, -29.940692901611328px) translate(0px, 0px);}38.89%{-webkit-transform: translate(149.39999389648438px, 29.940692901611328px) translate(-149.39999389648438px, -29.940692901611328px) translate(20px, 1000px);transform: translate(149.39999389648438px, 29.940692901611328px) translate(-149.39999389648438px, -29.940692901611328px) translate(20px, 1000px);}100%{-webkit-transform: translate(149.39999389648438px, 29.940692901611328px) translate(-149.39999389648438px, -29.940692901611328px) translate(20px, 1000px);transform: translate(149.39999389648438px, 29.940692901611328px) translate(-149.39999389648438px, -29.940692901611328px) translate(20px, 1000px);}}@keyframes kf_el_T_aUoEqElFC_an_TERoXpjqr{0%{-webkit-transform: translate(149.39999389648438px, 29.940692901611328px) translate(-149.39999389648438px, -29.940692901611328px) translate(0px, 0px);transform: translate(149.39999389648438px, 29.940692901611328px) translate(-149.39999389648438px, -29.940692901611328px) translate(0px, 0px);}38.89%{-webkit-transform: translate(149.39999389648438px, 29.940692901611328px) translate(-149.39999389648438px, -29.940692901611328px) translate(20px, 1000px);transform: translate(149.39999389648438px, 29.940692901611328px) translate(-149.39999389648438px, -29.940692901611328px) translate(20px, 1000px);}100%{-webkit-transform: translate(149.39999389648438px, 29.940692901611328px) translate(-149.39999389648438px, -29.940692901611328px) translate(20px, 1000px);transform: translate(149.39999389648438px, 29.940692901611328px) translate(-149.39999389648438px, -29.940692901611328px) translate(20px, 1000px);}}@-webkit-keyframes kf_el_5X7w5qxT9O_an_VD7vyAyW2{0%{-webkit-transform: translate(96.27424621582031px, 228.6999969482422px) translate(-96.27424621582031px, -228.6999969482422px) translate(0px, 0px);transform: translate(96.27424621582031px, 228.6999969482422px) translate(-96.27424621582031px, -228.6999969482422px) translate(0px, 0px);}40%{-webkit-transform: translate(96.27424621582031px, 228.6999969482422px) translate(-96.27424621582031px, -228.6999969482422px) translate(-200px, 200px);transform: translate(96.27424621582031px, 228.6999969482422px) translate(-96.27424621582031px, -228.6999969482422px) translate(-200px, 200px);}66.67%{-webkit-transform: translate(96.27424621582031px, 228.6999969482422px) translate(-96.27424621582031px, -228.6999969482422px) translate(-1000px, 200px);transform: translate(96.27424621582031px, 228.6999969482422px) translate(-96.27424621582031px, -228.6999969482422px) translate(-1000px, 200px);}100%{-webkit-transform: translate(96.27424621582031px, 228.6999969482422px) translate(-96.27424621582031px, -228.6999969482422px) translate(-1000px, 200px);transform: translate(96.27424621582031px, 228.6999969482422px) translate(-96.27424621582031px, -228.6999969482422px) translate(-1000px, 200px);}}@keyframes kf_el_5X7w5qxT9O_an_VD7vyAyW2{0%{-webkit-transform: translate(96.27424621582031px, 228.6999969482422px) translate(-96.27424621582031px, -228.6999969482422px) translate(0px, 0px);transform: translate(96.27424621582031px, 228.6999969482422px) translate(-96.27424621582031px, -228.6999969482422px) translate(0px, 0px);}40%{-webkit-transform: translate(96.27424621582031px, 228.6999969482422px) translate(-96.27424621582031px, -228.6999969482422px) translate(-200px, 200px);transform: translate(96.27424621582031px, 228.6999969482422px) translate(-96.27424621582031px, -228.6999969482422px) translate(-200px, 200px);}66.67%{-webkit-transform: translate(96.27424621582031px, 228.6999969482422px) translate(-96.27424621582031px, -228.6999969482422px) translate(-1000px, 200px);transform: translate(96.27424621582031px, 228.6999969482422px) translate(-96.27424621582031px, -228.6999969482422px) translate(-1000px, 200px);}100%{-webkit-transform: translate(96.27424621582031px, 228.6999969482422px) translate(-96.27424621582031px, -228.6999969482422px) translate(-1000px, 200px);transform: translate(96.27424621582031px, 228.6999969482422px) translate(-96.27424621582031px, -228.6999969482422px) translate(-1000px, 200px);}}@-webkit-keyframes kf_el_5X7w5qxT9O_an_WovEUalY7{0%{-webkit-transform: translate(96.27424621582031px, 228.6999969482422px) rotate(0deg) translate(-96.27424621582031px, -228.6999969482422px);transform: translate(96.27424621582031px, 228.6999969482422px) rotate(0deg) translate(-96.27424621582031px, -228.6999969482422px);}40%{-webkit-transform: translate(96.27424621582031px, 228.6999969482422px) rotate(-45deg) translate(-96.27424621582031px, -228.6999969482422px);transform: translate(96.27424621582031px, 228.6999969482422px) rotate(-45deg) translate(-96.27424621582031px, -228.6999969482422px);}100%{-webkit-transform: translate(96.27424621582031px, 228.6999969482422px) rotate(-45deg) translate(-96.27424621582031px, -228.6999969482422px);transform: translate(96.27424621582031px, 228.6999969482422px) rotate(-45deg) translate(-96.27424621582031px, -228.6999969482422px);}}@keyframes kf_el_5X7w5qxT9O_an_WovEUalY7{0%{-webkit-transform: translate(96.27424621582031px, 228.6999969482422px) rotate(0deg) translate(-96.27424621582031px, -228.6999969482422px);transform: translate(96.27424621582031px, 228.6999969482422px) rotate(0deg) translate(-96.27424621582031px, -228.6999969482422px);}40%{-webkit-transform: translate(96.27424621582031px, 228.6999969482422px) rotate(-45deg) translate(-96.27424621582031px, -228.6999969482422px);transform: translate(96.27424621582031px, 228.6999969482422px) rotate(-45deg) translate(-96.27424621582031px, -228.6999969482422px);}100%{-webkit-transform: translate(96.27424621582031px, 228.6999969482422px) rotate(-45deg) translate(-96.27424621582031px, -228.6999969482422px);transform: translate(96.27424621582031px, 228.6999969482422px) rotate(-45deg) translate(-96.27424621582031px, -228.6999969482422px);}}#el_1LhGIyko8 *{-webkit-animation-duration: 3s;animation-duration: 3s;-webkit-animation-iteration-count: infinite;animation-iteration-count: infinite;-webkit-animation-timing-function: cubic-bezier(0, 0, 1, 1);animation-timing-function: cubic-bezier(0, 0, 1, 1);}#el_hd3g2csBhN{fill: #DD6A3C;}#el_nedrhWFJTa{fill: #DBF4D7;}#el_a9brsAb8x2{fill: #499442;}#el_svqf3H2ybF{fill: #215A2D;}#el_yp_qCNSrwW{fill: #499442;}#el_R-Bct4tukD{fill: #DBF4D7;}#el_by_nqKcMtF{fill: #DBF4D7;}#el_hwnbZw3AxU{fill: #DBF4D7;}#el_1yKY3UIvHe{fill: #DBF4D7;}#el_35dFNYnm_c{fill: #DD6A3C;}#el_vlZUx6YpGV{fill: #DD6A3C;}#el_bcHItyoJpa{fill: #DD6A3C;}#el_WWvBxLTIr3{fill: #DD6A3C;}#el_kBZUeHQ0HU{fill: #DD6A3C;}#el_8mfc-UIbO0j{fill: #DD6A3C;}#el_daNk6fFTGoY{fill: #DD6A3C;}#el_55VhFfVh6Ia{fill: #DD6A3C;}#el_lB8-4vdWB4N{fill: #DD6A3C;}#el_4_WNH6lAZDP{fill: #DD6A3C;}#el_o9SsH5ebmku{fill: #DD6A3C;}#el__ugZcbZouLU{fill: #DD6A3C;}#el_t1ZtMHd3__A{fill: #DBF4D7;}#el_zauPtFq5bTK{fill: #C1B4BE;}#el_E0pkxW5-IXP{fill: #E2D2DD;}#el_aVKhLszKj6q{fill: #29353F;}#el_nM4BVzH8tZd{fill: #374757;}#el_JyJff2q1cKu{fill: #499442;}#el_9a5QLTvggd4{fill: #215A2D;}#el_tdlv6HwJdva{fill: #499442;}#el_Un1K3PVwg0A{fill: #499442;}#el_tLhTn5JrcRP{fill: #215A2D;}#el_ktilvyjck-F{fill: #DBF4D7;}#el_8TG1CdZYSjB{fill: #DBF4D7;}#el_5UrmH2xu1X5{fill: #DBF4D7;}#el_bPzu3hUVQAx{fill: #DBF4D7;}#el_cspcU4pd7du{fill: #DBF4D7;}#el_Vk63-UQDwfQ{fill: #DBF4D7;}#el_b9Tmo5Qf6Me{fill: #DD6A3C;}#el_8m8-vH6zC7j{fill: #DD6A3C;}#el_oEBuy_f1sRq{fill: #DD6A3C;}#el_XP7Q446Ua6D{fill: #DD6A3C;}#el_F0KEox7xo51{fill: #DD6A3C;}#el_Hwdz6kgBJEK{fill: #DD6A3C;}#el_5X7w5qxT9O_an_WovEUalY7{-webkit-animation-fill-mode: backwards;animation-fill-mode: backwards;-webkit-transform: translate(96.27424621582031px, 228.6999969482422px) rotate(0deg) translate(-96.27424621582031px, -228.6999969482422px);transform: translate(96.27424621582031px, 228.6999969482422px) rotate(0deg) translate(-96.27424621582031px, -228.6999969482422px);-webkit-animation-name: kf_el_5X7w5qxT9O_an_WovEUalY7;animation-name: kf_el_5X7w5qxT9O_an_WovEUalY7;-webkit-animation-timing-function: cubic-bezier(0, 0, 1, 1);animation-timing-function: cubic-bezier(0, 0, 1, 1);}#el_5X7w5qxT9O_an_VD7vyAyW2{-webkit-animation-fill-mode: backwards;animation-fill-mode: backwards;-webkit-transform: translate(96.27424621582031px, 228.6999969482422px) translate(-96.27424621582031px, -228.6999969482422px) translate(0px, 0px);transform: translate(96.27424621582031px, 228.6999969482422px) translate(-96.27424621582031px, -228.6999969482422px) translate(0px, 0px);-webkit-animation-name: kf_el_5X7w5qxT9O_an_VD7vyAyW2;animation-name: kf_el_5X7w5qxT9O_an_VD7vyAyW2;-webkit-animation-timing-function: cubic-bezier(0, 0, 1, 1);animation-timing-function: cubic-bezier(0, 0, 1, 1);}#el_T_aUoEqElFC_an_TERoXpjqr{-webkit-animation-fill-mode: backwards;animation-fill-mode: backwards;-webkit-transform: translate(149.39999389648438px, 29.940692901611328px) translate(-149.39999389648438px, -29.940692901611328px) translate(0px, 0px);transform: translate(149.39999389648438px, 29.940692901611328px) translate(-149.39999389648438px, -29.940692901611328px) translate(0px, 0px);-webkit-animation-name: kf_el_T_aUoEqElFC_an_TERoXpjqr;animation-name: kf_el_T_aUoEqElFC_an_TERoXpjqr;-webkit-animation-timing-function: cubic-bezier(0, 0, 1, 1);animation-timing-function: cubic-bezier(0, 0, 1, 1);}</style>

<polygon points="306.1,228.7 306.1,516.5 301,521.2 299.5,235.3 " id="el_hd3g2csBhN"/>
<polygon points="306.1,228.7 306.1,516.5 301,521.2 299.5,235.3 " id="el_nedrhWFJTa"/>
<g id="el_5X7w5qxT9O_an_VD7vyAyW2" data-animator-group="true" data-animator-type="0"><g id="el_5X7w5qxT9O_an_WovEUalY7" data-animator-group="true" data-animator-type="1"><g id="el_5X7w5qxT9O">
	<path d="M151.4,405.9c3.7-50.4,20.9-95.2,46-127.9c-16.2-1.2-26.6-4.3-27.2-9.8c-0.3-2.6,1.8-5.6,5.7-8.7&#10;&#9;&#9;c0,0-0.1,0-0.1,0c-44.3,32.4-74.7,83.3-79,142.4c-5.1,69.6,27.3,133.4,80,171.4h26.5C167.4,536.1,146.4,474.2,151.4,405.9z" id="el_a9brsAb8x2"/>
	<path d="M209.4,410.1c3.8-52,15.8-98.5,32.3-132.2c-16.8,0.9-32.2,1-44.3,0c-25.2,32.7-42.3,77.6-46,127.9&#10;&#9;&#9;c-5,68.3,16.1,130.3,52,167.5h30.1C214.4,537,204.5,477,209.4,410.1z" id="el_svqf3H2ybF"/>
	<path d="M261.2,278.6l2.3-1.8c-7.1,0.4-14,0.8-20.8,1.1c-21,33.7-36.3,80.2-41.2,132.2c-6.2,66.9,6.4,126.9,30.6,163.2&#10;&#9;&#9;h14.7C192.9,461.8,261.2,278.6,261.2,278.6z" id="el_yp_qCNSrwW"/>
	<path d="M306.1,228.7l-6.6,6.6c-8.5,0.3-17.3,0.9-26.2,1.8c-24,2.4-46.8,6.7-64.1,12.2c-12,3.8-19.9,8.3-24.5,11.6&#10;&#9;&#9;c-2.9-0.4-5.8-0.9-8.8-1.4c14.4-11.4,54.1-24.6,96.8-28.9C284.3,229.4,295.6,228.8,306.1,228.7z" id="el_R-Bct4tukD"/>
	<path d="M204.9,268.8c-2.6,2.9-5.1,6-7.5,9.1c-16.2-1.2-26.6-4.3-27.2-9.8c-0.3-2.6,1.8-5.6,5.7-8.7&#10;&#9;&#9;c3,0.5,5.9,0.9,8.8,1.4c-2.9,2.1-4.5,3.7-4.9,4.3C181,266.2,188.6,267.1,204.9,268.8z" id="el_by_nqKcMtF"/>
	<path d="M245.4,270.6c-1.3,2.4-2.5,4.8-3.8,7.3c-16.8,0.9-32.2,1-44.3,0c2.4-3.2,4.9-6.2,7.5-9.1&#10;&#9;&#9;c2,0.2,4.1,0.4,6.3,0.7C221.3,270.5,232.9,270.9,245.4,270.6z" id="el_hwnbZw3AxU"/>
	<path d="M265.2,269.6l-7.3,7.3c-5.5,0.4-11,0.8-16.3,1.1c1.2-2.5,2.5-5,3.8-7.3C251.8,270.4,258.5,270.1,265.2,269.6z" id="el_1yKY3UIvHe"/>
	<path d="M299.5,235.3c-8.5,0.3-17.3,0.9-26.2,1.8c-24,2.4-46.8,6.7-64.1,12.2c-12,3.8-19.9,8.3-24.5,11.6&#10;&#9;&#9;c-2.9,2.1-4.5,3.7-4.9,4.3c1.2,1.1,8.8,2,25.1,3.7c2,0.2,4.1,0.4,6.3,0.7c10,1,21.7,1.4,34.2,1.1c6.4-0.2,13.1-0.5,19.8-1&#10;&#9;&#9;c-57.7,245.1-7.6,291.9-7.6,291.9l43.4-40.3L299.5,235.3z M255.3,372.3c2.9-7.8,13.3-2.7,13.3-2.7&#10;&#9;&#9;C267.9,373.9,252.4,380.1,255.3,372.3z M250.1,396.2c2.9-7.8,13.3-2.7,13.3-2.7C262.7,397.7,247.2,403.9,250.1,396.2z M264.5,416.4&#10;&#9;&#9;c-0.7,4.2-16.3,10.5-13.3,2.7C254.1,411.3,264.5,416.4,264.5,416.4z M247,442c2.9-7.8,13.3-2.7,13.3-2.7&#10;&#9;&#9;C259.6,443.6,244,449.8,247,442z M244.9,467.6c2.9-7.8,13.3-2.7,13.3-2.7C257.5,469.2,242,475.4,244.9,467.6z M246.8,489&#10;&#9;&#9;c1.5-8.2,12.6-5,12.6-5C259.5,488.3,245.3,497.1,246.8,489z M255.6,509.8c1.4-8.2,12.6-5.2,12.6-5.2&#10;&#9;&#9;C268.3,508.9,254.2,517.9,255.6,509.8z M259.4,528c1.9-8.1,12.8-4.4,12.8-4.4C272.1,527.8,257.5,536.1,259.4,528z M259.6,349.9&#10;&#9;&#9;c2.9-7.8,13.3-2.7,13.3-2.7C272.1,351.4,256.6,357.6,259.6,349.9z M263.8,324.7c2.9-7.8,13.3-2.7,13.3-2.7&#10;&#9;&#9;C276.4,326.2,260.9,332.4,263.8,324.7z" id="el_35dFNYnm_c"/>
	<path d="M258.3,464.9c-0.7,4.2-16.3,10.5-13.3,2.7C247.9,459.9,258.3,464.9,258.3,464.9z" id="el_vlZUx6YpGV"/>
	<path d="M260.3,439.3c-0.7,4.2-16.3,10.4-13.3,2.7C249.9,434.3,260.3,439.3,260.3,439.3z" id="el_bcHItyoJpa"/>
	<path d="M246.8,489c1.5-8.2,12.6-5,12.6-5C259.5,488.3,245.3,497.1,246.8,489z" id="el_WWvBxLTIr3"/>
	<path d="M263.5,393.5c-0.7,4.2-16.3,10.4-13.3,2.7C253.1,388.4,263.5,393.5,263.5,393.5z" id="el_kBZUeHQ0HU"/>
	<path d="M264.5,416.4c-0.7,4.2-16.3,10.5-13.3,2.7C254.1,411.3,264.5,416.4,264.5,416.4z" id="el_8mfc-UIbO0j"/>
	<path d="M268.6,369.6c-0.7,4.2-16.3,10.5-13.3,2.7C258.3,364.6,268.6,369.6,268.6,369.6z" id="el_daNk6fFTGoY"/>
	<path d="M257.6,561.5l-11.4,10.6l-1.3,1.2c0,0,0,0,0,0c-0.8-1.5-35-66.6-11.2-200.5c0-0.1,0-0.2,0.1-0.3&#10;&#9;&#9;c5.1-28.6,12.8-60.3,24.1-95.2c0-0.1,0.1-0.2,0.1-0.2c0,0,0,0,0-0.1l7.3-7.3C207.6,514.7,257.6,561.5,257.6,561.5z" id="el_55VhFfVh6Ia"/>
	<path d="M272.9,347.2c-0.7,4.2-16.3,10.4-13.3,2.7C262.5,342.1,272.9,347.2,272.9,347.2z" id="el_lB8-4vdWB4N"/>
	<path d="M272.3,523.5c-0.2,4.3-14.7,12.5-12.8,4.4C261.3,519.9,272.3,523.5,272.3,523.5z" id="el_4_WNH6lAZDP"/>
	<path d="M255.6,509.8c1.4-8.2,12.6-5.2,12.6-5.2C268.3,508.9,254.2,517.9,255.6,509.8z" id="el_o9SsH5ebmku"/>
	<path d="M277.1,322c-0.7,4.2-16.3,10.4-13.3,2.7C266.8,316.9,277.1,322,277.1,322z" id="el__ugZcbZouLU"/>
	<path d="M257.6,561.5l-11.4,10.6l-1.3,1.2c0,0,0,0,0,0c-5.7-14.4-10-29.5-13-44.8c0-0.1-0.1-0.3-0.1-0.4&#10;&#9;&#9;c-2.4-12.3-4-24.8-5-37.4c-3.2-41.3,0.8-82.7,6.8-118c0-0.1,0-0.2,0.1-0.3c9-52.6,22.7-91.3,24.1-95.2c0-0.1,0.1-0.2,0.1-0.3&#10;&#9;&#9;c0,0,0,0,0-0.1l7.3-7.3C207.6,514.7,257.6,561.5,257.6,561.5z" id="el_t1ZtMHd3__A"/>
	<path d="M277.4,337c-3,3.1-19.3-0.5-12.5-5.2C271.6,327,277.4,337,277.4,337z" id="el_gOWDhSuxDt8"/>
	<path d="M281.3,312.3c-3.4,2.7-19.1-3-11.7-6.9C277,301.6,281.3,312.3,281.3,312.3z" id="el_mex4o_5Vruu"/>
	<path d="M266.4,390.3c-1.9,3.8-18.5,5.5-13.5-1.1C257.9,382.6,266.4,390.3,266.4,390.3z" id="el_sKocpKNzMnf"/>
	<path d="M271.3,362.4c-0.7,4.2-16.3,10.4-13.3,2.7C260.9,357.3,271.3,362.4,271.3,362.4z" id="el_b6YdNF-4XOb"/>
	<path d="M264.5,416.4c-0.7,4.2-16.3,10.5-13.3,2.7C254.1,411.3,264.5,416.4,264.5,416.4z" id="el_vDssK1pDa1O"/>
	<path d="M263.6,448.7c0.4,4.3-13,14.3-12.2,6.1C252.3,446.6,263.6,448.7,263.6,448.7z" id="el_VgRfVzWa4ke"/>
	<path d="M264.6,475.9c1.1,4.1-10.2,16.4-10.9,8.2C253.1,475.7,264.6,475.9,264.6,475.9z" id="el_C2gLqEnWHQQ"/>
	<path d="M269.6,502.9c1.3,4.1-9.7,16.7-10.7,8.4C258,503.1,269.6,502.9,269.6,502.9z" id="el_EEHAJy4Spco"/>
	<path d="M272,527.1c2.1,3.8-6.1,18.3-8.7,10.5C260.8,529.6,272,527.1,272,527.1z" id="el_Waa5WpnIZJd"/>
</g></g></g>
<g id="el_T_aUoEqElFC_an_TERoXpjqr" data-animator-group="true" data-animator-type="0"><g id="el_T_aUoEqElFC">
	<g id="el___oTyKDFcHB">
		<polygon points="315.8,150.6 149.4,395.8 321,157.8 &#9;&#9;" id="el_zauPtFq5bTK"/>
		<path d="M320.9,157.8L149.4,395.8c57.9-17.6,175.1-201.9,175.1-201.9L320.9,157.8z" id="el_E0pkxW5-IXP"/>
		<path d="M425.7,44.5c2.9-32.7-27.5-0.1-27.5-0.1l-82.4,106.3l4.5,8.4" id="el_aVKhLszKj6q"/>
	</g>
	<path d="M425.7,44.5C419.4,44,320.3,159,320.3,159l2.2,13.4c0,0,87-115,102.9-121.8L425.7,44.5z" id="el_nM4BVzH8tZd"/>
</g></g>
<g id="el_bLDJGlABVU5">
	<path d="M369.6,240.6c1,1.1,1.5,2.2,1.6,3.5c0.3,2.5-1.4,5.1-4.8,7.7c40.2,36.1,64.5,101.6,59.2,174.4&#10;&#9;&#9;c-4.5,61.1-28.8,114-63.1,147.2h37.6c44.9-32.4,75.7-83.6,80.1-143.2C486.3,347.9,440,273.9,369.6,240.6z" id="el_JyJff2q1cKu"/>
	<path d="M425.7,426.2c5.3-72.8-18.9-138.3-59.2-174.4c-4.5,3.4-11.8,6.8-21.4,9.9c18.1,36.5,27.3,95.1,22.5,160.3&#10;&#9;&#9;c-4.6,62.7-21.1,117.5-43,151.4h37.9C396.9,540.2,421.2,487.2,425.7,426.2z" id="el_9a5QLTvggd4"/>
	<path d="M345.1,261.6c-8.3,2.7-18.1,5.2-29.1,7.3c3.6,35.9,3.7,89.5-0.6,149.1c-4.7,64.1-13.4,120.6-23.1,155.2h32.4&#10;&#9;&#9;c21.9-33.9,38.4-88.7,43-151.4C372.4,356.8,363.2,298.2,345.1,261.6z" id="el_tdlv6HwJdva"/>
	<path d="M258.5,413.9c4-55,11-104.3,19-139.2c-1.2,0.1-2.4,0.3-3.6,0.4c-6.5,0.6-12.9,1.2-19.2,1.7l-1.8,1.8&#10;&#9;&#9;c0,0-53.5,183.1-11.3,294.7H259C254.2,537.8,253.7,479.5,258.5,413.9z" id="el_Un1K3PVwg0A"/>
	<path d="M316,269c-11.7,2.3-24.8,4.3-38.5,5.8c-8,34.8-15,84.2-19,139.2c-4.8,65.6-4.2,123.9,0.6,159.4h33.2&#10;&#9;&#9;c9.6-34.7,18.4-91.1,23.1-155.2C319.7,358.5,319.6,304.9,316,269z" id="el_tLhTn5JrcRP"/>
	<path d="M335.3,236.3c19.8,2.1,25.9,5.9,27.5,7.2c2.3-1,4.5-2,6.6-3c0.1,0,0.1,0.1,0.2,0.1c-6.7-7.7-33-12.3-66.7-12&#10;&#9;&#9;l-6.6,6.6C310.6,234.8,324,235.1,335.3,236.3z" id="el_ktilvyjck-F"/>
	<path d="M362.8,243.5c0.1,0.1,0.1,0.1,0.2,0.1c-0.4,0.5-1.2,1.5-2.9,2.7c2.2,1.7,4.3,3.5,6.4,5.4&#10;&#9;&#9;c3.3-2.6,5-5.1,4.8-7.7c-0.1-1.2-0.7-2.4-1.6-3.5c-0.1,0-0.1-0.1-0.2-0.1C367.4,241.5,365.2,242.5,362.8,243.5z" id="el_8TG1CdZYSjB"/>
	<path d="M341.6,255c1.2,2.1,2.4,4.3,3.5,6.6c9.6-3.1,16.9-6.5,21.4-9.9c-2.1-1.9-4.2-3.7-6.4-5.4&#10;&#9;&#9;C357.2,248.5,351.8,251.6,341.6,255z" id="el_5UrmH2xu1X5"/>
	<path d="M337.4,256.4c-6.6,2.1-14.1,4-22.1,5.7c0.3,2.2,0.5,4.5,0.8,6.8c11-2.2,20.9-4.7,29.1-7.3&#10;&#9;&#9;c-1.1-2.3-2.3-4.5-3.5-6.6C340.3,255.5,338.9,256,337.4,256.4z" id="el_bPzu3hUVQAx"/>
	<path d="M273.3,268.6c-3.8,0.4-7.5,0.7-11.2,1l-7.3,7.3c6.3-0.5,12.7-1,19.2-1.7c1.2-0.1,2.4-0.2,3.6-0.4&#10;&#9;&#9;c0.5-2.3,1.1-4.6,1.6-6.8C277.2,268.2,275.2,268.4,273.3,268.6z" id="el_cspcU4pd7du"/>
	<path d="M279.1,268c-0.5,2.2-1.1,4.5-1.6,6.8c13.7-1.5,26.8-3.5,38.5-5.8c-0.2-2.4-0.5-4.6-0.8-6.8&#10;&#9;&#9;C304.1,264.5,291.8,266.5,279.1,268z" id="el_Vk63-UQDwfQ"/>
	<path d="M280.1,263.9c12.6-1.2,24.1-3.1,34.6-5.3c9.1-1.9,17.5-4.2,25.1-6.6c6.9-2.2,13.2-4.5,18.8-6.8&#10;&#9;&#9;c1.4-0.6,2.8-1.2,4.2-1.8c-1.6-1.4-7.7-5.2-27.5-7.2c-11.3-1.2-24.7-1.5-39.1-1L266.6,265C271.3,264.7,275.8,264.4,280.1,263.9z" id="el_b9Tmo5Qf6Me"/>
	<path d="M360.1,246.4c1.7-1.3,2.6-2.2,2.9-2.7c0,0-0.1-0.1-0.2-0.1c-1.4,0.6-2.7,1.2-4.2,1.8&#10;&#9;&#9;C359.2,245.6,359.6,246,360.1,246.4z" id="el_8m8-vH6zC7j"/>
	<path d="M339.9,252c0.6,1,1.2,2,1.8,3c10.1-3.5,15.6-6.5,18.5-8.6c-0.5-0.4-0.9-0.8-1.4-1.1&#10;&#9;&#9;C353,247.6,346.8,249.9,339.9,252z" id="el_oEBuy_f1sRq"/>
	<path d="M314.8,258.6c0.2,1.2,0.3,2.3,0.5,3.5c8-1.7,15.5-3.6,22.1-5.7c1.5-0.5,2.9-0.9,4.3-1.4c-0.6-1-1.2-2-1.8-3&#10;&#9;&#9;C332.3,254.4,323.9,256.7,314.8,258.6z" id="el_XP7Q446Ua6D"/>
	<path d="M266.6,265l-4.6,4.6c3.7-0.3,7.4-0.6,11.2-1c2-0.2,3.9-0.4,5.9-0.6c0.3-1.4,0.7-2.7,1-4&#10;&#9;&#9;C275.8,264.4,271.3,264.7,266.6,265z" id="el_F0KEox7xo51"/>
	<path d="M280.1,263.9c-0.3,1.3-0.7,2.7-1,4c12.7-1.5,25-3.4,36.1-5.8c-0.1-1.2-0.3-2.4-0.5-3.5&#10;&#9;&#9;C304.3,260.9,292.7,262.7,280.1,263.9z" id="el_Hwdz6kgBJEK"/>
</g>
</svg>