<?xml version="1.0" encoding="utf-8"?>
<!-- Generator: Adobe Illustrator 22.1.0, SVG Export Plug-In . SVG Version: 6.00 Build 0)  -->
<svg version="1.1" id="Layer_1" xmlns="http://www.w3.org/2000/svg" xmlns:xlink="http://www.w3.org/1999/xlink" x="0px" y="0px"
	 viewBox="0 0 193.5 203.9" style="enable-background:new 0 0 193.5 203.9;" xml:space="preserve">
<style type="text/css">
	.st0{fill:#F3B500;}
	.st1{fill:#FFAD00;}
	.st2{fill:#EFB703;}
	.st3{fill:#FFCA02;}
	.st4{fill:#FCE012;}
</style>
<g id="Layer_2_1_">
	<path class="st0" d="M249.6-137.6"/>
</g>
<g>
	<path class="st1" d="M134.8,91c-8.7,25.3-13.7,44.8-74.8,32.7c-31.5-6.3-55.5-37.3-56.9-63c1.4,24.2,24.9,47.1,56.4,53.3
		C120.6,126,126.1,115.7,134.8,91z"/>
	<path class="st2" d="M135.7,88.5c-0.2,0.4-0.3,0.8-0.4,1.2s-0.3,0.8-0.4,1.2c-8.7,24.7-14.2,35-75.4,22.9
		C28.1,107.7,4.6,84.7,3.1,60.6c0,0,0,0,0,0c0-0.5,0-0.9,0-1.3c0-0.9,0-1.7,0-2.6c0-0.7,0.1-1.6,0.1-2.5c0-0.5,0.1-0.9,0.2-1.3
		L135.7,88.5z"/>
</g>
<g>
	<path class="st1" d="M134,64.7c4.5,26.8,9.4,46.2-47.4,75.2c-29.3,14.9-64,4.3-77.1-16.3c12.5,19.3,42.8,23.5,72.1,8.6
		C138.5,103.2,138.3,91,134,64.7z"/>
	<path class="st3" d="M133.6,62.1c0,0.4,0.1,0.9,0.2,1.3c0,0.4,0.1,0.9,0.2,1.3c4.3,26.3,4.4,38.4-52.4,67.4
		c-29.3,14.9-59.7,10.7-72.1-8.6l0,0c-0.2-0.3-0.5-0.8-0.7-1.1c-0.4-0.8-0.8-1.4-1.1-2.1c-0.3-0.8-0.7-1.5-1.1-2.3
		c-0.2-0.4-0.3-0.8-0.5-1.2L133.6,62.1z"/>
</g>
<g>
	<path class="st1" d="M192.7,75.7c1.9,27.2,4.8,47.2-54.5,68.3c-30.6,10.9-64-4.3-74.9-26.6c10.5,20.9,40.3,29.1,70.7,18.2
		C193.3,114.5,194.4,102.4,192.7,75.7z"/>
	<path class="st4" d="M192.5,73.1c0,0.5,0,0.9,0.1,1.3c0,0.4,0,0.9,0,1.3c1.6,26.7,0.6,38.8-58.7,59.9
		c-30.5,10.8-60.3,2.6-70.7-18.2c0,0,0,0,0,0c-0.2-0.4-0.4-0.8-0.6-1.1c-0.3-0.8-0.7-1.5-1-2.3c-0.3-0.8-0.6-1.6-0.8-2.3
		c-0.1-0.4-0.2-0.9-0.3-1.3L192.5,73.1z"/>
</g>
</svg>
