<svg version="1.1" id="el_9qKSiSZ7T" xmlns="http://www.w3.org/2000/svg" xmlns:xlink="http://www.w3.org/1999/xlink" x="0px" y="0px" viewBox="0 0 576 576" style="enable-background:new 0 0 576 576;" xml:space="preserve"><style>@-webkit-keyframes kf_el_LgtZhi3eECy_an_gvKGuGNmJ{40%{-webkit-transform: translate(218.39999389648438px, 258.4000244140625px) translate(-218.39999389648438px, -258.4000244140625px) translate(0px, 0px);transform: translate(218.39999389648438px, 258.4000244140625px) translate(-218.39999389648438px, -258.4000244140625px) translate(0px, 0px);}72.22%{-webkit-transform: translate(218.39999389648438px, 258.4000244140625px) translate(-218.39999389648438px, -258.4000244140625px) translate(-1000px, 0px);transform: translate(218.39999389648438px, 258.4000244140625px) translate(-218.39999389648438px, -258.4000244140625px) translate(-1000px, 0px);}0%{-webkit-transform: translate(218.39999389648438px, 258.4000244140625px) translate(-218.39999389648438px, -258.4000244140625px) translate(0px, 0px);transform: translate(218.39999389648438px, 258.4000244140625px) translate(-218.39999389648438px, -258.4000244140625px) translate(0px, 0px);}100%{-webkit-transform: translate(218.39999389648438px, 258.4000244140625px) translate(-218.39999389648438px, -258.4000244140625px) translate(-1000px, 0px);transform: translate(218.39999389648438px, 258.4000244140625px) translate(-218.39999389648438px, -258.4000244140625px) translate(-1000px, 0px);}}@keyframes kf_el_LgtZhi3eECy_an_gvKGuGNmJ{40%{-webkit-transform: translate(218.39999389648438px, 258.4000244140625px) translate(-218.39999389648438px, -258.4000244140625px) translate(0px, 0px);transform: translate(218.39999389648438px, 258.4000244140625px) translate(-218.39999389648438px, -258.4000244140625px) translate(0px, 0px);}72.22%{-webkit-transform: translate(218.39999389648438px, 258.4000244140625px) translate(-218.39999389648438px, -258.4000244140625px) translate(-1000px, 0px);transform: translate(218.39999389648438px, 258.4000244140625px) translate(-218.39999389648438px, -258.4000244140625px) translate(-1000px, 0px);}0%{-webkit-transform: translate(218.39999389648438px, 258.4000244140625px) translate(-218.39999389648438px, -258.4000244140625px) translate(0px, 0px);transform: translate(218.39999389648438px, 258.4000244140625px) translate(-218.39999389648438px, -258.4000244140625px) translate(0px, 0px);}100%{-webkit-transform: translate(218.39999389648438px, 258.4000244140625px) translate(-218.39999389648438px, -258.4000244140625px) translate(-1000px, 0px);transform: translate(218.39999389648438px, 258.4000244140625px) translate(-218.39999389648438px, -258.4000244140625px) translate(-1000px, 0px);}}@-webkit-keyframes kf_el_LgtZhi3eECy_an_HoJAas5iz{0%{opacity: 0;}34.44%{opacity: 0;}40%{opacity: 1;}100%{opacity: 1;}}@keyframes kf_el_LgtZhi3eECy_an_HoJAas5iz{0%{opacity: 0;}34.44%{opacity: 0;}40%{opacity: 1;}100%{opacity: 1;}}@-webkit-keyframes kf_el_j2BUWsRlbik_an_7gJv4O4Xs{0%{opacity: 0;}34.44%{opacity: 0;}40%{opacity: 1;}100%{opacity: 1;}}@keyframes kf_el_j2BUWsRlbik_an_7gJv4O4Xs{0%{opacity: 0;}34.44%{opacity: 0;}40%{opacity: 1;}100%{opacity: 1;}}@-webkit-keyframes kf_el_hceSvYNGK-R_an_YHqfrCHFV{0%{opacity: 0;}34.44%{opacity: 0;}40%{opacity: 1;}100%{opacity: 1;}}@keyframes kf_el_hceSvYNGK-R_an_YHqfrCHFV{0%{opacity: 0;}34.44%{opacity: 0;}40%{opacity: 1;}100%{opacity: 1;}}@-webkit-keyframes kf_el_j2BUWsRlbik_an_zcL0N4nW5{40%{-webkit-transform: translate(1.5091133117675781px, 142.73587036132812px) translate(-1.5091133117675781px, -142.73587036132812px) translate(0px, 0px);transform: translate(1.5091133117675781px, 142.73587036132812px) translate(-1.5091133117675781px, -142.73587036132812px) translate(0px, 0px);}81.11%{-webkit-transform: translate(1.5091133117675781px, 142.73587036132812px) translate(-1.5091133117675781px, -142.73587036132812px) translate(0px, 700px);transform: translate(1.5091133117675781px, 142.73587036132812px) translate(-1.5091133117675781px, -142.73587036132812px) translate(0px, 700px);}0%{-webkit-transform: translate(1.5091133117675781px, 142.73587036132812px) translate(-1.5091133117675781px, -142.73587036132812px) translate(0px, 0px);transform: translate(1.5091133117675781px, 142.73587036132812px) translate(-1.5091133117675781px, -142.73587036132812px) translate(0px, 0px);}100%{-webkit-transform: translate(1.5091133117675781px, 142.73587036132812px) translate(-1.5091133117675781px, -142.73587036132812px) translate(0px, 700px);transform: translate(1.5091133117675781px, 142.73587036132812px) translate(-1.5091133117675781px, -142.73587036132812px) translate(0px, 700px);}}@keyframes kf_el_j2BUWsRlbik_an_zcL0N4nW5{40%{-webkit-transform: translate(1.5091133117675781px, 142.73587036132812px) translate(-1.5091133117675781px, -142.73587036132812px) translate(0px, 0px);transform: translate(1.5091133117675781px, 142.73587036132812px) translate(-1.5091133117675781px, -142.73587036132812px) translate(0px, 0px);}81.11%{-webkit-transform: translate(1.5091133117675781px, 142.73587036132812px) translate(-1.5091133117675781px, -142.73587036132812px) translate(0px, 700px);transform: translate(1.5091133117675781px, 142.73587036132812px) translate(-1.5091133117675781px, -142.73587036132812px) translate(0px, 700px);}0%{-webkit-transform: translate(1.5091133117675781px, 142.73587036132812px) translate(-1.5091133117675781px, -142.73587036132812px) translate(0px, 0px);transform: translate(1.5091133117675781px, 142.73587036132812px) translate(-1.5091133117675781px, -142.73587036132812px) translate(0px, 0px);}100%{-webkit-transform: translate(1.5091133117675781px, 142.73587036132812px) translate(-1.5091133117675781px, -142.73587036132812px) translate(0px, 700px);transform: translate(1.5091133117675781px, 142.73587036132812px) translate(-1.5091133117675781px, -142.73587036132812px) translate(0px, 700px);}}@-webkit-keyframes kf_el_y2PuL5Q61Wu_an_zq4lI3Nuq{0%{opacity: 1;}27.78%{opacity: 0;}100%{opacity: 0;}}@keyframes kf_el_y2PuL5Q61Wu_an_zq4lI3Nuq{0%{opacity: 1;}27.78%{opacity: 0;}100%{opacity: 0;}}@-webkit-keyframes kf_el_y2PuL5Q61Wu_an_LPuP73MOZ{0%{-webkit-transform: translate(327.3999938964844px, 121.40001678466797px) translate(-327.3999938964844px, -121.40001678466797px) translate(0px, 0px);transform: translate(327.3999938964844px, 121.40001678466797px) translate(-327.3999938964844px, -121.40001678466797px) translate(0px, 0px);}100%{-webkit-transform: translate(327.3999938964844px, 121.40001678466797px) translate(-327.3999938964844px, -121.40001678466797px) translate(0px, 0px);transform: translate(327.3999938964844px, 121.40001678466797px) translate(-327.3999938964844px, -121.40001678466797px) translate(0px, 0px);}}@keyframes kf_el_y2PuL5Q61Wu_an_LPuP73MOZ{0%{-webkit-transform: translate(327.3999938964844px, 121.40001678466797px) translate(-327.3999938964844px, -121.40001678466797px) translate(0px, 0px);transform: translate(327.3999938964844px, 121.40001678466797px) translate(-327.3999938964844px, -121.40001678466797px) translate(0px, 0px);}100%{-webkit-transform: translate(327.3999938964844px, 121.40001678466797px) translate(-327.3999938964844px, -121.40001678466797px) translate(0px, 0px);transform: translate(327.3999938964844px, 121.40001678466797px) translate(-327.3999938964844px, -121.40001678466797px) translate(0px, 0px);}}@-webkit-keyframes kf_el_9sbpYa9PUDU_an_31ZPWc_En{0%{-webkit-transform: translate(257.5303955078125px, 144.3000030517578px) translate(-257.5303955078125px, -144.3000030517578px) translate(0px, 0px);transform: translate(257.5303955078125px, 144.3000030517578px) translate(-257.5303955078125px, -144.3000030517578px) translate(0px, 0px);}14.44%{-webkit-transform: translate(257.5303955078125px, 144.3000030517578px) translate(-257.5303955078125px, -144.3000030517578px) translate(-1000px, 0px);transform: translate(257.5303955078125px, 144.3000030517578px) translate(-257.5303955078125px, -144.3000030517578px) translate(-1000px, 0px);}100%{-webkit-transform: translate(257.5303955078125px, 144.3000030517578px) translate(-257.5303955078125px, -144.3000030517578px) translate(-1000px, 0px);transform: translate(257.5303955078125px, 144.3000030517578px) translate(-257.5303955078125px, -144.3000030517578px) translate(-1000px, 0px);}}@keyframes kf_el_9sbpYa9PUDU_an_31ZPWc_En{0%{-webkit-transform: translate(257.5303955078125px, 144.3000030517578px) translate(-257.5303955078125px, -144.3000030517578px) translate(0px, 0px);transform: translate(257.5303955078125px, 144.3000030517578px) translate(-257.5303955078125px, -144.3000030517578px) translate(0px, 0px);}14.44%{-webkit-transform: translate(257.5303955078125px, 144.3000030517578px) translate(-257.5303955078125px, -144.3000030517578px) translate(-1000px, 0px);transform: translate(257.5303955078125px, 144.3000030517578px) translate(-257.5303955078125px, -144.3000030517578px) translate(-1000px, 0px);}100%{-webkit-transform: translate(257.5303955078125px, 144.3000030517578px) translate(-257.5303955078125px, -144.3000030517578px) translate(-1000px, 0px);transform: translate(257.5303955078125px, 144.3000030517578px) translate(-257.5303955078125px, -144.3000030517578px) translate(-1000px, 0px);}}@-webkit-keyframes kf_el_HT4q0UeDg2H_an_41ffpcu3K{0%{-webkit-transform: translate(1.5164375305175781px, 146.8278045654297px) translate(-1.5164375305175781px, -146.8278045654297px) translate(0px, 0px);transform: translate(1.5164375305175781px, 146.8278045654297px) translate(-1.5164375305175781px, -146.8278045654297px) translate(0px, 0px);}35.56%{-webkit-transform: translate(1.5164375305175781px, 146.8278045654297px) translate(-1.5164375305175781px, -146.8278045654297px) translate(0px, 700px);transform: translate(1.5164375305175781px, 146.8278045654297px) translate(-1.5164375305175781px, -146.8278045654297px) translate(0px, 700px);}100%{-webkit-transform: translate(1.5164375305175781px, 146.8278045654297px) translate(-1.5164375305175781px, -146.8278045654297px) translate(0px, 700px);transform: translate(1.5164375305175781px, 146.8278045654297px) translate(-1.5164375305175781px, -146.8278045654297px) translate(0px, 700px);}}@keyframes kf_el_HT4q0UeDg2H_an_41ffpcu3K{0%{-webkit-transform: translate(1.5164375305175781px, 146.8278045654297px) translate(-1.5164375305175781px, -146.8278045654297px) translate(0px, 0px);transform: translate(1.5164375305175781px, 146.8278045654297px) translate(-1.5164375305175781px, -146.8278045654297px) translate(0px, 0px);}35.56%{-webkit-transform: translate(1.5164375305175781px, 146.8278045654297px) translate(-1.5164375305175781px, -146.8278045654297px) translate(0px, 700px);transform: translate(1.5164375305175781px, 146.8278045654297px) translate(-1.5164375305175781px, -146.8278045654297px) translate(0px, 700px);}100%{-webkit-transform: translate(1.5164375305175781px, 146.8278045654297px) translate(-1.5164375305175781px, -146.8278045654297px) translate(0px, 700px);transform: translate(1.5164375305175781px, 146.8278045654297px) translate(-1.5164375305175781px, -146.8278045654297px) translate(0px, 700px);}}#el_9qKSiSZ7T *{-webkit-animation-duration: 3s;animation-duration: 3s;-webkit-animation-iteration-count: infinite;animation-iteration-count: infinite;-webkit-animation-timing-function: cubic-bezier(0, 0, 1, 1);animation-timing-function: cubic-bezier(0, 0, 1, 1);}#el_h5-X8Q73Uf{fill: #FECF25;}#el_SQQSxmUeyU{fill: #FECF25;}#el_T69DQLYz_p{fill: #FECF25;}#el_rcGm2BMAWU{fill: #F9DC0B;}#el_V83h_hiIzk{fill: #FECF25;}#el_vENYHtaZvU{fill: #EAC50F;}#el_ONEe8DL64t{fill: #C1B4BE;}#el_CmlIk--ZbD{fill: #E2D2DD;}#el_lq9Uz0gF5N{fill: #374757;}#el_GqgzZHiypA{fill: #FECF25;}#el_953aakLZv8k{fill: #FECF25;}#el_qoDkxeyOVHF{fill: #FECF25;}#el_QcU4iLkwOUR{fill: #FECF25;}#el_HawSVuw5Ur6{fill: #FECF25;}#el_MpmN0NQxcob{fill: #FECF25;}#el_TmcQZuKnr88{fill: #F9DC0B;}#el_H04Fa2A-MYZ{fill: #FECF25;}#el_K3wakwCJkU4{fill: #FECF25;}#el_R8jdsCJvac-{fill: #EAC50F;}#el_Bl24cMlvPl2{fill: #C1B4BE;}#el_B_jMriu7VKs{fill: #E2D2DD;}#el__fCWHm8GfVG{fill: #374757;}#el_KfhTj1A5Wc-{fill: #F2D10C;}#el_Y_kkHUEOVF1{fill: #F2D10C;}#el_C0sGewx8EHG{fill: #F2D10C;}#el_Bg4L9FVo_0n{fill: #F2D10C;}#el_ZhYuDURho9l{fill: #F2D10C;}#el_Uqcp378uVQi{fill: #F2D10C;}#el_8nFtcnh56qG{fill: #F2D10C;}#el_6RI0QgLI8gO{fill: #F2D10C;}#el_v9lmC0uGYxg{fill: #F2D10C;}#el_71ss_prE_de{fill: #F2D10C;}#el_F8wupcK5ykc{fill: #F2D10C;}#el_c1K8Km_sakC{fill: #F2D10C;}#el_nESIW-cMeX2{fill: #F2D10C;}#el_j9kSVbvqz66{fill: #F2D10C;}#el_UbuqeucW4xf{fill: #F2D10C;}#el_kXdhrjjA5Ej{fill: #F2D10C;}#el_rvzFqNpYiO3{fill: #F2D10C;}#el_3amVNemAgox{fill: #F2D10C;}#el_Ih-nJcZn5ve{fill: #F2D10C;}#el_3tv7YL0ds-M{fill: #FECF25;}#el_VYP3br0ZjeE{fill: none;}#el_eIyis3iGcef{fill: #F2D10C;}#el_4wpNJWmTS1W{fill: #F9DC0B;}#el_EnKYoIS0LR8{fill: #EAC50F;}#el_DWEVWIOJ_t8{fill: #F2D10C;}#el_mhd0gHB2vjE{fill: #F2D10C;}#el_wL-irgP0j-E{fill: #F2D10C;}#el_nf9wzInxix-{fill: #F2D10C;}#el_KcZxWvVPklm{fill: #F2D10C;}#el_8UhdHxctxUv{fill: #F2D10C;}#el_94Ojac-_hr4{fill: #F2D10C;}#el_ZfPhaahMmLf{fill: #F2D10C;}#el_6gyiJmPzHGx{fill: #F2D10C;}#el_jc8cUZ3vLHP{fill: #FECF25;}#el_LbxhQ7pWDoO{fill: #F2D10C;}#el_qaRsbdTq45u{fill: #F2D10C;}#el_sEk6gyopJcR{fill: #F2D10C;}#el_HdasuhMHPnB{fill: #F2D10C;}#el_1NtbgwttsL4{fill: #F2D10C;}#el_E5NxLANhSMy{fill: #F2D10C;}#el_jmqZ0VOxWRN{fill: #EAC50F;}#el_QW5s2J3G-Ve{fill: #FECF25;}#el__8uFobhrA1L{fill: #F9DC0B;}#el_Ura8GjlOQrt{fill: #FECF25;}#el_-dEVZ3ExVWY{fill: #F9DC0B;}#el_24fk45WM0On{fill: #F9DC0B;}#el_X-k5wgcOdk_{fill: #EAC50F;}#el_QQa8O94d9kF{fill: #EAC50F;}#el_Z5x9sKbJtNf{fill: #F9DC0B;}#el_bUVNYOiNiwU{fill: #EAC50F;}#el__Rt4E_QPG64{fill: #EAC50F;}#el_z_68W7dLN9H{fill: #FECF25;}#el_fpoiK3DE82l{fill: #FECF25;}#el_KBh2Ne9zb1E{fill: #FECF25;}#el_4SsdwmvXXC5{fill: #C1B4BE;}#el_1axEK-z-O6n{fill: #E2D2DD;}#el_uHkz8sq6OsL{fill: #374757;}#el_-m9PpFZf4SM{fill: #EAC50F;}#el_0RXL2lNv07v{fill: none;}#el_LhUfVaHFwDn{fill: #F9DC0B;}#el_FLsAkv3GuIp{fill: #EAC50F;}#el_WUUnQadtPue{fill: #EAC50F;}#el_zvh9AflyB58{fill: #EAC50F;}#el_LfawNCwKQmp{fill: #F2D10C;}#el_2ovmN7JALsa{fill: #F2D10C;}#el_vufVXC-g3Iw{fill: #F2D10C;}#el_WXlUViPMN0a{fill: #F2D10C;}#el_VdvbJtX2t6L{fill: #F2D10C;}#el_aGVfnKlRvhR{fill: #FECF25;}#el_5BMvyXYiljP{fill: #FECF25;}#el_OOmJgF7_MRh{fill: #FECF25;}#el_S4kvzhfGElN{fill: #FECF25;}#el_BqBgScIst-r{fill: #E5C213;}#el_VBVp7w_5h8T{fill: #E5C213;}#el_rkhPXIg7NPL{fill: #E5C213;}#el_UV_cuzIItxu{fill: #E5C213;}#el_b32NcKysyXv{fill: #EAC50F;}#el_bfKcg0A6_bA{fill: #EAC50F;}#el_Wwhb-B6lWJC{fill: #EAC50F;}#el_LP9Jdw2CCPb{fill: #EAC50F;}#el_xnW7C-JLMvM{fill: #EAC50F;}#el_ZOZW9a_CR1L{fill: #EAC50F;}#el_csgKsz9Chbq{fill: #EAC50F;}#el_j5oySILAX1g{fill: #EAC50F;}#el_kfqLCa3WtYO{fill: #EAC50F;}#el_jO4y1VAj3H2{fill: #EAC50F;}#el_-SPhsZpAfJ4{fill: #F2D10C;}#el_2OTIWE_PBtz{fill: #EAC50F;}#el_bgZR0R3oNA{visibility: hidden;}#el_Lcz38ip1VW{visibility: hidden;}#el_g3NGjAewtL{visibility: hidden;}#el_HT4q0UeDg2H_an_41ffpcu3K{-webkit-animation-fill-mode: backwards;animation-fill-mode: backwards;-webkit-transform: translate(1.5164375305175781px, 146.8278045654297px) translate(-1.5164375305175781px, -146.8278045654297px) translate(0px, 0px);transform: translate(1.5164375305175781px, 146.8278045654297px) translate(-1.5164375305175781px, -146.8278045654297px) translate(0px, 0px);-webkit-animation-name: kf_el_HT4q0UeDg2H_an_41ffpcu3K;animation-name: kf_el_HT4q0UeDg2H_an_41ffpcu3K;-webkit-animation-timing-function: cubic-bezier(0, 0, 1, 1);animation-timing-function: cubic-bezier(0, 0, 1, 1);}#el_9sbpYa9PUDU_an_31ZPWc_En{-webkit-animation-fill-mode: backwards;animation-fill-mode: backwards;-webkit-transform: translate(257.5303955078125px, 144.3000030517578px) translate(-257.5303955078125px, -144.3000030517578px) translate(0px, 0px);transform: translate(257.5303955078125px, 144.3000030517578px) translate(-257.5303955078125px, -144.3000030517578px) translate(0px, 0px);-webkit-animation-name: kf_el_9sbpYa9PUDU_an_31ZPWc_En;animation-name: kf_el_9sbpYa9PUDU_an_31ZPWc_En;-webkit-animation-timing-function: cubic-bezier(0, 0, 1, 1);animation-timing-function: cubic-bezier(0, 0, 1, 1);}#el_y2PuL5Q61Wu_an_LPuP73MOZ{-webkit-animation-fill-mode: backwards;animation-fill-mode: backwards;-webkit-transform: translate(327.3999938964844px, 121.40001678466797px) translate(-327.3999938964844px, -121.40001678466797px) translate(0px, 0px);transform: translate(327.3999938964844px, 121.40001678466797px) translate(-327.3999938964844px, -121.40001678466797px) translate(0px, 0px);-webkit-animation-name: kf_el_y2PuL5Q61Wu_an_LPuP73MOZ;animation-name: kf_el_y2PuL5Q61Wu_an_LPuP73MOZ;-webkit-animation-timing-function: cubic-bezier(0, 0, 1, 1);animation-timing-function: cubic-bezier(0, 0, 1, 1);}#el_y2PuL5Q61Wu{-webkit-animation-fill-mode: backwards;animation-fill-mode: backwards;opacity: 1;-webkit-animation-name: kf_el_y2PuL5Q61Wu_an_zq4lI3Nuq;animation-name: kf_el_y2PuL5Q61Wu_an_zq4lI3Nuq;-webkit-animation-timing-function: cubic-bezier(0, 0, 1, 1);animation-timing-function: cubic-bezier(0, 0, 1, 1);}#el_j2BUWsRlbik_an_zcL0N4nW5{-webkit-animation-fill-mode: backwards;animation-fill-mode: backwards;-webkit-transform: translate(1.5091133117675781px, 142.73587036132812px) translate(-1.5091133117675781px, -142.73587036132812px) translate(0px, 0px);transform: translate(1.5091133117675781px, 142.73587036132812px) translate(-1.5091133117675781px, -142.73587036132812px) translate(0px, 0px);-webkit-animation-name: kf_el_j2BUWsRlbik_an_zcL0N4nW5;animation-name: kf_el_j2BUWsRlbik_an_zcL0N4nW5;-webkit-animation-timing-function: cubic-bezier(0, 0, 1, 1);animation-timing-function: cubic-bezier(0, 0, 1, 1);}#el_hceSvYNGK-R{-webkit-animation-fill-mode: backwards;animation-fill-mode: backwards;opacity: 0;-webkit-animation-name: kf_el_hceSvYNGK-R_an_YHqfrCHFV;animation-name: kf_el_hceSvYNGK-R_an_YHqfrCHFV;-webkit-animation-timing-function: cubic-bezier(0, 0, 1, 1);animation-timing-function: cubic-bezier(0, 0, 1, 1);}#el_j2BUWsRlbik{-webkit-animation-fill-mode: backwards;animation-fill-mode: backwards;opacity: 0;-webkit-animation-name: kf_el_j2BUWsRlbik_an_7gJv4O4Xs;animation-name: kf_el_j2BUWsRlbik_an_7gJv4O4Xs;-webkit-animation-timing-function: cubic-bezier(0, 0, 1, 1);animation-timing-function: cubic-bezier(0, 0, 1, 1);}#el_LgtZhi3eECy{-webkit-animation-fill-mode: backwards;animation-fill-mode: backwards;opacity: 0;-webkit-animation-name: kf_el_LgtZhi3eECy_an_HoJAas5iz;animation-name: kf_el_LgtZhi3eECy_an_HoJAas5iz;-webkit-animation-timing-function: cubic-bezier(0, 0, 1, 1);animation-timing-function: cubic-bezier(0, 0, 1, 1);}#el_LgtZhi3eECy_an_gvKGuGNmJ{-webkit-animation-fill-mode: backwards;animation-fill-mode: backwards;-webkit-transform: translate(218.39999389648438px, 258.4000244140625px) translate(-218.39999389648438px, -258.4000244140625px) translate(0px, 0px);transform: translate(218.39999389648438px, 258.4000244140625px) translate(-218.39999389648438px, -258.4000244140625px) translate(0px, 0px);-webkit-animation-name: kf_el_LgtZhi3eECy_an_gvKGuGNmJ;animation-name: kf_el_LgtZhi3eECy_an_gvKGuGNmJ;-webkit-animation-timing-function: cubic-bezier(0, 0, 1, 1);animation-timing-function: cubic-bezier(0, 0, 1, 1);}</style>




<g id="el_hceSvYNGK-R">
	<g id="el_35shmpXPXlo">
		<path d="M508.8,337.7v8.2l5.3-7.9c0,0-36.2-12.7-78.4-28.4c-0.1,0-0.3-0.1-0.4-0.1c-9.6-3.6-19.4-7.3-29.2-11.1&#10;&#9;&#9;&#9;c-0.4-0.2-0.7-0.4-1.1-0.6c-0.6-0.2-1.1-0.4-1.7-0.5c-43.6-16.9-85.3-34.4-94.2-42.8c-5.8,1.8-10.7,3.8-14.8,5.8L508.8,337.7z" id="el_HawSVuw5Ur6"/>
		<g id="el_JQzXtXd_Rb3">
			<path d="M526.3,355c-12.4,14.4-8.7,29.8-8.7,29.8C525.1,379.2,538.7,340.6,526.3,355z" id="el_MpmN0NQxcob"/>
			<g id="el_gPeeuRje1dB">
				<path d="M405,297.8c0.4,0.2,0.8,0.4,1.1,0.6c9.8,3.8,19.6,7.5,29.2,11.1c0.1,0,0.3,0.1,0.4,0.1&#10;&#9;&#9;&#9;&#9;&#9;c42.1,15.8,78.4,28.4,78.4,28.4l-5.3,7.9v50.7c1.7-0.8,3.4-1,5-0.6c6.2,1.7,8.6,13.3,6.3,27.5l36.8-38.9&#10;&#9;&#9;&#9;&#9;&#9;c0.2-12.1-1.1-23-3.6-32.2v-0.1c-1.5-5.6-3.6-10.6-6-14.8c0-0.1-0.1-0.1-0.1-0.1c-2-3.3-4.3-6.2-6.8-8.5l0.8-0.6&#10;&#9;&#9;&#9;&#9;&#9;c-44.3-53.1-218.8-77-218.8-77c-4.9,0.9-9.3,2-13.3,3.2c8.9,8.4,50.7,25.9,94.2,42.8C403.8,297.4,404.4,297.5,405,297.8z&#10;&#9;&#9;&#9;&#9;&#9; M541.5,360.4c15.7-10.7-7.4,23-16.2,26.5C525.3,386.8,525.8,371,541.5,360.4z M526.3,355c12.4-14.4-1.2,24.2-8.7,29.8&#10;&#9;&#9;&#9;&#9;&#9;C517.6,384.8,513.9,369.4,526.3,355z" id="el_TmcQZuKnr88"/>
				<path d="M513.7,396.1c-1.6-0.4-3.2-0.2-5,0.6v38.9l11.3-11.9C522.4,409.4,520,397.8,513.7,396.1z" id="el_H04Fa2A-MYZ"/>
				<path d="M541.5,360.4c-15.7,10.7-16.2,26.5-16.2,26.5C534,383.4,557.2,349.7,541.5,360.4z" id="el_K3wakwCJkU4"/>
			</g>
		</g>
	</g>
	<polygon points="294.2,260.3 298.7,364.8 508.8,435.5 508.8,337.7 &#9;" id="el_R8jdsCJvac-"/>
</g>
<g id="el_j2BUWsRlbik_an_zcL0N4nW5" data-animator-group="true" data-animator-type="0"><g id="el_j2BUWsRlbik">
	<g id="el_5TpC_KHY6Rp">
		<path d="M239.1,222.4c1.7-3.4,295.3,105.9,311.5,151.4l-77.4-4.1l-266-60.9L239.1,222.4z" id="el_Bl24cMlvPl2"/>
		<path d="M237.6,226.4c0,0,293.3,105.8,311.2,147.8l-103-5.6l-250.7-55.2L237.6,226.4z" id="el_B_jMriu7VKs"/>
	</g>
	<path d="M240.2,222.7c0,0-192.9-85.3-202.3-79.7c-9.3,5.7-48.1-9.2-32.9,51c11.1,24.5,19.6,21,19.6,21&#10;&#9;&#9;s13.2-18.1,31.3-9.6s67.8,38.2,67.8,38.2s39.9,15.4,54.2,18.2s29.5,13.3,33.2,18.9C214.8,286.2,240.2,222.7,240.2,222.7z" id="el__fCWHm8GfVG"/>
</g></g>
<g id="el_LgtZhi3eECy_an_gvKGuGNmJ" data-animator-group="true" data-animator-type="0"><g id="el_LgtZhi3eECy">
	<path d="M328.9,309.1C328.8,309.1,328.8,309.1,328.9,309.1C328.8,309.1,328.8,309,328.9,309.1&#10;&#9;&#9;c-0.1-0.1-0.1-0.1-0.1-0.1c0,0,0,0,0-0.1c0,0,0,0,0,0v-0.1C328.8,308.9,328.9,309,328.9,309.1z" id="el_KfhTj1A5Wc-"/>
	<path d="M328.8,306.9c0.5-1.1,1.7-1.8,3.1-1.9C330.5,305,329.3,305.7,328.8,306.9c-0.2,0.5-0.3,1.1-0.1,1.7&#10;&#9;&#9;C328.6,308,328.6,307.4,328.8,306.9z" id="el_Y_kkHUEOVF1"/>
	<path d="M332.9,311.2c-0.6-0.1-1.2-0.2-1.8-0.5C331.7,311,332.3,311.1,332.9,311.2z" id="el_C0sGewx8EHG"/>
	<path d="M331.9,304.9c0.9-0.1,1.8,0.1,2.7,0.5c0.9,0.4,1.6,0.9,2.2,1.5c0.2,0.4,0.2,0.8,0.3,1.2c0-0.4-0.1-0.8-0.3-1.2&#10;&#9;&#9;c-0.5-0.6-1.3-1.2-2.2-1.5C333.7,305,332.8,304.9,331.9,304.9z" id="el_Bg4L9FVo_0n"/>
	<path d="M337.1,308.2c0,0.3,0,0.7-0.2,1.1c-0.6,1.4-2.2,2.1-4,1.9c-0.6-0.1-1.2-0.2-1.8-0.5c-0.2-0.1-0.4-0.2-0.6-0.3&#10;&#9;&#9;c0,0,0,0,0,0c-0.1-0.1-0.3-0.1-0.4-0.2c-0.1-0.1-0.2-0.1-0.3-0.2c-0.2-0.2-0.5-0.3-0.6-0.5c0,0-0.1-0.1-0.1-0.1c0,0,0,0,0,0&#10;&#9;&#9;c0,0-0.1,0-0.1-0.1c0,0,0-0.1,0-0.1c0,0,0,0,0,0c0,0,0,0,0,0c0,0,0-0.1,0-0.1c0,0,0,0,0,0c0-0.1-0.1-0.2-0.1-0.3&#10;&#9;&#9;c-0.1-0.4-0.1-0.7-0.1-1c0,0,0,0,0,0c0,0,0-0.1,0-0.2v0c0,0,0,0,0,0c0,0,0-0.1,0-0.1c0,0,0,0,0-0.1c0-0.1,0-0.2,0.1-0.2&#10;&#9;&#9;c0.5-1.1,1.7-1.8,3.1-1.9c0.8,0,1.8,0.1,2.7,0.5c0.9,0.3,1.7,0.9,2.2,1.5c0,0.1,0.1,0.2,0.1,0.3c0,0.1,0.1,0.1,0.1,0.2&#10;&#9;&#9;c0,0.2,0.1,0.4,0.1,0.5C337.1,308.1,337.1,308.1,337.1,308.2z" id="el_ZhYuDURho9l"/>
	<path d="M276.1,334.2l-0.1,0l-16,4.8l-3.6-15l0-0.1c4.9,2.6,11.6,6.1,19.2,10L276.1,334.2z" id="el_Uqcp378uVQi"/>
	<path d="M383.6,323.2C383.5,323.2,383.5,323.2,383.6,323.2c-0.2,0-0.3,0-0.4,0c-0.8,0-1.6-0.2-2.4-0.5&#10;&#9;&#9;c-0.7-0.3-1.3-0.7-1.8-1.2c-0.2-0.2-0.3-0.3-0.5-0.5l-0.3-0.1l-0.2-0.1c0,0.1,0.1,0.1,0.1,0.2c0,0.1,0.1,0.1,0.1,0.2&#10;&#9;&#9;c0.6,0.6,1.4,1.2,2.3,1.6c0.9,0.4,1.9,0.5,2.8,0.5C383.4,323.3,383.5,323.3,383.6,323.2C383.6,323.2,383.6,323.2,383.6,323.2&#10;&#9;&#9;L383.6,323.2z M337.7,310.5c-0.8,1.8-3.4,2.5-5.8,1.5c-1.4-0.6-2.4-1.6-2.9-2.7c0,0,0,0,0,0c0-0.1,0-0.1-0.1-0.2c0,0,0,0,0,0&#10;&#9;&#9;c0,0,0,0,0,0l0,0c0,0,0,0.1,0,0.1c0,0,0,0.1,0,0.1c0.5,1.2,1.5,2.2,3,2.9C334.3,313.1,336.9,312.5,337.7,310.5&#10;&#9;&#9;c0.1-0.2,0.2-0.5,0.2-0.8C337.8,310,337.8,310.2,337.7,310.5z M328.1,305.2c0.7-1.2,2.3-1.8,3.9-1.6&#10;&#9;&#9;C330.4,303.3,328.8,303.9,328.1,305.2z" id="el_8nFtcnh56qG"/>
	<path d="M328.9,309.2L328.9,309.2L328.9,309.2z" id="el_6RI0QgLI8gO"/>
	<path d="M276.1,334.2l-0.1,0l-0.4-0.2c-7.6-4-14.3-7.4-19.2-10c0,0,0,0,0,0l0-0.1c0,0,0,0,0,0&#10;&#9;&#9;c4.9,2.6,11.6,6.1,19.2,10L276.1,334.2z" id="el_v9lmC0uGYxg"/>
	<path d="M328.9,309.1C328.8,309.1,328.8,309.1,328.9,309.1C328.8,309.1,328.8,309,328.9,309.1L328.9,309.1&#10;&#9;&#9;C328.8,309,328.8,309,328.9,309.1C328.8,309.1,328.9,309.1,328.9,309.1z" id="el_71ss_prE_de"/>
	<path d="M336.8,306.9c-0.6-0.6-1.3-1.1-2.2-1.5c-0.1-0.1-0.3-0.1-0.4-0.2c-0.1,0-0.2-0.1-0.3-0.1&#10;&#9;&#9;c-0.1,0-0.3-0.1-0.4-0.1c-0.1,0-0.3-0.1-0.4-0.1c-0.1,0-0.3,0-0.4,0c-0.2,0-0.4,0-0.6,0c-0.1,0-0.1,0-0.2,0&#10;&#9;&#9;c-1.4,0.1-2.6,0.8-3.1,1.9c-0.1,0.2-0.1,0.3-0.1,0.5c0,0,0,0,0,0v0c0,0.1,0,0.2,0,0.3c0,0.2,0,0.3,0,0.5c0,0.1,0,0.2,0,0.4&#10;&#9;&#9;c0,0.1,0.1,0.2,0.1,0.3v0.1c0,0,0,0,0,0c0,0,0,0,0,0.1c-0.6-0.7-0.9-1.4-1-2.1c-0.1-0.5,0-1,0.2-1.4c0.1-0.1,0.1-0.2,0.2-0.3&#10;&#9;&#9;c0.7-1.3,2.3-1.8,3.9-1.6c0.2,0,0.3,0,0.5,0.1c0.4,0.1,0.8,0.2,1.2,0.4c1.1,0.5,2,1.2,2.5,2C336.5,306.3,336.6,306.6,336.8,306.9z" id="el_F8wupcK5ykc"/>
	<path d="M328.8,308.8c0-0.1-0.1-0.2-0.1-0.3C328.7,308.6,328.8,308.7,328.8,308.8z" id="el_c1K8Km_sakC"/>
	<path d="M385.6,317.6L385.6,317.6c-0.7-0.6-1.3-1.1-2.2-1.5c-2.4-1-5-0.3-5.8,1.5c-0.1,0.2-0.1,0.4-0.2,0.6&#10;&#9;&#9;c0,0,0,0.1,0,0.1c-0.1,0.5,0.1,1,0.3,1.5c-0.1-0.1-0.2-0.2-0.3-0.3v0c-0.5-0.6-0.8-1.3-0.8-1.9c0-0.2,0-0.4,0-0.5&#10;&#9;&#9;c0-0.3,0.1-0.6,0.2-0.9c0.8-1.9,3.4-2.5,5.8-1.5C384.1,315.4,385.1,316.4,385.6,317.6z" id="el_nESIW-cMeX2"/>
	<path d="M328.9,309.2L328.9,309.2L328.9,309.2z" id="el_j9kSVbvqz66"/>
	<path d="M337.9,309.7c0,0.3-0.1,0.6-0.2,0.9c-0.8,1.9-3.4,2.5-5.8,1.5c-1.5-0.7-2.5-1.7-3-2.9c0,0,0,0.1,0.1,0.1&#10;&#9;&#9;c0.4,0.4,0.9,0.8,1.5,1.1c0,0,0,0,0,0c0.2,0.1,0.4,0.2,0.6,0.3c0.6,0.3,1.2,0.4,1.8,0.5c1.8,0.2,3.4-0.5,4-1.9&#10;&#9;&#9;c0.1-0.4,0.2-0.8,0.2-1.1c-0.1-0.3-0.1-0.6-0.2-0.9c0-0.1-0.1-0.2-0.1-0.3c0,0,0,0,0.1,0.1l0,0c0,0,0,0,0,0c0.5,0.6,0.8,1.2,1,1.8&#10;&#9;&#9;c0,0.1,0,0.2,0,0.3C337.9,309.4,337.9,309.5,337.9,309.7z" id="el_UbuqeucW4xf"/>
	<path d="M328.9,309.2L328.9,309.2L328.9,309.2c0.5,0.6,1.3,1.2,2.2,1.5C330.2,310.3,329.4,309.8,328.9,309.2z" id="el_kXdhrjjA5Ej"/>
	<path d="M383.4,323.3c-0.9,0-1.9-0.1-2.8-0.5c-0.9-0.4-1.7-1-2.3-1.6l0.7,0.3l4.3,1.8L383.4,323.3z" id="el_rvzFqNpYiO3"/>
	<path d="M386.7,320.5c0,0.1,0,0.2,0,0.3c0,0.1,0,0.2-0.1,0.3c0,0.1-0.1,0.2-0.1,0.3c-0.1,0.1-0.1,0.3-0.2,0.4&#10;&#9;&#9;c-0.1,0.1-0.2,0.2-0.3,0.4c-0.1,0.1-0.1,0.2-0.2,0.2c-0.3,0.2-0.5,0.4-0.8,0.6c-0.1,0.1-0.3,0.1-0.4,0.2c-0.3,0.1-0.5,0.2-0.8,0.2&#10;&#9;&#9;c0,0,0,0-0.1,0c-0.1,0-0.1,0-0.2,0l-0.2-0.1l-4.3-1.8l-0.7-0.3c-0.1-0.1-0.1-0.1-0.1-0.2c0-0.1-0.1-0.1-0.1-0.2&#10;&#9;&#9;c-0.2-0.3-0.3-0.5-0.4-0.8c0.1,0.1,0.2,0.2,0.3,0.3c0.5,0.5,1.2,0.9,1.9,1.2c0.1,0.1,0.3,0.1,0.4,0.2c0.2,0.1,0.5,0.1,0.7,0.2&#10;&#9;&#9;c0.2,0,0.4,0.1,0.6,0.1c0.4,0,0.7,0,1.1,0c0.2,0,0.4,0,0.5-0.1c1.1-0.3,2-0.9,2.5-1.8c0.3-0.6,0.3-1.3,0.1-2c0-0.1-0.1-0.2-0.1-0.3&#10;&#9;&#9;c0.2,0.2,0.3,0.4,0.5,0.6c0.1,0.1,0.2,0.3,0.2,0.4c0.1,0.3,0.3,0.5,0.3,0.8c0,0.1,0.1,0.3,0.1,0.4&#10;&#9;&#9;C386.7,320.1,386.7,320.3,386.7,320.5z" id="el_3amVNemAgox"/>
	<path d="M385.6,320c-0.4,1-1.3,1.6-2.5,1.8c-0.2,0-0.3,0.1-0.5,0.1c-0.3,0-0.7,0-1.1,0c-0.2,0-0.4-0.1-0.6-0.1&#10;&#9;&#9;c-0.2,0-0.5-0.1-0.7-0.2c-0.2,0-0.3-0.1-0.4-0.2c-0.7-0.2-1.4-0.7-1.9-1.2c-0.1-0.1-0.2-0.2-0.3-0.3c0-0.1-0.1-0.2-0.1-0.4&#10;&#9;&#9;c0,0,0-0.1,0-0.1v0c-0.1-0.4-0.1-0.8,0-1.2c0,0,0,0,0-0.1c0-0.2,0.1-0.3,0.2-0.5c0.8-1.9,3.4-2.5,5.8-1.5c0.9,0.3,1.7,0.9,2.2,1.5&#10;&#9;&#9;c0,0.1,0.1,0.2,0.1,0.3C385.9,318.7,385.8,319.4,385.6,320z" id="el_Ih-nJcZn5ve"/>
	<g id="el_-5TCIoH_uI7">
		<path d="M462.4,474.9c5.6-0.6,9.9-2.7,13.2-5.4l5.6-5.7c1.9-2.9,4.4-4.9,4.4-4.9C477.5,456.4,446.5,476,462.4,474.9z" id="el_3tv7YL0ds-M"/>
		<path d="M450.7,465.5l-0.2-0.1v0.1H450.7z" id="el_VYP3br0ZjeE"/>
		<path d="M454.5,434.6c-1,4.9-1.9,10.7-2.7,17.2c0,0.2-0.1,0.5-0.1,0.8c0.1-0.9,0.3-1.8,0.4-2.7h0.5l-0.5-0.2&#10;&#9;&#9;&#9;c0.2-1.4,0.5-2.9,0.7-4.3c0.9-5.5,1.9-11.1,3-16.5c0.3-1.5,0.6-3,0.9-4.5v0.1C456.1,426.8,455.3,430.3,454.5,434.6z" id="el_eIyis3iGcef"/>
		<path d="M490.3,424.9c4.1-14.2,11.4-25.1,18.1-28.1v-50.7l-52.8,77c-0.2,0.4-0.3,0.8-0.4,1.1c-0.3,1.5-0.6,3-0.9,4.5&#10;&#9;&#9;&#9;c-1.1,5.4-2.2,11-3.1,16.5c-0.2,1.4-0.5,2.9-0.7,4.3l0.5,0.2h-0.5c-0.1,0.9-0.3,1.8-0.4,2.7c-0.5,4.1-0.9,8.4-1.1,12.9l0.2,0.1&#10;&#9;&#9;&#9;H449c-0.5,9.8-0.6,19.3,1,29.3l26.1-25.5c-3.1,2.4-7.3,4.3-12.8,4.8c-15.4,1.3,12.9-16.4,20.7-14.9c0,0-0.8,2.1-2.7,4.7l8.2-8.5&#10;&#9;&#9;&#9;C486.6,448.7,486.7,437.2,490.3,424.9z" id="el_4wpNJWmTS1W"/>
		<path d="M450,465.4h0.4h0.1c0.2-4.5,0.6-8.8,1.1-12.9c-0.4,3-0.8,5.9-1.2,8.9C450.3,462.8,450.1,464.1,450,465.4z" id="el_EnKYoIS0LR8"/>
		<path d="M456.7,424.2C456.7,424.2,456.7,424.2,456.7,424.2c0,0,0,0.1,0,0.1V424.2z" id="el_DWEVWIOJ_t8"/>
		<path d="M456.8,423.9v0.1c0,0.1,0,0.2-0.1,0.2C456.7,424.1,456.8,424,456.8,423.9z" id="el_mhd0gHB2vjE"/>
		<path d="M383.5,323.2L383.5,323.2l0.1,0.1c0,0,0.1,0,0.1,0c0.3-0.1,0.5-0.1,0.8-0.2&#10;&#9;&#9;&#9;C384.1,323.1,383.8,323.2,383.5,323.2z M463.7,337.1c-2.4-1-5-0.4-5.8,1.5c-0.1,0.3-0.2,0.6-0.2,0.9c0-0.3,0.1-0.5,0.2-0.8&#10;&#9;&#9;&#9;C458.7,336.9,461.3,336.2,463.7,337.1c1.4,0.7,2.4,1.7,2.9,2.8c0,0,0,0,0.1,0.1C466.2,338.8,465.2,337.8,463.7,337.1z&#10;&#9;&#9;&#9; M461.8,345.2c-1.3-0.5-2.2-1.4-2.8-2.5c0,0,0,0,0,0c0,0,0,0,0-0.1c-0.1-0.1-0.1-0.2-0.2-0.3c-0.1-0.1-0.2-0.2-0.2-0.3&#10;&#9;&#9;&#9;c0,0.1,0.1,0.2,0.1,0.4c0.5,1.2,1.5,2.2,3,2.9c2.1,0.9,4.3,0.5,5.3-0.8C465.9,345.7,463.8,346,461.8,345.2z M429.8,331.7&#10;&#9;&#9;&#9;c-0.8,1.8-3.4,2.5-5.8,1.5c-1.4-0.6-2.4-1.6-2.9-2.7c0,0,0,0,0,0c0-0.1,0-0.1-0.1-0.2c0,0,0,0-0.1-0.1c0,0.1,0,0.1,0.1,0.2&#10;&#9;&#9;&#9;c0.5,1.2,1.5,2.2,3,2.9c2.4,1,5,0.4,5.8-1.5c0.1-0.3,0.2-0.6,0.2-0.9C429.9,331.2,429.9,331.4,429.8,331.7z M429,328.1&#10;&#9;&#9;&#9;c-0.1-0.1-0.1-0.2-0.2-0.2C428.8,327.9,428.8,328,429,328.1c0,0.1,0,0.1,0.1,0.2C429,328.2,429,328.2,429,328.1z M426,325.1&#10;&#9;&#9;&#9;c-2.1-0.9-4.3-0.5-5.3,0.8C421.8,324.7,423.9,324.4,426,325.1c1.3,0.6,2.2,1.6,2.7,2.7c0.1,0.1,0.2,0.2,0.3,0.2&#10;&#9;&#9;&#9;C428.5,326.8,427.5,325.8,426,325.1z M382.6,314.7c-2.4-1-5-0.4-5.8,1.5c-0.1,0.3-0.2,0.6-0.2,0.9c0-0.3,0.1-0.5,0.2-0.8&#10;&#9;&#9;&#9;c0.8-1.8,3.4-2.5,5.8-1.5c1.4,0.6,2.4,1.6,2.9,2.7l0.1,0.1C385.1,316.4,384.1,315.4,382.6,314.7z M378.2,320.9&#10;&#9;&#9;&#9;c-0.1-0.2-0.2-0.3-0.3-0.5c0,0,0-0.1-0.1-0.1l-0.2-0.4c-0.1-0.1-0.1-0.2-0.2-0.3c0,0.1,0.1,0.2,0.1,0.4c0.1,0.3,0.3,0.5,0.4,0.8&#10;&#9;&#9;&#9;c0,0.1,0.1,0.1,0.1,0.2l0.2,0.1C378.3,321,378.3,320.9,378.2,320.9z" id="el_wL-irgP0j-E"/>
		<path d="M346.5,371.3l-0.9,0.2h0l-0.1,0l0.9-0.3h0C346.4,371.2,346.4,371.3,346.5,371.3z" id="el_nf9wzInxix-"/>
		<path d="M445,423.7l-2.2,0.7c0,0-0.1-0.1-0.1-0.1L445,423.7L445,423.7z" id="el_KcZxWvVPklm"/>
		<path d="M445,423.7l-2.2,0.7c0,0-0.1-0.1-0.1-0.1L445,423.7L445,423.7z" id="el_8UhdHxctxUv"/>
		<path d="M324.5,359.7C324.4,359.7,324.4,359.7,324.5,359.7L324.5,359.7C324.4,359.6,324.4,359.6,324.5,359.7&#10;&#9;&#9;&#9;L324.5,359.7z" id="el_94Ojac-_hr4"/>
		<path d="M457.1,422.2L457.1,422.2c0.1-0.6,0.3-1.2,0.4-1.9l0.1,0.1c0,0-0.3,1.2-0.9,3.4v0.1c0,0.1,0,0.2,0,0.2&#10;&#9;&#9;&#9;c0.1-0.4,0.3-0.7,0.4-1.1l51.3-77v-8.2l-214.6-77.4c-2.5,1.3-4.7,2.5-6.6,3.8c1.9-1.3,4.2-2.6,6.7-3.9l-5.2-1.9l-1.1,0.3&#10;&#9;&#9;&#9;c0,0,0.5,0.2,1.5,0.6c-0.4,0.2-0.9,0.5-1.4,0.8c-10,7-32.3,45.2-38.5,56.1l4-5.5l5.6-7.4l-5.6,7.6l0-0.1l-4,5.5&#10;&#9;&#9;&#9;c-1.1,1.9-1.7,2.9-1.7,2.9l8.6,4.5c0.1,0,0.1,0.1,0.2,0.1c0,0,0,0,0,0c4.9,2.6,11.6,6.1,19.2,10l0.5,0.3l-0.1,0l0.1,0.1l15.6,8.8&#10;&#9;&#9;&#9;l0.9-0.3c0.2,0.1,0.3,0.2,0.5,0.3l-0.1,0c5.2,2.7,10.5,5.5,15.7,8.2l29.2,51.9l34.2-13.6l5.8,12.9l4.2-2.4l3.7,9.5l5-0.7l5.1-3.5&#10;&#9;&#9;&#9;c5.3,1.3,6.4-15.9,6.4-15.9s10.3,12.4,13.9,15.1c2.2,1.7,15.9,12.9,26.4,19.7l0.1,0c0,0-0.1-0.1-0.1-0.1l2.3-0.7l0,0.1l-2.2,0.7&#10;&#9;&#9;&#9;c1.3,0.8,2.4,1.5,3.5,2.1c0,0,0.5,0.3,1.3,0.7c3.1,1.7,5.6,2.5,6.8,2c0.3-0.1,0.5-0.4,0.6-0.7c0.2-0.6,0.8-2.1,1.6-4.1 M328,305.5&#10;&#9;&#9;&#9;c0-0.1,0.1-0.2,0.2-0.3c0.7-1.3,2.3-1.8,3.9-1.6c0.2,0,0.3,0,0.5,0.1c0.4,0.1,0.8,0.2,1.2,0.4c1.1,0.4,2,1.2,2.5,2&#10;&#9;&#9;&#9;c0.2,0.3,0.3,0.6,0.5,0.9c0.6,0.6,0.9,1.3,1.1,2c0,0.1,0,0.2,0,0.3c0,0.2,0,0.4,0,0.5c0,0.3-0.1,0.6-0.2,0.9&#10;&#9;&#9;&#9;c-0.8,1.9-3.4,2.5-5.8,1.5c-1.5-0.7-2.5-1.7-3-2.9c0,0,0-0.1,0-0.1c0,0,0,0,0-0.1c0,0,0,0,0,0c-0.6-0.6-0.9-1.3-1-2.1&#10;&#9;&#9;&#9;C327.7,306.4,327.8,305.9,328,305.5z M386.6,320.8c0,0.1,0,0.2-0.1,0.3c0,0.1-0.1,0.2-0.1,0.3c-0.1,0.1-0.1,0.3-0.2,0.4&#10;&#9;&#9;&#9;c-0.1,0.1-0.2,0.2-0.3,0.4c-0.1,0.1-0.1,0.2-0.2,0.2c-0.2,0.2-0.5,0.4-0.8,0.6c-0.1,0.1-0.3,0.1-0.4,0.2c-0.3,0.1-0.5,0.2-0.8,0.2&#10;&#9;&#9;&#9;c0,0,0,0-0.1,0c-0.1,0-0.1,0-0.2,0c-0.9,0-1.9-0.1-2.8-0.5c-0.9-0.4-1.7-1-2.3-1.6c-0.1-0.1-0.1-0.1-0.1-0.2&#10;&#9;&#9;&#9;c0-0.1-0.1-0.1-0.1-0.2c-0.2-0.3-0.3-0.5-0.4-0.8c0-0.1-0.1-0.2-0.1-0.4c-0.5-0.6-0.8-1.4-0.9-2c0-0.2,0-0.4,0-0.5&#10;&#9;&#9;&#9;c0-0.3,0.1-0.6,0.2-0.9c0.8-1.9,3.4-2.5,5.8-1.5c1.5,0.7,2.5,1.7,3,2.9l-0.1-0.1c0,0.1,0,0.1,0.1,0.2c0.2,0.2,0.3,0.4,0.5,0.6&#10;&#9;&#9;&#9;c0.1,0.1,0.2,0.3,0.2,0.4c0.1,0.3,0.3,0.5,0.3,0.8c0,0.1,0.1,0.3,0.1,0.4c0,0.2,0,0.4,0,0.6C386.7,320.6,386.6,320.7,386.6,320.8z&#10;&#9;&#9;&#9; M429.8,331.8c-0.8,1.9-3.4,2.5-5.8,1.5c-1.5-0.7-2.5-1.7-3-2.9c0-0.1,0-0.1-0.1-0.2c-1-1.1-1.3-2.5-0.8-3.5&#10;&#9;&#9;&#9;c0.1-0.2,0.2-0.4,0.3-0.6c0.1-0.1,0.1-0.2,0.2-0.3c1.1-1.3,3.3-1.6,5.3-0.8c1.5,0.7,2.5,1.7,3,2.9c-0.1-0.1-0.2-0.2-0.3-0.2&#10;&#9;&#9;&#9;c0,0,0,0.1,0,0.1c0,0,0,0,0,0c0.1,0.1,0.1,0.2,0.2,0.2c0,0.1,0.1,0.1,0.1,0.2c0.5,0.6,0.8,1.2,0.9,1.8c0,0.1,0,0.2,0,0.3&#10;&#9;&#9;&#9;c0,0.2,0,0.4,0,0.5C430,331.2,429.9,331.5,429.8,331.8z M467.6,343.7c-0.1,0.2-0.2,0.4-0.3,0.6c-0.1,0.1-0.1,0.2-0.2,0.3&#10;&#9;&#9;&#9;c-1.1,1.3-3.3,1.6-5.3,0.8c-1.5-0.7-2.5-1.7-3-2.9c0-0.1-0.1-0.2-0.1-0.4c-0.5-0.6-0.8-1.4-0.9-2c0-0.2,0-0.4,0-0.5&#10;&#9;&#9;&#9;c0-0.3,0.1-0.6,0.2-0.9c0.8-1.9,3.4-2.5,5.8-1.5c1.5,0.7,2.5,1.7,3,2.9c0,0,0-0.1-0.1-0.1c0,0.1,0,0.1,0.1,0.2&#10;&#9;&#9;&#9;C467.7,341.1,468.1,342.5,467.6,343.7z" id="el_ZfPhaahMmLf"/>
		<path d="M457.7,420.5c0,0-0.3,1.2-0.9,3.4c0.1-0.6,0.3-1.1,0.4-1.6v0c0.1-0.6,0.3-1.2,0.4-1.8L457.7,420.5z" id="el_6gyiJmPzHGx"/>
		<path d="M489.8,424.9c-3.5,12.3-3.6,24.3-0.9,31l19.5-20.2v-38.9C501.9,399.8,493.7,410.8,489.8,424.9z" id="el_jc8cUZ3vLHP"/>
		<path d="M429,328c-0.1-0.1-0.2-0.2-0.3-0.2c-0.5-0.5-1.2-0.9-1.9-1.3c-2.4-1-5-0.3-5.8,1.5c-0.1,0.2-0.1,0.4-0.2,0.6&#10;&#9;&#9;&#9;c0,0.1,0,0.2,0,0.2c0,0.1,0,0.2,0,0.2c0,0.4,0.1,0.8,0.3,1.1c-0.1-0.1-0.2-0.2-0.3-0.3v0c-0.8-1-1.1-2.2-0.7-3.3&#10;&#9;&#9;&#9;c0.1-0.2,0.2-0.3,0.2-0.5c0.1-0.1,0.1-0.2,0.2-0.3c1.1-1.3,3.3-1.6,5.3-0.8C427.5,325.8,428.5,326.8,429,328z" id="el_LbxhQ7pWDoO"/>
		<path d="M466.7,340C466.6,340,466.6,339.9,466.7,340c-0.7-0.6-1.3-1.1-2.2-1.5c-2.4-1-5-0.3-5.8,1.5&#10;&#9;&#9;&#9;c-0.1,0.2-0.1,0.4-0.2,0.6c0,0,0,0,0,0.1c0,0.5,0.1,1,0.3,1.5c-0.1-0.1-0.2-0.2-0.3-0.3v0c-0.5-0.6-0.8-1.3-0.9-1.9&#10;&#9;&#9;&#9;c0-0.2,0-0.4,0-0.5c0-0.3,0.1-0.6,0.2-0.9c0.8-1.9,3.4-2.5,5.8-1.5C465.2,337.8,466.2,338.8,466.7,340z" id="el_qaRsbdTq45u"/>
		<path d="M430,330.9c0,0.3-0.1,0.6-0.2,0.9c-0.8,1.9-3.4,2.5-5.8,1.5c-1.5-0.7-2.5-1.7-3-2.9c0,0,0.1,0,0.1,0.1&#10;&#9;&#9;&#9;c0.6,0.6,1.3,1,2.1,1.4c2.4,1,5,0.3,5.8-1.5c0.1-0.2,0.2-0.5,0.2-0.8c0-0.1,0-0.3,0-0.4c0-0.4-0.1-0.7-0.3-1.1&#10;&#9;&#9;&#9;c0.1,0.1,0.2,0.2,0.2,0.3c0.4,0.5,0.7,1.1,0.8,1.7c0,0.1,0,0.2,0,0.3C430,330.6,430,330.7,430,330.9z" id="el_sEk6gyopJcR"/>
		<path d="M429.2,329.3c0,0.1,0,0.3,0,0.4c0,0.3-0.1,0.5-0.2,0.8c-0.8,1.8-3.4,2.5-5.8,1.5c-0.8-0.3-1.6-0.8-2.1-1.4&#10;&#9;&#9;&#9;c0,0,0,0,0,0c0,0-0.1,0-0.1-0.1c0-0.1,0-0.1-0.1-0.2c0-0.1-0.1-0.2-0.1-0.3v0c-0.1-0.3-0.1-0.5-0.1-0.8c0-0.1,0-0.2,0-0.2&#10;&#9;&#9;&#9;c0-0.1,0-0.2,0-0.2c0-0.2,0.1-0.4,0.2-0.5c0.8-1.9,3.4-2.5,5.8-1.5c0.8,0.3,1.5,0.8,2,1.3c0,0,0,0,0,0c0.1,0.1,0.1,0.2,0.2,0.2&#10;&#9;&#9;&#9;c0,0.1,0.1,0.1,0.1,0.2c0,0,0,0.1,0,0.2C429.1,328.7,429.2,329,429.2,329.3z" id="el_HdasuhMHPnB"/>
		<path d="M467.5,343.8c-0.1,0.2-0.1,0.3-0.2,0.5c-0.1,0.1-0.1,0.2-0.2,0.3c-1.1,1.3-3.3,1.6-5.3,0.8&#10;&#9;&#9;&#9;c-1.5-0.7-2.5-1.7-3-2.9c0.1,0.1,0.2,0.2,0.3,0.2c0.5,0.5,1.2,0.9,1.9,1.3c1.5,0.6,3,0.6,4.2,0.1c0.1,0,0.2-0.1,0.2-0.1&#10;&#9;&#9;&#9;c0.6-0.3,1.1-0.8,1.4-1.5c0.3-0.8,0.3-1.6-0.1-2.2c0.1,0.1,0.1,0.2,0.2,0.3C467.6,341.5,467.9,342.7,467.5,343.8z" id="el_1NtbgwttsL4"/>
		<path d="M466.7,342.4c-0.3,0.6-0.7,1.1-1.4,1.5c-0.1,0-0.2,0.1-0.2,0.1c-1.1,0.5-2.7,0.5-4.2-0.1&#10;&#9;&#9;&#9;c-0.7-0.2-1.4-0.7-1.9-1.2c0,0,0,0,0,0c-0.1-0.1-0.2-0.2-0.3-0.3c0-0.1-0.1-0.2-0.1-0.4c0,0,0-0.1,0-0.1v0c-0.1-0.4-0.1-0.8,0-1.2&#10;&#9;&#9;&#9;c0,0,0-0.1,0-0.1c0-0.2,0.1-0.3,0.2-0.5c0.8-1.9,3.4-2.5,5.8-1.5c0.9,0.3,1.7,0.9,2.2,1.5c0,0.1,0.1,0.2,0.1,0.4&#10;&#9;&#9;&#9;C467,341.1,466.9,341.8,466.7,342.4z" id="el_E5NxLANhSMy"/>
		<path d="M455.2,429.1L455.2,429.1c-1.2,0.5-3.7-0.3-6.8-2c-0.8-0.4-1.3-0.7-1.3-0.7l0,0c-1.2-0.7-2.4-1.4-3.6-2.2&#10;&#9;&#9;&#9;c-10.5-6.8-24.2-18-26.4-19.7c-3.6-2.7-13.9-15.1-13.9-15.1s-6.5-0.9-11.8-2.2c0,0,0,0-0.1,0c-1.2-0.3-2.4-0.6-3.4-1&#10;&#9;&#9;&#9;c-1.5-0.5-2.7-1.1-3.1-1.7c-0.1-0.1-0.2-0.3-0.3-0.5l0,0l0,0c-0.1-0.2-0.3-0.5-0.4-0.7c-0.7-1.2-1.3-2.7-2-4.1s-1.5-2.8-2.2-3.8&#10;&#9;&#9;&#9;c-0.4-0.5-0.8-0.9-1.2-1.3l-19.1,2.1c-0.7,0.1-1.3,0.2-1.8,0.2l0,0l0,0c-0.8,0-1.2,0-1.4-0.2c-0.1-0.1-0.8-0.6-2.1-1.3l-7.4-3.3&#10;&#9;&#9;&#9;l-17.3,5.2l-4.1-17.4c-4.8-2.5-9.8-5.2-15-7.9l0,0c-0.2-0.1-0.4-0.2-0.7-0.4c-5.2-2.7-10.5-5.5-15.7-8.2c-0.2-0.1-0.3-0.2-0.5-0.3&#10;&#9;&#9;&#9;l-0.9,0.3l-15.6-8.8l-16.1,4.8l-3.6-15.1c-0.1,0-0.1-0.1-0.2-0.1l-8.6-4.5c0,0,0.6-1.1,1.7-2.9l-5.5,7.5c-0.3,0.4-0.5,0.9-0.8,1.3&#10;&#9;&#9;&#9;l4.2,17.6l-15.2,4.5c-2.4,5.5-4.4,10.7-6.1,15.7c-5.4,16-7.7,29.4-8.5,39.8c0,0,0,0,2.3,6.6c0.5,1.5,1.1,3.2,1.9,5.4&#10;&#9;&#9;&#9;c0.4,1.3,3.3,3.2,8.2,5.5c8.4,4.1,22.5,9.7,39.7,15.9c4.8,1.7,9.8,3.5,15,5.3c14.6,5.1,30.6,10.5,46.7,15.8&#10;&#9;&#9;&#9;c7.4,2.5,14.9,4.9,22.3,7.3c16,5.2,31.6,10.2,45.4,14.5c5.2,1.6,10.2,3.2,14.8,4.7c17,5.3,29.9,9.3,35.3,11&#10;&#9;&#9;&#9;c-0.8-7.1-0.5-15.2,0.2-23.6c0.2-1.8,0.3-3.7,0.5-5.5h0.5v-0.1h-0.1h-0.4c0.1-1.3,0.3-2.7,0.5-4L455.2,429.1z" id="el_jmqZ0VOxWRN"/>
	</g>
</g></g>
<g id="el_y2PuL5Q61Wu_an_LPuP73MOZ" data-animator-group="true" data-animator-type="0"><g id="el_y2PuL5Q61Wu">
	<path d="M400.1,129.5c-5.1,11.8-0.3,20.9-0.3,20.9C403.5,145.3,405.2,117.7,400.1,129.5z" id="el_QW5s2J3G-Ve"/>
	<path d="M506.5,489.8l17.1-33.7L493,200.8l-165.6-62.3l9.4,306.9L506.5,489.8z" id="el__8uFobhrA1L"/>
	<g id="el_2SkQR65q0zW">
		<path d="M436.4,169.8c-1.1-8.9-19.3-14-40.7-11.3c-3.5,0.4-6.9,1.1-10.1,1.8l47.1,17.7&#10;&#9;&#9;&#9;C435.3,175.4,436.7,172.6,436.4,169.8z" id="el_Ura8GjlOQrt"/>
		<path d="M413.6,121.6c-0.1,0-0.1,0-0.2,0c-6.3,0.1-12.7,0.5-19.2,1.2c-0.1,0-0.1,0-0.2,0c-1.8,0.2-3.5,0.3-5.3,0.5&#10;&#9;&#9;&#9;c-4.4,0.5-8.7,1.1-12.9,1.8c-0.3,0-0.6,0.1-0.9,0.2c-5.2,0.9-10.4,1.9-15.3,3.1c-0.3,0.1-0.6,0.1-0.9,0.2&#10;&#9;&#9;&#9;c-11.2,2.7-21.7,6-31.2,9.8c38.2-11.2,69.2-16.1,94.3-16.9C419,121.6,416.3,121.6,413.6,121.6z" id="el_-dEVZ3ExVWY"/>
		<path d="M523.5,161.4c-3-7-8.7-13.3-16.5-18.8C518.7,151.5,522.9,160.1,523.5,161.4z" id="el_24fk45WM0On"/>
		<path d="M448.1,123.3c5.3,0.7,10.5,1.5,15.5,2.5c0.3,0.1,0.6,0.1,0.9,0.2c17.2,3.6,31.8,9.3,42.4,16.6&#10;&#9;&#9;&#9;c-14.5-11-40.5-22.4-85.2-21c8.8,0.1,17.4,0.6,25.5,1.6C447.5,123.2,447.8,123.3,448.1,123.3z" id="el_X-k5wgcOdk_"/>
		<path d="M523.5,161.4c0,0.1,0.1,0.1,0.1,0.2C523.5,161.5,523.5,161.5,523.5,161.4z" id="el_QQa8O94d9kF"/>
		<path d="M395.6,158.5c21.4-2.7,39.6,2.4,40.7,11.3c0.3,2.8-1,5.6-3.7,8.2l12.6,4.8c2.4,0.5,5.3,1.4,8.1,3.1l39.6,14.9&#10;&#9;&#9;&#9;c4.5-2.8,8.7-5.8,12.6-9.1c8.5-7.2,15.4-15.8,19.1-26c0,0,0.2,1,0.6,2.6c0-0.3,0-0.6,0-0.9c0-0.1,0-0.1,0-0.2&#10;&#9;&#9;&#9;c-0.6-1.9-1.2-3.9-1.7-5.8c0-0.1-0.1-0.1-0.1-0.2c-0.6-1.3-4.8-9.9-16.5-18.8c-10.6-7.3-25.2-13-42.4-16.6&#10;&#9;&#9;&#9;c-0.3-0.1-0.6-0.1-0.9-0.2c-5-1-10.1-1.9-15.5-2.5c-0.3,0-0.6-0.1-0.9-0.1c-8.1-1-16.7-1.5-25.5-1.6c-25.1,0.8-56.1,5.6-94.3,16.9&#10;&#9;&#9;&#9;l0,0l58.1,21.9C388.7,159.5,392.1,158.9,395.6,158.5z M479,161.3c16.5,2.7-19.1,7.8-26.7,5C452.3,166.3,462.5,158.6,479,161.3z&#10;&#9;&#9;&#9; M433.6,126.7c14.1-9-9,18.5-16.5,21.6C417.1,148.2,419.5,135.7,433.6,126.7z M400.1,129.5c5.1-11.8,3.4,15.8-0.3,20.9&#10;&#9;&#9;&#9;C399.9,150.4,395,141.3,400.1,129.5z" id="el_Z5x9sKbJtNf"/>
		<path d="M495.1,203.3l-2.1-2.6c0,0,0.1,1.2,0.3,3.4C494,203.9,494.6,203.6,495.1,203.3z" id="el_bUVNYOiNiwU"/>
		<path d="M506.8,490.4c7.3-2.9,12.1-5.5,14.3-6.9c1.1-0.6,1.6-1,1.6-1c19.9-18.8,31.8-42.7,38-68.7&#10;&#9;&#9;&#9;c1.2-4.9,2.2-10,3-15.1c5.3-22.3,6.8-47.8,1-75.4c-0.1,0-0.1-0.1,0,0c-0.8-7.1-1.7-14.1-2.9-21c-0.9-5.7-2-11.4-3.1-16.9&#10;&#9;&#9;&#9;c-0.4-2-0.8-4.1-1.2-6.1c-2.6-12.4-5.6-24.1-8.6-34.8c-1.3-4.6-2.6-8.9-3.8-13.1c-1.7-5.6-3.4-10.8-4.9-15.6&#10;&#9;&#9;&#9;c-2.2-6.5-4.2-12.2-5.8-16.8c-6.5-23.5-10.8-37.4-10.8-37.4c0.5,1.9,1.2,3.8,1.7,5.8c0,0.1,0,0.1,0,0.2c0,0.3,0,0.6,0,0.9&#10;&#9;&#9;&#9;c-0.4-1.6-0.6-2.6-0.6-2.6c-3.8,10.1-10.6,18.7-19.1,26l0,0c-3.9,3.3-8.1,6.3-12.6,9.1l2.1,2.6c1-0.5,1.9-1,2.8-1.4&#10;&#9;&#9;&#9;c-0.9,0.5-1.9,1-2.8,1.4c-0.6,0.3-1.2,0.6-1.8,0.9c0.7,6.6,2.2,22.1,4.1,42.7c0.5,5.6,1.1,11.6,1.7,17.9&#10;&#9;&#9;&#9;c1.5,16.8,3.2,35.6,4.8,55.1c0.7,8.9,1.5,18,2.2,27.1c1.5,19.6,2.9,39.2,4,57c0.4,6.4,0.7,12.5,1,18.4c1.1,21.2,1.5,38.9,0.8,49.6&#10;&#9;&#9;&#9;l-5.4,17.5 M506.8,196.7c0.6-0.4,1.3-0.9,1.9-1.3l-1.5-1.8l1.5,1.8C508,195.8,507.4,196.2,506.8,196.7z" id="el__Rt4E_QPG64"/>
		<path d="M433.6,126.7c-14.1,9-16.5,21.6-16.5,21.6C424.6,145.2,447.7,117.7,433.6,126.7z" id="el_z_68W7dLN9H"/>
		<path d="M479,161.3c-16.5-2.7-26.7,5-26.7,5C459.9,169.1,495.5,164.1,479,161.3z" id="el_fpoiK3DE82l"/>
	</g>
	<polygon points="385.5,160.2 392.5,460 432.4,470.4 432.6,178 &#9;" id="el_KBh2Ne9zb1E"/>
</g></g>
<g id="el_HT4q0UeDg2H_an_41ffpcu3K" data-animator-group="true" data-animator-type="0"><g id="el_HT4q0UeDg2H">
	<g id="el_ogjkyOT8e6a">
		<path d="M240.2,226.8c1.7-3.5,296.6,106.4,312.9,152l-77.8-4.1l-267.1-61.2L240.2,226.8z" id="el_4SsdwmvXXC5"/>
		<path d="M238.6,230.9c0,0,294.6,106.2,312.5,148.4l-103.4-5.6l-251.8-55.5L238.6,230.9z" id="el_1axEK-z-O6n"/>
	</g>
	<path d="M241.2,227.1c0,0-193.8-85.7-203.1-80c-9.4,5.7-48.3-9.2-33.1,51.2c11.1,24.7,19.7,21.1,19.7,21.1&#10;&#9;&#9;s13.3-18.2,31.5-9.6c18.2,8.6,68.1,38.3,68.1,38.3s40,15.5,54.4,18.2c14.4,2.8,29.6,13.4,33.3,19&#10;&#9;&#9;C215.7,290.9,241.2,227.1,241.2,227.1z" id="el_uHkz8sq6OsL"/>
</g></g>
<g id="el_9sbpYa9PUDU_an_31ZPWc_En" data-animator-group="true" data-animator-type="0"><g id="el_9sbpYa9PUDU">
	<path d="M341.4,413.1c-0.9,0-1.8,0.4-2.5,1.1c-0.4,0.9-0.7,1.9-0.7,3c0,3.1,1.9,5.6,4.2,5.6c0.9,0,1.8-0.4,2.5-1.1&#10;&#9;&#9;c0.4-0.9,0.7-1.9,0.7-3C345.6,415.6,343.7,413.1,341.4,413.1z" id="el_-m9PpFZf4SM"/>
	<path d="M440.1,226.9l-0.3-0.5v0.6c-1.6,0.4-3.3,0.8-4.9,1.2c-6.3,1.5-12.7,2.9-19,4.2c-1.8,0.4-3.5,0.7-5.3,1h0.1&#10;&#9;&#9;c2.9-0.5,7-1.2,12-2.2c5.6-1.2,12.3-2.7,19.6-4.8c0.3-0.1,0.6-0.2,0.8-0.2C442.1,226.3,441.1,226.6,440.1,226.9z" id="el_0RXL2lNv07v"/>
	<path d="M489.4,206.6l-39.6-14.9c3.9,2.2,7.8,5.6,10.7,11.1c8.2,15.5-23.2-6-25-14.8c0,0,2.6-0.1,6.2,0.7l-12.6-4.8&#10;&#9;&#9;c-5.9,5.9-18.3,10.9-33,12.7c-21.4,2.7-39.6-2.4-40.7-11.3c-0.9-7.4,10.4-15.2,26.6-19.1l-58.1-21.9c-13,5.3-24.1,11.5-32.9,18.3&#10;&#9;&#9;l-0.1,0.1c-5.3,4.2-9.8,8.6-13.2,13.1c0,0.1-0.1,0.1-0.1,0.2c-2.7,3.6-4.7,7.3-6,11.1l-1-0.7c-36.8,71.2,15.8,268.5,15.8,268.5&#10;&#9;&#9;c3.2,4.8,6.3,9,9.4,12.8c4.9-13.3,4.9-65.9,3.4-120c-0.1-0.6-0.2-1.3-0.2-2c0-0.5,0-1,0.1-1.5c-0.4-12.2-0.8-24.4-1.3-36.2&#10;&#9;&#9;c0-0.2,0-0.3,0-0.5c-2.1-52.1-4.8-96.5-4.8-96.5l116.2,22.4c0.5,0,1,0,1.4,0c1.7-0.3,3.5-0.7,5.3-1c6.3-1.3,12.7-2.6,19-4.2&#10;&#9;&#9;c1.6-0.4,3.3-0.8,4.9-1.2v-0.6l0.3,0.5c1-0.3,2-0.5,3.1-0.8 M305.7,190.2c-20.9-6.8,26.4-9.6,35.7-4.1&#10;&#9;&#9;C341.4,186.1,326.6,197,305.7,190.2z M340.2,177c0,0-17.1,6.6-35.6-5.4C286.2,159.6,332.6,169.2,340.2,177z" id="el_LhUfVaHFwDn"/>
	<path d="M407.7,482l-14.5,10.6c0-0.2,0-0.3,0-0.5c0.6-6.4,1.3-14.9,2-24.4l0.1-0.7l12.2,14.7L407.7,482z" id="el_FLsAkv3GuIp"/>
	<path d="M407.7,482l-14.5,10.6c0-0.2,0-0.3,0-0.5l14.2-10.4L407.7,482z" id="el_WUUnQadtPue"/>
	<path d="M417.6,391.6l-16.8,12.3c0-0.2,0-0.3,0-0.5l16.5-12.1L417.6,391.6z" id="el_zvh9AflyB58"/>
	<path d="M410.3,233.4C410.3,233.4,410.2,233.4,410.3,233.4c0.1,0,0.2,0,0.4-0.1h-0.1&#10;&#9;&#9;C410.5,233.3,410.4,233.4,410.3,233.4z" id="el_LfawNCwKQmp"/>
	<path d="M380.8,501.8l-0.3-0.1l-10.3-2.5L380.8,501.8l7.1,1.8c0.1,0,0.2,0,0.2,0L380.8,501.8z" id="el_2ovmN7JALsa"/>
	<path d="M406.1,234.2L406.1,234.2c0.1,0,0.1,0,0.2,0v0C406.3,234.2,406.2,234.2,406.1,234.2z" id="el_vufVXC-g3Iw"/>
	<polygon points="380.8,501.8 380.7,501.8 370.1,499.2 380.4,501.7 &#9;" id="el_WXlUViPMN0a"/>
	<path d="M388.1,503.6c-0.1,0-0.2,0-0.2,0l-7.2-1.8l0,0L388.1,503.6z" id="el_VdvbJtX2t6L"/>
	<path d="M353.2,185.8c1.1,9.3,20.1,14.6,42.4,11.8c15.3-1.9,28.3-7.1,34.4-13.2l-48.8-18.5&#10;&#9;&#9;C364.4,170,352.3,178.1,353.2,185.8z" id="el_aGVfnKlRvhR"/>
	<path d="M305.7,190.2c20.9,6.8,35.7-4.1,35.7-4.1C332,180.6,284.7,183.4,305.7,190.2z" id="el_5BMvyXYiljP"/>
	<path d="M304.6,171.6c18.4,12,35.6,5.4,35.6,5.4C332.6,169.2,286.2,159.6,304.6,171.6z" id="el_OOmJgF7_MRh"/>
	<path d="M435.2,187.9c1.9,9,33.9,31,25.5,15.1c-3-5.5-6.9-9.1-10.9-11.4l-8.7-3.2C437.4,187.8,435.2,187.9,435.2,187.9&#10;&#9;&#9;z" id="el_S4kvzhfGElN"/>
	<path d="M323.7,314.7c-2.3,0-4.2-2.5-4.2-5.6c0-1.1,0.2-2.1,0.7-3c-1,1-1.7,2.6-1.7,4.5c0,3.1,1.9,5.6,4.2,5.6&#10;&#9;&#9;c1.5,0,2.8-1,3.5-2.6C325.5,314.3,324.7,314.7,323.7,314.7z" id="el_BqBgScIst-r"/>
	<path d="M342.5,422.8c-2.3,0-4.2-2.5-4.2-5.6c0-1.1,0.2-2.1,0.7-3c-1,1-1.7,2.6-1.7,4.5c0,3.1,1.9,5.6,4.2,5.6&#10;&#9;&#9;c1.5,0,2.8-1,3.5-2.6C344.2,422.4,343.4,422.8,342.5,422.8z" id="el_VBVp7w_5h8T"/>
	<path d="M332.1,365.8c-2.3,0-4.2-2.5-4.2-5.6c0-1.1,0.2-2.1,0.7-3c-1,1-1.7,2.6-1.7,4.5c0,3.1,1.9,5.6,4.2,5.6&#10;&#9;&#9;c1.5,0,2.8-1,3.5-2.6C333.8,365.4,333,365.8,332.1,365.8z" id="el_rkhPXIg7NPL"/>
	<path d="M318.5,270.5c1.5,0,2.8-1,3.5-2.6c-0.7,0.7-1.5,1.1-2.5,1.1c-2.3,0-4.2-2.5-4.2-5.6c0-1.1,0.2-2.1,0.7-3&#10;&#9;&#9;c-1,1-1.7,2.6-1.7,4.5C314.4,268,316.2,270.5,318.5,270.5z" id="el_UV_cuzIItxu"/>
	<path d="M320.2,306.2c0.7-0.7,1.5-1.1,2.5-1.1c2.3,0,4.2,2.5,4.2,5.6c0,1.1-0.2,2.1-0.7,3c1-1,1.7-2.6,1.7-4.5&#10;&#9;&#9;c0-3.1-1.9-5.6-4.2-5.6C322.3,303.6,321,304.7,320.2,306.2z" id="el_b32NcKysyXv"/>
	<path d="M322.7,305.1c-0.9,0-1.8,0.4-2.5,1.1c-0.4,0.9-0.7,1.9-0.7,3c0,3.1,1.9,5.6,4.2,5.6c0.9,0,1.8-0.4,2.5-1.1&#10;&#9;&#9;c0.4-0.9,0.7-1.9,0.7-3C326.9,307.6,325,305.1,322.7,305.1z" id="el_bfKcg0A6_bA"/>
	<path d="M342.5,411.7c-1.5,0-2.8,1-3.5,2.6c0.7-0.7,1.5-1.1,2.5-1.1c2.3,0,4.2,2.5,4.2,5.6c0,1.1-0.2,2.1-0.7,3&#10;&#9;&#9;c1-1,1.7-2.6,1.7-4.5C346.6,414.1,344.8,411.7,342.5,411.7z" id="el_Wwhb-B6lWJC"/>
	<path d="M336.2,360.2c0-1.2-0.3-2.3-0.8-3.2v6.4C335.9,362.5,336.2,361.4,336.2,360.2z" id="el_LP9Jdw2CCPb"/>
	<path d="M332.1,354.7c-1.5,0-2.8,1-3.5,2.6c0.7-0.7,1.5-1.1,2.5-1.1c2.3,0,4.2,2.5,4.2,5.6c0,1.1-0.2,2.1-0.7,3&#10;&#9;&#9;c0.4-0.4,0.7-0.8,0.9-1.3v-6.4C334.7,355.6,333.5,354.7,332.1,354.7z" id="el_xnW7C-JLMvM"/>
	<path d="M331,356.2c-0.9,0-1.8,0.4-2.5,1.1c-0.4,0.9-0.7,1.9-0.7,3c0,3.1,1.9,5.6,4.2,5.6c0.9,0,1.8-0.4,2.5-1.1&#10;&#9;&#9;c0.4-0.9,0.7-1.9,0.7-3C335.2,358.6,333.3,356.2,331,356.2z" id="el_ZOZW9a_CR1L"/>
	<path d="M318.5,259.4c2.3,0,4.2,2.5,4.2,5.6c0,1.1-0.2,2.1-0.7,3c1-1,1.7-2.6,1.7-4.5c0-3.1-1.9-5.6-4.2-5.6&#10;&#9;&#9;c-1.5,0-2.8,1-3.5,2.6C316.8,259.8,317.6,259.4,318.5,259.4z" id="el_csgKsz9Chbq"/>
	<path d="M319.6,269c0.9,0,1.8-0.4,2.5-1.1c0.4-0.9,0.7-1.9,0.7-3c0-3.1-1.9-5.6-4.2-5.6c-0.9,0-1.8,0.4-2.5,1.1&#10;&#9;&#9;c-0.4,0.9-0.7,1.9-0.7,3C315.4,266.5,317.3,269,319.6,269z" id="el_j5oySILAX1g"/>
	<path d="M323.7,144.3L323.7,144.3L323.7,144.3z" id="el_kfqLCa3WtYO"/>
	<path d="M441.7,188.6l8.1,3.1" id="el_jO4y1VAj3H2"/>
	<path d="M379.2,502.3l21.1,3.4l20.5-173.9l20.6-57.4L418,232.2l-12,1.8l-0.1,0c0.1,0,0.1,0,0.2,0v-0.2&#10;&#9;&#9;c0,0,1.5-0.2,4.1-0.6h0.1c0.1,0,0.2,0,0.3-0.1h-1.4L292,210.7c0,0,2.7,44.4,4.8,96.5v0.5c0.5,11.8,0.9,24,1.3,36.2&#10;&#9;&#9;c-0.1,0.5-0.1,1-0.1,1.5c0,0.7,0.1,1.4,0.2,2c1.5,54.1,1.5,105.7-3.4,119c20.1,24.7,37.8,27.6,40.2,27.8v0 M314.2,264.8&#10;&#9;&#9;c0-1.8,0.7-3.5,1.7-4.5c0.7-1.6,2-2.6,3.5-2.6c2.3,0,4.2,2.5,4.2,5.6c0,1.8-0.7,3.5-1.7,4.5c-0.7,1.5-2,2.6-3.5,2.6&#10;&#9;&#9;C316.1,270.4,314.2,267.9,314.2,264.8z M322.5,316.1c-2.3,0-4.2-2.5-4.2-5.6c0-1.8,0.7-3.5,1.7-4.5c0.7-1.5,2-2.6,3.5-2.6&#10;&#9;&#9;c2.3,0,4.2,2.5,4.2,5.6c0,1.8-0.7,3.5-1.7,4.5C325.3,315,324,316.1,322.5,316.1z M335,363.2v0.5c-0.2,0.3-0.4,0.6-0.6,0.8&#10;&#9;&#9;c-0.7,1.5-2,2.6-3.5,2.6c-2.3,0-4.2-2.5-4.2-5.6c0-1.8,0.7-3.5,1.7-4.5c0.7-1.5,2-2.6,3.5-2.6c1.2,0,2.3,0.7,3.1,1.9v0.5&#10;&#9;&#9;c0.5,0.9,0.8,2,0.8,3.2C335.8,361.2,335.5,362.3,335,363.2z M344.7,421.4c-0.7,1.6-2,2.6-3.5,2.6c-2.3,0-4.2-2.5-4.2-5.6&#10;&#9;&#9;c0-1.8,0.7-3.5,1.7-4.5c0.7-1.5,2-2.6,3.5-2.6c2.3,0,4.2,2.5,4.2,5.6C346.4,418.7,345.7,420.4,344.7,421.4z" id="el_-SPhsZpAfJ4"/>
	<path d="M507.6,428.2c-0.3-5.9-0.6-12.1-1-18.4c-1.1-17.9-2.5-37.4-4-57c-0.7-9-1.4-18.1-2.2-27.1&#10;&#9;&#9;c-1.6-19.4-3.3-38.3-4.8-55.1c-0.6-6.3-1.1-12.3-1.7-17.9c-1.9-20.6-3.9-39.5-4.5-46.1c-8.8,2.7-16.6,6.5-25.3,10.1&#10;&#9;&#9;c-1.3,0.5-2.8,1.7-4.1,2.1l-6.8,1.8c-3.3,0.9-6.7,4.4-10.1,5.3c-0.3,0.1-0.6,0.2-0.8,0.2c-7.3,2.1-14,3.6-19.6,4.8&#10;&#9;&#9;c-5,1-9.1,1.7-12,2.2c2.5-0.1,4.3-0.2,5.1-0.2c0.4,0,0.7,0.1,1,0.4c0.8,0.7,1.1,2.4,1.1,4.7c0,1-0.1,2.2-0.2,3.5&#10;&#9;&#9;c-0.1,1-0.1,1.7-0.1,1.7c-0.2,1.5-0.4,3.2-0.7,4.9c-2.5,14.3-8.4,33.9-9.2,37.1c-1.2,5-9.9,21.6-9.9,21.6s2,7.3,3,13.6v0.1&#10;&#9;&#9;c0.2,1.4,0.4,2.8,0.5,4c0.1,1.9,0.1,3.4-0.4,4.1c-0.1,0.2-0.2,0.4-0.4,0.6c-0.2,0.3-0.4,0.5-0.6,0.8c-1,1.3-2.2,2.6-3.5,4&#10;&#9;&#9;c-1.2,1.4-2.3,2.9-3,4c-0.4,0.6-0.6,1.3-0.8,1.9l10.8,19.5c0.4,0.7,0.8,1.4,1,1.9c0.3,0.6,0.4,1,0.4,1.3c0,0.1,0,0.2,0,0.3&#10;&#9;&#9;c-0.1,0.1-0.2,1.1-0.5,2.8l-0.2,9.4l0.4,0.4c-0.8,8.1-1.6,17.5-2.5,27.5l-1.1,0.8c0-0.2,0-0.3,0-0.5l-0.2,0.2&#10;&#9;&#9;c-0.6,6.2-1.1,12.9-1.7,19.6c0,0.3-0.1,0.6-0.1,0.9c-0.6,6.8-1.2,13.7-1.8,20.5c0,0.2,0,0.4-0.1,0.7l0.7,0.8l-2.5,20.6l12.4,15l0,0&#10;&#9;&#9;l0.2,0.3l-14.5,10.6c0-0.2,0-0.3,0-0.5l-0.2,0.2c0,0.1,0,0.2,0,0.2l-0.9,11.2c0,0-1.4-0.2-3.9-0.5l10.5,2.5&#10;&#9;&#9;c0.6,0.1,1.2,0.1,1.8,0.2l16.9-12.4l11.7,14.2c6.9,0.1,13.4-0.1,19.6-0.6c19.5-1.4,34.9-5,46.3-8.8c0,0,0,0,6-5.4&#10;&#9;&#9;c1.3-1.2,3-2.6,4.9-4.4c1.2-1,1.9-5,2.3-11.2C509,467.1,508.6,449.5,507.6,428.2z" id="el_2OTIWE_PBtz"/>
</g></g>
</svg>