<svg version="1.1" id="el_n0G_QmX_3" xmlns="http://www.w3.org/2000/svg" xmlns:xlink="http://www.w3.org/1999/xlink" x="0px" y="0px" viewBox="0 0 576 576" style="enable-background:new 0 0 576 576;" xml:space="preserve"><style>@-webkit-keyframes kf_el_bj1FYKD0sqX_an_c3CTRTq2J{73.33%{opacity: 1;}76.67%{opacity: 0;}0%{opacity: 1;}100%{opacity: 0;}}@keyframes kf_el_bj1FYKD0sqX_an_c3CTRTq2J{73.33%{opacity: 1;}76.67%{opacity: 0;}0%{opacity: 1;}100%{opacity: 0;}}@-webkit-keyframes kf_el_uttqt5naO_8_an_HeHcFzUx1{48.89%{opacity: 1;}62.22%{opacity: 0;}0%{opacity: 1;}100%{opacity: 0;}}@keyframes kf_el_uttqt5naO_8_an_HeHcFzUx1{48.89%{opacity: 1;}62.22%{opacity: 0;}0%{opacity: 1;}100%{opacity: 0;}}@-webkit-keyframes kf_el_2g9ET5FqSuB_an_q5a_QgAdZ{0%{opacity: 1;}23.33%{opacity: 0;}100%{opacity: 0;}}@keyframes kf_el_2g9ET5FqSuB_an_q5a_QgAdZ{0%{opacity: 1;}23.33%{opacity: 0;}100%{opacity: 0;}}@-webkit-keyframes kf_el_2lsJVHQ0Hs_an_MG11Bvd68{0%{-webkit-transform: translate(3.585521697998047px, 144.47935485839844px) translate(-3.585521697998047px, -144.47935485839844px) translate(0px, 0px);transform: translate(3.585521697998047px, 144.47935485839844px) translate(-3.585521697998047px, -144.47935485839844px) translate(0px, 0px);}22.22%{-webkit-transform: translate(3.585521697998047px, 144.47935485839844px) translate(-3.585521697998047px, -144.47935485839844px) translate(0px, 20px);transform: translate(3.585521697998047px, 144.47935485839844px) translate(-3.585521697998047px, -144.47935485839844px) translate(0px, 20px);}50%{-webkit-transform: translate(3.585521697998047px, 144.47935485839844px) translate(-3.585521697998047px, -144.47935485839844px) translate(20px, 50px);transform: translate(3.585521697998047px, 144.47935485839844px) translate(-3.585521697998047px, -144.47935485839844px) translate(20px, 50px);}74.44%{-webkit-transform: translate(3.585521697998047px, 144.47935485839844px) translate(-3.585521697998047px, -144.47935485839844px) translate(20px, 110px);transform: translate(3.585521697998047px, 144.47935485839844px) translate(-3.585521697998047px, -144.47935485839844px) translate(20px, 110px);}100%{-webkit-transform: translate(3.585521697998047px, 144.47935485839844px) translate(-3.585521697998047px, -144.47935485839844px) translate(20px, 500px);transform: translate(3.585521697998047px, 144.47935485839844px) translate(-3.585521697998047px, -144.47935485839844px) translate(20px, 500px);}}@keyframes kf_el_2lsJVHQ0Hs_an_MG11Bvd68{0%{-webkit-transform: translate(3.585521697998047px, 144.47935485839844px) translate(-3.585521697998047px, -144.47935485839844px) translate(0px, 0px);transform: translate(3.585521697998047px, 144.47935485839844px) translate(-3.585521697998047px, -144.47935485839844px) translate(0px, 0px);}22.22%{-webkit-transform: translate(3.585521697998047px, 144.47935485839844px) translate(-3.585521697998047px, -144.47935485839844px) translate(0px, 20px);transform: translate(3.585521697998047px, 144.47935485839844px) translate(-3.585521697998047px, -144.47935485839844px) translate(0px, 20px);}50%{-webkit-transform: translate(3.585521697998047px, 144.47935485839844px) translate(-3.585521697998047px, -144.47935485839844px) translate(20px, 50px);transform: translate(3.585521697998047px, 144.47935485839844px) translate(-3.585521697998047px, -144.47935485839844px) translate(20px, 50px);}74.44%{-webkit-transform: translate(3.585521697998047px, 144.47935485839844px) translate(-3.585521697998047px, -144.47935485839844px) translate(20px, 110px);transform: translate(3.585521697998047px, 144.47935485839844px) translate(-3.585521697998047px, -144.47935485839844px) translate(20px, 110px);}100%{-webkit-transform: translate(3.585521697998047px, 144.47935485839844px) translate(-3.585521697998047px, -144.47935485839844px) translate(20px, 500px);transform: translate(3.585521697998047px, 144.47935485839844px) translate(-3.585521697998047px, -144.47935485839844px) translate(20px, 500px);}}#el_n0G_QmX_3 *{-webkit-animation-duration: 3s;animation-duration: 3s;-webkit-animation-iteration-count: infinite;animation-iteration-count: infinite;-webkit-animation-timing-function: cubic-bezier(0, 0, 1, 1);animation-timing-function: cubic-bezier(0, 0, 1, 1);}#el_2gWHYGgo7y{fill: #F9DC0B;}#el_1OkraFrOMJ{fill: #F2D10C;}#el_I1k-WgDD0a{fill: #FECF25;-webkit-transform: matrix(0.9924, -0.1233, 0.1233, 0.9924, -17.1309, 49.8013);transform: matrix(0.9924, -0.1233, 0.1233, 0.9924, -17.1309, 49.8013);}#el_UMY8gj9MHe{fill: #FECF25;}#el_bvrplzwe7M{fill: #FECF25;}#el_WDdnDWuNb5{fill: #FECF25;}#el_lG8wuKG1tQ{fill: #FECF25;}#el_IhUq82R7MD{fill: #FECF25;}#el_GOLFk-yKIC{fill: #FECF25;}#el_L0kGiu3fh2{fill: #D6AF0D;}#el_PpkNihBR5Y{fill: #D6AF0D;}#el_kF7BNF69Ad{fill: #D6AF0D;}#el_WVxKzWTlND{fill: #D6AF0D;}#el_OrnfAyObVNr{fill: #C1B4BE;}#el_OIqI6w0h-wI{fill: #E2D2DD;}#el_Xw9j1i4fhG8{fill: #374757;}#el_2g9ET5FqSuB{fill: #8E4E02;-webkit-animation-fill-mode: backwards;animation-fill-mode: backwards;opacity: 1;-webkit-animation-name: kf_el_2g9ET5FqSuB_an_q5a_QgAdZ;animation-name: kf_el_2g9ET5FqSuB_an_q5a_QgAdZ;-webkit-animation-timing-function: cubic-bezier(0, 0, 1, 1);animation-timing-function: cubic-bezier(0, 0, 1, 1);}#el_uttqt5naO_8{fill: #8E4E02;-webkit-animation-fill-mode: backwards;animation-fill-mode: backwards;opacity: 1;-webkit-animation-name: kf_el_uttqt5naO_8_an_HeHcFzUx1;animation-name: kf_el_uttqt5naO_8_an_HeHcFzUx1;-webkit-animation-timing-function: cubic-bezier(0, 0, 1, 1);animation-timing-function: cubic-bezier(0, 0, 1, 1);}#el_bj1FYKD0sqX{fill: #8E4E02;-webkit-animation-fill-mode: backwards;animation-fill-mode: backwards;opacity: 1;-webkit-animation-name: kf_el_bj1FYKD0sqX_an_c3CTRTq2J;animation-name: kf_el_bj1FYKD0sqX_an_c3CTRTq2J;-webkit-animation-timing-function: cubic-bezier(0, 0, 1, 1);animation-timing-function: cubic-bezier(0, 0, 1, 1);}#el_jzEM6uUixK9{fill: #EAC50F;}#el_2lsJVHQ0Hs_an_MG11Bvd68{-webkit-animation-fill-mode: backwards;animation-fill-mode: backwards;-webkit-transform: translate(3.585521697998047px, 144.47935485839844px) translate(-3.585521697998047px, -144.47935485839844px) translate(0px, 0px);transform: translate(3.585521697998047px, 144.47935485839844px) translate(-3.585521697998047px, -144.47935485839844px) translate(0px, 0px);-webkit-animation-name: kf_el_2lsJVHQ0Hs_an_MG11Bvd68;animation-name: kf_el_2lsJVHQ0Hs_an_MG11Bvd68;-webkit-animation-timing-function: cubic-bezier(0, 0, 1, 1);animation-timing-function: cubic-bezier(0, 0, 1, 1);}</style>

<path d="M271.8,169.2c-36.5,70.5,15.7,265.9,15.7,265.9c21.3,39.2,48.7,39.2,48.7,39.2l-0.1-248.1&#10;&#9;c3.3-0.3,9.1-0.9,16.6-1.7c3.7-0.4,7.8-0.9,12.2-1.5c11.4-1.5,25-3.5,39.3-6.1c2-0.4,4-0.7,6.1-1.1c1.8-0.3,3.7-0.7,5.5-1.1&#10;&#9;c6.2-1.3,12.6-2.6,18.8-4.1c1.6-0.4,3.3-0.8,4.9-1.2v-0.6l0.3,0.5c4.4-1.1,8.7-2.3,12.9-3.5c1.5-0.4,3-0.9,4.4-1.3l-0.2-0.4v-0.3&#10;&#9;l0.4,0.7c2-0.6,4.1-1.2,6.1-1.9c12.2-4,23.5-8.5,32.7-13.7c3.1-1.8,6.1-3.6,8.7-5.6c10.3-7.7,16.4-16.7,15.5-27.1c0-0.1,0-0.1,0-0.2&#10;&#9;c-0.6-1.9-1.2-3.9-1.7-5.7c-6.8-16.5-28.8-29-58.4-35.2c-0.3-0.1-0.6-0.1-0.9-0.2c-4.9-1-10-1.8-15.3-2.5c-0.3,0-0.6-0.1-0.9-0.1&#10;&#9;c-10.5-1.2-21.7-1.8-33.3-1.5c-0.1,0-0.1,0-0.2,0c-6.2,0.1-12.6,0.5-19,1.1c-0.1,0-0.1,0-0.2,0c-1.7,0.2-3.5,0.3-5.2,0.5&#10;&#9;c-4.3,0.5-8.6,1.1-12.8,1.8c-0.3,0-0.6,0.1-0.9,0.2c-5.2,0.9-10.3,1.9-15.2,3c-0.3,0.1-0.6,0.1-0.9,0.2&#10;&#9;c-26.3,6.2-48.4,16.1-63.4,27.9l-0.1,0.1c-5.3,4.1-9.7,8.5-13,13c0,0.1-0.1,0.1-0.1,0.2L271.8,169.2z" id="el_2gWHYGgo7y"/>
<path d="M310.4,466.2c0.4,0.4,0.9,0.8,1.5,1.1c13.8,8.8,80.4,16.3,80.4,16.3l0.8-10.9l0,0c0.5-6.4,1.3-15.1,2.1-25&#10;&#9;l2.5-21.1l-0.7-0.8c0.6-7.2,1.2-14.6,1.9-21.8l0,0l0,0c1.6-18.5,3.2-36,4.3-47.2c0-0.3,0.1-0.5,0.1-0.8l0.7,0.9l0.2-9.8&#10;&#9;c0.2-1.7,0.4-2.7,0.5-2.8c0.2-0.2,0-0.8-0.4-1.5l0,0l0,0c-0.3-0.5-0.6-1.2-1-1.9l-10.7-19.3c0.2-0.6,0.4-1.2,0.8-1.9&#10;&#9;c0.7-1.1,1.8-2.6,3-4s2.5-2.7,3.4-4c0.2-0.3,0.4-0.5,0.6-0.8l0,0l0,0c0.1-0.2,0.3-0.4,0.4-0.6c0.4-0.7,0.5-2.2,0.4-4.1&#10;&#9;c-0.1-1.2-0.3-2.6-0.5-4c-1-6.2-3-13.6-3-13.6s8.5-16.4,9.8-21.4c0.9-3.5,8.1-27.5,9.8-41.6l0,0c0,0,0.1-0.7,0.1-1.7&#10;&#9;c0.4-4.1,0.2-7.1-0.9-8.1l0,0c-0.3-0.2-0.6-0.4-1-0.4c-0.9,0-3.3,0.1-6.6,0.2l-115-22.2c0,0,2.7,44,4.7,95.6c0,0.2,0,0.3,0,0.5&#10;&#9;c0.5,11.7,0.9,23.8,1.2,35.8c-0.1,0.5-0.1,1-0.1,1.5c0,0.7,0.1,1.4,0.2,2c1.6,55.1,1.5,108.5-3.8,119.8l5.4,7.3L310.4,466.2z&#10;&#9; M322.3,358.4l0.3,0.3l0,0L322.3,358.4z" id="el_1OkraFrOMJ"/>
<ellipse cx="393.8" cy="163.3" rx="38.6" ry="16.1" id="el_I1k-WgDD0a"/>
<path d="M341.8,169c0,0-14.6,10.7-35.4,4C285.7,166.3,332.5,163.5,341.8,169z" id="el_UMY8gj9MHe"/>
<path d="M340.6,159.9c0,0-16.9,6.5-35.2-5.4C287.1,142.7,333,152.2,340.6,159.9z" id="el_bvrplzwe7M"/>
<path d="M413.1,137.2c0,0,2.4-12.4,16.3-21.4S420.6,134.2,413.1,137.2z" id="el_WDdnDWuNb5"/>
<path d="M447.9,155.1c0,0,10.1-7.6,26.4-4.9C490.7,152.9,455.5,157.9,447.9,155.1z" id="el_lG8wuKG1tQ"/>
<path d="M434.9,170.7c0,0,16.7-0.7,24.8,14.7C467.7,200.7,436.7,179.5,434.9,170.7z" id="el_IhUq82R7MD"/>
<path d="M396,139.4c0,0-4.8-9,0.3-20.7S399.6,134.3,396,139.4z" id="el_GOLFk-yKIC"/>
<ellipse cx="323.3" cy="292.3" rx="4.1" ry="5.5" id="el_L0kGiu3fh2"/>
<ellipse cx="319.1" cy="247" rx="4.1" ry="5.5" id="el_PpkNihBR5Y"/>
<ellipse cx="331.5" cy="342.8" rx="4.1" ry="5.5" id="el_kF7BNF69Ad"/>
<ellipse cx="341.8" cy="399.3" rx="4.1" ry="5.5" id="el_WVxKzWTlND"/>
<g id="el_2lsJVHQ0Hs_an_MG11Bvd68" data-animator-group="true" data-animator-type="0"><g id="el_2lsJVHQ0Hs">
	<g id="el_qyf8mS-Dv2">
		<path d="M143.8,194.8c0.8-2.4,176.1,66.3,187.7,97.2l-45-1.2l-156.9-36.1L143.8,194.8z" id="el_OrnfAyObVNr"/>
		<path d="M143.1,197.6c0,0,174.9,66.3,187.4,94.7l-59.9-1.7l-147.8-32.5L143.1,197.6z" id="el_OIqI6w0h-wI"/>
	</g>
	<path d="M144.4,195c0,0-115.8-54.4-121-50.3s-28.3-5.3-16.5,35.6c7.6,16.6,12.4,14,12.4,14s6.8-12.7,17.7-7.2&#10;&#9;&#9;s41.1,24.7,41.1,24.7s23.8,9.7,32.2,11.3s17.7,8.5,20.1,12.3S144.4,195,144.4,195z" id="el_Xw9j1i4fhG8"/>
</g></g>
<ellipse cx="322.3" cy="292.8" rx="4.1" ry="5.5" id="el_2g9ET5FqSuB"/>
<ellipse cx="330.5" cy="343.3" rx="4.1" ry="5.5" id="el_uttqt5naO_8"/>
<ellipse cx="340.8" cy="399.8" rx="4.1" ry="5.5" id="el_bj1FYKD0sqX"/>
<path d="M561.1,349.8l0-0.2l0.1-0.1c0-3.4,0-6.9-0.1-10.3l0-0.7h0c-0.5-16.5-2.2-32.8-4.7-48.6l0.2-0.1&#10;&#9;c-0.5-3.3-1.1-6.5-1.7-9.8l0,0l0,0c-0.4-2.3-0.9-4.7-1.3-7l-5.2,3.8l-0.1-0.1l1.7-1.3c0.9-2.3,1.8-4.7,2.7-7&#10;&#9;c-2.7-12.9-5.7-25-8.8-36.1l-0.2-0.2c-1.3-4.4-2.5-8.7-3.7-12.8l0.1-0.1c-1.7-5.5-3.3-10.7-4.9-15.4l-2.1,1.5l0-0.1l2-1.5&#10;&#9;c-4.6-13.9-8.5-23.9-10.2-28.5c-0.6-1.7-5.1-21-5.1-21c-3.7,10-10.5,18.5-18.9,25.7l0.1,0.1c-3.2,2.8-6.7,5.2-10.4,7.6l-21,11&#10;&#9;c-9.4,4.1-18.9,7.3-27.7,9.8l-0.3,0.2c-7.1,2-13.5,3.5-19,4.6c-8.5,1.8-14.4,2.6-16,2.8l-0.4,0l-0.2,1.1l-3.1,19.8l9-6.6l0,0&#10;&#9;l-9.1,6.7l-11.1,71.4l0,0l-1.1,6.9l-0.7,4.6l-1.2,9.6l-0.8,6.6l5.6,6.9v0.2l-5.6-6.9l-7.7,63.1l-0.5,4.1l-2.1,16.8l-0.5,4.1l0,0&#10;&#9;l-6.7,56l1.2,0.1l-0.1,0.1l14,1.9l12.2,3c0.8,0.2,1.6,0.3,2.5,0.4l0.6,0c3.1,0.4,6.2,0.7,9.2,0.9l0,0c0,0,0.1,0,0.2,0&#10;&#9;c6.6,0.6,12.9,0.9,18.9,0.9l-0.5-0.6h0l0.5,0.6c6.9,0.1,13.3-0.1,19.4-0.6l-0.7-0.8l0,0l0.7,0.8c21.7-1.5,38.3-5.9,49.9-10.1&#10;&#9;c1.3-0.5,2.6-0.9,3.9-1.4l0,0c0.1,0,0.2-0.1,0.3-0.1c3.9-1.5,7.6-3.2,11-5.1c1.2-0.6,2.1-1.2,2.9-1.6l0-0.1c0.2-0.1,0.3-0.2,0.5-0.3&#10;&#9;c0.7-0.4,1.1-0.7,1.1-0.7c19.7-18.6,31.5-42.3,37.7-67.9l0,0c1.6-6.6,2.8-13.2,3.7-19.9l-5.2-6.3h0l5.2,6.3c0.5-3.6,0.9-7.3,1.2-11&#10;&#9;c0.3-3,0.5-6,0.6-9l0,0l0-0.1c0.2-3.5,0.3-7,0.3-10.5L561.1,349.8z" id="el_jzEM6uUixK9"/>
</svg>