<svg version="1.1" id="el_dcTpjuGL9" xmlns="http://www.w3.org/2000/svg" xmlns:xlink="http://www.w3.org/1999/xlink" x="0px" y="0px" viewBox="0 0 576 576" style="enable-background:new 0 0 576 576;" xml:space="preserve"><style>@-webkit-keyframes kf_el_kVIzuP0e2-_an_8cL4cc72j{0%{-webkit-transform: translate(255.39999389648438px, 279.79998779296875px) translate(-255.39999389648438px, -279.79998779296875px) translate(0px, 0px);transform: translate(255.39999389648438px, 279.79998779296875px) translate(-255.39999389648438px, -279.79998779296875px) translate(0px, 0px);}98.33%{-webkit-transform: translate(255.39999389648438px, 279.79998779296875px) translate(-255.39999389648438px, -279.79998779296875px) translate(-1000px, 0px);transform: translate(255.39999389648438px, 279.79998779296875px) translate(-255.39999389648438px, -279.79998779296875px) translate(-1000px, 0px);}100%{-webkit-transform: translate(255.39999389648438px, 279.79998779296875px) translate(-255.39999389648438px, -279.79998779296875px) translate(-1000px, 0px);transform: translate(255.39999389648438px, 279.79998779296875px) translate(-255.39999389648438px, -279.79998779296875px) translate(-1000px, 0px);}}@keyframes kf_el_kVIzuP0e2-_an_8cL4cc72j{0%{-webkit-transform: translate(255.39999389648438px, 279.79998779296875px) translate(-255.39999389648438px, -279.79998779296875px) translate(0px, 0px);transform: translate(255.39999389648438px, 279.79998779296875px) translate(-255.39999389648438px, -279.79998779296875px) translate(0px, 0px);}98.33%{-webkit-transform: translate(255.39999389648438px, 279.79998779296875px) translate(-255.39999389648438px, -279.79998779296875px) translate(-1000px, 0px);transform: translate(255.39999389648438px, 279.79998779296875px) translate(-255.39999389648438px, -279.79998779296875px) translate(-1000px, 0px);}100%{-webkit-transform: translate(255.39999389648438px, 279.79998779296875px) translate(-255.39999389648438px, -279.79998779296875px) translate(-1000px, 0px);transform: translate(255.39999389648438px, 279.79998779296875px) translate(-255.39999389648438px, -279.79998779296875px) translate(-1000px, 0px);}}@-webkit-keyframes kf_el_ycw5cIOyw__an_BDqfHiX27{0%{-webkit-transform: translate(4.681221008300781px, 155.52439880371094px) translate(-4.681221008300781px, -155.52439880371094px) translate(0px, 0px);transform: translate(4.681221008300781px, 155.52439880371094px) translate(-4.681221008300781px, -155.52439880371094px) translate(0px, 0px);}48.33%{-webkit-transform: translate(4.681221008300781px, 155.52439880371094px) translate(-4.681221008300781px, -155.52439880371094px) translate(0px, 700px);transform: translate(4.681221008300781px, 155.52439880371094px) translate(-4.681221008300781px, -155.52439880371094px) translate(0px, 700px);}100%{-webkit-transform: translate(4.681221008300781px, 155.52439880371094px) translate(-4.681221008300781px, -155.52439880371094px) translate(0px, 700px);transform: translate(4.681221008300781px, 155.52439880371094px) translate(-4.681221008300781px, -155.52439880371094px) translate(0px, 700px);}}@keyframes kf_el_ycw5cIOyw__an_BDqfHiX27{0%{-webkit-transform: translate(4.681221008300781px, 155.52439880371094px) translate(-4.681221008300781px, -155.52439880371094px) translate(0px, 0px);transform: translate(4.681221008300781px, 155.52439880371094px) translate(-4.681221008300781px, -155.52439880371094px) translate(0px, 0px);}48.33%{-webkit-transform: translate(4.681221008300781px, 155.52439880371094px) translate(-4.681221008300781px, -155.52439880371094px) translate(0px, 700px);transform: translate(4.681221008300781px, 155.52439880371094px) translate(-4.681221008300781px, -155.52439880371094px) translate(0px, 700px);}100%{-webkit-transform: translate(4.681221008300781px, 155.52439880371094px) translate(-4.681221008300781px, -155.52439880371094px) translate(0px, 700px);transform: translate(4.681221008300781px, 155.52439880371094px) translate(-4.681221008300781px, -155.52439880371094px) translate(0px, 700px);}}#el_dcTpjuGL9 *{-webkit-animation-duration: 2s;animation-duration: 2s;-webkit-animation-iteration-count: infinite;animation-iteration-count: infinite;-webkit-animation-timing-function: cubic-bezier(0, 0, 1, 1);animation-timing-function: cubic-bezier(0, 0, 1, 1);}#el_WeYqv0g0aV{fill: #FECF25;}#el_y8NENalrwV{fill: #FECF25;}#el_55wXX24AfW{fill: #FECF25;}#el_9YrMRO3Ox6{fill: #F9DC0B;}#el_c42Ljo3iYa{fill: #FECF25;}#el_5Zm4kwBjHN{fill: #EAC50F;}#el_DCrTYIoks6{fill: #C1B4BE;}#el_P0TY7rbn1B{fill: #E2D2DD;}#el_ZBlVjTXHxG{fill: #374757;}#el_4Z8hU5zufE{fill: #FECF25;}#el_idh4aoX9Qj{fill: #FECF25;}#el_zWybdFKif1q{fill: #FECF25;}#el_MjNzheg1HEw{fill: #FECF25;}#el_blNOTDC9M0I{fill: #FECF25;}#el_2Ov05bkKM1H{fill: #FECF25;}#el_jar8jn9vYdx{fill: #F9DC0B;}#el_3T4DknLvHgx{fill: #FECF25;}#el_feuLuNBfT7l{fill: #FECF25;}#el_4BBZpyaATeB{fill: #EAC50F;}#el_wV-M8ddIswL{fill: #C1B4BE;}#el_O103bNOFHK6{fill: #E2D2DD;}#el_aRWox5mZU7m{fill: #374757;}#el_r4Ykx8KuWy_{fill: #F2D10C;}#el_FYeZPOwg6EA{fill: #F2D10C;}#el_sDrUEhlQuGT{fill: #F2D10C;}#el_CtKwM8I34Fi{fill: #F2D10C;}#el_nqNS8ar3-NM{fill: #F2D10C;}#el_K_RUbmdOkhk{fill: #F2D10C;}#el_YDiwqzHDXlI{fill: #F2D10C;}#el_CyCJhgjgotA{fill: #F2D10C;}#el_RQ0BzVwhB_w{fill: #F2D10C;}#el_CBEbWph0Osl{fill: #F2D10C;}#el_AMo1NwLDO4V{fill: #F2D10C;}#el_gZKydsFXEl4{fill: #F2D10C;}#el_dobV_XoFUwd{fill: #F2D10C;}#el_aGojf1TWVyT{fill: #F2D10C;}#el_FaSc14C8kOI{fill: #F2D10C;}#el_g_ry-2oTGeX{fill: #F2D10C;}#el_9aNU2pPJkFL{fill: #F2D10C;}#el_2nqz6FFRSuG{fill: #F2D10C;}#el_qoKjm2CPLu0{fill: #F2D10C;}#el_Sx3VuwnmCdC{fill: #FECF25;}#el_SVeYykhVmbb{fill: none;}#el_Q4c1gR9vrtG{fill: #F2D10C;}#el_1x-ow9bV4lq{fill: #F9DC0B;}#el_uEl12ON8BI2{fill: #EAC50F;}#el_1XCtUrCxRw1{fill: #F2D10C;}#el_aUCsZWaDsSt{fill: #F2D10C;}#el_dHi9cpimdF_{fill: #F2D10C;}#el_Ny5rjTF-zd8{fill: #F2D10C;}#el_8P9hl1NLqq5{fill: #F2D10C;}#el_iIvAQKfzk20{fill: #F2D10C;}#el_-y3h_Os7vs7{fill: #F2D10C;}#el_LS-wuE1JoD4{fill: #F2D10C;}#el_VirM8sBKAkt{fill: #F2D10C;}#el_uVcaKoeqvRA{fill: #FECF25;}#el_oKCrP4H7A71{fill: #F2D10C;}#el_sOX2mg7K2o7{fill: #F2D10C;}#el_6Zlt8PKwg61{fill: #F2D10C;}#el_yjngz4NIDus{fill: #F2D10C;}#el_d0tpXTJMkLd{fill: #F2D10C;}#el_8WM3J2Psjsd{fill: #F2D10C;}#el_0bhTmRb-EvT{fill: #EAC50F;}#el_GgM7YADHSkP{fill: #FECF25;}#el_oUOM_omtRL-{fill: #F9DC0B;}#el_IdeB2Sxz_cb{fill: #FECF25;}#el_Owp2p4zOy2R{fill: #F9DC0B;}#el_jvtIIv8GAIJ{fill: #F9DC0B;}#el_m4cI9pS3sEI{fill: #EAC50F;}#el_2MmuRInwCbx{fill: #EAC50F;}#el_qHMEl-o6kc6{fill: #F9DC0B;}#el_TvgSZql1-zW{fill: #EAC50F;}#el_ZAy4cSDdMwG{fill: #EAC50F;}#el_Ky5x1z6ysIk{fill: #FECF25;}#el_WSERU78cjMO{fill: #FECF25;}#el_GL_ZQiMcbXV{fill: #FECF25;}#el_RLkAhAK3Pqp{fill: #C1B4BE;}#el_yuXhGsQvfwy{fill: #E2D2DD;}#el_NyN3IIBbOBU{fill: #374757;}#el_uAT9YtEorTn{fill: #EAC50F;}#el_Ew3NlTnFK2o{fill: none;}#el_n4tp1BQB6ax{fill: #F9DC0B;}#el_6hEg65yUUmT{fill: #EAC50F;}#el_XEnbXKXHey6{fill: #EAC50F;}#el_4ESPkqboTz1{fill: #EAC50F;}#el_kl71qNMbNVE{fill: #F2D10C;}#el_WR84GLvwn2i{fill: #F2D10C;}#el_0HGk4yFgtZd{fill: #F2D10C;}#el_aJzipQoRNas{fill: #F2D10C;}#el_d2rvqvCcHyB{fill: #F2D10C;}#el_m1URZh1wSIY{fill: #FECF25;}#el_HDdQvAQhf79{fill: #FECF25;}#el_KXfTNZWbqiB{fill: #FECF25;}#el_cP9PtgRtkxq{fill: #FECF25;}#el_kAcK_MBZbKg{fill: #E5C213;}#el_A9yt-xYqgTc{fill: #E5C213;}#el_hLZCr6CZBv4{fill: #E5C213;}#el_Mt8Qd4Shd4H{fill: #E5C213;}#el_9JWpPdSmlX1{fill: #EAC50F;}#el_d7Nb_V39bZW{fill: #EAC50F;}#el_PwRe82-D0Gt{fill: #EAC50F;}#el_BjY1Rj7N3w7{fill: #EAC50F;}#el_EPDo9XsOypK{fill: #EAC50F;}#el_zaaEbmopFX9{fill: #EAC50F;}#el_RXNxxGodAvs{fill: #EAC50F;}#el_JGeHEQiRwe_{fill: #EAC50F;}#el_2gTIqQxVdxX{fill: #EAC50F;}#el_7T7p0KpxPJ2{fill: #EAC50F;}#el_8WgVawDiJD9{fill: #F2D10C;}#el__rsPQe0lLXF{fill: #EAC50F;}#el_zW3VNdS9qmH_an_e1Sl2X909{-webkit-transform: translate(-692.4835815429688px, 146.8278045654297px) translate(692.4835815429688px, -146.8278045654297px) translate(0px, 0px);transform: translate(-692.4835815429688px, 146.8278045654297px) translate(692.4835815429688px, -146.8278045654297px) translate(0px, 0px);}#el_YSTw0Nt_Y8P{visibility: hidden;}#el_zW3VNdS9qmH{visibility: hidden;}#el_eKMrKZNgmqJ{visibility: hidden;}#el_nw30TtgNmgt{visibility: hidden;}#el_zV1qLMcVuyS{visibility: hidden;}#el_F5kUkImX8QY{visibility: hidden;}#el_ycw5cIOyw__an_BDqfHiX27{-webkit-animation-fill-mode: backwards;animation-fill-mode: backwards;-webkit-transform: translate(4.681221008300781px, 155.52439880371094px) translate(-4.681221008300781px, -155.52439880371094px) translate(0px, 0px);transform: translate(4.681221008300781px, 155.52439880371094px) translate(-4.681221008300781px, -155.52439880371094px) translate(0px, 0px);-webkit-animation-name: kf_el_ycw5cIOyw__an_BDqfHiX27;animation-name: kf_el_ycw5cIOyw__an_BDqfHiX27;-webkit-animation-timing-function: cubic-bezier(0, 0, 1, 1);animation-timing-function: cubic-bezier(0, 0, 1, 1);}#el_kVIzuP0e2-_an_8cL4cc72j{-webkit-animation-fill-mode: backwards;animation-fill-mode: backwards;-webkit-transform: translate(255.39999389648438px, 279.79998779296875px) translate(-255.39999389648438px, -279.79998779296875px) translate(0px, 0px);transform: translate(255.39999389648438px, 279.79998779296875px) translate(-255.39999389648438px, -279.79998779296875px) translate(0px, 0px);-webkit-animation-name: kf_el_kVIzuP0e2-_an_8cL4cc72j;animation-name: kf_el_kVIzuP0e2-_an_8cL4cc72j;-webkit-animation-timing-function: cubic-bezier(0, 0, 1, 1);animation-timing-function: cubic-bezier(0, 0, 1, 1);}</style>

<g id="el_gGt_c6hxE">
	<path d="M537.7,347.6C521,364.1,524,383.5,524,383.5C533.8,377.3,554.3,331.1,537.7,347.6z" id="el_WeYqv0g0aV"/>
	<path d="M555.8,355.8c-20.4,11.6-22.6,31-22.6,31C544.3,383.4,576.2,344.2,555.8,355.8z" id="el_y8NENalrwV"/>
	<g id="el_mPCVmSiesD">
		<path d="M517,334.7l7.3-9.2c0,0-43.4-19.2-93.6-42.8c-0.2-0.1-0.3-0.1-0.5-0.2c-11.4-5.4-23.2-10.9-34.8-16.6&#10;&#9;&#9;&#9;c-0.4-0.3-0.9-0.6-1.4-0.8c-0.7-0.4-1.4-0.6-2-0.8c-51.9-25.1-101.7-50.8-111.8-62c-7.4,1.6-13.5,3.5-18.8,5.7l256.6,116.7&#10;&#9;&#9;&#9;L517,334.7z" id="el_55wXX24AfW"/>
		<path d="M558.6,316.2c-49.3-69.8-261.8-116.6-261.8-116.6c-6.1,0.7-11.7,1.6-16.7,2.7c10.1,11.2,59.9,37,111.8,62&#10;&#9;&#9;&#9;c0.7,0.2,1.4,0.5,2,0.8c0.5,0.3,0.9,0.5,1.4,0.8c11.7,5.6,23.5,11.2,34.8,16.6c0.2,0.1,0.3,0.1,0.5,0.2&#10;&#9;&#9;&#9;c50.4,23.6,93.6,42.8,93.6,42.8l-7.3,9.2l-4.1,50.4L538,418l34.2-30.7c1.4-14.8,1-28.5-1.3-40c0-0.1,0-0.1,0-0.2&#10;&#9;&#9;&#9;c-1.4-7.1-3.3-13.4-6-18.8c0-0.1-0.1-0.1-0.1-0.2 M555.8,355.8c20.4-11.6-11.5,27.6-22.6,31C533.2,386.7,535.4,367.4,555.8,355.8z&#10;&#9;&#9;&#9; M537.7,347.6c16.7-16.5-3.8,29.6-13.6,35.8C524,383.5,521.1,364.1,537.7,347.6z" id="el_9YrMRO3Ox6"/>
		<polygon points="517,334.7 517.8,324.6 261.3,207.9 258.6,278.6 512.9,385.1 &#9;&#9;" id="el_c42Ljo3iYa"/>
		<polygon points="258.6,278.6 280.2,315.5 538.1,418 512.9,385.1 &#9;&#9;" id="el_5Zm4kwBjHN"/>
	</g>
</g>
<g id="el_ycw5cIOyw__an_BDqfHiX27" data-animator-group="true" data-animator-type="0"><g id="el_ycw5cIOyw_">
	<g id="el_6omtFkxqy0">
		<path d="M220,223.1c1.5-3.1,268.3,89.3,283.9,130L434,351l-241-49.4L220,223.1z" id="el_DCrTYIoks6"/>
		<path d="M218.8,226.7c0,0,266.6,89.2,283.6,126.7l-92.9-2.9L182.2,306L218.8,226.7z" id="el_P0TY7rbn1B"/>
	</g>
	<path d="M220.9,223.4c0,0-175.7-72.9-183.9-67.6s-43.6-7.3-28.7,46.6c10.5,21.9,18.2,18.5,18.2,18.5&#10;&#9;&#9;s11.6-16.6,28.1-9.2c16.5,7.4,61.9,33,61.9,33s36.2,13.1,49.2,15.2c13,2.2,26.9,11.4,30.3,16.3&#10;&#9;&#9;C199.3,281.1,220.9,223.4,220.9,223.4z" id="el_ZBlVjTXHxG"/>
</g></g>
<g id="el_kVIzuP0e2-_an_8cL4cc72j" data-animator-group="true" data-animator-type="0"><g id="el_kVIzuP0e2-">
	<path d="M511,398.3c2.2-0.8,4.3-0.9,6.2-0.2c7.5,2.7,9.3,17.3,5,34.5l15-13.5l-25.2-32.9L511,398.3z" id="el_4Z8hU5zufE"/>
	<path d="M517,398.1c-1.9-0.7-3.9-0.6-6.2,0.2l-3.8,47.9l15-13.5C526.4,415.4,524.6,400.8,517,398.1z" id="el_idh4aoX9Qj"/>
	<polygon points="511,398.3 511.9,386.2 257.6,279.8 257,294 &#9;" id="el_zWybdFKif1q"/>
	<polygon points="257,294 255.4,338.1 507,446.2 511,398.3 &#9;" id="el_MjNzheg1HEw"/>
</g></g>






</svg>