<svg version="1.1" id="el_GXNAUTZ48" xmlns="http://www.w3.org/2000/svg" xmlns:xlink="http://www.w3.org/1999/xlink" x="0px" y="0px" viewBox="0 0 576 576" style="enable-background:new 0 0 576 576;" xml:space="preserve"><style>@-webkit-keyframes kf_el_2AcaYSM9d--_an_81CemG3CZ{0%{-webkit-transform: translate(197.45555114746094px, 301.6000061035156px) translate(-197.45555114746094px, -301.6000061035156px) translate(0px, 0px);transform: translate(197.45555114746094px, 301.6000061035156px) translate(-197.45555114746094px, -301.6000061035156px) translate(0px, 0px);}42.67%{-webkit-transform: translate(197.45555114746094px, 301.6000061035156px) translate(-197.45555114746094px, -301.6000061035156px) translate(-1000px, 0px);transform: translate(197.45555114746094px, 301.6000061035156px) translate(-197.45555114746094px, -301.6000061035156px) translate(-1000px, 0px);}100%{-webkit-transform: translate(197.45555114746094px, 301.6000061035156px) translate(-197.45555114746094px, -301.6000061035156px) translate(-1000px, 0px);transform: translate(197.45555114746094px, 301.6000061035156px) translate(-197.45555114746094px, -301.6000061035156px) translate(-1000px, 0px);}}@keyframes kf_el_2AcaYSM9d--_an_81CemG3CZ{0%{-webkit-transform: translate(197.45555114746094px, 301.6000061035156px) translate(-197.45555114746094px, -301.6000061035156px) translate(0px, 0px);transform: translate(197.45555114746094px, 301.6000061035156px) translate(-197.45555114746094px, -301.6000061035156px) translate(0px, 0px);}42.67%{-webkit-transform: translate(197.45555114746094px, 301.6000061035156px) translate(-197.45555114746094px, -301.6000061035156px) translate(-1000px, 0px);transform: translate(197.45555114746094px, 301.6000061035156px) translate(-197.45555114746094px, -301.6000061035156px) translate(-1000px, 0px);}100%{-webkit-transform: translate(197.45555114746094px, 301.6000061035156px) translate(-197.45555114746094px, -301.6000061035156px) translate(-1000px, 0px);transform: translate(197.45555114746094px, 301.6000061035156px) translate(-197.45555114746094px, -301.6000061035156px) translate(-1000px, 0px);}}@-webkit-keyframes kf_el_lPakJPOk7Ld_an_Iu6ixqbcm{0%{-webkit-transform: translate(168.16360473632812px, 16.824844360351562px) translate(-168.16360473632812px, -16.824844360351562px) translate(0px, 0px);transform: translate(168.16360473632812px, 16.824844360351562px) translate(-168.16360473632812px, -16.824844360351562px) translate(0px, 0px);}58.67%{-webkit-transform: translate(168.16360473632812px, 16.824844360351562px) translate(-168.16360473632812px, -16.824844360351562px) translate(0px, 700px);transform: translate(168.16360473632812px, 16.824844360351562px) translate(-168.16360473632812px, -16.824844360351562px) translate(0px, 700px);}100%{-webkit-transform: translate(168.16360473632812px, 16.824844360351562px) translate(-168.16360473632812px, -16.824844360351562px) translate(0px, 700px);transform: translate(168.16360473632812px, 16.824844360351562px) translate(-168.16360473632812px, -16.824844360351562px) translate(0px, 700px);}}@keyframes kf_el_lPakJPOk7Ld_an_Iu6ixqbcm{0%{-webkit-transform: translate(168.16360473632812px, 16.824844360351562px) translate(-168.16360473632812px, -16.824844360351562px) translate(0px, 0px);transform: translate(168.16360473632812px, 16.824844360351562px) translate(-168.16360473632812px, -16.824844360351562px) translate(0px, 0px);}58.67%{-webkit-transform: translate(168.16360473632812px, 16.824844360351562px) translate(-168.16360473632812px, -16.824844360351562px) translate(0px, 700px);transform: translate(168.16360473632812px, 16.824844360351562px) translate(-168.16360473632812px, -16.824844360351562px) translate(0px, 700px);}100%{-webkit-transform: translate(168.16360473632812px, 16.824844360351562px) translate(-168.16360473632812px, -16.824844360351562px) translate(0px, 700px);transform: translate(168.16360473632812px, 16.824844360351562px) translate(-168.16360473632812px, -16.824844360351562px) translate(0px, 700px);}}#el_GXNAUTZ48 *{-webkit-animation-duration: 2.5s;animation-duration: 2.5s;-webkit-animation-iteration-count: infinite;animation-iteration-count: infinite;-webkit-animation-timing-function: cubic-bezier(0, 0, 1, 1);animation-timing-function: cubic-bezier(0, 0, 1, 1);}#el_xu3X41MvEd{fill: #EAC50F;}#el_Lkxhva9lH-{fill: #EAC50F;}#el_BZcy_qrde-{fill: #EAC50F;}#el_yCvWPTjmF7{fill: #FECF25;}#el_skwEfWJdcO{fill: #F9DC0B;}#el_IerRv7wb-d{fill: #FECF25;}#el_jyCHPTVMmE{fill: #F7BE08;}#el_LQPgtPCNBi{fill: #F7BE08;}#el_eEjZ5sTq3m{fill: #F7BE08;}#el_oPI27kRqe-{fill: #F9B903;}#el_rlJ4T82O02{fill: #FECF25;}#el_kYrEnkWGwR{fill: #F9DC0B;}#el_D0QoJNHqs4{fill: #FECF25;}#el_sAyxAzAjriE{fill: #F7BE08;}#el_i_o0qTEs7-c{fill: #F7BE08;}#el_Q0-gAaMCJUr{fill: #F7BE08;}#el_Q4oLcfnFALP{fill: #F9B903;}#el_DwMRIKKXoB6{fill: #F9DC0B;}#el_C7DYqkf-TQE{fill: #F9B903;}#el_O5xTiTrfs3b{fill: #F9B903;}#el_D6l-m1_WxZp{fill: #FECF25;}#el_Zww-AxPjBqR{fill: #F7BE08;}#el_4lRjXktLX7g{fill: #F7BE08;}#el_QelX7CK2dRs{fill: #F7BE08;}#el_NYr_xxYb-9L{fill: #C1B4BE;}#el_1ptqlND7Beg{fill: #E2D2DD;}#el_5ck9AZPup8I{fill: #29353F;}#el_I60yhfWfyhF{fill: #374757;}#el_4ZerVeIyiVE{fill: #FECF25;}#el_0JNRenVMMVg{fill: #F9DC0B;}#el_LU6DTcj77XU{fill: #FECF25;}#el_GhECRZk1JBX{fill: #F7BE08;}#el_Qnz5BBLFrrb{fill: #F7BE08;}#el_KgjvW6CPPEv{fill: #F7BE08;}#el_kB6e9gXNydF{fill: #F9B903;}#el_lPakJPOk7Ld_an_Iu6ixqbcm{-webkit-animation-fill-mode: backwards;animation-fill-mode: backwards;-webkit-transform: translate(168.16360473632812px, 16.824844360351562px) translate(-168.16360473632812px, -16.824844360351562px) translate(0px, 0px);transform: translate(168.16360473632812px, 16.824844360351562px) translate(-168.16360473632812px, -16.824844360351562px) translate(0px, 0px);-webkit-animation-name: kf_el_lPakJPOk7Ld_an_Iu6ixqbcm;animation-name: kf_el_lPakJPOk7Ld_an_Iu6ixqbcm;-webkit-animation-timing-function: cubic-bezier(0, 0, 1, 1);animation-timing-function: cubic-bezier(0, 0, 1, 1);}#el_2AcaYSM9d--_an_81CemG3CZ{-webkit-animation-fill-mode: backwards;animation-fill-mode: backwards;-webkit-transform: translate(197.45555114746094px, 301.6000061035156px) translate(-197.45555114746094px, -301.6000061035156px) translate(0px, 0px);transform: translate(197.45555114746094px, 301.6000061035156px) translate(-197.45555114746094px, -301.6000061035156px) translate(0px, 0px);-webkit-animation-name: kf_el_2AcaYSM9d--_an_81CemG3CZ;animation-name: kf_el_2AcaYSM9d--_an_81CemG3CZ;-webkit-animation-timing-function: cubic-bezier(0, 0, 1, 1);animation-timing-function: cubic-bezier(0, 0, 1, 1);}</style>

<path d="M478.8,379.7c2.2-0.7,4.2-1.5,6-2.2l-0.3-0.3L478.8,379.7z" id="el_xu3X41MvEd"/>
<polygon points="478.8,379.7 478.8,379.7 478.8,379.7 " id="el_Lkxhva9lH-"/>
<path d="M483.3,375.6c-4.5,4-4.5,4-4.5,4l0,0l5.8-2.5L483.3,375.6z" id="el_BZcy_qrde-"/>
<g id="el_WRo92MLbWX">
	<path d="M71.7,426.4l29.1,63.7c9.8-1.5,22.1-6.5,36.1-14l-36.3-69.9L71.7,426.4z" id="el_yCvWPTjmF7"/>
	<path d="M47.8,402.3l33.1-22.4L34,364.5c-15.1,15.3-22.6,25.2-22.6,25.2L47.8,402.3z" id="el_skwEfWJdcO"/>
	<path d="M11.3,389.7c0,0,8.2,50,28.1,61.6c0,0,42.3,47.7,61.3,38.9l-29.1-63.7l-23.9-24.1L11.3,389.7z M35.1,441.7&#10;&#9;&#9;c-8.7-2,11.9-14.6,11.9-14.6S43.8,443.7,35.1,441.7z M56.1,455.5c-8.1,4.9,5.8-20.2,5.8-20.2S64.2,450.6,56.1,455.5z M47.6,449.1&#10;&#9;&#9;c-10.1,6,10.4-24.5,10.4-24.5S57.7,443.1,47.6,449.1z" id="el_IerRv7wb-d"/>
	<path d="M47,427.1c0,0-20.6,12.6-11.9,14.6C43.8,443.7,47,427.1,47,427.1z" id="el_jyCHPTVMmE"/>
	<path d="M56.1,455.5c8.1-4.9,5.8-20.2,5.8-20.2S48,460.3,56.1,455.5z" id="el_LQPgtPCNBi"/>
	<path d="M47.6,449.1c10.1-6,10.4-24.5,10.4-24.5S37.5,455.1,47.6,449.1z" id="el_eEjZ5sTq3m"/>
	<polygon points="88.4,390 80.9,379.9 47.8,402.3 71.7,426.4 100.5,406.2 &#9;" id="el_oPI27kRqe-"/>
</g>
<g id="el_vXZY-QaTMV">
	<path d="M105.4,465.1l63.9,28.7c6.4-7.6,12.3-19.5,17.9-34.3l-73.4-28.6L105.4,465.1z" id="el_rlJ4T82O02"/>
	<path d="M71.6,462.7L81.6,424l-45.4,19.4c-1.3,21.5-0.4,33.8-0.4,33.8L71.6,462.7z" id="el_kYrEnkWGwR"/>
	<path d="M35.8,477.3c0,0,39.1,32.2,61.7,27.7c0,0,63.3,8,71.7-11.3l-63.9-28.7l-33.8-2.3L35.8,477.3z M88,500.7&#10;&#9;&#9;c-7.9,4.3-0.7-18.8-0.7-18.8S95.9,496.4,88,500.7z M112.9,497.2c-2.9,9-8.9-19-8.9-19S115.7,488.2,112.9,497.2z M102.3,498&#10;&#9;&#9;c-3.6,11.2-8.4-25.3-8.4-25.3S105.9,486.8,102.3,498z" id="el_D0QoJNHqs4"/>
	<path d="M87.3,481.9c0,0-7.2,23.1,0.7,18.8C95.9,496.4,87.3,481.9,87.3,481.9z" id="el_sAyxAzAjriE"/>
	<path d="M112.9,497.2c2.9-9-8.9-19-8.9-19S110,506.2,112.9,497.2z" id="el_i_o0qTEs7-c"/>
	<path d="M102.3,498c3.6-11.2-8.4-25.3-8.4-25.3S98.6,509.2,102.3,498z" id="el_Q0-gAaMCJUr"/>
	<polygon points="94,426.6 81.6,424 71.6,462.7 105.4,465.1 113.8,430.8 &#9;" id="el_Q4oLcfnFALP"/>
</g>
<g id="el_BqL8r8Vph4F">
	<g id="el_QavjczszflP">
		<path d="M534.2,290.9L510,267.4c-130.3-12.7-230.4,16-278.5,34.3l36.9,34L534.2,290.9z" id="el_DwMRIKKXoB6"/>
		<polygon points="268.4,335.8 271.1,348.3 539.2,299.7 534.2,290.9 534.2,290.9 268.4,335.8 &#9;&#9;" id="el_C7DYqkf-TQE"/>
		<polygon points="275.5,368.4 275.5,368.4 549.5,318 539.2,299.7 271.1,348.3 &#9;&#9;" id="el_O5xTiTrfs3b"/>
		<path d="M549.5,318L278,368l0-0.3l-9.6-31.8L232,302c0,0-16.1,55.7-0.1,77.1c0,0,22.4,69.5,47.6,69.3v0&#10;&#9;&#9;&#9;c95.9-6.2,282.2-69.9,282.2-69.9C567.1,372.4,557,339.5,549.5,318z M230.3,365l0.2,0.7C230.4,365.5,230.4,365.3,230.3,365z" id="el_D6l-m1_WxZp"/>
	</g>
	<path d="M252.6,365.1c0,0-24.4,3-17.1,8.5C242.7,379,252.6,365.1,252.6,365.1z" id="el_Zww-AxPjBqR"/>
	<path d="M249,395.1c9.5-1.1,13.9-16.2,13.9-16.2S239.5,396.2,249,395.1z" id="el_4lRjXktLX7g"/>
	<path d="M243.9,385.6c11.9-1.3,20-18.3,20-18.3S232,386.9,243.9,385.6z" id="el_QelX7CK2dRs"/>
</g>
<g id="el_lPakJPOk7Ld_an_Iu6ixqbcm" data-animator-group="true" data-animator-type="0"><g id="el_lPakJPOk7Ld">
	<polygon points="248.3,202.6 325.4,474.2 255.4,197.8 &#9;" id="el_NYr_xxYb-9L"/>
	<path d="M233.3,234.1c0,0,45.5,205.2,92.1,240.1l-77-271.6L233.3,234.1z" id="el_1ptqlND7Beg"/>
	<path d="M208.4,41.3c0,0-18.6-42.7-35.3-15.3c0,0-3.4,20.7,9.7,25.6S248.6,204,248.6,204l6.8-6.1L208.4,41.3z" id="el_5ck9AZPup8I"/>
	<path d="M242.2,215.3l6.4-11.4c0,0-52.5-146.9-58.4-148.5s-19.1-16.7-15.4-31.2c0,0-13.8,14.1-1.6,25.5&#10;&#9;&#9;S242.2,215.3,242.2,215.3z" id="el_I60yhfWfyhF"/>
</g></g>
<g id="el_2AcaYSM9d--_an_81CemG3CZ" data-animator-group="true" data-animator-type="0"><g id="el_2AcaYSM9d--">
	<path d="M243.8,374.8v71.2c9.7,2.8,23.2,3.3,39.3,2.3l-4-80L243.8,374.8z" id="el_4ZerVeIyiVE"/>
	<path d="M231.9,342.4l40.1-6.8l-36.9-34c-20.5,7.8-31.6,13.7-31.6,13.7L231.9,342.4z" id="el_0JNRenVMMVg"/>
	<path d="M203.5,315.3c0,0-13.6,49.7,0,68.8c0,0,19,62.1,40.3,61.9v-71.2l-11.9-32.4L203.5,315.3z M203.5,373.5&#10;&#9;&#9;c-7.3-5.5,17.1-8.5,17.1-8.5S210.7,379,203.5,373.5z M217.1,395.1c-9.5,1.1,13.9-16.2,13.9-16.2S226.6,394.1,217.1,395.1z&#10;&#9;&#9; M211.9,385.6c-11.9,1.3,20-18.3,20-18.3S223.8,384.4,211.9,385.6z" id="el_LU6DTcj77XU"/>
	<path d="M220.6,365.1c0,0-24.4,3-17.1,8.5C210.7,379,220.6,365.1,220.6,365.1z" id="el_GhECRZk1JBX"/>
	<path d="M217.1,395.1c9.5-1.1,13.9-16.2,13.9-16.2S207.6,396.2,217.1,395.1z" id="el_Qnz5BBLFrrb"/>
	<path d="M211.9,385.6c11.9-1.3,20-18.3,20-18.3S200,386.9,211.9,385.6z" id="el_KgjvW6CPPEv"/>
	<polygon points="274.7,348.2 272,335.7 231.9,342.4 243.8,374.8 279.1,368.3 &#9;" id="el_kB6e9gXNydF"/>
</g></g>
</svg>