<svg version="1.1" id="el_VRpYOiADW" xmlns="http://www.w3.org/2000/svg" xmlns:xlink="http://www.w3.org/1999/xlink" x="0px" y="0px" viewBox="0 0 576 576" style="enable-background:new 0 0 576 576;" xml:space="preserve"><style>@-webkit-keyframes kf_el_n9im-NrgMWO_an_5HVnCAky7{0%{-webkit-transform: translate(242.90000915527344px, 322.4609069824219px) translate(-242.90000915527344px, -322.4609069824219px) translate(0px, -500px);transform: translate(242.90000915527344px, 322.4609069824219px) translate(-242.90000915527344px, -322.4609069824219px) translate(0px, -500px);}65.56%{-webkit-transform: translate(242.90000915527344px, 322.4609069824219px) translate(-242.90000915527344px, -322.4609069824219px) translate(0px, 0px);transform: translate(242.90000915527344px, 322.4609069824219px) translate(-242.90000915527344px, -322.4609069824219px) translate(0px, 0px);}100%{-webkit-transform: translate(242.90000915527344px, 322.4609069824219px) translate(-242.90000915527344px, -322.4609069824219px) translate(0px, 0px);transform: translate(242.90000915527344px, 322.4609069824219px) translate(-242.90000915527344px, -322.4609069824219px) translate(0px, 0px);}}@keyframes kf_el_n9im-NrgMWO_an_5HVnCAky7{0%{-webkit-transform: translate(242.90000915527344px, 322.4609069824219px) translate(-242.90000915527344px, -322.4609069824219px) translate(0px, -500px);transform: translate(242.90000915527344px, 322.4609069824219px) translate(-242.90000915527344px, -322.4609069824219px) translate(0px, -500px);}65.56%{-webkit-transform: translate(242.90000915527344px, 322.4609069824219px) translate(-242.90000915527344px, -322.4609069824219px) translate(0px, 0px);transform: translate(242.90000915527344px, 322.4609069824219px) translate(-242.90000915527344px, -322.4609069824219px) translate(0px, 0px);}100%{-webkit-transform: translate(242.90000915527344px, 322.4609069824219px) translate(-242.90000915527344px, -322.4609069824219px) translate(0px, 0px);transform: translate(242.90000915527344px, 322.4609069824219px) translate(-242.90000915527344px, -322.4609069824219px) translate(0px, 0px);}}@-webkit-keyframes kf_el_vfouiDzevi_an_gsvpnAUIM{0%{-webkit-transform: translate(373.79998779296875px, 223px) translate(-373.79998779296875px, -223px) translate(0px, -500px);transform: translate(373.79998779296875px, 223px) translate(-373.79998779296875px, -223px) translate(0px, -500px);}57.78%{-webkit-transform: translate(373.79998779296875px, 223px) translate(-373.79998779296875px, -223px) translate(0px, 0px);transform: translate(373.79998779296875px, 223px) translate(-373.79998779296875px, -223px) translate(0px, 0px);}100%{-webkit-transform: translate(373.79998779296875px, 223px) translate(-373.79998779296875px, -223px) translate(0px, 0px);transform: translate(373.79998779296875px, 223px) translate(-373.79998779296875px, -223px) translate(0px, 0px);}}@keyframes kf_el_vfouiDzevi_an_gsvpnAUIM{0%{-webkit-transform: translate(373.79998779296875px, 223px) translate(-373.79998779296875px, -223px) translate(0px, -500px);transform: translate(373.79998779296875px, 223px) translate(-373.79998779296875px, -223px) translate(0px, -500px);}57.78%{-webkit-transform: translate(373.79998779296875px, 223px) translate(-373.79998779296875px, -223px) translate(0px, 0px);transform: translate(373.79998779296875px, 223px) translate(-373.79998779296875px, -223px) translate(0px, 0px);}100%{-webkit-transform: translate(373.79998779296875px, 223px) translate(-373.79998779296875px, -223px) translate(0px, 0px);transform: translate(373.79998779296875px, 223px) translate(-373.79998779296875px, -223px) translate(0px, 0px);}}@-webkit-keyframes kf_el_vAFaNNEQTRo_an_e6TCH4CVE{0%{-webkit-transform: translate(311.6000061035156px, 223px) translate(-311.6000061035156px, -223px) translate(0px, -500px);transform: translate(311.6000061035156px, 223px) translate(-311.6000061035156px, -223px) translate(0px, -500px);}51.11%{-webkit-transform: translate(311.6000061035156px, 223px) translate(-311.6000061035156px, -223px) translate(0px, 0px);transform: translate(311.6000061035156px, 223px) translate(-311.6000061035156px, -223px) translate(0px, 0px);}100%{-webkit-transform: translate(311.6000061035156px, 223px) translate(-311.6000061035156px, -223px) translate(0px, 0px);transform: translate(311.6000061035156px, 223px) translate(-311.6000061035156px, -223px) translate(0px, 0px);}}@keyframes kf_el_vAFaNNEQTRo_an_e6TCH4CVE{0%{-webkit-transform: translate(311.6000061035156px, 223px) translate(-311.6000061035156px, -223px) translate(0px, -500px);transform: translate(311.6000061035156px, 223px) translate(-311.6000061035156px, -223px) translate(0px, -500px);}51.11%{-webkit-transform: translate(311.6000061035156px, 223px) translate(-311.6000061035156px, -223px) translate(0px, 0px);transform: translate(311.6000061035156px, 223px) translate(-311.6000061035156px, -223px) translate(0px, 0px);}100%{-webkit-transform: translate(311.6000061035156px, 223px) translate(-311.6000061035156px, -223px) translate(0px, 0px);transform: translate(311.6000061035156px, 223px) translate(-311.6000061035156px, -223px) translate(0px, 0px);}}@-webkit-keyframes kf_el_e9aPmeG9tYw_an_rZBJ3mOKv{0%{-webkit-transform: translate(246.6999969482422px, 230.5px) translate(-246.6999969482422px, -230.5px) translate(0px, -500px);transform: translate(246.6999969482422px, 230.5px) translate(-246.6999969482422px, -230.5px) translate(0px, -500px);}47.78%{-webkit-transform: translate(246.6999969482422px, 230.5px) translate(-246.6999969482422px, -230.5px) translate(0px, 0px);transform: translate(246.6999969482422px, 230.5px) translate(-246.6999969482422px, -230.5px) translate(0px, 0px);}100%{-webkit-transform: translate(246.6999969482422px, 230.5px) translate(-246.6999969482422px, -230.5px) translate(0px, 0px);transform: translate(246.6999969482422px, 230.5px) translate(-246.6999969482422px, -230.5px) translate(0px, 0px);}}@keyframes kf_el_e9aPmeG9tYw_an_rZBJ3mOKv{0%{-webkit-transform: translate(246.6999969482422px, 230.5px) translate(-246.6999969482422px, -230.5px) translate(0px, -500px);transform: translate(246.6999969482422px, 230.5px) translate(-246.6999969482422px, -230.5px) translate(0px, -500px);}47.78%{-webkit-transform: translate(246.6999969482422px, 230.5px) translate(-246.6999969482422px, -230.5px) translate(0px, 0px);transform: translate(246.6999969482422px, 230.5px) translate(-246.6999969482422px, -230.5px) translate(0px, 0px);}100%{-webkit-transform: translate(246.6999969482422px, 230.5px) translate(-246.6999969482422px, -230.5px) translate(0px, 0px);transform: translate(246.6999969482422px, 230.5px) translate(-246.6999969482422px, -230.5px) translate(0px, 0px);}}@-webkit-keyframes kf_el_4i7ojAI630g_an_qi0GGjQui{0%{-webkit-transform: translate(180.6999969482422px, 235.09999084472656px) translate(-180.6999969482422px, -235.09999084472656px) translate(0px, -500px);transform: translate(180.6999969482422px, 235.09999084472656px) translate(-180.6999969482422px, -235.09999084472656px) translate(0px, -500px);}41.11%{-webkit-transform: translate(180.6999969482422px, 235.09999084472656px) translate(-180.6999969482422px, -235.09999084472656px) translate(0px, 0px);transform: translate(180.6999969482422px, 235.09999084472656px) translate(-180.6999969482422px, -235.09999084472656px) translate(0px, 0px);}100%{-webkit-transform: translate(180.6999969482422px, 235.09999084472656px) translate(-180.6999969482422px, -235.09999084472656px) translate(0px, 0px);transform: translate(180.6999969482422px, 235.09999084472656px) translate(-180.6999969482422px, -235.09999084472656px) translate(0px, 0px);}}@keyframes kf_el_4i7ojAI630g_an_qi0GGjQui{0%{-webkit-transform: translate(180.6999969482422px, 235.09999084472656px) translate(-180.6999969482422px, -235.09999084472656px) translate(0px, -500px);transform: translate(180.6999969482422px, 235.09999084472656px) translate(-180.6999969482422px, -235.09999084472656px) translate(0px, -500px);}41.11%{-webkit-transform: translate(180.6999969482422px, 235.09999084472656px) translate(-180.6999969482422px, -235.09999084472656px) translate(0px, 0px);transform: translate(180.6999969482422px, 235.09999084472656px) translate(-180.6999969482422px, -235.09999084472656px) translate(0px, 0px);}100%{-webkit-transform: translate(180.6999969482422px, 235.09999084472656px) translate(-180.6999969482422px, -235.09999084472656px) translate(0px, 0px);transform: translate(180.6999969482422px, 235.09999084472656px) translate(-180.6999969482422px, -235.09999084472656px) translate(0px, 0px);}}@-webkit-keyframes kf_el_Z5wdYZ0AVpT_an_Od-FpoDrd{0%{-webkit-transform: translate(122.58863830566406px, 236px) translate(-122.58863830566406px, -236px) translate(0px, -500px);transform: translate(122.58863830566406px, 236px) translate(-122.58863830566406px, -236px) translate(0px, -500px);}35.56%{-webkit-transform: translate(122.58863830566406px, 236px) translate(-122.58863830566406px, -236px) translate(0px, 0px);transform: translate(122.58863830566406px, 236px) translate(-122.58863830566406px, -236px) translate(0px, 0px);}100%{-webkit-transform: translate(122.58863830566406px, 236px) translate(-122.58863830566406px, -236px) translate(0px, 0px);transform: translate(122.58863830566406px, 236px) translate(-122.58863830566406px, -236px) translate(0px, 0px);}}@keyframes kf_el_Z5wdYZ0AVpT_an_Od-FpoDrd{0%{-webkit-transform: translate(122.58863830566406px, 236px) translate(-122.58863830566406px, -236px) translate(0px, -500px);transform: translate(122.58863830566406px, 236px) translate(-122.58863830566406px, -236px) translate(0px, -500px);}35.56%{-webkit-transform: translate(122.58863830566406px, 236px) translate(-122.58863830566406px, -236px) translate(0px, 0px);transform: translate(122.58863830566406px, 236px) translate(-122.58863830566406px, -236px) translate(0px, 0px);}100%{-webkit-transform: translate(122.58863830566406px, 236px) translate(-122.58863830566406px, -236px) translate(0px, 0px);transform: translate(122.58863830566406px, 236px) translate(-122.58863830566406px, -236px) translate(0px, 0px);}}#el_VRpYOiADW *{-webkit-animation-duration: 3s;animation-duration: 3s;-webkit-animation-iteration-count: infinite;animation-iteration-count: infinite;-webkit-animation-timing-function: cubic-bezier(0, 0, 1, 1);animation-timing-function: cubic-bezier(0, 0, 1, 1);}#el_MT4TWpbKLA{fill: #EAC50F;}#el_Y1VN5fZAom{fill: #EAC50F;}#el_A2r6pXtb6t{fill: #EAC50F;}#el_zYFQi0omxx{fill: #EFEFEF;}#el_IlTuhHPCAY{fill: #F4F4F4;}#el_2_HS7d2wxW{fill: #EAEAEA;}#el_z2MHmhomu7{fill: #FECF25;}#el_aVFKtCGhcP{fill: #F9DC0B;}#el_2r3pLNU27N{fill: #FECF25;}#el_JoWyGvJqjV{fill: #F7BE08;}#el_JNdnry8gIX{fill: #F7BE08;}#el_vFWkML7kxm{fill: #F7BE08;}#el_KmVyu-h1EL{fill: #F9B903;}#el_yGRcISWK2cI{fill: #FECF25;}#el_6mvQqC9Smn7{fill: #F9DC0B;}#el_Lm_CATb-CM1{fill: #FECF25;}#el_PQZGfIIBXoq{fill: #F7BE08;}#el_YtPpG7kddgd{fill: #F7BE08;}#el_V9-mmsHXfTP{fill: #F7BE08;}#el_WXVeto4kzih{fill: #F9B903;}#el_O-IEVvQU_wv{fill: #FECF25;}#el_D1lQ749QAym{fill: #F9DC0B;}#el_tsK-cCQhcRx{fill: #FECF25;}#el_TWXsJvoUwGj{fill: #F7BE08;}#el_laa4KLcWPSQ{fill: #F7BE08;}#el_caA8dKGVZ_g{fill: #F7BE08;}#el_W68ZINJMjW_{fill: #F9B903;}#el_d1LV-1Vr2V9{fill: #FECF25;}#el_odAmi4M9vl0{fill: #F9DC0B;}#el_9uH1rSDD0Kr{fill: #FECF25;}#el_EDPYo6B3g9M{fill: #F7BE08;}#el_92uhYVJOnM4{fill: #F7BE08;}#el_Q90Qn0xC6bw{fill: #F7BE08;}#el_O75LVUGAyEW{fill: #F9B903;}#el_suuIW7NFmC6{fill: #FECF25;}#el_JXApLvnUh_3{fill: #F9DC0B;}#el__8us5LOMl0J{fill: #FECF25;}#el_TzJhY1YjxEO{fill: #F7BE08;}#el_tl5PUHj49ub{fill: #F7BE08;}#el_UeolhVN4_eK{fill: #F7BE08;}#el_HQYspXVGHtU{fill: #F9B903;}#el_IPzV_NIwa-h{fill: #FECF25;}#el_6g4AQNvTrcQ{fill: #F9DC0B;}#el_c_2Xg2mctka{fill: #FECF25;}#el_qjeTgyIsiVG{fill: #F7BE08;}#el_tjLXYwiF1rb{fill: #F7BE08;}#el_IpLyaFkZcGC{fill: #F7BE08;}#el__fcDJYckaF3{fill: #F9B903;}#el_Z5wdYZ0AVpT_an_Od-FpoDrd{-webkit-animation-fill-mode: backwards;animation-fill-mode: backwards;-webkit-transform: translate(122.58863830566406px, 236px) translate(-122.58863830566406px, -236px) translate(0px, -500px);transform: translate(122.58863830566406px, 236px) translate(-122.58863830566406px, -236px) translate(0px, -500px);-webkit-animation-name: kf_el_Z5wdYZ0AVpT_an_Od-FpoDrd;animation-name: kf_el_Z5wdYZ0AVpT_an_Od-FpoDrd;-webkit-animation-timing-function: cubic-bezier(0, 0, 1, 1);animation-timing-function: cubic-bezier(0, 0, 1, 1);}#el_4i7ojAI630g_an_qi0GGjQui{-webkit-animation-fill-mode: backwards;animation-fill-mode: backwards;-webkit-transform: translate(180.6999969482422px, 235.09999084472656px) translate(-180.6999969482422px, -235.09999084472656px) translate(0px, -500px);transform: translate(180.6999969482422px, 235.09999084472656px) translate(-180.6999969482422px, -235.09999084472656px) translate(0px, -500px);-webkit-animation-name: kf_el_4i7ojAI630g_an_qi0GGjQui;animation-name: kf_el_4i7ojAI630g_an_qi0GGjQui;-webkit-animation-timing-function: cubic-bezier(0, 0, 1, 1);animation-timing-function: cubic-bezier(0, 0, 1, 1);}#el_e9aPmeG9tYw_an_rZBJ3mOKv{-webkit-animation-fill-mode: backwards;animation-fill-mode: backwards;-webkit-transform: translate(246.6999969482422px, 230.5px) translate(-246.6999969482422px, -230.5px) translate(0px, -500px);transform: translate(246.6999969482422px, 230.5px) translate(-246.6999969482422px, -230.5px) translate(0px, -500px);-webkit-animation-name: kf_el_e9aPmeG9tYw_an_rZBJ3mOKv;animation-name: kf_el_e9aPmeG9tYw_an_rZBJ3mOKv;-webkit-animation-timing-function: cubic-bezier(0, 0, 1, 1);animation-timing-function: cubic-bezier(0, 0, 1, 1);}#el_vAFaNNEQTRo_an_e6TCH4CVE{-webkit-animation-fill-mode: backwards;animation-fill-mode: backwards;-webkit-transform: translate(311.6000061035156px, 223px) translate(-311.6000061035156px, -223px) translate(0px, -500px);transform: translate(311.6000061035156px, 223px) translate(-311.6000061035156px, -223px) translate(0px, -500px);-webkit-animation-name: kf_el_vAFaNNEQTRo_an_e6TCH4CVE;animation-name: kf_el_vAFaNNEQTRo_an_e6TCH4CVE;-webkit-animation-timing-function: cubic-bezier(0, 0, 1, 1);animation-timing-function: cubic-bezier(0, 0, 1, 1);}#el_vfouiDzevi_an_gsvpnAUIM{-webkit-animation-fill-mode: backwards;animation-fill-mode: backwards;-webkit-transform: translate(373.79998779296875px, 223px) translate(-373.79998779296875px, -223px) translate(0px, -500px);transform: translate(373.79998779296875px, 223px) translate(-373.79998779296875px, -223px) translate(0px, -500px);-webkit-animation-name: kf_el_vfouiDzevi_an_gsvpnAUIM;animation-name: kf_el_vfouiDzevi_an_gsvpnAUIM;-webkit-animation-timing-function: cubic-bezier(0, 0, 1, 1);animation-timing-function: cubic-bezier(0, 0, 1, 1);}#el_n9im-NrgMWO_an_5HVnCAky7{-webkit-animation-fill-mode: backwards;animation-fill-mode: backwards;-webkit-transform: translate(242.90000915527344px, 322.4609069824219px) translate(-242.90000915527344px, -322.4609069824219px) translate(0px, -500px);transform: translate(242.90000915527344px, 322.4609069824219px) translate(-242.90000915527344px, -322.4609069824219px) translate(0px, -500px);-webkit-animation-name: kf_el_n9im-NrgMWO_an_5HVnCAky7;animation-name: kf_el_n9im-NrgMWO_an_5HVnCAky7;-webkit-animation-timing-function: cubic-bezier(0, 0, 1, 1);animation-timing-function: cubic-bezier(0, 0, 1, 1);}</style>

<path d="M478.8,379.7c2.2-0.7,4.2-1.5,6-2.2l-0.3-0.3L478.8,379.7z" id="el_MT4TWpbKLA"/>
<polygon points="478.8,379.7 478.8,379.7 478.8,379.7 " id="el_Y1VN5fZAom"/>
<path d="M483.3,375.6c-4.5,4-4.5,4-4.5,4l0,0l5.8-2.5L483.3,375.6z" id="el_A2r6pXtb6t"/>
<g id="el_Q5rB-1xdW4">
	<ellipse cx="288.5" cy="318.7" rx="259.9" ry="85.6" id="el_zYFQi0omxx"/>
	<ellipse cx="288.5" cy="313.3" rx="259.9" ry="85.6" id="el_IlTuhHPCAY"/>
	<ellipse cx="288.5" cy="304.8" rx="182.6" ry="60.1" id="el_2_HS7d2wxW"/>
</g>
<g id="el_vfouiDzevi_an_gsvpnAUIM" data-animator-group="true" data-animator-type="0"><g id="el_vfouiDzevi">
	<path d="M426.1,271.4l28.3,50.5c8-1.9,17.8-6.9,28.8-14l-34.7-55.1L426.1,271.4z" id="el_z2MHmhomu7"/>
	<path d="M404.8,253.2l25.7-20.7l-39.7-9.5c-11.4,13.7-16.9,22.3-16.9,22.3L404.8,253.2z" id="el_aVFKtCGhcP"/>
	<path d="M373.8,245.3c0,0,10.1,40.7,27.4,48.8c0,0,38.2,36.5,53.2,27.8l-28.3-50.5l-21.3-18.2L373.8,245.3z M397,286.6&#10;&#9;&#9;c-7.3-1,8.8-12.8,8.8-12.8S404.3,287.6,397,286.6z M415.2,296.5c-6.3,4.5,3.4-17,3.4-17S421.6,291.9,415.2,296.5z M407.8,291.8&#10;&#9;&#9;c-7.9,5.6,6.9-20.9,6.9-20.9S415.7,286.2,407.8,291.8z" id="el_2r3pLNU27N"/>
	<path d="M405.8,273.8c0,0-16.1,11.8-8.8,12.8C404.3,287.6,405.8,273.8,405.8,273.8z" id="el_JoWyGvJqjV"/>
	<path d="M415.2,296.5c6.3-4.5,3.4-17,3.4-17S408.9,301,415.2,296.5z" id="el_JNdnry8gIX"/>
	<path d="M407.8,291.8c7.9-5.6,6.9-20.9,6.9-20.9S399.9,297.5,407.8,291.8z" id="el_vFWkML7kxm"/>
	<polygon points="437.4,240.3 430.5,232.5 404.8,253.2 426.1,271.4 448.5,252.8 &#9;" id="el_KmVyu-h1EL"/>
</g></g>
<g id="el_vAFaNNEQTRo_an_e6TCH4CVE" data-animator-group="true" data-animator-type="0"><g id="el_vAFaNNEQTRo">
	<path d="M360.7,275l22.7,53.3c8.1-1,18.4-4.9,30.1-10.8L385,258.9L360.7,275z" id="el_yGRcISWK2cI"/>
	<path d="M341.5,254.5l27.8-17.8L330.9,223c-12.9,12.4-19.3,20.3-19.3,20.3L341.5,254.5z" id="el_6mvQqC9Smn7"/>
	<path d="M311.6,243.3c0,0,5.6,41.5,21.9,51.5c0,0,33.9,40.4,49.9,33.5L360.7,275l-19.2-20.4L311.6,243.3z M330.1,286.8&#10;&#9;&#9;c-7.2-1.8,10.1-11.8,10.1-11.8S337.3,288.7,330.1,286.8z M347.2,298.7c-6.8,3.8,5.3-16.6,5.3-16.6S354,294.9,347.2,298.7z&#10;&#9;&#9; M340.3,293.2c-8.5,4.7,9.1-20.1,9.1-20.1S348.8,288.5,340.3,293.2z" id="el_Lm_CATb-CM1"/>
	<path d="M340.3,275.1c0,0-17.3,10-10.1,11.8C337.3,288.7,340.3,275.1,340.3,275.1z" id="el_PQZGfIIBXoq"/>
	<path d="M347.2,298.7c6.8-3.8,5.3-16.6,5.3-16.6S340.4,302.5,347.2,298.7z" id="el_YtPpG7kddgd"/>
	<path d="M340.3,293.2c8.5-4.7,9.1-20.1,9.1-20.1S331.8,298,340.3,293.2z" id="el_V9-mmsHXfTP"/>
	<polygon points="375.3,245.2 369.3,236.7 341.5,254.5 360.7,275 385,258.9 &#9;" id="el_WXVeto4kzih"/>
</g></g>
<g id="el_e9aPmeG9tYw_an_rZBJ3mOKv" data-animator-group="true" data-animator-type="0"><g id="el_e9aPmeG9tYw">
	<path d="M297.6,280.5l25.8,51.9c8-1.5,18.1-6,29.4-12.5l-31.9-56.8L297.6,280.5z" id="el_O-IEVvQU_wv"/>
	<path d="M277.2,261.3l26.7-19.4l-39.2-11.4c-12.1,13.1-18,21.4-18,21.4L277.2,261.3z" id="el_D1lQ749QAym"/>
	<path d="M246.7,251.8c0,0,8.1,41.1,24.9,50.1c0,0,36.3,38.3,51.7,30.5l-25.8-51.9l-20.4-19.3L246.7,251.8z&#10;&#9;&#9; M267.7,294.2c-7.3-1.4,9.4-12.4,9.4-12.4S275,295.6,267.7,294.2z M285.5,305c-6.5,4.2,4.3-16.8,4.3-16.8S292,300.8,285.5,305z&#10;&#9;&#9; M278.3,300c-8.2,5.2,7.9-20.6,7.9-20.6S286.4,294.7,278.3,300z" id="el_tsK-cCQhcRx"/>
	<path d="M277.1,281.8c0,0-16.7,11-9.4,12.4C275,295.6,277.1,281.8,277.1,281.8z" id="el_TWXsJvoUwGj"/>
	<path d="M285.5,305c6.5-4.2,4.3-16.8,4.3-16.8S278.9,309.2,285.5,305z" id="el_laa4KLcWPSQ"/>
	<path d="M278.3,300c8.2-5.2,7.9-20.6,7.9-20.6S270.1,305.2,278.3,300z" id="el_caA8dKGVZ_g"/>
	<polygon points="310.4,250 303.9,241.9 277.2,261.3 297.6,280.5 320.9,263.1 &#9;" id="el_W68ZINJMjW_"/>
</g></g>
<g id="el_4i7ojAI630g_an_qi0GGjQui" data-animator-group="true" data-animator-type="0"><g id="el_4i7ojAI630g">
	<path d="M230.6,286.2l24.1,52.7c8.1-1.2,18.3-5.4,29.8-11.6l-30-57.8L230.6,286.2z" id="el_d1LV-1Vr2V9"/>
	<path d="M210.9,266.3l27.3-18.5l-38.8-12.7c-12.5,12.7-18.7,20.8-18.7,20.8L210.9,266.3z" id="el_odAmi4M9vl0"/>
	<path d="M180.7,255.9c0,0,6.7,41.4,23.3,50.9c0,0,35,39.5,50.7,32.1l-24.1-52.7l-19.7-19.9L180.7,255.9z M200.4,298.9&#10;&#9;&#9;c-7.2-1.6,9.8-12.1,9.8-12.1S207.6,300.5,200.4,298.9z M217.7,310.3c-6.7,4,4.8-16.7,4.8-16.7S224.4,306.3,217.7,310.3z M210.7,305&#10;&#9;&#9;c-8.4,5,8.6-20.3,8.6-20.3S219.1,300.1,210.7,305z" id="el_9uH1rSDD0Kr"/>
	<path d="M210.2,286.9c0,0-17,10.4-9.8,12.1C207.6,300.5,210.2,286.9,210.2,286.9z" id="el_EDPYo6B3g9M"/>
	<path d="M217.7,310.3c6.7-4,4.8-16.7,4.8-16.7S211.1,314.3,217.7,310.3z" id="el_92uhYVJOnM4"/>
	<path d="M210.7,305c8.4-5,8.6-20.3,8.6-20.3S202.3,310,210.7,305z" id="el_Q90Qn0xC6bw"/>
	<polygon points="244.5,256.1 238.2,247.8 210.9,266.3 230.6,286.2 254.5,269.5 &#9;" id="el_O75LVUGAyEW"/>
</g></g>
<g id="el_n9im-NrgMWO_an_5HVnCAky7" data-animator-group="true" data-animator-type="0"><g id="el_n9im-NrgMWO">
	<path d="M307,358.4l-57.2-9.3c-3.5,7.4-5.7,18.2-6.9,31.2l64.8,7.2L307,358.4z" id="el_suuIW7NFmC6"/>
	<path d="M334.5,353l0.2,33l32.1-25.2c-3.6-17.5-6.9-27.1-6.9-27.1L334.5,353z" id="el_JXApLvnUh_3"/>
	<path d="M359.9,333.7c0,0-38.1-17.4-55.2-8.9c0,0-52.3,7.2-54.9,24.3l57.2,9.3l27.5-5.4L359.9,333.7z M313.2,326.2&#10;&#9;&#9;c5.4-5.1,4.6,14.9,4.6,14.9S307.9,331.3,313.2,326.2z M294.1,334.3c0.4-7.8,11.2,13.3,11.2,13.3S293.7,342.1,294.1,334.3z&#10;&#9;&#9; M302.4,331.4c0.5-9.7,12.1,18.4,12.1,18.4S301.9,341.1,302.4,331.4z" id="el__8us5LOMl0J"/>
	<path d="M317.8,341c0,0,0.8-20-4.6-14.9S317.8,341,317.8,341z" id="el_TzJhY1YjxEO"/>
	<path d="M294.1,334.3c-0.4,7.8,11.2,13.3,11.2,13.3S294.5,326.5,294.1,334.3z" id="el_tl5PUHj49ub"/>
	<path d="M302.4,331.4c-0.5,9.7,12.1,18.4,12.1,18.4S302.9,321.7,302.4,331.4z" id="el_UeolhVN4_eK"/>
	<polygon points="324.3,386.6 334.7,386.1 334.5,353 307,358.4 307.6,387.5 &#9;" id="el_HQYspXVGHtU"/>
</g></g>
<g id="el_Z5wdYZ0AVpT_an_Od-FpoDrd" data-animator-group="true" data-animator-type="0"><g id="el_Z5wdYZ0AVpT">
	<path d="M164.7,292.9l11.6,56.8c8.2,0.6,19-1.1,31.7-4.6l-16.2-63.1L164.7,292.9z" id="el_IPzV_NIwa-h"/>
	<path d="M149.9,269l30.8-11.9L145.8,236c-15.1,9.6-22.9,16.1-22.9,16.1L149.9,269z" id="el_6g4AQNvTrcQ"/>
	<path d="M122.8,252.1c0,0-2.7,41.8,11.2,54.8c0,0,25.2,46.3,42.2,42.7l-11.6-56.8L149.9,269L122.8,252.1z M132.3,298.4&#10;&#9;&#9;c-6.7-3.2,12.3-9.5,12.3-9.5S139,301.6,132.3,298.4z M146.7,313.4c-7.4,2.4,8.4-15.2,8.4-15.2S154.1,311,146.7,313.4z M141,306.7&#10;&#9;&#9;c-9.3,3,12.9-17.8,12.9-17.8S150.3,303.7,141,306.7z" id="el_c_2Xg2mctka"/>
	<path d="M144.6,288.9c0,0-18.9,6.3-12.3,9.5C139,301.6,144.6,288.9,144.6,288.9z" id="el_qjeTgyIsiVG"/>
	<path d="M146.7,313.4c7.4-2.4,8.4-15.2,8.4-15.2S139.3,315.8,146.7,313.4z" id="el_tjLXYwiF1rb"/>
	<path d="M141,306.7c9.3-3,12.9-17.8,12.9-17.8S131.8,309.6,141,306.7z" id="el_IpLyaFkZcGC"/>
	<polygon points="184.9,266.6 180.7,257.1 149.9,269 164.7,292.9 191.7,281.9 &#9;" id="el__fcDJYckaF3"/>
</g></g>
</svg>